/* XPM */
static char *box_open[] = {
/* columns rows colors chars-per-pixel */
"96 96 88 1 ",
"  c #332B29",
". c #3B322E",
"X c #3D3330",
"o c #403632",
"O c #453A35",
"+ c #493D37",
"@ c #4A3F39",
"# c #4E423C",
"$ c #52453F",
"% c #544640",
"& c #564941",
"* c #5B4D45",
"= c #5E4E49",
"- c #5E5146",
"; c #5F5149",
": c #605647",
"> c #615B47",
", c #61524A",
"< c #675A4F",
"1 c #695A4F",
"2 c #675950",
"3 c #6A5C51",
"4 c #66604A",
"5 c #6A644A",
"6 c #6D684C",
"7 c #726B4D",
"8 c #75734F",
"9 c #6F6055",
"0 c #746356",
"q c #776E52",
"w c #76655A",
"e c #78675A",
"r c #7A695D",
"t c #7A7553",
"y c #7F6D60",
"u c #7F7062",
"i c #857465",
"p c #897767",
"a c #8C7F67",
"s c #887768",
"d c #8E7C6C",
"f c #907E6D",
"g c #828256",
"h c #858C55",
"j c #84825B",
"k c #878B5A",
"l c #8E8C5F",
"z c #8D905B",
"x c #90975B",
"c c #969D5E",
"v c #989E5E",
"b c #8A8364",
"n c #8B806B",
"m c #93846A",
"M c #909360",
"N c #958473",
"B c #9A8776",
"V c #9C8A79",
"C c #A18E7D",
"Z c #A4917F",
"A c #9EA662",
"S c #9EA962",
"D c #9EB560",
"F c #A1AB63",
"G c #A6B366",
"H c #A8B567",
"J c #ACB967",
"K c #AEBD6A",
"L c #A4C363",
"P c #B5C56D",
"I c #B7C96B",
"U c #BACE6E",
"Y c #BCCE70",
"T c #C0D470",
"R c #A79380",
"E c #AA9683",
"W c #AC9884",
"Q c #B19C87",
"! c #B39E8A",
"~ c #B5A28C",
"^ c #B9A68F",
"/ c #C1AD95",
"( c #C3B097",
") c #C5B199",
"_ c #C8B49B",
"` c #E1E7A6",
"' c #E2E8A7",
"] c #E8EEAA",
/* pixels */
"TTTTTTTTTTTTTTTTTTTTTTTTTTTTTTTTTTTTTTTTTTTTTTTTTTTTTTTTTTTTTTTTTTTTTTTTTTTTTTTTTTTTTTTTTTTTTTTT",
"TTTTTTTTTTTTTTTTT`TTTTTTTTTTTTTTTTTTTTTTTTTTTTTTTTTTTTTTTTTTTTTTTTTTTTTTTTTTTTTTTTTTTTTTTTTTTTTT",
"TTTTTTTTTTTTTTTTTTTTTTTTTTTTTTTTTTTTTTTTTTTTTTTTTTTT`TTTTTTTTTTTTTTTTTTTTTTTTTTTTTTTTTTTTTTTTTTT",
"TTTTTTTTTTTTTTTTTTTTTTTTTTTTTTTTTTTTTTTTTTTTTTTTTTTTTTTTTTTTTTTTTTTTTTTTTTTTTTTTTTTTTTTTTTTTTTTT",
"TTTTTTTTTTTTTTTTTTTTTTTTTTTTTTTTTTTTTTTTTTTTTTTTTTTTTTTTTTTTTTTTTTTTTTTTTTTTTTTTTTTTTTTTTTTTTTTT",
"TTTTTTTTTTTTTTTTTTTTTTTTTTTTTTTTTTTTTTKKJJTTTTTTTTTTTTTTPJJTTTTTTTTTTTTT`TTTTTTTTTTTTTTTTTTTTTTT",
"TTTTTTTTT`TTTTTTTTTTTTTTTTTTTTTTTTTTJ$*$$$ATTTTTTTTTTTTTa#$JTTTTTTTTTTTTTTTTTTTTTTTTTTTTTTTTT`TT",
"TTTTTTTTTTTTTTTTTTTTTTTTTTTTTTTTTTTTH$$$$&MTTTTTTTTTTTTTg#*KTTTTTTTTTTTTTTTTTTTTTTTTTTTTTTTTTTTT",
"TTTTTTTTTTTTTTTTTTTTTTTTTTTTTTTFvvvvxiyiyuMMvUTTTTTTYPvvkiilcvcvATTTTTTTTTTTTTTTTTTTTTTTTTTTTTTT",
"TTTTTTTTTTTTTTTTTTTTTTTTTTTTTTT:%$%@0__))_i$$JTTTTTTTc$$m)_0$$$$:TTTTTTTTTTLLLTTTTLITTTTTTTTTTTT",
"TTTTTTTTTTTTTTTTTTTTTTTTTTTTTTT:%%%$0_____i$$JTTTTTTTc$$N__0$$$$:TTTTTTTTTTLLLTTTLLLTTTTTTTTTTTT",
"TTTTTTTTTTTTTTTTTTTTTTTTTFgggggmNBfBZ_____ZNNjggTTIggkNN!__CNNNNNgggggGYTTTLLLTTTLLLTTTTTTTTTTTT",
"TTTTTTTTTTTTTTTTTTTTTTTTTx$$$$$^_____________1$$TTK&$r__________^$$$$%zTTTTTTTLLLTTTTTTTTTTTTTTT",
"TTTTTTTTTTTTTTTTTTTTTTTTTx$$$$*/_____________3$$TTJ%$i__________^$$$$$zTTTTTTTLLLTTTTTTTTTTTTTTT",
"TTTTTTTTTTTTTTTTTTTI67666aWWQZZ)_____________3$$66tWQ^__________)WWWWEa6677qITKLLTTTTTTTTTTTTTTT",
"TTTTTTTTTTTTTTTTTTTP$$$$$f___________________1$$$$3___________________f$$$$$PTTTTTTTTTTTTTTTTTTT",
"TTTTTTTTTTTTTTTTTTTP%$$$$f_______________))))1$$$$1_)_________________n$$$$$PTTTTTTTTTTTTTTTTTTT",
"TTTTTTTTTTTTTT7-*-*1/////______________B*****%$$093*****f_____________((////1****tTTTTTTTTTTTTTT",
"TTTTTTTTTTTTLL5$$$$,___________________B%%%%%$$$w03$%%%%f___________________:$$$$7TTTTTTTTTTTTTT",
"TTTTTTTTTIPPFD7:,,,9______________/!/!!f%%%%%%$%003&%%%%f//^^^______________0,,>,qPIUTTTTTTTTTTT",
"TTTTTTTTv$$$$$Q__________________/%%%%%=i1101%+%00000090,@%%@%/__________________W$$gTTTTTTTTTTT",
"TTTTTTTTv$$$$$Z__________________/%%+%%=1i00i%%%0000009i,%%@%%/__________________W$$gTTTTTTTTTTT",
"TTTTTTTTH8t:$$Q_____________!ZCCRB***110iii11%%%000iiiip1=***%CZZZRQ_____________~eekFFUTTTTTTTT",
"TTTTTTTTTTTh$$Z_____________r$%%%%1iiBBBffi0i%%%00ifffffii000i*@$$%r________________N$$DTTTTTTTT",
"TTTTTTTTTTTF$$Z_____________e%$%%%00iBBBBBp1i++%1iiCfZfZi1ii,i++$$$r________________N%%cTTTTTTTT",
"TTTTTTTTTTTJzzmff)____~ffddd0,,01ipppfBBBBiii%%%i1ifZfZfpipfii,=,:,0ddddd~____)ddfddbzzJTTTTTTTU",
"TTTTTTTTTTTTTT6$$/____Z$%%%%100ffBBBBBBBfBi11%+%=iiffZfZffZfffii0001%$$%%R____(%$$$$gYTTTTTTTTTT",
"TTTTTTTTTTTTTT6$$/____Z$#%#%300NBBBBBBBBffiii+%%i=ifZfRffZfZfpi,000<%$%#%R____^%$$$$gTTTTTTTTTTT",
"TTTTTTTTTTTTTTJFAirrre012wiipddBBBBBBBBBBBp1i*%+1iiiRffRfZfEZZffdddi232320rreryAAFAAKTTTTTTTTTTT",
"TTTTTTTTTTTTTTTTT$$$$$-00iBBBBBBBBBBBBBBBBii1*%%i=iffRRfffZfffZfBBBd00003=%%$$*TTYTTTTTTTTTTTTTT",
"TTTTTTTTTTTTTTTTT*$$$$-00iBBBBBBBBBBBBBBffiii+%%i=ipRffRWfZfEffZBBBd00000*%#$$*TTTTTTTTTTTTTTTTT",
"TTTTTTTTTTTTTTTTT-$$$$$$&***sBBBBBBBBBBBfpi,i%%+,iiffWffWffZffZfBBBi&&&&%B^^:$$::8TTTTTTUTTTTTTT",
"TTTTTTTTTTTTTTTTT=%%$$$$$%$$iBBVBBBBBBBBZfd1i#$$i=iffRffRffZfZfZNBBi%%%%%R)_;%%%%6YTTTTTTTTUTTTT",
"TTTTTTTYTTTTTTTTT=%%=%===%==iBffBmBBBBBBfRiii%$$1iifRffRfRZfZfffNfNu*&**&R__2=&%%6UUYYTTTTTTTTTT",
"TTTTTTTTTTTTTTTTT*%=))__))))i#$$%%BBBBBBffi11$#$i=iffRRffRfZZf=%%%#y)_________^w93%%hTTTTTTTTTTT",
"TTTTTTTTTTTTYTTTT=%=_____))/i#$%%%BBBBBBffiii+$$,iiffRfRRfRfff=%#%%y__________)999#%gTTTTTTTTTTT",
"YTTTTTTTTTTTYTLJF=#=________f000,ipipppffRp1i=$$i,ifffffdppifpi199wd))________)spr$$gTTTTTTTTUTT",
"TTTTTTTTTTTTTT7$%$%,__)_______)))/%%%%+iffii1%$$,iifRfRfi$%%%%/)__)______________W$$gYTTTTTTTTTT",
"TTTTTTTTTTTTYT6$%%%=____________)/%%+++idfii1*$$i,ifffff2#%%%%/)_____________))__W$$gTTTTTTTTTTT",
"TTTTTTTTTTYGxx4$$%%=____________)/ippiiiii=2=%$$,ii1iiiiiipiip))___________)RdNNNmggSTTTTTTTTTTT",
"TTTTTTTTTYTg$$$$$$$,_____)_____________f=%%$%%%$022%$$$$f)__________________,$$$$6TTTTTTTTTTTTTT",
"TTTUTTTTTTTh$$$$$$%,___________)_______f%%$$%%$$0i9%$$$%B))_________________,$$$$6TTTTTTTTYTTTTT",
"TTTTTTTTTTYJvcccM*@*yiN________________!fRffV=%#==2CBBCC!___)____________Nii$$$vcGYTTTTTTTTTTTTT",
"TTTTTTTTTTTTYTTTT=%%%%e_____________________),%%$$2__)___________________e$$$$*TYTTTTTTTTTTTTTTT",
"TTTTTTTTTTTTTTTTY*%%#%w))________)________))_i#%$$2))))__________________e$$$$-TTTTTTTTTTTTTTTTT",
"TTTTTTTTTTTTTYTTY&%*ddi21111W_____________f1=+%%$$=22s_____________E3<111*$$$$*TTTTTTTTTTTTTTUTT",
"TTUTTTTTTTTTTTTTT;%&BBi%$$%%f_)___________p%%%%#$$$$%i_____________Z$$$$$$$$$$*TTTTTTTTYTTTTTTTT",
"TTTTTTTTTTTTTTTTY;%*BBy%%%%%!_))__________p%%%%%$$$$%i_____________Z$$$$$$$$$$*TTTTTTTTTTTTTTTTT",
"TTTTTTTUTTTTTTTTT*%*ffpiiiff=+$$$*_____f$$iff=$$$$$$$$$$f_____=$$$$$$$$$$$$$$$-TTTTTTTTTTTTTTTTT",
"TTTTTTTTTTTTTTTTT*%*Zfi1=iffi%$$$=_____f$$iCC=$$$$$$$$$$B__)__=$$$$$$$$$$$$$$$-TTTTTTTTTTTTTTTTT",
"TTTTTTTTTTTTTTTTT*%*fZfiifRfi==i=,!!^~!f==ifC=$$$$$$$$$$s!!!!!%$$$$#$$$$$$$$$$-TTTTTTTTTTTTTTTTT",
"TTTTTTTTTTTTTTTTY*%*ZffiiffZffffff%%%%@0fCCfC=$$$$$$$$$$%$$$$$$$$$$#$$$$$$$$$$-TTTTTTTTTTTTTTTTT",
"TTTTTTTTTTTTTTTUT=%*ffpi,iffWffERC%%@%@0CfCfR=%$$$$$$$$$$%$$$%$$$$$#$$$$$$#$$$$TTTTTTTTTTTTTTTTT",
"TTTTTTTTTTTTTTTTT=%*fffpipEffRfRff991i0ifCCCf=$$$$$$$$$$@OOOOO$$####$$$$##o##$-TTTTTTTTTTTTTTTTT",
"TTUTTTTTTTTTTTTTT=%=WffRffEffRffRffCCfCffCfCR=$$$$$$$$$$o     #%#  .$$$$$.  #$:TTTTTTTITTTTTTTTT",
"TTTTTTTTTTTTTTTTY=%1fREffffREffEffRffCfCCfCff=$$$$$$$$$$o     #$#  .$$$$$o  #$-TTTTTTTTTTTTTTTTT",
"TTTUTTTTTTTTTTTTT=%*ffRffpiiffZfRfCfCCffiifCf2$$$$$$$$$$@OOOOO#%#  .$$$$$.  ##-TTITTTTTTTTTTTTTT",
"TTTTTTTTTTTTTTTTY=%*RffEfi=ifZfCfRfRVfCfwwpff=$%$$$$$$$$$$$$$$$$#  .$$$$$.  ##-TT`]]TTT]]]TTTTTT",
"TTTTTTTTTTTTTTTTT=%*ffffffi=fCffCfCfffffwwsBR=%%$$$$$$$$$$$$$$$$#  .$$$#$o  #$-TT]]]TTT]]]TTTTTT",
"TTTTTTTTTTTTTTTTY*%*piffff=iiiiffRfCfiipfffBf2%%$$$$$$$$$$$oXX#$####$$#..   #$&TT]]]TTT]]`TTTTTT",
"TTTTTTTTTTTTTTTTT=%%11iZfpii1i=ffVVCf10iBBBBB=$$$$$$$$$$$$$X  #$$$$$$$o     #$>TTTTT`]]TTTTTTTTT",
"TTTTTTTTTTTTTTTTY=%%iiifEfi=iiipCCfffi0iBBBBB=$$$$$$$$$$$$$X  #$$$$$$$o     #$-TTTTT]]]TTTTTTTTI",
"TTTTTTTTTTTTTTTTY=%%10ifEfpfffpiiifCCfffBBBBB=$$$$$$$O  O$$##$  .#$$$$o  ####$$TTTTT]]]TTTTTTTTT",
"TTTTTTTTUTTTTTTTY%$%00iRffffCffi11VCfCfCBBBVV=$$$$$$$O  O$%$$%  .$$$$$.  #$$$#>TTTTTTTTTTTTTTTTT",
"TTTTTTTTTTTITTTTT>#$00ifCfCfCBBiiifBBBBBBBBBZ,%$$$$$$+  O$$$$$   %$$##o  #$$$$-YTTTTTTTTTTTTTTTT",
"TTTTTTTTTTTTTTTTT$$$00iffCfCBBCfBBfBBBBBBBBBf-%%$$$$$+  O$$$$$   %$+  o%%#$$$$;TTTTTTTTTTTTTTTTT",
"TTTITTTTTTTTTTTTT-$$00iCCCCfZffCBBBBBBBBBBBBf1$$$$$$$o  O$$$$$   %$+  O%$$$$$%*TTTTTTTTTYTTTTTTT",
"TTTTTTTTTTTTTTTTT-#>01ifffddffffBBBBffffdfpfp-$$$$$$$+o.+$$$$$o.o%$O  o$$$$$%#*YTYTTTTTTTTTTTTTT",
"TTTTTTTTTTTTTTTTT-$&q7ifpi,ii1iiBBBBf000i111i+$$$$$$$$$$$$$$$$$$%%%O  o%$$%$$%*TTTTTTTTTTTTTYTTT",
"TTTTTTTTT]]]TTTTT&$&00iBfiii1iidBfBBf00100i1i%$$$$$$$$$$$$$$$$$$%%%O  X%$$$$$%*TTTTTTTTTTTTTTTTT",
"TTTTTTTTT]]]TTTTT-#$00ipipppiiiiiiiii00iipii1$#$$$$$$$$$$$$$$$$$#%$@OX@%$$$$$$*TTTTTTTYTYTTTTTTT",
"TTTTTTTTT]]]TTTTT-$$0010iiZfffpi1i00000ifBi1i+$$$$$$$$$$$$$$$$$$#%$%%$%%$$$$$$*TTTTTTTTTTTTTTTTT",
"TTTTTTTTTTTT]]]TT*$%1i00iifffRfi0000000iCmi00*$$$$$$@@%%%@%%$$$$%%%#$$$$$$$$$$-TTTTTTTTTTTTTTTTT",
"TTTTTTTTTTTT]]]TT*$$**-0i1iifffffpdddddpiie00&$$$$+oo+%%+oooooo.X%%%$$$$$hSSSSSTTTTTTTTTTTTTTTYT",
"TTTTTTTTTITT]]]TT*$$$$*0=i,1fRfRBBBBBBBp10000&$$%%+o o*@o        %#%$$$$$SYYTTTTTTTTTTTTTTTTTTTT",
"TITTTTTTTTTT]]]TT*$$$$%ii=i,ffRfBBBBBBBp00000*$$%++  +@%o        #%%$$$&$STTTTTTTTTTTTTTTTTTTTTT",
"TTTTTTTTTTTT]]]TTIIPPPv&%%%%ii,pBBBBpii000000*$$%@+  o@%+@@@$$@@%%%6PPUIIYTTTTTTTTTUTTTUTTTTTTTT",
"TTTTTTTTTTTT]]]TTTTTTTv%%%%%-iifBCBBp01000000&$$%%+  o*@$%$$$$$$#%%8YYTTTTTYTTTTTTTTTTTTTTTTTTTT",
"TTTTTTTTTTTT]]]TTTTTTTF*****-i1pfBfBd00000000*$$%%@o O@*$$$$$$*=&;;n]YTTTTTTTTTTTTTTTTTTTTTYTTTT",
"TTTTTTTTTTTT]]]TTTTTTTTTTTTY7$%%@@i0000000000*$$@&%%@@*@$$%$$$`TYY]]]YTTTTTTTTTTTTTTTTTTTTTTTTTT",
"TTTTTTTTTTTT]]]TTTTTTTTTTTTT7$$$@$0i10i100000*$$$$$$$$$$%%$%%%]TTT]``TTTTTTTTTTITTTTTTTTTTTTTTTT",
"TTTTTTTTTTTTTTTTTTTTTTTTTTTTa7575i11111100000$$$$$$$$$$$>55577T]]]TTTTTTTTTTTTTTTTTTTTTTTTTTTTTT",
"TTTTTTTITTTTTTTTYTTTTITTTTTTTTTTT'$$$$$,00000*$$$$$$$$$$xTTTTTT]]]TTTTTTTTTTTTTTTTTTTTTTTTTTTTTT",
"TTTTTTTTTTTTTTTTTTTTTTTTTTTTTTTTT'$$$$$:00000*$$$$$$$$##xTTTTTTT]]TTTTTTTTTTTTTTTTTTTTTTTTTTTTTT",
"TTTTTTTTTTTTTTTTTTTTTTTTTTTTTTTTT`lMggh81,1,1$$$$$-hihghJTTTTTTTTTTTTTTTTTTTTTTTTTTTTTTTTTTTTTTT",
"TTTTTTTTTTTTTTTTTTTTTTTTTTTTTTTTT]]]TTTx$$$$$$$$$$5TTTITTTTTTTTTTTTTTTTTTTTTTTTTTTTUTTTTTTTTTTTT",
"TTTTTTTTTTTTITTTTTTTTTTTTTTTTTTTT]]]TTTx$$$@$@$$##>TTTTTTTTTTTTTTTTTTTTTTTTTTTTTTTTTTTTTTTTTTTTT",
"TTTTTTTTTTTTTTTTTTTTTTTTTTTTTTTTTTTTTTTJvvvvvvvvvvFTTTTTTTTTTTTTTTTTTTTTTTTTTTTTTTTTTTTTTTTTTTTT",
"TTTTTTTTTTTTTTTTTTTTTTTTTTTTTTTTTTTTITTTTTTTTTTTTTTTTTTTTTTTTTTTTTTTTTTTTTTTTTTTTTTTTTTTTTTTTTTT",
"TTTTTTTTTTTTTTTTTTTTTTTTTTTTTTTTTTTTTTTTTTTTTTTTTTTTTTTTTTTTTTTTTTTTTTTTTTTTTTTTTTTTTTTTTTTTTTTT",
"TTTTTTTTTTTTTTTTTTTITTTTTTTTTTTTTTTTTTTTTTTTTTTTTTTTTTTTITTTTTTTTTTTTTTTTTTTTTTTTTTTTTTITTTTTTTT",
"TTTTTITTTTTTTTTTTTTTTTTTTTTTTITTTTTTTTTTTTTUTTTTTTTTTTTTTTTTTTTTTTTTTTTTTTTTTTTTTTTTTTTTTTTTTTTT",
"TTTTTTTTTTTTTTTTTTTTTTTTTTTTTTTTTTTTTTTTTTTTTTTTTTTTTTTTTTTTTTTTTTTTTTTTTTTTTTTTTTTTTTTTTTTTTTTT",
"TTTTTTTTTTTTITTTTTTTTTTTTTTTTTTTTTTTTTITTTTTTTTTTTTUTTTTTTTTTTTTTTTTTTTTTTTTTTTTTTTTTTTTTTTTTTTT",
"TTTTTTTTTTTTTTTTTTTTTTTTTTTTTTTTTTTTTTTTTTTTTTTTTTTTTTTTTTTTTTTTTTTTTTTTTTTTITTTTTTTTTTTTTTTTTTI",
"TTTTTTTTTTTTTTTTTTTTTTTTTTTTTTTTTTTTTTTTTTTTTTTTTTTTTTTTTTTTTTTTTTTTTTTTTTTTTTTTTTTTTTTTTTTTTTTT"
};
