/* XPM */
static char *box_close[] = {
/* columns rows colors chars-per-pixel */
"96 96 74 1 ",
"  c #332B29",
". c #3A312D",
"X c #3D3430",
"o c #403632",
"O c #453B36",
"+ c #493D37",
"@ c #4A3F39",
"# c #4D413C",
"$ c #52453F",
"% c #544640",
"& c #564941",
"* c #5B4D45",
"= c #5E4E48",
"- c #5D5144",
"; c #5E5149",
": c #615547",
"> c #615B47",
", c #62534B",
"< c #6A5B4F",
"1 c #6B5D51",
"2 c #66604A",
"3 c #6D694B",
"4 c #726A4D",
"5 c #75734F",
"6 c #7A784F",
"7 c #746356",
"8 c #77665B",
"9 c #78675A",
"0 c #76695C",
"q c #7B695D",
"w c #7D7B51",
"e c #7F6D60",
"r c #7F7062",
"t c #806E60",
"y c #857465",
"u c #897767",
"i c #887768",
"p c #8D7C6B",
"a c #907E6D",
"s c #858B55",
"d c #878B59",
"f c #8C8F5A",
"g c #8E915C",
"h c #90975B",
"j c #969D5E",
"k c #938E6F",
"l c #948272",
"z c #9A8776",
"x c #9C8A79",
"c c #A08F7D",
"v c #A4917F",
"b c #9EA662",
"n c #9FA862",
"m c #A0A963",
"M c #A6B367",
"N c #A4C263",
"B c #AEC069",
"V c #B5C46C",
"C c #BCCE6F",
"Z c #C0D470",
"A c #A79481",
"S c #A99582",
"D c #AC9984",
"F c #B29E8A",
"G c #B5A28C",
"H c #B9A68F",
"J c #B9A790",
"K c #BEAB93",
"L c #C0AD95",
"P c #C7B49B",
"I c #C8B49B",
"U c #E1E6A5",
"Y c #E2E8A7",
"T c #E8EEAA",
/* pixels */
"ZZZZZZZZZZZZZZZZZZZZZZZZZZZZZZZZZZZZZZZZZZZZZZZZZZZZZZZZZZZZZZZZZZZZZZZZZZZZZUZZZZZZZZZZZZZZZZZZ",
"ZZZZZZZZZZZZZZZZZZZZZZZZZZZZZZZZZZZZZZZZZZZZZZZZZZZZZZZZZZZZZZZZZZZZZZZZZZZZZZZZZZZZZZZZZZZZZZZZ",
"ZZZZZZZZZZZZZZZUZZZZZZZZZZZZZZZZZZZZZZZZZZZZZZZZZZZZZZZZZZZZZZZZZZZZZZZZZZZZZZZZZZZZZZZZZZZZZZZZ",
"ZZZZZZZZZZZZZZZCZZZZZZZZZZZZZZZZZZZZZZZZZZZZZZZZZZZZZZZZZZZZZZZZZZZZZZZZZZZZZZZZZZZZZZZZZZZZZZZZ",
"ZZZZZZZZZZZZZZZZZZZZZZZZZZZZZZZZUZZZZZZZZZZZZZZZZZZZZZZZZZZZZZZZZZZZZZZZZZZZZZZZZZZZZZZZZZZZZZZZ",
"ZZZZZZZZZZZZZZZZZZZZZZZZZZZZZZZZZZZZZZZZZZZZZZZZZZZZZZZZZZZZZZZZZZZZZZZZZZZZZZZZZZZZZZZZZZZZZZZZ",
"ZZZZZZZZZZZZZZZZZZZZZZZZZZZZZZZZZZZZZZZZZZZZZZZZZZZZZZZZZZZZZZZZZZZZZZZZZZZZZZZZZZZZZZZZZZZZZZZZ",
"ZZZZZZZZZZZZZZZZZZZZZZZZZZZZZZZZZZZZZZZZZZZZZZZZZZZZZZZZZZZZZZZZZZZZZZZZZZZZZZZZZZZZZZZZZZZZZZZZ",
"ZZZZZZZZZZZZZZZZZUZZZZZZZZZZZZZZZZZZZZZZZZZZZZZZZZZZZZZZZZUZZZZZZZZZZZZZZZZZZZZZZZZZZZZZZZZZZZZZ",
"ZZZZZZZZZZZZZZZZZZZZZZZZZZZZZZZZZZZZNNNZZZZZZZZZZZZZZZZZZZZZZZZZZZZZZZZZZZZNNBZZZZNZZZZZZZZZZZZZ",
"ZZZZZZZZZZZZZZZZZZZZZZZZZZZZZZZZZZZZNNZZZZZZZZZZZZZZZZZZZZZZZZZZZZZZUZZZZZZNNNZZZNNNZZZZZZZZZZZZ",
"ZZZZZZZZZZZZZZZZZZZZZZZZZZZZZZZZZZZZNNNZZZZZZZZZZZZZZZZZZZZZZZZZZZZZZZZZZZZNNNZZZNNNZZZZZZZZZZZZ",
"ZZZZZZZZZZZZZZZZZZZZZZZZZZZZZZZZZZNNZZZZZZZZZZZZZZZZZZZZZZZZZZZZZZZZZZZZZZZZZZNNNZZZZZZZZZZZZZZZ",
"ZZZZZZZZZZZZZZZZZZZZZZZZZZZZZZZZZNNNZZZZZZZZZZZZZZZZZZZZZZZZZZZZZZZZZZZZZZZZZZNNNZZZZZZZZZZZZZZZ",
"ZZZZZZZZZZZZZZZZZZZZZZZZZZZZZZZZZNNNZZZZZZj3353535jZZZZZZZZZZZZZZZZZZZZZZZZZZZNCNZZZZZZZZZZZZZZZ",
"ZZZZZZZZZZZZZZZZZZZZZZZZZZZZZZZZZNNNZZZZZZs##$##$$6ZZZZZZZZZZZZZZZZZZZZZZZZZZZZZZZZZZZZZZZZZZZZZ",
"ZZZZZZUZZZZZZZZZZZZZZZZZZZZZZZZZZNNNZZZZZCq$$$$$$$3CZZZZZZZZZZZZZZZZZZZZZZZZZZZZZZZZZZZZZZZZZZZZ",
"ZZZZZZZZZZZZZZZZZZZZZZZZZZZZZZZZZNNNZZZh;*%$$$$$LLv$*******MZZZZZZZZZZZZZZZZZZZZZZZZZZZZZZZZZZZZ",
"ZZZZZZZZZZZZNNNZZZZZZZZZZZZZZZZZZZZZZZZh%#$$$$%$IIJ$$$$$$$$MZZZZCZZZZZZZZZZZZZZZZZZZZZZZZZZZZZZZ",
"ZZZZZZZZZZZZNNNZZZZZZZZZZZZZZZZCVVVVVVVg,,,,==,=IIH>:::>&$$bVVVVCZZZZZZZZZZZZZZZZZZZZZZZZZZZZZZZ",
"ZZZZZZZZZZZZNNNZZZZZZZZZZZZZZZZ>%$$$$$$yPIIPPPIPIIPIPIIIy%%%$$$$-ZZZZZZZZZZZZZZZZZZZZZZZZZZZZZZZ",
"ZZZZZZZZZZZZZZZNNZZZZZZZZZZZZZZ>%%$$$%$yPPPPPPIPIIPIIIIIy#%%$$#$,ZZZZZZZZZZZZZZZZZZZZZZZZZZZZZZZ",
"ZZZZZZZZZZZZZZZNNNZZZZZZZBmmmmm$$$8800qxPIPIIPPIPIPIIKvv8%%100%$-nnnMnBCZZZZZZZZZZZZZZZZZZZZZZZZ",
"ZZZZZZZZZZZZZZZNNNZZZZZZZf$$$$$$$*IIPPIPIPIIIIIIIIIIIc$$%%%DPP*$#%#%%#gZZZZZZZZZZZZZZZZZZZZZZZZZ",
"ZZZZZZZZZZZZZZZNNNZZZCZZZf$$$$$$$*IIIIPPIIIIIIIIPPPPLA$$%%%DPP*$$$$$$$dCZZZZZZZZZZZZZZZZZZZZZZZZ",
"ZZZZZZZZZZZZZZZNNNZZfgggf3$#qpppaaIIIIIPIIIIIIIIpapppppppipJPPappppq%#3gffffZZZZZZZZZZZZZZZZZZZZ",
"ZZZZZZZZZZZZZZZCNNZZ$$$$$$$$vIIIIIIIIIIIIIPPIIII$$%$$eIIPPPIIIPIIIIv%%%%$$$$VZZZZZZZZZZZZZZZZZZZ",
"ZZZZZZZZZZZZZZZZZZZN$$$$$$$$vIIIIIIIIIIIIIIPIIII$$$%%eIIPPPPIIIIIIIv%#%#$$$$VZZZZZZZZZZZZZZZCZZZ",
"ZZZZZZZZZZZZZZZZZs65#$1AvvvvKPIIIIIIIIIIIIae8e88AAAAAFPIIIIIIIIIPIIHvvvvv-oo466ZZZZZZZZZZZZZZZZZ",
"ZZZZZZZZZZZZZZZZZ$$$$$qIIIIIIPIIIIIIIIIIPPy%$$$$PPILIIPPIIIIIIPIIIIIIIIII:  #$$ZZZZZZZZZZZCZZZZC",
"ZZZZZZZZZZZZZZZZZ>$$$$5IIPIPIIIIIIPPPPIIPPe$$$$$IIIIIIIIIPIIIIIIIIPPIIIII,  #$2ZZZZZZZZZZZZZZZZZ",
"ZZZZZZZZZZZZZZZZZ$$$$$$:,,,,SIIIIL,,,,;;,,%$$AJJIIIIIIIIIIIIIIIIIIIvO+++++$+$$>ZZZZZZZZZZZZZZZZZ",
"ZZZZZZZZZZZZZZZZZ=%%%%%%$$$$AIIIIL%#%%%%%%#%%FIIPIIIIIIIIIIIIIIIIIIx     +%$%%*ZZZZZZZZZZZCZZZZZ",
"ZZZZZZZZZZZZZZZZZ=#%%%%=&%$$cLLLLJ%%%&&&****&FIIIIIIIIIIIIIIIIKKHLLa     +$$%%*CZZZZCZZZZZZZZZZZ",
"ZZZZZZZZZZZZZZZZZ=%%77taz8$$@$$$%#%#7IPPIIIIPIIIIIIIIIIIIIIIIIX    .$$$$%.  @%*ZZZZZZZZZZZZZZZZZ",
"ZZZZZZZZZZZZZZZZZ%%%77txc8$$$$$$%%%%1IIIIIIIIIIIIIIIIIIIIPIIIIX    o$$$$$.  @%*ZZZZZZZZZZZZZZZZZ",
"ZZZZZZZZZZZZZZZZZ=#%77txat<,,,,%@%%%1DDGIIIIPPPPIIPPIIIIFAAAAAXX.  .$$$$$o..@%*ZZZZZZZZZZZZZZZZZ",
"ZZZZZZZZZZZZZZZZZ=$&77tacaAazzc*%%%%%%%iIPIIPPPPIIPPIIII0     %%$  o$$$$$%$%%%*ZZZZZZZZZZZZZZZZZ",
"ZZZZZZVZZZZZZZZZZ*$&77yaAaaAzzz=%%%%%%%yPPPPPPPPIPPPIIII0     #%@  o$$$$$$$$%$*ZZZZZZZZZZZZZZZZZ",
"ZZZZZZZZZZZZZZZZZ=$*yyaxaAaaauu871711%%1zlzlllllllliiipi;XXXXX#%@  .OO+$$$$$%$*ZZZZZZZZCZCZZZZZZ",
"ZZZZZZZZZZZVZZZZZ*$*acaczzzzt77azzzzi%%#%#%%%%#%%%%     O%#%%%%%@     O$$$$$$$*ZZZZZZZZZZZZZZCZZ",
"ZZZVZZZZZZZZZZZZZ*$*caaczzzzt77azzzzi%%%%%#%%#%%%%@     X%%%%#%#$     o$$$$$$$*ZZCZZZZZZZZZZZZZZ",
"ZZZZZZZZZZZZZZZZZ*#*cacazzzzt77trrzzleeeeeeee#XX..XOOOXO%%%%#%%%@+OOO+@$$$$$$$*ZZZZZZZZZZZZZZZZZ",
"ZZZZZZZZZZZZZZZZZ*%=acaczzzzt77787zzzzzzzzzzz+     %%%%%%%%#%%%#$$$$$$$$$$$$$$*ZZZZZZZCZZZCZZZZZ",
"ZZZZZZZZZZZZZZZZZ=#*vavazzzzt77778zzzzzzzzzzz+    .%%%%%%%%%%%%%$$$$$$$$$$$$$$*ZZZZZZZZZZZZZZZZZ",
"ZVZZZZZZZZZZZZZZZ=#*avSazzzzaaaalazza8qq00pzz*##@@@%@%%@%%%X    o$$$$$$$$$$$$$*ZZZZZZZZZZZZZCZZZ",
"ZZZZZZZZZZZZZZZZZ=%=avaAzzzzczzzzzzza77777izz,%#%%%%%%%##%%.     $$$$$$$$$$$$$*ZZZZZZZZZZZZZZZZZ",
"ZZZZZZZZZZZZZZZZZ=%=vavazzzzzzzzzzzza77787izz;$%##%%#%%%%%%.    o$$$$$$$$$$$$$*ZZZZCZZZZZZZZZZZZ",
"ZZZZZZZZCZZZZZZZZ*%*zzp77yzzzzzzzzzzzzzzzzzzl;%#%#%%$$$$$$$$$$$$$$$$$$$$$$$$$$-ZZZZZZZZZZZZZZZZZ",
"ZZZZZZZZZZZZZZZZZ*$*zzp77yzzzzzzzzzlzzzzzzzzx&%%%%%#$$$$$$$$$$$$$$$$$$$$$$$$$$*ZZZZZZZZZZZZZZZZZ",
"ZZZZZZZZZZZZZZZZZ*%*zza77yzzczzalllalzzzzzzll*%%%#%#$$$$$$$$$$$%$$$$$$$$$$$$$$*ZZZZZZZZZZZZZZZZZ",
"ZZZZZZZZZZZZZZZZZ*$*zza77yzzzzz97777ezzzzzr71*%%%%%%$$%$$$$$$$$$$$$$$$$$$$$$$$*ZZZZZZZZZZZZZZZZZ",
"ZZZZZZZZZZZZZZZZZ*$*zzp77uzzzzz97777qxlzzzr77*%%#%$$$$$$$%%$$%$$$$$$$$$$$$$$$$*ZZZZZZZZZZZZZZZZZ",
"ZCZZZZZZZZZZCZZZZ*$*zzattazzzzzyyreyizzzzzirr*%%#%$%$$$$@OOOOO$$$+++$$$$$+OO$$*ZZZZZZZZZZZZZZZZZ",
"ZZZZZZZZZZZZZZZZZ*$*zzzzzzzzzzzzzzzzzzzzzzxzx;%%%%%%$$$$o     #%@  o$$$$$o  +$*ZZZZZZZZZZZZZZZZZ",
"ZZZCZCZZZZZZZZZZZ*$*zzzzzzzzzzzzzzzzzzzzzzzzl;%%%#%#$$$$o     #$+  o$$$$$o  $$*ZZZZZZZZZZZZZZZZZ",
"ZZZZZZZZZZZZZZZZZ*$*zzzzzayyazzzzzzzzzzprrlzz%.X$$$$$$$$OOOOOO#%@  o$$$$$o  @$-ZZZZZZZZZZZZZZZZZ",
"ZZZZZZZZZCZZZZZZZ*$-zzzzzy77azzzzzzzzzzu77ixAX  $$$$$$$$%%$$#%$$$  o$$$$$.  $#-ZZUTTZZZTTTZZZZZZ",
"CZZZZZZZZZZZZZZZZ*$=zzzzzy77azzzzzzzzxzu87rAl%  $$$$$$$$$$$$%%$$@  o$$$@$o  @$-ZZTTTZZZTTTZZZZZZ",
"ZZCZZZZZZZZZZZZZZ-$$ttyzzy77qqqlzzzzlqqyppllzX  $$$%$$$$$$$o..#$$+++$$Oo.   $$-ZZTTTZZZTTZZZZZZZ",
"ZZZZZZZZZZZZZCZZZ*$*77tzzy77777lzzzza77ylAlpAO  $$$$%%$$$&&.  #%$$$$$$o     #$-ZZZZZTTTZZZZZZZZZ",
"ZZZZZZZZZZZZZZZZZ*$$77tzzy77777lzzzzp77ypAlAkO  $$$$#%$$$#%X  #$$$$$$$+     #$-ZZZZZTTTZZCZZZZZZ",
"ZZZZZZZZZZZZZZZZZ-$$77tzzzzllzzq79zzzllzllrAA%#$$$$$$O  O###%#  o$$$$$o  +@@#$$ZZZZZTTTZZZZZZZZZ",
"ZZZZCZZZZZZZZZZZZ=$$77tzzzzzzzz879zzzzzzAlApA;$$$$$$%O  O&&#%&   $$$$$o  +%%$#-ZZZZZZZZZZZZZZZZC",
"ZCZZZZZZZZZZZZZZZ-+&<ttazzzzzzztttaavaavavaxa<=%%%$$$o  O%$$$$   $$$@$o .+$$$$*ZZZZZZZZZZZZCZZZZ",
"ZZZZZZZZZZZZZZZZZ-@&t<tazzzzzzzaaxxxavvavaaxa=%%$$$$$+  o%$$$$   $$+  o$$$$$$$*ZZZZZZZZZZZZZZZZZ",
"ZZZZZZZZZZZZZZZZZ-&-t<tzzzzzzzzzaxaxvxaxaxvaa<$$$$$$$+  o%$$$%  .$$+  o$$$$$$$*ZZZZZZCZZZZZZZZZZ",
"ZZZZZZZZZZZZZZZZZ-#$<ttzzaaaaaazvavxaaaaaaaau=$$$$$$$+XX+$$$$$oXo$$+  o$$$$$$$*ZZZZZZZZZZZZZZZZZ",
"ZZZZZZZZZZZZZZZZZ-$&t4tzau77t<tuvavap777tt<<t$%$$$$$$$$$$$$$$$$$$$$+  o$$$$$$$*ZZZZCZZZZZZZZZZZZ",
"ZZZZZCZZZTTTZZZZZ-$&t<tzzt7t<ttaaaava777<tt<t%%#$$$$$$$$$$$$$$$$$$$+  O$$$$$$$*ZZZZZZZZZZZZZZZZZ",
"ZZZZZZZZZTTTZZZZZ-+&<t<tuuuuuuttyuuut77ttatt<%#%$$$$$$$$$$$$$$$$$$$$oo#$$$$$$$*ZZZZZZZZZZZZZZZCZ",
"ZZZZZZZZZTTUZZZZZ-$&t<t<tuzzazat7777777yaattt#%%$$$$$$$$$$$$$$$$$$$$$$$$$$$$$$*ZZZZZZZZZZZZZZZZZ",
"ZZZZZZZZZZZZTTTZZ*$%<t<t<uaaccat7777777ycat77*%%%$$$%%$$$$$$$$$$$$$$$$$$$$$$$$*ZZZZZZZZZCZZZZZZZ",
"ZCZZZZZZZZZZTTTZZ*%%**-<<tttaaaaaappppputt877*%@$$#XXo$$+XXXXXXXo$$$$$$$$sbmbbnZZZZZZZZZZZZZZZZZ",
"ZZZZZZZZZZZZTTTZZ*$$$$*tt<ttaavaavaaaavp77777%%%$$#  o$$X        $$$$$$$$bZZZZZZZZZZZZZZZZZZZZCZ",
"ZZZZZZCZZZZZTTTZZ*$$$$%t<t<<avavAaAAaAaa77777*%%$$#  X$$X        $$$$$$$$bZZZZZZZZCZZZZZZZZZZZZZ",
"ZZZZZZZZZZZZUUTZZVVVVVj%&%%%tt<acaAaa7t977777&%%$$#  X$$$#$+$###$$$4VVVVVCZZZZZZZZZZZZZZZZZZZZZZ",
"ZZZZZZZZZZZZTTTZZZZZZZb$%%%$,ttaacaca77777777*@%$$#  X$$$$$$$$%#$$$9ZZZZZZZZCZZZZZZZCZZZZZZZZZZZ",
"ZZZCZZZZZZZZTTTZZZZZZZm--&&-,t<paaaaa77777777&%%$$+  o$$$$$$$$=====pTZCZZZZZZZZZZZZCZZZZZZZZZZZZ",
"ZZZZZZZZZZZZTTTZZZZZZZZZZZZCt@%%#%t7777777777*%%$$$$$$$$$$$$$$UZZZYTTZZZZZZZZZZZZZZZZZZZZZZCZZZZ",
"ZZZZZZZZZZZZTTUZZZZZZZCZZZZZ6+$$@%t4777777777%%%$$$$$$$$$$$#$$TZZZTTTZZZZZZZZZZZZZZZZZZZZZZZZZZZ",
"ZZZZZZZZZZZZZZZZZZZZZZZZZZZZs4443t<<<<<777777*%@$$$$$$$$>33346ZTTTZZZZZZZZZZZZZZZZZZZZZZZZZZZZZZ",
"ZZZZZZZZZZZZZZZZZZZZZZZZCZZZZZZZZU%@@&&=77777*%%$$$$$$$$hZZZZZZTTTZZZZZZZZZZZZZZZZZZZZZZZZZCZZZZ",
"ZZZZZZZZZZZZZZZZZZZZZZZZZZZZZZZCZU%%%@@<77777%%%$$$$$$$#hZZZZZZZTTZZZZZZZZZZZZZZZZZZZCZZZZZZZZZZ",
"CZZZZZZZZZZZZZZZZZZZZZZZZZZZZZZZZUhksws4<=<<,@%%$$-swstsMZZZZZZZZZZZZZZZZZZZZZZCZZZZZZZZZZZZZZZZ",
"ZZZZZZZZZZZZZZZZZZZZZZZZCZZZZZZZZTTTZZZh&@&@%%@%$$2ZZZZZZZZZZZZZZZZZZZZZNZZZZZZZZZZZZZZZZZZZZZZZ",
"ZZZZZZZZZZZZZZZZZZZZZZCZZZZZZZZZZTTTZZZh&@&&@%@%$#2ZZZZZZZZZZZZZZZZZZZZZZZZZZZZZZZZZZZZZZZZZZZZZ",
"ZZZZZCZZZZZZZZZZZZZZZZZZZZZZZZZZZZZZCZZNjjjjbjbjjjnZZZZZZZZZCZZZZZZZZZZZZZZZZZZZZZZZZZZZZZZZZCZZ",
"ZZZZZZZZZZZZZZZZZZZZZCZZZZZZZZZZZZZZZZZZZZZZZZZZZZZZZZZZZZZZZZZZZZZZZZZZZZZZZZZZZZZZZZZZZZCZZZZZ",
"ZZZZZZZZZZZZZZZCZZZZZZZZZZZZZZZZZZZCZZZZZZZZZZZZZZZZZZZZCZZZZZZZZZZZZZZZZZZCZZZZZZZZZZZZZZZZZZZZ",
"ZZCZZZZZZZZZCZZZZZZZZZZZZZZZZZZZZZZZZZZZCZZZZZZZZZZZZZZZZZZZZZZZZZZZZZZZZZZZZZZZZZZZZZZZZZZZZZZZ",
"ZZZZZZZZZZZZZZZZZZZZZZZZZZZZZCZZZZZZZZZZZZZZZCCZZZZZZZZZZZZZZZZZZZZZZZZZZZZZZZZZZZZZZZZCZZZZZZZZ",
"ZZZZZZZZZCZZZZZZZZZZZZZZZZZZZZZZZZZZZZZZZZZZZZZZZZZZZZZZZZZZZCZZZZZZZZZZZZZZZZZZZZZZZZZZZZZZZZZZ",
"ZZZZZZCZZZZZZZZZZZZZZZZZZZCZZZZZZZZZZZZZZZZZZZZZZZZZZZZZZZZCZZZZZZZZZZZZZZZZZZZZZCZZZZZZZZZZZZZZ",
"ZZZZZZZZZZZZZZZZZZZZZZZZZZZZZZZZZZZZZCZZZZZZZZZZZZZZZZZZZZZZZZZZZZZZZZCZZZZZZCZZZCZZZZZZZZZZZZZZ",
"ZZZZZZZZZZZZZZZZZZZCZZZZZZZZZZCZZZZZZZZZZZZZZZZZZZZZZZZZZZZZZZZZZZZZZZZZZZZZZZZZZZZZZZZZZZZZCZZZ"
};
