/* XPM */
static char *gui_banner[] = {
/* columns rows colors chars-per-pixel */
"192 64 28 1 ",
"  c #00163E",
". c #01163E",
"X c #01173E",
"o c #01163F",
"O c #00173F",
"+ c #01173F",
"@ c #A5C362",
"# c #A4C363",
"$ c #A5C363",
"% c #C1D470",
"& c #C1D570",
"* c #C1D471",
"= c #C0D571",
"- c #C1D571",
"; c #FEC67A",
": c #FFC67A",
"> c #FFC77A",
", c #FEC67B",
"< c #FFC67B",
"1 c #FEC77B",
"2 c #E8EEAA",
"3 c #FEFCF4",
"4 c #FFFCF4",
"5 c #FEFDF4",
"6 c #FEFCF5",
"7 c #FFFCF5",
"8 c #FEFDF5",
"9 c #FFFDF5",
/* pixels */
"%%---------%--%%----------&&&*%%------------------&&-&&----&%%-----------&$%%%%%%%-%--%%%---------&&&%%@%%%-----&&&&&&&%%%-----%%%%%%%--$---&&&&------------%%-%%----------&-%--%%%%%%----------",
"$%---------%%-%%$-------&&&&**%%----------%--------&-&&-----%%----------&&%&%%--%%----%%$---$%----&&&%%%%%%$----&&%&&&&&%@-%----&&%%%%------&-$&----------%%%%--$---------&-------%%-$----------",
"%%%--------%-%%%--------&&-&%%%%%-%%-------%-------&&&&&----%%%-&&-&--#%&&&&----%%%&-%%%----%%%%---&--%%%%------%%%%----%%%-&&-&&&--%-------&&&&--------%%%%%%%---------&&&--%-%---%-$----------",
"%%---------%%%%%--------&&&&%%%%%%%%-----$%%--------&&&&----%-#-&&&&---%&&&&----@%%&--%%----%%%%----%-%%%%------%%%@----%%--&&&&&&&-$-------&&&&--------%-%%%%-%--------&&&&%--%----------------",
"%%&&-------%--#%--------%%&&%--%&&&$----------------&&&&----%%%%&&----%%----%%%%&&&&-#%%--%%%%-%----------%-%%%%%-%%%%--%%--%%%%&-&&----------&--%%%-&&&&&&&%%&&---&&&----%%----------%#---&&&--",
"$%&&-----------%---$----%&$&%%%-&&&%----------------*&%*----$%%&&&%%--%%&---%%%%--&&-%%%&-@%%%--------%-----%%%---%%%%--%%--@%%%&&-&----------&&-%---&*-&-&-%%&#-----@----%$-----------%----&&-$",
"..+X++++++++++++++++++++++++++++++++-----------$$-$$$%&%--%%%%&&&%%%---%&&----%%------%%&&&%-%------%%%%--$%%%--%---%---%%-------&-------------&--%%%-*&-##-+++X++++++++++XXXXOo++++++++++++XXXX",
"+++XX+++++++++++++++++++++++++++++++--------$--$$-%$$%%%---%%%&&%$%%---%&&-----#------%%&&&%------$%%%%%---%%-------%$--%%-%--------------------%%%%%--&-##-+++.++++++++++XXXXoo++++++++++++XXXX",
"++2>333444557577777757575577777755.+%%-----------$$------%-----&%%%&----&&------%%%%%%-%--#%---%-&&&----&&&&-----%%%&---$----&&&%%-%%%-----------%--%%-##%%%XX1>668877777757777757777777777755..",
"++>>333344555775577777775577777754+.%#-----------$$------------&%@%&----%&%%----%%$%%%-----%---%--&&------&&--%%-%$%&-&----&&&%%-%%%%%------------%-%--##%-%XX1>688777777757577557777777777575.O",
"..>>333377557777757757557777577744++%----%--------------%%------%%&&&&--%%%%%%%%%%&&%-----%%%%--%@&&--%%%%&&$%%%--%%&&------%%%%&%--%%%-----------%$%-%##---XX11557777777775777777777657775555.O",
"..:>333357557777777777777777777744X.%---%-------%--%----%--------%&&&&--%$%%%%%%%&&&------%%%---%%%%%#%%%%&&%%%%--%%&&------$%%%&---%%%#&---%-------%%%###%-XX1>755777777777777775777777755557+.",
"..;;333377777777777777777555777744+.%%%%-%%-%$------%%--%%$%%%----%---------%-----&&#%%%%---#%%-%%----%%@%%%--%%-%--$%%-&&--%%------%%$&-##&%%--------%%----++11577577777777777777777777777777O.",
"..;;333377777777777777777557757744++%%%%--%-%%------%-$%%%&&%%------#%------%#-----&-%%%----%%--%%%---%%%%%%--%%-%--%%--&---%%---%--%%&&&##&#%--------%%----++11777777757777777777777777777777O.",
"..:;333377777777777777777755+++++X+++++OoO+++++++XXXXXXX++++++++++++++XXXX++++++++++++++++++++++++++++++++++X++X+X++XXXXXX+X++++++++++XXXX++++++Oo+++++++++++++XO+++77777777777777777777777757.+",
"..::333377777777777777775755O+++++++++o+oOO++++++XXXXXXX+++++++++XX+XXXXXX++++++++++++++++++++O+++++++++++++X+XX+X++XXXXXX+++++++++++++XXXXX++++oo+++++X++++++++++++57777777777777777777777755.O",
"OO11777777777777777777777777++117777777777777777777777777777777755777777777777777777777777777777777777777777777755557777777777777777777777777777777777777777777755oX55557777777777777777777777..",
".O11777777777777777777777777++117777777777777777777777777777777755777777777777777777777777777777777777777777777755557777777777777777777777777777777777777777777755OO55757777777777777777777777++",
"..11777777777777777777777777..117777777777777777777777777777777755777777777777777777777777777777777777777777777777557777777777777777777777777777777777777777777757+O77777777777777777777777777++",
"..11777777777777777777777777.o117777777777777777777777777777777755777777777777777777777777777777777777777777777777557777777777777777777777777777777777777777777757OO77777777777777777777777777++",
"..>>777777777777777777775543..::7777777777777777777777777777777777777777777777777777777777777777777777777777777777777777777777777777777777777777777777777777777755.+77777777777777777777777777..",
"..>>777777777777777777775543..::7777777777777777777777777777777777777777777777777777777777777777777777777777777777777777777777777777777777777777777777777777777755.+77777777777777777777777755..",
"..>>777777777777777777775573..::7777777777777777777777777777777777777777777777777777777777777777777777777777777777777777777777777777777777777777777777777777777755++77777777777777777777777755..",
"..:>777777777777777777775577..::7777777777777777777777777777777777777777777777777777777777777777777777777777777777777777777777777777777777777777777777777777777777++77777777777777777777777755oO",
"..::777377777777777777777777++117777777777777777777777777777777777777777777777777777777777777777777777777777777777777777777777777777777777777777777777777777777777++77777777777777777777777777OO",
"..::775577777777777777777777++117777777777777777777777777777777777777777777777777777777777777777777777777777777777777777777777777777777777777777777777777777777777++77777777777777777777777755OO",
"..::555577777777777777777777..117777777777777777777777777777777777777777777777777777777777777777777777777777777777777777777777777777777777777777777777777777777755++77777777777777777777777755..",
"..::555577777777777777777777.o117777777777777777777777777777777777777777777777777777777777777777777777777777777777777777777777777777777777777777777777777777777755..77777777777777777777777755..",
"OO11777777777777777777775543..::7777777777777777777777777777777777777777777777777777777777777777777777777777777777777777777777777777777777777777777777777777777755..55777777777777777777777777..",
".O11777777777777777777775443..::7777777777777777777777777777777777777777777777777777777777777777777777777777777777777777777777777777777777777777777777777777777777++55777777777777777777777777++",
"..11777777777777777777775573..::7777777777777777777777777777777777777777777777777777777777777777777777777777777777777777777777777777777777777777777777777777777777++57777777777777777777777777++",
"..11777777777777777777775577..::7777777777777777777777777777777777777777777777777777777777777777777777777777777777777777777777777777777777777777777777777777777777++57777777777777777777777777++",
"..>>557777777777777777777777..::7733777777777777777777777777777777777777777777777777777777777777777777777777777777777777777777777777777777777777777777777777777755++77557777775577777755777555..",
"..:>557777777777757777777777..::7754777777777777777777777777777777777777777777777777777777777777777777777777777777777777777777777777777777777777777777777777777755++75557777755577777555777555..",
"..::554377777777555577777777..::7755777777777777777777777777777777777777777777777777777777777777777777777777777777777777777777777777777777777777777777777777777755++77557777775577777755775555..",
"..::555377777777555577777777..::7555777777777777777777777777777777777777777777777777777777777777777777777777777777777777777777777777777777777777777777777777777755++77447777774477777744775555..",
"..::773343777777773455557755OO>:7777777777777777777777777777777777777777777777777777777777777777777777777777777777777777777777777777777777777777777777777777777777++77347777333477777734777774..",
"..::777743777777773455557755.O>>7777777777777777777777777777777777777777777777777777777777777777777777777777777777777777777777777777777777777777777777777777777777++77347777333477777734777777.+",
"..::>,::>>1<1111<<1111111111.+>>7777777777777777777777777777777777777777777777777777777777777777777777777777777777777777777777777777777777777777777777777777777755++::111111::>>1111::111111>>++",
"..::,,::,,111111<<<111111111.+>>7777777777777777777777777777777777777777777777777777777777777777777777777777777777777777777777777777777777777777777777777777777755..:<<11111::>>1111:<<11111>>.+",
".+++++++..++++++++++..OOOOOO..::7777775577777777777777777777755577777777777777777777777777777777777757777777577777777555777777777777777777777555777757777777577755......+++.....OO++++Oo++++XXXX",
".++++++++.++++++XXX+....oOOO..::7777775577777777557777777777755577777777757777777777777775777777777755777777557777777555777777775577777777777555777755777777557777++....XX++.....O++++oo+++++XXX",
"&#%%%%--#%%22%%%----&&%$%%%%..::7777775577777777555577777777775577777777555577777777777755557777777755667777556677777755777777775555777777777755777755667777556677++--%#----&&%%$%--%%%%--%%-%%%",
"%%%%%%-%%%-22%%%&---&&%%%%$%..>>7777775577777777555577777777774477777777555577777777777755557777777755567777555677777755777777775555777777777755777755567777555677++--%%----&&%%%%--%%%%-$%%-%%%",
"%---$%%%&22&%%#---------%%%%..>>7777333543777777334547777777333443777777344555374377777734454444775555667755556677773345477777773334477777774444775555767755556655.+----------%-%&&&$%%-%%%%%%%%",
"%-&&%%%%&22-%%--$%------%%%%..>>7777374547777777334447777777773447777777334554454777777733454444775555777755557777773344477777773344477777774444775555777755557755.+-%---$------%&&&%%----%%%@%&",
"&&&22%&&&22-----%%%%----%$%%..>11111>:,,>,1<1111>>,,,,1<1111>>>>>,111111>>,,,,,,>,111111>>,,111>11111<<<11111<<<1111>>,,,,1<1111>>,,,,1<1111;;;;111111<<11111<<<11++%%%%%%%%--%-@%-&--------%%&&",
"&-&22&&&&22-----%%%%%---%%%%..>11111>>>,,,111111>>,,,,111111>>>>,,111111>>,,,,,,,,111111>>,,>111111111<<111111<<1111>>,,,,111111>>,,,,111111;;;;111111<<111111<<11++%%%%%%%%%%%%%%----%---%--%&&",
"&&---22--22--%------&&&&%%@%++++OO+++++OXX+...+++++++XXX+++++++..++++++...+++++++++XXX++++++++++.+++++++....++++O...XX+...++++++XX+...+++++++++X+++++oOO.+XX+X++....%%%%%#---%%%&&&&&%-%-----&&&",
"&&%%-22--22-%%------&&&&%&%%++++.O++++ooXX++..+++++++XXX++++++++.+X+++++..++++++++++XX+.++.+++++.+++++++.....+++OO++XX++..+.++++XX....++++++++XX+++++oOO.++X+X+X....%%%%------%%&-&&%%----%%--&&",
"%%%$%22----%%%%#-22-%%%%&&&&%%--$%--%%%%%%--%%#%-%%%&&%%%%%%%%%%%%#&%%--&&$%%%%%%%%%%&&%%%%%----&#%%%%--%#%%%%----#%%%--&&$%%%%%&&--&%$%%22%%%%%%%--%22$&#%%------%$-%-%-----#%%----@%%-%%%%----",
"%%%%%22%%--%%%%%-22-%%$%&&&&%%--%%--%%%%----%%%%-%%%%$%%%%%$%%%%%%&&%%%-&&%%%%%%%%%%$&%%%%%%----%%%%%%-%%%%%%%---%%%----&&&%%%%%&---&&%%%22%%%%%%%%%%22%%&%%%%---%%%---%-----%%%----%%%%%%%%----",
"-----22-%$%%----%%%22%---&--%%%-&&--$22%-22%&&&&--%-%%%%&&&%------%%%%-%%%%%%%#%----%&&&%#-%%%--%---%%%%%---%%----%%%%--%%%%%%#%----%---%22%--%%%%--%%%22%%-%%#-%%%%---%&22--22---------$-------",
"-----22-%%%%----%%%22%%-----%%%-&&--%22%-22-%&&&-#%%%%-%&&%%---#&&%%%%--%%%%%%%%----%&&&%%--%%#%%-&-$%%%----%%----%%%%--%%%%%%%%----%---%22%--%%$%--%%%22%--%%--%%%%%---&22--22--#----------%%-$",
"-%%#%%-%&&&&----%%%22-------%%--&&----%22-%%%%&&--%%%%--&&----%%-&&&$---%%----%---%%%%&&%---%%%%&&&&%%&&&&--%%%%-%%%$---%%----%---%%%%--%%%%--------&&&22--&%%%---%%%---&&-22&--%%%%--%%----%%%%",
"-%%%%%%%&&&&----%%-22------$%%--&&%----22%%%%@----%%%%%%&-----%%-&&&%%--%%------%%%%%$--%---%%%%&&&-%%&&&&--%$%&-%%%----%%-------$%%%%--%%%#--------&&&22-&&%%%---%%#---&&-22---%%%%%%%%----%%%%",
"---%---%%%%%%%%##--22%$---------%%%%@%%%---%-----%-------%%%%%%%%%%-%%%%#----&&&%%%%%#------%&&&&&----%%------&&%%%-%%%%#---&&&&---&&&%-----%---&&%%%--22&%%$%--&---#%%%&%-----------&%%--%%----",
"--%%--%%%%#%%%%%---22%----------%@%%%%%%---%---&---------%%%--%%%%%-%%%$----&&&&%%%%-------%%&&&%%%%-----#----&&%%%-%%%$----&&&&--&&&&%%---$%---&&@%%%-22&%%%%--&----%%%%%----%-----&&%$-#%%----",
"%%%%---%----%%------%%%%&-----%%%%--&%&&%%----$%%%--%%%%--%%----%%----%%----%%&%-%--------%%%$&&%%%%%%-%%%%%---&%%----%%----%%&%----%%@%--%%%%--&%%%---%&&&-%---&&----%%%%%%%%%%----&&&%--%%--%%",
"#%%%%--%----%-------%%%%&----$%%----&&&&%%-----%%%%%%%%$-#%%----%%----%&----%$%%--------%-%%%%&-%%$%%%%-%%%%--&&%%----%&----%$%%----%%%%--%%%%--&%%%----&&&-%%--&&----%%$%%%%%%%---#&&%%--%%%%%%",
"-----&%%--&&%%----@%%%--&&----%%--$-----%%----%%%%----%%--&&&&%%#---&&&&--%%%%--%%%-&---%%%%----%%--%%%#---%%%&&#---&&&&--%%%%--%%$---%%---&%%%------%%%----%%--&%%%----%%&&%---%%%%%%%%----%%$%",
"----&&%%--&&$%%-&-%%%%--&&%%%%%%--%%----%%----%%%%----%&--&-&&%%----&-&&-#%%%%--%%--&---%%%%----%%%-%%-----%%&&&----&-&&-#%%%%--%%-----%--&&%@%%----%%%%----%%--&%%$----%&&&#---%%%%%%%$----%&%%",
"----&&%$--&&%%%-&&&%--%-&%@%---%%%%%----%-----%%#----&&&----&%$%----------%%%---%%%&&&----%#---#%%--------%%$%&&----------%%%---%%%---%%%%&&%%&&-&----%%--#%%%----%%--%%%%&&-&--%%----%%&&-&&&&&",
"----&&%%--&&%%%-&&&&--%-%%%%---%%%%%----%$----%%-----&&&----%%%%----------%%%---$%%&&&---------%%%--------%%%%&-----------%%%---%%%---%@%%&&%%%&&&----$%---%%%---%%%-%%%%$------------%&&&&&&&&-"
};
