/* XPM */
static char *head_3[] = {
/* columns rows colors chars-per-pixel */
"96 96 13 1 ",
"  c #1B1B1E",
". c #646365",
"X c #A5C262",
"o c #A4C263",
"O c #A5C263",
"+ c #A5C363",
"@ c #C1D470",
"# c #C1D570",
"$ c #C1D471",
"% c #C1D571",
"& c #878289",
"* c #B9B6BA",
"= c #E8EEAA",
/* pixels */
"##O#%%%%%%%%%%##$#$%%%%%%%%%%%%%%%#%##%#####$$##$$####$$$$%%%%%%%%%%%###$#$$%#$##$%%%%%%$$#%%%%%",
"####%%%%%%%%%%##$#$O%%%%%%%%%%%%%%##%#$$###%$#$$$#$#$#$$$$%%%%%%%%%%###$$$#####$#$%%%%%%$$O%%%%%",
"%%#%$O$#%%%%$$##$$$$%%%%$%%%%%#X%%%#$$$####%#$$$%O$#$$%#$#$%%%%%%%%%###$$##$#####%%%%%%%#$#$%%%%",
"%%%%##$$%%%%$%##$#$#%%%%#$%%###$%%%#O#$$##%%###$%$#$%%###$#O%%%%%%%%%%#%$$#$####O%%%%%%%$##$%%%%",
"%%%###$$%%%%$$#$#%%$%%%%$$$$$#$#%##%%%%%%%%%$##$%%%%%%%%#$$$%%%%%%%%%##%#$%%%%##$#$$####$%$$%%%%",
"%%###$#$%%%%$##$%#$#%%%%##$####$%##%%%%%%%%%###$%%%%%%%#O#$#%%%%%O%%$%####%%%%#%#$######%#$$%%%%",
"%%###$#$%%%%%%####%%%%%%#$$###$#%#%%%%%%%%%%O%##%%%%%%%%%%$##%####$$$$#%O%%%%%%%##$$%%#%%#%%%%%%",
"%%%%$#$#%%%%%%O$###%%%%%$$$###$$%#%%%%%%%%%%%%$#%%%%%%##%%$$##%%$$$#$$%%%%%%%%%%#$#%%%%#%##%%%%%",
"%%%%$#$$#%$$##$#$#$$$#%%#%%%%%%#%$$###$$$$$$%$$#O###$$#%%%%%%#%###O%%%%%$%###%%%$O%%%%%%%%%%O%%%",
"%%%%$####%$####$$$##O#%%%%%%%%%O$##$+OO#$$$@%#$$%$#$$$%%%%%%%%####%%%%%%#%#+++%%#O+O%%%%%%%%$#%%",
"%%%%#O$####%$$$$####%%%%##%%%%$$##$#++O%@$@$####%%##$##%%%%%$###$$%#%%%%#$#O++%%%+++%%#$%%%%$$$#",
"%%%%%%$$#######$%##%%%%%%#%%%%$$O$##+++#X#@$####%%$$##%#%%%%#%##$%%%%%%%$$#+++%%%+++O$$#%%%%$#$$",
"%#%##%%$%%%%#%%%%%%#%%%%####$$$#%O++%%%%##%%%%##%%%%%#%#%%%%#$####%%%%%%$$@@%%+++%%%%###%%####$#",
"%%####$$%%%%O%%%%%##%%%%$$$$#$$#%+++%%%%##%%%%##%%%%%%##%%%%$$######%%%%$$@@%%+++%%%#%$%%%######",
"######%%%%%%%%%%%%%%%%%%%%$###$$%+++%%%%#%%%%%%#%%%%%%%%%%O%#$$###%%%%%%##+#%%+O+%%%###%%%%#####",
"$$%##%%%%%%%%%%%%%%%%%%%%%O$$#$$%+++%%%%%%%%%%###%%%%%%%%%$$#$#$###%%%%%%###%%%%%%%%##%#%%%####%",
"#$#$##$$%%%%%%#####%$#$$%%%%%%$##++O%%%%#%%%%%%%%%##%#%######$$#%%%%###%%##O$##%%%%%#$##%%%%#$$$",
"##$$$##$%%%%%%%%##%##$%O%%%%%%###++O%%%%##%%%%%%%%##%%%###$#$#%O%%#%#%####%%$$O%%%%#$###%%%%O$$#",
"$###%%O%%%##O++%####%%%%%%%%%%%#$#%#%%%%$#%%%%%%%###%%%%##%$%%%%%%%%#%##%%%%$###%%######%%%%%%$$",
"$##$%%%%#O#$+++%####%%%%%%%O%%#$$#%%%%%%$#%%%%##$%##%%%%###$%%%%%%%%####%%%%#$%#%%#O$###%%%%%%$#",
"###%%%%%#$$$O++#$#$$%%%%###$##%%$$#$#%%%$$$$$#$O$##$##%%##$#%%%%O##%####%%%%#%##%%%%$$#$%%%%#$#$",
"%#%#%%%%$$$$###+OO$$%%%%#$#$##%%$$$###%%$#$$$$#$##$#%O%%$$#$%%%%$$######%%%%####%%%%$$##%%%%$%#$",
"$$%##%%%$$#%##%+OO%%#%%%#$#%##%%O$$#O##@$$@#$$#$##$#%%%%#$#%#%%%$$####%%%%%%####%%%###$$#%%%#%#%",
"#$#%#%#%%#%###%+OO###%%%%%%#%%%%####$##@@$###$##$$$#%%%%$$##%%%%$$$$#%%%%%%%#####%##$$$%#%%%###%",
"$$$$$$@###%%##%+OOO#@@X##%%%%%O+O###%$$$@X###%$$$%####@$$$%%####%$$$$$%%##%%$$$$##%%%%%#%$$$$$%%",
"$$%O$$@X##%%##%OOO##$$###%%%%%+++%##%$$$@@##%%%#$#####X$X$%%##$%##$$@@%%#%%%@$$$%#%%%%####$$@@%%",
"%%%%$$####%%X#$X+O%%$$%#%#%#O%OO+%%###$$$$$%%%##$$%%#%$$##%%@@$$##%%X##%###%@X#%$$$%$$####%%X##%",
"%%%%$%######$$$$%%%%$$$####OoO$$%%%%%#O$$$$#%%##$$%%%%$$##%%X$$$#%%%###%%#######$$O%$$%###%%###%",
"%%$$$@##%$##%%$$##$$O###$$#+++$$##@@%%%%%%##$$$%@X#####$$$%%###%###%####$$$$%%%#$$##$$@X###%##%%",
"##$$#X%%$$##%%$%##$$%%##$$#+++%%##X$%%#%%%##$$$#@@####%%O$$###%%#X#%%##%$$@$%%##$$%#$$###X#%##%%",
"##%$##%%$$@#%#####%$%%%%$@X++O###%$$$%##%%##@@##%%#%%%%%#OOO##%Ooo$$$$%%##@X#%#X$$##%%##@@$$##%%",
"##$$##%%$$@X%#####%$%%%%$@#O+O##%%$$$###%###X@##%%%%%%%##+OO##%+oX@$$$%%%######@@$#%%%%#$$$$$%##",
"@@$$%%%%$%####@@$$$%%%####%OoX$$%%####%$$$$$$$@@X#####%%%O++###OooX###%$$$$$$$$@X####$$$%%######",
"X@$$%%%#$#####X$$$$#%######%X@$$%                              #@@##%%##$$@@$$$@#####%$$%%##$%#X",
"##$$####$$%%#%$$$@##%%@X#%%%##$$#                              #@@$$%%##%#X#%$###%%%##$$%%##$$$@",
"##%#####$$%%%%$$X@###%@$$%%###$%#                              #$$$$%%##%########%%%#X@@###X$$$@",
"#%%%$$@X@X#####$###%$$$$$$$$##      ******************&&&&&&      #%###X%%$$$$%%##@$#%%%$$$@%###",
"%%%%$$@@@@####%$##%%%#$$$$X$##      ******************&&&&&&      ##%##@%%$$@@%%#X@$#%%%$$$$%##X",
"$%##$$##%%#%%#%%##%%##%%%%####      ******************&&&&&&      #%%%@@###$X##%##$$%####%##%%@@",
"$###%###%%%%%%%####%###%%###%%   ******************&&&&&&&&&&&&   #%%%$$###%###%%%$$$#######%%$$",
"$$%%%%##%####%###%###%%%$$@###   ******************&&&&&&&&&&&&   #%%%$$%%##$$##%%##%%###$$$%$$$",
"$$%#%%##%%##$$##$$##%%#%$$@X##   ******************&&&&&&&&&&&&   ##%%$$%%%#$$%#%%##%%###%$$##$$",
"@X##$$#%%%##$$$X$$$X$%##$$##%%   ***************      &&&&&&&&&   #X%##%%%##$$##$$##%%####$$##%%",
"@@##$$$$%###$$@@$$@@$###$%##%%   ***************      &&&&&&&&&   #@%#####X@@@%%$$$%###X#X@@##%%",
"$$$%@X##$$$X%%##$%##$$$@%%%#$$   ***************      &&&&&&&&&   $@#%%%#%$$#%%%$$%%##@@##%$$$%%",
"$$$#@@##$$@@%###$###$$X@%%%#$%      &&&&&&&&&         &&&&&&&&&   $@#%%%##$$##%%@@%%##$$%%##$$##",
"@@##%%#%$$##%%@X$$%#%%####X@$$      &&&&&&&&&         &&&&&&&&&   $$###%#X$$##@$X##%#$$$%%##$@X#",
"X@##%%%%%####%@$$$%%%######@$$      &&&&&&&&&         &&&&&&&&&   $$%####@@@X@@$###%#%$$%%##$@##",
"###%###%%%$$@X####%%%%$$@#####      &&&   &&&         &&&&&&&&&   $@@X###%$$#%$$X@$$%%%%$$####X@",
"##%%##%%%%$$@@####%%##$$@X####      &&&   &&&         &&&&&&&&&   $@##%%##$$##$$#@@$#%%%$%#####@",
"##%%@X$$###$%%#%X#$$##%$#%%%##      &&&   &&&         &&&&&&&&&   $$#%%%#X$$##%%##$$####$$%#%%$@",
"##%%@@$$##%$%%%%@@$$##$$#%%%%%   ******************&&&&&&&&&&&&   $$##%%#@@@%%%%##$%####@$%%%%$$",
"#%###%$$%%%%###%##%$X@$$##X###   ******************&&&&&&&&&&&&   #%###X###%$$#%%%%%$@@#@#####%$",
"$$##%%%#%%%###$$##$$#@$$##@@##   ******************&&&&&&&&&&&&   ##%##@%###$$##%%#%$$@X@X####$$",
"$$@X%%######@@$$##%%##$$%$$$%%   &&&***&&&***&&&                  #%%%@@%%%#$@@#$$##$$##%%%%%#%%",
"$$@@%%######X@$$%%%%##$%$$$$%%   &&&***&&&***&&&                  #%%%$$%%%#$@X#$%##$%###%%%%%%%",
"%%%%$$$%#%###%%%$$@#####$%####   &&&***&&&***&&&                  #%%%$$$$$%%%##$$@X###%%###%$##",
"%%%#$$$#$$##%%%%$$@X####$#####   ...   ...   ...               %####%%$$$$$#%###$===##%===##$$##",
"####@@##$$@X$%##$$##%%%#$$%##%   ...   ...   ...               %@X$$%##%@@##%%@X@===%%%===%%$@@#",
"####X@##$$@@$###$%##%%%#$$%%%%   ...   ...   ...               $@@$$%###X@##%%@@@===#%%===%%$$@X",
"#$$$%%%%$%##$$@@%%%#$$##$X##@X                           $##$$$$###$@@$$###%$$$$##@@===####%##%%",
"%$$$%#%%$###$$X@%%%#$$%#@@##@$                           %##$$#O##%$X@$$##%%%#$$##X@===##X#%#%%%",
"##@@##@@$$%%%%####X@$$##%%#%$$                           $##%%##%%%%##$$##%%##%%#%$$===#@@$$##%%",
"##X@##X@$$%%%######@$===#%%%$$$$%######%%%%%%#####X@@$$$$$%%%%%#%%%###%###%%##%%%%$$$$%#@$$$$%##",
"#%$$$$@@%%%######%%%#===#####%%%###%%%$$$X##@X###%$$$$$@%%%########%$$$$%%%%##@X###%###%%%$$@X##",
"%%%#$$X@%%##$%#X#%%%#===$%#X#%%%##%%#%$$@@##@$##%%%#$$X@%%##%#X@%###$$@@%#%%##@@##%%##%%%%$$@@##",
"%%##%%##%%##$$$@##===#%%$$$@%#%#@X$$###$%%#%$$$%%###%%###%#X$$$@%%%###@X##@@#$$$##%%@X$$###$%%#%",
"%%##%######X$$@@#%===%%%$$@@$###@$$$##%$#%%%$$$#%%##%######@$$$$%%%#%#####X@%$$$##%%@@$$##%$%%%%",
"%%##%%##$@@@##%%##===$%%####$$$@###$@@$$##@X####%%##%###$$$@###X###X%%%%$$$$##@@#%###%$$%%%%###%",
"%###%%##$===##%%$%===@##%##%$$@@##%$X$$$##@$####%###%%##$$$$%##@%##@%%##%#$$##X@$$##%%%#%%%###$$",
"%%@X$$#%$===#%%%$$===@X#$$%%%#X#%#%%##$$#$$$#%%#%%@X$$#%#%##%%$@%%@@$$####%%#%$$$$@X%%######@@$$",
"%%@@$$$$$===$$%#$$===@##$$%%%###%%%###%#%$$$%%%%#%@$$$$$###%%%$$%%$$$$%###%%%%$$$$@@%%######X@$$",
"###%###$$$@@===###===$$$$$%%%###$$$X####$$$$%%#####%###$$$$@#%$$%###%%%%###%###$%%%%$$$%#%###%%%",
"##$$##%$$$X@===###===$$%@@%%##$%$$@@####$$$%%%####$$##%$$$X@##$$%#%#%#%%##$$##%$%%%#$$$#$$##%%%%",
"@@$$%%%%%%##===##%===$##X##%$$$$$$###%%#@@##%%X#@@$$%#%%%%####%%@$$$##@@@@$$%%%%####@@##$$@X$%##",
"X@$$%%%#%###===#%%X@@@#####%@$===%##%%%%#X####@@X$$$%%%#%####%%%@$$$##X@X@$$%%%#####X@##$$@@$###",
"#####%##%%$$===X%%##%%%#$$##@#===%%#X@$$##%%$$$$#####%##%%$$$@#%@X%%%%$$#####%###$$$%%%%$%##$$@@",
"####$$##%%$$===@%%##%%%%$%##@X===%%##@$$##%%$%$$####$$###%$$X@####%%##$$####$$##%$$$%#%%$###$$X@",
"#%%%$$@X###$===@$$#%##X@$$%#%%##%===##$$##%%###%#%%#$$$X###$===##%===##$#%%%$$@X##@@##@@$$%%%%##",
"%%%%$$@@##%$===@$$$$###@@$%%%%##%===##$%#######%%%%%$$@@##%$===###===#%$%%%%$$@@##X@##X@$$%%%###",
"X@$$%%%%$$##===#@X##@X###%$$$$$@#===##X###%%##%%@@$$%%%#%###===X%%===$$%##@@##%%#%%%%%%%##@X###%",
"#@@$#%%%$%######@@##@@##%%%#$$X@#===##@@##%%##%%@$$$%%%#$##%###===##$$$###X@##%%%%%%%#%%##@@##%%",
"##$$####$$%#%%@X%%#%$$$%%%##%%##%===%$$$##%%X#$$X#%$%###$$%%##@===##$@###%$$#%%%$%####@@#$$$##%%",
"##$%####@$%%%%@@%%%%$$$#%%##%###%===$$$$####@@$$#######X$$%%%%@===#X@@##%%$$$$%#$#####X@%$$$##%%",
"%%%%$@@#@###$$$$##@X####%%##%%##%===$$$$%$##%%$$#%%%$$$@$@X#$$$@%%%#%%%%%%##@X##$$%%%%$$##%%#$$$",
"%%#%$$@X@X##%#$$##@@####%###%%##%===@$$$$$##%%$%#%%%$$@@@@##$%$$%%##%#%%%%##@@##$$%#%%$$##%%%$$$",
"$$##$$##%%%%##%%#$$$#%%%%%@X$$#%%===@X#%$$@#%###%#%#%$##%%####%%$$####@@$$#%$$$%@X#####$#%%%##@@",
"$%##$%###%%%##%%%$$$%%%%%%@@$$$$%#######$$@X%###$######%%%%%###%$$$%##X@$$$$$$$#@@####%$$$%###X@",
"$$%%%######$$$%%%%##$%####@X###%$$$@@X####%%@@$$$$%%%%%###%$$$%%$@%%%###$$@X######%%@@$$$$%%%%##",
"@$%%%%####%$$$%#%###$#####@@##%%$$$$###%#%%%@$$$$$##%%####$$@$%%@@%%##$%$$@@######%%X@$$$$%#%%##",
"@###$$%$%%%%@X##%%@X$$%%#$$$##%%#%###%%%###%@X%$$@X#$$##%#%%@###X##%@@$$$$###%%%#%%%##$$@X##$$#%",
"@X##@$$$%%%#@@##%%@@$$%%%$$$##%%###%##%%%#######@@##$$$%%%%%@X#####%@$$$%###%%%%$$%###%#@@##$$$$",
"$$$$@###@X##%%%%###%###%##%%#$$$#%%%####$$$$%%%#$$%#$@X#X###%%%%@@$$X###%%%%$%##$$@@%%##$$$%@X##",
"@$$%@X##@@##%%%###$$##%%##%%%$$$##%%%##%$$@$%%##$$$#@@##@@###%%%@$$$##%%%#%%$###$$X@%%##$$$#@@##",
"@@##%%%%$$$%####@@$$@X$$#%%%##@@##$$$$%%##@X%%##$@##%%##$@$$####X#%$##%%##@@$$%%%%##%%##@@##%%#%",
"#X###%%%$$$#####X@$$@@$$$$%###X@X@@$$$%%%######X@@#%%%%%$$$%#########%%%##X@$$%%%###%###X@##%%%%"
};
