/* XPM */
static char *head_2[] = {
/* columns rows colors chars-per-pixel */
"96 96 18 1 ",
"  c #010000",
". c #1B1B1E",
"X c #646365",
"o c #A5C262",
"O c #A5C362",
"+ c #A4C263",
"@ c #A5C263",
"# c #A4C363",
"$ c #A5C363",
"% c #C0D470",
"& c #C1D470",
"* c #C0D570",
"= c #C1D570",
"- c #C1D471",
"; c #C1D571",
": c #878289",
"> c #B9B6BA",
", c #E8EEAA",
/* pixels */
"**--*-*-*--*-*-*-*-*--**--*-;;;==**---==----&$;;;;;;;;;;;;==-=--;;;;;=**;--*;;;;;;;;;;;==--=****",
"**$--*-**-**--*-***;*-;;**--;;;=-*--*--=----;*;;;;;;;;;;;;=&-=-=;;;;=;*;;*-*;;;;;;;;;;==&-==***-",
";;;;*--;--*-;;-*--*;*-*;*---;;;;--**;;-=**==;;;;;=;;;;;;;;;=--=-;=;;=;=;*-*-;;;;;;;;&;==--&&-*-*",
";;;;-*-;----;;@-**-**-*;--*-=;;;--*-;$--**-=;;;;=;;;;;;;;;;;---=;;;-;=;;----;;;;;;;;==;====&**--",
";;=;;;*;;;;;;;;;-***;;;;-*o;;;;;**;=;;;;*-*&=&=-=;----;;;;;;--==-------=*-=-=$;;==-;;;&;;;=-;;;;",
";;==;;**;=;;;;;;-*--=;;=*---;;;;**;=;;;;**--;&-;==-*--;;;;;;---=**--&----*&-;;;;==-;=;;&=;-=;;;;",
";;;=;==*==;;;;;;**;*====*---;;;;;;====;;**--&===&&==-&&$;;;;;;=-**$&-==----=;;$;=-=;=;;;;=&;;;;;",
";;;=====;;;;;;;;;;****==-***;;;;;*=====; &-***==-&-=-&&==;;;;;;$***&------&&;;;;-=;;=&&&&&&;&;;;",
"==;;;;;;=;&&&&&*;;;;;;=;=-=-*---*-**;;;;;;;;;;&=;-**==&&==;;****&==**--*=====;;;-=**;==;===-;;;;",
"=;;;;;;;=;&=&&**;;;;;;=;--==-*-*;***$$$;;;;;;;=--***=&&===;****;=&===-*-===O$$;;=$$$=;;;====;;;;",
"=;;;;;;;==;&--**;;$&;;;=-&-&--*;*---$$$;;;;;;---*;-***;&=;;=-*;*&&;===*-==&$$$;;-@$o=;&;**=-;;=&",
"==;;;;;;;==-=-**;;;&;;;;$&&-==;;*---$$$;;;;;;;;;--****;=;;;=-*--&&&;--*-==&$$$;;-ooo===;-**-;;$&",
";=&&&&o;=;;;-;;;---&;==;;;;;===**$oo$;;;;;====;;-&&&;;==;;;;*---=;==;;;;=-==;;$$$&;;;;==*--*--&-",
"=&=---;;;;;;$;;;-=&&;==;;;;;===*-$$$;;;;;;;;==;;--**==--;;;;-***===;;;;;=*=-$=$$$=;;;;;;***-*---",
"&&---=;;;=;;;;;;-==-;;;;;;;;=;;;=$o$;;$;;;;;===;****;;;;;;;;;;--;;;;;;;;$-=---$$$$;;;;;;-*-**&&=",
"&&&===-;;;;;;;;;-==;;;;;;;;;;;===$oo;;;;;;;====;****;;;;;;;;;;o-=&&;;;;;;==-==&=&&;;;;;;*-**-&&=",
"=;=-&$;;;&&&&=;==-==-$;;;;;;;;==;$oo;;;;;**-===&*;;*;=======*--*;;;;;=;=-=&&;=-====;;==&-=**=-;*",
"&;&&==;;&&&;;;;;==&-=-;;;;;;;;;;;ooo;;;;-**;-&=;;*--;;==;;==**=-;;;;====-&*===&=-==;;==&-&-*--;-",
"&&=&;;;;--=-ooo;=-==;;;;=$&&;;;;==;;;;;;*--*&&;&---*;;;;;**;&-=&;;;;;==;&&-*;=;=======;=&&-=-&;-",
"-&-&;;;;-;--ooo;-=--;;;;&=&-;;;;;=;;;;;;***-**==----;;;;;**;=-*=;;;;==;==---==;;**;;==;;*=*&&&;;",
"==&-;;;;-=--$$$;===-;;;;&==-;;;;;=-=;;;;--*-;===--****;;;;;;&***&$;;=&&=-&;;;;;;-&==;;;;**--;;;;",
"==&;;;;;=====;;$oo--;;=;&-=*;;;;=;-;;;;;-*--;====&-*--;;;;;;&=--&&;;-;&===;;;;=;-&-=;;;;*-*-;;;;",
"=-;;==;;---;==;$oo==;;=;--;;;;;;-----$-*-&&=;;;;=*----&$;;***$&&&&==&&=;-;;;;;;;--**;;;;-*-=;;;;",
";$==;====--===;@oo-;;;;;*;;;;;;;&=;=---*=-=&;;;;**-*--&&;;***&&&&--=&=;;&$;;;;;;*-*-;;;;$=&-;;;;",
";;;;-&&====;===@o$$*&&o;;;;;;;@$$=;;;;;;===&&&;;;;;;&&=;;;o;;;;;&&&o;;===;;;&&&&--;;;;;;;;;==&;;",
";;;$--&$==;;===@o$;*&&;;;;;;;*@$$-;*;;=;;;=&&&;;;;;;&&=;=;&&;;;;&&&&;;;;=;;;o&&&--;;;;=;;;==&&;;",
";;;;--====;;$--$@@;;&&====;;@*oo$$-*&&=&;;;;&o;;;;&o&&;;=&&&==;;;;;;;;;;==;;;;&&&$*;&&=&;;;;&&&;",
";;;;-====;;;&&&-;;;;&&&==;;o@@--&&-*&&&&;;;;&&;;;;&&&&;;=&&&=;;;;;;;;;;;&&;;;;==&&*;&&&&;;;;&&&o",
";;====;;--===;--;;&&o;;=&&;$$$--&&&&&o;;&o;;;;;;;===;;;;;;;;=&&&;;;;&==;&&&&;;;=&&&=&o;;&&&;;;;;",
";;===$;;--==;;--;;&&;;;;&&;$$$-;&&&=&&;;&&;;;;;;;=&&;;;;;;;;&&&&;;;;&==;&&o&;;;=&&&=&&;;&&&o;;;;",
";;;===;;-&&=;;==;;;&;;;;&&oo$$;;&&==;;;;&&&=;;;;&&&&&o-;;$@@;;&o$$&&&&;;;;;;;;;;&&==;;;;&&==;;o;",
";;;;==;;-&&$;;==;;;-;;;;&&;o$$;;o&;;;;;;&&&===;;o&&&&&&;;$oo;*$$ooo&&&;;;;;;;;;;o&;;;;;;&==;;;&&",
";;;;&&&=;;&&=;;;;;;;&==;&&-ooo;;;;===&&&=&&&&&;;;===;;;==ooo;;;$oo-&&&;;;==&===&&&;;;;;=;;;;;;&&",
";;;;&&&=;;o&=;;;;;;;&==;o&&&;;;;;;;;=&&&==&&&&;;;;&=;;;;=;;o$$$;&=-&;o;;==&&=;&&&&;;;;==;;;;;;&&",
";;;;&&==;;&&==;;;;&o&&;;;;==;;;;;;;;;;&&;=;;o;;;&&&&;;;;&&&&$$$;==;;;;;;o&&&;;;;&;;;&&=&o;&&;==&",
"==;;o&;;;;&&&&;;;;&&&&;;;;;;;;;;;;;;;;o&;;;;;;;;&&&&;;;o&&&&$$$;=;;;;;;;;&&&;;;;&o;;&&&&&&&&==&&",
"=&&&;;;;;;;;&o;;;===;;;;;;;;&&&o;..............................;;;;;==;;;;===&;;&&&&&;;;===&o&&&",
"=&&&;;;;;;==&&;;;=&&;;;;;;;;&&&&;..............................;;;;;&==;;;=;&&;;&&&=&o;;=;&&;&&&",
";;&&;;&&&&==&&&=&&&&&o&&&=;;&&==;..............................;o;&&&&;;;;;;&&&;&&==;;;;;;;;;;&&",
";;o&;;o&&&&&&&&=o&&&&&&&&=====......>>>>>>>>>>>>>>>>>>::::::......&&&&;;;;;;&&&o;o=;;;;;;;;;;;&=",
";;&&&&&&&&&o;;==;;===&&&;;;;;;......>>>>>>>>>>>>>>>>>>::::::......=&&&;;&&==;;;;;;;;;;;;;;;=;;;=",
";;==&&o&&&&&;;;;;;;;=&&&o&;;;;......>>>>>>>>>>>>>>>>>>::::::......==&&;;&&&=;;;o;;;;;;;;;;==;;==",
";;;=;;;;&&=;;;;;;;;;;;&&&&&&;;...>>>>>>>>>>>>>>>>>>::::::::::::...;;&&o;&&;=;;&&==;;o;&&&&=&;;;;",
";;;=;;;;===;;;;;;;;;;;o&&&&&;;...>>>>>>>>>>>>>>>>>>::::::::::::...=;&&;;&&;;;;&&=;;;&&&&&&&&;;;;",
";;;;;;;;;;;;&==;;;&&;;;;;;==&&...>>>>>>>>>>>>>>>>>>::::::::::::...;;&&&&o;;;=&&&=&;;;;&&&&;;;=o;",
";;;;;;==;;;;&==;;;o&;;;;;;==&&...>>>>>>>>>>>>>>>......:::::::::...;;&&&&;;;;==&&&&;;;;&=;o;;==&&",
";;&o&&==;;&&&&;;;;&&&=;;;;;;&o...>>>>>>>>>>>>>>>......:::::::::...;;o;=&;;;;;=;;&&&;;;;=;;;;=&&&",
";;&&&&&&;;o&&&;;;;&&&===;;;;;;...>>>>>>>>>>>>>>>......:::::::::...;;;;===;;;;;;;&&&o;;==;;;;&&&&",
";======&&&;;;;;;;;;;==;;;;;;&&......:::::::::.........:::::::::...;;;;&&o;;;;;;;;;;;&&&&;;;o==;;",
";=&&;;=&&&;;;;==;;;;==o&;;;;&&......:::::::::.........:::::::::...;;=;&&;;;;;o;;;;;;&&&&;;;&==;;",
"&&&&;;;;&o;;&&==;;;o&&&&==;;==......:::::::::.........:::::::::...;;=&&&;;;;&&&&==;;&o==;;&&&&;;",
"o&&&;;;;&&;;&&&&;;;&&&&&==;;==......:::...:::.........:::::::::...;;==&&=;;;&&&&==;;;;==;;&&&&;;",
";;====;;&&&=&o;;&&&&;;;o&&;;;;......:::...:::.........:::::::::...o;==;;==;;;;=&&&&&;;;;;;==;;;;",
";;;;&&;;&&&=&&;;&&&&;;;&&&;;;;......:::...:::.........:::::::::...;;&==;&=;o;;==&&&&;;;;;;==o&;;",
";;;;&&&o&&==;;;;==;;;;&&&&&;;;...>>>>>>>>>>>>>>>>>>:::............&&&&;;&&&&;;;=;;&o;;;o&&&&&&&&",
";;;;&&&&o&;;;;;;==;;;;&&&&o;;;...>>>>>>>>>>>>>>>>>>:::............&&&&;;&&&&;;;;;;;;;;;&&&&&&&&&",
"&&&=;;;;;;===&&&;;;;;;&&&&&&;;...>>>>>>>>>>>>>>>>>>:::............=&&&;;;;;;&&==;;;;;==&&&&;;;==",
"&&&=;;;;;;;;=&&&o&;;;;&&&&&=;;...:::>>>:::>>>:::...............-=;==&&;;;;;;&==;;,,,==&,,,o;;;==",
"&&==;;&o;;;;;;&&&&&&;;==&&==;;...:::>>>:::>>>:::...............-;;;;&&o;;;o;&&;;;,,,&&&,,,&&;;;;",
"o&;;;;&&;;;;;;o&&&&&;;==;o=;;;...:::>>>:::>>>:::...............-;;;;&&;;;;&&&&;;;,,,&&&,,,&&;;;;",
";;;;&&&&;;&&;;;;;;==&&&&;;;;;;...XXX...XXX...XXX.........&&&-;;;o;;;;;;;;==&;;;;==;;,,,&===&&&&&",
";;;;==&&;;o&;;;;;;==&&&&;;;;;;...XXX...XXX...XXX.........&&&-o;;&&;;;;;;==&&;;;;=;;;,,,o;;=&o&&&",
"=;;;==;;;;&&&=;;;;;;o;=&==;;o;...XXX...XXX...XXX.........&=&;;;;&&&&;=;;o&&&o;&&=&;;,,,;;;;;;;&&",
"=;;;;;;;;;&&&===;;;;;,,,=;;;&&...........................&;;;;;;&&&===;;;&&&&&&&&&;;;;;;;;;;;;==",
"==;;;;;;&&&&&o;;==&&&,,,&o;;==...........................&&o;;====;;;;;;&&&&&o;;==&&==&&&&;;;;==",
"&&;;;;;;&&&&;;;;==&&&,,,;;;;==...........................&&&;;;;&&;;;;;;&&&&;;;;==&&==&&&&;;;;==",
"&&&o&=;;==;;;;;;&&,,,&&&;;;;&&&&;;;;;;;=&&==;;;;;;;=&&==&&==;;;;&&&o&=;;==;;;;;;;o&&;;;;&;;;&&&&",
"&&&&&=====;;;;;;&&,,,&&&;;;;&&&&;;;;;;;=&&&&;;;;;;;=&&&&&&==;;;;&&&&&=====;;;;;;;&&&;;;;o;;;&&&&",
"&==;&&&&;;;;&&&&&o,,,;==&&&&&;;;&&&o;;;;&&;;;;&o&&&=&o;;;;;;&&==&==;&&&&;;;;==;;;;==&&;;&&&&&;;;",
"&==;&&o&;,,,&&&&;;,,,;==&&&&o;;;&&&&;;;;o&;;==&&&&&=&&;;;;;;&&==&==;&&o&;;;;==;;;;==&&;;&&&&o;;;",
"&&;;;;;;;,,,o;=&;;,,,;;;&o==;;;;&&=;;;&o;;;;=&&&&&==;;;;;;;o&&;;&&;;;;;;;;&&&&;;;;;;&&&;&o==;;;;",
"&&;;;;;;;,,,;;==;;,,,;;;;;==;;;;===;;;&&;;;;=&&&o&;;;;;;;;;&&&;;&&;;;;;;o&&&&&;;;;;;&&o;;;==;;;;",
"&o;;&o;;;;;;,,,=;;,,,;&&;;==&&&&;;;;;;&&;;o&==;;;;;;;;;;;;;;;;;;&o;;&&&&&;;;;;;;&&&&;;;;;;==&&&&",
"&&;;&&;;;;;;,,,;;;,,,;o&;;==&&&&;;;;;;&&;;;&=;;;;;;;;;;;;;==;;;;&&;;&&&&o;;;o&;;&&&&;;;;;;==&&&&",
";;;;&&&=&=;;,,,;;;,,,;&&;;;;;;&o&o&&;==&;;&&=&;;=;;;&o&&&&==;;&&;;;;==;;;;;;&&&&&o==;;;;;;;;;;&o",
";;;;&&&=&===,,,;=;;;;;&&;;;;;;,,,&&&;==&;;&&&&;;=;;;&&&&&&&&o&&&;;;;==;;;;;;&&&&;;==;;o&;;;;;;;;",
";;&o;;==&&;;,,,;=&&&===&&&&&;;,,,==&;;;;;;;=o;;;==;;;;&&&&;;;;&&;;&&&&;;==;;;;==;;;;&&&&;;;o;;;;",
"==&&;;;;&&;;,,,;==&&;;=&o&&&;;,,,==&;;;;;;==&&;;&&;;;;==o&;;=;&&==&&o&;;==o&;;==;;;;&&&&;;;&;;;;",
"=&&&;;;;&&o;,,,;;;&&;;;;;;&&=;;;=,,,;;o;&&=&&&&&&&&o;;;=;;;;,,,==&,,,;;;&&&&;;;;==;;==;;;;&&&&==",
"=&&&;;;;&&;;,,,;;o&&;;;;;;===;;;;,,,;;&&&&&&&&&=&&&&;;;=;;;;,,,==&,,,;;;&&&&;;;;==;;==;;;;&&&&==",
";;;;&==;&&&&,,,;;;;;;;;;;;&&o;;;&,,,&&;;;;;=;;;=;;;o==;;&&&&,,,;&&,,,;;;==;;o&&&&&&&&&&&&o;;==&&",
";;;;&==;o&&&;;;;;;;;;;;;=;&&;;;;&,,,&&;;;;==;;==;;;&==;;&&&&;;;,,,==;;;;=;;;;&&&&&&&&&&&;;;;==&&",
";;&o&&;;;;&&;;;;==;;;;&&=&&&;;;;&,,,&;;;&&=&;;;;;;&&&&;;&o==;;;,,,==;;o;=&;;;;&&;;&o==;;;;;;;o&&",
";;&&&&;;;;====;;&==;;o&&==&&=;;;=,,,&o;;&&&&;;;;;;&&&&;;;;==;;;,,,;;;;&&&&;;;;&=;;;;==;;;;;;;&&&",
";===;;;;;;;;&&o;&&;;;;&&;;;;=&&&=,,,;;;o&&;;;=o;;;==;;;;;;;;&o;;&&&&&&&&&&&&;;;=;;&&&&;;o&&&;;;;",
";=&&;;;;;;;;&&;;&&;;;;&&=;;;==&&=,,,;;;&;o;;==&&;;==o&;;;;;;&&;;&&o&&=&&&&;o;;==;;&&&&;;;&&&;;;;",
"&&&&&o&&&=;;&&==&&o;;==&==;;;;&&=,,,;;&&;;;;=&&&&&&&&&&&==;;&&&=;;;;==;;;;;;;;;;;;==&;;;;;&&==;;",
"o&&&&&&&&===&&&=&&;;;;==&=;;;o&&;;;;;;&&;;;;&&&&&&&&&&&&==;;&&&=;;;;=;;;;;;;;;;;;;==o;;;;;&&==;;",
";;===&&&&&&&o;;=;;;;&&&&&&;;;;;;;;;;;;&&&&==;;;o&o;;==&&&&&o;;==;;&&&o;;;;;;;=o;o&&&;;;;;;&&&&&&",
";;;;=&&&&&&&;;;;=;;;&&&&&&;;;;=;o&;;;;&&&&==;;;&;;;;==&&&&&&;;;;;;&&&&;;;;;;==&&;&&&;;;;;;&=&&;o",
";;;;;;&&=&;;;;;;==;;o;=&&&o;&&==&&&&;;==&&;;;;&&;;;;;o&&&&=;;;;;;==&;;;;;;o&=&&&;;&&;=;;;;;=;;;;",
";;;;;;o&===;;;;;&=;;;;==&&;;&&&=&&&&;;==&&;;;;&&;;;;;&&&===;;;;;;==&;;;;;;;&&&&&;;&===;;;;==;;;;",
";;&&;;;;;;;;==;;&&&&;;;=&&==&&o;;;==&&&&&;;;==&&;o&&;;;;;;;;&==;;;;;;===&&&&;;o&;;;;&&&;;;;;;;;=",
";;o&;;;;;;;;&==;&&&&;;;;&&&=&&;;;;==&&&&o;;;==&&;&&&;;;;;;;;&==;;;;;;=&&&=&&;;;&;;;;&&&o;;;;;;==",
";;&&&=;;;;&&&&;;;;o;;;;;&&;=;;;;;;;;&o==;;;;;;;;;;&&==;;;;&&&&;;;;;;&&&&==;;;;&&&&;=&&==;;o;&&=&",
";;&&&===;o&&&&;;;;;;;;;o&&;;;;;;;;;;;;==;;;;;;;;;;&&==;;;;o&&&;;==;;o&&&=;;;;;&&&===&==;;;&&&&&&"
};
