/* XPM */
static char *result[] = {
/* columns rows colors chars-per-pixel */
"96 96 40 1 ",
"  c #4E4D5C",
". c #5C6D77",
"X c #A4C262",
"o c #A5C262",
"O c #A4C362",
"+ c #A5C362",
"@ c #A4C263",
"# c #A5C263",
"$ c #A4C363",
"% c #A5C363",
"& c #C0D470",
"* c #C1D470",
"= c #C0D570",
"- c #C1D570",
"; c #C0D471",
": c #C1D471",
"> c #C0D571",
", c #C1D571",
"< c #6E7A80",
"1 c #7B888F",
"2 c #728794",
"3 c #8A98A0",
"4 c #9BAAB3",
"5 c #A6AFB4",
"6 c #E6A3A2",
"7 c #E6A2A3",
"8 c #E6A3A3",
"9 c #E7A3A3",
"0 c #E8EEAA",
"q c #A7B8C2",
"w c #BAC4CA",
"e c #C6DADE",
"r c #C7DADE",
"t c #C6DBDE",
"y c #C7DBDE",
"u c #C6DADF",
"i c #C7DADF",
"p c #C6DBDF",
"a c #C7DBDF",
"s c #DFEDED",
/* pixels */
"-=*&&;-,;,::-,;=*:-:==,*,&**,,=,>&=;&;:*;;&-,,:*>&:&=:=>>->>=>-;;**-*&=&>---;>:*&*-=--;=-,,;>-&:",
":&=>;=;,&:;---&:=>&=-&&>*>,:=*,-*:,>:>=:>,-&-=&::>=:,--&,;:,-*:-&:=&&,;&-;>;>;*:*>&-*=&:,*&,--*>",
">--,;=&-&:,*:=>>&;=;;=>:->==&=-&>-,:*:&;>::>>:**::-:,*&>,>&&,:-=&*,,,>;==&*;=->&=:=*&&-&*==-&,&,",
"&:*-;:*&-,,,*=-&=**>=&,:-==-;-&:&:*,>&&:-***;*;&&*=&,>,&:>;>::>*=*-====->:**-=,=;&:,-&*--=*&,*&;",
"*->,;>;,-,=:&*-*:&;=,:;&>*&,:=-&,=&;&&:==*=:=*&-;:&;;&*;>&&;;*->>;&:>:>,,,**,&-*:*>-&>,::;=&;:>-",
">&;;,,&,*>-=>&==&*&>>::>,,*&*&:>,-*,:>*,=-;&**&-&&;;:,=,*;->:>->,:&;*,-=*=>-&>:>>&*=:*=,-=>*>:;-",
":,:-=>-,,;:=&*,:&-&>>&*&*&=-:,&=;*;==->**-:=::-=&,=>:**;-:>;>**-&,&:&-*=->:*,:=,,*>=,,*:,,:&,>>,",
"&&=;=:-=;==**,>;;:,&;>;*,*:&;;=;*=**>&==,=-*,&=,:*&===&*=;&*>>=-,:;&-=;:;=;,&>**:=-,>;=>*&:>*=>,",
",,;*&;,&:,=&*>;=->,,-->--&;&-:=,=,=*-=>>=&&*;&=&>=;=&:=*=-=,-:-,*=>,;&;*;&,>,>=;*>;&&-:,***,;;&>",
"-**,&:&::&,->,;:>=-&=&*=&-*,-&:--;:,oXo&-;&;-:;>>&;->=*;&>>=*>&-&*:;->;=-**+$O-*;$+$&;;&-&-;*&>;",
"-;&;*&>*-&=,&*-;,,>&,:*-;*,=-==&==>,OoX==;-;-;:&,&:>,;=;&-;>*&&=;=>,,-:;&&-Xo+-**%$%==-=:-,*-;**",
";=;-,,-,-&;;**&&>=*==;,:=;=>&*,:,>-:%+$=*--:-&*-,*>:***:=&:=:&=;-:&&*,*=*&&$@o&*:##@>,,>--==&:,-",
"&;-**-:;>->;>&>=*>*;:*=>---&=-:&>#O#;*=,=,;*&:&;=&-::&,*=&&:&&*,&;*:>-=&*=*;>>%O$**;;-&=--*=>:==",
";==,&:;&=,:*>,;,=*:**;>*=-=*,*,==%%$;>*&;,&=,=>=&=>>-&;,-&=--,&;-;:**,,&*-=*;*$+X=->*&=;&;,,===&",
",;,>*:&*>:,>*=&*=&:-:>-==-;&:*>-*o@%>>*,::->->>;=::>&=-*::&&*:-=-&>&,=&;&*=:=,#O+:,,=&:;;*:&&&-:",
"*;=-**=;;;*-::;>:;&-,-:;:>>;==;:*oXo;;--&***&:=:*&,&>=--,&**>-:&-:;;-&>-=;;*=:&;,&;-->-*:&>=-***",
":=&*,-,>*>&,**>>:,;*;*&,=:,*=,&&;#@%*&:>&=,;>:**&&>,-;-;-&=*&-*;&;&*&:=>=&-=-:&:-:=:*>-=*&,-,,-*",
"&-&>,*;&>>=&,>=;>;:;,=*-&:>=;=*:&$#+=>=*:=>,&->*:*&;,==*&&*=->=,&&-,=>**;>*:-*-:;>-==:=;-*,=-:&:",
">;&*=&;;>*>=@X+*&=:=*&;>&*=--,&--,,&;-,&&=;>=*&=,*---&*-,:,*:,=>&*-*=--&-:*>;>*->;*&=-;>>*==>&&>",
"=-**:=*:,-=>o@O**:&-*;;>>*:,>=>,=,,:==**&-&-*>:**&*>**-;,-&,>;:=&;>,::;;-=;>:,>**-&&*-==&&*&:&=:",
"*;*-&=,;;&>,#%@,***&;=:>-&&,>-;;-*&*-&;*,=*;*&:&,*:=;-*--&>>:*:>,*=;*-*:-->&=:>&>-:==&--:--=&*--",
"*->=,*:==&;=-,*XXO,:*,>:,=-&>=&&*taypy>:*-=>&*&>::;=-,&&-;tiipy>=*=*;-=-=;=,-&&;=&;&>&,=:&-;:==&",
"-**>;;**&&:&--*$@X&&:-:,,=-&-=-=-pttar,&>>&---=**,=;&;-&:*eyety&:==-**&-->:>---=*;=,==**,&;&=->-",
"-&&--*>****-:*&XX%>=&>,,;>;&=-,;*trute-:;,*:&*-,>;&;:=&;-&artyt=;=*,&;,>-=-&*;:,=;-:>**--&=&,,:,",
"&&&&&&&&&&&&&&&@@@&&&&&&&&&&&&@@@ptttt&&&&&&&&&&&&&&&&&&&&ttttt&&&&&&&&&&&&&&&&&&&&&&&&&&&&&&&&&",
"&&&&&&&&&&&&&&&@@@&&&&&&&&&&&&@@@ttpte&&&&&&&&&&&&&&&&&&&&tttet&&&&&&&&&&&&&&&&&&&&&&&&&&&&&&&&&",
"&&&&&&&&&&&&&&&@@@&&&&&&&&&&ptptp98897pytpp&&&&&&&&&&tttye76897ptytt&&&&&&&&&&&&&&&&&&&&&&&&&&&&",
"&&&&&&&&&&&&&&&&&&&&&&&&&&&@ttttt88888ttttt&&&&&&&&&&ttttt88888ttttt&&&&&&&&&&&&&&&&&&&&&&&&&&&&",
"&&&&&&&&&&&&&&&&&&&&&&&&&&&@ttttt88888ttttt&&&&&&&&&&ttttt88888ttttt&&&&&&&&&&&&&&&&&&&&&&&&&&&&",
"&&&&&&&&&&&&&&&&&&&&&&&&&&&@ttttt88888ttttt&&&&&&&&&&ttttt88888ttttt&&&&&&&&&&&&&&&&&&&&&&&&&&&&",
"&&&&&&&&&&&&&&&&&&&&&&&&&&&@ttttt88888ttttt&&&&&&&&&&ttttt88888ttttt&&&&&&&&&&&&&&&&&&&&&&&&&&&&",
"&&&&&&&&&&&&&&&&&&&&&&&&&&&@ttttt88888sssssssssssssssssssssssssttttt&&&&&&&&&&&&&&&&&&&&&&&&&&&&",
"&&&&&&&&&&&&&&&&&&&&&&&&&&&@ttttt88888sssssssssssssssssssssssssttttt&&&&&&&&&&&&&&&&&&&&&&&&&&&&",
"&&&&&&&&&&&&&&&&&&&&&&&&&&&&ttttt88888sssssssssssssssssssssssssttttt&&&&&&&&&&&&&&&&&&&&&&&&&&&&",
"&&&&&&&&&&&&&&&&&&&&&&&&&&&&ttttt88888sssssssssssssssssssssssssttttt&&&&&&&&&&&&&&&&&&&&&&&&&&&&",
"&&&&&&&&&&&&&&&&&&&&&&&&&&&&ttttt88888sssssssssssssssssssssssssttttt&&&&&&&&&&&&&&&&&&&&&&&&&&&&",
"&&&&&&&&&&&&&&&&&&&&&&&tttttsssssssssssssssssssssssssssssssssssssssssssss&&&&&&&&&&&&&&&&&&&&&&&",
"&&&&&&&&&&&&&&&&&&&&&&&tttttsssssssssssssssssssssssssssssssssssssssssssss&&&&&&&&&&&&&&&&&&&&&&&",
"&&&&&&&&&&&&&&&&&&&&&&&tttttsssssssssssssssssssssssssssssssssssssssssssss&&&&&&&&&&&&&&&&&&&&&&&",
"&&&&&&&&&&&&&&&&&&&&&&&tttttsssssssssssssssssssssssssssssssssssssssssssss&&&&&&&&&&&&&&&&&&&&&&&",
"&&&&&&&&&&&&&&&&&&&&&&&tttttsssssssssssssssssssssssssssssssssssssssssssss&&&&&&&&&&&&&&&&&&&&&&&",
"&&&&&&&&&&&&&&&&&&qqqqqqqqqqqqqqqsssss     ssssssssssssssssssss     sssssqqqqq&&&&&&&&&&&&&&&&&&",
"&&&&&&&&&&&&&&&&&&qqqqqqqqqqqqqqqsssss     ssssssssssssssssssss     sssssqqqqq&&&&&&&&&&&&&&&&&&",
"&&&&&&&&&&&&&&&&&&qqqqqqqqqqqqqqqsssss     ssssssssssssssssssss     sssssqqqqq&&&&&&&&&&&&&&&&&&",
"&&&&&&&&&&&&&&&&&&qqqqqqqqqqqqqqqsssss     ssssssssssssssssssss     sssssqqqqq&&&&&&&&&&&&&&&&&&",
"&&&&&&&&&&&&&&&&&&qqqqqqqqqqqqqqqsssss     ssssssssssssssssssss     sssssqqqqq&&&&&&&&&&&&&&&&&&",
"&&&&&&&&&&&&&&&&&&&&&&&tttttsssssssssssssssssssssssss     sssssssssssssss&&&&&&&&&&&&&&&&&&&&&&&",
"&&&&&&&&&&&&&&&&&&&&&&&tttttsssssssssssssssssssssssss     sssssssssssssss&&&&&&&&&&&&&&&&&&&&&&&",
"&&&&&&&&&&&&&&&&&&&&&&&tttttsssssssssssssssssssssssss     sssssssssssssss&&&&&&&&&&&&&&&&&&&&&&&",
"&&&&&&&&&&&&&&&&&&&&&&&tttttsssssssssssssssssssssssss     sssssssssssssss&&&&&&&&&&&&&&&&&&&&&&&",
"&&&&&&&&&&&&&&&&&&&&&&&tttttsssssssssssssssssssssssss     sssssssssssssss&&&&&&&&&&&&&&&&&&&&&&&",
"&&&&&&&&&&&&&&&&&&qqqqqqqqqqqqqqqsssssssssssssss     88888     ssssssssssqqqqq&&&&&&&&&&&&&&&&&&",
"&&&&&&&&&&&&&&&&&&qqqqqqqqqqqqqqqsssssssssssssss     88888     ssssssssssqqqqq&&&&&&&&&&&&&&&&&&",
"&&&&&&&&&&&&&&&&&&qqqqqqqqqqqqqqqsssssssssssssss     88888     ssssssssssqqqqq&&&&&&&&&&&&&&&&&&",
"&&&&&&&&&&&&&&&&&&qqqqqqqqqqqqqqqsssssssssssssss     88888     ssssssssssqqqqq&&&&&&&&&&&&&&&&&&",
"&&&&&&&&&&&&&&&&&&qqqqqqqqqqqqqqqsssssssssssssss     88888     ssssssssssqqqqq&&&&&&&&&&&&&&&&&&",
"&&&&&&&&&&&&&&&&&&&&&&&tttttsssssssssssssssssssssssssssssssssssssssssssss&&&&&&&&&&&&&&&&&&&&&&&",
"&&&&&&&&&&&&&&&&&&&&&&&tttttsssssssssssssssssssssssssssssssssssssssssssss&&&&&&&&000&&&000&&&&&&",
"&&&&&&&&&&&&&&&&&&&&&&&tttttsssssssssssssssssssssssssssssssssssssssssssss&&&&&&&&000&&&000&&&&&&",
"&&&&&&&&&&&&&&&&&&&&&&&tttttsssssssssssssssssssssssssssssssssssssssssssss&&&&&&&&000&&&000&&&&&&",
"&&&&&&&&&&&&&&&&&&&&&&&tttttsssssssssssssssssssssssssssssssssssssssssssss&&&&&&&&&&&000&&&&&&&&&",
"&&&&&&&&&&&&&&&&&&&&&&&&&&&&tttttsssssssssssssssssssssssssssssssssss&&&&&&&&&&&&&&&&000&&&&&&&&&",
"&&&&&&&&&&&&&&&&&&&&&&&&&&&&tttttsssssssssssssssssssssssssssssssssss&&&&&&&&&&&&&&&&000&&&&&&&&&",
"&&&&&&&&&&&&&&&&&&&&&000&&&&tttttsssssssssssssssssssssssssssssssssss&&&&&&&&&&&&&&&&&&&&&&&&&&&&",
"&&&&&&&&&&&&&&&&&&&&&000&&&&tttttsssssssssssssssssssssssssssssssssss&&&&&&&&&&&&&&&&&&&&&&&&&&&&",
"&&&&&&&&&&&&&&&&&&&&&000&&&&tttttsssssssssssssssssssssssssssssssssss&&&&&&&&&&&&&&&&&&&&&&&&&&&&",
"&&&&&&&&&&&&&&&&&&000&&&&&&&3333333333555555555555555555555555533333&&&&&&&&&&&&&&&&&&&&&&&&&&&&",
"&&&&&&&&&&&&&&&&&&000&&&&&&&3333333333555555555555555555555555533333&&&&&&&&&&&&&&&&&&&&&&&&&&&&",
"&&&&&&&&&&&&&&&&&&000&&&&&&&3333333333555555555555555555555555533333&&&&&&&&&&&&&&&&&&&&&&&&&&&&",
"&&&&&&&&&000&&&&&&000&&&&&&&3333333333555555555555555555555555533333&&&&&&&&&&&&&&&&&&&&&&&&&&&&",
"&&&&&&&&&000&&&&&&000&&&&&&&3333333333555555555555555555555555533333&&&&&&&&&&&&&&&&&&&&&&&&&&&&",
"&&&&&&&&&000&sssss000&&222222222244444111111111155555<<<<<<<<<<33333.....&&&&&&&&&&&&&&&&&&&&&&&",
"&&&&&&&&&&&&0sssss000&&222222222244444111111111155555<<<<<<<<<<33333.....&&&&&&&&&&&&&&&&&&&&&&&",
"&&&&&&&&&&&&0sssss000&&222222222244444111111111155555<<<<<<<<<<33333.....&&&&&&&&&&&&&&&&&&&&&&&",
"&&&&&&&&&&&&0sssss000&&222222222244444111111111155555<<<<<<<<<<33333.....&&&&&&&&&&&&&&&&&&&&&&&",
"&&&&&&&&&&&&0sssss&&&&&222222222244444111111111155555<<<<<<<<<<33333.....&&&&&&&&&&&&&&&&&&&&&&&",
"&&&&&&&&&&&&0sssss&&&&&22222222224444444444wwwww<<<<<555553333333333.....&&&&&&&&&&&&&&&&&&&&&&&",
"&&&&&&&&&&&&0sssss&&&&&22222222224444444444wwwww<<<<<555553333333333.....&&&&&&&&&&&&&&&&&&&&&&&",
"&&&&&&&&&&&&0sssss&&&&&22222222224444444444wwwww<<<<<555553333333333.....&&&&&&&&&&&&&&&&&&&&&&&",
"&&&&&&&&&&&&0sssss&&&&&22222222224444444444wwwww<<<<<555553333333333.....&&&&&&&&&&&&&&&&&&&&&&&",
"&&&&&&&&&&&&0sssss&&&&&22222222224444444444wwwww<<<<<555553333333333.....&&&&&&&&&&&&&&&&&&&&&&&",
"&&&&&&&&&&&&&&&&&&sssss&&&&&4444444444444444444455555333333333333333&&&&&&&&&&&&&&&&&&&&&&&&&&&&",
"&&&&&&&&&&&&&&&&&&sssss&&&&&4444444444444444444455555333333333333333&&&&&&&&&&&&&&&&&&&&&&&&&&&&",
"&&&&&&&&&&&&&&&&&&sssss&&&&&4444444444444444444455555333333333333333&&&&&&&&&&&&&&&&&&&&&&&&&&&&",
"&&&&&&&&&&&&&&&&&&sssss&&&&&4444444444444444444455555333333333333333&&&&&&&&&&&&&&&&&&&&&&&&&&&&",
"&&&&&&&&&&&&&&&&&&sssss&&&&&4444444444444444444455555333333333333333&&&&&&&&&&&&&&&&&&&&&&&&&&&&",
"&&&&&&&&&&&&&&&&&&&&&&&ssssssssss444444444444444333333333333333&&&&&&&&&&&&&&&&&&&&&&&&&&&&&&&&&",
"&&&&&&&&&&&&&&&&&&&&&&&ssssssssss444444444444444333333333333333&&&&&&&&&&&&&&&&&&&&&&&&&&&&&&&&&",
"&&&&&&&&&&&&&&&&&&&&&&&ssssssssss444444444444444333333333333333&&&&&&&&&&&&&&&&&&&&&&&&&&&&&&&&&",
"&&&&&&&&&&&&&&&&&&&&&&&ssssssssss444444444444444333333333333333&&&&&&&&&&&&&&&&&&&&&&&&&&&&&&&&&",
"&&&&&&&&&&&&&&&&&&&&&&&ssssssssss444444444444444333333333333333&&&&&&&&&&&&&&&&&&&&&&&&&&&&&&&&&",
"&&&&&&&&&&&&&&&&&&&&&&&&&&&&&&&&&&&&&&&&&&&&&&&&&&&&&&&&&&&&&&&&&&&&&&&&&&&&&&&&&&&&&&&&&&&&&&&&",
"&&&&&&&&&&&&&&&&&&&&&&&&&&&&&&&&&&&&&&&&&&&&&&&&&&&&&&&&&&&&&&&&&&&&&&&&&&&&&&&&&&&&&&&&&&&&&&&&",
"&&&&&&&&&&&&&&&&&&&&&&&&&&&&&&&&&&&&&&&&&&&&&&&&&&&&&&&&&&&&&&&&&&&&&&&&&&&&&&&&&&&&&&&&&&&&&&&&",
"&&&&&&&&&&&&&&&&&&&&&&&&&&&&&&&&&&&&&&&&&&&&&&&&&&&&&&&&&&&&&&&&&&&&&&&&&&&&&&&&&&&&&&&&&&&&&&&&",
"&&&&&&&&&&&&&&&&&&&&&&&&&&&&&&&&&&&&&&&&&&&&&&&&&&&&&&&&&&&&&&&&&&&&&&&&&&&&&&&&&&&&&&&&&&&&&&&&"
};
