/* XPM */
static char *result[] = {
/* columns rows colors chars-per-pixel */
"96 96 51 1 ",
"  c #4E4D5C",
". c #5C6D77",
"X c #A4C262",
"o c #A5C262",
"O c #A4C362",
"+ c #A5C362",
"@ c #A4C263",
"# c #A5C263",
"$ c #A4C363",
"% c #A5C363",
"& c #C0D470",
"* c #C1D470",
"= c #C0D570",
"- c #C1D570",
"; c #C0D471",
": c #C1D471",
"> c #C0D571",
", c #C1D571",
"< c #6E7A80",
"1 c #7B888F",
"2 c #728794",
"3 c #8A98A0",
"4 c #9BAAB3",
"5 c #A6AFB4",
"6 c #E6A2A2",
"7 c #E7A2A2",
"8 c #E6A3A2",
"9 c #E7A3A2",
"0 c #E6A2A3",
"q c #E7A2A3",
"w c #E6A3A3",
"e c #E7A3A3",
"r c #E8EEAA",
"t c #A7B8C2",
"y c #BAC4CA",
"u c #C6DADE",
"i c #C7DADE",
"p c #C6DBDE",
"a c #C7DBDE",
"s c #C6DADF",
"d c #C7DADF",
"f c #C6DBDF",
"g c #C7DBDF",
"h c #DEECEC",
"j c #DFECEC",
"k c #DEEDEC",
"l c #DFEDEC",
"z c #DEECED",
"x c #DFECED",
"c c #DEEDED",
"v c #DFEDED",
/* pixels */
"*>;==;&:=>>-->=-&>->->>=->*,,-:,,,=:>>&::*=>;&*>&-:-&=>;*;>,=:>&,&&&**->>>&;,:,--*:=**,--;>*;&=:",
"=-,>--;:;:;==*=;=&=**;;&*;-*,-:,-=:>,;:->;-;:-*-;>=-=&**,;;>;=&;,;-*&-:>>>;*,;>&-=====:*=*:,;;-,",
"--*;*=:;;:;*>,>>-;>*;>->=;*>&-*&,-,&&::&>>;,;,**;,:;:*:&;;>=*:>==&&;-&*-&=-,&:>,=**=&-&:;=**--:=",
"&,-=>,&,***:-*==&*-=&=:;--&=>*:;*&-=,*:>-=:-;*:==-*&=,&&=;,;>&:;=>*=;=:&,---=,=&=>-:=&==:-**,>,:",
">=&:;->**=>,&&,->;*>=>::*==&,*>;>:*&-;:&-;=*=&;&:>*==;,==:**=-*>*;;-,:,:,*==>=*:===*=--;>&==>:,-",
"=*&*>*=-*:->,>**=-=,&:,,*>>==>;,>-=,::=:-*-&**>:*&=*>;:>;;;:->&;;,&=;:,>-*>&***&,-*&;-==-**&:>,>",
":*&=---:*;,&-&,:&,-&->*=-*=,=:-===,&&*-=*-;*=>&&;=>;**>;&;;;&*=>,-,=>-&=&=,&;,*,=*>&>>;&*--:&,>-",
">;&&:;;:;-;=-->,*;:>:=:-*,&-&*===>*;:=>,-;*=**=:*->>,*&:**>*>===,-**,&=;:*;,>*=,*;;:-=:>==*-&-,;",
"-:=**=;:**-&*&*,,>;;=&&=**>*=*;&-,=>,*--=**-&&>=*=&,;&;=-&,;&,=,::;,&&:=;::=::==:;,>*:,>-*-&>:&&",
"&*&;-;-;,;-=->*:=*==*****=**&=*===;&OO$;-&***,;:,&=-:***-,,*>*:>,,=-&;:**==o@+&*;@O%;;-==;*&***-",
"&-=:-===:=;>&=*,*>:=**&*=-&==-=&>***oOO==>&--:>---=*&>,;*>&;*--==*:=>=>:;&=o#+>:;#oO&=&&,=->,>&=",
":>>&;&*,-*::-=-,&&-=-;*-=>=;*;=&>ipdia%,*&--*:&>=&>>>&>,&;issdd;&,;:&**=->&%%o;*,@o$*>=-&&:>>**:",
"=;&*-*;=*:,:;;>----&;*&,&-:=,,&&;siuia;;*,:,=;*;==--::*-*&iiuus:*:-*,-&>;=;,:-+@X:*&:>=,-*=->*=&",
"&=**=&&&=&:;,:>>&-*==>;&;:&-*==>*agspi&>=;=-;=>:,==*:=>&=;faaig-&;*-=:>&*&;*>>$+O>,,-=>&:>=*,&*=",
",-=;-,&*=*:>,*&-&&&-*>*:*&-&:*,*=puiup:;:,,>&,:>=,,==&*&:-sapsp-*&*-:>&>:,*&>&#XO>>,;&=>>>**;=;*",
"=-:-:-*&=,&*-;>;>=;;;&*&&,,;-&-:&fduff&;&,>*=&-*--=;&*-*>:ipuaf=&;-:-&&-=&>==::::=,&===*,;-*&:&*",
"&-&***>;>=:=-;>>:,**--=**=;&aaaiu7q889uupss&=-=*=*,:*uufgf90076aadis*,=;-&&,>&-,,;>&;=&--*-:,-==",
"=--&,**;;;:;-&;*,=;=--*&&,:>uppui07989ipspi>&--,,&=:*sfpgi89887upaiu**&;*;;;=:;,:;&*=-&*&*>,;,;-",
"=;=*:&:&--**X%X***:>;&>&--*&ppusu689eqpupid:&*&&-&**-fusap86996dpuad&*=-***>;&-*,>==:;:;:*=>:&;*",
"-***;&&&&*=-@@$*:>-,,:,---;;upuaa88090uifpf:,-*>;=-=&pifdsqw66qgufsi*=:*&*::;:-::&;,,>;--=-&,-*&",
",:=**&*--,=-%##:*-*-&>*&;==,aiffp8w66qaugpg=,&,&--,=&upfsp6qweeaaufa-&:-=,->-:>>&=:=>=*->==,&=&:",
"&***&:*&>&*,--&@oO*==*>;;*-,usuugq86q0llvlvhxcchzzkjjzzzcxlxvzcufspp,:-=&>**&*>:-:=&:-,&-*>::>-,",
"-&-->**->*,=***#+o&-=,:-=;&=pippa0wq76cvlxzzzxkcczccxcczxzkccxcipdaa,&&>**>**>*&->&:-=;>=-=:*&>:",
"*&&>-&=**,-&>&:+Oo-&=>=&:==-iduis9q6eezxjkxxxlczlkzzvzzjvxxvvvzgpaau=;:>=;**-=&&&&&>>=&-==&&=:=>",
"&&&&&&&&&&&&&&&@@@&&&&&&&&&&ppppawwwwwvvvvvvvvvvcccczzzzzxxvvvcaaaaa&&&&&&&&&&&&&&&&&&&&&&&&&&&&",
"&&&&&&&&&&&&&&&@@@&&&&&&&&&&pufapwwewwvvvvvvvvvxvzccvcxczcvvvvviaapp&&&&&&&&&&&&&&&&&&&&&&&&&&&&",
"&&&&&&&&&&&&&&&@@@&&&&&puppuvvvvvvlccvcvvvvvvvvvvvxvlvlvvcvvvvxlcvvvlvcvv&&&&&&&&&&&&&&&&&&&&&&&",
"&&&&&&&&&&&&&&&&&&&&&&&suuuuvvvvvvvvvvvvvvvvvvvvvvvvvvvvvvvvvvvvvvvvvvvvv&&&&&&&&&&&&&&&&&&&&&&&",
"&&&&&&&&&&&&&&&&&&&&&&&uuuuuvvvvvvvvvvvvvvvvvvvvvvvvvvvvvvvvvvvvvvvvvvvvv&&&&&&&&&&&&&&&&&&&&&&&",
"&&&&&&&&&&&&&&&&&&&&&&&uuuuuvvvvvvvvvvvvvvvvvvvvvvvvvvvvvvvvvvvvvvvvvvvvv&&&&&&&&&&&&&&&&&&&&&&&",
"&&&&&&&&&&&&&&&&&&&&&&&uuuuuvvvvvvvvvvvvvvvvvvvvvvvvvvvvvvvvvvvvvvvvvvvvv&&&&&&&&&&&&&&&&&&&&&&&",
"&&&&&&&&&&&&&&&&&&tttttttttttttttvvvvv     vvvvvvvvvvvvvvvvvvvv     vvvvvttttt&&&&&&&&&&&&&&&&&&",
"&&&&&&&&&&&&&&&&&&tttttttttttttttvvvvv     vvvvvvvvvvvvvvvvvvvv     vvvvvttttt&&&&&&&&&&&&&&&&&&",
"&&&&&&&&&&&&&&&&&&tttttttttttttttvvvvv     vvvvvvvvvvvvvvvvvvvv     vvvvvttttt&&&&&&&&&&&&&&&&&&",
"&&&&&&&&&&&&&&&&&&tttttttttttttttvvvvv     vvvvvvvvvvvvvvvvvvvv     vvvvvttttt&&&&&&&&&&&&&&&&&&",
"&&&&&&&&&&&&&&&&&&tttttttttttttttvvvvv     vvvvvvvvvvvvvvvvvvvv     vvvvvttttt&&&&&&&&&&&&&&&&&&",
"&&&&&&&&&&&&&&&&&&&&&&&pppppvvvvvvvvvvvvvvvvvvvvvvvvv     vvvvvvvvvvvvvvv&&&&&&&&&&&&&&&&&&&&&&&",
"&&&&&&&&&&&&&&&&&&&&&&&pppppvvvvvvvvvvvvvvvvvvvvvvvvv     vvvvvvvvvvvvvvv&&&&&&&&&&&&&&&&&&&&&&&",
"&&&&&&&&&&&&&&&&&&&&&&&pppppvvvvvvvvvvvvvvvvvvvvvvvvv     vvvvvvvvvvvvvvv&&&&&&&&&&&&&&&&&&&&&&&",
"&&&&&&&&&&&&&&&&&&&&&&&pppppvvvvvvvvvvvvvvvvvvvvvvvvv     vvvvvvvvvvvvvvv&&&&&&&&&&&&&&&&&&&&&&&",
"&&&&&&&&&&&&&&&&&&&&&&&pppppvvvvvvvvvvvvvvvvvvvvvvvvv     vvvvvvvvvvvvvvv&&&&&&&&&&&&&&&&&&&&&&&",
"&&&&&&&&&&&&&&&&&&tttttttttttttttvvvvvvvvvvvvvvv     wwwww     vvvvvvvvvvttttt&&&&&&&&&&&&&&&&&&",
"&&&&&&&&&&&&&&&&&&tttttttttttttttvvvvvvvvvvvvvvv     wwwww     vvvvvvvvvvttttt&&&&&&&&&&&&&&&&&&",
"&&&&&&&&&&&&&&&&&&tttttttttttttttvvvvvvvvvvvvvvv     wwwww     vvvvvvvvvvttttt&&&&&&&&&&&&&&&&&&",
"&&&&&&&&&&&&&&&&&&tttttttttttttttvvvvvvvvvvvvvvv     wwwww     vvvvvvvvvvttttt&&&&&&&&&&&&&&&&&&",
"&&&&&&&&&&&&&&&&&&tttttttttttttttvvvvvvvvvvvvvvv     wwwww     vvvvvvvvvvttttt&&&&&&&&&&&&&&&&&&",
"&&&&&&&&&&&&&&&&&&&&&&&pppppvvvvvvvvvvvvvvvvvvvvvvvvvvvvvvvvvvvvvvvvvvvvv&&&&&&&&&&&&&&&&&&&&&&&",
"&&&&&&&&&&&&&&&&&&&&&&&pppppvvvvvvvvvvvvvvvvvvvvvvvvvvvvvvvvvvvvvvvvvvvvv&&&&&&&&&&&&&&&&&&&&&&&",
"&&&&&&&&&&&&&&&&&&&&&&&pppppvvvvvvvvvvvvvvvvvvvvvvvvvvvvvvvvvvvvvvvvvvvvv&&&&&&&&&&&&&&&&&&&&&&&",
"&&&&&&&&&&&&&&&&&&&&&&&pppppvvvvvvvvvvvvvvvvvvvvvvvvvvvvvvvvvvvvvvvvvvvvv&&&&&&&&&&&&&&&&&&&&&&&",
"&&&&&&&&&&&&&&&&&&&&&&&pppppvvvvvvvvvvvvvvvvvvvvvvvvvvvvvvvvvvvvvvvvvvvvv&&&&&&&&&&&&&&&&&&&&&&&",
"&&&&&&&&&&&&&&&&&&&&&&&&&&&&pppppvvvvvvvvvvvvvvvvvvvvvvvvvvvvvvvvvvv&&&&&&&&&&&&&&&&&&&&&&&&&&&&",
"&&&&&&&&&&&&&&&&&&&&&&&&&&&&pppppvvvvvvvvvvvvvvvvvvvvvvvvvvvvvvvvvvv&&&&&&&&&&&&&&&&&&&&&&&&&&&&",
"&&&&&&&&&&&&&&&&&&&&&&&&&&&&pppppvvvvvvvvvvvvvvvvvvvvvvvvvvvvvvvvvvv&&&&&&&&&&&&&&&&&&&&&&&&&&&&",
"&&&&&&&&&&&&&&&&&&&&&&&&&&&&pppppvvvvvvvvvvvvvvvvvvvvvvvvvvvvvvvvvvv&&&&&&&&&&&&&&&&&&&&&&&&&&&&",
"&&&&&&&&&&&&&&&&&&&&&&&&&&&&pppppvvvvvvvvvvvvvvvvvvvvvvvvvvvvvvvvvvv&&&&&&&&&&&&&&&&&&&&&&&&&&&&",
"&&&&&&&&&&&&&&&&&&&&&&&&&&&&vvvvv333335555555555333335555555555&&&&&&&&&&&&&&&&&&&&&&&&&&&&&&&&&",
"&&&&&&&&&&&&&&&&&&&&&&&&&&&&vvvvv333335555555555333335555555555&&&&&&&&&&&&&&&&&&rrr&&&rrr&&&&&&",
"&&&&&&&&&&&&&&&&&&&&&&&&&&&&vvvvv333335555555555333335555555555&&&&&&&&&&&&&&&&&&rrr&&&rrr&&&&&&",
"&&&&&&&&&&&&&&&&&&&&&&&&&&&&vvvvv333335555555555333335555555555&&&&&&&&&&&&&&&&&&rrr&&&rrr&&&&&&",
"&&&&&&&&&&&&&&&&&&&&&&&&&&&&vvvvv333335555555555333335555555555&&&&&&&&&&&&&&&&&&&&&rrr&&&&&&&&&",
"&&&&&&&&&&&&&&&&&&22222222224444444444yyyyyyyyyy55555555555555533333..........&&&&&&rrr&&&&&&&&&",
"&&&&&&&&&&&&&&&&&&22222222224444444444yyyyyyyyyy55555555555555533333..........&&&&&&rrr&&&&&&&&&",
"&&&&&&&&&&&&&&&&&&22222222224444444444yyyyyyyyyy55555555555555533333..........&&&&&&&&&&&&&&&&&&",
"&&&&&&&&&&&&&&&&&&22222222224444444444yyyyyyyyyy55555555555555533333..........&&&&&&&&&&&&&&&&&&",
"&&&&&&&&&&&&&&&&&&22222222224444444444yyyyyyyyyy55555555555555533333..........&&&&&&&&&&&&&&&&&&",
"&&&&&&&&&&&&&&&&&&22222222224444444444111111111155555<<<<<<<<<<33333..........&&&&&&&&&&&&&&&&&&",
"&&&&&&&&&&&&&&&&&&22222222224444444444111111111155555<<<<<<<<<<33333..........&&&&&&&&&&&&&&&&&&",
"&&&&&&&&&&&&&&&&&&22222222224444444444111111111155555<<<<<<<<<<33333..........&&&&&&&&&&&&&&&&&&",
"&&&&&&&&&rrr&&&&&&22222222224444444444111111111155555<<<<<<<<<<33333..........&&&&&&&&&&&&&&&&&&",
"&&&&&&&&&rrr&&&&&&22222222224444444444111111111155555<<<<<<<<<<33333..........&&&&&&&&&&&&&&&&&&",
"&&&&&&&&&rrr&&&&&&rrr&&&&&&&444444444444444yyyyy<<<<<555553333333333&&&&&&&&&&&&&&&&&&&&&&&&&&&&",
"&&&&&&&&&&&&rrr&&&rrr&&&&&&&444444444444444yyyyy<<<<<555553333333333&&&&&&&&&&&&&&&&&&&&&&&&&&&&",
"&&&&&&&&&&&&rrr&&&rrr&&&&&&&444444444444444yyyyy<<<<<555553333333333&&&&&&&&&&&&&&&&&&&&&&&&&&&&",
"&&&&&&&&&&&&rrr&&&rrr&&&&&&&444444444444444yyyyy<<<<<555553333333333&&&&&&&&&&&&&&&&&&&&&&&&&&&&",
"&&&&&&&&&&&&rrr&&&&&&&&&&&&&444444444444444yyyyy<<<<<555553333333333&&&&&&&&&&&&&&&&&&&&&&&&&&&&",
"&&&&&&&&&&&&rrr&&&&&&&&&&&&&vvvvv444444444444444555553333333333&&&&&&&&&&&&&&&&&&&&&&&&&&&&&&&&&",
"&&&&&&&&&&&&rrr&&&&&&&&&&&&&vvvvv444444444444444555553333333333&&&&&&&&&&&&&&&&&&&&&&&&&&&&&&&&&",
"&&&&&&&&&&&&rrr&&&&&&&&&&&&&vvvvv444444444444444555553333333333&&&rrr&&&&&&&&&&&&&&&&&&&&&&&&&&&",
"&&&&&&&&&&&&rrr&&&&&&&&&&&&&vvvvv444444444444444555553333333333&&&rrr&&&&&&&&&&&&&&&&&&&&&&&&&&&",
"&&&&&&&&&&&&rrr&&&&&&&&&&&&&vvvvv444444444444444555553333333333&&&rrr&&&&&&&&&&&&&&&&&&&&&&&&&&&",
"&&&&&&&&&&&&&&&&&&&&&&&&&&&&vvvvv444444444444444444443333333333rrr&&&&&&&&&&&&&&&&&&&&&&&&&&&&&&",
"&&&&&&&&&&&&&&&&&&&&&&&&&&&&vvvvv444444444444444444443333333333rrr&&&&&&&&&&&&&&&&&&&&&&&&&&&&&&",
"&&&&&&&&&&&&&&&&&&&&&&&&&&&&vvvvv444444444444444444443333333333rrr&&&&&&&&&&&&&&&&&&&&&&&&&&&&&&",
"&&&&&&&&&&&&&&&&&&&&&&&&&&&&vvvvv444444444444444444443333333333&&&&&&&&&&&&&&&&&&&&&&&&&&&&&&&&&",
"&&&&&&&&&&&&&&&&&&&&&&&&&&&&vvvvv444444444444444444443333333333&&&&&&&&&&&&&&&&&&&&&&&&&&&&&&&&&",
"&&&&&&&&&&&&&&&&&&&&&&&&&&&&&&&&&rrr&&11111&&&&&&&&&&&&&&&<<<<<&&&&&&&&&&&&&&&&&&&&&&&&&&&&&&&&&",
"&&&&&&&&&&&&&&&&&&&&&&&&&&&&&&&&&&&&&&11111&&&&&&&&&&&&&&&<<<<<&&&&&&&&&&&&&&&&&&&&&&&&&&&&&&&&&",
"&&&&&&&&&&&&&&&&&&&&&&&&&&&&&&&&&&&&&&11111&&&&&&&&&&&&&&&<<<<<&&&&&&&&&&&&&&&&&&&&&&&&&&&&&&&&&",
"&&&&&&&&&&&&&&&&&&&&&&&&&&&&&&&&&&&&&&11111&&&&&&&&&&&&&&&<<<<<&&&&&&&&&&&&&&&&&&&&&&&&&&&&&&&&&",
"&&&&&&&&&&&&&&&&&&&&&&&&&&&&&&&&&&&&&&11111&&&&&&&&&&&&&&&<<<<<&&&&&&&&&&&&&&&&&&&&&&&&&&&&&&&&&",
"&&&&&&&&&&&&&&&&&&&&&&&&&&&&&&&&&&&&&&&&&&&&&&&&&&&&&&&&&&&&&&&&&&&&&&&&&&&&&&&&&&&&&&&&&&&&&&&&",
"&&&&&&&&&&&&&&&&&&&&&&&&&&&&&&&&&&&&&&&&&&&&&&&&&&&&&&&&&&&&&&&&&&&&&&&&&&&&&&&&&&&&&&&&&&&&&&&&",
"&&&&&&&&&&&&&&&&&&&&&&&&&&&&&&&&&&&&&&&&&&&&&&&&&&&&&&&&&&&&&&&&&&&&&&&&&&&&&&&&&&&&&&&&&&&&&&&&",
"&&&&&&&&&&&&&&&&&&&&&&&&&&&&&&&&&&&&&&&&&&&&&&&&&&&&&&&&&&&&&&&&&&&&&&&&&&&&&&&&&&&&&&&&&&&&&&&&",
"&&&&&&&&&&&&&&&&&&&&&&&&&&&&&&&&&&&&&&&&&&&&&&&&&&&&&&&&&&&&&&&&&&&&&&&&&&&&&&&&&&&&&&&&&&&&&&&&"
};
