/* XPM */
static char *jump_9[] = {
/* columns rows colors chars-per-pixel */
"60 74 112 2 ",
"   c #4E4D5C",
".  c #575765",
"X  c #5C6D77",
"o  c #60616E",
"O  c #74626D",
"+  c #7D6772",
"@  c #6D7F74",
"#  c #74827E",
"$  c #82907B",
"%  c #A6B970",
"&  c #A5B97A",
"*  c #A4C362",
"=  c #ABC27B",
"-  c #B3C674",
";  c #BBCF72",
":  c #B9CC78",
">  c #BED275",
",  c #C0D470",
"<  c #C2D57B",
"1  c #677881",
"2  c #6E7A80",
"3  c #7E8C81",
"4  c #758188",
"5  c #7A878E",
"6  c #7B888F",
"7  c #728794",
"8  c #7F8A90",
"9  c #8E878F",
"0  c #91878F",
"q  c #848992",
"w  c #869196",
"e  c #85939B",
"r  c #8C959C",
"t  c #8F9D9D",
"y  c #AD8288",
"u  c #9AAE87",
"i  c #9EAC8A",
"p  c #AABD83",
"a  c #A0B38B",
"s  c #A2B397",
"d  c #8A98A0",
"f  c #939DA4",
"g  c #95A3AB",
"h  c #9CA6AC",
"j  c #98A7B0",
"k  c #9BAAB3",
"l  c #A0AAAF",
"z  c #ADBEAD",
"x  c #B2BFA5",
"c  c #A5AEB3",
"v  c #A3B0B6",
"b  c #A8B1B6",
"n  c #AABDB3",
"m  c #A5B4BA",
"M  c #ABBCBB",
"N  c #B1BBBF",
"B  c #DEB2B2",
"V  c #D9BABC",
"C  c #E6A3A3",
"Z  c #E2ABAB",
"A  c #E5B1B0",
"S  c #AFC286",
"D  c #AFC28C",
"F  c #AFC98A",
"G  c #B2C38B",
"H  c #B3C88D",
"J  c #B5CA9A",
"K  c #BCCD9D",
"L  c #AFC1A3",
"P  c #B1C1A6",
"I  c #AEC0B7",
"U  c #AFC2BE",
"Y  c #B3C5B9",
"T  c #C1D582",
"R  c #C2D981",
"E  c #C2D694",
"W  c #C2D799",
"Q  c #C3D99A",
"!  c #CBDD9C",
"~  c #C4D9A1",
"^  c #CADCA3",
"/  c #C5D9AC",
"(  c #C2D4BD",
")  c #CDE0A7",
"_  c #DCE3AB",
"`  c #D1E2B0",
"'  c #E8EEAA",
"]  c #A7B8C2",
"[  c #ADBCC4",
"{  c #B4BEC2",
"}  c #B3C3C9",
"|  c #BAC4CA",
" . c #BBCDD3",
".. c #C0CBCE",
"X. c #C4DAC3",
"o. c #C3D9C9",
"O. c #C3CFD1",
"+. c #C7D2D5",
"@. c #C6DBD1",
"#. c #C1D5D9",
"$. c #CAD6D8",
"%. c #C6DBDE",
"&. c #CCDADB",
"*. c #E1CACA",
"=. c #D1E4CD",
"-. c #D9EAD7",
";. c #DBECDF",
":. c #D3E3E3",
">. c #D8E6E7",
",. c #D9E7E8",
"<. c #DFEDED",
"1. c #E1EFE2",
/* pixels */
", , , , , , , , , , , , , , < , @.%.%.%.o., , , , , , , , , , , , < , , , , , =.%.%.%.%.> > , , , , , , , , , , , , , , ",
", , , , , , , , < , , , , , , , @.%.%.%.o., , , , , , , , , , , , , , < , , , ( %.%.%.@., , , , , , , , , , , , , , , , ",
", , , , , , , , , , , , * * * , @.%.%.%.o., , , , , , , , , , , , , , , , , , X.%.%.%.%., , , , , , , , , , , , , , , , ",
", , , , , , , , , , , , * * * , @.%.%.%.o., , , , , , , , , , , , , , , , , , X.%.%.%.@., , , , , , , , , , , , , , , , ",
", , , , , , , , , , > < H F F E @.%.%.%.+.E E E ! < , , , , , , , , < E E Q E X.%.%.%.%.E E K W R , , , , , , , , , , , ",
", , , < , , , , , * * J :.%.%.&.%.%.%.%.%.%.%.%.%.Q , , , , , , , , E %.&.&.%.%.%.%.%.%.%.%.%.%.) , , , , , , < , , , < ",
", , , , , , < , , * * J %.%.%.%.%.%.%.%.%.%.%.%.%.Q , , , , , , , , E %.%.%.%.%.%.%.%.%.%.%.%.%.) > , , , , , , , , , , ",
", , , , , , , , , * * J %.%.%.%.%.%.%.%.%.%.%.%.%.Q , , , , , , , , W %.%.%.%.%.%.%.%.%.%.%.%.%./ > , , , , , , , , , , ",
", , , , , , , , , * * J %.%.%.%.%.%.%.%.%.%.%.%.%.Q , , , , , , , , W %.%.%.%.%.%.@.%.%.%.%.%.%.) , , , , , , , , , , , ",
", , , , , , , , , * * J %.%.%.%.B B B B V %.%.%.%.! , , , , , , , , E %.%.%.%.V B B B B %.%.%.%.) , , , , , , , , , , , ",
", , , , , , , , , * * J %.%.%.%.Z C C C B %.%.%.%.Q , , , , , , , , E &.%.%.%.B C C C C %.%.%.%./ > , , , , , , , , , , ",
", , , , , , , , , , , ! %.%.%.%.C C C C Z %.%.%.%.W , , , , , , , , E %.%.%.%.B C C C Z %.%.%.%.) > , , , , , , , , , , ",
", , , , > , , , , , , K %.%.%.%.Z C C C B %.%.%.%.W , , < > , , , , E %.%.%.%.B C C C C %.%.%.%./ , , , > > > , , , , , ",
", , , < > > > > , , , ) %.%.%.%.C C C C Z %.%.%.%.! < , > < , < < < W %.%.%.%.B C C C Z %.%.%.%./ ; > , > ; > , < , , , ",
"> > Y U ] ] U , , , , ~ %.%.%.%.Z C C C B <.<.<.<.<.<.<.<.<.<.<.<.<.<.<.<.<.<.<.<.<.<.<.%.%.%.%.) , , , > I ] ] Y Y , , ",
"> ; L U ] ] I , , , , Q %.%.%.%.Z C C C A <.<.<.<.<.<.<.<.<.<.<.<.<.<.<.<.<.<.<.<.<.<.<.%.%.%.%./ , , , ; I ] ] } P , , ",
"> > I ] ] ] I > > > > ! %.%.%.%.B C C C A <.<.<.<.<.<.<.<.<.<.<.<.<.<.<.<.<.<.<.<.<.<.,.%.%.%.%./ ; > , > I I ] ] I , , ",
"> > P U ] ] I > > ; > Q %.%.%.%.Z C C C A ,.<.<.<.<.<.<.<.<.<.<.<.<.<.<.<.<.<.<.<.<.<.<.%.%.%.%.) > , , > I ] ] m I , > ",
", , F H J J J J J J K  .;.:.:.:.*.*.*.*.*.<.<.<.<.<.<.<.<.<.<.<.<.<.<.<.<.<.<.<.<.<.<.<.:.:.:.:.=.` ` ` ` K J F J H > > ",
", , , , > > > ] m } U  .<.<.<.<.<.<.,.<.<.<.<.<.<.<.<.<.<.<.1.<.<.<.<.<.<.<.<.<.<.<.<.<.<.<.<.<.<.<.<.1.<.< , , ; > > > ",
", , , , > , > M ] ] ]  .<.<.<.<.<.<.<.<.<.<.<.<.<.<.<.<.<.<.<.<.<.<.<.<.<.<.<.<.<.<.<.<.<.<.<.<.<.<.<.<.<.< > > , , , , ",
", , , > , , > ] ] ] ]  .<.<.<.<.<.<.<.<.<.<.<.<.<.<.<.<.<.<.<.<.<.<.<.<.<.<.<.<.<.<.<.<.<.<.<.<.<.<.<.<.<.R > > , , , , ",
", , ; , > > > ] ] ] ]  .<.<.<.<.<.<.<.<.<.<.<.<.<.<.<.<.<.<.<.<.<.<.<.<.<.<.<.<.<.<.<.<.<.<.<.<.<.<.<.<.<.R , > , , , , ",
"> , L n I I U  .#.#.#. .] } ] } ,.<.<.<.@.o o o o { <.<.<.<.<.<.<.<.<.<.<.<.<.<.<.<.<.>.o o o o g <.<.<.<.U I I L J , , ",
", , L M ] ] ] %.%.%.%. .] ] ] ] ,.<.<.<.O.        v 1.<.<.<.<.<.<.<.<.<.<.<.<.<.<.<.<.>.        e <.<.<.,.} ] ] ] I , , ",
", , z ] ] ] ] %.%.%. . .] ] ] ] ,.<.<.<.O.        v <.<.<.<.<.<.<.<.<.<.<.<.<.<.<.<.<.>.        t <.<.<.<.} ] ] m z > > ",
", , z ] m ] } %.%.%.%. .] ] ] ] ,.<.<.<.O.        b <.<.<.<.<.<.<.<.<.<.<.<.<.<.<.<.1.:.        e <.<.<.<.} M ] ] I ; ; ",
"> ; L n I n I  . .%. . .} } } } ,.<.<.<.O.        b <.<.<.<.<.<.<.<.:.O.O.O.O.,.<.<.<.:.        r <.<.<.<.I I I I L ; > ",
", , , , , , > ] ] ] ]  .<.<.<.<.<.<.<.<.+.        b <.<.<.<.<.<.<.<.N         | <.<.<.:.        r <.<.<.<.R , , , , , , ",
", , , , , , > ] ] ] } #.<.<.<.<.<.<.<.<.O.        b <.<.<.<.<.<.<.<.N         | <.<.<.:.        r <.<.<.<.< , , , , , > ",
", , , , , , , M ] ] ]  .<.<.<.<.<.<.<.<.O.        b <.<.<.<.<.<.<.<.N         | <.<.<.:.        r <.<.<.<.< , , , , , , ",
", , , > ; , > M ] ] ]  .<.<.<.<.<.<.<.<.O.        b <.<.<.<.<.<.<.<.[         | <.<.<.-.        r <.<.<.1., , , , , , , ",
", , , , , , >  . . . . . . . . .,.<.<.<.>.b b b b $.<.<.<.<.q q q q 0 y y y y 9 q q q w b b b b O.<.<.<.<.R , , , , , , ",
"> , , , , , > %.%.%.#. .] ] ] ] ,.<.<.<.<.<.<.<.<.<.<.<.<.<.        + C C C C O       . <.<.<.<.<.<.<.<.<.R , , , , , , ",
", , , , , , > %.%.%.%. .m ] ] ] ,.<.<.<.<.<.<.<.<.<.<.<.<.<.        + C C C C O       . <.<.<.<.<.<.<.<.<.< > ; , , > , ",
", , , > , , > %.%.%.%. .] ] ] ] ,.<.<.<.<.<.<.<.<.<.<.<.<.<.        + C C C C O       . <.<.<.<.<.<.<.<.<.< , > , , , , ",
", , , > , , , %.%.%.%. .[ [ ] ] ,.<.<.<.<.<.<.<.<.<.<.<.<.<.        + C C C C O       . <.<.<.<.<.<.<.<.<.T : > > > , , ",
", , , , , , > 7 7 7 7 7 7 7 7 7 :.<.<.<.<.<.<.<.<.<.<.<.<.<.<.<.<.<.<.<.<.<.<.<.<.<.<.<.<.<.<.<.<.<.<.<.<.2 X X X # , , ",
", , , , , , - 7 7 7 7 7 7 7 7 7 :.<.<.<.<.<.<.<.<.<.<.<.<.<.<.<.<.<.<.<.<.<.<.<.<.<.<.<.<.<.<.<.<.<.<.<.<.2 1 X X # > , ",
", , , , ; ; > 7 7 7 7 7 7 7 7 7 :.<.<.<.<.<.<.<.<.<.<.<.<.<.<.<.<.<.<.<.<.<.<.<.<.<.<.<.<.<.<.<.<.<.<.<.<.2 X X X # , , ",
"> , > , , , ; 3 7 7 7 7 7 7 7 7 &.<.<.<.<.<.<.<.<.<.<.<.<.<.<.<.<.<.<.<.<.<.<.<.<.<.<.<.<.<.<.<.<.<.<.<.<.1 X X X # , , ",
", , , ' ' ' ; 7 7 7 7 7 7 7 7 7 :.<.<.<.<.<.<.<.<.<.<.<.<.<.<.<.<.<.<.<.<.<.<.<.<.<.<.<.1.<.<.<.&.} } } } @ X X . # , , ",
", , , ' ' ' ; 7 7 7 7 7 7 7 7 7 :.<.<.<.<.<.<.<.<.<.<.<.<.<.<.<.<.<.<.1.<.<.<.<.<.<.<.<.<.<.<.<.M X X X X X X X X # * , ",
", , , ' ' ' ; 7 7 7 7 7 7 7 7 7 &.<.<.<.<.<.<.<.<.<.<.<.<.<.<.<.<.<.<.<.<.<.<.<.<.<.<.<.<.<.<.<.m X X X X X X X X # , , ",
"' ' ' , > > ; 3 7 7 7 7 7 7 7 7 :.<.<.<.<.<.<.<.<.<.<.<.<.<.<.<.<.<.<.<.<.<.<.<.<.<.<.<.<.<.<.<.m X X X X X X X . # , , ",
"' ' ' , ; > ; 7 7 7 7 7 7 7 7 7 &.<.<.<.<.<.<.<.<.<.<.<.<.<.<.1.<.<.<.<.<.<.<.<.<.<.<.<.<.<.<.<.m X X X X X X X # # , , ",
"' ' ' , , , ; = & = = u e e d e k k k v b { { { { { { { { { { { { { { { { { { { { { { { k c k k s * % % * = * * * * , , ",
"' ' ' , , , > , , , , a d d d d d d d d f c c c c b c c c c b c v c b c c b c c b c b c d d d r a > > > , > > , , * , , ",
"' ' ' , , , , , , , > S e d d d d d d d d ] c c b c b c c c b c c c c c c c c c c b v v d d d d a , , , , , , , , , , , ",
"' ' ' , , , , , , , ; = e d d d d d d d f k b b c c c c c c c c b c b c c c c c c c c v e d d d a , , , , , , , , , , , ",
"' ' ' , , , , , , , , = d d d d d d d d f ] k b c c c k c l b c c c l l c c c l l l k l d d d d a , , , , , , , , , , , ",
"' ' ' , , , , , , , , = k k k k k k k k g 2 q 2 2 q 2 q 5 q c c c c f 2 2 2 2 2 2 @ 2 2 d d d d a , , , , ; , , , , , , ",
"' ' ' , ; , , , , , > D k k k k k k k k j 8 8 e q q 6 6 6 6 c c b c f 2 2 2 2 2 2 2 2 2 d e d d a , , , , , , , , , , , ",
", > , , , , , , , , ; S k k k k k k k k j e 2 2 q 7 6 6 6 6 c c c c f 2 2 2 @ 2 2 2 2 2 d d d d a , , , , , , , , , , , ",
", , , , , , , , , , > F k k k k k k k k g 2 2 q 6 7 6 6 6 6 c c b b f 2 2 2 2 2 2 2 2 2 d d d d a ; , , , , , , , , , , ",
", , , , , , , , , , > F k k k k k k k k k f r r d f f h f h d d r r r w w w w 6 5 6 6 q d d d d a , , , , , , , , , ; , ",
", , ; , , , , , , > , S k k k k k k k k k k k k k [ | | { ..2 2 @ 2 6 c c c c f e d d d d d d d p ' ' , , , , , , , ; , ",
", , , , , , , , , , , S k k k k j k k k k k k k k [ | | ..{ 2 2 2 2 q c c c c f d d d d d d d d P ' ' , , , , , , , , , ",
", , , , , , , , , , , S k k k k k k k k k k k k k [ | | { ..2 2 2 2 q c c v c f d d d d d d d e x ' ' , , , , , , , , , ",
", , , , , , , , , , , F k k k k k k k k k k k j h {  .{  .{ 2 2 2 2 q c c c c f d d d d d d d d a , , , , , , , , , , , ",
", , , , , , , , , , , ^ :.>.:.>.k k k k k k k k h k ] k l k l l l l f d f d d d d d d r ; _ _ _ ; , , , , , , , , , , , ",
", , , , ; , , , , , , ) <.<.<.<.] k k k k k j k k k k k k k c c b b l d d d d d d d d t ; ' ' ' , , , , , , , , , , , , ",
", , , , , , , , , , , ) <.<.<.<.k k k k k k k k k k k k k k c c c c j d d d d d t d r t , , , , , , , , , , , , , , , , ",
", , , , , , , , , > , ^ <.<.<.<.] k k k k k k k k k k k k l c b c c j d d d d d d r r t , , , , , , , , , , , , , , , , ",
", , , , , , , , , , , R =.-.-.;.N m ] m v g g g g k k k k k k v c c h d d d d e e e e e , , , , , , , , , , , , , , , , ",
"; , , , , , , , , , , , , , , , ;.1.<.1.&.6 6 6 6 d k k k k k k k k g d d d d 4 2 2 2 # , , , , , , , , , , , , , , , , ",
", , , , , , , , , , , , , , , , <.<.<.<.&.6 6 6 6 f k k k k k k k k g d d d d 4 2 2 @ 2 , , , , , , , , , , , , , , , , ",
", , , , , , , , , , , , , , , , ;.<.<.<.&.6 6 6 6 f k k k k k k k k g d d d d 2 2 2 @ 4 , , , , , , , , , , , , , , , , ",
", , , , ; , , , , , , , , , , , ;.<.<.<.&.5 6 6 6 d k k k k k k k k g t r t r 4 2 2 2 2 , , , , , , , , , , , , ; , , , ",
", , , , , , , , , , , , , , , , ! ! ! ! W 5 6 6 6 i G G p G G G G G S p p p p # 2 2 @ # , , , , , , , , , , , , , , , , ",
", , , , , , , , , , , , , , , , , , , , - 6 6 6 6 & , , , , < , , , , , , , , $ 2 2 2 # , , , , , , , , , , ; , , , , , ",
", , , , , , , , , , , , , , , , > , , , - 5 6 6 6 & , , , , , , , , , , , , , $ 2 2 2 4 , , , , , , , , , , , , , , , , ",
", , , , , , , , , , , , , , , , , , , , - 6 6 6 6 & , , , , , , , , , , , , , $ 2 2 @ 4 , , , , , , , ; , , , , , , , , ",
", , , , , , , , , , , , , , , , , , , , - 6 6 6 6 & , , , , , , , < , , , , , $ 2 2 2 @ , , , , , , , , , , , , , , , , "
};
