/* XPM */
static char *jump_5[] = {
/* columns rows colors chars-per-pixel */
"60 74 167 2 ",
"   c #4E4D5C",
".  c #555563",
"X  c #5C6D77",
"o  c #60616E",
"O  c #74626D",
"+  c #656673",
"@  c #696B77",
"#  c #6B6C79",
"$  c #796973",
"%  c #6C7E75",
"&  c #61727C",
"*  c #6C7D7B",
"=  c #798A74",
"-  c #74827E",
";  c #7E8B7C",
":  c #859875",
">  c #869779",
",  c #8A9A7E",
"<  c #90A273",
"1  c #9FB076",
"2  c #9EB17E",
"3  c #A9B677",
"4  c #A5B970",
"5  c #ADBF73",
"6  c #A5B57A",
"7  c #A4C263",
"8  c #A7C56A",
"9  c #BED26F",
"0  c #A7C671",
"q  c #ABC37A",
"w  c #B3C775",
"e  c #BACD73",
"r  c #BBCE7F",
"t  c #BED273",
"y  c #BFD47B",
"u  c #C0D470",
"i  c #C2D57D",
"p  c #C4D87B",
"a  c #6E7A80",
"s  c #727E85",
"d  c #7B7F89",
"f  c #A17C83",
"g  c #758187",
"h  c #778288",
"j  c #7A838B",
"k  c #7B888F",
"l  c #7B918F",
"z  c #728794",
"x  c #768A97",
"c  c #7C8B92",
"v  c #9E8087",
"b  c #8F9C81",
"n  c #82918B",
"m  c #828E94",
"M  c #898E97",
"N  c #938D96",
"B  c #869496",
"V  c #889791",
"C  c #859299",
"Z  c #8D949C",
"A  c #8DA088",
"S  c #93A684",
"D  c #97A98E",
"F  c #9EAD8E",
"G  c #9FB18B",
"H  c #9BAC90",
"J  c #95A799",
"K  c #A9BA82",
"L  c #A9BB96",
"P  c #A3B399",
"I  c #ABB79B",
"U  c #A9B99C",
"Y  c #B1BE90",
"T  c #8B98A0",
"R  c #919CA3",
"E  c #99A1A7",
"W  c #95A5AE",
"Q  c #9BA5AB",
"!  c #9EAAAD",
"~  c #9BAAB3",
"^  c #A0AAAF",
"/  c #A5AEB3",
"(  c #ABABB0",
")  c #A3B1B6",
"_  c #AAB6BC",
"`  c #AEB8BD",
"'  c #B1BBBF",
"]  c #C99295",
"[  c #CA9799",
"{  c #DC9D9E",
"}  c #DCA1A2",
"|  c #DBB7B7",
" . c #DBBABD",
".. c #E6A3A3",
"X. c #E2ABAB",
"o. c #B7CB87",
"O. c #BCCC81",
"+. c #B7CB8E",
"@. c #B9CB89",
"#. c #B6C796",
"$. c #B2C69C",
"%. c #B7C899",
"&. c #BFD494",
"*. c #ADC1A8",
"=. c #B1C3A2",
"-. c #B9D1AD",
";. c #B4C9B8",
":. c #BBCDBC",
">. c #BAD0B2",
",. c #C4D783",
"<. c #C1D68C",
"1. c #C5D98B",
"2. c #C2D692",
"3. c #C8DC94",
"4. c #C7D69B",
"5. c #CBDDA7",
"6. c #C3D6B5",
"7. c #C8D1B7",
"8. c #C3D8B3",
"9. c #C3D9BB",
"0. c #D4E4BE",
"q. c #E8EEAA",
"w. c #A7B8C2",
"e. c #ABBBC4",
"r. c #B2BCC3",
"t. c #AFC0C9",
"y. c #B6C1C4",
"u. c #B3C3CA",
"i. c #BAC4C9",
"p. c #B6C9CE",
"a. c #B9C9CF",
"s. c #B7CBD0",
"d. c #BCCED3",
"f. c #C1CACE",
"g. c #CECDCE",
"h. c #D4C1C3",
"j. c #DDC7C7",
"k. c #C6D9C4",
"l. c #CCDDC7",
"z. c #C7D3C8",
"x. c #C5DBCB",
"c. c #CDDDCC",
"v. c #C4D2D5",
"b. c #C6DAD5",
"n. c #C8DDD4",
"m. c #C5D4D9",
"M. c #C9D6DA",
"N. c #C6DBDE",
"B. c #CBDADD",
"V. c #D1DAD8",
"C. c #E1C9C9",
"Z. c #D4E5CA",
"A. c #D7E8CF",
"S. c #CCE1D4",
"D. c #CFE2DE",
"F. c #D9EAD7",
"G. c #DBE7DE",
"H. c #DCEADA",
"J. c #CCDFE1",
"K. c #D1DFE2",
"L. c #CEE0E2",
"P. c #D5E3E4",
"I. c #DAE6E6",
"U. c #D7E8E2",
"Y. c #DCEAE4",
"T. c #D7E7E9",
"R. c #DFEDED",
/* pixels */
"u u u u u u u u u p u u p u u u u y 6.N.N.N.N.N.N.x.<.u u u u u u 1.x.N.N.N.N.N.N.:.y u u p u u u u u u u u u u u u u u ",
"u u u u u u u u u u u u u u u u u y 9.N.N.N.N.B.N.x.<.u u u u u u 1.x.N.B.N.N.N.L.9.y u 9 9 u u u u u p u u u u u u u u ",
"u u u u u u u u u u u u 7 7 7 u u y 9.N.N.N.N.N.N.x.<.u u u u u u 1.k.N.J.N.N.N.J.:.i 9 u 9 9 u u u u u u u u u u u u u ",
"u u u u u u u u u u u u 7 7 e 1.1.2.7.g.g.g.B.L.L.D.5.3.3.3.3.3.3.5.S.D.J.J.J.J.D.l.2.&.1.1.u u u u u u u u u p u u u u ",
"u u u u u u u u u u u 9 7 7 >.l.z.f. .X.X...I.I.T.Y.Y.H.F.H.F.F.F.G.I.T.T.T.R.T.T.U.c.x.x.9.u u u u u u u u u u u p u u ",
"u u u u u u u u u 7 7 7 u u k.D.J.m.| ......I.R.R.R.R.R.R.R.R.R.R.R.R.R.R.R.R.R.R.T.J.N.N.x.u u u u u u u u u u u u u u ",
"u u u p u u u u u 7 7 7 9 9 k.N.J.v.| ......I.R.R.R.R.R.R.R.R.R.R.R.R.R.R.R.R.R.R.T.N.N.N.x.u u u p u u u u u u u u u u ",
"u u u u u u u p u 7 8 0 p y d.D.J.V. .X.X...V.B.B.B.I.R.R.R.R.R.R.R.R.R.R.R.R.R.R.P.d.a.s.:.i i p p u u u u u u u u u u ",
"u u u u u u u u u 7 >.D.N.N.T.R.R.R.R.R.R.R.o     + f.R.R.R.R.R.R.R.R.R.R.R.R.R.R.' . .   @ R.R.R.0.u u u u u u u u p u ",
"u u u u u u u u u 7 >.d.N.N.T.R.R.R.R.R.R.R.o     o i.R.R.R.R.R.R.R.R.R.R.R.R.R.R.' +     @ R.R.R.0.p u u u u u u u u u ",
"u u u u u u u u u 7 -.D.N.N.T.R.R.R.R.R.R.R.o     + i.R.R.R.R.R.R.R.R.R.R.R.R.R.R.` . .   @ R.R.R.0.u u u u u u u u u u ",
"u u u u u u u u u t 8.D.L.L.d.D.M.J.K.R.R.R.o     + f.R.R.R.R.R.R.R.R.R.R.R.R.R.R.r.+     @ R.R.R.0.p u u u p u u u u u ",
"u u u u u u p u t t 8.N.d.N.t.t.e.r.J.R.R.R.o     + i.R.R.R.R.R.R.R.R.R.R.R.R.R.R.` +     + R.R.R.0.u u u u u u u u u u ",
"u u u u u u u u 9 t 8.N.L.N.t.w.w.e.J.R.R.R.o     + i.R.R.R.R.R.R.R.R.R.R.R.R.R.R.' o     @ R.R.R.0.p u u u u u u u u u ",
"u p u u u u u u u y 8.N.N.N.t.w.w.e.J.I.R.R.o     + i.R.R.R.R.R.R.R.I.I.R.R.R.R.R.r.o     # R.R.R.0.p u u u u u u u u u ",
"u u u u u u O.o.o.+.:.d.s.d.s.s.i.d.K.R.R.R.M n j N v.R.R.R.R.R.R.K.i.' ' ' R.R.R.f.M d d Z R.R.R.Z.+.@.O.p u u u u u u ",
"u u u u u u $.t.w.w.w.w.w.w.L.R.R.R.R.R.R.R.R.R.R.R.R.R.R.R.R.R.R.i.#     . R.R.R.R.R.R.R.R.R.R.R.B.e._ e.U i u u u u u ",
"u u u u u u $.w.w.w.w.w.w.w.L.R.R.R.R.R.R.R.R.R.R.R.R.R.R.R.R.R.R.i.@     . R.R.R.R.R.R.R.R.R.R.R.B.e.w.e.*.u u u u u u ",
"u u u u u u =.w.t.w.w.w.w.w.L.R.R.R.R.R.R.R.R.R.R.R.R.R.R.R.R.R.R.i.#     . R.R.R.R.R.R.R.R.R.R.R.B.e.w.w.U u u u u u u ",
"u u u u u u o.%.+.$.;.s.s.s.d.d.d.d.T.R.R.R.R.R.R.R.R.R.R.R.Z Z Z N v f f f Z Z N _ I.R.R.R.R.R.R.c.%.#.#.o.u u u u u u ",
"u u u u u u u u 9 9 8.N.N.L.t.w.e.e.N.R.R.R.R.R.R.R.R.R.R.R.      O ] ....{       d B.R.R.R.R.R.R.0.i u u u u u u u u u ",
"u u u u u u u u 9 9 8.L.N.d.t._ e.e.N.R.R.R.R.R.R.R.R.R.R.R.      O ] ....{       j V.R.R.R.R.R.R.0.u u u u u u u u u u ",
"u u u u u 9 t y y t 9.d.N.N.p.t.e.e.D.R.R.R.R.R.R.R.R.R.R.R.. . . $ [ ..X.}   .   f B.R.R.R.R.R.R.Z.i t u e u u u u u u ",
"u u u u u 9 o.$.$.=.;.p.p.p.d.d.m.M.T.R.R.R.R.R.R.R.R.R.R.R.Q Q E ( h.C.j.j.W W W ` I.R.R.R.R.R.R.c.$.$.$.+.u u u u u u ",
"u u 9 u u u =._ w.w.w.w.w.w.L.R.R.R.R.R.R.R.R.R.R.R.R.R.R.R.R.R.R.R.R.R.R.R.R.R.R.R.R.R.R.R.R.R.R.B.e.w.w.*.u u t u u u ",
"u u u u u t =.t.w.w.w.w.w.w.L.R.R.R.R.R.R.R.R.R.R.R.R.R.R.R.R.R.R.R.R.R.R.R.R.R.R.R.R.R.R.R.R.R.R.M.e.w.w.*.9 u u u u u ",
"u u u u 9 9 *.;.w.w.w._ t._ L.R.R.R.R.R.R.R.R.R.R.R.R.R.R.R.R.R.R.R.R.R.R.R.R.R.R.R.R.R.R.R.R.R.R.B.e.w.w.*.u u u u u u ",
"u u u u 9 9 r o.o.o.o.o.o.o.x.L.L.L.T.R.R.R.R.R.R.R.R.R.R.R.R.R.R.R.R.R.R.R.R.R.R.R.R.R.R.H.3.3.3.<.@.o.@.y u u u u u u ",
"u u u u u u u u t u u u u u k.N.N.N.T.R.R.R.R.R.R.R.R.R.R.R.R.R.R.R.R.R.R.R.R.R.R.R.R.R.R.F.u u u u u u u u u u u u u u ",
"u u u u u u u u u u u u u u k.N.N.J.T.R.R.R.R.R.R.R.R.R.R.R.R.R.R.R.R.R.R.R.R.R.R.R.R.R.R.F.u t u u u u u u u u u u u u ",
"u u u u u u u 9 u u u u u u 9.n.b.S.D.P.U.P.T.I.R.Y.I.I.T.I.T.I.I.I.I.I.I.I.R.I.I.Y.Y.Y.Y.Z.u u u u u u u u u u u u u u ",
"u u u u u u u u 9 u u u u u ,.&.&.&.*.) ) ) r.y.y.y.y.y.y.y.y.y.y.i.y.y.y.y.y.y.' 7.4.3.3.1.u u u u u u u u u u u 9 u u ",
"u u u u u u u u u u u u u u u 9 y e F T T T / / / / / / / / / / / / / / / / / / / U i u u u u u u u u u u u u u u u u u ",
"u u u u u u u u u u u u u u u u 9 t F T T Z ! / / / / / / _ / / / / / / / / / / / U e u u u u u u u u u u u u u u u u u ",
"u u u u u u u u u u u u u u u u 9 t F T T T ! / / ^ / ^ / ^ / / / / ^ ^ ^ ^ / ^ ^ I e u u u u u u u u u u u u u u u u u ",
"u 9 u u u u u u 9 u u u u u u u t t P W W W C M B m m m m M / / / ! m h j h j j h b e u u u u u u u u u u u u u u u u u ",
"u u u u u u u u u u u u u u u u 9 t U ~ ~ ~ c k k k k k j c / / / E d * * a a a a > w t u u u u u u u u u u u u u u u u ",
"u u u u 9 u u u u u u u u u u u t t U ~ ~ ~ c k k k k k c j / / / R h s s * a a * > e u u u u 9 u u u u u u u u u 9 u u ",
"u u u u u u u u u u u u u u u u t t U ~ ~ ~ C m m m C C C C Q Q Q R c h h d s s g , t u u u u u u u u u u u u u u u u u ",
"u u u u u u u u u u u u u u u u t t P ~ ~ ~ W W W Q _ r.r.e.g d h m E Q Q Q C C C D e u u u u u u u u u u u u u u u u u ",
"u u u u u u u u u u u u u u 9 u 9 t U ~ ~ ~ ~ ~ ~ ~ y.i.i.i.a a s j Q / / / T T T H w u 9 9 9 u u u 9 u u u u u u u u u ",
"u u u q.q.q.u u u u u u u u t t 9 t U ~ ~ ~ ~ ~ ~ ) r.a.i.i.a a * j Q / / / T T T D e u 9 9 9 t u u u u u u u u u u u u ",
"u u u q.q.q.u u u u u u u u 0 q q q J W W W ~ ~ ~ ~ ` r.r.r.k j k M E ^ ~ Q T Z Z J 6 4 4 8 u 9 u u u u u u u u u u u u ",
"u u u q.q.q.u 9 u u u u u u S l l c x x z x W ~ ~ ~ ~ ~ ~ ~ ^ ^ Q Q R T T T T T T c * % = = u 9 u u u u u u u u u u u u ",
"q.q.q.u u u u u u u u u 9 9 l z z z z z z z W ~ ~ ~ ~ ~ ~ ~ / ^ / ~ T T T T T T T x & X X - 9 9 u u u u u u 9 u u u u u ",
"q.q.q.u u u u u u u u u 9 9 A z z z z z z z W ~ ~ ~ ~ ~ ~ / / ) / / R T T T T T Z c & X X - 9 9 u u u u u u u u u u u u ",
"q.q.q.u u u u u u u u u u u A z z z z z z z W ~ ~ ~ ~ ~ ~ ~ ~ ) / Q T T T T T T Z c & X X % 9 9 u u u u u u u u u u 9 u ",
"q.q.q.u u u u u t u u u u u l z z z z z z z W ~ ~ ~ ~ ~ ~ ~ ~ ~ ~ W T T T T T T T x & X X % 9 9 u u u u u u u u u u u u ",
"q.q.q.u u u u u u u u u u u A z z z z z z z W ~ ~ ~ ~ ~ ~ ~ ~ ~ ~ W T T T T T T Z c & X X % u u 9 u u u u u u u u u 9 u ",
"q.q.q.u u u u u u u u u u u l z z z z z z z W ~ ~ ~ ~ ~ ~ ~ ~ ~ ~ W R T T T T T T c & X X = u u u u u u u u u u u u u u ",
"q.q.q.u u u u u u u u u 9 9 1 2 S S S S S S W ~ ~ ~ ~ ~ ~ ~ ~ ~ ~ W T T T C T Z T V : : = < u u u u u u u u u u u u u u ",
"q.q.q.u u u u u u 9 u u 9 9 9 9 e 9 t t e t ! ! ~ ~ ~ ~ ~ ~ ~ ~ ~ W T T T T T T T H 8 e 9 9 u u u u u u u 9 u u u u u u ",
"q.q.q.u 9 u u u u u u u 9 u u u u u u u u u ^ ~ ~ ~ ~ ~ ~ ~ ~ ~ ~ W R T Z T T T T H w u u u u u u u u u u u u u u u u u ",
"u u u u u u u u u 9 u u q.q.q.u u u u u u u ! ~ ~ ~ ~ ~ ~ ~ ~ W ~ W T T T T T T T H e u u u u u u u u u u u u u u u u u ",
"u u u u u u u u u u u u q.q.q.u u u u u u u J T T W ` u.u.i.L $.L P C c c m G G G K t t u u u u u u u u u u u u u u u u ",
"u u u u u u u u u u u u q.q.q.u u u u u u u n k x B b.R.R.R.t 9 9 q ; g * - u u u u u u u 9 u u u u u 9 u u u u u u u u ",
"u u u u u u u u u u u u u u u q.q.q.u u u u n c c Z M.R.R.R.u u 9 0 ; a a s u u u u q.q.q.u u u q.q.q.u u u u u u u u u ",
"u u u u u u u u u u u u u u u q.q.q.u u u u n j k Z v.R.R.R.u u u 5 ; * a * u u u u q.q.q.u u u q.q.q.u 9 u u u u u u u ",
"u u u u u u u u u u u u u u u q.q.q.u u u u 3 6 6 Y Z.R.R.R.u u u e 3 1 1 3 u u u u q.q.q.u u u q.q.q.u u u u u u u 9 u ",
"u u u u u u u u u u u u u u u q.q.q.u u u u u 9 9 ,.A.R.R.R.u u u t u 9 9 u u u u u u u u q.q.q.u u u u u u u u u u u u ",
"u u 9 u u u u u u u u u u 9 u q.q.q.u u u u u u t ,.A.R.R.R.u u u u u u u u u u u u u u u q.q.q.u u u u u u u u u u u u ",
"u u u u u u u 9 u u u u u u u q.q.q.u u u u u u u ,.A.R.R.R.u u u u u u u u u u u u u 9 u q.q.q.u u u u u u u u u u u u ",
"u u u u u u u u u u u u u u u q.q.q.u u u u u u u ,.A.R.R.R.u u u u u u u u u u u u u u u u u u 9 u u u u u u 9 u u u u ",
"u u u u u u u u u u u u u u u q.q.q.u u u u u u u ,.A.R.R.I.u u u u u u u u u u u u u u u u u u u u u u u u u u u u u u ",
"u u u u u u u u u u u 9 u u u q.q.q.u u u u u 9 u p A.R.R.R.u u u u u u u u u u u u u u u u u u u u u u u u u u u u u u ",
"u u u u u u u u u u u u u u u u u u u u u u u u u p A.R.R.R.u u u u u u u u u u u u u u u u u u u u u u u u u u u u u u ",
"u u u u u u u u u u u u u u u u u u u u u u u u u ,.A.R.R.R.u u u u u u u u u u u u u u u u u u u u u u u u u u u u u u ",
"u u u u u u 9 u u u u u u u u u u u u u u u u u u ,.A.R.R.R.u u u u u u u u 9 u u u u u u u u u u 9 u u u u u u u u u u ",
"u u u u u u u u u u u u u u u u u u u u u u u u u ,.A.R.R.R.u u u u u u u u u u u u u 9 u u u u u u u u u u u u u u u u ",
"u u u u u u u u u u u u u 9 u u u u u u u u u u u 1.A.R.R.R.u u u u u u u u u u u u u u u u u u u u u u u u u u u u u u ",
"u u u u u u u u u u u u u u u u u u 9 u u u u u u ,.A.R.R.R.u u u u u u u u u u u u u u u u u u u u u u u u u u u u u u ",
"u u u u u u u u u u u u u u u u u u u u u u u u u ,.A.R.R.R.u u u u u u u u u u u u u u u u u u u u u u u 9 u u u u u u ",
"u u u u u u u u u u u u u u u u u u u u u u u u u ,.A.R.R.R.u u u u u u u u u u u u u u u u u u u u u u u u u u u 9 u u ",
"9 u u u u u u u u u u u u u u u u u u u u u u u u ,.A.R.R.R.u u u u u u u u u u u u u u u u u u u u u u u u u u u u u u "
};
