/* XPM */
static char *jump_6[] = {
/* columns rows colors chars-per-pixel */
"60 74 175 2 ",
"   c #4E4D5C",
".  c #575765",
"X  c #5A5B68",
"o  c #615764",
"O  c #5C6D77",
"+  c #676975",
"@  c #706A75",
"#  c #657675",
"$  c #6F727C",
"%  c #876D76",
"&  c #8C727A",
"*  c #708175",
"=  c #7E8F73",
"-  c #889977",
";  c #92A574",
":  c #91A079",
">  c #97AA7E",
",  c #A0AF7E",
"<  c #A5B775",
"1  c #AABD79",
"2  c #B0BF7F",
"3  c #A5C363",
"4  c #A6C56A",
"5  c #BCCF6F",
"6  c #BED16F",
"7  c #ABC577",
"8  c #B6C971",
"9  c #BBCE71",
"0  c #BED273",
"q  c #BFD47A",
"w  c #C0D470",
"e  c #C2D67C",
"r  c #C2D97A",
"t  c #6E7A80",
"y  c #747C84",
"u  c #758086",
"i  c #75858D",
"p  c #7A848B",
"a  c #7B888F",
"s  c #7E928D",
"d  c #728794",
"f  c #758B90",
"g  c #7D8A91",
"h  c #94828A",
"j  c #81968E",
"k  c #838E95",
"l  c #849199",
"z  c #86979A",
"x  c #8A959D",
"c  c #95979D",
"v  c #B98A8E",
"b  c #91A486",
"n  c #9BAE82",
"m  c #8EA19D",
"M  c #91A09C",
"N  c #9EAE98",
"B  c #A8BA86",
"V  c #A1B38B",
"C  c #A4AC92",
"Z  c #A9B994",
"A  c #ABBD95",
"S  c #8396A1",
"D  c #8A98A0",
"F  c #939EA5",
"G  c #95A0A6",
"H  c #98A2A7",
"J  c #96A4AC",
"K  c #9BA5AC",
"L  c #9FA8AD",
"P  c #98A7B0",
"I  c #9BAAB3",
"U  c #A0A9AE",
"Y  c #A2B1A6",
"T  c #A1B1AD",
"R  c #A5AEB3",
"E  c #A2AFB8",
"W  c #A3B0B6",
"Q  c #A8B1B6",
"!  c #AABCB2",
"~  c #A7B4B9",
"^  c #ABB6BB",
"/  c #AABCBE",
"(  c #B0BABE",
")  c #C19B9F",
"_  c #D19799",
"`  c #DB9C9E",
"'  c #DCABAC",
"]  c #DCB4B4",
"[  c #DBB9B9",
"{  c #E6A3A3",
"}  c #E4AFAF",
"|  c #E2BCBC",
" . c #AFC18E",
".. c #B4C783",
"X. c #B7CB8A",
"o. c #B5C892",
"O. c #B1C69B",
"+. c #B5CA9E",
"@. c #B8CB9D",
"#. c #BCD29A",
"$. c #AEC3A6",
"%. c #B1C3A3",
"&. c #BBD1A6",
"*. c #B3C3BF",
"=. c #B8CABD",
"-. c #BCD4BC",
";. c #C3D583",
":. c #C3D884",
">. c #C8DA84",
",. c #C7D98C",
"<. c #C3D691",
"1. c #C4D797",
"2. c #CADB95",
"3. c #C1DA98",
"4. c #CBDD9C",
"5. c #C4D5A1",
"6. c #C4D9A0",
"7. c #C2D6AE",
"8. c #C5D8AB",
"9. c #D6DFAF",
"0. c #CCCFBB",
"q. c #D6C0B9",
"w. c #C7D7B6",
"e. c #C5D9BB",
"r. c #CFE3AB",
"t. c #D3E3B9",
"y. c #E2E8A7",
"u. c #E1EAAA",
"i. c #E8EEAA",
"p. c #E5EEBE",
"a. c #A7B8C2",
"s. c #AABCC4",
"d. c #AEBFC8",
"f. c #B2BCC1",
"g. c #B5C0C6",
"h. c #B5C4CB",
"j. c #BAC4CA",
"k. c #B7C8CE",
"l. c #BACDD2",
"z. c #BFD0D5",
"x. c #C0CBCE",
"c. c #CECACD",
"v. c #D0C8CA",
"b. c #C8D6C1",
"n. c #C4DAC2",
"m. c #C6DBCA",
"M. c #C2D2D5",
"N. c #CAD3D5",
"B. c #C7D6DA",
"V. c #C9D6D9",
"C. c #C6DBDE",
"Z. c #CDDADC",
"A. c #D1DEDD",
"S. c #E0D4D5",
"D. c #E1DCDC",
"F. c #CDE0CE",
"G. c #D5E4C3",
"H. c #D9E4C4",
"J. c #D6E6C9",
"K. c #D6EACC",
"L. c #CEE0D7",
"P. c #D2E3D4",
"I. c #D9E7D0",
"U. c #D6E8D0",
"Y. c #DAE9D7",
"T. c #D5E6DD",
"R. c #DBEADB",
"E. c #CEDDE0",
"W. c #D2DEE0",
"Q. c #CFE1E3",
"!. c #D4E3E4",
"~. c #DBE6E6",
"^. c #DCECE2",
"/. c #DFEDED",
"(. c #E0EEE7",
/* pixels */
"w w w w w w w w w w w w w r w w <.C.C.C.e.q w w w w w w w w w w r w w w e w.C.C.C.3.w w w w w w w w w w w w w w w w w w ",
"w w w w w w w w w w w w w w w w <.C.C.C.e.e w w w w w w w w w w w w w w e w.C.C.C.3.w w w w w w w w w w w w w w w w w w ",
"w w w w w w w w r w w w 3 3 3 w <.C.C.C.e.e w w w w w w w w w w w w w w 0 w.C.C.C.3.w w w w w w w w w w w w w w w r w w ",
"w w w w w w w w w w w w 4 8 9 r 1.N.N.N.w.;.e ;.r w r w w w w w w r >.r :.w.N.N.N.6.r X.:.r w w w w w w w w w w w w w w ",
"w r w w w w w r w w 0 0 o.-.-.l.0.] ] ' [ b.e.k.7.e w w w w w w r 6.e.l.b.q.] ] ] 0.e.e.n.#.w w r w w w w w w w w r w w ",
"w w w w w w w w w 3 3 3 3.E.L.V.c.{ { { [ M.E.C.n.:.w w w w w w q e.C.C.B.[ { { { v.C.C.L.r.w w w w w w w w w r w w w w ",
"w w w w w w w w w 3 3 3 3.C.C.C.c.{ { { [ M.E.B.n.:.6 w w w w w ;.n.C.C.C.[ { { { c.C.z.C.8.0 0 w w w w w w w w w w w w ",
"w w w w w w w w w 3 3 3 6.C.C.C.c.{ { { [ B.E.E.m.;.r w r w r w :.n.E.E.B.[ { { { N.C.Q.Q.&.0 0 w w w w w w w w w w w w ",
"w w w w w w w w w 3 3 3 4.C.C.C.c.{ { { | W.~.~.A.F.H.H.G.H.G.S.J.T.!.~.!.A.S.S.S.Z.E.E.Q.&.3 3 w r w w w w w w w w w w ",
"r w w w w w w w w 3 3 3 6.C.C.C.c.{ { { | (././.(./././././.(././.(././././.(././.!.C.C.z.&.3 3 w w w w w w w w w w w w ",
"w w w w w w w w w 3 3 3 5.C.C.C.c.{ { { | ~./././././././././././././././././././.Q.C.C.C.&.3 3 w w w w w w w w w w w w ",
"w w w w w w r w w w w r 5.C.C.C.c.{ { { | ~././././././.(././././././././././././.E.C.C.C.r.0 6 w w w w w w w r w w w w ",
"w w w w w w w w 6.e.n.-.F.~.!.~.W.S.S.S.D.~././.(././././././././././././././././.!.!.!./.T.F.J.p.u.e w w w w w w w w w ",
"w w w w w w w w e.C.C.C.!./././././././././././././././././././././././././././././././././././.(.p.w w w w w w w w w w ",
"w w w w w w w w e.C.Q.C.Q././././.~./././././././././././././././././././././././././././././././.J.w w w w w w w w w w ",
"w w w w 6 6 0 6 e.C.z.E.Q.~./././././././.~.~.~././././././././././././././././././.~.~.!./././.(.K.w w w w w w w w w w ",
"w w w w X.@.@.@.*.k.k.k.l.z.z.z.Q./././.z.J G M R W././././././././././././././.(.^ F F F f./././.P.@.&.&.X.9 w w w w w ",
"w w w w %.s.a.a.a.a.a.a.a./ a.a.k././././ X     t Z./././././././././././././././.p       D /././.E.a.a.a.$.9 w w w w w ",
"w w w w $.a.a.s.a.a.a.a.a.a.a.a.k././././ X     @ N./././././././././././././././.h       c /././.E.a.a.a.$.9 w w w w w ",
"w w w w %.a.a.a.a.a.a.a.a.a.a.a.k./././.^ X     t E./././././././././././././././.y       c /././.Z.a.a.a.$.0 w w w w w ",
"w w w 6 o.%.%.%.h.k.h.h.l.l.l.l.E./././.x.D k k K W././././././.(.f.Q Q Q N./././.E k k l ^ /././.P.%.%.%.o.0 w w w w w ",
"w w w w 6 w w w e.z.L.C.Q./././././././.(.(./.(././././././././.E.y     . Q /././././././././././.J.w w w w w w w w w w ",
"w w w w 6 w w w e.Q.C.C.Q./././././././././././././././././././.N.y     . E /././././././././././.J.0 w w w w w w w w w ",
"w w w w w w w w -.C.C.Q.Q./././././././././././././././././././.W.y     o ^ /././././././././././.J.w w w w w w w w w w ",
"w w w 0 X.o.o.o.=.l.l.l.z.z.L.z.W././././././././././././.U E R K h % & & c U U R N././././././.(.P.o.o.o.X.0 w w w w w ",
"w w w 0 O./ / / g.a.a.a.a.a.h.a.k././././././././././././.X . . o v ` ` _ & X o X f././././././.(.A./ / / %.0 w w w w w ",
"w w w 0 %.a.a.a.a.a.a.a.a.a.a.a.k././././././././././././.      o v ` { ` %       ^ /././././././.E.a.a.a.$.9 0 w w w 0 ",
"w w 6 0 %.a.a.a.a.a.a.a.a.a.a.a.k././././././././././././.      o _ { { ` %       ^ /././.(./././.E.a.a.a.$.0 w w w w w ",
"w w w 0 +.$.! ! *.g.h.a.h.h.h.h.M././././././././././././.y @ + y ) } } } h + + + f./././././././.W.! ! ! O.0 w w w w w ",
"w w w w 0 0 w 0 -.z.C.C.Q.Q./././././././././././././././.(./.W.D.~././.~././.W./././././././././.J.0 0 6 0 w w w w w w ",
"6 w w w 0 w w w e.Q.z.C.Q./././././././././././././././././././././././././././././././././././.(.J.w w w w w w 6 w w w ",
"w w w w 0 w 0 w e.L.C.C.Q././././././././././././././././././././././././././././././././././././.J.w w w w w w w w w w ",
"w w w w w w w w 8.n.n.F.L./.~.^./././././././././././././././././././././././././././././.(.Y.Y.Y.t.w w w w w w w w w w ",
"w w w w w w w w 0 r 0 r &.C.C.C.Q././././././././././././././././././././././././././././.t.w r r w w w w w w w w w w w ",
"w w w w w w w w 6 w 0 w &.L.C.C.Q././././././././././././././././././././././././././././.t.w w w w w w w 6 w w w 6 w w ",
"w w w 6 w w w w w 6 6 6 &.Q.C.L.E././././././.(././././././.(.(./././././././././././././.t.w w w w w w w w w w w w w w ",
"w w w w w w w w w w w w #.l.l.l.M.E.Z.E.E.W.!.W.~.!.!.!.!.!.!.!.W.W.W.W.W.W./.W.T.Z.Z.Z.Q.8.w w w w w w w w w w w w w w ",
"w w w w w w w w w w w w  .J J J P I L I R f.f.f.f.f.f.f.( *.( ( f.f.f.f.f.f.f.f.g.W I I I  .w w w w w w w w w w w 6 w w ",
"w w w 6 w 6 w w w w w w B z D D D D D D F R R Q R R R R R R R R Q Q R R R R Q Q W G x D x V 0 0 w w w w w w w w w w w w ",
"w w w w w w w w w w w w  .D D D D D D D F R R R R Q R R R Q R Q R Q R Q R Q Q Q W G D D D V 6 6 w w w w w w w w w w w w ",
"w w 6 w w 5 6 6 :.q q w  .z z D D D D D G R W R W R R R R R R R R R R Q R R R R R G x D D V 0 6 w 6 6 6 6 6 w w w w w w ",
"w w 6 u.O.m s s s s j j m P P P J J P P D l k k k k k l l R R Q U k p y p i p p p k D D D s * * * * * * * ; 5 w w w w w ",
"w w w u.N d f f d d d d S I I I I I I I F g g a a a a a a R R R K k y t t t t t u g D D D i O O O O O O O = 8 6 w w w w ",
"w w w u.N d f f d d d d S I I I I I I I F g f g a a a a a R W R U a t t t t t t t g x D x i O O O O O O O = 8 w w w 6 w ",
"i.i.i.0 b d d d d d d d g I I I I I I I F g f g a a a g a R R R K k y $ u # t t t g D D D i O O O O O O O = 8 w 6 w w w ",
"i.i.i.8 b d d d d d d d S I I I I I I I P J J G P ~ ^ ^ ^ p p a p c H H H D g l l D D D D i O O O O O O O = 8 w w w w w ",
"i.i.i.0 b d d d d d d d S E P I I I I I I I I I W g.j.j.j.$ t t y H R R R G D D D D D D D i O O O O O O O = 8 w w w w w ",
"i.i.u.q b d d d d d d d g I I I I I I I I I I I W g.j.h.h.u $ y y H R R R G D D D D D D D d O O O O O O O = 8 w w w w w ",
"i.i.i.9 b f f f f f f f m T T T I I I I I I I I I d.j.j.d.y y y i F R R R F D D D x M M m a # # # # # # # - 8 6 6 w w w ",
"i.i.i.9 7 < n n n n , n B  . . .Z I I I I I I I I a.^ ^ ^ x x x x F G G G D D D D V B B B , ; ; ; ; ; ; ; < 5 6 w w w w ",
"i.i.i.0 6 w w w 6 w 6 w w 6 0 0 ..I I I I I I I I I I I I R R R R F D D D D D z D 7 w w w w w w w w w w w w w w w w w w ",
"i.i.i.6 w w w w 0 w w w w 6 0 0 ..I I I I I I I I I I I I R R R R D D D D D D D D ..w w w w w w w w w w w 6 w w w w w 6 ",
"i.i.i.w w w w w w w w w w w w w ..P I I I I I I I I I I I E R R R G D D D D D D D 2 w w 0 0 6 w w w w w w w w w w w w w ",
"6 0 w w w w w w w w w w i.i.i.w ..z S x x z x x D P I I I I E I K D D D D g a a i j : : : < 0 w w 6 w w 6 w w w 6 w w w ",
"0 w w w w w w w w w w w i.i.i.w 1 a a a g a a a k J I I I I I I P F D D z i t t t t $ $ u ; w w w w w w w w w w w w w w ",
"w w w w 0 w w w w w w 6 i.i.i.w 1 a a a a a a a k P I I I I I I P D D D D i t t t * u $ $ : w w w w w w w w w w w w w w ",
"w w w w w w w w w w w w w w w i.5.a a a a a a a g G I I I I I I P F D D x i t t # * t t t : w w i.i.i.6 w w w w w w w w ",
"w w w w w w w w w w w w w w w i.9.~ ~ ~ Y n b n V Z O. .A A  . .Z V V V V > : : ; ; C C C 1 w w i.i.i.w w w w w w w w 6 ",
"w w w w 6 w w w w w w w w w w i.p./.^./.G.q 9 0 0 0 w 0 q 0 0 w 0 0 0 0 0 0 6 6 6 6 y.y.y.6 6 w i.i.i.w w w w w w w w w ",
"w w w w w w w w w w 6 w w w w i.p./././.G.q 0 w 0 0 6 0 6 0 w w 0 w w w 6 w w 6 w w w w 0 i.i.i.w w w w w w w w w w w w ",
"w w w 6 w w w w w w w w w w w i.p./././.t.r w w 6 0 w w w 6 w w 6 w w w 6 w w w w w w w w i.i.i.w w w w w w w w w w w w ",
"w w w w w w w w w w w w w w w i.p./././.G.r w w 6 6 w w w w w w w w w w w w w w w w w w w i.i.i.w w w w w w 6 w w w w w ",
"w w w w w w w w w w w w w w 6 i.p./././.G.r 0 w w w w w w w w w w w w w w w w 6 w w w w 6 w w w w w w w w w w w 6 w w w ",
"w w w w w w 6 w w w w w w w w i.p./././.G.r w w w w w w w w w w w w w w w w w w w w w w w w w w w w w w w w w w w w w w ",
"w w 6 w w w w w w w 6 w w w w i.i.(././.t.r w w w w w w w w w w w w w w w w w 6 w w w w w w w w w w w w w 6 w w w w w w ",
"w w w w w w w w w w w w w w 6 w :.G.G.K.t.4.2.2.,.r w w w w w w w w w 6 w w w w w w w w w w w w w 6 w w w w w w w w w w ",
"w w w w w w w w w w w w w w w w 0 r q q 4.R.(.(.J.:.w w w w 6 w w w w w w w w w w w w w w w 6 w w w w w w w w w w w w w ",
"w w w w w w w w w w w w w w w w 6 w w 6 4.^././.K.>.w w w w w w w w w w w w w w w w w w w w w w w w w w w w w w w w w w ",
"w w w w w w w w w w w w w w w w w w w w 4.R././.K.>.w 6 w w w w w w w w w w w w 6 w w w w 6 w w w w w 6 w w 6 w w w w 6 ",
"w w w w w w 6 w w w w w w w w w w w w w ,.K.U.K.G.2.,.,.,.w w w w w w 6 w w w w w w w w w w w w w w w w w w w w w w w w ",
"w w w w w w w w w w w w w w w w w w w w r r >.>.2.I.R.R.Y.w w w w w w w w 6 w w w w w w w w w w w w w w w w w w w w w w ",
"w w w w w w w w w w w w w w w w w w w 6 6 0 w w ,.R./.(./.6 w w w w w w w w w w w w w w w w w w w w w w w w w w w w w w ",
"6 w w w w w w w w w w w w w w w w w w w w w w w 2.R./././.w w w w w w w w w w w w w w w w w w w w w w 6 w w w w w w w w ",
"w w w w w w w w w w w w 6 w w w w w w w w w w w ,.R./././.w w w w w w w w w w 6 w w w w w w w w w w w w w w w w w w w 6 "
};
