/* XPM */
static char *jump_1[] = {
/* columns rows colors chars-per-pixel */
"60 74 40 1 ",
"  c #4E4D5C",
". c #5C6D77",
"X c #A5C362",
"o c #A4C263",
"O c #C0D470",
"+ c #C1D470",
"@ c #C1D570",
"# c #C1D471",
"$ c #C1D571",
"% c #6E7A80",
"& c #7B888F",
"* c #728794",
"= c #8A98A0",
"- c #9BAAB3",
"; c #A6AFB4",
": c #E6A2A2",
"> c #E7A2A2",
", c #E6A3A2",
"< c #E7A2A3",
"1 c #E6A3A3",
"2 c #E7A3A3",
"3 c #E8EEAA",
"4 c #A7B8C2",
"5 c #BAC4CA",
"6 c #C6DADE",
"7 c #C7DADE",
"8 c #C6DBDE",
"9 c #C7DBDE",
"0 c #C6DADF",
"q c #C7DADF",
"w c #C6DBDF",
"e c #C7DBDF",
"r c #DEECEC",
"t c #DFECEC",
"y c #DEEDEC",
"u c #DFEDEC",
"i c #DEECED",
"p c #DFECED",
"a c #DEEDED",
"s c #DFEDED",
/* pixels */
"$$X$#@#####@@@99q7q$$$$$$$$$$$$$$$##$@@977ewoX$$$$$$$$@+$+++",
"$$$$@@@@####@$99qqqX$$$$$$$$$$$$$$$##$#9e77w$$$$$$$$$@@@#@+#",
"$$$$@@@@##@@oo9967sXX$$$$$$$+X+$$$@#@@@97eqq$$$$$$$$@$$$+++@",
"$$$X@@@@#@##ooe967rX$$$$$$$$++$+$$@#@@$9qqqq$$$$@$$$$$$$@#++",
"$$$$$$@@Xee799<<2>277we9$$@@#@++$$77979,,,,,ww7w9$X$$$$$##@#",
"$$$$$$@@$77e9e<<22>qqwe9$$@@##++$Xq7977<,,,>7w7w9@@@$$$$@+++",
"$$$$$$$@$re797<,,,,eeeqw$$$@###+$$e7ee9,,,::77w79@@@$@@@@+++",
"$$$$$$@@X7ee97<,,,,eeee9$$@@##++$$eee99<,,,:w7ww9$@@$@@@++++",
"$$$$##$$$i77ew:,2<260079$$$$$$$X$$eeeee<<222w79e7#@@@$$$++##",
"$$$X@#$$$7ee7w,,<<2pppyisssssuuiiiiiusspppppweee7@@@@$$$$X@@",
"$$++@@$$$77e06,><<,iprrisssssssissssiussyippe7ee7@@@$$$$$$$$",
"@$@@@@$$+7e7q6>>22,rpryissssssuusssspsssyiiieeee7@@$$$$X$$$$",
"##@@$$$$Xqq7qq,,222pssuussssssiissuuuuusyuppqqqee@@#$$$$++@@",
"##@@$X$$$wq7qq,,222psssussssssuiusuuuussipuuqqe9e@@X$$$$+@@@",
"++@@99eerirrrrppiuppsusussssiusuusssssssuuuuiiiippppss$$++#@",
"++++weeeeirrrrrriiipusssussssssiuussssssuupiiiiispppss$$$X##",
"X$$$eeeeeisisisyuuiussssisyyuussssssssssssssssssssssss$@@@++",
"$$$$eeeeeuissisuiusussasysisuussssssssssssssssssssssss$$@@##",
"$$$$eeeeeiusssiiuuuiiiaisissuiusssssssssssssssssssssss$$@@##",
"$444;444444444ssuus     ssssuussssssssssssss     sssss44444#",
"$4445444444444ssiii     ssssssssssssssssssss     sssss44444@",
"$4444444444444ssiii     ssssssssssssssssssss     sssss44444@",
"$4444444444444ssssi     ssssssssssssssssssss     sssss44444X",
"X4444444444444ssssi     ssssssssssssssssssss     sssss44444+",
"$$$$wwww8yyyssssssssssssssssssssss     sssssssssssssss#@@@$@",
"$$$$99ww8yyyssssssssssssssssssssss     sssssssssssssss#@@@##",
"$$$@77999uyyssssssssssssssssssssss     sssssssssssssss@@@@@#",
"$$@@777e9uuyssssssssssssssssssssss     sssssssssssssssX@####",
"$OOO99ee9iiyuussssssssssssssssssss     sssssssssssssup@@#@@@",
"O4444444444444susssssssssssss     22222     ssssssssup44444@",
"O4444444444444uusssssssssssss     22222     sssssssspp44444@",
"O4444444444444uusssssssssssss     22222     sssssssspp44444@",
"$444444;444444sssssssssssssst     22222     ssssssssss44444#",
"$447444;444444ssssssssssssssu     22222     ssssssssss44444$",
"$$$$www8eussssssssssssssssssusttssssssssssssssssssssss$$$$$$",
"X$XXwwwwesssssssssssssssssssssttssssssssssssssssssssss$$$@$$",
"$$$$77wwquuuuussssssssssssssuuuussssssssssssssssssssss$$#X@@",
"$$$$eewweissuussssssssssssssuuuussssssssssssssssssssss$$#+@@",
"$$$$ieeeeissuuuussssssssssssuuuussssssssssssssssssssss$X##@@",
"$$$$$$X$$eee99uussssssssssssuuuusssssssssssssssss$$$$$$$##@#",
"$$@@@@@@@eeeeeuussssssssttttttttsssssssssssssssst@@@$$###$@@",
"$$@333++@eeeeeuussssssssttttttttsssssssssssssssst@@@@###@$@@",
"$$@333++@eee99uussssssssttttttttsssssssssssssssst#@@@$##@$$@",
"$$@333$X#eee99uussssssssttttttttssssssssssssssssu#$$$$X+$$$@",
"333@$$$$@@@#@@=====;;;;;;;;;;=====;;;;;;;;;;X#$$####@@@+###X",
"333@$$$$@@@@@@=====;;;;;;;;;;=====;;;;;;;;;;##$$#X$#@@@+###+",
"333@##@@+X++@@=====;;;;;;;;;;=====;;;;;;;;;;$$$$$@$$@@$$#$++",
"333@@###+++++@=====;;;;;;;;;;=====;;;;;;;;;;$$$$$@$$$$$@@$@@",
"333@OX$$$$$$$O=====;;;;;;;;;;=====;;;;;;;;;;@@@@$$@@@@@@@@$$",
"333+O$$$$;---------5555555555;;;;;;;;;;;;;;;=====$@@@@@@++##",
"333+$$$$$----------5555555555;;;;;;;;;;;;;;;=====+@@@$$#+###",
"333+$$$$$----------5555555555;;;;;;;;;;;;;;;=====+@@@@@#+X##",
"333$X$@@O----------7555755555;;;;;;;;;;;;;;;=====+++++##@@$$",
"++$$$$++O----------;555;55555;;;;;;;;;;;;;;;====-X++++##@@$$",
"Xsss=*********----;&&&&&&&&&&;;;;;%%%%%%%%.======.....+#@@@$",
"$sss&*********-----&&&&&&&&&&;;;;;%%%%%%%.&.=====.....+X+@@@",
"#sss**********-----&&&&&&&&&=;;;;;%%%%%%&.&.=====.....$$++@$",
"#ssu**********-----&&&&&&&&&%;;;;;%%%%%%.&.&=====.....$$#X@@",
"#suu**********----;.&&&&&&=&=;;;;;%%%%%%..&.=====.....@$###$",
"##X#**********--;;;-----55555.%%%%;;;;;==========.....@@###$",
"#$$$**********----------55555%%%%%;;;;;==========.....#$@@@@",
"#$$$**********----------55555.%%%%;;;;;==========.....#$+@@@",
"##$$**********--------;-55555.%%%%;;;;;==========.....##++$$",
"##$$**********--------;;5555t%%%%%;;;;;==========.....###X$$",
"#@$$@$$$$uuuuu---------------;;;;;==========++++++@@@++++X$$",
"@@$$@@$$$suuss---------------;;;;;==========++++X+@@++++++$$",
"@###@@@@$sssss---------------;;;;;==========++++@@@@++++++++",
"@X##+@@@$sssss---------------;;;;;==========++++@@@@X++++++$",
"@@@@+###@sssuu-;--------;;-;-;;;;;==========@@@+++++++++++$$",
"+@@@+X##@$@$#$$@##@&&&&&$X#$@X##+++++OO.=.%%@@@@X+++++@++$$$",
"++$$@@##$$$$##$$###&&&&&$$$$$$#$+++++++=.%%%@@@@@@++@@@@$$$$",
"#X$$$@$$$$$$X#####@&&&&&#$@@@$$$+++++++...%%@@@@@@+@@@@@$$$$",
"####@$$$@@@@X###@@X&&&&&X$$$$$$$$$$@@@$=%..&@#@@@@@@@@@$$$++",
"##$$@@$$@@+@++##@@$&&&&=$$$$$$$$$$$@@@$.%&..+#@@@@@@@@$$$$X+"
};
