/* XPM */
static char *jump_8[] = {
/* columns rows colors chars-per-pixel */
"60 74 115 2 ",
"   c #4E4D5C",
".  c #575765",
"X  c #5C6D77",
"o  c #60616E",
"O  c #74626D",
"+  c #7D6772",
"@  c #647675",
"#  c #6D7F74",
"$  c #738574",
"%  c #74827E",
"&  c #82907B",
"*  c #9FB571",
"=  c #A9BC74",
"-  c #A5B97A",
";  c #A5C262",
":  c #B3C674",
">  c #BBCF72",
",  c #BACE7D",
"<  c #BED375",
"1  c #BDD079",
"2  c #C0D470",
"3  c #C2D57B",
"4  c #6E7A80",
"5  c #75838B",
"6  c #7A878E",
"7  c #7B888F",
"8  c #728794",
"9  c #748995",
"0  c #7F8A90",
"q  c #788D99",
"w  c #8E878F",
"e  c #91878F",
"r  c #848992",
"t  c #869196",
"y  c #85939B",
"u  c #8C959C",
"i  c #8F9D9D",
"p  c #AD8288",
"a  c #ACBE81",
"s  c #A0B38B",
"d  c #8A98A0",
"f  c #939DA4",
"g  c #95A3AB",
"h  c #9CA6AC",
"j  c #9EA8AD",
"k  c #98A7B0",
"l  c #9BAAB3",
"z  c #A0AAAF",
"x  c #ADBEAE",
"c  c #B2BFA5",
"v  c #A5AEB3",
"b  c #A3B0B6",
"n  c #A8B1B6",
"m  c #AABEB1",
"M  c #A5B4BA",
"N  c #AFB8BD",
"B  c #DEB2B2",
"V  c #D9BABB",
"C  c #E6A3A3",
"Z  c #E2ABAB",
"A  c #E4B1B1",
"S  c #AFC286",
"D  c #AFC98A",
"F  c #B7CB87",
"G  c #BBCE85",
"H  c #B2C38B",
"J  c #B5C98D",
"K  c #B9CC88",
"L  c #BDD080",
"P  c #BFD18C",
"I  c #B7CA93",
"U  c #B5CA9A",
"Y  c #BCCD9D",
"T  c #BBD099",
"R  c #C1D684",
"E  c #C2D981",
"W  c #C2D594",
"Q  c #C3D79A",
"!  c #C3D89A",
"~  c #CBDD9C",
"^  c #C3D6A1",
"/  c #C3D8A0",
"(  c #C5D8AC",
")  c #CBDCAB",
"_  c #C0D3BC",
"`  c #CDE0A7",
"'  c #DCE3AB",
"]  c #D1E2B0",
"[  c #E8EEAA",
"{  c #A7B8C2",
"}  c #AEBDC5",
"|  c #B4BEC2",
" . c #ABC0C6",
".. c #B3C3C9",
"X. c #BAC4CA",
"o. c #BBCDD2",
"O. c #C0CBCE",
"+. c #C5D9C3",
"@. c #C3D9CA",
"#. c #C2CFD2",
"$. c #C7D2D5",
"%. c #C6DAD1",
"&. c #C1D5D9",
"*. c #CAD6D8",
"=. c #C6DBDE",
"-. c #CCDADB",
";. c #E1CACA",
":. c #D1E4CD",
">. c #D9EAD7",
",. c #DBECDF",
"<. c #D3E3E4",
"1. c #D8E6E7",
"2. c #D9E7E8",
"3. c #DFEDED",
"4. c #E1EFE2",
/* pixels */
"2 2 2 2 2 2 2 2 2 2 2 2 2 2 2 2 %.=.=.=.@.2 2 2 2 2 2 2 2 2 2 3 2 2 2 2 2 2 2 :.=.=.=.=.2 2 2 2 2 2 2 2 2 2 2 2 2 2 2 2 ",
"2 2 2 2 2 2 2 2 2 2 2 2 2 2 2 2 %.=.=.=.@.2 2 2 2 2 2 3 2 2 2 2 2 2 2 2 2 2 2 _ =.=.=.o.2 2 2 2 2 2 2 2 2 2 2 2 2 2 2 2 ",
"2 2 2 2 2 2 2 2 3 2 2 2 ; ; > 2 %.=.=.=.@.2 2 2 2 2 2 2 2 2 2 2 2 2 2 2 2 2 2 +.=.=.=.%.2 2 2 2 2 2 2 2 2 2 2 2 2 2 2 2 ",
"2 2 2 2 2 2 2 2 2 2 2 2 ; ; ; 2 %.=.=.=.@.2 2 2 2 2 2 2 2 2 2 2 2 2 2 2 2 2 2 +.=.=.=.=.2 2 2 2 2 2 2 2 2 2 2 2 2 2 2 2 ",
"2 2 2 3 2 2 2 2 2 2 2 3 F D D P %.=.=.=.$.W Q T ! 3 2 2 2 2 2 2 2 2 3 W ~ W W +.=.=.=.*.W Q Q Q E 2 2 2 2 2 2 2 2 2 2 2 ",
"2 2 2 2 2 2 2 2 2 ; ; U =.=.=.=.=.=.=.=.=.=.=.=.=.! 2 2 2 2 2 2 2 2 W =.-.-.=.=.=.=.=.=.=.=.=.=.] 2 2 2 2 2 2 2 2 2 2 2 ",
"2 2 2 2 2 2 2 2 2 ; ; U =.=.=.=.=.=.=.=.=.=.=.=.=.! 2 2 2 2 2 2 2 2 W =.=.=.=.=.=.=.=.=.=.=.=.=.( < < 2 2 2 2 2 3 2 2 2 ",
"2 2 2 2 2 2 2 2 2 ; ; T =.=.=.=.=.=.=.=.=.=.=.=.=.! 2 2 2 2 2 2 2 2 W =.=.=.=.=.=.=.=.=.=.=.=.=.( < < 2 2 2 2 2 2 2 2 2 ",
"2 2 2 2 2 2 2 2 2 ; ; U =.=.=.=.=.=.=.=.=.=.=.=.-.Q 2 2 2 2 2 2 2 2 ! -.=.=.=.=.=.-.=.=.=.=.=.=.[ 2 2 2 2 2 2 2 2 2 2 2 ",
"2 2 2 2 2 2 2 2 2 ; ; U =.=.=.=.B Z B B V =.=.=.-.Q 2 2 2 2 2 2 2 2 W =.=.=.=.V B B B B =.=.=.=.` 2 2 2 2 2 2 2 2 2 2 2 ",
"2 2 2 2 2 2 2 2 2 ; ; T =.=.=.=.Z C C C Z =.=.=.=.Q 2 2 2 2 2 2 2 2 W =.=.=.-.B C C C Z =.=.=.=.` < 2 2 2 2 2 2 2 2 2 2 ",
"2 2 2 2 2 2 2 2 2 2 2 / =.=.=.=.C C C C Z =.=.=.=.Q 2 2 2 2 2 2 2 2 T -.=.=.=.B C C C C =.=.=.=.` < 2 3 2 2 2 2 2 2 2 2 ",
"2 2 2 2 2 2 2 2 2 2 < / =.=.=.=.Z C C C B =.=.=.=.Q 2 2 2 2 2 2 2 2 W =.=.=.=.B C C C C =.=.=.=.( < 2 2 2 2 2 2 2 2 2 2 ",
"2 2 2 2 2 2 2 2 2 2 2 / =.=.=.=.Z C C C Z =.=.=.=.^ 3 3 3 3 3 3 3 2 ! =.=.=.=.V C C Z Z =.=.=.=.( < 2 2 2 2 2 2 2 2 2 2 ",
"2 2 2 2 2 2 2 2 2 2 < ! =.=.=.=.Z C C C A 3.3.3.3.3.4.3.3.3.3.3.3.3.3.3.3.3.3.3.3.3.3.2.=.=.=.=.( 2 2 2 2 2 2 2 2 2 2 2 ",
"2 2 2 2 2 2 2 2 2 2 < / =.=.=.=.Z C C C A 3.3.3.3.4.3.3.3.3.3.3.3.3.3.3.3.3.3.3.3.3.3.3.=.=.=.=.( 2 2 2 2 2 2 2 2 2 2 2 ",
"2 2 2 2 2 2 2 2 < 2 2 ! =.=.=.=.Z C C C A 3.3.3.3.3.3.3.3.3.3.3.3.3.3.3.3.3.3.3.3.3.3.3.=.=.=.=.` < < 2 2 2 2 2 3 2 2 2 ",
"2 2 2 < 2 2 2 2 < < 2 ! =.=.=.=.Z C C C A 4.3.3.3.3.3.3.3.3.3.3.3.3.3.3.3.3.3.3.3.3.3.2.=.=.=.=.( < 2 2 2 2 2 2 2 2 2 2 ",
"2 2 R Y U U T U Y U Y o.1.<.<.<.;.;.;.;.;.3.3.3.3.3.3.3.3.3.3.3.3.3.3.3.3.3.3.3.3.3.3.3.<.<.1.<.:.] ` ] ] Y U U U J 2 2 ",
"2 2 x  .{ { { { { { M o.3.3.3.3.3.3.3.3.3.3.3.3.3.3.3.3.3.3.3.3.3.3.3.3.3.3.3.3.3.3.3.3.3.3.3.3.3.3.3.3.3.} { { { m 2 2 ",
"2 2 x { { { { { { { { o.3.3.3.3.3.3.3.3.3.3.3.3.3.3.3.3.3.3.3.3.3.3.3.3.3.3.3.3.3.3.3.3.3.3.3.3.3.3.3.3.3. .{ { { x 2 2 ",
"2 2 x { { { { { { { { o.3.3.3.3.3.3.3.3.3.3.3.3.3.3.3.3.3.3.3.3.3.3.3.3.3.3.3.3.3.3.3.3.3.3.3.3.3.3.3.3.3. .{ { { x < 2 ",
"2 2 x { { { { { { { { o.3.3.3.3.3.3.3.3.3.3.3.3.3.3.3.3.3.3.3.3.3.3.3.3.3.3.3.3.3.3.3.3.3.3.3.4.3.3.3.3.3. .{ { { m 2 2 ",
"2 2 1 1 1 1 L &.=.&.=.o.} }  .} 2.3.3.4.#.o o X o | 3.3.3.3.3.3.3.3.3.3.3.3.3.3.3.3.2.1.o o o o g 4.3.3.3.E 1 1 1 1 2 2 ",
"2 2 < 2 2 2 2 =.=.=.=.o.{ { { { 2.3.3.3.#.        n 4.3.3.3.3.3.3.3.3.3.3.3.3.3.3.3.3.<.        i 3.3.3.3.3 > 2 < < 2 2 ",
"2 2 2 2 2 2 1 =.=.=.=.o.{ { { { 2.3.3.3.#.        n 3.3.3.3.3.3.3.3.3.3.3.3.3.3.3.3.3.<.        u 3.3.3.3.3 2 2 2 > 2 2 ",
"2 2 2 2 2 2 2 =.=.=.=.o.{ { { { 2.3.3.3.#.        n 3.3.3.3.3.3.3.3.3.3.3.3.3.3.3.3.3.<.        u 4.3.3.3.E < < 2 < 2 2 ",
"2 2 , , , , G &.o.o.o.o.........2.3.3.3.#.        n 3.3.3.3.3.3.3.3.1.#.#.#.#.1.3.3.3.1.        d 4.3.3.3.W L , < 1 2 < ",
"2 2 x { { { { {  . .{ o.3.3.3.3.3.3.3.3.#.        n 3.3.3.3.3.3.3.3.|         X.3.3.3.<.        u 3.3.3.3.} { { M m 2 > ",
"2 2 x { { { { { { { } o.3.3.3.3.3.3.3.3.#.        n 3.3.3.3.3.3.3.3.{         X.3.3.3.<.        u 4.3.3.3...{ { { c 2 2 ",
"2 2 x { { { { { { { { o.3.3.3.3.3.3.3.3.#.        n 3.3.3.3.3.3.3.3.|         X.3.3.3.<.        u 3.3.3.3. .{ { { m 2 2 ",
"2 2 x M { { { { { { { o.3.3.3.3.3.3.3.3.#.        n 3.3.3.3.3.3.3.3.|         X.3.3.3.<.        u 3.3.3.3. .{ { { m 2 2 ",
"< > L , F F T o.o.o.o.o.o.o.o.o.2.3.3.3.1.n n n n -.3.3.3.3.r r w r e p p p p w r r r r { n n n O.3.3.3.3.Y I J J K 2 2 ",
"2 < < 2 < < < =.=.=.=.o.{ { { { 2.3.3.3.3.3.3.3.3.3.3.3.3.3.        + C C C C O       . 3.3.3.3.3.3.3.3.4.R 2 2 2 2 2 2 ",
"2 2 2 2 < < 3 =.=.=.=.o.{ { { { 2.3.3.3.3.3.3.3.3.3.3.3.3.3.        + C C C C O       . 3.3.3.3.3.3.3.3.3.R 2 2 2 2 2 2 ",
"2 2 2 < 2 < 2 =.=.=.=.o.{ { { { 1.3.3.3.3.3.3.3.3.3.3.3.3.3.        + C C C C O       . 3.3.3.3.3.3.3.3.4.R 2 2 2 2 2 2 ",
"< 2 2 2 2 2 2 =.=.=.=.o.{ { { { 1.3.3.3.3.3.3.3.3.3.3.3.3.3.        + C C C C O       . 3.3.3.3.3.3.3.3.3.R 2 2 2 2 2 2 ",
"2 2 2 2 2 < 2 =.=.=.=.=.3.3.3.3.3.3.3.3.3.3.3.3.3.3.3.3.3.3.3.3.3.3.3.3.2.4.3.3.3.3.3.3.3.3.3.3.3.3.3.3.4.R 2 2 2 2 2 2 ",
"2 2 2 2 < < G =.=.=.=.<.3.3.3.3.3.3.3.3.3.3.3.3.3.3.3.3.3.3.3.3.3.3.3.3.3.3.3.3.3.3.3.3.3.3.3.3.3.3.3.3.3.R 2 2 2 2 2 2 ",
"2 2 2 2 < < 1 =.=.=.=.=.3.3.3.3.3.3.3.3.3.3.3.3.3.3.3.3.3.3.3.3.3.3.3.3.3.3.3.3.3.3.3.3.3.3.3.3.3.3.3.3.3.R 2 2 2 2 2 2 ",
"2 2 2 2 2 2 > %.=.=.=.=.3.3.3.3.3.3.3.3.3.3.3.3.3.3.3.3.3.3.3.3.3.3.3.3.3.3.3.3.3.3.3.3.3.3.3.3.4.4.3.3.3.3 2 2 2 < 2 2 ",
"2 2 2 [ [ [ < m } } } o.o.o.o.o.2.3.3.3.3.3.3.3.3.3.3.3.3.3.3.3.3.3.3.3.3.3.3.3.3.3.3.3.3.3.3.3.-.....X...- * * * = 2 2 ",
"2 2 2 [ [ [ < 9 8 8 8 8 8 8 8 8 <.3.3.3.3.3.3.3.3.3.3.3.3.3.3.3.3.3.3.3.3.3.3.3.3.3.3.3.3.3.3.3.M X X X X X X X X # 2 2 ",
"2 2 2 [ [ [ > 9 8 8 8 8 8 8 8 8 <.4.3.3.3.3.3.3.3.3.3.3.3.3.3.3.3.3.3.3.3.3.3.3.3.3.3.3.3.3.3.3.M X X X X X X X X # 2 2 ",
"[ [ [ 2 < 2 > 9 8 8 8 8 8 8 8 8 <.3.3.3.3.3.3.3.3.3.3.3.3.3.3.3.3.3.3.3.3.3.3.3.3.3.3.3.3.3.3.3.M X X X X X X X X # 2 2 ",
"[ [ [ 2 > 2 > 9 8 8 8 8 8 8 8 8 -.3.3.3.3.3.3.3.3.4.3.3.3.3.3.3.3.3.3.3.3.3.3.3.3.3.3.3.3.3.3.3.M X X X X X X X X # 2 2 ",
"[ [ [ 2 2 < > 8 8 8 8 8 8 8 8 8 l z z b { | | | | | | | | | | | | | | | | | | | | | | | z z b l y X X X X X X X X # > 2 ",
"[ [ [ 2 2 > > 8 8 8 8 8 8 8 q 4 d d d d u v v v n v v v v n v v v v v v v n v v n n v v d d d d 5 X X X X X X X X # 2 2 ",
"[ [ [ 2 2 2 > 9 8 8 8 8 8 8 8 8 d d d d d b n v v n v v v v v v v n v v v v v v v n b v y d d d 5 X X X X X X X X $ 2 2 ",
"[ [ [ 2 < 2 > 9 8 8 8 8 8 8 8 8 y d d d f v v v v v v v v v v n v v v n n v v v v v v v d d d d 8 X X X X X X X X # 2 2 ",
"[ [ [ 2 2 2 < q q q q q 8 9 9 9 y d d d d z v z z v v z z v v v v v v z z z z v z z l j d d d d 7 @ @ @ @ @ @ @ @ $ 2 2 ",
"[ [ [ 2 2 < < 3.4.3.3.o.l l l l l l l l k 7 7 7 r 7 7 7 6 0 n v v n f 4 4 4 4 4 4 4 4 4 d d d d s 2 2 2 2 2 2 2 > > 2 2 ",
"[ [ [ 2 2 2 3 3.3.3.3.$.l l l l l l l l k r 9 q 9 6 7 7 7 7 n v v n f 4 4 4 4 4 4 # 4 4 d d d d s < > 2 2 2 2 2 2 2 2 2 ",
"2 > 2 2 2 2 2 3.3.3.3.o.l l l l l l l l k 4 r r 6 6 7 7 7 7 v v v v f 4 4 4 4 4 4 4 4 4 y d d d s 2 2 2 2 2 2 2 2 2 2 2 ",
"2 2 2 2 2 2 2 4.3.3.3.$.l l l l l l l l g 9 4 q r 6 6 7 7 7 n v v n f 4 4 4 4 4 4 4 4 4 d d d d s 2 2 2 2 2 2 2 2 2 2 2 ",
"2 2 2 2 2 2 2 4.3.3.3.o.l l l l l l l l k u y d u f f f k f d d u u u t t t y 7 7 7 7 0 d d d d s 2 2 2 2 2 2 2 > 2 2 2 ",
"< 2 2 2 2 2 2 3.3.3.3.#.l l l l l l l l l l l l z } X.X.X.X.4 4 # 4 0 v v v n f d d d d d d d d a [ [ 2 2 2 2 2 2 2 2 2 ",
"2 2 2 2 2 2 3 3.3.3.3.o.l l l l l l l l l l k l l } X.X.X.| 4 4 4 4 r v v v n f d y d d d d d d c [ [ 2 2 2 2 2 2 2 2 2 ",
"2 2 2 2 2 2 3 3.3.3.3.$.j l l l l l l l l l l l l } X.X.X.X.4 4 4 4 r v v v v f d d d d d d d d c [ [ 2 2 2 2 2 2 2 2 2 ",
"2 2 2 2 < 2 2 3.3.3.3.o.l l l l l l l l l l l l k } X.X.X.X.4 4 4 4 r v v v b f d d d d d d y d s > 2 2 2 2 2 2 2 2 2 2 ",
"2 2 2 < 2 2 2 3 3 3 3 ) <.<.1.1.l l l l l l l l k z l b b l z z z z h d d d d d d d d i > ' ' ' > 2 2 2 2 2 2 2 2 2 2 2 ",
"2 2 2 2 2 2 2 2 2 2 < ` 3.3.3.3.M l l l l l l l z l l l l l v v v v h d d d d d d d d i 2 [ [ [ 2 2 2 2 2 2 2 2 2 2 2 2 ",
"2 2 2 2 < 2 2 2 2 2 < ` 3.3.3.3.b l l l l l l l l l l l l l v v v v h d d d d d i y u i 2 2 2 2 2 2 2 2 2 2 2 2 2 2 2 2 ",
"2 2 2 2 2 2 2 2 2 2 < ` 3.3.3.3.M l l l l l l l l l l l l l v v v v k d d d d d y i u i 2 2 2 > 2 2 2 2 2 2 2 2 2 2 2 2 ",
"< 2 2 2 2 2 2 2 2 2 2 3 >.>.>.4.x N M M M h g g g k l l l l b l v v g d d d d y y y y y 2 2 2 2 2 2 2 2 2 2 2 2 2 2 2 2 ",
"2 2 2 2 2 2 2 2 2 2 2 2 2 2 2 2 4.4.3.3.-.7 7 7 0 d l l l l l l l l g d d d d 5 4 4 4 % 2 2 2 2 2 2 2 2 2 2 2 2 2 2 2 2 ",
"2 2 2 < 2 2 2 2 2 2 2 2 2 2 2 2 ,.3.3.3.-.7 7 7 0 f l l l l l l l l g d d d d 4 4 4 4 % 2 2 2 2 2 2 2 2 2 2 2 2 2 2 2 2 ",
"2 2 2 2 2 2 2 2 2 2 2 2 2 2 2 2 ,.3.3.3.-.7 7 7 0 d l l l l l l l l g d d d d 5 4 4 # % 2 2 2 2 2 2 2 2 2 2 2 > 2 2 2 2 ",
"2 2 2 2 2 2 2 2 2 2 2 2 2 2 2 2 ,.3.3.3.-.7 7 7 7 d l j l l l l l l g u d d i 5 4 4 4 4 2 2 2 2 2 2 2 2 2 2 2 2 2 2 2 2 ",
"2 2 2 2 2 2 2 2 2 2 2 2 2 2 2 2 ~ ~ ~ ~ T 7 7 7 7 s H S H H H H H H H a a a = % 4 4 # % 2 2 2 2 2 2 2 2 2 2 2 2 2 2 2 2 ",
"2 2 2 2 2 2 2 2 2 2 2 2 2 2 2 ; 2 2 2 2 : 7 7 7 7 - 2 2 2 2 < < 2 2 2 2 2 2 2 & 4 4 4 5 2 2 2 2 2 2 2 > 2 2 2 2 2 2 2 2 ",
"2 2 2 2 2 2 2 2 2 2 2 2 2 2 2 2 < 2 2 2 : 7 7 7 7 - 2 2 2 2 2 > 2 2 2 2 2 2 2 & 4 4 4 4 2 2 2 2 2 2 2 2 2 2 2 2 2 2 2 2 ",
"2 2 2 2 2 2 2 2 2 2 2 2 2 2 2 2 2 2 2 2 : 7 7 7 7 - 2 2 2 2 2 2 2 2 2 > 2 2 2 & 4 4 # % 2 2 2 2 2 2 2 2 2 2 2 2 2 2 2 2 ",
"2 2 2 2 2 2 2 2 2 2 2 2 2 2 2 2 2 2 2 2 : 7 7 7 7 - 2 2 2 2 2 2 2 3 2 2 2 2 2 & 4 4 4 $ 2 2 < 2 2 2 2 2 2 2 > 2 2 2 2 2 "
};
