/* XPM */
static char *jump_4[] = {
/* columns rows colors chars-per-pixel */
"60 74 175 2 ",
"   c #4E4D5C",
".  c #575765",
"X  c #5A5B68",
"o  c #615764",
"O  c #5C6D77",
"+  c #69626E",
"@  c #676975",
"#  c #6E737D",
"$  c #876D76",
"%  c #8C727A",
"&  c #748675",
"*  c #74837E",
"=  c #899B74",
"-  c #84927A",
";  c #88947A",
":  c #8B987A",
">  c #96A872",
",  c #96A67B",
"<  c #9EB47E",
"1  c #A2B176",
"2  c #A9BD72",
"3  c #A4B779",
"4  c #AFBF7F",
"5  c #A4C363",
"6  c #A6C26A",
"7  c #BFD36F",
"8  c #AAC774",
"9  c #AFC27E",
"0  c #B6CC76",
"q  c #BACD72",
"w  c #BACD7E",
"e  c #BED273",
"r  c #BED479",
"t  c #C0D470",
"y  c #C2D57C",
"u  c #C0D87A",
"i  c #6E7A81",
"p  c #747B84",
"a  c #758086",
"s  c #788685",
"d  c #7B848B",
"f  c #7B888F",
"g  c #728794",
"h  c #7C8991",
"j  c #7B8F9B",
"k  c #7F929E",
"l  c #94828A",
"z  c #849A8B",
"x  c #8B9A88",
"c  c #909E85",
"v  c #848D95",
"b  c #849197",
"n  c #849198",
"m  c #8C949B",
"M  c #8F9E99",
"N  c #949A9A",
"B  c #B98A8E",
"V  c #98A886",
"C  c #98A792",
"Z  c #9FB09F",
"A  c #A0B380",
"S  c #8A98A1",
"D  c #899AA4",
"F  c #929EA5",
"G  c #909FA9",
"H  c #95A0A6",
"J  c #98A2A7",
"K  c #95A3AA",
"L  c #9AA4AB",
"P  c #9FA8AD",
"I  c #97A6B0",
"U  c #98A7B0",
"Y  c #9BAAB3",
"T  c #A0A9A8",
"R  c #A5B5A2",
"E  c #A5AEB3",
"W  c #A2AFB8",
"Q  c #A3B0B5",
"!  c #A8B1B6",
"~  c #ABBCB3",
"^  c #A4B2B9",
"/  c #ABB6BB",
"(  c #B0BABE",
")  c #C19B9F",
"_  c #D19799",
"`  c #DB9C9E",
"'  c #DCABAC",
"]  c #DCB4B4",
"[  c #DBB8B9",
"{  c #E6A3A3",
"}  c #E4AFAF",
"|  c #E3BDBC",
" . c #B4C783",
".. c #BDCD83",
"X. c #B6CA8B",
"o. c #B6C991",
"O. c #B3C79C",
"+. c #AEC2A6",
"@. c #AFC4AA",
"#. c #B2C2A3",
"$. c #B1C5AD",
"%. c #B4D1A7",
"&. c #BCD1A4",
"*. c #B5C8B7",
"=. c #BBD4BC",
"-. c #C1D584",
";. c #C2D982",
":. c #C6D98A",
">. c #C3D791",
",. c #C1D997",
"<. c #C8DA93",
"1. c #C3D49C",
"2. c #C0DA99",
"3. c #C3D6A1",
"4. c #C3D9A0",
"5. c #C6D8AB",
"6. c #C8DBAC",
"7. c #D2DBA9",
"8. c #CDCFBD",
"9. c #D3C1B9",
"0. c #C6D4B6",
"q. c #C6D8B9",
"w. c #C4D9BC",
"e. c #CDE0A7",
"r. c #CFE1AB",
"t. c #D6E2B5",
"y. c #D3E3BB",
"u. c #E8EEAA",
"i. c #E5EEBE",
"p. c #A7B8C2",
"a. c #ABBBC4",
"s. c #AEBFC8",
"d. c #B2BCC1",
"f. c #B5C0C6",
"g. c #BACCC1",
"h. c #B5C4CB",
"j. c #BAC5CB",
"k. c #B6C8CF",
"l. c #BCC9CC",
"z. c #BBCDD3",
"x. c #BFD0D5",
"c. c #C0CBCE",
"v. c #CFCACD",
"b. c #D1C7C9",
"n. c #D1C8CB",
"m. c #C3D9C2",
"M. c #C9D9C6",
"N. c #C5DACA",
"B. c #C3D3D6",
"V. c #CAD3D5",
"C. c #C9D9D2",
"Z. c #C7D6DA",
"A. c #CAD6D9",
"S. c #C6DBDE",
"D. c #CCDADC",
"F. c #D0DEDF",
"G. c #DDDADB",
"H. c #E1D4D4",
"J. c #CCE0CE",
"K. c #D5E5C3",
"L. c #D8E4C4",
"P. c #D6E6C9",
"I. c #CEE0D7",
"U. c #D9EAD7",
"Y. c #D6E3DB",
"T. c #D7E5D8",
"R. c #E2F1CE",
"E. c #CEDDE0",
"W. c #D2DEE0",
"Q. c #CEE1E2",
"!. c #D4E2E3",
"~. c #DBE6E6",
"^. c #DCECE3",
"/. c #DFEDED",
"(. c #E0EDE7",
/* pixels */
"t t t t t t t t t t t t t t t t >.S.S.S.w.y t t t t t t t t t t t t t t t q.S.S.S.,.t t t t t t t u t t t t t t t t t u ",
"t t t t t t u t t t t t u t t t >.S.S.S.q.r t t t t t t t t t t t t t t y 0.S.S.S.2.t t t t t t t t t t t t t t u t t t ",
"t t t t t t t t t t t t 5 5 7 t >.D.S.Z.q.r e t t t t t t t t t t t t t e q.S.D.S.2.t t t t t t t t t t t t t t t t t t ",
"t t t t t t t t t t t t 5 8 8 u ,.V.V.V.0...;.u y u t t t t t t u u ;.;.-.0.V.V.V.4.u ..y u t t t t t t t t t t t t t t ",
"t t u t t t t t u 7 7 7 X.=.=.w.8.] ] ] 9.w.g.g.5.y t t t t t t u e.m.w.M.[ ] ] ] 8.w.g.m.2.t t t t t t u t t t t t t t ",
"t t t t t t t t 7 5 5 5 1.E.E.E.v.{ { { [ S.Q.E.m.;.t t t t t t r g.S.S.A.[ { { { b.E.S.E.6.t t t t t t t t t t t t t t ",
"t t t t t u t t 7 5 5 5 &.S.x.Q.v.{ { { ] Z.E.x.N.;.t t t t t t ;.m.S.S.S.[ { { { b.S.Q.E.5.e t t t t t t t t t t t t t ",
"t t t t t t t t t 5 5 5 &.S.S.S.v.{ { { [ Z.E.E.N.;.t t y t t y ;.m.S.S.Z.[ { { ' v.S.x.E.5.7 7 t t t t t t t t t t t t ",
"t t t t t t t u t 5 5 5 e.I.E.S.v.{ { { | W.~.~.!.P.L.L.L.L.L.M.P.!.~.~.Q.G.G.H.G.D.D.S.S.&.5 5 t t t t t t t t t t t t ",
"t t t t t t t t t 5 5 5 2.S.S.S.v.{ { { | (.(./././.~././././././.(././././././.~.W.S.S.S.%.5 5 t t t t t t t t t t t t ",
"t t t t t t t t t 5 5 5 &.S.x.Q.v.{ { { | W.(./././././.(././././././././././././.Q.S.S.Z.&.2 2 t t t t t t t t t t t t ",
"t t t t t t t t t t t t &.S.S.S.n.{ { { | (./././././././././././././././././././.Q.S.S.D.3.t t t t t t t t t t t t t t ",
"t t t t t t t t 4.w.m.m.J.^.!.~.!.G.H.H.[ v d p F F./././././././././././././././.H p p p T L.L.i.r.t t t t t t t t t t ",
"t t t t t t t t w.S.S.S.!./././././.~./.^ X     # V././././././././././././././.(.d       m /./.(.R.t t t t t t t t t t ",
"t t t t t t 7 7 w.I.S.S.Q././././././././ X     # A./././././././././././././././.p       m (./.(.L.t t t t t t t t t t ",
"t t t t t t 7 7 =.S.x.S.Q././././././././ X     # V./././././././././././././././.v       m /./.(.R.t t t t t t t t t t ",
"t t t t t t t t *.k.k.k.z.x.x.x.S././././ X     i v./././././././././././././././.l       m /././.P.t t t t t t t t t t ",
"t t t t t t t t @.p.p.p.p.p.p.p.z././././ X     i V./././././././././././././././.d       m /././.P.t t 7 t t t t t t t ",
"t t t t t t t t +.p.p.p.p.p.p.p.k././././ X     i V./././././././././././././././.p       m /././.P.t t t t t t 7 t t t ",
"t t t t t t t t +.p.p.p.p.p.p.p.k././././ X     i A./././././././././././././././.v       m /././.P.t t t t t t t t t t ",
"t t t t u X.o.o.*.k.k.h.k.z.z.z.D./././.c.m v v L W././././././.~.d.E E ! V./././.W v v v / /././.T.o.o.o...e 7 t t t t ",
"t t t e %.p.p.p.z.S.S.S.Q./././././././.(././.(././././././././.E.p     . ! /./././././././././.(.W.p.p.p.@.e t t t t t ",
"t t t q #.p.p.p.z.S.S.S.Q./././././././././././././././././././.E.p     . ! /././././././././././.E.p.p.p.#.e e 7 t t t ",
"t t t e #.p.p.p.z.S.S.Q.Q././././././././././././././././././.~.A.p     o ! /././././././././././.E.p.p.p.~ e 7 t t t 7 ",
"t t t e o.R #.~ *.z.z.k.z.S.S.x.W././././././././././././.W T E L l $ % % N E P E V.(./././././.(.Y.#.#.#.X.e t t t t t ",
"t t t e t t t t $.d.a.a.p.p.p.h.z././././././././././././.X X X + B ` _ _ % o o . ( /././././././.P.q t q e t t t t t t ",
"t t t t t t t t +.p.p.p.p.p.p.p.k././././././././././././.      o _ ` { ` $       / /././././././.P.t t t t t t t t 7 t ",
"t t t t t t t t ~ p.p.p.p.p.p.p.k././././././././././././.      o B { { ` $       a./././././././.P.t t t t t t t t t t ",
"t t t t w w w w #.f.h.h.p.h.h.h.B.(./././././././././././.# @ @ p ) } } ' l i + @ d./././././././.P.....w e e t t t t t ",
"t t t e O.a.a.p.k.S.S.x.Q.!./././././././././././././././.~./.~.W././././.W.~.~./.(./././././././.Q.p.p.p.+.q t t t t t ",
"t t t e #.p.p.p.z.E.S.S.Q./././././././././././././././././././././././././././././././././././.(.E.p.p.p.+.e t t t t 7 ",
"t t t q #.p.p.p.z.I.S.S.Q././././././././././././././././././././././././././././././././././././.E.p.p.p.@.e t 7 t t t ",
"t t t e O.~ $.$.=.N.J.J.I./.~.~././././././././././././././././././././././././././././././.U.U.U.J.~ ~ ! O.q t t t t t ",
"t t t 7 e e r 7 r r e u &.x.Q.S.E./././././././././././././././././././././././././././.(.y.y t t u t t t t t t t t t t ",
"t t 7 7 e 7 7 t 7 7 7 7 e.x.S.S.Q././././././././././././././././././././././././././././.t.t t t t t t t t t t t t t t ",
"t t 7 7 7 7 t t 7 7 7 7 &.Q.S.Q.E././././././.(././././././.(.(./././././././././././.(./.y.t t t t t t t t t t t t t t ",
"t t t t t t t t 7 7 u 7 2.N.N.N.C.D.Q.D.E.W.!.!.~.!.!.W.!.Y.!.!.W.W.W.W.W.G.W.W.W.T.U.U.U.r.t t t t t t t t t t t t t t ",
"t 7 t t t t t t 7 7 7 7 r :.-...O.P P Y E ( d.d.d.d.d.d.( ( d.d.d.d.d.d.d.d.d.s.*.&.<.:.:.;.t t t t t t t t t t t t t t ",
"t 7 t t 7 t t t t t t t t t t t  .S D m F E E E E E E E ! E ! E ! ! E ! ! E / ! W X.t t 7 t t t t t t t t t t t t t t t ",
"t t t t t t t t t t t 7 t t t 7 9 S M D G E ! E ! E ! E E E E E ! ! E E E E E ! ~ X.t t 7 t t t t t t t t t t t t t t t ",
"t t t t t t t t t t t t t t t t 9 m S S G E E E E E E E E E ! E E ! E E Q Q Q Q W X.7 e t t t t t t t t t t t t t t t t ",
"t t t u.u.u.t t t 7 t t t t t t  .I I I D b b b j j b v b E E E T v v p a a s s d 3 7 7 t t t 7 t t 7 t 7 t t t t t t t ",
"t t t u.u.u.t t t t t t 7 t t t  .Y Y Y G h f f f f f f f E E E L v i i # a * # # 3 t t t t 7 7 t t t t t t t t t t t t ",
"t t 7 u.u.u.t 7 t t t t t t t t  .U Y Y G h f f f f f f f E E ! T d i # i i i a a 3 t 7 t t 7 7 t t t t t t t t t t t t ",
"u.u.u.t t t t t t t t t 7 e 7 7  .I I I D j f f f h h h f Q W Y L v i p # # # # # < e e e e 7 7 t t t t t t t 7 t t t t ",
"u.u.u.t t t t t t t 7 t 3 z z z h j k k n K H H P ! / / / d f s v m J J J S b k n & & & & > 7 7 t 7 t t t t t t t t t t ",
"u.u.u.t t t t t t t 7 7 < g g g g g g g k I Y Y W f.j.h.j.# i i p H E ! Q H M S D i O O O = 7 7 7 t t t t t t t t t t t ",
"u.u.u.t t t t 7 t t t 7 < g g g g g g g k I Y Y W f.j.l.l.# * # p H E E Q H S S M i O O O = e 7 t t t t t t 7 t t t t t ",
"u.u.u.t t t t 7 t t t t < g g g g g g g k U Y Y W f.h.h.h.a a a d H E Y E F S S S i O O O = t t t t t t t t t t t t t t ",
"u.u.u.7 t t t t t t t t < g g g g g g g k I Y Y Y ^ / / / m n m m F K H H D S S S i O O O = t t t t t t 7 t t t t t t t ",
"u.u.u.t t t t t t t t 7 < g g g g g g g k I Y Y Y Y Y Y Y E E E E D S S S S M S m i O O O = t t t t t t t t t t t t t t ",
"u.u.u.t t t 7 t t t t t < g g g g g g g k I Y Y Y Y Y Y Y E E E E H m S S S D m D i O O O = t t t t t 7 t t t t 7 t t t ",
"u.u.u.t t t t t t t t t < h g g g g g g k I Y Y Y Y Y Y Y W E E P H m D S S S D D i O O O = 7 t t t t t t 7 t t t t t t ",
"t t t t t t t t t t t t e.#.#.A C D D D G U Y Y Y Y Y Y Y Y E Y P D n D S S n D S c > > > 2 t t t t t t t t 7 t t t t t ",
"t t t 7 t t 7 t t t t t u.u.u.t  .Y Y Y Y Y Y Y Y Y Y Y Y Y Y Y Y D D M D S S S S 9 e 7 t t t t t t t t t t t t 7 t t t ",
"t t t t t t t t t t t t u.u.u.t  .Y Y Y Y Y Y Y Y Y Y Y Y Y Y Y Y D S S n D m S S 9 7 7 t t t t t 7 t t t t t t t t t 7 ",
"t t t t t 7 t t t t t t t t t u.7.Y Y Y Y Y Y Y Y Y Y Y Y Y Y Y Y S S m S S S S m  .u.u.u.e t 7 u.u.u.t t t t t t t t t ",
"t t t 7 t t t t t t t t t t t u.t.k.l.l.s.Y Y Y Y Y Y Y Y Y Y Y Y D S S S S S S S 4 u.u.u.t t t u.u.u.7 t t 7 t t t t t ",
"t t t t t t t t t t t t t t t u.i.~././.B.W Y Y Y Y Y Y Y Y Y Y P D S S S S m S S 4 u.u.u.t t t u.u.u.t t t t t t t 7 t ",
"t t t t t t t t t t t t t t t u.i./././.Z.Q Y Y Y Y Y Y Y Y Y Y I D S S S S S S S 4 t t t u.u.u.t t t t t t t t t t t t ",
"7 t t t t t t t t t t t t t t u.i./././.Z.W Y Y Y Y Y Y Y Y Y Y P D M m S S S S m 4 t t t u.u.u.t t t t t 7 t t t t t t ",
"t t t t t t 7 t t t t t y <.<.i.R./././.B.I H G K R R R R R R R Z M k j n C C C C 2 t t t u.u.u.t t 7 t t t t t t t t 7 ",
"t t t t t t t 7 t t t t r./.(./././././.l.n f f x 0 e 7 t t t t 0 - * i * 1 e 7 t t t t t t t 7 t t t t t t t t t t t t ",
"t 7 t t t t t t t t t e e././.(././././.l.b f f x 0 t t t 7 t 7 0 - # # * < 7 7 7 t t t t t t t t t t t t t t t 7 t t t ",
"t t t t t 7 t t 7 t t t e./././././././.j.n f f x 0 t t t t t t 0 - # # * < t t e t t t t t t t t t t t t t t t t t t t ",
"t t t t t t t t :.<.<.<.y./././.^.P.K.P.0.V c c V 0 t t t t t t q , ; ; : 6 t t t t t t 7 t t t t t t t 7 t t t t t t t ",
"t t 7 t t t t t y.(.(.(.(./././.P.u t u t q q q t t t t t t t t t e q q e 7 7 t t t t t t t t t t t t t t t t t t 7 t t ",
"t t t t 7 t t t K./././././././.P.t t t t t t t t t t t t t t t t t 7 t t t t t t t t t t t t t 7 t t t t 7 t t t t t t ",
"t t t t t t t t K./././././././.P.t t t t t t t t t t t t t t t t t t t t t t t t t t t t t t t t t t t t t t t t 7 t t ",
"t t 7 t t t t t K./././././././.P.t t t t t t t t t t t t t t t 7 t t t t t t t t t t t t 7 7 t t t t 7 t t t t t t t t ",
"t t t t t t t t K././././././.(.P.t t t t t t t t t t t t t t t t t t t t 7 7 t t t t t t t t t t t t t t t 7 t t t t t ",
"t t t t t t 7 t P./././././././.P.t t t t t t t t t t t t t t t t t t t t t t t t 7 t t t t t t t t t t t t t t t t t t ",
"t t t t t t t t K./././././././.L.t 7 t t t t t t t t t t t t t t t t t t t t t t t 7 t t t 7 7 7 t t t t 7 t t t t t t ",
"t 7 t t t t t 7 K./././././././.L.t t t t t t t t 7 t t t t t 7 t t t 7 t t t t t t t t t t t e t t t t t t t t t t 7 t "
};
