/* XPM */
static char *jump_12[] = {
/* columns rows colors chars-per-pixel */
"60 74 125 2 ",
"   c #4E4D5C",
".  c #575765",
"X  c #5C6D77",
"o  c #60616E",
"O  c #74626D",
"+  c #696B77",
"@  c #7D6772",
"#  c #6D7F74",
"$  c #74827E",
"%  c #82907B",
"&  c #94A772",
"*  c #9EB47E",
"=  c #A5B97A",
"-  c #A5C263",
";  c #B2C76F",
":  c #B3C674",
">  c #B7C970",
",  c #BBCF72",
"<  c #BDD173",
"1  c #BFD37C",
"2  c #C0D470",
"3  c #C3D679",
"4  c #6E7A80",
"5  c #758086",
"6  c #75858E",
"7  c #78848A",
"8  c #7B888F",
"9  c #7F948D",
"0  c #728794",
"q  c #7F8A90",
"w  c #8E878F",
"e  c #91878F",
"r  c #839389",
"t  c #8E9F8C",
"y  c #848A92",
"u  c #8A8F98",
"i  c #839396",
"p  c #87949C",
"a  c #8D969D",
"s  c #8F9E9B",
"d  c #AD8288",
"f  c #95A78E",
"g  c #94A596",
"h  c #90A09B",
"j  c #ACBE81",
"k  c #A0B38B",
"l  c #ACBA8B",
"z  c #869AA4",
"x  c #8A98A0",
"c  c #939EA5",
"v  c #93A0A7",
"b  c #95A4AE",
"n  c #9DA6AC",
"m  c #9FA8AD",
"M  c #9BAAB3",
"N  c #A5B2AE",
"B  c #ADBEAD",
"V  c #A6AFB4",
"C  c #A6B0B5",
"Z  c #A9B1B5",
"A  c #AABDB3",
"S  c #A4B2BA",
"D  c #AAB7BE",
"F  c #AEBBBB",
"G  c #B1BBBF",
"H  c #DFB1B1",
"J  c #D6BBB5",
"K  c #DBB9B5",
"L  c #E6A3A3",
"P  c #E2ABAC",
"I  c #E5B0B1",
"U  c #AFC28C",
"Y  c #B2C286",
"T  c #B3C48A",
"R  c #B0C889",
"E  c #BFD281",
"W  c #B2CB9A",
"Q  c #AFC1A3",
"!  c #B1C3A3",
"~  c #B6C8AB",
"^  c #AEC0B3",
"/  c #AFC2BE",
"(  c #C2D981",
")  c #C1D68C",
"_  c #C2D694",
"`  c #C2D991",
"'  c #C9DC91",
"]  c #C3D89A",
"[  c #CBDC9D",
"{  c #C3D6A0",
"}  c #C4D8A1",
"|  c #C4D9AB",
" . c #C3D9BA",
".. c #CDE0A7",
"X. c #CFE1AB",
"o. c #D2E1B3",
"O. c #E8EEAA",
"+. c #E7F0BD",
"@. c #A7B8C2",
"#. c #ADBDC6",
"$. c #B4BEC2",
"%. c #AEC0C8",
"&. c #B2C3CB",
"*. c #BAC4CA",
"=. c #B6C8CE",
"-. c #BFD4C0",
";. c #BCCBD2",
":. c #C5D9C2",
">. c #CBDDC2",
",. c #C3D9CA",
"<. c #C3CFD1",
"1. c #C7D2D5",
"2. c #C8D4D6",
"3. c #C6DBD1",
"4. c #C6DBDE",
"5. c #E2CACA",
"6. c #CCE0CE",
"7. c #D5E4C4",
"8. c #D6E5CC",
"9. c #DDE9DB",
"0. c #D2E3E4",
"q. c #D8E6E7",
"w. c #D7E7E8",
"e. c #D9E7E8",
"r. c #DFEDED",
/* pixels */
"2 2 2 2 3 2 2 2 2 2 2 2 3 2 2 2 2 2 2 3 2 2 2 2 2 2 2 2 2 2 2 2 2 2 2 2 3 2 2 2 2 2 2 2 2 2 2 2 2 2 2 2 2 2 2 2 2 2 2 2 ",
"2 2 2 2 2 2 2 2 2 2 2 2 2 2 2 2 2 2 2 2 2 2 2 2 2 2 2 2 2 2 2 2 2 2 2 2 2 2 2 2 2 2 2 2 2 2 2 2 3 2 2 2 2 2 3 2 2 2 2 2 ",
"2 2 2 2 2 2 2 2 2 2 2 2 - - - 2 2 2 2 2 2 2 3 2 2 2 2 2 2 2 3 2 2 2 2 2 2 2 2 2 2 2 2 < 2 2 2 2 2 2 2 2 2 2 2 2 2 2 2 2 ",
"2 2 2 2 2 2 2 2 2 2 2 2 - - - 2 2 2 2 2 2 2 2 2 2 2 2 2 2 2 2 2 2 2 2 2 2 2 2 2 2 2 2 1 2 2 2 2 2 2 2 2 2 2 2 2 2 2 2 2 ",
"2 2 2 2 2 3 2 2 2 2 2 2 - - - 2 ` _ _ _ ) 2 2 2 2 2 2 2 2 2 2 2 2 2 2 2 2 2 2 ' ` _ _ E 2 2 2 2 2 2 2 2 2 2 2 2 2 2 2 2 ",
"2 2 2 2 2 2 2 2 2 - - - 2 2 2 2 3.4.4.4.,.2 2 2 2 2 2 2 2 2 2 2 2 3 2 2 2 2 2 o.4.4.4.4.2 2 2 2 2 2 2 2 3 2 2 2 2 2 2 3 ",
"2 2 2 2 2 2 2 2 2 - - - 2 2 3 2 3.4.4.4.,.2 2 2 2 2 3 2 2 2 2 2 2 2 2 2 2 2 2 7.4.4.4.3.2 2 2 2 2 2 2 2 2 2 2 2 2 2 2 2 ",
"2 2 2 2 2 2 2 2 2 - - - 2 2 2 2 3.4.4.4.,.2 < 2 2 2 2 2 2 2 2 2 2 2 2 2 2 2 < -.4.4.4.6.2 2 2 < 2 2 2 2 2 2 2 2 2 2 2 2 ",
"2 2 2 2 2 2 2 2 2 - - - 2 2 2 2 ,.4.4.4.:.< 2 2 2 2 2 2 2 2 2 2 2 2 2 2 < < <  .4.4.4.4., - - = 2 2 2 2 2 2 2 2 2 2 2 2 ",
"2 2 2 2 2 2 2 3 2 - - E :.:.>.:.K P I H J >.:.:.>.' 2 2 2 2 2 2 2 2 ( 7.6.:. .| I I H H :.-.:.-.O.2 2 2 2 2 2 2 2 2 2 2 ",
"2 3 2 2 2 2 2 2 2 - - W 4.4.4.4.P L L L H 4.4.4.4.W 2 2 2 2 2 2 3 2 _ 4.4.4.4.H L L L L 4.4.4.4.[ 2 2 2 3 2 2 2 2 2 2 2 ",
"2 2 2 2 2 2 2 2 2 2 2 [ 4.4.4.4.L L L L P 4.4.4.4.[ 2 2 2 2 2 2 2 2 W 4.4.4.4.H L L L L 4.4.4.4...2 2 2 2 2 2 2 2 2 2 2 ",
"2 2 2 2 2 2 2 2 2 2 2 { 4.4.4.4.P L L L H 4.4.4.4.] < 2 2 2 2 2 2 2 ] 4.4.4.4.I L L L P 4.4.4.4.| 2 2 2 2 2 2 2 2 2 2 2 ",
"2 2 2 2 2 2 2 2 2 2 2 { 4.4.4.4.P L L L P 4.4.4.4.[ 3 3 3 2 3 3 3 3 ] 6.4.4.4.K L L L H 4.4.4.4.| 2 2 2 2 3 2 2 2 2 2 3 ",
"2 2 2 2 2 2 2 2 2 2 2 { 4.4.4.4.P L L L I r.r.r.r.r.r.r.r.r.r.r.r.r.r.r.r.r.r.r.r.r.r.w.4.4.4.4.| 2 2 2 2 2 2 2 2 2 2 2 ",
"2 2 2 2 2 2 2 2 2 2 3 { 4.4.4.4.P L L L I r.r.r.r.r.r.r.r.r.r.r.r.r.r.r.r.r.r.r.r.r.r.r.4.4.4.4.| 2 2 2 2 2 2 2 2 2 2 2 ",
"2 2 2 2 2 2 2 2 2 2 2 } 4.4.4.4.P L L L P r.r.r.r.r.r.r.r.r.r.r.r.r.r.r.r.r.r.r.r.r.r.r.4.4.4.4.| 2 2 2 2 2 2 2 2 2 2 2 ",
"2 2 2 2 2 2 2 2 2 < 2 } 4.4.4.4.P L L L I r.r.r.r.r.r.r.r.r.r.r.r.r.r.r.r.r.r.r.r.r.r.r.4.4.4.4.| 2 2 2 2 2 2 2 2 2 2 2 ",
"2 2 2 2 2 3 2 X.| | | :.w.w.0.0.5.5.5.5.5.r.r.r.r.r.r.r.r.r.r.r.r.r.r.r.r.r.r.r.r.r.r.r.0.0.0.0.8.o.X.X.X.3 2 2 2 2 2 2 ",
"2 2 2 2 2 2 3 6.4.4.4.0.r.r.r.r.r.r.r.r.r.r.r.r.r.r.r.r.r.r.r.r.r.r.r.r.r.r.r.r.r.r.r.r.r.r.r.r.r.r.r.r.r.( 2 2 2 2 2 2 ",
"2 2 2 2 2 2 2 4.4.4.4.0.r.r.r.r.r.r.r.r.r.r.r.r.r.r.r.r.r.r.r.r.r.r.r.r.r.r.r.r.r.r.r.r.r.r.r.r.r.r.r.r.r.( 2 2 2 2 2 2 ",
"2 2 2 2 2 2 2 4.4.4.4.0.r.r.r.r.r.r.r.r.r.r.r.r.r.r.r.r.r.r.r.r.r.r.r.r.r.r.r.r.r.r.r.r.r.r.r.r.r.r.r.r.r.( 2 < 2 2 2 2 ",
"2 2 < < 2 2 3 4.4.4.4.0.r.r.r.r.r.r.r.r.r.r.r.r.r.r.r.r.r.r.r.r.r.r.r.r.r.r.r.r.r.r.r.r.r.r.r.r.r.r.r.r.r.( 2 < 2 2 2 2 ",
"2 2 Q A F A F #.%.@.@.%.%.%.%.%.w.r.r.r.1.o o o o G r.r.r.r.r.r.r.r.r.r.r.r.r.r.r.r.r.0.o o o o b r.r.r.r./ ^ ^ ^ Q 2 2 ",
"2 < Q @.@.@.@.@.@.@.@.@.@.@.@.@.w.r.r.r.<.        Z r.r.r.r.r.r.r.r.r.r.r.r.r.r.r.r.r.0.        s r.r.r.r.%.@.@.@.A 2 2 ",
"2 2 ^ @.@.@.@.@.@.@.@.@.@.@.@.@.q.r.r.r.<.        Z r.r.r.r.r.r.r.r.r.r.r.r.r.r.r.r.r.9.        p r.r.r.r.%.@.@.@.A 2 2 ",
"2 2 B @.@.@.@.@.@.@.@.@.@.@.@.@.q.r.r.r.1.        Z r.r.r.r.r.r.r.r.r.r.r.r.r.r.r.r.r.0.        s r.r.r.r.%.@.@.@.^ < 2 ",
"2 2 Q A A A ^ %.#.#.%.%.%.&.%.&.q.r.r.r.2.+ + + + G r.r.r.r.r.r.r.r.0.<.<.<.<.e.r.r.r.q.+ + + + b r.r.r.r.^ A A A Q < 2 ",
"2 2 2 2 2 2 2 4.4.4.4.w.r.r.r.r.r.r.r.r.r.r.r.r.r.r.r.r.r.r.r.r.r.r.G         *.r.r.r.r.r.r.r.r.r.r.r.r.r.( 2 2 2 2 < 2 ",
"2 < 2 2 2 < 2 4.4.4.;.0.r.r.r.r.r.r.r.r.r.r.r.r.r.r.r.r.r.r.r.r.r.r.G         *.r.r.r.r.r.r.r.r.r.r.r.r.r.( 2 2 2 2 2 2 ",
"2 2 2 2 2 2 2 4.4.4.4.0.r.r.r.r.r.r.r.r.r.r.r.r.r.r.r.r.r.r.r.r.r.r.G         *.r.r.r.r.r.r.r.r.r.r.r.r.r.3 2 2 2 2 2 2 ",
"2 2 2 2 2 2 2 4.4.4.4.0.r.r.r.r.r.r.r.r.r.r.r.r.r.r.r.r.r.r.r.r.r.r.G         *.r.r.r.r.r.r.r.r.r.r.r.r.r.3 2 2 2 2 2 2 ",
"< < W Q ! ! Q &.&.=.&.=.;.;.;.;.r.r.r.r.r.r.r.r.r.r.r.r.r.r.y y y y e d d d d e w y y u r.r.r.r.r.r.r.r.r.~ ! ! ! W < 2 ",
"< < ^ @.@.@.@.@.@.@.@.@.@.@.@.@.e.r.r.r.r.r.r.r.r.r.r.r.r.r.        @ L L L L O       . r.r.r.r.r.r.r.r.r.%.@.@.@.A 2 2 ",
"2 2 Q @.@.@.@.@.@.@.@.@.@.@.@.@.e.r.r.r.r.r.r.r.r.r.r.r.r.r.        @ L L L L O       . r.r.r.r.r.r.r.r.r.$.@.@.@.B < 2 ",
"2 2 ^ @.@.@.@.S @.@.@.@.@.@.@.@.e.r.r.r.r.r.r.r.r.r.r.r.r.r.        @ L L L L O       . r.r.r.r.r.r.r.r.r.%.@.@.@.A 2 2 ",
"2 < ! / %.D @.%.@.@.@.@.@.@.@.@.e.r.r.r.r.r.r.r.r.r.r.r.r.r.        @ L L L L O       . r.r.r.r.r.r.r.r.r.%.@.@.D ^ 2 2 ",
"2 2 < < 2 2 < 4.4.4.4.0.r.r.r.r.r.r.r.r.r.r.r.r.r.r.r.r.r.r.r.r.r.r.r.r.r.r.r.r.r.r.r.r.r.r.r.r.r.r.r.r.r.( 2 2 < 2 2 2 ",
"2 2 < < 2 2 < 4.4.4.4.0.r.r.r.r.r.r.r.r.r.r.r.r.r.r.r.r.r.r.r.r.r.r.r.r.r.r.r.r.r.r.r.r.r.r.r.r.r.r.r.r.r.( 2 2 < 2 2 2 ",
"2 2 2 2 < < < 4.4.4.4.0.r.r.r.r.r.r.r.r.r.r.r.r.r.r.r.r.r.r.r.r.r.r.r.r.r.r.r.r.r.r.r.r.r.r.r.r.r.r.r.r.r.( 2 2 2 2 2 2 ",
"2 2 2 2 2 2 2 6.0.4.4.0.r.r.r.r.r.r.r.r.r.r.r.r.r.r.r.r.r.r.r.r.r.r.r.r.r.r.r.r.r.r.r.r.r.r.r.r.r.r.r.r.r.2 2 2 < 2 2 2 ",
"2 2 2 O.O.O.<  . . . .6.w.w.w.w.r.r.r.r.r.r.r.r.r.r.r.r.r.r.r.r.r.r.r.r.r.r.r.r.r.r.r.r.r.r.r.r.9.7.7.7.o.2 2 2 2 2 2 2 ",
"2 2 2 O.O.O.< 2 2 2 2 W 4.4.4.4.r.r.r.r.r.r.r.r.r.r.r.r.r.r.r.r.r.r.r.r.r.r.r.r.r.r.r.r.r.r.r.r.o.2 2 2 3 2 2 2 2 2 2 2 ",
"2 < 2 O.O.O.2 2 2 2 2 } 4.4.4.4.e.r.r.r.r.r.r.r.r.r.r.r.r.r.r.r.r.r.r.r.r.r.r.r.r.r.r.r.r.r.r.r.o.2 2 2 2 2 2 2 2 2 2 2 ",
"O.O.O.2 2 2 2 2 2 2 2 [ 4.4.4.4.e.r.r.r.r.r.r.r.r.r.r.r.r.r.r.r.r.r.r.r.r.r.r.r.r.r.r.r.r.r.r.r.o.2 2 2 2 2 2 2 2 2 2 2 ",
"O.O.O.2 2 2 2 < 2 < 2 ] 4.4.4.4.r.r.r.r.r.r.r.r.r.r.r.r.r.r.r.r.r.r.r.r.r.r.r.r.r.r.r.r.r.r.r.r.o.2 2 2 2 2 2 2 2 2 2 2 ",
"O.O.O.2 2 2 2 2 2 2 2 1 E E ) ) N M V M V $.$.$.$.$.$.$.$.$.V M N M S $.%.$.G $.$.G $.G ' ' ' ' ( 2 2 2 2 2 2 2 2 2 2 2 ",
"O.O.O.2 2 2 2 2 2 2 2 < 3 1 2 < s x x x c V C C V V V V V V x x p x v Z N Z Z Z Z Z Z N 2 2 2 2 2 2 2 2 2 2 2 < 2 2 2 < ",
"O.O.O.2 2 2 2 2 2 2 2 2 2 2 2 2 s x x x c V V V C C V C V V x x x x c V V V V V V V V N 2 2 2 < 2 2 2 2 2 2 2 2 2 2 2 2 ",
"O.O.O.2 2 2 2 2 2 < 2 < 2 2 2 2 a x x x x V V V V V C V V V x x x x c V V Z N V C V V N 2 2 2 < 2 2 2 2 , 2 2 2 2 2 2 2 ",
"O.O.O.< 2 2 < 2 2 2 2 < < < < < c x z z c V V V C C C C Z V x x x x c V V V V V V V V Z < < < < < 2 2 2 2 2 2 2 2 2 2 2 ",
"r.r.+.2 2 2 2 2 2 2 2 : M M M N M M M M S *.*.*.*.*.*.*.*.*.Z V V C V V V Z V C V V V V s p x x k 2 2 2 2 2 2 2 2 2 2 2 ",
"r.r.+.2 2 2 2 2 2 2 < U M M M M M M M M @.*.*.*.*.*.*.*.*.*.V C V V V C V V V V V V V V x x x x k 2 2 2 2 2 2 2 2 2 2 2 ",
"r.r.' 2 2 2 2 2 2 2 2 U M M M M M M M M V *.*.*.*.*.*.*.*.*.V V V C Z V C C V V V C V V x x x x k 2 2 2 2 2 2 2 2 2 2 2 ",
"r.r.' 2 2 2 2 < 2 2 < R M M M M M M M M M $.$.*.*.$.*.*.*.*.C V V V V V C C C C C Z V m x x x x k 2 2 2 2 2 2 2 2 2 , 2 ",
"o.o.X.........* * * k f z z z z b M M M M V m M V n V n M n V V Z V n a a a a a a a a a p x x x t & & & & , < 2 2 2 2 2 ",
"2 2 8.r.r.r.w.0 6 0 0 0 0 0 0 0 b M M M b 0 8 8 8 8 8 8 8 8 C V V V c 4 4 4 4 4 4 4 4 4 x x x x 5 X X X X ; 2 2 2 2 2 2 ",
"2 2 8.r.r.r.e.0 0 0 0 0 0 0 0 0 b M M M b 8 8 8 8 8 8 8 8 q V Z V V c 4 4 4 4 4 4 4 4 4 x x x x 7 X X X X ; 2 2 2 2 2 2 ",
"2 2 8.r.r.r.w.0 0 0 0 0 0 0 0 0 b M M M b 8 8 8 8 8 8 8 8 8 Z Z V Z c 4 4 4 4 4 4 4 4 4 x x x x 7 X X X X ; 2 2 2 2 2 2 ",
"2 2 8.r.r.r.w.0 0 0 0 0 0 0 0 0 b M M M b 8 8 8 8 8 8 8 8 8 Z Z V V c # 4 4 4 4 4 4 4 4 x x x x 6 X X X X ; 2 2 2 2 2 2 ",
"2 2 3 3 3 3 E 0 0 0 0 0 0 0 0 0 b M M M M b b b b D $.$.$.$.4 4 7 4 y m m m m x p p p p x x x p 6 X X X X ; 2 2 2 2 2 2 ",
"2 2 2 2 2 2 < 0 0 0 0 0 0 0 0 0 b M M M M M M M M @.*.$.*.*.4 4 4 4 q V V V V c x x x x x x x z 6 X X X X ; 2 2 2 2 2 2 ",
"2 2 2 2 2 2 < 0 0 0 0 0 0 0 0 0 b M M M M M M M m #.*.*.*.*.4 4 4 4 q V V V V c x x x x x x z s 6 X X X X ; 2 2 2 2 2 2 ",
"2 2 2 2 < < < 0 0 0 0 0 0 0 0 0 b M M M M M M M M #.*.*.*.*.4 4 4 4 y V V V V c x x x x x p p s 6 X X X o - 2 2 2 2 2 2 ",
"2 2 2 2 2 2 < 9 9 9 9 i z z z z M M M M M M M M M @.%.%.%.*.5 5 7 7 y M m V M x x x x x g g g g r $ $ $ $ 2 2 2 2 2 2 2 ",
"2 2 2 2 2 2 2 < 2 2 2 ..r.r.r.r.A M M M M M M M M M M M m M Z Z V V M x x a x x x x x h 2 2 2 < < < 2 , - 2 2 2 2 2 2 2 ",
"2 2 2 2 2 2 2 2 2 2 2 ..r.r.r.r.S M M M M M M M M M M M M M V V V V n x x a z a x x x s 2 2 2 2 2 2 2 2 2 2 2 2 2 2 2 2 ",
"2 2 < 2 2 2 2 2 2 2 2 ..r.r.r.r.S M M M M M M M M M M M M M V V V V n x a z a z x x x s 2 2 2 2 2 2 2 2 2 2 2 2 2 2 2 2 ",
"2 2 2 2 2 < 2 2 2 2 2 ..r.r.r.9.S M m M M M M M M M M M M M V V C C n x a z a a x x p h 2 2 2 2 2 2 2 2 2 2 2 2 2 2 2 2 ",
"2 2 2 < 2 2 2 2 2 2 2 3 [ [ [ ' R U R R l p p p a f T T T T T T T T Y : j j j r 7 7 7 8 2 2 2 2 2 2 2 2 2 2 2 2 2 2 2 2 ",
"2 2 2 2 2 2 2 2 2 2 2 2 2 2 2 2 < 2 2 2 : 8 8 8 8 = 2 2 2 2 2 2 2 2 2 2 < < 2 % 4 4 4 $ 2 2 2 2 2 2 2 2 2 2 2 2 2 2 2 2 ",
"2 2 2 2 2 2 2 2 2 2 2 2 < 2 2 2 < < 2 2 : 8 8 8 8 = 2 2 2 2 2 2 2 2 2 2 2 2 2 % 4 4 4 5 2 2 2 2 2 2 2 2 2 2 2 2 2 2 2 2 ",
"2 2 < 2 2 2 2 2 2 2 2 2 2 2 2 2 2 2 2 2 > 8 8 8 8 = 2 2 2 2 2 2 2 2 2 2 2 2 2 % 4 4 # $ 2 < 2 2 2 2 2 2 2 2 - 2 2 2 2 2 ",
"2 2 2 2 2 2 2 2 2 2 2 2 2 2 2 2 2 2 2 < : 8 8 8 8 = 2 2 2 2 < 2 2 2 2 2 2 2 2 % 4 4 4 $ 2 2 2 2 2 2 2 2 2 2 2 2 2 2 2 2 "
};
