/* XPM */
static char *run_l_5[] = {
/* columns rows colors chars-per-pixel */
"96 96 38 1 ",
"  c #4E4D5C",
". c #5C6D77",
"X c #A4C262",
"o c #A4C362",
"O c #A5C362",
"+ c #A4C263",
"@ c #A5C263",
"# c #A5C363",
"$ c #C0D470",
"% c #C1D470",
"& c #C1D570",
"* c #C0D471",
"= c #C1D471",
"- c #C0D571",
"; c #C1D571",
": c #6E7A80",
"> c #7B888F",
", c #728794",
"< c #9BAAB3",
"1 c #A6AFB4",
"2 c #E6A2A2",
"3 c #E7A2A2",
"4 c #E6A3A2",
"5 c #E7A3A2",
"6 c #E6A2A3",
"7 c #E7A2A3",
"8 c #E6A3A3",
"9 c #E7A3A3",
"0 c #E8EEAA",
"q c #A7B8C2",
"w c #BAC4CA",
"e c #C6DADE",
"r c #C7DADE",
"t c #C6DBDE",
"y c #C7DBDE",
"u c #C6DBDF",
"i c #C7DBDF",
"p c #DFEDED",
/* pixels */
"**&*==%&=&&*&&&&&**&**&*&*&&;;;;;&&&&******&&*&&**&*;;&**&*****&*&&*&&;;;;;;*&*&**&==*&&*****&;;",
"**&*=&%%&&&&#&;&*&&*&&*&&&&*;;&&&&&*==**&&*&&&*&**&&;;&;&&&*&&&*&*&*&#;;;;;;*&*&&****&&&&*&&**;#",
"*&&&&&&&&=*&;;;;&&***&***&&*;;;;&=&=&**&***=&&&&*&*&;;;;**&**&&&*&&&&&&;;;;;&&*&&=*&**&&*&&**&&;",
"&*&*&&&&&&&&;;;;&&&=*&**&&*&;;;;&===&&**&**&&&&**&**;;;;****&&****&*&&;;;;;;*&*&==&*&&&&*&**&&;;",
"&O;;;;&&==&;;;;&=&==&&;&*&&&#&;;&*&**&***&*&&&==**;;;;;;;;;;&&&*&*&**&&&;;&&&*&*;;;;*&&&;=**;;;;",
"**;;;;&&&&&&;;&;&=*&&&;;&**&&&;;*&&&&&*&***&***&&&;;;;;;;;;;&&&****&&&*&;;*****&;;;;&#&&;&**;;;;",
"*;;;;;;&&&;;;&&&====&=;;**&*&;;;*&**&&&&**&&&*&&&#&;;;;;;;;;&**&&&&*&*&*&&&*&&**;;;;;;&;&&&&&;;;",
"*;;;;;;&*=&;&;;;&&&===;;**&*;;;;&&*&***&**&*&*&&&&;;;;;;;;&#&&&***&*&&*=;&==&**&;;;;;;;;&&&&&&;;",
";;;;&=&&**&&*&****&&&&;;;;;;;;;;&**;**&&&&*&&&&&=&&&&&;&;;&&&&&&&&&&**&&&;;;;;;;;;;&**&*&***;;;;",
";;;;=&&&&***###&**###&;;;;;;;;;;***;&&*&&&&*&&&&=&&&=;;&;###&&&&&*&&*&&&&;;;;;;;;;;;==&*&***;;;;",
";;;;=&&&&&&&###&**OO#;;;;;;;;;;;&**;&&&&****&;&;**&;=&;;;###%%&=****&*&&&&;;;;;;&*==&=;=**&&&&&&",
";;;&&#&&****###&=OOO#;;;;;;;;;;;*&**&&**&&&*&;;;&*&===;;;###%===&&&=&*&=&;;;;;;;*=&&**=&&&&*&&#*",
";;;;;;&&;;;;***#OO=%==&&;;;;;;;;*;*&*&**&*;;;;;;****;;;;&%==###%&==&%&&&&;&;;;;;&**&==&;*&&&&&&*",
";;;;;;;&;;;;***###==&&&&;;&;;;;;&&&&*&&*&*;;;;;;*&&*;;;;=%==###%==&&=&&&&;;;;;;;*&*&*=&&*&&&&*&*",
"&&;;;;;;;;=#&&*###&&&&&&&&&&;;;#*&&*&&&*&O;;;;;;*&&*;;;;====OO#=&=&===;;%;&&;;;;&&&*&*&&**&***&&",
"&&&&;;;;;;===&=&=&=&&&&&&&&&;;;o&&****&*&&;;;;;;*&*&;;;;;#==@OO%&&=&==%;%%&&;;;;&****&&******&&&",
"&&=**&&*&=&&&=&&&&*&*==iuurrtrrui&&;;;;&&;;;;;;;&&***yyyyyrtrtu#;;&&&=&***&&;;;;&***=&==;;;;O&&&",
"&&==&*&&&%&&=&*&&;&&*&=irtrtyurti;;;;;;&&;;;;;;;&**&*yyyyytuuyp;&&&===**&&&*#=#;%***==&&;;;;;;&&",
"&&&&&*&*%%==&=*&&*&*=&=iyyrtyyyti&;;;;&#&&;;;;;;&*&&*rriyuyyrrr#&&&&=**&&*==&&&&%###=*&=;;;;;;;&",
"&&&=***&%%%===*&&=&*&&=irtyruryui=;;;;&&&&;;;;;;&&&**rriyyrrrrp;&&&;****&*&*=&==%###&*=&;;;;;;&;",
";;;;**&&&;&=;;;&&&*&==&rttrutrryi%&=&&&&;&&;;;;;&****iiryyyyrrt#;;&;;;;;*&&&&*&%&OOO==&&;;;%;;;&",
";;;;***&&;==;;;&&***&&*48428rrryiiiiyy=&;&&&#;;;&&&&*57744urrtrpyyyy;;;;==*&*&#OO===%;=&;;%;;;;;",
";;;;&&**;&;;;;&&&*&&&**44222ttiyrriiry&=&=;&;;;;*&**&55784utrrrryyyy&&;;*&=*&*###;==;%;;;%%%;;;;",
";;&&#*&&;;;;;;#&&&&*&**44222triiyrrirr&&=&&&;;;;*&&**55782yyytrryyyy&&;;***&**###;;#%%%;%%%%;;;;",
";;;;;;;;;&&&&&&&**&&;;&77999iiiiyyyiiyO*;;;;;;;;;;;;o88888uuuuuutttto#;;=&&&**XX#;;;;;;;;;;&&&;;",
";;;;;;;;;&&&;;&&**&&;;=79999iiiiyyyyiy**;;;;;;;;;;;;#88888uuuutututt;;;;=&&;*+XX#;;;;;;;;;&&%=;#",
"&&;;#;%&%%==;;;;&*O*;;&pppppppppppppppppppppppppppppp98888tuttttyuyy;;;;==;;**OO#;;;;;;;;;;;%%%%",
"&&&&%%%&%%%%;;;;&***;;;pppppppppppppppppppppppppppppp98888ryttttyyyr#;;;==&&&&%%#;;;&;;;;;;#%%%%",
"&&&&&&&&%%&&&&#;&&=*&&&pppppppppppppppppppppppppppppp44844ttttttrrriO&;;***&%%%%;;%%&&&&%%%%;;;;",
";#;;==&&;#;;&&%%&&=&&&#pppppppppppppppppppppppppppppp48844ttttttrrriO&;;**&&=&%%;;#%&&%%%%%%;;;#",
";;;;===&;;;;=%%%;&&&&&&pppppppppppppppppppppppppppppp44444ttttttiirrO&;;;;&%&&;;;;%%%%%%=%&&;;%%",
";;;;==**;;;;=%%%&&ppppppppppppppppppppppppppppppppppppppppttttttiiip##;;;;#%&&;;;;%%%%%%&&&;;;%%",
"%%%%;;;;&&&&;#%%#;ppppppppppppppppppppppppppppppppppppppppyyyyyuyyyiOO;&&&&&&&&%%%;;;;;&;;;;;;%%",
"%%%%;;;;=&&;;%%%;&ppppppppppppppppppppppppppppppppppppppppiyyyuuyyyi&&;;&&&&&;&=%%;;;;&&;#;;;;%%",
"%#&=;;;;=%;;;;%%;;ppppppppppppppppppppppppppppppppppppppppiyttttyyyy&;;;;;&#;;;;%%#;%%&&%%%%;&&%",
";;&&&&#%%%;;;;%=;;ppppppppppppppppppppppppppppppppppppppppiittttyyyy&;;;;;;;;;;;%%;;%%=&%%%%&&&=",
";;;;%%%%%%%#&&&=;;ppppppppppppppp     pppppppppppppppwqqqqqq1qqqqqqq#;;&;;&&&&;;%%=&%%#;&&&%%%%%",
";;;;%=%%%%;;&;&&;;ppppppppppppppp     pppppppppppppppqqqqqqq1qqqqqqq;;;&;;==&&;#%%%&%%;;&;&=%%%%",
"&&;;&=&&;;;;;;;;;;ppppppppppppppp     pppppppppppppppqqqqqqqqqqqqqqq;;;;;&==&%%%%%&&;;;;;;;;#;=%",
"=&&&&&&;;;;;;;;;&;ppppppppppppppp     pppppppppppppppqqqqqqqqqqqqqqr;#;;;&===%%%%%&;;;;;;;;;;;&&",
"%%;;;;;;;;;&&&;;&&ppppppppppppppp     pppppppppppppppqqqqqqqqqqq11qq#;;;;;;;%=&&#;;;;;;;;;;&;;;&",
"%%;;;;&&;;&&=&#%&&     pppppppppppppppppppppppppppppppppppuuuuuuttiu;;;;;;;;%&&&;;;;;#;;;;&&;;&&",
"%%%;%%&&;;;#=%%%&=     pppppppppppppppppppppppppppppppppppuuuuuutttt;;;;;;%#%%;;&&;;%%%%%%&&;;;;",
"%%#;%%=&;;;%%%%%==     pppppppppppppppppppppppppppppppppppuuuuuutttt;;;;;;%%%%;;&;;;%%%%%%==;;;#",
"%%&&%%%#&%%%;;;;**     ppppppppppppppppppppppppppppppppppptuuuuuiiit;;;;&&&=;;;;&&;;;;=%%%;;;&%%",
"%%=&%%;;&&%%;;;;**     ppppppppppppppppppppppppppppppppppptuuuuuyrit;;;;&&%%;;;;%=;#;;&&%%;;&&%%",
"%%&&;;;;&&&&&&;;**99977     ppppppppppppppppppppqqqqqqqq1wqqqq1urrii&&;;%%%%%#%%%%%%;;;&#;;;&%%%",
"%%;;;;;;&*=&&&;;O*99957     ppppppppppppppppppppqqqqqqqqqqqqqqwuriii&&;;#%%%%%%%%%%%;;&&;;;;&=%%",
"%;;;;;;;;;%%%%%#;;99999     ppppppppppppppppppppqqqqqqqqqqqqqqquttttO&&&&&&&&&&%;;%%&&;;%%%=;;;;",
"#;;;#%;;;;%%%%;;;#99999     ppppppppppppppppppppqqqqqqqqqqqqqqqutttt*&*&&&&&&&=%;;#%&&;;%%%&;;;;",
"&;;;%%%%;&&=;;;;%%55999     ppppppppppppppppppppqqqqqqqqqqqqq1qutttt*&&&;;O&;;;;;;%%&=;;%%&&;;%#",
"&;;;%%%%;&&&;;;;%%ppppppppppppppppppppppppppppppppppppppppuuuttutttt**&&;&&&;;;;;;%%%%;;#%&&;;%%",
"&&;;;;&=;;;;;&&&%%ppppppppppppppppppppppppppppppppppppppppttuuuueeyt#%%%;;&&&&;;;;&&%#;;;;;;%%%%",
"=&#%;;&&;;;;;&=&%=ppppppppppppppppppppppppppppppppppppppppttuuuurett;%%%;;*=**;;;;&&%%;;;;;;=&%%",
"%%%%;;;&;;;;%%%%&=ppppppppppppppppppppppppppppppppppppppppttttuueeee;;%%;&&=&%%#%%&=%%%=&&;;&&;;",
"%%%%;;;&&&#%%%%%&&pppppppppppppppppppppppppppppppppppppppptttuuueeep;;%=&&==%%%%%%%%%%%&&&;;&&;;",
";;;;%%%=&&%%#;;;%%%%%#&&#%%%&&&&&1111111111wwwwwwwwwe&&&o#;;;;;;%%%;;;&&%=&&;;%%%%;;&&&=&&&%%%;;",
";;;;%%000&%%000;%=%%;;&;;%%%&&&&&1111111111wwwwwwwwww&&&;;;;;;;;%%%#;;&&%&&&;;#%#%;;&&%%&&=%%%;;",
";&;;%%000%%%000;&=&&;;;;;;%%&&&&&1111111111wwwwwwwwww&&#;#;;;;;;%%&&;;;&%%;;;;%%;;;;%%%%;;;;%#;;",
"&&;#%%000=%%000;&&&;;;;;;;%&&&&&&1111111111wwwwwwwwww&&&;;;;;;;;%=&&;;;;%%;;;;%%;;;;#%%%;;;;%%;;",
"&%%%;&&&%000;;;;;;;;&&&&;;;&&&#&&1111111111wwwwwwwwwy&&&&&;;;#;;;;;&%%&&%#;;&&&%%%%%;;;;%#;;;;;;",
"&=%%;;&&%000;;&&;;;;%&&..........11111>>>>>>>>>><<<<1&&&&&&;;;;;;;;;%=&&%%;;&&=%#%%%;;;;%%;;;;;;",
";;%%;;;;%000%%&&;;%%%%&..........11111>>>>>>>>>><<<<1O;;&&;;;;;;;;#%%%;&;;;;;;;;;;%%&&;;%%%=&&;;",
";#%%;;;;;#%%%%=&#%%%%%&..........11111>>>>>>>>>><<<<q;;;O&;;;;;;;;;%%%;;000;;;;;;;=&&&;;%%%&&&;;",
";;=%%%%%&&&%%%;;;;;&;;;..........11111.<..>>::<<<<<<<;;#%%%#;;&&&=;;;;;;000%%%;;;;;&#;;;;;%%%%%%",
";;&&%%%%&;&=%%;;;;&&;;;..........11111<::<>>:<::<<<<<;;;%%%%;;&&%%;#;;;;000%%%;;;;&&%%;;;;==%%;#",
";;;&;;#;;;;;%%#;%%&&;;%..........:::::iwwww>,,,,:,,,>;;#%%&&;;;;%%%%=&&&=%&000%;%%&&%%%=;&&&;;;;",
";;&&;;;;;;;;%%;;%%%=#%%..........:::::qiwwi:,,,,::,,,;#0=&&&;;;;%%%%=&&&=&&000#;%==&%%%=;&&&;;;;",
";;;;;;;&%%#;;;;;%%;;;&%..........:::::wwwwu:,,,,,,,,,;;;;;;;%%%%&&&;%%%%;&&000;#%%;;;&&&;;;;;&&&",
";;;#;;&&%%;;;;;;%%;;&&%..........::::.wwwwq>,,,,,,,,,;;;;;;;%%%%&&&;%%%%;;&000;%%%;;000&;;;;;&&&",
";;%%%%&&%%=&;&;;#;;;&%%..........:::::wwwww>,,,,,,,,,;;;;;;;%#&===;;;;#;;;;000%%%;;;000&;;#;%%==",
";;%%%%%=%%%&&&;#;;;;&=%%&&&&;;;;;11111<<<<<:,,,,,,,,,ppppppppppppppp;;;;;;;000%%#;;;000&&&%%%%%%",
";&&&&&&%%%%%%%%%;;;#&&&;&=;;;;;;#11111<<<<<,,,,,,,,,,ppppppppppppppp&&&=%%%000=%%000%=&&&&#;;;;;",
"&&%=&;&=%%%%%%%%;;;%=&&;%%;;;;;;%11111<<<<<,,,,,,,,,,ppppppppppppppp&&&=%%%000%%%000%=&&&&%%;;;;",
"%%%%;;;;;;#;=%&&;;%%%%;;%%%#%=&&%111111<<<<,,,,,,,,,,ppppppppppppppp;;;;;;%000&&#000%%&&=%%%&&;;",
"%%%%;;;;;;;;&&&;;;%%%%;;%%%%%&&&%111111<<<<,,,,,,,,,,ppppppppppppppp;;;;;;#%=&&&;000%%;;=%%%&&&&",
"#;&&&&;;;;%%%%;;;&&&;;;;&;;;%%%%%<<<<<<<<<<<<<<<;;;;;;====;;;;&000;;pppppppppp;&;000;;;;&&&;=%%%",
";;&;%=;#;;%%%%;;;&=&#%;;&;;;%%#%%<<<<<<<<<<<<<<<;;;;;;=&%%;;;;&000;#pppppppppp;;;000;;;;&&&;=%%%",
";;;;%%%%;&&%#;;;%%%%%%%%&&;000;;%<<<<<<<<<<<<<<<;==#;;&&%#;;000&%%%%pppppppppp;;;000#;%%==;;;;%%",
";;;;%%%%&&&=;;;;%%%%%%%%=&;000;;%<<<<<<<<<<<<<<<;;==;;&&%%;;000&%%%%pppppppppp;;;000%%%%%%;;;;;#",
"%%%%;;;;&&;;#%%%%;;;;;;;;;%000%%&111<<11<<<<<<<<%O%O&&;;%%%%000&%%%%pppppppppp;;;000;;;;;&%%%;;;",
"%%%=;;;;&&&;;%%%#;;;#%;;;;%%.>..:&&&&&#%&*&*=&%%:<:<<&&;#%%%000&#%%%;;;;%%%%;;;;;;;;;;;;&&%%#;;;",
"%%&&;;#;=%;;;;%%&;;;%%%%;&&=::>..&%%&%%%;;&&&&;;>>.:.%#;;;%%000&;;%%&&;;%%%%&&;;&&;&;;%%&==%&&;;",
";#&&&;%%%%;;;;%=&;;;%%%%;&&&::::.%%&&%%%;;#&&&;;>><.<%%%;;=&000&;;=&&&;;#%=&&&;;=&&&#%%%&&%%&;;;",
";;;;%%%%%%%%;&&&&&;;;;&=&&&&:::::&&&$$$$;;&&&%;;>>>>:%%%;;;;000;;;;;%#;;;;;;%%%;=%;;;;%%&&;;&==%",
";;;;%=%%%%;#;;&&=&#%;;&&&&&&::::.$&&$$$$;;&&%%;;>>>><;%%;;;;000;;;;;%%;;;;;;%%#;%%;;;;%=&;;;&&%%",
"&&;;&&;;;;;;;;;;%%%%;;;&&&&&&;;;$$$$$$$$;;;&%#;;%%%%%#%%%=&&000;%=&&%%%=&&;;%%&&%%%;;&&=&&;;;#%%",
"&&&;&&&;;;;;;;;;%%%%;;;&&&&&&;;;$$$$$$$$;;&&%%;;%%%%%%%%%&&&;;;;%&&&%%%&&&;;%%=&%%#;&&&&=&;;;%%%",
"=%;;;;;;;;;&&&#;#%%%;;;;%%%%%%%%$$$$$$$$$$$$$$$$%%%%%%%%;&&&=%;;%%;;;;&&%%%%%#&&&&;;%%%%=%;;;;;&",
"%%;;;;&;;;;;&&%%;%%%&;;;%%%%%%;#$$$$$$$$$$$$$$$$%%%%%%%%;;&&%%;;%%;;;;&&%=%%;;;;&;;;%%%=%%;;;;&&",
"%%%;%%&&;;#%=%%%;;%%&&;;%%%%;;;;$$$$$$$$$$$$$$$$%%%%%%%%;;;;%%%;%#;;%%&=&=&&;;;;&&;;%#&=%%%;%%&&",
"%%%#%=&&;;;%%%%%;;%=&&;;%%%%;;;;$$$$$$$$$$$$$$$$%%%%%%%%;;;;%%%#%%;;%%%%&&&;;;;;=&;;;;&&%%#;%==&",
"%%&&%%%%%%%%;;#%;;;;%%%;;;;;;&&&$$$$$$$$$$$$$$$$$$$$%$$$%%%;;;;;%%%=%#;;;;;;&&&&=%%%;;;&%%&&%%%#",
"%=&&%%;#%=%%;;;%;;&;%%%#;;;;;;&&$$$$$$$$$$$$$$$$$$$$$$$$%%%#;;;;%%%&%%;;;;;;=&&;%%%%;;&&%==&%%;;",
"%%;&;;;;&&;;;;%%%%&&%%&&;;#;%%=%$$$$$$$$$$$$$$$$$$$$$$$$%%&&;;#;%%&&;;;;;;%%=%;;;;%#;;;#%%&&;;;;",
"%%;;;;;;&&&;;;%%%=&&%=&&&;%%%%%%$$$$$$$$$$$$$$$$$$$$$$$$%=&&&;%%#%&&;;;;#%%%%%;;;;;;;;;%%%&;;;;;"
};
