/* XPM */
static char *run_l_1[] = {
/* columns rows colors chars-per-pixel */
"96 96 80 1 ",
"  c #4E4D5C",
". c #9A787F",
"X c #96A67A",
"o c #A4C262",
"O c #A5C262",
"+ c #A5C362",
"@ c #A5C263",
"# c #A5C363",
"$ c #C1D470",
"% c #C0D570",
"& c #C1D570",
"* c #C0D471",
"= c #C1D471",
"- c #C1D571",
"; c #6E7A80",
": c #7B888F",
"> c #768791",
", c #728794",
"< c #8A949A",
"1 c #98AF84",
"2 c #9CB081",
"3 c #B0BD9E",
"4 c #8698A3",
"5 c #909BA1",
"6 c #969DA4",
"7 c #9AA6AC",
"8 c #9BAAB3",
"9 c #A0ACB3",
"0 c #A6AFB4",
"q c #AAB7BE",
"w c #E6A2A2",
"e c #E7A2A2",
"r c #E6A3A2",
"t c #E6A2A3",
"y c #E7A2A3",
"u c #E6A3A3",
"i c #E7A3A3",
"p c #AFC193",
"a c #B7D1A4",
"s c #B8D0A2",
"d c #C4D9A8",
"f c #C7D9A8",
"g c #C6D8A9",
"h c #C5DBA9",
"j c #C6DBA9",
"k c #C7DBA9",
"l c #C3CEB0",
"z c #D1E2B0",
"x c #E8EEAA",
"c c #A7B8C2",
"v c #D6BEC0",
"b c #D7BEC0",
"n c #D6BFC1",
"m c #BAC4CA",
"M c #B6C9D0",
"N c #C2CED0",
"B c #C3D2D7",
"V c #C6DADE",
"C c #C7DADE",
"Z c #C6DBDE",
"A c #C7DBDE",
"S c #C6DADF",
"D c #C7DADF",
"F c #C6DBDF",
"G c #C7DBDF",
"H c #CCD8DB",
"J c #E2C7C7",
"K c #E2C8C7",
"L c #E3C8C7",
"P c #E2C8C8",
"I c #E5EFCD",
"U c #D2E3E5",
"Y c #D3E3E5",
"T c #D3E3E6",
"R c #D2E4E5",
"E c #D3E4E6",
"W c #DFEDEC",
"Q c #DFECED",
"! c #DEEDED",
"~ c #DFEDED",
/* pixels */
"**%%&$**&&&%%*%*&*&$*&**&%&%%%*&&*****$$===**-**&**&--$---$$$***&$$$**------&&&&#------&*$*****&",
"**%%&****&&&%%%%&*&&****&%&%&*%**&$$*$**=$**--&*&&**-------&$$--&*$$**-#----&-&&--------**$$**&*",
"%%*%***$$$$-*&%&&&%&&&&**&&&&**%*&&$--$$$$**-&&*&&**------&&&**-&&*-*--&-----*------&&--$*&*$-*&",
"%***$$$$$$*-&&*&&&*&&*&$&%**&&**&&&$=--$$$$*&**&&*&*------&-*-****&*---&-------*--------&&&&$$*-",
"%*&**&*$$$%&&&&*&*%*-$$&&**&**&*****====$$**%&*%&&&%$$--%*%*&*****$$$$$*---$$$*-*&**&$-$&&&&&%%%",
"**%*%*$&$&&*&*%&%&**$$-&&*&&&**&*&**==**$$**&&&%%%&&$$-$$**&&*****$**$$*-&&&$$**&-*-&$$-&&**$%&%",
"%*&*%&*&***&**&%&&--$$$-**&**&&*-*******$$&&$***%%%$$+$$$*&&&&&&&$&*$-*$-&--$=-**&--**$$&&%&*%%%",
"&&&*%&&*******$&%%&-$$--&&&&&*&*--******%$%%%*&&*%%%**$$*&&*&*&*&&&&--$$-&-&$--**&*--*$$*&&**$%%",
"*&***&&*%%$*****--------&&&&-----*&&*&&&&*%%***%-***%%&*&&$$$%*%&%%%&%$$----***&&&**--------%%&%",
"&%&**&*&$&%%+++*-####---&&&&-----*&*&&**%%%*%*%%*$$$%&&**+++***%%%%%%&&&---#&&&**&&&--------**%&",
"%&&%%&&*$$$%+++**$###---&&------*&&&***%%%*%*%%*$$**%%$**+++$%%%*%%%&%$$--&&**&&*&&&--&&----&*%%",
"&&&**&*&***&+++*$$###---&&&-----&&*&&***%%%*%*%*-$*$$%**&+++$&*%&%%*%%$&--*&&&**&&&&#&&&----**%%",
"%&$$&&&&%%%%**$+++$$**$$&$*****$#--&--&&$%&*%&***-*$$$$*%***+++$**&&&&&&----&&*&****&*&&-&-&&&&*",
"%%*$&*****%&***+++$$%$$*&&$**%**---&-&&&*&%*$&*$$$-$$$$*****++@$&&&&$&&&---&&*&*&&*&&&*&&&$--$&&",
"&*$*&&*&**&*$**+++&&%&**$***#$%%----&&&*&%$*$$$$***-$$******@##$*&&*$-&&-&---&**&****&*&&&-$&*-&",
"**$$*&&&&%&-*$****&&%&*fkfkkkkkkz----&-&&&$*$$$$&&*&*kkkkkggsss$&&*&-*-&&&--*$**%&*&&***--&&$$-*",
"***&&&&%$-$$---$**&%%&%AFFFFFFFFE-$$&*-*&&*%&&&&&&#-$DDSSFVVCFV%*-*$$$$$$---&&$**$$$%**$**-*&&&&",
"&&**&*&%--$-$*$$$---%**AFFFFFFFFH$$+%*--$*%**&&&&&--$DFFSFVVVVA%*$$$--+$$----$**$$$$&$%&-*-*&&*&",
"&&&*&%&&-$$---$-$-*****AFFFFAGGFG$%&%%$$$$%*&&&&----$DGDSVFVFFA$*****%&%----*$$*=@++$$%$**$-$$&&",
"&%&*%%*$$-$$$-*-$******AFFFMGGGGG-&*$&***$%&*&**----$AGHFCSCVFF$$***&%%&----$*$$*@++**$%&&$$$$&&",
"----&$$*$$$$&&------**$LLvvvGGGGGkkkkk$=&+$$*&&*--&--lJbbbVVCVVfffgf&%%*--&*&&$**+##$**%*&%%----",
"---#$$**$$$$&-------**#errerGFGGGGFGAG$$&&$$*-**--&&=yyyeeFVVCVFAADA&%**----*&++@***$$%%&&%%----",
"--&&&***$$&&&&------$$*ierrrGGGGAAFFGG----$-***-----=yyyeeFVAAAFAAAA&&**----&*+++%**$$%&&%%*----",
"--***&&-&&&----------$*ieeerFFGGAAFFGH------***-----=yyyeeFCFVFVAAAA$$&&--&&&&+++***%$&&%*%%----",
"----$$$---------&&&$%%%eeeeeGGGGFAFFFF%%---------===#uueetFFFFVVZZZZ+%&&--$$**##+***$------&&&--",
"---#$$$@--------&&$$&-%LLJLLEEEEEYEYUUzzzzzzzzzzzzzzzuuettFFFFVVZAZZ*%&&--$+**###%**$-------$$-$",
"----$$&&&&--$@$$$#$$*-=QQQ!!~Q~~!QQWQQ!!~~~~~~~~~~WQ!iuuetDFVZVVAAAF$--&--$$$$++#%%#&&------$$$$",
"----&&&&&&--$$$$-$$$***QQQ!!~~~~!WQQQWW!~~~~~~~~~~WWWiuueeDDZZZVAAAF+--&--$$$$--%$$$&&&&---$$$+$",
"--&&&&--&$----$$----&&=Q!W~~~~~~~~~~QQ!W~~~~~~~~~~~~QeeurrZZZZZZAFFF#-----------&&--$$$$$$$$----",
"--&&-+--$$----$&----&&$WWW~Q~~~~~~~~QQWW~~~~~~~~~~~~!erurrZZZZZZAAFF#-----&&----&---$$+$$$+$---$",
"-&&-----$$$---&&--zzzzzWWQQQ~~~~~~QQQQWW~~~~~~~~~~~~!PLJJJZZZZZZGGGG#-$-$$$$$-$$$$----$$$$----$$",
"&&&&----$$$@--&&--~~WWWWWWQQ~~~~~~QQQWWW~~~~~~~~~~~~!!!!!!ZZZZZZGGGG#-$+$$$$$$+$$$-----$&&&---+$",
"$$$&--------+$$$--~~~~~~~~~~~~~~~~QQQQ!!~~~~~~~~~~~~WWWQQQFVVZZZFVVZ+#---&&&&&&$$$------------$$",
"$$$&---$&---$$$$#-~~~~~~~~~~~~~~~~QQQQ!!~~~~~~~~~~~~WWWWQQFFVVZZFFZZ%%--&&$$&-&$$$----&--$----$$",
"$$-&--+$&&--$-$$--~~~~~~~~~~~~~~~~~QWWWW~~~~~~~~~~~~!!!QQQFFZZZZAFAA%$$-$+$$----$$$-$$&&$$$$-&&$",
"$+----$$$$----&&--~~~~~~~~~~~~~~~75767WW~~~~~~~~~~~~!BBCCBMMMMMMMMMM*$$-$$$$----+$--$$$$+$$$--&$",
"$---$$$$$$$$---&--~~~~~~~~~~~~~~Q     WW~~~~~~~~~~~~~cccccccqccccccc&&&&$--$$$--$$$&$$$--&&$$+$$",
"----&&$$$$$+------~~~~~~~~~~~~~~!     WW~~~~~~~~~~~~~cccccccqccccccc&&&-----$$--$$$&+$----&$$$$$",
"-----&----$-------~~~~~~~~~~~~~~Q     WW~~~~~~~~~~~~~ccccccccccccccc&&------$$$-$+-&--------$-$$",
"&--------------$--~~~~~~~~~~~~~~Q     QW~~~~~~~~~~~~~ccccccccccccccc$$-$----$$+-$$------------&&",
"&&------------+$--96666W~~~~~~~~Q66677Q!!WWW~~~~~~~~WBBBBBMMMMMMMMMM%%-$----$$&-$--------------&",
"$$-$--------&&$$--     W~~~~~~~~QQQQ~~Q!!WQQ~~~~~~~~WWWW!!FFFFZZZZZZ%%-$----$&&------$----&-----",
"$$$$$&----#$&$$$+-     W~~QQ~~~~WW!W~~~~QQ!!~~~~~~~~WW!!!!FFZZZZZZZV#&$$--$$$$------$$$$$$&&----",
"$$$+$&&----$&$$$--     W~QQQ~~~~WWWW~~~~QQQQ~~~~~~~QQW!!!!FFZZZZZZZF%%$$--$+$$--&---+$$$$$$$---$",
"$&--$$$$$$$$$$+$$&     W~WQQ~~~~QQ~~~~~~Q!WQQQ~~~Q!!!!!!!!FFZZZZFFFF-----&&$----&&----$$$+----$$",
"$&&-$$$+$$$$$$$$&&.....65766~~~~QQ~~~~~~W!WWQQ~~CBBBBBBBBBMMMMMZAAFF-----&$$----$$-$--&&$$--&-+$",
"$$----$-------&$%%iiiii     ~~~~Q~~~~~~~WWWWQ~~~ccccccccccccccqZGAAA----$$$$$$$$$$$$---&$---&$$$",
"$$--------$---&&&&iiiii     ~~~~QQ~~~~~~WWWWQ~~~ccccccccccccccqZAAAA&&--$+$$$+$$$$+$--------&$$$",
"$$$-+$$---$$$$$$**iiiii     ~~~~~~~~~~~~~~~~~~QQcccccccccccccccAVVVZ+%&&&&&%&&&$#$$$----$&&---#$",
"$+--$$----&&$$$+**iiiir     ~~~~~~~~~~~~~~~~~~~QccccccccccccccqGVVZZ*%&-&&%%&&$$$$$$----$&&--$$$",
"----$$$&---&--$-**LLLLL66666~~~~~~~~~~~~~~~~~~QQBBBBBBBCBBMMMMMFFFFF$---$$%&----$-$$----$$----$$",
"----$$$&--------==QQ!!!!!!!!~~~~~~~~~~~~~~~~~~QWWW!!!!Q~!!AAFFFFFFFA$$--$+$&------&&&&-$$$----$$",
"--+$$--&--------$$WW~~~~!WQQQ~~~~~~~QQQ~~~~~QQQWWWQQ~~~~!!ZVFVZZAAGA$$$&$$$$$$------$$$$$$$--&&$",
"&-$$-------$--&-&&WW~~~~WWQQ~~~~~~~~QW~~~~~~QQQWWWQQ~~~~!!ZFVVZZAAGG$$$&-$--$$------$$$#$#----&$",
"&$$$------+$$$&&&&~~~~~~QWWQ~~~~W!~~WWWWWW~~WQWWWQQQ~~~~!!FFVFZZAAUH$#&&----$$#-$&--$$&---------",
"&$$$------$$$$$$--zzzzzzzzzzzzzzzNNBNNNNNNBHHHHHHHHHHzzzzzdddkjjkkkz$$------$$--$&&&&&&---------",
"----$$&&--$$$+$$$$$$$$------$$$&%0000000000mmmmmmmmmm%%%%%$$$---$$$$$#--&---#$$$$$-----&---&&&--",
"----$&xxx-$$xxx-&&$$$#------$$$&%0000000000mmmmmmmmmm%%%%%*%$$--&&$$$$--&---$$$$$$----&&---&$$-$",
"--$$$$xxx&&$xxx-&&--$-------$$&&%0000000000mmmmmmmmmm$&&%%$%$$-&&&--$---&&--$-$$$$--$$&&----$$$$",
"--+$$$xxx&$$xxx---------&&-$$#--%0000000000mmmmmmmmmm$&*%%#%$&&&--------$&----&&$#--$$$$---$$$$#",
"-&&$----$xxx--------&---&$$$----%000005555577777qqqqc***$$&&$$$#----&---$$$$---&$$$&$$$-$$$$----",
"-&$$----$xxx-----$--&---&$$$-$--%00000::::::::::88888***$&&-$$$$-$--&---$$$#---&$$$&$#--$$$#---$",
"$+$$---$$xxx$&--#$$$&&----$$$$#$%00000::::::::::88880*$#$$------$$$$&&----$$----$$&&----$$&---#$",
"$$$$---$+$$$$&&-$$$$$$---$$#$**%%00000::::::::::88880-$$$$------#$$$$$--xxx----$$#------&&&---$$",
"--&&&$$$---&&$------------$$----%30000<:::::::::88888#--------%%%%------xxx---$$$$$$-&&$$$------",
"----$$$$---&$$----------&&+$----%<<<<<77677:>>>>4<444+--------%*+&--zzzzIIIzzz$-$$$#--&&$$----&-",
"------$+----$$$$$$----$+&$$$&---+:;;;;Mmmmm,,,,,,,,,:---&+&&&&&*$$$-~~~~~~~~QQ----$$----$#$-$$&&",
"------$$----$$+$$&&&--$$$$$$&---%;;;;;mmmmm,,,,,,,,,,---&&&-&&&&$$--~~~~~~~~QQ$$---$----$$$-$$$&",
"--$+----$$$$----$$----$$----&$$$%;;;:<mmmmm,,,,,,,,,,-----------$$**~~~~WWW~WW----$$$$--$$&&$#$$",
"--$$----$$+$----$$----$$&---&$$$x ;;  mmmmm,,,,,,,,,,-----------$$$*~~~~WW~~WW--$$$$xxx-$$$&$$--",
"--$$$$--$$&---$$$$---&&$&&----$+&<<<76qqqqq,,,,,,,,,,zzzzzzzzzzzzzzzzzzzzzzIII----$$xxx-$$-&----",
"--$$$&&&$&&---+$+$---&$$$$---$$$%0000c88788,,,,,,,,,,~~~~~~~~~~~WWWW$&&----xxx----$$xxx##$------",
"-------&&$$$$$$$----$$&&$$-------0000088888,,,,,,,,,,~~~~~~~~~~~WQQQ+------xxx---xxx---$$$-&&$$$",
"--&&---&$$$$$&$$----$$&-$$----&-$0000088888,,,,,,,,,,~~~~~~~~~~~WWQQ&&-----xxx---xxx---$----&&$$",
"$$&$------$+&&----$-$$--$$$-$$&&#c000088888,,,,,,,,,:~~~~~~~~~~~QQQQ&&--&&-xxx$$-xxx--$#-----$$$",
"$$$$------$$------$$+$--+$--$$$$*80000888884444412222zzzzzzzzzzIIIzz----&&&&@$$$&xxx--$$-----$#$",
"$+----$$--$$$$---&$$----&&--$$$-=888888888888888#--------------xxx#-----&-----$$&xxx&$$$-$$$----",
"$$--&&+$--$&$$--&&$$----&---+$--=888888888888888---------------xxx------&------&&xxx&&$$-$#$----",
"----&$$$---&$$--$$$$$-$$$$-xxx--=888888888888888-------#----xxx---------&&&--&&&&xxx-&----$$&&--",
"----$$$$---&+$---$+$$$+$$$-xxx--$888888888888880-----------#xxx----#----&&@-&&&&$xxx------$$$&--",
"---$&&--+$$$--------------$x332XXlllpppppsppppppXXXX2+$$----xxx+$$$&----&---#$$$$xxx$$$$$$---&&&",
"---$$&--$$$$--------------$$:::<:$----$&$+$$$$--;;;;;$$$----xxx$$$$&---$&---$$$$$$$$&&$$$#---&$$",
"--+$$$--$$&$----&&--$-$$-&$$:::::$---%%&$$$$$$$&;;;;;$$$--$-xxx$$$&&--#$&&--$-$$--$$&&--$---#$$$",
"--$$$$----&&--$$&---$$+$&&$$::::<---&&%%$$$$$+$&;;;;;$&&--$$xxx$$#----$$$$----&&-$$#--------$$$$",
"--&&--------$$$$$$----$$----::::<$$#$$&&$$----&&;;;;;--&-&$$xxx$$---$$$$$$$$---&--$$$$--#$$$$---",
"--$&$$------$$$+$$----$$&---X2222-$$$$&-$$-$$$&&XXXXX---&&$$xxx$----&&$$$$$#---&--&&$$--$$$$----",
"+$$$+$$$&&--&$--$+$----&&&----*#--$$$$--$$+$---&$$$-----$$$$xxx&&---&&----$--------&$$$-$-$$&---",
"$$$$$$$$$&--&&--$$$$--&&&&---$**---+$$--$$$$---&$--------$+$$$&&&--------------$---&$#----&&&---",
"$$--&$$$&$$$$$------$$&&&&$$----&&$$$$------$$&&$$------$$$$$$--&&------------#$#$$$------$$$$$$",
"----&&$$&&$$$+------$$$&%&$$--$-&-$$$$------$$&-$$------$$$+----$$-$--------&&$$$$$$------&&$$$#",
"-----$$$----$-------$$--%%&$$$------+-----$-$$--$$$#&&--&$------$$$$$&----#$&$$$$-$$-------&--$-",
"-----$$+----$-----$$$+--%%$+$$------$$----$+$$--$$$$&&--&&------$$$#$&&&-$$$&$$$--&&&&-$---&----",
"-$+$------------&$$$----&&&-$$$$$--------&$$----&&--$$$$----&&--$&&-$$$$$$$$--#$----$$$$--------",
"-$$$----$$------&&$$----$&&-$$-#$+------&&$$----&---$$$$----$&--$&&-$$$#&&$$-$$$----$$$#---$--&&",
"--$$&&--+$$$&&---$$$--+$$$------$$$$-&--$$$$$-$$$$----+$--+$$$--$$----$-&&----$$$&--$$&---#$$$&&",
"--$$$&--$$$$$&---$$+$$$$$$------$$$$&&---+$$$+$$$$----$$$$$$$$--$$------------$$$&&&&&&---$$$$$$"
};
