/* XPM */
static char *run_l_7[] = {
/* columns rows colors chars-per-pixel */
"96 96 43 1 ",
"  c #4E4D5C",
". c #5C6D77",
"X c #A5C262",
"o c #A4C362",
"O c #A5C362",
"+ c #A4C263",
"@ c #A5C263",
"# c #A5C363",
"$ c #C1D470",
"% c #C0D570",
"& c #C1D570",
"* c #C1D471",
"= c #C0D571",
"- c #C1D571",
"; c #6E7A80",
": c #7B888F",
"> c #728794",
", c #8A98A0",
"< c #9BAAB3",
"1 c #A6AFB4",
"2 c #E7A2A2",
"3 c #E6A3A2",
"4 c #E7A2A3",
"5 c #E6A3A3",
"6 c #E7A3A3",
"7 c #E8EEAA",
"8 c #A7B8C2",
"9 c #BAC4CA",
"0 c #C6DADE",
"q c #C7DADE",
"w c #C6DBDE",
"e c #C7DBDE",
"r c #C7DADF",
"t c #C6DBDF",
"y c #C7DBDF",
"u c #DEECEC",
"i c #DFECEC",
"p c #DEEDEC",
"a c #DFEDEC",
"s c #DEECED",
"d c #DFECED",
"f c #DEEDED",
"g c #DFEDED",
/* pixels */
"===$===---------------&&&&**----------&-==$$&$=$&&$$$$$=$$$$=$==&&&&&&$$=**=&$&$&$=$=$$*===$$===",
"==$=O$=-------&&-------&&&**----------&-$=$$=$=&=&**====$$$$=$=$&&&&===$=$===$&&==$$$======&*$$$",
"==$=$$=$----&&&&------&&$$&&--$$----&=--=$=&$*==*$**=$&&*$==$$==&&&-=$===$=====$&&&=**$*$===*=$$",
"$=$=$$=$----&&&&----&---=$$=-X$=----=&&&$$$=**==*==*$=$===$=X$$$&&&-&$&$$$$=&&$=&$$$*&=*=$=*===$",
"$$=$$$$=$======&----$$=$$*$===$=$&=$=&=&&&==*&&*===$==$=--&&----------$$=$==$===$$==*======*&&&&",
"$===$==$$&=$===&X$--$$==*$=$=$=$===$&=$$&&&$*&&&$$$=$=$=*--&----------X$=====$&&$=$$==&&**&$&&&-",
"$=$$$=$$=&====&&$$$$=$==***=$===$$$==$=$&&*&&=--$=$$$==$&&&&----------$==&&&===&$$==*$$=$*$$&&--",
"==$==$$==$$$$$=&$$$===$=*$=$=$=====&==$===&&*&--==$===$=*&&&----------==$===$==$**=*$=$$=&$&&&--",
"$$$=$=**=&$====*======$=--------=&==---------&&&$$$$--#-**===-=$$===$=$$$$$$=$&&*===-$$&&**=----",
"$===*=*$&$=$XXX=$*XXX=$=-------X&&$&----------&&=$$X-----X##=-&======$==&$====$&*=$$&-&**&&=----",
"==*=$*&&&&$$@@@*==XXX=-$--=----***=$$#----------==$$--#--@@#==$=$$=$$=$=$$&=&==&=$$*-&--*$&&----",
"$$*****$===$@@X=-=@X@-$=--=@egeeeyeequ---&------qa00ugqqee@@=$$$&=$==$=$=$=$$$=&$$$=-&&-*=*&----",
"===$--*&----=$OO@@-$&&&&----yyeeeyqttq----$-=$--qqq0000tee--X@X==$$=$&$$======&&$=------===$$=--",
"===$&&**----$$=#@@-=&&&&----yyyeerqqqt---&$$-X--qqt0qqtteg--XX@=$=$=$===$$=$--*=$$------$=$==$-X",
"$$$$&&&&------=#XX=*$*&&&&&&yyyeeqqqtq$--&&$----wwqt00qqqq--XX@-=&&$$$=$$=$=----$-------=$=$$==$",
"=$$=&&&&&&------===***&&&&&&yyyeqeqqee#-&&&-----w00t0qqqqq-##XX*&=$=$$====$$**-*X-------==$$$=$$",
"===$$=$$==$=&$$=$$=$=$==----66663tqtttqqyyy-----32223qqqtq0te00O$$$*======$$****=-==**$&**&$&&==",
"$==$$=$&=$=$&$$===$=$=$=----666630tqqt0qyyy-----22323qttttettea$=$$*=$=$$=$$--*-=-===$$$**&=&==*",
"$$$=--&&&$==$==$==$=--$$====66663qqttqqqyyy-----33333qtttt0eeeq#$=$$==$$$$$$----=XXX====**&&$***",
"$$$=-X$$$&==$=$=$$=$--X$@$$$66663qttttqqeey----=36363qt0tt0eqeu-=**$=$$====$----=XXX===$===**$&*",
"&&------&*==----&&&&----=$==66663qqqeqqqyee-#===33464t00tteeqte=$$==$&=*$$------=X@@==$&===$--*&",
"&--------*==-----&&-----**$$ggggffffggfgggagfggg33434qt0tqeetqe$===$===&*$-X--##@*==$$$==$$$--&&",
"&&-------&--*---&&------====ggggggffggggggaggggg33444qqqtteeyee=$=$$&&***$**--X#X$*=&$==$$$=----",
"&&------**&*----**------====gggggggfaggggggggggg63433qqtwteeeee=$===**-*****--##X$*-==$====$----",
"&$$$$$$$$---X---&&&$--*&&$$$gggggggggggggggggggg55333wwwwwwwwwwo#@-*X---$$---XX#X*-----&*-&&&$--",
"&&$$&&$$$X--$$--&&$$---&&&$$gggggggggggggggggggg55333wwwwwwwwwwo##-*----$&&---@#X*----&&--&&$$--",
"--$$&&------$$$&-X$$---gdiiiggggggggggggggggggggffaaptwwwwwwqqwo@@------$$----XXX---$$&&----$$$-",
"---X&-*-*---$$$&-$$$---gdiiiggggggggggggggggggggffppptwwwwwwqqaO**@#X---$$----$$@---$$$$----$$X-",
"--$$$$---&X---&&--&&$$-gddggggggggggggggggggggggfgggpttwyyyytwwO--@#X$&&$$$X&&&&$$$$$---$$$-----",
"--&&$$--&&$$--&---&&$$-gddggggggggggggggggggggggffggptwwyyyywwa$-=@@X$&&$$--&-&&$$$&X---$$X-----",
"-&&&$---&$$$---*---&$$$gdgggggggggggggggggggggggggggpttteeyyyyqo==###--&--------$X&&&---$$&&----",
"-&&&$X--&$$$--------$$Xggggggggggggggg     ggggg88888888918881q#*##XX-------------&&&---$&&&-*X$",
"$$$$----&&---X$$$$$$---ggggggggggggggg     ggggg888888888888888#$$XX@@--&$$$&&&$$$----&&------$$",
"$$$$----&&---$$$X$$$---ggggggggggggggg     ggggg888888888888889-$$-$-=--&&$$&&$$$$---*&&-----*$$",
"$X&&----$$----$$--&&---ggggggggggggggg     ggggg888888888888888-&&-*-----X$$*---$---$$&$--$$&&&$",
"--&&--X$$$----$$--&&&&-ggggggggggggggg     ggggg888888818888899#&&&------$$$----X---$$$$X$$$&&$$",
"----$$$$$$$X--&&-------     gggggggggggggggggggggggggqtwwwwwttto----&&-*--&&&$--$$$$$---&&&$-X$$",
"----$$$$$$----&&----X=-     ggggggggggggggggggggggggfqttwwwtttg#----&&&---&&$$--$$$&X---&&$$-$$$",
"&&--&&----------&&-&===     ggggggggggggggggggggggggfeqtwwttetu#--$$$$------$$$-$X&&*---*-----$$",
"&&--&&----------&&&&===     gggggggggggggggggggggggggeqtwwteetf=-X$$$$-----*$$X---&&----------$&",
"$$----------&&--&$---&&     fffgggggggggggggggggfffff9ttwwytttto-&&&$$------&&-*----------&&*-&&",
"$$----------&&X$$$---&&66466     gggggggggg88888888899<881yyttg#*-&&$$-----X&&&----------*&&--&&",
"$$$-$$&&---X$$$$$X--$=&66666     gggggggggg888888888988888yyeeuo----$$X---$$$$--&&----$$$$&$----",
"$$X-$$&&---$$$$$$$--$&&66666     gggggggggg888888888888888yyetp&----$$----$$$$--&&-*X$$$$$$$----",
"$$&&$$$X$$$$---X&&&&$$$66666     gggggggggg888888888888891wweeeo$$X------&&&----&$----$$$X*-&&--",
"$$&&$$--$$$$---$&&&&$$@66666     gggggggggg888888888898881wweeg#$$------*-&&-X--$$----$&----&&X$",
"$$------&&----$$$$-&--=gggggggggggggggggggggggggfffff9tttttwetuO$$&&-*--$$$$$$$$$$$---&&----&$$$",
"$$------&&----$$$$----=gggggggggggggggggggggggggffffftttttteetp&$$&&&--X$$$$$$$$$$X--*&&----$$$$",
"$---------$$$$$X-----&=iiiddggggggggggggaaaaaaiiffffptttwwwwwww%$$$$$$---&&&-&&&----&&--$$$$----",
"X---X$----$$$$------&&=iiiddggggggggggggaaaaaaaiffffftttwwwwwww%&&$$$$--*-&&*-&&---X$&&-$$$$----",
"----$$$$--&&------X$&$$iddddggggggggggggaaaaaaiiffffftttwwwwtpw%&&--X---$$$$------$$$$--X-&$----",
"----$$$$--&&-------$$$$$----gggggggggggggaapaaiittttttttww%%%%o%--------$$$$------$$$$----&&&--X",
"&&----&&------&&$$$$--X$----ggggggggggggggggiiiitttt9tttee&&%%%=----&---X--&&&---&&&--------$$$$",
"&&X$--&&------&&$&$$---$==--ggggggggggggggggiiiittttttttee&&o%==----&-----*-&&-X--$&-X------$$$$",
"$$$$--------$$$$&&----$$===-ggggggggggggggggiiiittttttttee%%%%==$X$$&&------$$$$$$$$$$$$&&--&$--",
"$$$$------X$$$$$&-----$$#=--ggggggggggggggggiiiittttttttee%%%%%=$$$$$$------$$$$$$$$$$$$$&&-&&&-",
"-X$$----&&$$X---X-----$$----$$&&&,,,,,1111111111,,,,,X$$#-&&&&&&---&&&--$$&&----X--&&$$$&$$$$$--",
"-$$$--777&$$777-$$----$&----$$$&&,,,,,1111111111,,,,,$$$----&&&&---&$$--$$$&---X----&&$$&&$$$$--",
"--$$&&777$$$777-$$==-&&&----$$-&&,,,,,1111111111,,,,,$$$------&O----$$$X$$-&--$$------$$-&--X---",
"--$$&&777&$$777-$*=*-&&&--X$$$--=,,,,,1111111111,,,,,$$$------------$$$$$$----$$-----X$$--------",
"--------&777----$X--$$$*&&$$----=,,,,,1111111111,,,,,$$$&&&------*$X$$$&X---&$$$--$$------------",
"--------&777-.....;....=&&$$----=1111111111999990999qX$$&&>>:>>>>>>>$$$&----&&$$-X$$-----X--&---",
"$$&&$X$$&777-..........--X$$--$-=11111111119999999990$#&&&>>>>>>>>>>$$&&-----&----$$&&--$$$$&&--",
"$$&&$$$$$$&--.........;--$$$X$$--1111111111999999999q--&&&>>>>>>>>>,X$--777-------$$$&&-$$$$$&--",
"$$----&&$$$--;.........---$$$X--$11111111119999999999X--**>>>>>>>>>>*X--777---&&&$$$---&&&------",
"$$----&&$$$X-..........---$$$$--*11111111119999999999$--**>>>>>>>>>>**--777---&-$$$$---&$$------",
"$---$$$$$$&&*..........-&&&$----*11111::::::::::<<<<1----->>>>>>>>>>------$777----$$----$$$X$&--",
"X---$$$$$&&-=..........-&&&$----=11111::::::::::<<<<<----->>>>>>>>>>-----X$777-----X----$$$$$&&&",
"$$$$$-------$..........------&&&=11111::::::::::<<<<<=-$--:>>>>>>>>>---&$$$777----$$$$$X$&&-$$$$",
"$$$$X-------$..........------&$$=11111::::::::::<<<<<=$$-->>>>>>>>>>--=&$$$777----$&777$$&&-$$X$",
"$X&&------X$$..........--*--$$$$=11111::::::::::<<<<1-$$-->>>>>>>>>>$$==&$-777-----&777$$$------",
"--&&-------$$$$$=*$$$$X-&--X$$$$=;;;;;99999<<<<<&&-----X-X$$$$$$X$$$$$&=&&&777----&&777$$$------",
"----------&&--&&--X$&&--&&------=;;;;;99999<<<<<===&&&&&$$$$&&&$----$$$----777---777--$$$$---&&&",
"----------&&--&&---$&-*-&&-X----=;;;;;99999<<<<<==$$&&&&$$$$&&$$----$$X----777---777--X$X$---&$$",
"&&----$$$$$$------$$&&--$$$$&&-**;;;;;99999<<<<<-X$$------$X----&&--$$&&&--777$$-777--$$----$$$$",
"&&--X$$$$$$$------$$$$--$$$$&&&-*;;;;;99999<<<<<-$$$-----------777&&$$&&&----X$$-777--$$----X$$$",
"$$----$$$X--&&---*-&X-------$$$$*11111<<<<<<<<<<ggggggggggggggggaggggggggggggg$$-777&&&$$$$$----",
"$$----$$----&&X$--&&$$--*---$$$$-11111<<<<<<<<<<gggggggggggggggggggggggggggggg$$-777--&$X$$$----",
"$$$---&&----$$$$$$&&$$$&-&-777X--11111<<<<<<<<<<gggggggggggggggggggggggggggggg&$&777------$$&---",
"$$X---&&----$$$$$$$$$$$&&&-777---11111<<<<<<<<<<gggggggggggggggggggggggggggggg&&&777------&&&---",
"&&X$&&--***---&&$---&&&#--$777$$*11111<<<<<<<<<<iiiiiiiiiiddddddggggiiiiggggii$$&777&&&$$$-----&",
"&&&*&&*-***&--&&$X--&&&..,;;;;;;;<<<<<<<<<<<<<<<::::::::;,&*777*---X=--&----=$$&&$$$&-$$$$----&&",
"&-**&&--*$&&--&&----&&-.,;;;;;;;;<<<<<<<<<<<<<<<::::::::,;&&777*--$$=*&&--X-=*&&X$$$----$---$$&$",
"--****-&&X&&**X$*---&--:.;;;;;;;;<<<<<<<<<<<<<<<::::::::;,&&777*--$$$*&---$$$*&--$$$----$X--$$$$",
"-*&&X&&&&&&-****-&X---&.:.:.;;;;;<<<<<<<<<<<<<<<::::::::,;$*777*---&-----&&&------&&&$--$$$$$---",
"--&&$$&&&&--*&**&&$$---;.:.,;;;;;<<<<<<1<<11<<<1:::::,::;,$$777&--&&------&&------&-$$--$$$&$X--",
"**&&****&&--&&*-&$$$---*$$$$$$$$===*-*--$X--------$@&&--**$X777&$$&&--X$$$&$--X$----$$$-$$&&----",
"*******&&&&-&&&-&$$$----$$X$$$$$===***--$$--X-----==----****&&&&$$$&---$$$$$---$----$$$X-X&-----",
"*$-*&&&&&&&***--&&&&&&&&$$$$$$$$----&&---X$$----&&$$$$$X*****$-*$$---&&&------$$$$$$------&&&$$$",
"&X--&&**&&****--&&&&&&&&$$$$$$$$----&&X$-$$$&---&&$$$$--&&**&X--$$----$&------$$$$$&------&-$$$$",
"&&&-X$***&--$&&&&&&&&$&&$$$$$$$$---X$$$$--$$&&--&$$$----&&--&&&-X---$$$$X-$$-&&$$$&&--X-------$$",
"&&--&***----X&&&&&X$$$&&$$$$$$$$---$$$$$--$$&&--&&$$----&&*-&&------$$$$$$$$&&$$-X&---$$-------X",
"X$**&&&-&&&&&&&&&&$$&&&&&&&&$$$$$$$$---X----$$$------&&&&&&-&&--$$$$X---&&&$X$$$----$$$$--X$----",
"&***&&--X$&&&&&&&&$$&&&&$&&&$$$$$$$$---$----$$X-----&&&&&&--&&*-$$$$----&-$$-$$$----$&$$---$----",
"&&**&&--$$**&&&&&X$$&&$$$$$&$$$X&&----$$$$&&$$&&-&--$$$$X&**&&--X-&$----------$$&&--&&----$$$$-&",
"&&&&&&*-$$$*&&&&&$$$O$$$$$$$$$$$&&----$$$$&&$$&&&&X$$$$$$*****-&--&&&---------$&&---&-----$$$&&&"
};
