/* XPM */
static char *result[] = {
/* columns rows colors chars-per-pixel */
"96 96 49 1 ",
"  c #4E4D5C",
". c #5C6D77",
"X c #A4C262",
"o c #A5C262",
"O c #A4C362",
"+ c #A5C362",
"@ c #A4C263",
"# c #A5C263",
"$ c #A4C363",
"% c #A5C363",
"& c #C0D470",
"* c #C1D470",
"= c #C0D570",
"- c #C1D570",
"; c #C0D471",
": c #C1D471",
"> c #C0D571",
", c #C1D571",
"< c #6E7A80",
"1 c #7B888F",
"2 c #728794",
"3 c #9BAAB3",
"4 c #A6AFB4",
"5 c #E6A2A2",
"6 c #E7A2A2",
"7 c #E6A3A2",
"8 c #E7A3A2",
"9 c #E6A2A3",
"0 c #E7A2A3",
"q c #E6A3A3",
"w c #E7A3A3",
"e c #E8EEAA",
"r c #A7B8C2",
"t c #BAC4CA",
"y c #C6DADE",
"u c #C7DADE",
"i c #C6DBDE",
"p c #C7DBDE",
"a c #C6DADF",
"s c #C7DADF",
"d c #C6DBDF",
"f c #C7DBDF",
"g c #DFECEC",
"h c #DEEDEC",
"j c #DFEDEC",
"k c #DEECED",
"l c #DFECED",
"z c #DEEDED",
"x c #DFEDED",
/* pixels */
"*,-&=-*>-,:=>:;:-=-&&=;:*=&**>**>-&;*--,>&:&::=-*=:;*;;:->*,;,-:;;=**-:**=:-;;;>*==&;;;&&,:*:>=-",
"=:;>,,-;&-:=-;&>=;>>*:;=:;:=:,&-:&&>;:>:-=-=:-:>&;&-,*;*,;=-=:*-,,,;;-**::;,:--;=-&*>:;-;&>,--&=",
":>*,==>&*:;*:*>*=;>;;-,>*>=>,;,=>-,=*&*:**=>>::->&-;&>>;-:=-:,:=>=>&-&;&-=;,>-,>=-,*&&&&>:=;:=&>",
"&-=>*:>**;:>=&*&,*-*>,;;=--,--,,,->;,;&;;;-&;=*;-;&:>&:=::>->&;=:-=:*,-*;;;>,:,&>*,&::*=;,-=,>,;",
":=>,;,:&;;&>;;-=;==;*;>,=->:,&:=,-*>*>;;=&,-&-=-:=*:=*-&;>&>>**:*>->,:=>>**=---=*=**;>,,:=>&===-",
";:*=&==,:-*&:,>&>**;;:;:&>:;:=>:-->:,,&>->,:=**-==;,*>:&*,&-&-*&:>=-,:,;>*>**>>-,&;--&&:*>*,;;;&",
",>:=->,,==;=-*&=,::&::*>>&=-;*,*=,:,*;-***:=->>,>;;>-:,,&,-=>>&:*-&=>&::>;*&;-,,==**=>&=,*:=;-:&",
":&&*-=>=;&=:==;*,::;-:;:*,**>=-,-;&-:,-;,*,>=,&&:>>:&=;>,&=,,>*;&,::-&;;;=:,=:->:=-=:;-,:*&*,*=,",
";->;=;;,>>->,,-,=,,&-*:*-->--&-;>;&-&*=:>-=-,=-=;::*--*:=*;,-;&:,>:&=-&=-&*:;,*;>*:-=--&,&-:*:;,",
"--&;;,:=:>&*,;;>==;,*&*,;;*>>;:->,*=$oo:*>,:*,;:&:&*>&-=,=;-:;=>;-;*&,&-,=;$+O&-=+o$:>=;-,=;:;**",
"==-,&;>:=;&;:::--=:>*&=;>;>->&===&&:$+o,;>>&&;-->:*,,>-,&-&>*==;:=>:>;-;--:@$+;;:#+#&-**;&::,;*&",
"-->&=>&;;,*>*==**>-&*,,=;>->,**>:*:&+ouyyiuayyau&>;->&,;*-uisiippupa:-:;,==@@X>&*$$O&,:-&>>=,;>*",
">,**:*;*&&;:;;;=->:>,-==:->,=;,>>o#+:=pipyuipfiu>*>:>*&&&&yipaydppfy>*--,&-:*=oXX,-:>;&&**,;>>,-",
"=:-&>*>-*:&:::*;;>;*=;*-,,-&=;:=-X$o=:afpyydpyis;&,-;-:,*-faipidyiyy*;:,=---*;++X>**=,&=*>>:-=-:",
"----;&,&:&&>;-:*>:,=,;&>-&*&,*,=>@+X>>uippppuyap:**;;:=&,&yidpiyuuii,-=-=*&:-=#+o;=>=:&;>;;&,,*=",
"=--:**-=::=*;>=:-*>&=&=::*&:>>=,&#Xo==yppyyyppii;>;,:=;-**dpyiuyyyii-&;>:*=,=;*=,&-:*=:*=&=>>=&,",
"-&,*>&&:>;=:;==,=>-*,:-;*-,-;==-:ipiapppdps59076;&:=*pdiifuidpuq900q:,*,;=-*:=-&::*&:>>;:-,&&,==",
">,;&:*,&:;:;=&>>:-->&&,-*;:>;=>*>ipiduyidiu77q0q-**>&dfiapyiydpw075q-&,=*-&;***=;,:;&;>>&:>*,-:*",
"=::>;&&=;,>*@$#-=>;&:::,&:*:-:=&-uupaaidyiiqqwq7&&:;;yipdyppppy77w65*&;,>,&-*-=*-:>&;;=:-,;&>&-=",
"-*-,===--&&;X$%=:*,:*;&=,&:=&,;:=yydpiipipy587wq=>:*-pipayyuiiuwwqqw&=:>=>,*,-->:=*==;=-&&*:-*-,",
"*,:*--;-,*--#%#*>>&=-;=>;*>;:-,;*fiddiipyiyqqqw8:>**-ipdpifdiii89968:--:&=&,-;&---,*>&&->-&==**>",
"*=&*;;**>-*;:--@@O,>&::&->=>;-*-=idiyiipyai0wwq0xzkzlzzxhljxllxjlkzl:*>&,;*:&=,>&-:=,-=:=*>>,=;=",
":;;=,;,:;&:-;*>OOO:-&:*;;,>&=;:*=uyiyiiiiiy799q9jxxxlgllzgzlllllxzlz--,=;;>:*>,=*&=->&:-;->,,=>=",
",>-&:,,=*&*:-,,%$%>*:>*>:,-&&;;*=ypaiiipidiw7805zxxxljlkzxjhxzlgzxxl*&*:,:-*:*>;=>*>:&*--=*>*,:,",
"&&&&&&&&&&&&&&&@@@&&&&&&&&&&&&@@@iiiiiiiiiiqqqqqxxxxxxxxxxxxxxxxxxxx&&&&&&&&&&&&&&&&&&&&&&&&&&&&",
"&&&&&&&&&&&&&&&@@@&&&&&&&&&&&&@@@iiiiiiiiiiqqqqqxxxxxxxxxxxxxxxxxxxx&&&&&&&&&&&&&&&&&&&&&&&&&&&&",
"&&&&&&&&&&&&&&&@@@&&&&&&&&&&&&@@@iiiiiiiiiixxxxxxxxxxxxxxxxxxxxxxxxxxxxxx&&&&&&&&&&&&&&&&&&&&&&&",
"&&&&&&&&&&&&&&&&&&&&&&&&&&&@@@&&&iiiiiiiiiixxxxxxxxxxxxxxxxxxxxxxxxxxxxxx&&&&&&&&&&&&&&&&&&&&&&&",
"&&&&&&&&&&&&&&&&&&&&&&&&&&&@@@&&&iiiiiiiiiixxxxxxxxxxxxxxxxxxxxxxxxxxxxxx&&&&&&&&&&&&&&&&&&&&&&&",
"&&&&&&&&&&&&&&&&&&&&&&&&&&&@@@&&&iiiiiiiiiixxxxxxxxxxxxxxxxxxxxxxxxxxxxxx&&&&&&&&&&&&&&&&&&&&&&&",
"&&&&&&&&&&&&&&&&&&&&&&&&&&&@@@&&&iiiiiiiiiixxxxxxxxxxxxxxxxxxxxxxxxxxxxxx&&&&&&&&&&&&&&&&&&&&&&&",
"&&&&&&&&&&&&&&&&&&&&&&&&&&&@@@&&&iiiiiiiiiixxxxxxxxxx     xxxxxxxxxxxxxxx&&&&&&&&&&&&&&&&&&&&&&&",
"&&&&&&&&&&&&&&&&&&&&&&&&&&&@@@&&&iiiiiiiiiixxxxxxxxxx     xxxxxxxxxxxxxxx&&&&&&&&&&&&&&&&&&&&&&&",
"&&&&&&&&&&&&&&&&&&&&&&&&&&&&&&&&&iiiiiiiiiixxxxxxxxxx     xxxxxxxxxxxxxxx&&&&&&&&&&&&&&&&&&&&&&&",
"&&&&&&&&&&&&&&&&&&&&&&&&&&&&&&&&&iiiiiiiiiixxxxxxxxxx     xxxxxxxxxxxxxxx&&&&&&&&&&&&&&&&&&&&&&&",
"&&&&&&&&&&&&&&&&&&&&&&&&&&&&&&&&&iiiiiiiiiixxxxxxxxxx     xxxxxxxxxxxxxxx&&&&&&&&&&&&&&&&&&&&&&&",
"&&&&&&&&&&&&&&&&&&&&&&&&&&&&&&&&&rrrrrrrrrrrrrrrxxxxx     xxxxxxxxxxxxxxx&&&&&&&&&&&&&&&&&&&&&&&",
"&&&&&&&&&&&&&&&&&&&&&&&&&&&&&&&&&rrrrrrrrrrrrrrrxxxxx     xxxxxxxxxxxxxxx&&&&&&&&&&&&&&&&&&&&&&&",
"&&&&&&&&&&&&&&&&&&&&&&&&&&&&&&&&&rrrrrrrrrrrrrrrxxxxx     xxxxxxxxxxxxxxx&&&&&&&&&&&&&&&&&&&&&&&",
"&&&&&&&&&&&&&&&&&&&&&&&&&&&&&&&&&rrrrrrrrrrrrrrrxxxxx     xxxxxxxxxxxxxxx&&&&&&&&&&&&&&&&&&&&&&&",
"&&&&&&&&&&&&&&&&&&&&&&&&&&&&&&&&&rrrrrrrrrrrrrrrxxxxx     xxxxxxxxxxxxxxx&&&&&&&&&&&&&&&&&&&&&&&",
"&&&&&&&&&&&&&&&&&&&&&&&&&&&&&&&&&iiiiiiiiiixxxxxxxxxxxxxxxxxxxxxxxxx     &&&&&&&&&&&&&&&&&&&&&&&",
"&&&&&&&&&&&&&&&&&&&&&&&&&&&&&&&&&iiiiiiiiiixxxxxxxxxxxxxxxxxxxxxxxxx     &&&&&&&&&&&&&&&&&&&&&&&",
"&&&&&&&&&&&&&&&&&&&&&&&&&&&&&&&&&iiiiiiiiiixxxxxxxxxxxxxxxxxxxxxxxxx     &&&&&&&&&&&&&&&&&&&&&&&",
"&&&&&&&&&&&&&&&&&&&&&&&&&&&&&&&&&iiiiiiiiiixxxxxxxxxxxxxxxxxxxxxxxxx     &&&&&&&&&&&&&&&&&&&&&&&",
"&&&&&&&&&&&&&&&&&&&&&&&&&&&&&&&&&iiiiiiiiiixxxxxxxxxxxxxxxxxxxxxxxxx     &&&&&&&&&&&&&&&&&&&&&&&",
"&&&&&&&&&&&&&&&&&&&&&&&&&&&&&&&&&iiiiirrrrrrrrrrrrrrrxxxxxxxxxx     qqqqq&&&&&&&&&&&&&&&&&&&&&&&",
"&&&&&&&&&&&&&&&&&&&&&&&&&&&&&&&&&iiiiirrrrrrrrrrrrrrrxxxxxxxxxx     qqqqq&&&&&&&&&&&&&&&&&&&&&&&",
"&&&&&&&&&&&&&&&&&&&&&&&&&&&&&&&&&iiiiirrrrrrrrrrrrrrrxxxxxxxxxx     qqqqq&&&&&&&&&&&&&&&&&&&&&&&",
"&&&&&&&&&&&&&&&&&&&&&&&&&&&&&&&&&iiiiirrrrrrrrrrrrrrrxxxxxxxxxx     qqqqq&&&&&&&&&&&&&&&&&&&&&&&",
"&&&&&&&&&&&&&&&&&&&&&&&&&&&&&&&&&iiiiirrrrrrrrrrrrrrrxxxxxxxxxx     qqqqq&&&&&&&&&&&&&&&&&&&&&&&",
"&&&&&&&&&&&&&&&&&&&&&&&&&&&&&&&&&iiiiiiiiiixxxxxxxxxxxxxxxxxxxxxxxxxxxxxx&&&&&&&&&&&&&&&&&&&&&&&",
"&&&&&&&&&&&&&&&&&&&&&&&&&&&&&&&&&iiiiiiiiiixxxxxxxxxxxxxxxxxxxxxxxxxxxxxx&&&&&&&&&&&&&&&&&&&&&&&",
"&&&&&&&&&&&&&&&&&&&&&&&&&&&&&&&&&iiiiiiiiiixxxxxxxxxxxxxxxxxxxxxxxxxxxxxx&&&&&&&&&&&&&&&&&&&&&&&",
"&&&&&&&&&&&&&&&&&&&&&&&&&&&&&&&&&iiiiiiiiiixxxxxxxxxxxxxxxxxxxxxxxxxxxxxx&&&&&&&&&&&&&&&&&&&&&&&",
"&&&&&&&&&&&&&&&&&&&&&&&&&&&&&&&&&iiiiiiiiiixxxxxxxxxxxxxxxxxxxxxxxxxxxxxx&&&&&&&&&&&&&&&&&&&&&&&",
"&&&&&&&&&&&&&&&&&&&&&&&&&&&&&&&&&&&&&&iiiiiiiiiixxxxxxxxxxxxxxxxxxxx&&&&&&&&&&&&&&&&&&&&&&&&&&&&",
"&&&&&&&&&&&&&&&&&&&&&&&&&&&&&&&&&&&&&&iiiiiiiiiixxxxxxxxxxxxxxxxxxxx&&&&&&&&&&&&&eee&&&eee&&&&&&",
"&&&&&&&&&&&&&&&&&&&&&&&&&&&&&&&&&&&&&&iiiiiiiiiixxxxxxxxxxxxxxxxxxxx&&&&&&&&&&&&&eee&&&eee&&&&&&",
"&&&&&&&&&&&&&&&&&&&&&&&&&&&&&&&&&&&&&&iiiiiiiiiixxxxxxxxxxxxxxxxxxxx&&&&&&&&&&&&&eee&&&eee&&&&&&",
"&&&&&&&&&&&&&&&&&&&&&&&&&&&&&&&&&&&&&&iiiiiiiiiixxxxxxxxxxxxxxxxxxxx&&&&&&&&&&&&&&&&eee&&&&&&&&&",
"&&&&&&&&&&&&&&&&&&&&&&&&&&&&&&&&&22222&&&&&33333ttttt4444444444&&&&&..........&&&&&&eee&&&&&&&&&",
"&&&&&&&&&&&&&&&&&&&&&&&&&&&&&&&&&22222&&&&&33333ttttt4444444444&&&&&..........&&&&&&eee&&&&&&&&&",
"&&&&&&&&&&&&&&&&&&&&&eee&&&&&&&&&22222&&&&&33333ttttt4444444444&&&&&..........&&&&&&&&&&&&&&&&&&",
"&&&&&&&&&&&&&&&&&&&&&eee&&&&&&&&&22222&&&&&33333ttttt4444444444&&&&&..........&&&&&&&&&&&&&&&&&&",
"&&&&&&&&&&&&&&&&&&&&&eee&&&&&&&&&22222&&&&&33333ttttt4444444444&&&&&..........&&&&&&&&&&&&&&&&&&",
"&&&&&&&&&&&&&&&&&&xxxxx&&&&&&&&&&222222222233333111111111144444...............&&&&&&&&&&&&&&&&&&",
"&&&&&&&&&&&&&&&&&&xxxxx&&&&&&&&&&222222222233333111111111144444...............&&&&&&&&&&&&&&&&&&",
"&&&&&&&&&&&&&&&&&&xxxxx&&&&&&&&&&222222222233333111111111144444...............&&&&&&&&&&&&&&&&&&",
"&&&&&&&&&eee&&&&&&xxxxx&&&&&&&&&&222222222233333111111111144444...............&&&&&&&&&&&&&&&&&&",
"&&&&&&&&&eee&&&&&&xxxxx&&&&&&&&&&222222222233333111111111144444...............&&&&&&&&&&&&&&&&&&",
"&&&&&&&&&eee&&&&&&eee&&xxxxxxxxxx22222222222222233333ttttt<<<<<..........&&&&&&&&&&&&&&&&&&&&&&&",
"&&&&&&&&&&&&eee&&&eee&&xxxxxxxxxx22222222222222233333ttttt<<<<<..........&&&&&&&&&&&&&&&&&&&&&&&",
"&&&&&&&&&&&&eee&&&eee&&xxxxxxxxxx22222222222222233333ttttt<<<<<..........&&&&&&&&&&&&&&&&&&&&&&&",
"&&&&&&&&&&&&eee&&&eee&&xxxxxxxxxx22222222222222233333ttttt<<<<<..........&&&&&&&&&&&&&&&&&&&&&&&",
"&&&&&&&&&&&&eee&&&&&&&&xxxxxxxxxx22222222222222233333ttttt<<<<<..........&&&&&&&&&&&&&&&&&&&&&&&",
"&&&&&&&&&&&&eee&&&&&&&&&&&&&&&eeexxxxx2222222222333333333344444.....&&&&&&&&&&&&&&&&&&&&&&&&&&&&",
"&&&&&&&&&&&&eee&&&&&&&&&&&&&&&eeexxxxx2222222222333333333344444.....&&&&&&&&&&&&&&&&&&&&&&&&&&&&",
"&&&&&&&&&&&&eee&&&&&&&&&&&&&&&&&&xxxxx2222222222333333333344444.....e&&&&&&&&&&&&&&&&&&&&&&&&&&&",
"&&&&&&&&&&&&eee&&&&&&&&&&&&&&&&&&xxxxx2222222222333333333344444.....e&&&&&&&&&&&&&&&&&&&&&&&&&&&",
"&&&&&&&&&&&&eee&&&&&&&&&&&&&&&&&&xxxxx2222222222333333333344444.....e&&&&&&&&&&&&&&&&&&&&&&&&&&&",
"&&&&&&&&&&&&&&&&&&&&&&&&&&&&&&&&&eee&&&&&&&&&&&&333333333333333eee&&&&&&&&&&&&&&&&&&&&&&&&&&&&&&",
"&&&&&&&&&&&&&&&&&&&&&&&&&&&&&&&&&eee&&&&&&&&&&&&333333333333333eee&&&&&&&&&&&&&&&&&&&&&&&&&&&&&&",
"&&&&&&&&&&&&&&&&&&&&&&&&&&&&&&&&&eee&&&&&&&&&&&&333333333333333eee&&&&&&&&&&&&&&&&&&&&&&&&&&&&&&",
"&&&&&&&&&&&&&&&&&&&&&&&&&&&&&&&&&eee&&&&&&&&&&&&333333333333333&&&&&&&&&&&&&&&&&&&&&&&&&&&&&&&&&",
"&&&&&&&&&&&&&&&&&&&&&&&&&&&&&&&&&eee&&&&&&&&&&&&333333333333333&&&&&&&&&&&&&&&&&&&&&&&&&&&&&&&&&",
"&&&&&&&&&&&&&&&&&&&&&&&&&&&&&&&&&eee&&&&&&&&&&&&11111<<<<<&&&&&&&&&&&&&&&&&&&&&&&&&&&&&&&&&&&&&&",
"&&&&&&&&&&&&&&&&&&&&&&&&&&&&&&&&&&&&&&&&&&&&&&&&11111<<<<<&&&&&&&&&&&&&&&&&&&&&&&&&&&&&&&&&&&&&&",
"&&&&&&&&&&&&&&&&&&&&&&&&&&&&&&&&&&&&&&&&&&&&&&&&11111<<<<<&&&&&&&&&&&&&&&&&&&&&&&&&&&&&&&&&&&&&&",
"&&&&&&&&&&&&&&&&&&&&&&&&&&&&&&&&&&&&&&&&&&&&&&&&11111<<<<<&&&&&&&&&&&&&&&&&&&&&&&&&&&&&&&&&&&&&&",
"&&&&&&&&&&&&&&&&&&&&&&&&&&&&&&&&&&&&&&&&&&&&&&&&11111<<<<<&&&&&&&&&&&&&&&&&&&&&&&&&&&&&&&&&&&&&&",
"&&&&&&&&&&&&&&&&&&&&&&&&&&&&&&&&&&&&&&&&&&&&&&&&&&&&&&&&&&&&&&&&&&&&&&&&&&&&&&&&&&&&&&&&&&&&&&&&",
"&&&&&&&&&&&&&&&&&&&&&&&&&&&&&&&&&&&&&&&&&&&&&&&&&&&&&&&&&&&&&&&&&&&&&&&&&&&&&&&&&&&&&&&&&&&&&&&&",
"&&&&&&&&&&&&&&&&&&&&&&&&&&&&&&&&&&&&&&&&&&&&&&&&&&&&&&&&&&&&&&&&&&&&&&&&&&&&&&&&&&&&&&&&&&&&&&&&",
"&&&&&&&&&&&&&&&&&&&&&&&&&&&&&&&&&&&&&&&&&&&&&&&&&&&&&&&&&&&&&&&&&&&&&&&&&&&&&&&&&&&&&&&&&&&&&&&&",
"&&&&&&&&&&&&&&&&&&&&&&&&&&&&&&&&&&&&&&&&&&&&&&&&&&&&&&&&&&&&&&&&&&&&&&&&&&&&&&&&&&&&&&&&&&&&&&&&"
};
