/* XPM */
static char *run_l_4[] = {
/* columns rows colors chars-per-pixel */
"96 96 44 1 ",
"  c #4E4D5C",
". c #5C6D77",
"X c #A5C262",
"o c #A4C362",
"O c #A5C362",
"+ c #A4C263",
"@ c #A4C363",
"# c #A5C363",
"$ c #C0D470",
"% c #C1D470",
"& c #C0D570",
"* c #C1D570",
"= c #C1D471",
"- c #C0D571",
"; c #C1D571",
": c #6E7A80",
"> c #7B888F",
", c #728794",
"< c #9BAAB3",
"1 c #A6AFB4",
"2 c #E7A2A2",
"3 c #E7A3A2",
"4 c #E6A2A3",
"5 c #E7A2A3",
"6 c #E6A3A3",
"7 c #E7A3A3",
"8 c #E8EEAA",
"9 c #A7B8C2",
"0 c #BAC4CA",
"q c #C6DADE",
"w c #C7DADE",
"e c #C6DBDE",
"r c #C7DBDE",
"t c #C6DADF",
"y c #C7DADF",
"u c #C6DBDF",
"i c #C7DBDF",
"p c #DEECEC",
"a c #DEEDEC",
"s c #DFEDEC",
"d c #DEECED",
"f c #DFECED",
"g c #DEEDED",
"h c #DFEDED",
/* pixels */
"%#%%%%%%%%;;;;;;;;=**====***;;;;;;;;;;;;=*=*#*;;;;;;;;;;;;=*=#**;;;;;;;;;;;;;;;;;;***=;;;;;;;;**",
"%%%%%%%%;;;;;;;;;;===*==X*;;**;;;;;;;;;;**=***;;;;;;;;;;;;=***;;;;;;;;;;;;%*;;;;*;**O=;;;;;;***=",
";;%;;%%%%;;;;;;;;;;;====;;;;***%;;;;==;*==;;*;;;;;;;;;;;;;;=;;;;;;%%;;;;;;**;;;;**=;;;;;;;;;****",
";;;;%;%%#;;;;;;;;;;;*=*=;;;;*X=*;;;;===;=*;;;;;;;;;;;;;;;;==;;;;;X;%;;;;%%%*;;;;****;;;;;;;;****",
";;;;;;%;%***;***;;;;*#**;;;;;;**;;;;==*X;;;;;;;;;;*=#*;;*#==;;;;%%%%;***;*=;;;;;;;;;;;;;;;;;=***",
";;;;;;;%%***;;*;;;;;****;;;;**%%;;;;%***;;;;;;;;;;**;*;;***=;;;;%%%%;*;*====;;;;;;;;;;;;;;;;=***",
";;;;;;;;%%%;***;;;;;;;*%;;;;*===;;;;;;**;;;;;;;;==*=;;;;***=;;;;**;;;*;;***=;;;;;;;;;;;;;;;;*=**",
";;;;;;;;%%*;;;**;;;;;;%%;;;;=*==;;;;;;;;;;;;;;;;===*;;;;;;*;;;;;;**;**;;*==O;;;;;;;;;;;;;;;;;O**",
";;;;;;;;%%;;;;;;;;;;;*%%;;;;****;;;;;;;;;*;*;;;;;;;%;%%=;;#%%%;;%%X;;;;;****;;;;==**=****%%%****",
";;;;;;;;%%;;###;;;###;%%;;;;****;;;;;*;;;;*;;*;;;;;%;%%=;#oo%%;;**;;;;;;***;;;;;;;***==**%%%****",
"%;;;;;;;%%%%###;;;###==%;;;;;;X***;;#*;;;;;;#**%;;#%;;#=;###;;;;****;;;;**;;;;;;%%**;;;;*===;*;;",
"%%;;;;;;%#%%###;;;###==%;;;;iirriiiiyh;;;;*****%iieiuhrefy##;;;;***;;;;;;*;;;;;;X%%%;;;;**==;;;;",
"%;%%;;;;***;;;;###;;*%*%***;rrrryrryrr;;*;==%%==iiiieeeyiu%%#O#;**;*;;;;O;;;;;;;==;;;;;;*=;;;;;;",
"%%;;;;;;***;;;;###;;=*****;*rryyyyrrrr;*;;=*%%**iiiieerriu%%#OO;***;;;;;;;;;;;;;==;;;;;;*=;;;;;;",
"O*%;%%%%*%;%;;;###**%*%*==*=rryyrryrrrX**==*%**%iiiieeriii%%O#O%*;;;;;;;;;;;;;;;=;;;;;;;*==;;;;;",
"%***#%%%%%;;;;;;;***X%%%%===ryyyyrrrrr***;==%*==riiirreiii%%#OO%;;*;;;;;;;;;;;;;;;;;;;;;O==;;;;;",
"%;;;;;;;;;;;****#%;;;;;;;;;;33773iiuiiyiwwp%;;;#33336rrrrrttrrr#%%%%%%;%%#;;;;;;%%%%****%%%***;;",
";;;;;;;;;;;;***%%%;;;;;;;;;;33773iiriyuywww%;;;;33556errterertp%%%%%;%;;#;;;;;;;%%#%**;;%%;****;",
";;;;;;;;;;;;*%**%;;;;;;;;;;;37773ryuyyiywwpX;;;;33575eyrrtterrr#;%%;%%%%;;;;#;;;%###****%%****;;",
";;;;;;;;;;;;*%%%%%;;;;;;;;;;77773ryiuuiiewh;;;;;33335reetrwwrrp%%%;%%%%;;;;;;;;;%###****%%;***;;",
"%%%%;;**;;;;%%%%;;;;;;;;===;77553eeyrrryeee#***#33666eeeeeyyerr#;%;;;;;;;;;;;;;;;###;;;;O;;;;;;;",
"#%%%;;**;;;;%%%%;;;;;;#;=#=;hhhfhhfhhhhhpphhhhhh33556ettryeyrrp=%;%%%;;;;;;;;;###;;;;;*;;;;;;;;;",
"%%******;;;;;%%%;;;;;;;;====hhffddhdhhhhhhhhhhaa33354eeeyetwwrr=%;;%%%;;;;;;;;###;;;;;;;;;;;;;;#",
"%%******;;;;#%%%;;;;#;;;====hhfhhhhdhhhhhhhhhssh33354eetyrrtrer=%;;%%%;;;;;;;;###;;;;;;;;;;;;;;%",
";;;;;;;;;;;;;;;%;;;;;;;;;;;;hhhhhphhhhfffffhhhha36665eeeeryyyir###;%;;;;;;;;%;###;%#;;;;%;;;;;%%",
";;;;;;;;;;**;;;%;;;;;;;;;;;;hhhhdhhhhffffffhhhhh63665eeeyyyyyuy@##%%=;;;;;;;%;###;%%;;;;%%;;;;%%",
";;;;;;%%%***;;%%;;;;;;*ssssshhhhhphaddhhhhhppppspphhheeeyeeeeey@##;;==#;;;%#;%###;%%;;;;%%%%;%%%",
";;;;;#%%%***;;;%;;;;O**ssssshhhhpppphdhhhhhhpppshpphhyeeeeeeeeh@;;###=;;;;%%%%;;;;%%;;;;%#%%;%%%",
"%%;;;;%%#%;;;;%%;;;;;;*ssshhhhhhhhhhhhhhhhhhhhhhhpppheeeeeeeeee#%####;;;;;;%%%%;;;;;;*******;;%%",
"%%;;;;%%%%;;;;%##;;;;;*ssshhhhhhhhhhhhhhhhhhhhhhhhppheeeeeeeeef%%%###;;;%;%%%%%;;;;;;;******;#%%",
"%%#;;;;;%;;;***%;;;;***shhhhhhhhhhhhhhhhhhhhhhhhhhhhheeeeeeerre#%%###;;;%%%%%#**;;;;%%**;;;;;;%%",
"%%;;;;;;%%;;***%;;;;***shhhhhhhhhhhhhh     hhhhhhhhhfeeeeeeeeeh%%%#OO;;;#%%%*****;%%%%#%;;;;;;%%",
"%#%%;;;;****;;;#;;#%;;;hhhhhhhhhhhhhhh     hhhhhhhhhhuurrreeeeeo;;OOO%;;;;;;;;;;**%%%;;;%%#%%%%%",
"%%%*;;;;***;;;;%;;;%;;;hhhhhhhhhhhhhhh     hhhhhhhhhhuuurreeeeh#;;%;%%;;;;;;;;;;**%#%%;;%%%%;%;;",
"%%**;*;;*%;;;;%%;;%%;;;hhhhhhhhhhhhhhh     hhhhhhhhhhuuruuuerrpO;;;;%%#;**;*;;;;**%%%;;;****;;;;",
"%%****;;%%;;;;%%;;%%%;;ghhhhhhhhhhhhhh     hhhhhhhhhhuuruuuerrp*;;;;%%%;%***;;;#**%%%;;;****;;;;",
";;;;%%%;%%%%;%%%;;;;%;;ghhhhhhhhhhhhhh     hhhhh999999999999199#%%#;;;%%%%;;;;%%**;;%%%%;;;;%%%;",
";;;;%%#;#%%%;;%%;;;;%%;ghhhhhhhhhhhhhh     hhhhh99999999999999q#%%;;;;;%%%;;;;%%**;;%%%%;;;;%%%;",
"%%;;%%;;;;;;;;;;**;;%%=hhhhhhhhhhhhhhh     hhhhh99999999999999qX%%%;;;%%#%%;;%%%**;;;;#;;;;;%%;;",
"%%%;%%%;;;;;;;;;****%#=hhhhhhhhhhhhhhh     hhhhh999999999999911%%%%;;;%#%%%%;%%%**;;;;;;;;;#%%;;",
"%%;;;;;*;;****%%*%;;;;;shhffhhhhhhhhhh     hhhhh999999019999999O;;;;;;%%%%%%;;%%%%#%%%#%%;;;%;;;",
"%%;;;;**;;****%%%#;;;;%     hhhhhhhhhhhhhhhhhhhhggggguuuiiiiiis*;;;;;;%%%%%%;;;%%%%%%%%%%%;;%%;;",
"%;;;%%**;;;;%%%%%%%;%%%     hhhhhhhhhhhhhhhhhhhhggggguuuiiiriiiO;;%%****#;%%;;%%;;%%****%;;;%%%%",
"#;;;%***;;;;%%#%%%;;%%%     hhhhhhhhhhhhhhhhhhhhggggguuuiiiiiis*;#%%****;;;;;;%#;;;%****%;;;%#%%",
"%%%%%%%%%%#;;;%%***;%;;     hhhhhhhhhhhhhhhhhhhhggggguuueeuuirrO%%%%%%%%;;;;**%%;;%%#;;;%%;;;;**",
"%%%%#%%%%%;;;;;%***;%#;     hhhhhhhhhhhhhhhhhhhhggggguuueeeurrh;;;%%%#%%;;;;**%%;;%%;;;;%%;;;;**",
"%#;%;;;;%%%;;;%%**;;;;;77773     hhhhhhhhhh999999999999911uurrro;;;;%%****;;**;;;%%%;;;;%%#;;;**",
";;;;;;;;%%%;;;%#%%;;;;;77773     hhhhhhhhhh999999999999999rrrph#;;;;;%****;;**;;;%%%;;;;%%;;;;**",
";;;;;;;;;;%%%%%%%%X****77777     hhhhhhhgga999999999999999uuuuu@;;;;;;;;;;;;;;;;;;;;%%;;;#%%;;;;",
";;;;;;;;;;%*#%%%==**;;*77777     hhhhhhhgga999999999999999uuuup#;;;;%%;#;;;;;;;;;;;;%%%;;%%%;;;;",
"**;;;;%%;***;;;;==**;;;77777     hhhhhhhggg099019999090199euuui;%;%%%%%%**;;;;%%;;;;%%;;;;%%;;%%",
"*;;;#%%%****;;;;==**;;;fhhhfhhhhhhhhhhhhgggggghhhhhhai0ieeuuuii;%%%#%%%%**;;;#%%;;#%%%;;;;%%%;%%",
"**%%;;%%;;;;;%%%;;;****fhhhhhhhhhhhhhhhhgggghhhhhhhhhuiieeeeuuu;**%%;;;;**%;;;%%;***%%;;;;;;%%%%",
"**%%;;%%;;;;;;%%;;;****fhhhhhhhhhhhhhhhhggdghhhhhhhhhuiieeeeuui;**%%;;;#**%%;;%%****%%;;;;;;%*#%",
"*%%%;;;%;*;;;#%%;;***=*fhhhhhhhhhhhhhhhhggdghhhhhhhhhuuueeeeeei#**;;;;%%%%#%;;;%%#*%%%%%**;*****",
"%%#%;;;;**;;;%%%;;*#==*fhshhhhhhhhhhhhhhhggghhhhhhhhhuuueeeeeip;**;;;;%%%%%%;;;%%%%%#%%********;",
";;;;%%****%%%%%;***=#***;;;;hhhhhhhhhhhhhhhhhhhheeeerrrree;#;;;;%%%;;;%%%%**;;;;%%;%%%%%%%%%%#;;",
";;;;%%888*%#888;*;*=;*;;;;;;hhhhhhhhhhhhhhhhhhhheeeerrrree;;;;;;%#%%;;%%%***;;;;%%;;%%%%%%%%;;;;",
";;%;#%888*%%888;;;;;;;;;;*;;hhhhhhhhhhhhhhgghhhheeeererree#;**;;%%**;;;%%#**;;;;;;;;;;%#;%;;;;;;",
"%%%%%%888*%%888;;;;;;;;;**;;hhhhhhhhhhhhhggghhhheeeeeeeeee;;**;;%%**;;;%%%*;;;#%;;;;;;;;;;;;;;;;",
"%%%%****;888;;;;;;;;;;;***#*hhhhhhhhhhhhaaagaaaaeeeeeeearr******;;**%%%%%%;;%%%%%%%#;;;;%%;;**;;",
"%%%%;;**;888;;%;;;;;;;;,>,:<;;;;#111111111100000<<<<1*&O;*.....*;;**%%%%%%;;%%%%%%%%;;;;%%;;*;;;",
";;#;;;;;;888%%%%;;**;**,,,,,;;#;;111111111100000<<<<1*O*;*.....*;;;;#;%%;;;;;%;;;;%%**;*%%%%**;;",
";;;;;;;;;;#%%%%%;#****#,,,,,;;;;;111111111100000<<<<9;;***.....*;;;;;;;;888;;;;;;;%*****#%%***;;",
";;**%%#%****%%;;;;;;;;;,,,,,%%%%#111111111100000<<<<<***;;.....;;;****#%888%%;;;;;;;%%%;;;;****%",
";;**%%%%****%%;;;;%%;%;>,,,,%%#%o111111111100000<<<<<#**;O.....;;;*;**%%888%;;;#;;;;%%#;;;;;**%%",
";;**;;%%;;;;#%%;%%%%%%#,,,,,,,>,,111111>>>>>>>>><<<<1..........;;;;;;;%%;shhhh%%%%;;%%;;;;;;%%%#",
";;**;;;%;;;;%%%%%%%%%%%,,,,,,,,,,11111>>>>>>>>>><<<<1..........;;;;;;;;;;hhhhh%%%;;;%%%%;;;;%%%%",
";;;;;;;;;;;;;;;;#;;;**%,,,,,,,,,,11111>>>>>>>>>><<<<<..........*%%#*;;;;;sshss;;%%;;;;;%;;;#;;;;",
";;;;;;%%;#;;;;;;;;;;**%,,,,,,,,,,11111>>>>>>>>>><<<<<..........;%%%*;;;;;shhss;;%%;;888;;;;%;;;;",
";;;;%%%%%%%%;;%;;;;;**%,,,,,,,,,,11111>>>>>>>>>><<<<<..........;%;******;sssss;;%%#;888;;;%%%%;;",
";;;#%%%%%%%%%%%%;;;;**%,,,,,,,,,,,,,,,00000<<<<<<<<<<..........hhhssssaps;;888;;%%;;888;;;%%%%%;",
"********%%#%%%#%;;;;;;%,,,,,,,,,,,,,,,00000<<<<<<<<<<..........hhhhhhhhhh;;888%;%888;;;;;;%%%%%%",
"********%%%%%%%%;;;;;;;>,,,,,,,,,,,,,,00000<<<<<<<<<<..........hhhhhhhhhh;;888O;%888%;;;;;%*#%%%",
"%%%%;;;;;;%%****;;;;;;*>,,,,,,,,,,,,,,00000<<<<<<<<<<..........hhhhhhhhhs;;888%%%888%%;;;***;;;;",
"%#%%;;;;;;;%****;;#%%;#<,,,,,,,,,,,,,,00000<<<<<<<<<<..........shhhhhhhhs;%;%%%%%888%%;;****;;;;",
"%%%%%%;;;;%%#;;;;;%;;;;;;;;;,,,,,,,,,,<<<<<<<<<<sssssshhhhhhhhs888;%%;;;;%;;;;%%%888%%%%;;;;;%%%",
";%;;%%;;;;%%;;;;;;%;;#;;;;;;,,,,,,,,,><<<<<<<<<<sssssshhhhhhhhs888;;%%;;%%;;;;%;#888#%%%;;;;;;%%",
";;;;%%#;;%%%;;;;;#%%;;;;;;;8,,,,,,,,,,<<<<<<<<<<sssssshhhhhhhhh*;;;;%%#;%%%#;;;;;888%%**;*;;;#%%",
";;;;%%;;;%%%;;;;;%%%;;;;#;;8,,,,,,,,,,<<<<<<<<<<sssssshhhhhhhhh*;;;;%%;;%%%%;;;;;888%*****;;;%%%",
"%%**;;;;**;;;;%%;;;;;;;;;;%8,,,,>>,,,,<<<<<<<<<<hhsssahhhhhhsss*%%%#**;;%%**;;;;;888;;;;;;**%%#%",
"%%**;;;;**;;;#%%;;;;;;;;;;%*%%888<<<<<<<<<<<<<<<%%%*;;;;%%%%888*%%%%*;;;%***;;;;;;;;;#;;;;**%%%%",
"#%**;;;;**;;;;%%%%;;;;%%;***%%888<<<<<<<<<<<<<<<%%**;;;;%%%%888*;;%%**;;%#**;;;;;;;;%%%%;;**;;%%",
"%%**;;;#**;;;;%%%%%;#%%%;***%#888<<<<<<<<<<<<<<<%#**;;;;%#%*888;;;%***;;%%*;;;#%;;;;%%%%;;**;;;%",
"%;;;%%%%*%#%;;;%%%;;;;%%;;%%%;;;%<<<<<<<<<11<<<<%;;;O;;;%;;;888;;;;;;;;;%%;;%%%%**%%%%%%;;;;;;;;",
"%%;;%%%%%%%%;;;%%%;;;;%%;#%%%%;;%<<<<<<<<<11<<11%%;;%%;;;;;;888;;;%;#%;;%%;;%%%%**%#;%;;;;;;;;%%",
"%;;;%%;;;;%%;;%%%%%;;%;%;;%%%;;;%%%%%%>>.>>..:::;;;;%%%%;;;;888;%%%%%%%%;;;;;%;;**%%;;;;;;;;%%%%",
"%;;;;;;;;;;%;;;%%%#;;;;;;;%%%;;;%%%%%%>><.>.::::;%;;%%%%;;;;;;;;%%%%%%%%%;;;;;;;**%%;;;;;;;#%%%%",
"%%;;;;;;;;;;**%%;;%%;;;;;;**%%#%%$$$$$>><.<:>..<%%;;;;;;;;;%%%;;%#;;;********%;;;;;;%%;;**%%%;;;",
"%%;;;;;;;;;;**%#;#%%;;;;;;**%%%%%%$$$$>..<......%%;;;;;;;;;%%%;;;;;;*****;**%%;;;;;;%%%;**%#%%;;",
"%%#;****;;;;**%%;;%%;;%;;;**;;%%%%%%$$.1>>1.>..>%%%;**;;;;%%%%#;;;;;%#*%;;;;%%%%;;;;%%;;**%%%;;;",
"%%;;****;;;#**%%;;%%%%%%;;**;;;%%%%%$$**%%****;;%%%#***;;;;%%%;;;;;;%%%%;;;;#%%%;;#%%%;;**%%%;;;",
"%%%;%%#%%%%%%%%%;;;;%%#%;;;;;;;;%%%%%%%%%%%%;;;;%%;;*%%%%%#%;;;;;#%%%%;;;;;;;;;;;***%%;;**;;%%%%",
"%%%;%%%%%%%%;%%#;;;;%%%%;;;;;;%%%%%%%%%%%%%%;;;;%%;;*%%#%%%%;;;;;%%%%%;;#%;;;;;;****%%;;**;;%%%%",
"%%;;;;%%%%;;;;%%********;;;;%%%%%%%%%%%%%%%%;;#%%%;;;;%%****;;;;;;%%;;;;%%%%;;%%%#*%%%%%**;;;;#;",
"%%;;;;;%;;;;;;%%********;;;#%%%%%%%%%%%%%%%%;;;%%%;;;%%%****;;;#;;%%%;;;%%%%%;%%%%%%#%%%**;;;;;;"
};
