/* XPM */
static char *result[] = {
/* columns rows colors chars-per-pixel */
"96 96 49 1 ",
"  c #4E4D5C",
". c #5C6D77",
"X c #A4C262",
"o c #A5C262",
"O c #A4C362",
"+ c #A5C362",
"@ c #A4C263",
"# c #A5C263",
"$ c #A4C363",
"% c #A5C363",
"& c #C0D470",
"* c #C1D470",
"= c #C0D570",
"- c #C1D570",
"; c #C0D471",
": c #C1D471",
"> c #C0D571",
", c #C1D571",
"< c #6E7A80",
"1 c #7B888F",
"2 c #728794",
"3 c #9BAAB3",
"4 c #A6AFB4",
"5 c #E6A2A2",
"6 c #E7A2A2",
"7 c #E6A3A2",
"8 c #E7A3A2",
"9 c #E6A2A3",
"0 c #E7A2A3",
"q c #E6A3A3",
"w c #E7A3A3",
"e c #E8EEAA",
"r c #A7B8C2",
"t c #BAC4CA",
"y c #C6DADE",
"u c #C7DADE",
"i c #C6DBDE",
"p c #C7DBDE",
"a c #C6DADF",
"s c #C7DADF",
"d c #C6DBDF",
"f c #C7DBDF",
"g c #DFECEC",
"h c #DEEDEC",
"j c #DFEDEC",
"k c #DEECED",
"l c #DFECED",
"z c #DEEDED",
"x c #DFEDED",
/* pixels */
"&=&>:->;;;:*;>&&-:**>>,>&>-:;-&-=&=,::;*,;>;:;;=*=::*:,:&=-,-:-,:*;&&:-&=;,:;;>:;-;:;*:**:*>,>&:",
"*,;=&;-,>:>--;-,*&=:-*;>->-*&*>-:=;>*==:>>-&=&&>;*:,;&::>,>&,>-,=&-*&,=*,:,=*;>>-=-*=:=&**-,,=;-",
":>*>*>,&,>,--;:>=::&>>*:=;->=*&=,>&=&=:*:>=&,*&:;&,,;;&>::*-:&,,=;*-**-*&--&=,,>=-,&&*-=:,>-=:=,",
"*;&&,,&==:,:&-,-;*=:*;:&>-&*&&;,;&&=,*&=&==&,::*,:,->&,,;;,,:&,*-*=-,&*::->=:;-*,-=-=*=&>>-&;,-*",
"&&>*;:==;>-:::,*>:&*>;;>&&>;,&;;,&=>*&>;-&,&>===;=&>>=&:=,=,;-,=>=&*,:-,:&;*=&*:*>=;;=;*;-&*&->=",
":>=&:,::=-*-:*=-=:;>:>;--:=-,*,,*-->,;->=,*&:&-&==,:,,:&>;*==*=;;;,;:>-=:,;*&,:,*->--&:,&=:*=>,:",
":>,->-;:&&:&&:>:*,:;-*=--,,,>*=**-,=&*:;-&;-,>:*-=;&*=*:>,--,:*;>=*-;;=-,::>;*&,-->>:=,&,*&;>=>=",
"*&>&,=>&;*=::-:-;;;;*,>*-;,*,-&:-*-,>===,,;;=;=:,>:-&--,;&=*>;:*-=&*&=,;;=>&**-;;*:*:;--:*=->-;,",
"=-:&=>&&;>*&:,&:-::>&>,-&**&-*&=*:-==*;:&-*&&=&*;=,;;>=:&->-=,*=-,;>-&>>:::,;>&&>::,>:*;:;;;**=,",
"&&>>*>;:;==*>;&;&>=--=,-;>*>*=;*>->=XXO>**,;=;;,=&;=;>&=,:**,>&,;-,*&>,,;&*X@X&&-o++>-==*,=;-,*:",
",=;;=>,=-,:,-**>*-:=*:*-:&>*&:=-*-,,$+@>*=>-,=:-:-=&*=,>&-&,>&*=:=;=;-::&*:$##*:=O%+&--=>*=&&:*-",
"=-&&-*=*=:=*&*=&&;&-&;:&:;,:*&=;,**-#$dpuyaduypi;;=&;>&:=&upiyppiiia*,=-,*=$@+-&,O@#:*;&*=->*&:&",
";,-**&>->>>;;==,>;:,=;=:;=,=*=-*&@%X>-dyiuidfdyp==-:,;>=:;idiaydiifp*;-*,>&:*&XX$--&&;;===:>,>,*",
";--&>*,>---&:,>**,:--::>=-;&;=;&&X@$-=yiiddypyip::-==-,-==pdpppdifdu&:;*=:-***$#+=-&-**::;>&-&*:",
",&,>>=-&::=:,*;=*;>*,*-=-=-&,=:>-+o$=&yypiyyppud,,:**,=,;&piipdppydp,&=;;*-*:=%oO,;:&>;:>;>*:=;:",
"&**;>,=,:>=-:,;;&-:-,&=::,*=-;:;*%+X&;uiyifspipi:>::,,;&,*piiiufyuip-&**>;*->,*:,=>&&;;*;=,=&-;,",
"--;:;*&,,:*:;&&;=,&*,&***:;&&=&->ipiaydiiid7q9ww*>&>=yaiuyuyyiyw90ww*:>>>=*=-,=;*:&>,==,,&;,-;&&",
":-:;--;;*:-=:**=,,=:&>*&=;>=>&>-,iysiyiiuds6qq95>--=-suiyydiiyiq505q*&**:>=,*=*=:-&;>&:=*::-*,::",
";=;,:-,;>=>-o$o,;=:&*;,;-:-:&,-&&iydppiifpu9q997;>==-iyippidiiu79079&-=--:&,&&:>*:&=;&;&:*:;,&,=",
",-=::->:-=:&+X%&>,>;*>;-&:->;:**:pyyiiiiyyi8w0w9&&:;:yypisyppyiqq9q0-;->*==-:&:;,=*&&*,*-->&=-:&",
"&,*;-&==>:;*@%$-;=,;=;>&;=;*-=;:&pipiiiidii95qww;;*,&ypifspauuiw98ww>*=:--,:>>-&>*;-;&&*:*:->,-*",
"**>*:-,&>::=;-&X$X;;->,,=-&>&==-*iuiiiiiisuqw999xxzllhzkhklgkxzxzkkk:*=****,,=-:;&=&-=:>-&>>-,-;",
",*=*;,*=-&:-:*:o+X;&-=&;&>=,&*-*>fyaiiiyydu89070jkxzljxllxzljlkkxxhl:,=**>*->&=*==-;**>&:&=*,=,>",
"-::&*&*;:*&,;=>#@$*-**:,,;--;=-=>iiiyiiiipy799q7xjxxxzhlkxkjglxgxkxz-,;=,:-,&-->,,,:,&&:====-*=>",
"&&&&&&&&&&&&&&&@@@&&&&&&&&&&&&@@@iiiiiiiiiiqqqqqxxxxxxxxxxxxxxxxxxxx&&&&&&&&&&&&&&&&&&&&&&&&&&&&",
"&&&&&&&&&&&&&&&@@@&&&&&&&&&&&&@@@iiiiiiiiiiqqqqqxxxxxxxxxxxxxxxxxxxx&&&&&&&&&&&&&&&&&&&&&&&&&&&&",
"&&&&&&&&&&&&&&&@@@&&&&&&&&&&&&@@@iiiiiiiiiixxxxxxxxxxxxxxxxxxxxxxxxxxxxxx&&&&&&&&&&&&&&&&&&&&&&&",
"&&&&&&&&&&&&&&&&&&&&&&&&&&&@@@&&&iiiiiiiiiixxxxxxxxxxxxxxxxxxxxxxxxxxxxxx&&&&&&&&&&&&&&&&&&&&&&&",
"&&&&&&&&&&&&&&&&&&&&&&&&&&&@@@&&&iiiiiiiiiixxxxxxxxxxxxxxxxxxxxxxxxxxxxxx&&&&&&&&&&&&&&&&&&&&&&&",
"&&&&&&&&&&&&&&&&&&&&&&&&&&&@@@&&&iiiiiiiiiixxxxxxxxxxxxxxxxxxxxxxxxxxxxxx&&&&&&&&&&&&&&&&&&&&&&&",
"&&&&&&&&&&&&&&&&&&&&&&&&&&&@@@&&&iiiiiiiiiixxxxxxxxxxxxxxxxxxxxxxxxxxxxxx&&&&&&&&&&&&&&&&&&&&&&&",
"&&&&&&&&&&&&&&&&&&&&&&&&&&&@@@&&&rrrrrrrrrrrrrrrxxxxx     xxxxxxxxxxxxxxx&&&&&&&&&&&&&&&&&&&&&&&",
"&&&&&&&&&&&&&&&&&&&&&&&&&&&@@@&&&rrrrrrrrrrrrrrrxxxxx     xxxxxxxxxxxxxxx&&&&&&&&&&&&&&&&&&&&&&&",
"&&&&&&&&&&&&&&&&&&&&&&&&&&&&&&&&&rrrrrrrrrrrrrrrxxxxx     xxxxxxxxxxxxxxx&&&&&&&&&&&&&&&&&&&&&&&",
"&&&&&&&&&&&&&&&&&&&&&&&&&&&&&&&&&rrrrrrrrrrrrrrrxxxxx     xxxxxxxxxxxxxxx&&&&&&&&&&&&&&&&&&&&&&&",
"&&&&&&&&&&&&&&&&&&&&&&&&&&&&&&&&&rrrrrrrrrrrrrrrxxxxx     xxxxxxxxxxxxxxx&&&&&&&&&&&&&&&&&&&&&&&",
"&&&&&&&&&&&&&&&&&&&&&&&&&&&&&&&&&iiiiiiiiiixxxxxxxxxxxxxxxxxxxxxxxxx     &&&&&&&&&&&&&&&&&&&&&&&",
"&&&&&&&&&&&&&&&&&&&&&&&&&&&&&&&&&iiiiiiiiiixxxxxxxxxxxxxxxxxxxxxxxxx     &&&&&&&&&&&&&&&&&&&&&&&",
"&&&&&&&&&&&&&&&&&&&&&&&&&&&&&&&&&iiiiiiiiiixxxxxxxxxxxxxxxxxxxxxxxxx     &&&&&&&&&&&&&&&&&&&&&&&",
"&&&&&&&&&&&&&&&&&&&&&&&&&&&&&&&&&iiiiiiiiiixxxxxxxxxxxxxxxxxxxxxxxxx     &&&&&&&&&&&&&&&&&&&&&&&",
"&&&&&&&&&&&&&&&&&&&&&&&&&&&&&&&&&iiiiiiiiiixxxxxxxxxxxxxxxxxxxxxxxxx     &&&&&&&&&&&&&&&&&&&&&&&",
"&&&&&&&&&&&&&&&&&&&&&&&&&&&&&&&&&iiiiirrrrrrrrrrrrrrrxxxxxxxxxx     qqqqq&&&&&&&&&&&&&&&&&&&&&&&",
"&&&&&&&&&&&&&&&&&&&&&&&&&&&&&&&&&iiiiirrrrrrrrrrrrrrrxxxxxxxxxx     qqqqq&&&&&&&&&&&&&&&&&&&&&&&",
"&&&&&&&&&&&&&&&&&&&&&&&&&&&&&&&&&iiiiirrrrrrrrrrrrrrrxxxxxxxxxx     qqqqq&&&&&&&&&&&&&&&&&&&&&&&",
"&&&&&&&&&&&&&&&&&&&&&&&&&&&&&&&&&iiiiirrrrrrrrrrrrrrrxxxxxxxxxx     qqqqq&&&&&&&&&&&&&&&&&&&&&&&",
"&&&&&&&&&&&&&&&&&&&&&&&&&&&&&&&&&iiiiirrrrrrrrrrrrrrrxxxxxxxxxx     qqqqq&&&&&&&&&&&&&&&&&&&&&&&",
"&&&&&&&&&&&&&&&&&&&&&&&&&&&&&&&&&iiiiiiiiiixxxxxxxxxxxxxxxxxxxxxxxxxxxxxx&&&&&&&&&&&&&&&&&&&&&&&",
"&&&&&&&&&&&&&&&&&&&&&&&&&&&&&&&&&iiiiiiiiiixxxxxxxxxxxxxxxxxxxxxxxxxxxxxx&&&&&&&&&&&&&&&&&&&&&&&",
"&&&&&&&&&&&&&&&&&&&&&&&&&&&&&&&&&iiiiiiiiiixxxxxxxxxxxxxxxxxxxxxxxxxxxxxx&&&&&&&&&&&&&&&&&&&&&&&",
"&&&&&&&&&&&&&&&&&&&&&&&&&&&&&&&&&iiiiiiiiiixxxxxxxxxxxxxxxxxxxxxxxxxxxxxx&&&&&&&&&&&&&&&&&&&&&&&",
"&&&&&&&&&&&&&&&&&&&&&&&&&&&&&&&&&iiiiiiiiiixxxxxxxxxxxxxxxxxxxxxxxxxxxxxx&&&&&&&&&&&&&&&&&&&&&&&",
"&&&&&&&&&&&&&&&&&&&&&&&&&&&&&&&&&&&&&&iiiiiiiiiixxxxxxxxxxxxxxxxxxxx&&&&&&&&&&&&&&&&&&&&&&&&&&&&",
"&&&&&&&&&&&&&&&&&&&&&&&&&&&&&&&&&&&&&&iiiiiiiiiixxxxxxxxxxxxxxxxxxxx&&&&&&&&&&&&&&&&&&&&&&&&&&&&",
"&&&&&&&&&&&&&&&&&&&&&&&&&&&&&&&&&&&&&&iiiiiiiiiixxxxxxxxxxxxxxxxxxxx&&&&&&&&&&&&&&&&&&&&&&&&&&&&",
"&&&&&&&&&&&&&&&&&&&&&&&&&&&&&&&&&&&&&&iiiiiiiiiixxxxxxxxxxxxxxxxxxxx&&&&&&&&&&&&&&&&&&&&&&&&&&&&",
"&&&&&&&&&&&&&&&&&&&&&&&&&&&&&&&&&&&&&&iiiiiiiiiixxxxxxxxxxxxxxxxxxxx&&&&&&&&&&&&&&&&&&&&&&&&&&&&",
"&&&&&&&&&&&&&&&&&&&&&&&&&&&&&&&&&&&&&&&&&&&tttttttttt4444444444&&&&&&&&&&&&&&&&&&&&&&&&&&&&&&&&&",
"&&&&&&&&&&&&&&&&&&&&&&&&&&&&&&&&&&&&&&&&&&&tttttttttt4444444444&&&&&&&&&&&&&&&&&&eee&&&eee&&&&&&",
"&&&&&&&&&&&&&&&&&&&&&&&&&&&&&&&&&&&&&&&&&&&tttttttttt4444444444&&&&&&&&&&&&&&&&&&eee&&&eee&&&&&&",
"&&&&&&&&&&&&&&&&&&&&&&&&&&&&&&&&&&&&&&&&&&&tttttttttt4444444444&&&&&&&&&&&&&&&&&&eee&&&eee&&&&&&",
"&&&&&&&&&&&&&&&&&&&&&&&&&&&&&&&&&&&&&&&&&&&tttttttttt4444444444&&&&&&&&&&&&&&&&&&&&&eee&&&&&&&&&",
"&&&&&&&&&&&&&&&&&&&&&&&&&&&&&&&&&222222222233333111111111144444&&&&&..........&&&&&&eee&&&&&&&&&",
"&&&&&&&&&&&&&&&&&&&&&&&&&&&&&&&&&222222222233333111111111144444&&&&&..........&&&&&&eee&&&&&&&&&",
"&&&&&&&&&&&&&&&&&&&&&eee&&&&&&&&&222222222233333111111111144444&&&&&..........&&&&&&&&&&&&&&&&&&",
"&&&&&&&&&&&&&&&&&&&&&eee&&&&&&&&&222222222233333111111111144444&&&&&..........&&&&&&&&&&&&&&&&&&",
"&&&&&&&&&&&&&&&&&&&&&eee&&&&&&&&&222222222233333111111111144444&&&&&..........&&&&&&&&&&&&&&&&&&",
"&&&&&&&&&&&&&&&&&&eee&&&&&&&&&&&&2222222222&&&&&33333ttttt<<<<<&&&&&..........&&&&&&&&&&&&&&&&&&",
"&&&&&&&&&&&&&&&&&&eee&&&&&&&&&&&&2222222222&&&&&33333ttttt<<<<<&&&&&..........&&&&&&&&&&&&&&&&&&",
"&&&&&&&&&&&&&&&&&&eee&&&&&&&&&&&&2222222222&&&&&33333ttttt<<<<<&&&&&..........&&&&&&&&&&&&&&&&&&",
"&&&&&&&&&eee&&&&&&eee&&&&&&&&&&&&2222222222&&&&&33333ttttt<<<<<&&&&&..........&&&&&&&&&&&&&&&&&&",
"&&&&&&&&&eee&&&&&&eee&&&&&&&&&&&&2222222222&&&&&33333ttttt<<<<<&&&&&..........&&&&&&&&&&&&&&&&&&",
"&&&&&&&&&eee&&&&&&eee&&&&&&&&&&&&xxxxxxxxxxxxxxx333333333344444&&&&&&&&&&&&&&&&&&&&&&&&&&&&&&&&&",
"&&&&&&&&&&&&eee&&&eee&&&&&&&&&&&&xxxxxxxxxxxxxxx333333333344444&&&&&&&&&&&&&&&&&&&&&&&&&&&&&&&&&",
"&&&&&&&&&&&&eee&&&eee&&&&&&&&&&&&xxxxxxxxxxxxxxx333333333344444&&&&&&&&&&&&&&&&&&&&&&&&&&&&&&&&&",
"&&&&&&&&&&&&eee&&&eee&&&&&&&&&&&&xxxxxxxxxxxxxxx333333333344444&&&&&&&&&&&&&&&&&&&&&&&&&&&&&&&&&",
"&&&&&&&&&&&&eee&&&&&&&&&&&&&&&eeexxxxxxxxxxxxxxx333333333344444&&&&&&&&&&&&&&&&&&&&&&&&&&&&&&&&&",
"&&&&&&&&&&&&eee&&&xxxxxxxxxxxxxxx&&&&&&&&&&11111333333333333333<<<<<&&&&&&&&&&&&&&&&&&&&&&&&&&&&",
"&&&&&&&&&&&&eee&&&xxxxxxxxxxxxxxx&&&&&&&&&&11111333333333333333<<<<<&&&&&&&&&&&&&&&&&&&&&&&&&&&&",
"&&&&&&&&&&&&eee&&&xxxxxxxxxxxxxxxeee&&&&&&&11111333333333333333<<<<<e&&&&&&&&&&&&&&&&&&&&&&&&&&&",
"&&&&&&&&&&&&eee&&&xxxxxxxxxxxxxxxeee&&&&&&&11111333333333333333<<<<<e&&&&&&&&&&&&&&&&&&&&&&&&&&&",
"&&&&&&&&&&&&eee&&&xxxxxxxxxxxxxxxeee&&&&&&&11111333333333333333<<<<<e&&&&&&&&&&&&&&&&&&&&&&&&&&&",
"&&&&&&&&&&&&&&&&&&&&&&&&&&&&&&&&&eee&&11111&&&&&&&&&&&&&&&&&&&&eee&&<<<<<&&&&&&&&&&&&&&&&&&&&&&&",
"&&&&&&&&&&&&&&&&&&&&&&&&&&&&&&&&&eee&&11111&&&&&&&&&&&&&&&&&&&&eee&&<<<<<&&&&&&&&&&&&&&&&&&&&&&&",
"&&&&&&&&&&&&&&&&&&&&&&&&&&&&&&&&&eee&&11111&&&&&&&&&&&&&&&&&&&&eee&&<<<<<&&&&&&&&&&&&&&&&&&&&&&&",
"&&&&&&&&&&&&&&&&&&&&&&&&&&&&&&&&&eee&&11111&&&&&&&&&&&&&&&&&&&&&&&&&<<<<<&&&&&&&&&&&&&&&&&&&&&&&",
"&&&&&&&&&&&&&&&&&&&&&&&&&&&&&&&&&eee&&11111&&&&&&&&&&&&&&&&&&&&&&&&&<<<<<&&&&&&&&&&&&&&&&&&&&&&&",
"&&&&&&&&&&&&&&&&&&&&&&&&&&&&&&&&&eee&&&&&&&&&&&&&&&&&&&&&&&&&&&&&&&&&&&&&&&&&&&&&&&&&&&&&&&&&&&&",
"&&&&&&&&&&&&&&&&&&&&&&&&&&&&&&&&&&&&&&&&&&&&&&&&&&&&&&&&&&&&&&&&&&&&&&&&&&&&&&&&&&&&&&&&&&&&&&&&",
"&&&&&&&&&&&&&&&&&&&&&&&&&&&&&&&&&&&&&&&&&&&&&&&&&&&&&&&&&&&&&&&&&&&&&&&&&&&&&&&&&&&&&&&&&&&&&&&&",
"&&&&&&&&&&&&&&&&&&&&&&&&&&&&&&&&&&&&&&&&&&&&&&&&&&&&&&&&&&&&&&&&&&&&&&&&&&&&&&&&&&&&&&&&&&&&&&&&",
"&&&&&&&&&&&&&&&&&&&&&&&&&&&&&&&&&&&&&&&&&&&&&&&&&&&&&&&&&&&&&&&&&&&&&&&&&&&&&&&&&&&&&&&&&&&&&&&&",
"&&&&&&&&&&&&&&&&&&&&&&&&&&&&&&&&&&&&&&&&&&&&&&&&&&&&&&&&&&&&&&&&&&&&&&&&&&&&&&&&&&&&&&&&&&&&&&&&",
"&&&&&&&&&&&&&&&&&&&&&&&&&&&&&&&&&&&&&&&&&&&&&&&&&&&&&&&&&&&&&&&&&&&&&&&&&&&&&&&&&&&&&&&&&&&&&&&&",
"&&&&&&&&&&&&&&&&&&&&&&&&&&&&&&&&&&&&&&&&&&&&&&&&&&&&&&&&&&&&&&&&&&&&&&&&&&&&&&&&&&&&&&&&&&&&&&&&",
"&&&&&&&&&&&&&&&&&&&&&&&&&&&&&&&&&&&&&&&&&&&&&&&&&&&&&&&&&&&&&&&&&&&&&&&&&&&&&&&&&&&&&&&&&&&&&&&&",
"&&&&&&&&&&&&&&&&&&&&&&&&&&&&&&&&&&&&&&&&&&&&&&&&&&&&&&&&&&&&&&&&&&&&&&&&&&&&&&&&&&&&&&&&&&&&&&&&"
};
