/* XPM */
static char *run_l_2[] = {
/* columns rows colors chars-per-pixel */
"96 96 42 1 ",
"  c #4E4D5C",
". c #5C6D77",
"X c #A5C262",
"o c #A4C362",
"O c #A5C362",
"+ c #A4C263",
"@ c #A5C263",
"# c #A5C363",
"$ c #C0D470",
"% c #C1D470",
"& c #C1D570",
"* c #C1D471",
"= c #C0D571",
"- c #C1D571",
"; c #6E7A80",
": c #7B888F",
"> c #728794",
", c #9BAAB3",
"< c #A6AFB4",
"1 c #E6A2A2",
"2 c #E6A3A2",
"3 c #E7A3A2",
"4 c #E6A3A3",
"5 c #E7A3A3",
"6 c #E8EEAA",
"7 c #A7B8C2",
"8 c #BAC4CA",
"9 c #C6DADE",
"0 c #C7DADE",
"q c #C6DBDE",
"w c #C7DBDE",
"e c #C6DADF",
"r c #C7DADF",
"t c #C6DBDF",
"y c #C7DBDF",
"u c #DEECEC",
"i c #DFECEC",
"p c #DEEDEC",
"a c #DFEDEC",
"s c #DFECED",
"d c #DEEDED",
"f c #DFEDED",
/* pixels */
"******----&---&&*&**&*#***--O**-------------------&*&---&***&---%-%--%------%%&&&-%&&---------&&",
"*#****----&&&&&&&****&&&**--*&-----------------------&-&--*&O----%&-%%------%-&-&--%O---------&&",
"----#*&*----&&&&&%%&**&&----*&&&----**----&*----&&-&--&--**&----&&-%O------------&&------------&",
"----&&&*----&*&&%&*&&**&----&&*&----&*&--O**----&*&&&&&&**&&-----&%--------------&-%------------",
"------&%--***%&&&*&*---------&**----*&--***&----&***--&&***&-----%%-%%----%-%O--%&%%--------&&&&",
"------&&---*&&*%&&&&--------&&&&----*&--****----&&O*----&&&*--&---%-%-----------%%%------O---&&&",
"-----&&&--*****&-&-------&&&&&&&-------***------&&&&----&*&&&-&&%%&&------%%-----%-%-----%&&&&-&",
"----*&&&--#&&&*&-*-------&-&&&&*-----O***-------*&&*-----O&*&&&&--&&%-----%------&------%-&&&&&&",
"---*&&&&-----&**&&****--------**------------**---**O-*O*--O*----%%-%----&-%-%---&---%%&O-----&&&",
"---*&&&&----OOO&&&OOO*---------*------------**---**&-***-Ooo----%-%%----&%%%%---&&-%%-------&%&&",
"--**&&&&----##O*&&OOO*O---*---#*-*--O*-*----*O&*--&&--%*-OOo----%%%---%-&&-%%-----%%-%----------",
"--*#&**&----###*--OO#*----*Oqd0eyqqqqd-*----&*&&yyqqqdwwdqoo-----%-%-%O-&&%--------O-%%---------",
"-&--*-&&-----**O##--*O&&-&&-000eyyyqyw**-*%%%%&&yyyywewwe0*&OOO-&&&%----&%%%--------------&&&&--",
"-&&&&**-----***O##--**&&--&&0w00wweyq0O&*&&***&*yyyywwwwe0*&OOO-&&&&----&%----------------&&-&--",
"&&&&----------##O#--***&*&&*wwyyrreqqr*&&&&&&%%*wyyyqy0wyy*&#OO*&&&%------O---%%-----------%O---",
"&&&&------------------*&&*&&wwwywwy0eq*&&*&&&%**ywwwyqqyyq**#OO-&-&%---------O------------%-----",
"&&&**---------&&&&***---***-33554yyyrryy00d*--**33331wwrwr00000+------%%%--%%%-----&&-&---%%-&&&",
"&&*&O--------&-***O&------**3355400eryyy0qq*---*33331wrr0r0000f#------%-%%--%-&----&&-&-%-&%-&&-",
"&&&&--------&&**&**&--------355340yyyyyy00qO--**33331w0990w000u#-----%%%---%%-%-&@O@&&&---&%&&--",
"&&&&--------&&&&&*&*--------355540yyyyyy00p---#*5333200990r0q0d*------%%---%-%--&@@@&&--&%&--&--",
"*-&&----&&**&*&-***&--------555550y0rrry0ww#&***52522r99000e0ey#%--X----%-------%@@@-----&*&----",
"&**&----&*O**&*-&&&*--------sfffddddffffddaapsas22251r9re0yyy0u-%%%-----------OO@%------*&&&----",
"&&&&-&-&**&&----*&&*-&-&---@ssffdddsffffffaapada55522rrryy00wwe***-%----------XO@%-%-----@&*--%&",
"**-&&&&&*&*&*&--O*&&&&-&---*ssffdddsffffffaapppp25551wrrtye0wyq***%-----X-----XO@&**-----&&&@*&&",
"*&&O%%%***--**------%%%***--ffffssddddssfffssspa55552tttttttqqqO@@*%%%--%&---@OO@&----&&------%%",
"*&--%&#***--**------&&#***--ffffdddsddssffffssap55552ttttt00qq0O@@**%%--%&----O@@&----%&------&&",
"----&&&&&&--**%%&---&&-aaaaaffffssddppdpfffassddppppptttttttyy0+XX--X---%&----@@@---%%%%@-%&&%%&",
"----&&&&&&&-#%%&&---&&-aaaaaffffssssapppffffddddpppppttyttttty0*--X#X---%%----&%O&--%%%%%%%&%%%&",
"--&&&#-&&&**--&&&&-----aafffffffffffaaafffffffffpppadyyyyyqqtqq#--O#@&%%%%%@-&%%%%&&%---%%%&@%%&",
"*-&&**--&&**--&&&&**---affffffffffffaaffffffffffppaadqyyqyyqtqd*--##@%%%%%----%%%%%%@---%&%&-%%&",
"&&&&*---&%%*-&&&&&&O---pffffffffffffffffffffffffaaaadqqqqqyqyqqO--OO@&-&--------%@%%----------&&",
"&&&&**--%%#*--&&&&&&--*pffffffffffffff     ffffa777777777<77778*-OX@@&------------&-----------%%",
"----&&%%--%%-----------fffffffffffffff     fffff777777777777777#--@@@&----------&%@-----%%%---%%",
"----&%%%-O%%%-------*--fffffffffffffff     fffff777777777777778----&&%----------%%%%----&&%@--%&",
"----%%-%--&&%%----****-fffffffffffffff     fffff777777777777777-----&%%-&%&%--@%%&&%%%--&&%%----",
"%--O%%----&%%%--***#**-fffffffffffffff     fffff777777777777778#----%%%@&%%%---%%&&%%&--%%%&----",
"%%%&--------%%O-*&&&---     fffffffffffffffffffffffffettwwwwyyy-%%%-----&&----%%%%--%&&&----&%%%",
"%%&&------%-%%--&&&&---     ffffffffffffffffffffffffaettqwwwyyy-&&%@----%%----&&%&--%&%%----&%%&",
"--%%--%%&&%%&&%%**&&--@     ffffffffffffffffffffffffayyyqqyyyyy-&&%%--@-%---&%%&%%----%%--@%&&--",
"-O%%-O%%&%%%&%%%*#&&---     fffffffffffffffffffffffffyyyqqyyyqd#%%%&--%%%@--%%%&&&-----@---%%%--",
"--%%%&%%&&%%O--%**&&%&&     ffffffffffffffffffffpppppqqqqqttttt#------%%%&&%----&%%%%%%---------",
"--%%&&%%%%%%------&&&&*15555     ffffffffff777778<8777778<ttttu-------&&%&&%----&%-@&&%@--------",
"---%--O-%%---------&--&15555     ffffffffff77777<7777777<78tttt#@-%&&%%&%%%%--@-----&&%%%%--@-%&",
"--------%%%--------&--#15555     ffffffffff777777777777777ttttu-%%%&%%%&-@%&--%%----%%%&%&--%%%&",
"------------%%----%%---55555     ffffffffff777777777777777ttttt#%%%&@%%&----&&&%--%%%%--%%----&&",
"---O--%-----%%%--O%%---55555     ffffffffff777777777777777qtttd-%&%&-%%&----%%&%--&&-@--&&----%%",
"--%%&&%%--%%%%----%%---affffffffffffffffffffffffddddpqqqqqttttt#------&&%%--%%--&%%&----&%%---&%",
"--%%&%%%-O%%%%----%----affffffffffffffffffffffffddddpqqqqqttttd-------%%%&--%&--%%%&----&%%@--%%",
"-%%%-%%%%&-------------aaaafffffffffffffffffaaiiddddpttqqqyyyyy&----&%@-------------%%%&%%&&----",
"--%%--%%&&----%--------aaafffffffffffffffffaaaaiddddpqqqqqyyyyaO----%%%%------------&%%-@%%&----",
"%%%&----%%O-&&%%O-&&-%%aaaffffffffffffffffaaaasiddddptqqqqqywaw&--@%%&&%%%--@-%&--%@&&----%&-&--",
"%%&&----%%--&%%%%%%&%%%%----ffffffffffffffaaaasattttqqqqqq#-&O&&---%%&&%%&--%%%&--%%%&----%%%%--",
"O--%%%--&&%%%%O-%%%%O%&&-#--aaffffffffffffffaaaattqqqqqqww&&&---&&&%--@%%%----&&-%%%--------&%%@",
"----%%-O&%%%%%--%-%%-%%&----aaffffffffffffffaaaattqqqqqqww&&O---%%&%---%&&----%%&%&%--------&&%%",
"----%&%%%%-%----------%%----aaafffffffffffffaaaftttqqqqqtt&&&&--%%----%%&%%---&%%%&&%@&&%%-&%&%&",
"----&&%%%%------------%%----aaaaffffffffffffaaafttttqqqqww&&&&&&%&----&&&%%@--%%@%%&%%%&&%%%%%%-",
"&&%%----O-----%%%%%---%%%%%%----*<<<<<<<<<<888888888u---=O&&&&&&@-----&&&&%%------%%%&&&%&&%%%--",
"%&%%--666---666%%%%O--%-%%%%---X*<<<<<<<<<<8888888887---==&-&&&&%%----%%%&&%------&-%%%&%%&&@%--",
"%%%%--666---666%%%%*----%%%%--%%*<<<<<<<<<<888888888t&--==---O&&%%&%--&%%%%%--%@------%%%%------",
"O%----666---666%%%%-----%%%%%%%**<<<<<<<<<<88888888w<&-#==---&&&&&&%--%%@%&---%%------@%&-------",
"----%%%--666%&%%--------XX-----*-<<<<<<<<<<8888888888#------------&%%&&%----%&&%--%%--------%&--",
"----%&O--666&&%%------->,;>>>>>>;<<<<<.,::::::::,,,,,..........---%%%&&%----%%&&--@%--------%---",
"%---&&%%-666--O---@*-*->>>>>>>>>:<<<<<,.::::::.:,,,,<..........-----%%%%----%%----&%%%-&%@&&%%--",
"%---%%%%-----------***->>>>>>>>>:<<<<<.,::::::<.,,,,<..........------@%&666-&-----&&&%%%%%%&&%--",
"%%------%O----%%&%%%*X->>>>>>>>>.<<<<<,.::::.<.:,,,,,..........%%%---&&%666%@----%%%------%%%---",
"%%------%%----%%&&O%---:>>>>>>>>,<<<<<.<::::<.::,,,,,..........-------%%666%-----&%%----&-&&@---",
"&%%O%%--&%%%---%------->>>>>>>>>..;;.;w<888<,,,,%%%%%..........-@---&&%&&%%666--%%%&--%&%%%&----",
"&&%%%%%%&&%%---%------->>>>>>>>>,;;;:.8w888,,,,,%%%%%..........-----&&&&&&&666--%&&&@%%&%%%&&---",
"%%%-&%%%---%&&%%--&%%%->>>>>>>>>...;.:88888,,,,,%%%%%..........-%&%%@---%%%666--@-&%%%&&----%%%%",
"%%%-&&O%---%%&%%--&&O%->>>>>>>>>,.:;..88888,,,,,%%%%%..........-%&&%----%&%666------666%&---%%&&",
"&&----------%%%%-%%%---:>>>>>>>>,..::.88888,,,,,%%%%%..........-%%--&------666------666%%%---@&&",
"%&----------O%---%%%------------&<<<<<,,,,,,,,,,iiiiiiiiaaaaaaffiiaa%------666-@----666%%%---%%%",
"%O--%O----------%&%%------------&<<<<<,,,,,,,,,,iiiiaaaaaaafffffiiif%%&&&@-666&%-666%&&%%%------",
"%%--%%----------%&&%----%-------&<<<<<,,,,,,,,,,iiiiaaaaaaffffffiiff%-&&&&-666&%-666%&&%&&----&-",
"----&%%%%%----%%%%%%--O--*X-%%--&<<<<<,,,,,,,,,,iiiiaaaaffffffffffff-------666%%-666%@%%&%%-&%%%",
"----&&%%%%%%--O%-O%---%%-*--%%%%&<<<<<,,,,,,,,,,iiiiaaaaffffffffffff--------&&&%-666--%%&%@-&%%%",
"--%O--%%&&----&%----%&&%--O%:::::,,,,,,,,,,,,,,,..;;;&&&-------666--ffffffffff%%-666---&&%%%&%%@",
"%%%%----%&----&&----%%&%---&:::::,,,,,,,,,,,,,,,;;;;;&&&-------666--ffffffffff%&-666----&%%%&%--",
"%%&%----%O---%%%%%--%%----&6:::::,,,,,,,,,,,,,,,;;;;;&&&-#--666-*@--ffffffffff---666---@&&-&----",
"%%&&----%%---%%%%---%-----%6:::::,,,,,,,,,,,,,,,;;;;;&&&----666-**--ffffffffff---666---%%%------",
"%%%---%%----&&%%%&&&%%%%%%%6::::<<<,,,<,,,,,<,,,;;:..&&&%%%%666---@%aaaaffiiaa---666---%%%------",
"%%%--#%%----&&%%%%%%%%O:::::%%666-@***%@%%%%--**&&&&&<.;..%%666----%---&-@-%-%&---%&---&%%-@----",
"&&----&&----%%%%--%%%%O,::::%%666--&%%%%%%%%*-**&&&&&.;;.:-%666---%%-%----%%-%--&&%%----%&&%%%--",
"&&----&&%%-#%%-----O%%%.::::%%666--&%%%%%%%%****&&&&&.;;:.--666---%%%%----%%&%--&%%%---@&&%%%%%&",
"%%#-%%%%%%&&------%&&&-,::.<%%%%%X&&---&%%***&%#&&&&&;;;.;&&666---&%------------&%----%%%%&-%&&%",
"%%----%%%%&&------%%%%O,:;,.%%%%%*&&---&X%*%%&%%&&%&&.;;:.&&666---%%---------@--%%--%&%&%%%-&&%%",
"----------%%--%%---%%---#&&&%%%%&***-&&&*%%%%&&&%%%%&&&&&&&&666-&&%%@-&&%%-%%%&&@---%%%&%&----@-",
"---------#%%-#%%--%%%O--&&&%%%%%&&&***&&*%%%%%&&%%%%&&&&&&&&---#%&&%%%&&&%%%%&&%----%%&&&&------",
"--%%#---------&&&&%%----&&%%%%%%-----&%X%%&&&&&&%%%%%%%%------%%%%---%%%%%@---%%%%&---%%&%---%%%",
"%%%%-----#----&&&&%%---#%&%%%%%%&&--**%*X**&&&&&%%%%%%X%----%%%%@%--&%&%%&----%%%%%--@%&%%---&%%",
"%%&&%---%%&&-%%%%%%%--%%%%%%--%%&&%%*&&*&&*&&&&&%%%%&&&&--%%%%&&----%%&&&&%%---%%&----&&@---%%%&",
"%%&&%---%%&&-%%%%%----%%%%%%-#%%&&X***&&&&****&&%%%%&&&&-#%%%%&&----@%%&&%%%---&&&----&%----%&&&",
"%---%%&&%%%%%%&&#---%%&%--%%----*&&*&&%%&---&&%X&&&&&&&%%%&&--%%%%&&-------%&&%%&%@-&%%%%%&&@---",
"%---%%&&--%%%%&&----%%&&-#%&----**&&&&X*&---&&%%&&&&&&%%%%&&-#%%@%%&-------&&%%%%%----%%%&&%----",
"%%----%%----#-%%%----%----&&%%--**--&&&***-&%&%%&&%X&&%%%%----&&--%&%&------&%&%--------@-%%&---",
"%%---#%%------%%%---------&&%%%%&-----&&&***%%%&&&%&&&&%------&&--%%%------@%%------------%%%---"
};
