/* XPM */
static char *result[] = {
/* columns rows colors chars-per-pixel */
"96 96 43 1 ",
"  c #4E4D5C",
". c #5C6D77",
"X c #A4C262",
"o c #A5C262",
"O c #A4C362",
"+ c #A5C362",
"@ c #A4C263",
"# c #A5C263",
"$ c #A4C363",
"% c #A5C363",
"& c #C0D470",
"* c #C1D470",
"= c #C0D570",
"- c #C1D570",
"; c #C0D471",
": c #C1D471",
"> c #C0D571",
", c #C1D571",
"< c #6E7A80",
"1 c #7B888F",
"2 c #728794",
"3 c #9BAAB3",
"4 c #A6AFB4",
"5 c #E6A2A2",
"6 c #E7A2A2",
"7 c #E6A3A2",
"8 c #E7A3A2",
"9 c #E6A2A3",
"0 c #E7A2A3",
"q c #E6A3A3",
"w c #E7A3A3",
"e c #E8EEAA",
"r c #A7B8C2",
"t c #BAC4CA",
"y c #C6DADE",
"u c #C7DADE",
"i c #C6DBDE",
"p c #C7DBDE",
"a c #C6DADF",
"s c #C7DADF",
"d c #C6DBDF",
"f c #C7DBDF",
"g c #DFEDED",
/* pixels */
":=>:->>:==;*&::*=:=:->;--;&&&,-,-;;&:;>:>->;:>:&=-;--;;&*=>,=>&>:*&&->:=*=:*,;;=:=>&,=-*=,;;:&&;",
">=*&:>;,>,-&&*;:-*=&=&*>=:>;;=,-:=>=&=,-;>&&,>&*=*-*:&*,;::;,**&-&*-;>>==;,-;,=:,--&---=*-=,,&->",
"->;;&>>*>,&&>-:*,:->;,*>;:*>*==:>-&::=;;,,*:,;>;>>=>:>>,>;,-:>:;->:=*--*&;=;-&>>;-,*&-&=,:==*-&>",
";>->,,-&>,,,*=&*-:>:,;>&>&=,>&>>&*-*&:&;=>,-;--*;-->,,>=&:>>;&:*&--->&-=:;,&*,=--&**=&=--*-&,*>-",
">&>-:>:*=>-;=>&-;-*,->,>=&=;,*;=:*&*&&:-*,,==,:=;*,,>*>;;;-&:=*>;,=>>,,:;:=-;&-;*===,-;&;*=&=:&=",
";=-&-:-;==&=:*,-=&;;&>:,*:--*>:,>&&*,,-:&-,=-;-=,=;::;:&-:==,>-,&&,>>:;>>*;-*,:>>-,*-&:--=>&>::&",
">:;*,;,-*>:;:*:&&:>,=-=*,*,->**==;,&*&&*&=:&::==>,;>-,&;-=->&*-:**==&==,,;::**::&&-;>,>-*-*>-&,*",
"===&>=>>:=&>:;=,-:;=:&>-,===,&;;;&=->&=>>=*;;&==,&&>*,&;=&;;,>==*:*-*=>;:&>,=>-->>;&>-&>*:**:-&>",
"&&=-;;*>;>-=:-*&;:*>>=:**=&*-->>,,&-,&*:=&&--=&:>==,&,=**&,>-:&=&,>**&&-;-,*:*-,;:,*,>:;>:&>;;=>",
",>,;&;&>;-*;,>->&===>&*=&-=:--;-=,:&#+X-=;&:===:=-&;,*=**>--,&*>;->&=;>--&,X$o-:-%%X&:&>-;=;&>->",
"&=&>-=:,*,=:;*->*-;&=*==&*:--****:,;+++,:>-;,,;&--:*;;,:=-&&-**=>->-,->>-*;+#+=,-++o->->=:=&-=>=",
";&>=:=*==*&:==:::=*&=>:-*-&,;=-,>:*;oo$->,::--=*>:,*>*=*;>-=:*-&:=*&:&*&:*&#$%=;>$$@&*;;-:;-:*>;",
";**&-&,:,,;--:&=*;:,;-*>=,-*=&*,:#$+,=&&>;;->;;,==-,-::&;:,>->-:**&=,&;,-&,,=-OO%>;&>*>=--:>>;-&",
">*>*,=,&-,*,=:,&*>:**;&,=--:,>:;&XX#>,&::,=-:-->,&:;=-;=>--***&*&;&&-;,**:-->&@%#*=&*:>&>*-*-===",
"==>,;=:;:-,>:&&**;:*-,-*==:**-:=*Xo+&,;,,:;>*,>&>*:-&&>&;**=,==>*&>&;*&--&&-*=o+$*,,;:>->;>:>*&:",
"*==::&:;:>*&;:>*=*&->,*;,:&;,;,,*@X#**:>&>-*&>-:=*,;:=-=:*:;>>&*=:&,=->-*=-=&,*;>&,**;&*&&>====-",
"&--&-&->;&-;=&:::>-=:*:&;::&=&;->aupyipdpyi;,:&*-=,,&>=&*-=-&=&udfpuppday*-:*,-**,*,>-&,,=,=>:=*",
"-*;-,-;:,=;&>:::*>;;>,-&;,;>:&:*=updfufpipi-&,;-,>*:,->--*-;,>;yuidiyyupd;*;-*,&&,=&--*>--:-&&&,",
"=;>=;>;:;>,&#@O-,=>-*&:--==:=,:*:uyiipdpiyd&**:*,,*-->&-;===:;-suipiypppp;&>>=**-,*>:;,&;-*>,*,=",
",&-=&;,*-:;,+#$&,:=:,>&>,*:-,;;;-aypyupfudu,;---&&&>*=*;&-=*==&fiiiapiypu;&*>-;-,-&*-&;,-&&&:-&:",
"=>=&=>:*--;;+@$=>,*>-=:*;=->,-,-=diyaiipiuy::,;&::,=;:==*-;::>:dyuuyspyii-,>=;--;&;=;=,*,=;:;>*-",
"--:*:=:*>:-*;:&@X@>:=*;:&-&*daipysayid78008:=&&=&>=&*=-;&;didypdaiyiq7w97:*=*&;,-**>-=:&,*;:,-=&",
",*:*;;:---:-&->#oO;-:;:>>,*-dyupdppiyf7qqww=,&&:*,:*&:*-;=uipipuayyy677ww,,->-:,-,=:*-&:;;>=;=,;",
"&:&--&-;-:&:;&,oO$&&=,:;=;&-pupppyuiii69qqq,&-&,-,&=;=>;*-pyiyyppiia9w59q>=-;-,>=;=;*-&*-=&=:->>",
"&&&&&&&&&&&&&&&@@@&&&&&&&&&&iiiiiiiiiiqqqqq&&&&&&&&&&&&&&&iiiiiiiiiiqqqqq&&&&&&&&&&&&&&&&&&&&&&&",
"&&&&&&&&&&&&&&&@@@&&&&&&&&&&iiiiiiiiiiqqqqq&&&&&&&&&&&&&&&iiiiiiiiiiqqqqq&&&&&&&&&&&&&&&&&&&&&&&",
"&&&&&&&&&&&&&&&@@@&&&&&&&&&&iiiiiiiiiiqqqqqgggggggggggggggggggggggggggggg&&&&&&&&&&&&&&&&&&&&&&&",
"&&&&&&&&&&&&&&&&&&&&&&&&&&&@iiiiiiiiiiqqqqqgggggggggggggggggggggggggggggg&&&&&&&&&&&&&&&&&&&&&&&",
"&&&&&&&&&&&&&&&&&&&&&&&&&&&@iiiiiiiiiiqqqqqgggggggggggggggggggggggggggggg&&&&&&&&&&&&&&&&&&&&&&&",
"&&&&&&&&&&&&&&&&&&&&&&&&&&&@iiiiiiiiiiqqqqqgggggggggggggggggggggggggggggg&&&&&&&&&&&&&&&&&&&&&&&",
"&&&&&&&&&&&&&&&&&&&&&&&&&&&@iiiiiiiiiiqqqqqgggggggggggggggggggggggggggggg&&&&&&&&&&&&&&&&&&&&&&&",
"&&&&&&&&&&&&&&&&&&&&&&&&&&&@iiiiiiiiiigggggggggggggggggggggggggggggggggggggggg&&&&&&&&&&&&&&&&&&",
"&&&&&&&&&&&&&&&&&&&&&&&&&&&@iiiiiiiiiigggggggggggggggggggggggggggggggggggggggg&&&&&&&&&&&&&&&&&&",
"&&&&&&&&&&&&&&&&&&&&&&&&&&&&iiiiiiiiiigggggggggggggggggggggggggggggggggggggggg&&&&&&&&&&&&&&&&&&",
"&&&&&&&&&&&&&&&&&&&&&&&&&&&&iiiiiiiiiigggggggggggggggggggggggggggggggggggggggg&&&&&&&&&&&&&&&&&&",
"&&&&&&&&&&&&&&&&&&&&&&&&&&&&iiiiiiiiiigggggggggggggggggggggggggggggggggggggggg&&&&&&&&&&&&&&&&&&",
"&&&&&&&&&&&&&&&&&&&&&&&&&&&&rrrrrrrrrrrrrrrggggggggggggggg     ggggggggggggggg&&&&&&&&&&&&&&&&&&",
"&&&&&&&&&&&&&&&&&&&&&&&&&&&&rrrrrrrrrrrrrrrggggggggggggggg     ggggggggggggggg&&&&&&&&&&&&&&&&&&",
"&&&&&&&&&&&&&&&&&&&&&&&&&&&&rrrrrrrrrrrrrrrggggggggggggggg     ggggggggggggggg&&&&&&&&&&&&&&&&&&",
"&&&&&&&&&&&&&&&&&&&&&&&&&&&&rrrrrrrrrrrrrrrggggggggggggggg     ggggggggggggggg&&&&&&&&&&&&&&&&&&",
"&&&&&&&&&&&&&&&&&&&&&&&&&&&&rrrrrrrrrrrrrrrggggggggggggggg     ggggggggggggggg&&&&&&&&&&&&&&&&&&",
"&&&&&&&&&&&&&&&&&&&&&&&&&&&&iiiiiiiiiiggggggggggggggggggggggggggggggggggg     &&&&&&&&&&&&&&&&&&",
"&&&&&&&&&&&&&&&&&&&&&&&&&&&&iiiiiiiiiiggggggggggggggggggggggggggggggggggg     &&&&&&&&&&&&&&&&&&",
"&&&&&&&&&&&&&&&&&&&&&&&&&&&&iiiiiiiiiiggggggggggggggggggggggggggggggggggg     &&&&&&&&&&&&&&&&&&",
"&&&&&&&&&&&&&&&&&&&&&&&&&&&&iiiiiiiiiiggggggggggggggggggggggggggggggggggg     &&&&&&&&&&&&&&&&&&",
"&&&&&&&&&&&&&&&&&&&&&&&&&&&&iiiiiiiiiiggggggggggggggggggggggggggggggggggg     &&&&&&&&&&&&&&&&&&",
"&&&&&&&&&&&&&&&&&&&&&&&&&&&&iiiiirrrrrrrrrrrrrrrgggggggggggggggggggg     qqqqq&&&&&&&&&&&&&&&&&&",
"&&&&&&&&&&&&&&&&&&&&&&&&&&&&iiiiirrrrrrrrrrrrrrrgggggggggggggggggggg     qqqqq&&&&&&&&&&&&&&&&&&",
"&&&&&&&&&&&&&&&&&&&&&&&&&&&&iiiiirrrrrrrrrrrrrrrgggggggggggggggggggg     qqqqq&&&&&&&&&&&&&&&&&&",
"&&&&&&&&&&&&&&&&&&&&&&&&&&&&iiiiirrrrrrrrrrrrrrrgggggggggggggggggggg     qqqqq&&&&&&&&&&&&&&&&&&",
"&&&&&&&&&&&&&&&&&&&&&&&&&&&&iiiiirrrrrrrrrrrrrrrgggggggggggggggggggg     qqqqq&&&&&&&&&&&&&&&&&&",
"&&&&&&&&&&&&&&&&&&&&&&&&&&&&iiiiiiiiiigggggggggggggggggggggggggggggggggggggggg&&&&&&&&&&&&&&&&&&",
"&&&&&&&&&&&&&&&&&&&&&&&&&&&&iiiiiiiiiigggggggggggggggggggggggggggggggggggggggg&&&&&&&&&&&&&&&&&&",
"&&&&&&&&&&&&&&&&&&&&&&&&&&&&iiiiiiiiiigggggggggggggggggggggggggggggggggggggggg&&&&&&&&&&&&&&&&&&",
"&&&&&&&&&&&&&&&&&&&&&&&&&&&&iiiiiiiiiigggggggggggggggggggggggggggggggggggggggg&&&&&&&&&&&&&&&&&&",
"&&&&&&&&&&&&&&&&&&&&&&&&&&&&iiiiiiiiiigggggggggggggggggggggggggggggggggggggggg&&&&&&&&&&&&&&&&&&",
"&&&&&&&&&&&&&&&&&&&&&&&&&&&&&&&&&&&&&&&&&&&tttttttttt4444444444&&&&&&&&&&&&&&&&&&&&&&&&&&&&&&&&&",
"&&&&&&&&&&&&&&&&&&&&&&&&&&&&&&&&&&&&&&&&&&&tttttttttt4444444444&&&&&&&&&&&&&&&&&&eee&&&eee&&&&&&",
"&&&&&&&&&&&&&&&&&&&&&&&&&&&&&&&&&&&&&&&&&&&tttttttttt4444444444&&&&&&&&&&&&&&&&&&eee&&&eee&&&&&&",
"&&&&&&&&&&&&&&&&&&&&&&&&&&&&&&&&&&&&&&&&&&&tttttttttt4444444444&&&&&&&&&&&&&&&&&&eee&&&eee&&&&&&",
"&&&&&&&&&&&&&&&&&&&&&&&&&&&&&&&&&&&&&&&&&&&tttttttttt4444444444&&&&&&&&&&&&&&&&&&&&&eee&&&&&&&&&",
"&&&&&&&&&&&&&&&&&&&&&&&&&&&&&&&&&&&&&&&&&&&33333111111111144444..........&&&&&&&&&&&eee&&&&&&&&&",
"&&&&&&&&&&&&&&&&&&&&&&&&&&&&&&&&&&&&&&&&&&&33333111111111144444..........&&&&&&&&&&&eee&&&&&&&&&",
"&&&&&&&&&&&&&&&&&&&&&eee&&&&&&&&&&&&&&&&&&&33333111111111144444..........&&&&&&&&&&&&&&&&&&&&&&&",
"&&&&&&&&&&&&&&&&&&&&&eee&&&&&&&&&&&&&&&&&&&33333111111111144444..........&&&&&&&&&&&&&&&&&&&&&&&",
"&&&&&&&&&&&&&&&&&&&&&eee&&&&&&&&&&&&&&&&&&&33333111111111144444..........&&&&&&&&&&&&&&&&&&&&&&&",
"&&&&&&&&&&&&&&&&&&eee&&&&&&&&&&&&&&&&&&&&&&2222222222ttttt<<<<<..........&&&&&&&&&&&&&&&&&&&&&&&",
"&&&&&&&&&&&&&&&&&&eee&&&&&&&&&&&&&&&&&&&&&&2222222222ttttt<<<<<..........&&&&&&&&&&&&&&&&&&&&&&&",
"&&&&&&&&&&&&&&&&&&eee&&&&&&&&&&&&&&&&&&&&&&2222222222ttttt<<<<<..........&&&&&&&&&&&&&&&&&&&&&&&",
"&&&&&&&&&eee&&&&&&eee&&&&&&&&&&&&&&&&&&&&&&2222222222ttttt<<<<<..........&&&&&&&&&&&&&&&&&&&&&&&",
"&&&&&&&&&eee&&&&&&eee&&&&&&&&&&&&&&&&&&&&&&2222222222ttttt<<<<<..........&&&&&&&&&&&&&&&&&&&&&&&",
"&&&&&&&&&eee&&&&&&eee&&&&&&&ggggggggggggggg22222222223333344444&&&&&&&&&&&&&&&&&&&&&&&&&&&&&&&&&",
"&&&&&&&&&&&&eee&&&eee&&&&&&&ggggggggggggggg22222222223333344444&&&&&&&&&&&&&&&&&&&&&&&&&&&&&&&&&",
"&&&&&&&&&&&&eee&&&eee&&&&&&&ggggggggggggggg22222222223333344444&&&&&&&&&&&&&&&&&&&&&&&&&&&&&&&&&",
"&&&&&&&&&&&&eee&&&eee&&&&&&&ggggggggggggggg22222222223333344444&&&&&&&&&&&&&&&&&&&&&&&&&&&&&&&&&",
"&&&&&&&&&&&&eee&&&&&&&&&&&&&ggggggggggggggg22222222223333344444&&&&&&&&&&&&&&&&&&&&&&&&&&&&&&&&&",
"&&&&&&&&&&&&eee&&&gggggggggg&&eee&&&&&&&&&&&&&&&333333333333333&&&&&&&&&&&&&&&&&&&&&&&&&&&&&&&&&",
"&&&&&&&&&&&&eee&&&gggggggggg&&eee&&&&&&&&&&&&&&&333333333333333&&&&&&&&&&&&&&&&&&&&&&&&&&&&&&&&&",
"&&&&&&&&&&&&eee&&&gggggggggg&&&&&eee&&&&&&&&&&&&333333333333333&&&eee&&&&&&&&&&&&&&&&&&&&&&&&&&&",
"&&&&&&&&&&&&eee&&&gggggggggg&&&&&eee&&&&&&&&&&&&333333333333333&&&eee&&&&&&&&&&&&&&&&&&&&&&&&&&&",
"&&&&&&&&&&&&eee&&&gggggggggg&&&&&eee&&&&&&&&&&&&333333333333333&&&eee&&&&&&&&&&&&&&&&&&&&&&&&&&&",
"&&&&&&&&&&&&&&&&&&&&&&&&&&&&&&&&&eee&&&&&&&11111&&&&&&&&&&&&&&&<<<<<&&&&&&&&&&&&&&&&&&&&&&&&&&&&",
"&&&&&&&&&&&&&&&&&&&&&&&&&&&&&&&&&eee&&&&&&&11111&&&&&&&&&&&&&&&<<<<<&&&&&&&&&&&&&&&&&&&&&&&&&&&&",
"&&&&&&&&&&&&&&&&&&&&&&&&&&&&&&&&&eee&&&&&&&11111&&&&&&&&&&&&&&&<<<<<&&&&&&&&&&&&&&&&&&&&&&&&&&&&",
"&&&&&&&&&&&&&&&&&&&&&&&&&&&&&&&&&eee&&&&&&&11111&&&&&&&&&&&&&&&<<<<<&&&&&&&&&&&&&&&&&&&&&&&&&&&&",
"&&&&&&&&&&&&&&&&&&&&&&&&&&&&&&&&&eee&&&&&&&11111&&&&&&&&&&&&&&&<<<<<&&&&&&&&&&&&&&&&&&&&&&&&&&&&",
"&&&&&&&&&&&&&&&&&&&&&&&&&&&&&&&&&eee&&&&&&&&&&&&&&&&&&&&&&&&&&&&&&&&&&&&&&&&&&&&&&&&&&&&&&&&&&&&",
"&&&&&&&&&&&&&&&&&&&&&&&&&&&&&&&&&&&&&&&&&&&&&&&&&&&&&&&&&&&&&&&&&&&&&&&&&&&&&&&&&&&&&&&&&&&&&&&&",
"&&&&&&&&&&&&&&&&&&&&&&&&&&&&&&&&&&&&&&&&&&&&&&&&&&&&&&&&&&&&&&&&&&&&&&&&&&&&&&&&&&&&&&&&&&&&&&&&",
"&&&&&&&&&&&&&&&&&&&&&&&&&&&&&&&&&&&&&&&&&&&&&&&&&&&&&&&&&&&&&&&&&&&&&&&&&&&&&&&&&&&&&&&&&&&&&&&&",
"&&&&&&&&&&&&&&&&&&&&&&&&&&&&&&&&&&&&&&&&&&&&&&&&&&&&&&&&&&&&&&&&&&&&&&&&&&&&&&&&&&&&&&&&&&&&&&&&",
"&&&&&&&&&&&&&&&&&&&&&&&&&&&&&&&&&&&&&&&&&&&&&&&&&&&&&&&&&&&&&&&&&&&&&&&&&&&&&&&&&&&&&&&&&&&&&&&&",
"&&&&&&&&&&&&&&&&&&&&&&&&&&&&&&&&&&&&&&&&&&&&&&&&&&&&&&&&&&&&&&&&&&&&&&&&&&&&&&&&&&&&&&&&&&&&&&&&",
"&&&&&&&&&&&&&&&&&&&&&&&&&&&&&&&&&&&&&&&&&&&&&&&&&&&&&&&&&&&&&&&&&&&&&&&&&&&&&&&&&&&&&&&&&&&&&&&&",
"&&&&&&&&&&&&&&&&&&&&&&&&&&&&&&&&&&&&&&&&&&&&&&&&&&&&&&&&&&&&&&&&&&&&&&&&&&&&&&&&&&&&&&&&&&&&&&&&",
"&&&&&&&&&&&&&&&&&&&&&&&&&&&&&&&&&&&&&&&&&&&&&&&&&&&&&&&&&&&&&&&&&&&&&&&&&&&&&&&&&&&&&&&&&&&&&&&&"
};
