/* XPM */
static char *sign_one[] = {
/* columns rows colors chars-per-pixel */
"9 16 6 1 ",
"  c black",
". c #474746",
"X c #474647",
"o c #7F7E7A",
"O c #FFFCF5",
"+ c #FFFDF5",
/* pixels */
"+++++++++",
"++++oXo++",
"++++. .++",
"O++o  .++",
"+o o. o++",
"++++o o++",
"++++o .++",
"++++. o++",
"++++o.o++",
"++++o o++",
"++++o .++",
"++++o .++",
"++++. o++",
"++++o o++",
"++++o.o++",
"+++++++++"
};
