/* XPM */
static char *sign_seven[] = {
/* columns rows colors chars-per-pixel */
"9 16 24 1 ",
"  c #010001",
". c #2E2F2F",
"X c #5E5F5E",
"o c #5E5F5F",
"O c #6F6F6F",
"+ c #7E7E7F",
"@ c #7F7E7F",
"# c #7E7F7F",
"$ c gray50",
"% c #83827A",
"& c #8F8E8E",
"* c gray56",
"= c #9F9F9F",
"- c #B3B2AE",
"; c #B7B7B6",
": c #B7B7B7",
"> c gray78",
", c gray81",
"< c #E7E7E7",
"1 c #FEFDF4",
"2 c #FEFCF5",
"3 c #FFFCF5",
"4 c #FEFEFA",
"5 c #FFFEFA",
/* pixels */
"111111111",
"%       @",
"-oooooo.@",
"51111>*$:",
"51111+ $1",
"51151+ @1",
"11111@ @1",
"511;O+*>1",
"111+ @115",
"111+ +111",
"11:+=,431",
"41@@11111",
"31+@14111",
"11@@11111",
"13*+11115",
"13<<15111"
};
