/* XPM */
static char *sign_three[] = {
/* columns rows colors chars-per-pixel */
"9 16 34 1 ",
"  c #010000",
". c #2F2F2F",
"X c #373737",
"o c #3F3F3F",
"O c gray31",
"+ c #5E5E5F",
"@ c #5E5F5F",
"# c #6F6F6F",
"$ c #7E7F7E",
"% c #7F7E7F",
"& c #7E7F7F",
"* c gray50",
"= c #82807A",
"- c #8E8E8F",
"; c gray56",
": c #A7A7A7",
"> c #ADACA8",
", c #AEAFAE",
"< c #AFAFAF",
"1 c #B4B5B0",
"2 c #B6B6B7",
"3 c #B7B7B7",
"4 c gray75",
"5 c #C7C7C6",
"6 c gray81",
"7 c #D7D5D0",
"8 c #D7D7D6",
"9 c #DEDDD9",
"0 c #DFDFDF",
"q c #E7E7E7",
"w c #FFFCF4",
"e c #FEFDF5",
"r c #FFFDF5",
"t c #FFFFFA",
/* pixels */
"7<<<,,,,8",
"=       *",
"1+++@+@.*",
"trrrr5;*2",
"trrrr% %r",
"trr4%%*4r",
"trr% *rrr",
"rr2X X#3r",
"ee5----&3",
"twewwer-*",
"teewwwr&*",
"teerwwr**",
">O:errr**",
"94%oooo*0",
"rr%    *r",
"rrq6666qr"
};
