/* XPM */
static char *sign_six[] = {
/* columns rows colors chars-per-pixel */
"9 16 22 1 ",
"  c #010100",
". c #3F3F3F",
"X c gray28",
"o c #5E5F5F",
"O c #7F7E7A",
"+ c #7E7E7F",
"@ c gray50",
"# c #837E7D",
"$ c #8E8E8F",
"% c #AEAEAF",
"& c #AFAEAF",
"* c #B7B7B7",
"= c gray75",
"- c #C6C4C1",
"; c #CFCECE",
": c gray81",
"> c #D6D6D7",
", c #DEDDD9",
"< c #E7E7E7",
"1 c #FEFCF4",
"2 c #FEFCF5",
"3 c #FFFDF5",
/* pixels */
"111>%%*>1",
"111@   @1",
"11:@ooo%1",
"-$@*11111",
"# @111111",
"O .@O$@=1",
"O      @1",
"O X$$$$@*",
"@ @3331@$",
"@ @3311@O",
"O @3331@@",
"O @3331@@",
"O @1111@+",
",=@....@,",
"11@    +1",
"11<::::<1"
};
