/* XPM */
static char *tree_2[] = {
/* columns rows colors chars-per-pixel */
"96 96 89 1 ",
"  c #5F7A79",
". c #776E6B",
"X c #7D736A",
"o c #667F77",
"O c #617E79",
"+ c #687F78",
"@ c #90625D",
"# c #9B6C5B",
"$ c #9E705D",
"% c #A0735F",
"& c #AA7959",
"* c #847969",
"= c #9D7060",
"- c #A67A63",
"; c #A97C62",
": c #66827B",
"> c #6D857A",
", c #66887A",
"< c #698D7B",
"1 c #738C77",
"2 c #6E967C",
"3 c #7A9277",
"4 c #72937D",
"5 c #79907B",
"6 c #729A7E",
"7 c #7B9A7F",
"8 c #B2845F",
"9 c #849C75",
"0 c #899A72",
"q c #A78F68",
"w c #B48760",
"e c #B68962",
"r c #B98D64",
"t c #A69E6C",
"y c #AD987D",
"u c #84A170",
"i c #8BA275",
"p c #93AB76",
"a c #99AF74",
"s c #93A978",
"d c #9DB274",
"f c #ACAC6D",
"g c #B9B46F",
"h c #B5BA6E",
"j c #A2B772",
"k c #A4BB73",
"l c #AABF73",
"z c #B4BC72",
"x c #C09569",
"c c #C49A6C",
"v c #C3A16C",
"b c #A5C363",
"n c #AEC372",
"m c #B3C372",
"M c #B6CA73",
"N c #BACC71",
"B c #BED171",
"V c #C0D470",
"C c #738981",
"Z c #759381",
"A c #779E80",
"S c #7C9C83",
"D c #7DA482",
"F c #81A185",
"G c #85AB86",
"H c #89AB89",
"J c #93B68C",
"K c #97BB8E",
"L c #99BE8F",
"P c #9BBD91",
"I c #C7BE94",
"U c #9EC291",
"Y c #A2C693",
"T c #A4CA94",
"R c #A9CD96",
"E c #BFC999",
"W c #ABD097",
"Q c #AED499",
"! c #B2D496",
"~ c #B2D699",
"^ c #B5D899",
"/ c #BADB99",
"( c #C0DF99",
") c #C2E09A",
"_ c #D3D3A2",
"` c #D6DAA6",
"' c #DBE1AA",
"] c #E6ECA9",
"[ c #E8EEAA",
/* pixels */
"VVVVVVVVVVVVVVVVVVVVVVVVVVVVVVVVVVVVVVVVVVVVVVVVVVVVVVVVVVVVVVVVVVVVVVVVVVVVVVVVVVVVVVVVVVVVVVVV",
"VVVVVVVVVVVVVVVVVVVVVVVVVVVVVVVVVVVVVVVVVVVVVVVVVVVVVVVVVVVVVVVVVVVVVVVVVVVVVVVVVVVVVVVVVVVVVVVV",
"VVVVVVVVVVVVVVVVVVVVVVVVVVVVVVVVVVVVVVVVVVVVVVVVVVVVVVBBVVVVVVVVVVVVVVVVVVVVVVVVVVVVVVVVVVVVVVVV",
"VVVVVVVVVVV(VVVVVVVVVVVVVVVVVVVVVVVVVVV]VVVBVVVVVVVVVVBBVVVVVVVVVVVVVVVVVVVVVVVVVVVVVVVVVVVVVVVV",
"VVVVVVVVVVVVVVVVVVVVVVVVVVVVVVVVVVVVVVVVBVVBVVVVVVBBBBBBVVVVVVVVVVVVVVVVVVVVVVVVVVVVVVVV]VVVVVVV",
"VVVVVVVVVVVVVVVVVVVVVVVVVVVVVVVVVVVVVBnBnnMnnnnnMMnnnMnnmnnn!MVVVVVVVVVVVVVVVVVVVVVVVVVVVVVVVVVV",
"VVVVVVVVVVVVVVVVVVVV(VVVVVVVVVVVVVVVb::         O   :         BVVVVVVVVVVVVVVVVVVVVVVVVVVVVVVVVV",
"VVVVVVVVVVVVVVVVVVVVVVVVVVVVVVVVVVVBk            O  :         BVVVVVVVVVVVVVVVV)VVVVVVVVVVVVVVVV",
"VVVVVVVVVVVVVVVVVVVVVVVVVVVVVVVjjdddsZZSSSSSSSSSSSSSSSSSAZ1ZZZaddVVVVVVVVVVBVVVVVVVVVVVVVVVVVVVV",
"VVVVVVVVVVVVVVVVVVVVVVVVVVVVVVV>    CKJUWQQQQQQQQQ~QQQ~QUKKKPKO 1VVVVVVVVVVbbbVVVVbBVVVVVVVVVVVV",
"VVVVVVVVVVVVVVVVVVVVVVVVVVVVVVB>  : <KUUQQQQQQQQ~QQQ~QWQYKKKLKO >VVVVVVVVVVbbbVVVbbbVVVVVVVVVVVV",
"VVVVVVVVVVVVVVVVVVVVVVVVVniiiiiSSDHHJTUWQQ^///^/^/^QQ~//!RWRTTFSFiiiipkVVVBbMbVVVbbbVVVVVVVVVVVV",
"VVVVVVVVVVVVVVVVVVVVVVVVVs     JLKQQQQ~QQQ/)))))))(QQ^)))))~QQKKHO    sVVVVVVVbbbVVVVVVVVVVVVVVV",
"VVVVVVVVVVVVVVVVVVVVVVVVVs :   JKKQQQQQQQ~/)))))))/~Q^)))))^QQPKJ     pBVVVVVVbbbVVVVVVVVVVVVVVV",
"VVVVV]VVVVVVVVVVVVVVVVl51SHHJUPTRRQQQQQQQQ/)))))))(QQ^)))))~QQRRTHHHGGS33nVVVVbbbVVVVVVVVVVVVVVV",
"VVVVVVVVVVVVVVVVVVVVVVk OSKKRQQQQQQQQQQQQQ/)))))()/~Q^)))))~QQQQWKKKKKA :nVVVVVVVVVVVVVVVVVVVVVV",
"VVVVVVVVVVVVVVVVVVVVVVk  SKJTQQQQQQQQQQQQQ/)))))))(QQ~())))~QQQQWKKKKJS  jVVVVVVVVVVVVVVVVVVVVVV",
"VVVVVVVVVVVVVVVVVVVM:+CKJTQQ/)))))))/QQ^)/))))))~Q~QQQ~Q~QQQ~Q~QQQWQWQYJJ4::MVVVVVVVVVVVVVVVVVVV",
"VVVVVVVVVVVVbbbVVVVM  CPKUQQ/)))))))/~Q^))))))))QQQQQQQ~QQQQQQQQQQQQQQYKJZOOMVVVVVVVVVVVVVVVVVVV",
"VVVVVVVVVVVVbbbVVVMm::ZLLTQQ/)))))))/~Q/))))))))QQQQQQ~~~Q~QQ~QQQQQQQQYPK5:onMNVVVVVVVVVVVVVVVVV",
"VVVVVVVVVVVVbbbVBo :KKKKKUQQ/))))))))))))))))QQQ~QQQQ^))))))))~QQ~QQQ!YKKKKK: +VVVVVVVVVVVVVVVVV",
"VVVVVVVVVVVVVVVbb: :KKKKLTQQ/))))))))))))))))QQQQQQQQ^))))))()QQQ~QQQ~YKKKKJ: :VVVVVVVVVVVVVVVVV",
"VVVVVVVVVVVVVVVbb:  UUUUURQQ^/////))))))/////QQQQQQQQ^)))))())^~~^^~~~TKKKKK: oBVVVVVVVVVVVVVVVV",
"VVVVVVVVVVVVVVVbbo CQQQQQQQQQQQQQQ)))))/QQQQQQQQQQQQQ^))))))))))))))))RKKKKK: +BVVVVVVVVVVVVVVVB",
"VVVVVVVVVVVVVVVbbo :QQQQQQQQQQQQQQ)))))/QQQQQQQQQQQQQ^))))))))))))))))RKKKKK: :BVVVVVVVVVVVVVVVV",
"VVVVVVVVVVVVVVduuSSFQQQQQQQQQQQQQQ//^//QQQQQQQWQQQQQQQ^///^^/^())))())!TYYYYF77pdnVVVVVVVVVVBVVV",
"VVVVVVVVVVVVVV3  JKPQQQQQQQQQQQQQQQQQQQQQQQQQQQQQQQQQQQQQQQQQQ()))))()^QQQQQKKJ :3BVVVBVVVVBVVVV",
"VVVVVVVVVVVVBB3  JKLQQQQQQQQQQQQQQQQQQQQQQQQQQQQQQQQQQQQQQQQQQ()))))))^QQQQ~KKJ o3BVVVVVVVVVVVVV",
"VVVVVVVVVVVVVV3  JKUWWQQQQQQQQQQQQQQQQQQQQQQQQQQQQQQQQQQQQQQQQ~~~~^~~^QQQQQQKKJ  3VVVVVVVVVVVVVV",
"VVVVVVVVVVVVVV3  JKPQQWWQQQQQQQQQQQQQQQQQQQQQQQQQQQQQQQQQQQQQQQQQQQQQQQQQQQQUKJo 3BVVVVVVVVVVVVV",
"VVVVVVVVVVVVVVpO JKPQWQWQQQQQQQQQQQQQWQQQQQQQQQQQQQQQQQQQQQQQQQQQQQQQQWQWWQQKKJ  3VVVVBVVVVBVVVV",
"VVVVVVVVVVVVVVuo JKKUKUUUUQQQQQQQQLLLUUUQQQQQQQQQQQQQQQQULLLLPPPUQQQQQTKUUKUKJJ  3VVVVVVVVVVVVVV",
"VVVVVVVVVVVVVV3  UJUUUJUUUQQQQQQQWKKKKKUQQQQQQQQQQQQQQQQUPKKKKKKUWWQQQUUUJJUKKJ  3VVVVVVVVVVVVVV",
"BVVVBVVVVVVVVV1  DUJUDUJUTQQQQQQQQKKKKLUQQQQQQQQQQQQQQQQUKKKKKKKUWWWQQUJJUUJJJJoo3VVVVVVVVVVVVVV",
"VVVVVVVVVVVVVV1O JUJJUJUJUWQQQQQQWKKKLLUQQQQQQQQQQQQQQQQUPKKKKKKUWQQQQTUUJJU:OoVVVVVVVVVVVVVVBVV",
"VVVVVVVVVVVVVV3 CJJUJJJUUUQQQQQWQWKKKLPUQQQQQQQQQQQQQQQQUUKKKKKKUQQQQQUUJUJJoO:VVVVVVVVBVVBVVVVV",
"VVVVVVBVVVVVVV3  JUJJJUJUUUTYTWURTKKKKKURRRRRRRTQQQQQQWTUUUUUUUUUTTTTTUJUJUD,::VBVVVVVVVBVVVVVVV",
"VVVVVVVVVVVVVV3  DJUUUJUJUUUJUUULKKLKKKKKKJLKKLKQQQQQUKKUQQQQQWWTUUJUJUUUJJU, ,BVVVVVVVVVVVVVVVV",
"VVVVVVVVVVVVVV3  JUJDUJUUJJJUJUUKKPLKKKKKKKKKKKLQQQQQRPKTQQQQQQQTUJUJUGUJUJJ: :BVVVVVVVVVVVVVVVB",
"VVVBVVVVVBVVVBai7DDAUJUJJUJUUUUUUUUUUKKKKKKKKKKKUUTTTUKKUTWUWUTUUUJJUJUJUJJUAZZpajVVVVVBVVBVVVVV",
"VVVVVVVVVVVVVVVVB: :KKKKUDUJYWWQQQQQRJLKKKKKKKKKJUJJJJKKUKKKKKKKJJUJUGJUJUUJJJJ  1VVVVVVVVVBVVVV",
"VVVVVVVVVVBVVVBVV: :KKKKJUUUTWWWQQQQRKKKKKKKKKKKUJUUUUKKKKKKKKKKUJJUUUUJUJJUUUJ  3VVVVVVVVVVVVVV",
"VVVVVVVVVVVVVVVVV:O+KKKKUJJUUUUUUUUUUKLKKKKKKKKKJJUJJUKKKKKKKKKKUUUJJJUJJUUJJUJ  3VVVVVVVVVVVVVV",
"VVVBVVVVVVVVVVVVV:OoKKKKJJUJUUUJLLLPKKKKKKLKKKKKJUJUJJKKKKKKKKKKGUJUJUJUJJJJUJJ  3VVBVVVVVVVVBVV",
"VVVVVBVVVVVVVVVBV+ :KKKKUUUUUUUUKKKKKKKKKKKKKKKKUJJUKKKKKKKKKKKKUGUJUJJUUJUJUUp  1VVVVVVVVVVVVVV",
"VVBVVVVVVVVBVV911<22KKKKDUJJJUDUKKKKKKKKKKKKKKKKJUUJKKKKKKKKKKKKJUUJJJUJJUUJ666:O3VVVVVVVVVVVVVV",
"VVVVVVVVVVVVVV3  226KKKKUJJUJUUDKKKKKKKKKKKKKKKKUJJUKKKKKKKKKKKKUJJUUJJUUJJU62< O3VVVVVVVVVVBVVV",
"VVVVVVVVVVVVVB5  22ZPKKKJUJJUJUUKKKKKKKKKKKKKKKKJUJJKKKKKKJUKKKKJJUUGUJUJJUJ622  1VVVVVVBVVVVVVV",
"VVVVVVVVVVVVVV3o <22222227UUD22222KKKKLG22222222JUJUUJUDUUUJUUZZ222222222222222 o1VVVVVVVVVVVVVV",
"VVVVVVVVVVVVVV1 :222222227UUA22222KKKKLG22222222UJJJUUJUJUJUJJA<222222222222222  1VVVVVVVVVVVVVV",
"VVVVVBVVVBVVVV1o <2222222DpUD22222KKKKLG22222222UDUJUDUDJUJJKJ2<22222222222222<  1VVVVVVVVBVVVVV",
"VVBVVVVVVVVVVV1  222222226UUD22622KLKKLG22A22222UUJUJUUUUJUJKJA2222222222222222  3VVVVBVVVVVVVVV",
"VVBVVVBVVVVVVV3o 22222222DUUD2222ALKLLLG22222222UJUDUUUUKUKUKUA2222226222222222: 3BBVVVVVVVVVVVV",
"VVVVVVBVVBVVVV1  22222222DDD622222GDGGGDDDDADADAJUJUUJDDDGDDDGDAD6DDDD662222<<<6utBBVVVVVBVVVVVV",
"VVVVVVVVVVVVVB3  <222222222222222222222DKKLLKKLLJUJJJDAZAA2222KKUJJUUUD62222, :BVVBVVVVBVVVVVVVV",
"VVVVVVVVVVVVVB3 :2222222222222222A22222DKKKLKLLLUJJUJDAA22222AJKJJUJUJD22222: :NVVVVVVVVVVVVVVVV",
"VVVVVVVVVVVVVVbap,,,<2222AGDDDGDDG22222AADDDDDDDDADAAA22222222AD77pDDD662222  :VVVVBVVVVVVVVVVVV",
"VVVVVVVVVVVVVVBBB: :22222DUJULULLL222222A2A22222A2A2A2222222222A226266222222 ooBV[[[VVV[[[VVVVVV",
"VVVVVBVVVBVVBVBVB: :22222DULUJLLLJ222222222222222222222222222222222222222222  :VV[[[VVV[]]VVVVVV",
"VVVVVVVVVVVVVVVVM:  22222AAAAAAAAA222222222222222222222222222222222222222222  >BV[[[VVV[]]VVVVVV",
"VVVVVVVVVVVVVVVVB,: 22222222222222222222222222222222222222222222222222222222: oBBVVV[[[VVVVVVVVV",
"VVVVVVBVVVVVVVVVB, :2222A222222222222222222222222222222222222222222222222222 :oBVVVV[[[BBVVVVVVV",
"VVVVVVVVVVVVVVVVVBMk,:,22222222222222222222222222222222222A22222222222222:: bBBVVVVV[[[VVVVVVVVV",
"VVVVVVVVVBBVVVVVVVVk  ,22222222222222222222222222222222222222222222222222:  BBBVVVVVVVVVVVVVVVVV",
"VVVVVVVVVVVVVVVVVVVV112<<2<22222222222222222222222222222222222222<122<2<1,11MBVVVVBVVVVVVVVVVVVV",
"VVVVVVVVVVVVVVVVVVVVB]E     <222222222222222222222222222222222222       ojBBBBVVVVVVVVVVVVVVVVVV",
"VVVVVbVVVVVVVVVVVV]]]Bb. :  <222222222222222222222222222222222222  : :   jVVBVVVVVVVVVVVVVVVVVVV",
"VVVVVVVVVVVVVVVVVV]]]Bku33391<<<<,2<<<<<<<<<<<<<<<<<<<<<<<<<2<<<<33337333bVVBBVVVVVVVBVVVVVVVVVV",
"VVVVVVVVVVVVVVVVVV[[[VVVVVVV3                                   1VBVVVVVVVVVVVVVVVVVVVVVVVVVVVVV",
"VVVVVVVVV[[[VVVVVV[[[VVVVVVV3:                                  >VVVVVBVVVVVVVVVBVVVBVVVVVVVVVVV",
"VVVVVVVVV[[]VVVVVV][[VVVVVVVdpppppss0X.X**********X*****X..0ppppaBVVVVVVVVVVVVVVVVVVVVVVVVVVVVVV",
"VVVVVVVVV[[]VVVVVV][[VVVVVVVVBBBVBBBz@@#&&&&&&&&&&&&&&&&$@@hBBVVVBVVVVVVVVVVVVVVVVVVVVVVVVVVVVVV",
"VVVVVVVVVVVV[[[VVV[[[VVVVBVVBVVVVVVVg@@#&&&&&&&&&&&&&&&&#@@hVVVVVVVBVBVVVVVVVVVVVVVVVVVVVVVVVVVV",
"VVVVVVVVVVVV[[[VVV[[[BVVVVVVVVVVVVVVz@@$8w&&&&&&&&&&&&88$@@hVBVVVVVVVVVVVVVVVVVVVVVVVVVVVVVVVVVV",
"VVVVVVVVVVVV[[]VVV[[[VVVVVVVVVVVVVVVh@@$ee&&&&&&&&&&&&ee$@@hVVVVVVVVVVVVVVVVVVVVVVVVVVVbVVVVVVVV",
"VVVVVVVVVVVV[[[VVVVVVVVVVVVVVV[[[VVVh@@$ee&&&&&&&&&&&8ee%@@hVVVVVVVVVVVVVVBVVVVVVVVVVVVVVVVVVVVV",
"VVVVVVVVVVVV]][VVVVVVVVVVBVVVV[[[Vmmf@@#eewwewww88888ree%@@fmmVVVVVVVVVVVVVVVVVVVVVVVVVVVVVVVVVV",
"VVVVVVVVVVBV]][VBVVVVBVVVVVVVB[[[Vmmf@@-eeeeeeeeeeeeeeee%@@fmmVVVVVVVVVBVVVVVVVVVVVVVVVVVVVVVVVV",
"VVVVVVVVVVVV]]]VVVVVVVVVVVVVVBVVV]``f@@#eeeeeeeeeeeeeeee%@@f``[BBV[[[VVVVVVBVVVVVVVVVVVVVVVVVVVV",
"VVVVVVVVVVVV]]]VVVVVVVVVVVVBNnMMm```f@@-ewxcceeeccccvccc;@@f```mmm`'[VVVVVVVVVVVVVVVVVVVVVVVVVVV",
"VVBVVVVVVVVV]]]VBVVVVVVVVVVVNnnmm```f@@-wexccreecccccccc-@@f```mmm``]VVVVVVVVVVVVVVVVVVVVVVVVVVb",
"VVVVBVVVVVVVVVVVVVVVVVVVVVVVNhmmm`IIt#=-eexccrrrcccccccc;=#fffm```mNBBBVVVVVVVVVVVVVVVVVVVVVVVVV",
"VVVVBVVVVVVVVVBVVVVVVVVVVNbmmmmmm_@@-cccccccccccccccccccccc=@@h```mmhbNVVVVVVVVVVVVVVVVVVVVVVVVV",
"VVVVVVVVVVVVVVVVVVVVVVVVVNmmmmmmm_@@#cccccccccccccccccccccc$@@h```mmmNNVVVVVVVVVVVVVVVVVVVVVVVVV",
"VVVVVBVVVVVVVVVVBVVVBVVVVNmmmmmmm_yyqccccccccccccccccccccccqqqhmmmmmmmBVVVVVVVVVVVVVVVVVVVVVVVVV",
"VVVVVVVVVVVVVVVVVVVVVVVVVNmmmmmmm```hcccccccccccccccccccccczmmnnmmmmhNNVVVVVVVVVVVVVVVVVVVVVVVVV",
"VVVVVVVVVVVVVVVVVVVVVVVVVNmmmmmmm```hcccccccccccccccccccccczmbmmmmmmNhbVVVVVVVVVVVVVVVVVVVVVVVVV",
"VVVBVVVVVVVVVVVVVVVVVVVVVBNBmmmmmmmmmggggggggvccccvggggggggzmmmmmmhNbVVVVVVVVVVVVVVVVVVVVVVVVVVV",
"VVVVVVVVVVVVVVVVVVVVVVVVVVVVmmmmmmmmmmmmmmmmmvccccvmmmmmmmmmmmmmmmmMVVVVVVVVVVVVVVVVVVVVVVVVVVVV",
"VVVVVVVVVVVVVVVVVVVVVVVVVVVVNmmmmmmmmmmmmmmmmvccccvmmmmmmmmmmmmhmmmMVVVVVVVVVVVVVVVVbVVVVVVVVVVV",
"VVVVVVVVVVVVVVVVVVVBVVVBVVVVVBNBNBmmmmmmmmmmmmhzzzzmmmmmmmmmmmVVVNVVVVVVVVVVVVVVVVVVVVVVVVVVVVVV",
"VVVVVVVVVVVVVVVVVVVVVVVVVVVVVVVVVVmmmmmmmmmmmmmmmmmmmmmmmmmmmmVVVVVVVVVVVVVVVVVVVVVVVVVVVVVVVVVV",
"VbVVVVVVVVVVVVVVVBVVVVVVVVVVVVBVVVmmmmmmmmmmmmmnmmmmmmmmhmmmVbVVVVVVVVVVVVVVVVVVVVVVVVVVVVVVVVVV",
"VVVVVVVVVVVVVVVVVVVVVVVVVVVBVVVVVVVVVVVVVVVVVVVVVVVVBVVVVVVVVVVVVVVVVVVVVVVVVVVVVVVVVVVVVVVVVVVV",
"VVVVVVVVVVBVVVBVVVVVVVVVVVVVVVVVVVVVVVVVVVVVVVVVVVBVVVVVVVVVVVVVVVNVVVVVVVVVVVVVVVVVVVVVVVVVVVVV",
"VVVVVVVVVVVVVVVVVVVVVBVVVVVVVVVVVVVVVVVVVVVVVBVVVVVVVVVVVVVVVVVVVVVVVVVVVVVVVVVVVVVVVVVVVVVVVVVV"
};
