/* XPM */
static char *result[] = {
/* columns rows colors chars-per-pixel */
"23 26 3 1 ",
"  c #000008",
". c #FFFFFE",
"X c None",
/* pixels */
"XXXXXXX   XXXXXXXXXXXXX",
"XXXXXX ... XXXXXXXXXXXX",
"XXXXXX ... XXXXXXXXXXXX",
"XXXXXX ... XXXXXXXXXXXX",
"XXXXXX ... XXXXXXXXXXXX",
"XXXXXX ... XXXXXXXXXXXX",
"XXXXXX ... XXXXXXXXXXXX",
"XXXXXX ... XXXXXXXXXXXX",
"X   XX ...    X   X   X",
" ... X ... ... ... ... ",
" ... X ... ... ... ... ",
" ... X ... ... ... ... ",
" ....  ... ... ... ... ",
" ....  ... ... ... ... ",
"X .... ... ... ... ... ",
"X .................... ",
"XX ................... ",
"XX ................... ",
"XX ................... ",
"XX ................... ",
"XXX ................. X",
"XXX ................. X",
"XXX ................. X",
"XXXX ................ X",
"XXXX  .............. XX",
"XXXXXX              XXX"
};
