/* XPM */
static char *badend_msg[] = {
/* columns rows colors chars-per-pixel */
"192 96 6 1 ",
"  c #010100",
". c #000001",
"X c #C7013E",
"o c #C7003F",
"O c #C6013F",
"+ c #C7013F",
/* pixels */
"XX+XO+++ooooooXXXXOOXXOXXOOOoooooooXXOXOOOOo+X+XXX+XO+XXOOOoooooo+XXXXXXOOooooooOOOOOOXOOoooXXXOOOoooooooooooOoOoo++XXOOooXXXXXOXXXXXXOOoOooXOXOO+OOO++XOOOOO+XXXOOO++XOOOo+Xo++XXXOOOXXXXXXOOoX",
"XXOOOOXXoOoooo++XXOOXXOOOOOXoooooo++OOXXOX+oXXXXOXOOO+oOOXOOooooo+XO++XXOOooooooOXOOOOOOOOooX+OOOOoooooooooO+OOOooXX+oOOooX+XXXXXXXXOOOX+XooOOXOX+XXo+XXOOOOOXXXXXOOOOXX++ooOoXXXXXXOOXXXXOOX+++",
"OOOXOOXXOOX+oo++OOOOXX++OooXooooOOOO+oO+XX+++XXXOXOOOXOOXXXX+oOO++OO++OOOOOoOOooOOXX+XXXOXoo++OXOoooooooooooXOoX++XOOoXXo+++OOOOXX++OXO+XX++XOXXXOoXOOOXXXXXO+++ooOOOOXOXOOoOOOOXX++O+++OXOOXOoo",
"OOo+OOXOXXX+oo+++OOXXX++oo++ooooOOXOXOo+X+++X+XXOOXXOX++XXX+XOOo+ooO++oOXOooOX+oXXXX++XOOOX+OOOOOoooooooooooOOO+X+OOOOOXoo++OOXXXX++OOOOXX++XOO+OO+XXXOXOXXXOO+++oooOOOOXOOooOOO+XX+o+++XXXX+ooo",
"++ooOXXOOOOOXXOX++XOOO+++oOoOoooXXXX++++XXOo++++++ooOoOoXXX+XXXXXXOXOOOO+ooooXXOXXXX++++XO++++OOoOooooooOoooOOXOXXXXOX++++ooOXOOoo++OXOOOOooooo+OOXXXOOO++XXoO++XOOoOoOX+++++XOO++++++++OXXOOOOo",
"++oOOXOXOOOOO++XX+XXOOoOXooOOo++XXXX+++OXXXX++++XoOooo++++XXXXXXXXXOOOOOXoooo+OX+XXX++++OO++XXOOooooooooOXooOOOOXXXXOX+O+++OOOXXoO++OOXOOOoO++oOOXXXXXXO++XXoXXOOOOOooXX+++++X+o++++++++OOOXXOOO",
"......XOXXXXoo++XX......OOOOX+XXXX++............XXXOOOXX++++......XXOOOOOOoooOOO+X++......ooXXXXoOoooOo+XXooOoOXXO..................OOXXO++OXOOX............o+OOXOXX+XXO........   . .....XXOOOO",
"......XOXXX+++oOXX......oOX+OOOO++++............XX+OOOXO++++.. ...XXOXXOoooooooO++++ .  ..ooXXXXoooooXX++++oooOXXX..................OOXOooXXXOO+............++OOXOOO++XX..........   . ...XXOOXX",
"......++++XXoOOO++.  . .OOXXXXXXXXXX....  ......OOoo++++++OO. ....OOXXXOOoooooooo+++..  ..XOXXXXOooooooooOooXXXX++ ......... . .....++XOXXXX++++....   . . .XXXOOOXXOXXO.....   ..........XX++++",
".... .++X+++oO+X++ . ...oOXXXXXXXXXX.... .......OOOo+X++++XX.  ...OXXXXXooooooooOO++......XOXXXOooooooOO+X++XXXX++ .......  . . ....++OXXXXX++++...... ..   X+XXOXXXOXOX.. ...  ......  ..XXXXX+",
". ... ++XXXXOOXX++ ... .o++XXXOX+X++....  ......OXoooo+XXXXX .....XOXOXXOoooOOo+OOOX... ..OOXXOOooooooOOXXXXXX++++. ....... . . ....+XXXOXXX+X++........  ..+X++OO++OoOX.... .  ....... ..+XXX++",
"......++XXXXOOOX++...  .o+++XOOO++++....  ......XX++o+++OOXO. ....XOOXXXooooOXX+XOOX......XXOOOXooooooooO+OO++++++.......... . .....++XXXXXX+X++......... ..++++X+++ooOO       ........ ..++XX++",
"..    ++OXO+XOXX++..... X++oOX......XXXX++++OXOO.... .XoOOXX......++o+++OOXOoOo+XXOX. . ..++OXOOooooo+OoOoXX..... ++OOOXXOoO++++OXOXXX++OO..   .X+X+++++++++......Oo+OOX .....++OOoXXX++++.. ...",
"   . .++OOOOoO+++X......X++OOX......XXXX++++OXXO......oXXXXO......++oo++OOOO+X++XXXO .....++OOOOooooX+ooooXX......++OXO+XX+O++++OXOOX+++XO..... ++++X++X++++... ..++++O+ ...  ++OX++XXXX++...   ",
" . .. ++OXXOoOOo++......XXXOXX......XXXXX+++XXXX....  X+XOOO......++OoOXo+OOOOXX+X++.   ..++OOXOooooXoOoo++X......+XXOOOXOXOooXXXOXXXX++++..... +++XXXXX++++... ..++XXXX  ....++OXOOXXXX++......",
".  .. ++OOOO+XOo++......XXOOXX......XXX++XX+XXX+.... .XXOXXX......XXOOOXX+XOXXXX++++  ....++XOOOooooOooo++XX......XX+ooOOOX++oOXOOXXXX++++..   .+X++XXXX++++......+++XXX .....++OOOOOOX+++.. . .",
" . ...+++++++++++X....  XX++++...   +++XXX++o+++......XX++++   ...+XX++X+++++X++XXOX......XXXXXXooooOOX+XXXX..... +++++++++++++XOOOOOO+XOO... ..++++++++++++ .. ..++++++ .....XXX+XOOOOO+X..... ",
".. . .++X++++++++X.. ...+X++++..... ++++XXX+oO++......XX++++... ..++XXX+++++X+XXXXXO......XX+OXX+oooOXX+XXX+......++++++X+++++XXXXOOX+oOOX.. ...++++++++++++  . ..++++X+.. . .+++XXXOOooX+.... .",
".. ..  .......  ....... XXX+XX.. .. ++++OXXXOOOO. ....+XXX++. ....++XOXX  ....+XXOOX......XX+++X+XooooO+XO++OoXO++..... ......XXXXOXO+XOoo...   ..... . ..     ...++XXXX..   .+++XXXOOoo++. ....",
"..   .  ....... .... .  +X++OX... . ++++OXXXOOOX. ....++++++    ..++OXXX . ...++XXOX......XX++XXOXooooX+OX++++XX++...   ......XXOOOOO+XOoO.. ..... ... ...........++XXXX.  .. ++X+XXoOX+++.. . .",
"..     .. . .....  .. . ++X+++..... ++++XO+++XXO   ...O+XXXX .....OOOOOO..  ..++++++......+X+++++OooooOOOXOO+XXXX+... .  . ...++OOOX+XXX++....  ..      . . .. ...XXXX+X.. ...++OXX+o+XX++......",
"..  . . ..  .......     ++++++.... .+++++OOOXXXX. ....++X+XX. ....OOXOOX .  ..++++++......++X+++XOooooooOOOXX+XXX+.. . ... ...++OOOOXXX+++..... .. .... . ....  ..XXX+XX  . ..++OOX+o+OO++......",
" .. ..  . ......  .  .  +X++++. ....+++++OOXOOXX  . ..XXOXXX  . ..OXXXOO  ....o+++++ . ...X+XX++ooooOoOOOXOO+X++X+..     .  ..++XOXXXX++++.... .. ....  ..  ......OXXXXX......++OoooOOOO++......",
".. . .. .. ..... ..     XX++++  ....X+++XXo+OOXX    ..XXXXXX......XXXXOO .....ooX+++   ...XX+X++ooooOOOOOXXOXXX+XX..... ......++XXXXXX++++.....  ...     .  ......OXOXXX......oo+ooOooOO++.   ..",
"......++oooooooooo......XXoooo......++++++++++++......++++++............oooooo............++++++oooooooo++++++++++++++++++++++......++++++......++++++++oooo......XXoooo......ooXooooooooo......",
"......++oooooooooo......OOoooo......++++++++++++......++++++............oooooo............++++++oooooooo++++++++++++++++++++++......++++++......++++++++oooo......OXoooo......ooOooooooooo......",
"......++oooooooooo......Oooooo......++++++++++++......++++++............oooooo............++++++oooooooo++++++++++++++++++++++......++++++......++++++++oooo......Oooooo......oooooooooooo......",
"......++oooooooooo......Oooooo......++++++++++++......++++++............oooooo............++++++oooooooo++++++++++++++++++++++......++++++......++++++++oooo......oooooo......oooooooooooo......",
"......++oooooooooo......oooooo......++++++++++++......++++++............oooooo............++++++oooooooo++++++++++++++++++++++......++++++......++++++++oooo......oooooo......oooooooooooo......",
"......++oooooooooo......oooooo......++++++++++++......++++++............oooooo............++++++oooooooo++++++++++++++++++++++......++++++......++++++++oooo......oooooo......oooooooooooo......",
"......++oooooooooo......oooooooo++++............++++++++++++......Oooooooooooooo++++......++++++oooooooo++++..................++++++++++++......++++++++oooo......oooooo..................oooooo",
"......++oooooooooo......oooooooo++++............++++++++++++......oooooooooooooo++++......++++++oooooooo++++..................++++++++++++......++++++++oooo......oooooo..................oooooo",
"......++++++++++++......++++++++++++............++++++++++++......oooooooooooooooooo......oooooooooooooooooo..................oooooooooooo......oooooooooooo......oooooo..................oooooo",
"......++++++++++++......++++++++++++............++++++++++++......oooooooooooooooooo......oooooooooooooooooo..................oooooooooooo......oooooooooooo......oooooo..................oooooo",
"......++++++++++++......++++++++++++............++++++++++++......oooooooooooooooooo......oooooooooooooooooo..................oooooooooooo......oooooooooooo......oooooo..................oooooo",
"......++++++++++++......++++++++++++............++++++++++++......oooooooooooooooooo......oooooooooooooooooo..................oooooooooooo......oooooooooooo......oooooo..................oooooo",
"++++++++++++++++++++++++++++++++++++++++++++++++++++++++++++++++oooooooooooooooooooooooooooooooooooooooooooooooooooooooooooooooooooooooooooooooooooooooooooooooooooooooooooooooooooooooooooooooo",
"++++++++++++++++++++++++++++++++++++++++++++++++++++++++++++++++oooooooooooooooooooooooooooooooooooooooooooooooooooooooooooooooooooooooooooooooooooooooooooooooooooooooooooooooooooooooooooooooo",
"++++++++++++++++++++++++++++++++++++++++++++++++++++++++++++++++oooooooooooooooooooooooooooooooooooooooooooooooooooooooooooooooooooooooooooooooooooooooooooooooooooooooooooooooooooooooooooooooo",
"++++++++++++++++++++++++++++++++++++++++++++++++++++++++++++++++oooooooooooooooooooooooooooooooooooooooooooooooooooooooooooooooooooooooooooooooooooooooooooooooooooooooooooooooooooooooooooooooo",
"++++++++++++++++++++++++++++++++++++++++++++++++++++++++++++++++oooooooooooooooooooooooooooooooooooooooooooooooooooooooooooooooooooooooooooooooooooooooooooooooooooooooooooooooooooooooooooooooo",
"++++++++++++++++++++++++++++++++++++++++++++++++++++++++++++++++oooooooooooooooooooooooooooooooooooooooooooooooooooooooooooooooooooooooooooooooooooooooooooooooooooooooooooooooooooooooooooooooo",
"++++++++++++++++++++++++++++++++++++++++++++++++++++++++++++++++oooooooooooooooooooooooooooooooooooooooooooooooooooooooooooooooooooooooooooooooooooooooooooooooooooooooooooooooooooooooooooooooo",
"++++++++++++++++++++++++++++++++++++++++++++++++++++++++++++++++oooooooooooooooooooooooooooooooooooooooooooooooooooooooooooooooooooooooooooooooooooooooooooooooooooooooooooooooooooooooooooooooo",
"++++++++++++++++++++++++++++++++++++++++++++++++++++++++++++++++oooooooooooooooooooooooooooooooooooooooooooooooooooooooooooooooooooooooooooooooooooooooooooooooooooooooooooooooooooooooooooooooo",
"++++++++++++++++++++++++++++++++++++++++++++++++++++++++++++++++oooooooooooooooooooooooooooooooooooooooooooooooooooooooooooooooooooooooooooooooooooooooooooooooooooooooooooooooooooooooooooooooo",
"++++++++++++++++++++++++++++++++++++++++++++++++++++++++++++++++oooooooooooooooooooooooooooooooooooooooooooooooooooooooooooooooooooooooooooooooooooooooooooooooooooooooooooooooooooooooooooooooo",
"++++++++++++++++++++++++++++++++++++++++++++++++++++++++++++++++oooooooooooooooooooooooooooooooooooooooooooooooooooooooooooooooooooooooooooooooooooooooooooooooooooooooooooooooooooooooooooooooo",
"++++++++++++++++++++++++++++++++++++++++++++++++++++++++++++++++oooooooooooooooooooooooooooooooooooooooooooooooooooooooooooooooooooooooooooooooooooooooooooooooooooooooooooooooooooooooooooooooo",
"++++++++++++++++++++++++++++++++++++++++++++++++++++++++++++++++oooooooooooooooooooooooooooooooooooooooooooooooooooooooooooooooooooooooooooooooooooooooooooooooooooooooooooooooooooooooooooooooo",
"++++++++++++++++++++++++++++++++++++++++++++++++++++++++++++++++oooooooooooooooooooooooooooooooooooooooooooooooooooooooooooooooooooooooooooooooooooooooooooooooooooooooooooooooooooooooooooooooo",
"++++++++++++++++++++++++++++++++++++++++++++++++++++++++++++++++oooooooooooooooooooooooooooooooooooooooooooooooooooooooooooooooooooooooooooooooooooooooooooooooooooooooooooooooooooooooooooooooo",
"++++++++++++++++++++++++++++++++++++++++++++++++++++++++++++++++oooooooooooooooooooooooooooooooooooooooooooooooooooooooooooooooooooooooooooooooooooooooooooooooooooooooooooooooooooooooooooooooo",
"++++++++++++++++++++++++++++++++++++++++++++++++++++++++++++++++oooooooooooooooooooooooooooooooooooooooooooooooooooooooooooooooooooooooooooooooooooooooooooooooooooooooooooooooooooooooooooooooo",
"++++++++++++++++++++++++++++++++++++++++++++++++++++++++++++++++oooooooooooooooooooooooooooooooooooooooooooooooooooooooooooooooooooooooooooooooooooooooooooooooooooooooooooooooooooooooooooooooo",
"++++++++++++++++......++++++++++++......++++++++++++++++++..................oooooooooooo..................oooooo........................oooooo..................oooooooooooooooooooooooooooooooo",
"++++++++++++++++......++++++++++++......++++++++++++++++++..................oooooooooooo..................oooooo........................oooooo..................oooooooooooooooooooooooooooooooo",
"++++++++++++++++......++++++++++++......++++++++++++++++++..................oooooooooooo..................oooooo........................oooooo..................oooooooooooooooooooooooooooooooo",
"++++++++++++++++......++++++++++++......++++++++++++++++++..................oooooooooooo..................oooooo........................oooooo..................oooooooooooooooooooooooooooooooo",
"++++++++++++++++......++++++++++++......++++++++++++++++++..................oooooooooooo..................oooooo........................oooooo..................oooooooooooooooooooooooooooooooo",
"++++++++++++++++......++++++++++++......++++++++++++++++++..................oooooooooooo..................oooooo........................oooooo..................oooooooooooooooooooooooooooooooo",
"++++++++++++++++......++++++++++++......++++++++++++++++++......oooooooooooo......oooooooooooo......oooooooooooo......oooooooooooooooooooooooo......oooooooooooo......oooooooooooooooooooooooooo",
"++++++++++++++++......++++++++++++......++++++++++++++++++......oooooooooooo......oooooooooooo......oooooooooooo......oooooooooooooooooooooooo......oooooooooooo......oooooooooooooooooooooooooo",
"++++++++++++++++......++++++++++++......++++++++++++++++++......oooooooooooo......oooooooooooo......oooooooooooo......oooooooooooooooooooooooo......oooooooooooo......oooooooooooooooooooooooooo",
"oooooooooooooooo......oooooooooooo......oooooooooooooooooo......oooooooooooo......oooooooooooo......oooooooooooo......oooooooooooooooooooooooo......oooooooooooo......oooooooooooooooooooooooooo",
"oooooooooooooooo......oooooooooooo......oooooooooooooooooo......oooooooooooo......oooooooooooo......oooooooooooo......oooooooooooooooooooooooo......oooooooooooo......oooooooooooooooooooooooooo",
"oooooooooooooooo......oooooooooooo......oooooooooooooooooo......oooooooooooo......oooooooooooo......oooooooooooo......oooooooooooooooooooooooo......oooooooooooo......oooooooooooooooooooooooooo",
"oooooooooooooooo......oooooooooooo......oooooooooooooooooo......oooooooooooo......oooooooooooo......oooooooooooo..................oooooooooooo......oooooooooooo......oooooooooooooooooooooooooo",
"oooooooooooooooo......oooooooooooo......oooooooooooooooooo......oooooooooooo......oooooooooooo......oooooooooooo..................oooooooooooo......oooooooooooo......oooooooooooooooooooooooooo",
"oooooooooooooooo......oooooooooooo......oooooooooooooooooo......oooooooooooo......oooooooooooo......oooooooooooo..................oooooooooooo......oooooooooooo......oooooooooooooooooooooooooo",
"oooooooooooooooo......oooooooooooo......oooooooooooooooooo......oooooooooooo......oooooooooooo......oooooooooooo..................oooooooooooo......oooooooooooo......oooooooooooooooooooooooooo",
"oooooooooooooooo......oooooooooooo......oooooooooooooooooo......oooooooooooo......oooooooooooo......oooooooooooo..................oooooooooooo......oooooooooooo......oooooooooooooooooooooooooo",
"oooooooooooooooo......oooooooooooo......oooooooooooooooooo......oooooooooooo......oooooooooooo......oooooooooooo..................oooooooooooo......oooooooooooo......oooooooooooooooooooooooooo",
"oooooooooooooooo......oooooooooooo......oooooooooooooooooo......oooooooooooo......oooooooooooo......oooooooooooo......oooooooooooooooooooooooo......oooooooooooo......oooooooooooooooooooooooooo",
"oooooooooooooooo......oooooooooooo......oooooooooooooooooo......oooooooooooo......oooooooooooo......oooooooooooo......oooooooooooooooooooooooo......oooooooooooo......oooooooooooooooooooooooooo",
"oooooooooooooooo......oooooooooooo......oooooooooooooooooo......oooooooooooo......oooooooooooo......oooooooooooo......oooooooooooooooooooooooo......oooooooooooo......oooooooooooooooooooooooooo",
"oooooooooooooooo......oooooooooooo......oooooooooooooooooo......oooooooooooo......oooooooooooo......oooooooooooo......oooooooooooooooooooooooo......oooooooooooo......oooooooooooooooooooooooooo",
"oooooooooooooooo......oooooooooooo......oooooooooooooooooo......oooooooooooo......oooooooooooo......oooooooooooo......oooooooooooooooooooooooo......oooooooooooo......oooooooooooooooooooooooooo",
"oooooooooooooooo......oooooooooooo......oooooooooooooooooo......oooooooooooo......oooooooooooo......oooooooooooo......oooooooooooooooooooooooo......oooooooooooo......oooooooooooooooooooooooooo",
"oooooooooooooooooooooo............oooooooooooooooooooooooo..................oooooooooooo..................oooooo........................oooooo..................oooooooooooooooooooooooooooooooo",
"oooooooooooooooooooooo............oooooooooooooooooooooooo..................oooooooooooo..................oooooo........................oooooo..................oooooooooooooooooooooooooooooooo",
"oooooooooooooooooooooo............oooooooooooooooooooooooo..................oooooooooooo..................oooooo........................oooooo..................ooooooooooooooo....ooooooooooooo",
"oooooooooooooooooooooo............oooooooooooooooooooooooo..................oooooooooooo..................oooooo........................oooooo..................ooooooo....oooo....ooooooooooooo",
"oooooooooooooooooooooo............oooooooooooooooooooooooo..................oooooooooooo..................oooooo........................oooooo..................ooooooo....oooo....ooo....oooooo",
"oooooooooooooooooooooo............oooooooooooooooooooooooo..................oooooooooooo..................oooooo........................oooooo..................ooooooo....oooo....ooo....oooooo",
"ooooooooooooooooooooooooooooooooooooooooooooooooooooooooooooooooooooooooooooooooooooooooooooooooooooooooooooooooooooooooooooooooooooooooooooooooooooooooooooooooooooooo....ooooooooooo....oooooo",
"oooooooooooooooooooooooooooooooooooooooooooooooooooooooooooooooooooooooooooooooooooooooooooooooooooooooooooooooooooooooooooooooooooooooooooooooooooooooooooooooooooooooooooooooooooooo....oooooo",
"oooooooooooooooooooooooooooooooooooooooooooooooooooooooooooooooooooooooooooooooooooooooooooooooooooooooooooooooooooooooooooooooooooooooooooooooooooooooooooooooooooooooooooooooooooooooooooooooo",
"oooooooooooooooooooooooooooooooooooooooooooooooooooooooooooooooooooooooooooooooooooooooooooooooooooooooooooooooooooooooooooooooooooooooooooooooooooooooooooooooooooooooooooooooooooooooooooooooo",
"oooooooooooooooooooooooooooooooooooooooooooooooooooooooooooooooooooooooooooooooooooooooooooooooooooooooooooooooooooooooooooooooooooooooooooooooooooooooooooooooooooooooooooooooooooooooooooooooo",
"oooooooooooooooooooooooooooooooooooooooooooooooooooooooooooooooooooooooooooooooooooooooooooooooooooooooooooooooooooooooooooooooooooooooooooooooooooooooooooooooooooooooooooooooooooooooooooooooo",
"oooooooooooooooooooooooooooooooooooooooooooooooooooooooooooooooooooooooooooooooooooooooooooooooooooooooooooooooooooooooooooooooooooooooooooooooooooooooooooooooooooooooooooooooooooooooooooooooo",
"oooooooooooooooooooooooooooooooooooooooooooooooooooooooooooooooooooooooooooooooooooooooooooooooooooooooooooooooooooooooooooooooooooooooooooooooooooooooooooooooooooooooooooooooooooooooooooooooo",
"oooooooooooooooooooooooooooooooooooooooooooooooooooooooooooooooooooooooooooooooooooooooooooooooooooooooooooooooooooooooooooooooooooooooooooooooooooooooooooooooooooooooooooooooooooooooooooooooo",
"oooooooooooooooooooooooooooooooooooooooooooooooooooooooooooooooooooooooooooooooooooooooooooooooooooooooooooooooooooooooooooooooooooooooooooooooooooooooooooooooooooooooooooooooooooooooooooooooo",
"oooooooooooooooooooooooooooooooooooooooooooooooooooooooooooooooooooooooooooooooooooooooooooooooooooooooooooooooooooooooooooooooooooooooooooooooooooooooooooooooooooooooooooooooooooooooooooooooo"
};
