/* XPM */
static char *bush[] = {
/* columns rows colors chars-per-pixel */
"90 90 27 1 ",
"  c #A2745E",
". c #A4795F",
"X c #A57B60",
"o c #A77F61",
"O c #A88161",
"+ c #A98562",
"@ c #AA8762",
"# c #AC8A63",
"$ c #AD8D64",
"% c #AE8F64",
"& c #B09465",
"* c #B39A67",
"= c #B49C67",
"- c #B7A369",
"; c #B8A569",
": c #BAAB6B",
"> c #BBAD6B",
", c #BEB36D",
"< c #BFB66D",
"1 c #C1BA6E",
"2 c #C3BE6F",
"3 c #C4C070",
"4 c #C7C771",
"5 c #CACD73",
"6 c #CCD374",
"7 c #CFDA76",
"8 c #D2E077",
/* pixels */
"                                                                                          ",
"                                                                                          ",
"                                                                                          ",
"                                                                                          ",
"                                                                                          ",
"                          =2333333333333333333323333333333+                               ",
"                          >8888888888888888888888888888888$                               ",
"                          >8888888888888888888888888888888$                               ",
"                          >8888888888888888888888888888888$                               ",
"                          >8888888888888888888888888888888$                               ",
"               .-==---=--=:,,<,,<,<,,<,,<,,,,<,,,,,<,,,<<,;-=-=--==-*                     ",
"               O8888888888;                               48888888885                     ",
"               O8888888888:                               48888888885                     ",
"               O8888888888;                               48888888885                     ",
"               O8888888888;                               48888888885                     ",
"          .OOOO#6666666666-                               26666666664OOOOO                ",
"          =88886                                                    +88888O               ",
"          -88886                                                    +88888O               ",
"          -88886                                                    @88888O               ",
"          -88886                                                    @88888O               ",
"          *88886                                                    @88888O               ",
"     ,5555,+@+++                                                    X+++@@45555*          ",
"     388881                                                               68888=          ",
"     38888<                                                               68888;          ",
"     38888<                                                               68888-          ",
"     38888,                                                               68888=          ",
"     38888,                                                               68888-          ",
"     38888,                                                               68888-          ",
"     38888,                                                               68888=          ",
"     38888,                                                               68888-          ",
"     38888<                                                               68888;          ",
"$$$$$<4444-                                                               24444;$$$$+     ",
"88888&                                                                         <88882     ",
"88888&                                                                         ,88883     ",
"88888&                                                                         ,88883     ",
"88888&                                                                         ,88883     ",
"88888&                                                                         <88883     ",
"88888&                                                                         ,88883     ",
"88888&                                                                         ,88883     ",
"88888&                                                                         ,88883     ",
"88888&                                                                         ,88883     ",
"88888&                                                                         ,88883     ",
"88888&                                                                    ,1111;****$     ",
"88888&                                                                    68888-          ",
"88888&                                                                    68888-          ",
"88888&                                                                    68888*          ",
"88888&                                                                    68888-          ",
"11111-****#                                                               ,1111-****$     ",
"     38888<                                                                    ,88883     ",
"     38888,                                                                    <88883     ",
"     38888<                                                                    ,88883     ",
"     38888,                                                                    ,88883     ",
".X.X.27777>                                                                    ,88883     ",
"88888&                                                                         <88883     ",
"88888&                                                                         ,88883     ",
"88888&                                                                         ,88883     ",
"88888&                                                                         ,88883     ",
"88888&                                                                         <88883     ",
"88888&                                                                         ,88883     ",
"88888&                                                                         ,88883     ",
"88888&                                                                         ,88883     ",
"88888&                                                                         188883     ",
"88888&                                                                         ,88883     ",
"88888&                                                                         ,88883     ",
"88888&                                                                         ,88883     ",
"88888&                                                                         <88883     ",
"88888&                                                                         ,88883     ",
"88888&                                                                         188882     ",
"55555=++++O                                                               +@@@+>5555,     ",
"     388881                                                               68888-          ",
"     38888,                                                               68888=          ",
"     38888,                                                               68888-          ",
"     38888<                                                               68888=          ",
"     38888,                                                               68888-          ",
"     OOOOOX                                                               XOOOOX          ",
"                                                                                          ",
"                                                                                          ",
"                                                                                          ",
"                                                                                          ",
"                                                                                          ",
"                                                                                          ",
"                                                                                          ",
"                                                                                          ",
"                                                                                          ",
"                                                                                          ",
"                                                                                          ",
"                                                                                          ",
"                                                                                          ",
"                                                                                          ",
"                                                                                          "
};
