/* XPM */
static char *grass_1[] = {
/* columns rows colors chars-per-pixel */
"90 90 13 1 ",
"  c #A4C263",
". c #A8C465",
"X c #ABC766",
"o c #AFC968",
"O c #B2CB6A",
"+ c #B3CC6A",
"@ c #B5CD6B",
"# c #B7CE6C",
"$ c #B8CF6C",
"% c #B9D06D",
"& c #BDD26E",
"* c #BFD370",
"= c #C0D470",
/* pixels */
"==========================================================================================",
"==========================================================================================",
"==========================================================================================",
"===============================================================&$&=&$&====================",
"===============================================================% o=O #====================",
"======================&@&======================@$=&@&==========&oO@Oo%====================",
"======================O @=====================& X=@ O============# O======================",
"====================%OOO&=====================&OOOOO$============%O%======================",
"====================@ O=========================% o=======================================",
"====================# O=========================&#%=======================================",
"====================@ +===================================================================",
"=======@X$==========&%&===================================================================",
"=======O @================================================================================",
"=======&&oX%==============================================================================",
"=========o $==============================================================================",
"=========o %======$ o=====================================================================",
"=========OX%=====&$XO==========================================================&&=&&&=====",
"==========&=====& X=&=========================================================% O=+ #=====",
"================& X================&%&=%%&====================================%XO$OX$=====",
"================& X================@ +=o %======================================@ O=======",
"================&oO================%oO@OO&*=====================================$o$=======",
"=====================================O #*=================================================",
"=====================================%O%==================================================",
"==========================================================================================",
"===================================================================$o%=+o&================",
"===================================================================O @=X &================",
"===================================================================&%OX@%=================",
"=====================================================================o $==================",
"=====================================================================&&*==================",
"==========================================================================================",
"==========================================================================================",
"==========================================================================================",
"==========================================================================================",
"==========================================================================================",
"==========================================================================================",
"===============================================================&$%=$@&====================",
"===============================================================% o=O @====================",
"======================%O%=====================&O#=%O%==========&OOOOO&====================",
"======================O #=====================& X=@ O============@ +======================",
"====================%oO@&=====================*#@oO@%============&$%======================",
"====================@ O=========================% O=======================================",
"====================# O=========================&$&=======================================",
"========&===========# O===================================================================",
"======*@X#==========&&&===================================================================",
"=======O @================================================================================",
"=========o %==============================================================================",
"=========o %=======&*=====================================================================",
"=========o %======% o=====================================================================",
"=========OX%=====%@X+=========================================================&%&=&%&=====",
"================& X===========================================================$ o=O #=====",
"================& X================&@&=%#&====================================&oO@Oo%=====",
"================& X================@ O=o %======================================@ O=======",
"================*O@================%+OO+O&======================================%+%=======",
"=====================================+ @==================================================",
"=====================================%@&==================================================",
"=======================================================================&==================",
"===================================================================@X$=OX&================",
"===================================================================@ @=X &================",
"===================================================================&&OX@&=================",
"=====================================================================o #==================",
"==========================================================================================",
"==========================================================================================",
"==========================================================================================",
"==========================================================================================",
"==========================================================================================",
"==========================================================================================",
"==========================================================================================",
"===============================================================&+$=%+%====================",
"===============================================================% o=O @====================",
"======================#o%=====================&o+=%o$==========&@@oO@&====================",
"======================O @=====================& X=@ O============@ O======================",
"====================$XO%&======================%@XO%&============&%&======================",
"====================@ O=========================% o=======================================",
"====================@ O==========================&&=======================================",
"====================# O===================================================================",
"=======O @================================================================================",
"=======@X@&===============================================================================",
"========&o %==============================================================================",
"=========o %======&%%=====================================================================",
"=========o %======% O=====================================================================",
"=========@o&=====@@o@=========================================================&@%=%@&=====",
"================& X===========================================================% O*O @=====",
"================& X================%+%=$O&====================================&OOOOO&=====",
"================& X================@ O=o %======================================@ O=======",
"================&#$================&@Oo+@&======================================&#%=======",
"=====================================O #==================================================",
"=====================================&$&==================================================",
"==========================================================================================",
"==========================================================================================",
"=========================================================================================="
};
