/* XPM */
static char *result[] = {
/* columns rows colors chars-per-pixel */
"96 96 17 1 ",
"  c #A4C262",
". c #A5C262",
"X c #A4C362",
"o c #A5C362",
"O c #A4C263",
"+ c #A5C263",
"@ c #A4C363",
"# c #A5C363",
"$ c #C0D470",
"% c #C1D470",
"& c #C0D570",
"* c #C1D570",
"= c #C0D471",
"- c #C1D471",
"; c #C0D571",
": c #C1D571",
"> c #D2E077",
/* pixels */
"$$$$$$$$$$$$$$$$$$$$$$$$$$$$$$$$$$$$$$$$$$$$$$$$$$$$$$$$$$$$*&&;=$*&$*%%&&&%$%-==-%-$$$$$$$$$$$$",
"$$$$$$$$$$$$$$$$$$$$$$$$$$$$$$$$$$$$$$$$$$$$$$$$$$$$$$$$$$$$;&;===&&&%%%&&&&$===;%%$$$$$$$$$$$$$",
"$$$$$$$$$$=%&$$$=%=$=$$$$$$$$$$$$$$$$$$$$$$$$$$$$$$$$$$$$$$$&&&===$&$$-%&&*%&$-=-%$*$$$$$$$$$$$$",
"$$$$$$$$%;;=%$&%*--%*$$$$$$$$$$$$$$$$$$$$$$$$$$$$$$$$$$$$$$%$=%&:&*&$****&$;$====$$$$$$$$$$$$$$$",
"$$$$$$$$$===$$$%%%%%$$$$$$$$$$$$$$$$$$$$$$$$$$$$$$$$$$$$$$$$$$$**&&&$&**;&*=====;&&&$$$$$$$$$$$$",
"$$$$$$$$$;;===&%%%%-$&$%&$$$$$=&$%$$$$$$$$$$$$$$$$$$$$$$$%$&$$$*&%;$&&%*&&;-=$==;*&*$$$&$$$$$$$$",
"$$$$$$$$%$$$&&$%%%$$%$-%=$$$$$&;&$$$$$$$$$$$$$$$$$$$$$$$=;;;*%$&$%+@O.  OO o..+.+$%$=$$&&;$$$$$$",
"$$$$$$$$$$$$;&$%%*%$&$%-&$$$$$&&$$$$$$$$$$$$$$$$$$$$$$$$&;;;%%$%$$@OO   +O@o. +++$$$$$%$&&$$$$$$",
"$$&$&$$&$%$=;$&$-*$&=%$*%$$$&%&$$%$$$$$$$$$$$$$$$$$$$$$=$:;:%$*%$$OO+X  +@ +...+O$&$=$$&&*&$$$$$",
"$$%&&&&&&#+#@#o#X#   $$%-$-*&*%%$$$$$$$$$$$$$$$$$$$$$%-=;%*% +OO##OOOOOO+O+O@ ++OX@X&*&&&;=$$$$$",
"$$$$&&&&&++O@##@@#   $$&$%%*&;$$$$$$$$$$$$$$$$$$$$$$$&$==%%%OOO.++OOOOO@+++OOOO++O@@$&&&&;&$$$$$",
"$$&&$*$&&++++##@@X.  =$%$$*&&&&$$$$$$$$$$$$$$$$$$$$$$$=;-%*%+O@++++OOOO++.+O +#.##O@&&$;&&$$$$$$",
"$$$-==+OOO++X OXX @X@@+O+O+$$&$$$$$$$$$$$$$$$$$$$$&%**$&&#O@+O+##@OOOOO@OOO  . ++ X &$&*&;&$$$$$",
"$$%==;+O@++O      #@#OOOOO@%$$$$$$$$$$$$$$$$$$$$$$$%%$;&;@@@OO @@@OOOOOOOO@. .@OOO X&$$&&&&$$$$$",
"$$$=--@+ +OOO X.. #@XOOOOO+$%%&$$=%$&$$$$$$$$$$$$$$%-%;$*@O@O@O@@@+OO+OOOOOO X@OOO O$$=$&&$$$$$$",
"$$%&&&O##@#X##OOOO@@@+OOOO+O++%$$%**$$$$$$$$$$$$$$%$$$&$&O@O+.O@@O  . O.@O@OOOOO@ OO$$&%&&&$$$$$",
"$$&*&&@@@@@@@@@+O @@@@OOOO@O+O$$$*%$=$$$$$$$$$$$$$$$$$$$$OOO+++@@@.    .OOOOOOOOOOOO%$$$$$$$$$$$",
"$$$&&$@X@#@#@@@@O@#XX@OOO O++O$&$%*$&$$$$$$$$$$$$$$$$$$$&OOOO+O@@X  . X +@++@OOOOO+O%$$$$=%=$&$$",
"$$$&&*+++++O#+O+O+OOOOO++.+o..%%%;;-&$$$$$$$$$$$$$$$$$$$$---+++O+O  .@@#@@XXX@ XX&**;;=&$====$$$",
"$$$&&&#+OOOO++O OOOOOOOO+++..o%%-;=-&$$$$$$$$$$$$$$$$$$$$===++++OO  X@@@@@@@@@XXX&&*;=-$$$-=;=$$",
"$%%&**+O#O+O#O+ OOOOOOOOO+. ..%$%=-;%$$$$$$$$$$$$$$$$$$$=;==+++@ @OX #@@@@@X@@XoX*&&;==%&$;;-$$%",
"*$$&%$O +oX @@O+OOOOOOO +@Oo. $=$$&%$$$$$$$$$$$$$$$$$$$$$$%$&&&--;*;&%$%%%%$$*-=-$&&;$*:;=*%%$$%",
"&&;&$$OOO@X@+OOOOOOOOOOOOOO ..%$$$$$$$$$$$$$$$$$$$$$$$$$$$$=&&&$==*&*%%%%%%%%*=--$&&&&$;;;%%$%$$",
"*;&%$$+OOX X@OOOOOOOOOOOOO+.o.$$$$$$$$$$$$$$$$$$$$$$$$$$$$$%&&&=-=&$*--*%$*%%%-:=;&&&*&::;%%$=$%",
"$$$$$$$$$OOOOOOOOOOOOOOOOOO$$$$$$$$$$$$$$$$$$$$$$$$$$$$$$$$$$$$$$$$$$$$$$$$$$$OOOOOOOOO$$$$$$$$$",
"$$$$$$$$$OOOOOOOOOOOOOOOOOO$$$$$$$$$$$$$$$$$$$$$$$$$$$$$$$$$$$$$$$$$$$$$$$$$$$OOOOOOOOO$$$$$$$$$",
"$$$$$$$$$OOOOOOOOOOOOOOOOOO$$$$$$$$$$$$$$$$$$$$$$$$$$$$$$$$$$$$$$$$$$$$$$$$$$$OOOOOOOOO$$$$$$$$$",
"$$$$$$$$$$$$$$$$$$$$$$$$$$$$$$$$$$$$$$$$$$$$$$$$$$$$$$OOOOOOOOOOOO$$$$$$$$$OOOOOOOOOOOOOOO$$$$$$",
"$$$$$$$$$$$$$$$$$$$$$$$$$$$$$$$$$$$$$$$$$$$$$$$$$$$$$$OOOOOOOOOOOO$$$$$$$$$OOOOOOOOOOOOOOO$$$$$$",
"$$$$$$$$$$$$$$$$$$$$$$$$$$$$$$$$$$$$$$$$$$$$$$$$$$$$$$OOOOOOOOOOOO$$$$$$$$$OOOOOOOOOOOOOOO$$$$$$",
"$$$$$$$$$$$$$$$$$$$$$$$$$$$OOOOOOOOOOOO$$$$$$$$$$$$OOOOOOOOOOOOOOOOOO$$$$$$OOOOOOOOOOOOOOO$$$$$$",
"$$$$$$$$$$$$$$$$$$$$$$$$$$$OOOOOOOOOOOO$$$$$$$$$$$$OOOOOOOOOOOOOOOOOO$$$$$$OOOOOOOOOOOOOOO$$$$$$",
"$$$$$$$$$$$$$$$$$$$$$$$$$$$OOOOOOOOOOOO$$$$$$$$$$$$OOOOOOOOOOOOOOOOOO$$$$$$OOOOOOOOOOOOOOO$$$$$$",
"$$$$$$$$$$$$$$$$$$$$$$$$OOOOOOOOOOOOOOOOOO$$$$$$$$$OOOOOOOOOOOOOOOOOO$$$$$$$$$OOOOOOOOO$$$$$$$$$",
"$$$$$$$$$$$$$$$$$$$$$$$$OOOOOOOOOOOOOOOOOO$$$$$$$$$OOOOOOOOOOOOOOOOOO$$$$$$$$$OOOOOOOOO$$$$$$$$$",
"$$$$$$$$$$$$$$$$$$$$$$$$OOOOOOOOOOOOOOOOOO$$$$$$$$$OOOOOOOOOOOOOOOOOO$$$$$$$$$OOOOOOOOO$$$$$$$$$",
"$$$$$$$$$$$$$$$$$$$$$$$$OOOOOOOOOOOOOOOOOO$$$$$$$$$$$$OOOOOOOOOOOO$$$$$$$$$$$$$$$$$$$$$$$$$$$$$$",
"$$$$$$$$$$$$$$$$$$$$$$$$OOOOOOOOOOOOOOOOOO$$$$$$$$$$$$OOOOOOOOOOOO$$$$$$$$$$$$$$$$$$$$$$$$$$$$$$",
"$$$$$$$$$$$$$$$$$$$$$$$$OOOOOOOOOOOOOOOOOO$$$$$$$$$$$$OOOOOOOOOOOO$$$$$$$$$$$$$$$$$$$$$$$$$$$$$$",
"$$$$$$$$$$$$$$$$$$$$$$$$$$$OOOOOOOOOOOO$$$$$$$$$$$$$$$$$$$$$$$$$$$$$$$$$$$$$$$$$$$$$$$$$$$$$$$$$",
"$$$$$$$$$$$$$$$$$$$$$$$$$$$OOOOOOOOOOOO$$$$$$$$$$$$$$$$$$$$$$$$$$$$$$$$$$$$$$$$$$$$$$$$$$$$$$$$$",
"$$$$$$$$$$$$$$$$$$$$$$$$$$$OOOOOOOOOOOO$$$$$$$$$$$$$$$$$$$$$$$$$$$$$$$$$$$$$$$$$$$$$$$$$$$$$$$$$",
"$$$$$$$$$$$$$$$$$$$$$$$$$$$$$$$$$$$$$$$$$$$$$$$$$$$$$$$$$$$$$$$$$$$$$$$$$$$$$$$$$$$$$$$$$$$$$$$$",
"$$$$$$$$$$$$$$$$$$$$$$$$$$$$$$$$$$$$$$$$$$$$$$$$$$$$$$$$$$$$$$$$$$$$$$$$$$$$$$$$$$$$$$$$$$$$$$$$",
"$$$$$$$$$$$$$$$$$$$$$$$$$$$$$$$$$$$$$$$$$$$$$$$$$$$$$$$$$$$$$$$$$$$$$$$$$$$$$$$$$$$$$$$$$$$$$$$$",
"$$$$$$$$$$$$$$$$$$$$$$$$$$$$$$$$$$$$$$$$$$$$$$$$$$$$$$$$$$$$$$$$$$$$$$$$$$$$$$$$$$$$$$$$$$$$$$$$",
"$$$$$$$$$$$$$$$$$$$$$$$$$$$$$$$$$$$$$$$$$$$$$$$$$$$$$$$$$$$$$$$$$$$$$$$$$$$$$$$$$$$$$$$$$$$$$$$$",
"$$$$$$$$$$$$$$$$$$$$$$$$$$$$$$$$$$$$$$$$$$$$$$$$$$$$$$$$$$$$$$$$$$$$$$$$$$$$$$$$$$$$$$$$$$$$$$$$",
"$$$$$$$$$$$$$$$$$$$$$$$$$$$$$$$$$$$$$$$$$$$$$$$$$$$$$$$$$$$$$$$$$$$$$$$$$$$$$$$$$$$$$$$$$$$$$$$$",
"$$$$$$$$$$$$$$$$$$$$$$$$$$$$$$$$$$$$$$$$$$$$$$$$$$$$$$$$$$$$$$$$$$$$$$$$$$$$$$$$$$$$$$$$$$$$$$$$",
"$$$$$$$$$$$$$$$$$$$$$$$$$$$$$$$$$$$$$$$$$$$$$$$$$$$$$$$$$$$$$$$$$$$$$$$$$$$$$$$$$$$$$$$$$$$$$$$$",
"$$$$$$$$$$$$$$$$$$$$$$$$$$$$$$$$$$$$$$$$$$$$$$$$$$$$$$$$$$$$$$$$$$$$$$$$$$$$$$$$$$$$$$$$$$$$$$$$",
"$$$$$$$$$$$$$$$$$$$$$$$$$$$$$$$$$$$$$$$$$$$$$$$$$$$$$$$$$$$$$$$$$$$$$$$$$$$$$$$$$$$$$$$$$$$$$$$$",
"$$$$$$$$$$$$$$$$$$$$$$$$$$$$$$$$$$$$$$$$$$$$$$$$$$$$$$$$$$$$$$$$$$$$$$$$$$$$$$$$$$$$$$$$$$$$$$$$",
"$$$$$$$$$$$$$$$$$$$$$$$$$$$$$$$$$$$$$$$$$$$$$$$$$$$$$$$$$$$$$$$$$$$$$$$$$$$$$$$$$$$$$$$$$$$$$$$$",
"$$$$$$$$$$$$$$$$$$$$$$$$$$$$$$$$$$$$$$$$$$$$$$$$$$$$$$$$$$$$$$$$$$$$$$$$$$$$$$$$$$$$$$$$$$$$$$$$",
"$$$$$$$$$$$$$$$$$$$$$$$$$$$$$$$$$$$$$$$$$$$$$$$$$$$$$$$$$$$$$$$$$$$$$$$$$$$$$$$$$$$$$$$$$$$$$$$$",
"$$$$$$$$$>>>>>>>>>>>>>>>$$$$$$$$$$$$$$$$$$$$$$$$$$$$$$$$$$$$$$$$$$>>>>>>>>>>>>>>>$$$$$$$$$$$$$$$",
"$$$$$$$$$>>>>>>>>>>>>>>>$$$$$$$$$$$$$$$$$$$$$$$$$$$$$$$$$$$$$$$$$$>>>>>>>>>>>>>>>$$$$$$$$$$$$$$$",
"$$$$$$$$$>>>>>>>>>>>>>>>$$$$$$$$$$$$$$$$$$$$$$$$$$$$$$$$$$$$$$$$$$>>>>>>>>>>>>>>>$$$$$$$$$$$$$$$",
"$$$$$$>>>>>>>>>>>>>>>>>>>>>$$$$$$$$$$$$$$$$$$$$$$$$$$$$$$$$$$$$>>>>>>>>>>>>>>>>>>>>>>>>$$$$$$$$$",
"$$$$$$>>>>>>>>>>>>>>>>>>>>>$$$$$$$$$$$$$$$$$$$$$$$$$$$$$$$$$$$$>>>>>>>>>>>>>>>>>>>>>>>>$$$$$$$$$",
"$$$$$$>>>>>>>>>>>>>>>>>>>>>$$$$$$$$$$$$$$$$$$$$$$$$$$$$$$$$$$$$>>>>>>>>>>>>>>>>>>>>>>>>$$$$$$$$$",
"$$$$$$>>>>>>>>>>>>>>>>>>>>>$$$$$$$$$$$$$$$$$$$$$$$$$$$$$$$$$$$$>>>>>>>>>>>>>>>>>>>>>>>>>>>$$$$$$",
"$$$$$$>>>>>>>>>>>>>>>>>>>>>$$$$$$$$$$$$$$$$$$$$$$$$$$$$$$$$$$$$>>>>>>>>>>>>>>>>>>>>>>>>>>>$$$$$$",
"$$$$$$>>>>>>>>>>>>>>>>>>>>>$$$$$$$$$$$$$$$$$$$$$$$$$$$$$$$$$$$$>>>>>>>>>>>>>>>>>>>>>>>>>>>$$$$$$",
"$$$$$$$$$>>>>>>>>>>>>>>>$$$$$$$$$$$$$$$$$$$$$$$$$$$$$$$$$$$$$$$>>>>>>>>>>>>>>>>>>>>>>>>>>>$$$$$$",
"$$$$$$$$$>>>>>>>>>>>>>>>$$$$$$$$$$$$$$$$$$$$$$$$$$$$$$$$$$$$$$$>>>>>>>>>>>>>>>>>>>>>>>>>>>$$$$$$",
"$$$$$$$$$>>>>>>>>>>>>>>>$$$$$$$$$$$$$$$$$$$$$$$$$$$$$$$$$$$$$$$>>>>>>>>>>>>>>>>>>>>>>>>>>>$$$$$$",
"$$$$$$$$$$$$$$$$$$$$$$$$$$$$$$$$$$$$$$$$$$$$$$$$$$$$$$$$$$$$$$$$$$>>>>>>>>>>>>>>>>>>>>>$$$$$$$$$",
"$$$$$$$$$$$$$$$$$$$$$$$$$$$$$$$$$$$$$$$$$$$$$$$$$$$$$$$$$$$$$$$$$$>>>>>>>>>>>>>>>>>>>>>$$$$$$$$$",
"$$$$$$$$$$$$$$$$$$$$$$$$$$$$$$$$$$$$$$$$$$$$$$$$$$$$$$$$$$$$$$$$$$>>>>>>>>>>>>>>>>>>>>>$$$$$$$$$",
"$$$$$$$$$$$$$$$$$$$$$$$$$$$>>>>>>>>>>>>$$$$$$$$$$$$$$$$$$$$$$$$$$$$$$$$$$$$$$$$$$$$$$$$$$$$$$$$$",
"$$$$$$$$$$$$$$$$$$$$$$$$$$$>>>>>>>>>>>>$$$$$$$$$$$$$$$$$$$$$$$$$$$$$$$$$$$$$$$$$$$$$$$$$$$$$$$$$",
"$$$$$$$$$$$$$$$$$$$$$$$$$$$>>>>>>>>>>>>$$$$$$$$$$$$$$$$$$$$$$$$$$$$$$$$$$$$$$$$$$$$$$$$$$$$$$$$$",
"$$$$$$$$$$$$$$$$$$$$$>>>>>>>>>>>>>>>>>>>>>$$$$$$$$$$$$$$$>>>>>>>>>>>>$$$$$$$$$$$$$$$$$$$$$$$$$$$",
"$$$$$$$$$$$$$$$$$$$$$>>>>>>>>>>>>>>>>>>>>>$$$$$$$$$$$$$$$>>>>>>>>>>>>$$$$$$$$$$$$$$$$$$$$$$$$$$$",
"$$$$$$$$$$$$$$$$$$$$$>>>>>>>>>>>>>>>>>>>>>$$$$$$$$$$$$$$$>>>>>>>>>>>>$$$$$$$$$$$$$$$$$$$$$$$$$$$",
"$$$$$$$$$$$$$$$$$$$$$>>>>>>>>>>>>>>>>>>>>>$$$$$$$$$$$$>>>>>>>>>>>>>>>>>>$$$$$$$$$$$$$$$$$$$$$$$$",
"$$$$$$$$$$$$$$$$$$$$$>>>>>>>>>>>>>>>>>>>>>$$$$$$$$$$$$>>>>>>>>>>>>>>>>>>$$$$$$$$$$$$$$$$$$$$$$$$",
"$$$$$$$$$$$$$$$$$$$$$>>>>>>>>>>>>>>>>>>>>>$$$$$$$$$$$$>>>>>>>>>>>>>>>>>>$$$$$$$$$$$$$$$$$$$$$$$$",
"$$$$$$>>>>>>>>>$$$$$$$$$>>>>>>>>>>>>>>>$$$$$$$$$$$$$$$>>>>>>>>>>>>>>>>>>$$$$$$$$$$$$$$$$$$$$$$$$",
"$$$$$$>>>>>>>>>$$$$$$$$$>>>>>>>>>>>>>>>$$$$$$$$$$$$$$$>>>>>>>>>>>>>>>>>>$$$$$$$$$$$$$$$$$$$$$$$$",
"$$$$$$>>>>>>>>>$$$$$$$$$>>>>>>>>>>>>>>>$$$$$$$$$$$$$$$>>>>>>>>>>>>>>>>>>$$$$$$$$$$$$$$$$$$$$$$$$",
"$$$>>>>>>>>>>>>>>>$$$$$$$$$$$$$$$$$$$$$$$$$$$$$$$$$$$$$$$>>>>>>>>>>>>$$$$$$$$$$$$$$$$$$$$$$$$$$$",
"$$$>>>>>>>>>>>>>>>$$$$$$$$$$$$$$$$$$$$$$$$$$$$$$$$$$$$$$$>>>>>>>>>>>>$$$$$$$$$$$$$$$$$$$$$$$$$$$",
"$$$>>>>>>>>>>>>>>>$$$$$$$$$$$$$$$$$$$$$$$$$$$$$$$$$$$$$$$>>>>>>>>>>>>$$$$$$$$$$$$$$$$$$$$$$$$$$$",
"$$$>>>>>>>>>>>>>>>$$$$$$$$$$$$$$$$$$$$$$$$$$$$$$$$$$$$$$$$$$$$$$$$$$$$$$$$$$$$$$$$$$$$$$$$$$$$$$",
"$$$>>>>>>>>>>>>>>>$$$$$$$$$$$$$$$$$$$$$$$$$$$$$$$$$$$$$$$$$$$$$$$$$$$$$$$$$$$$$$$$$$$$$$$$$$$$$$",
"$$$>>>>>>>>>>>>>>>$$$$$$$$$$$$$$$$$$$$$$$$$$$$$$$$$$$$$$$$$$$$$$$$$$$$$$$$$$$$$$$$$$$$$$$$$$$$$$",
"$$$$$$>>>>>>>>>$$$$$$$$$$$$$$$$$$$$$$$$$$$$$$$$$$$$$$$$$$$$$$$$$$$$$$$$$$$$$$$$$$$$$$$$$$$$$$$$$",
"$$$$$$>>>>>>>>>$$$$$$$$$$$$$$$$$$$$$$$$$$$$$$$$$$$$$$$$$$$$$$$$$$$$$$$$$$$$$$$$$$$$$$$$$$$$$$$$$",
"$$$$$$>>>>>>>>>$$$$$$$$$$$$$$$$$$$$$$$$$$$$$$$$$$$$$$$$$$$$$$$$$$$$$$$$$$$$$$$$$$$$$$$$$$$$$$$$$",
"$$$$$$$$$$$$$$$$$$$$$$$$$$$$$$$$$$$$$$$$$$$$$$$$$$$$$$$$$$$$$$$$$$$$$$$$$$$$$$$$$$$$$$$$$$$$$$$$",
"$$$$$$$$$$$$$$$$$$$$$$$$$$$$$$$$$$$$$$$$$$$$$$$$$$$$$$$$$$$$$$$$$$$$$$$$$$$$$$$$$$$$$$$$$$$$$$$$",
"$$$$$$$$$$$$$$$$$$$$$$$$$$$$$$$$$$$$$$$$$$$$$$$$$$$$$$$$$$$$$$$$$$$$$$$$$$$$$$$$$$$$$$$$$$$$$$$$"
};
