/* XPM */
static char *grass_3[] = {
/* columns rows colors chars-per-pixel */
"90 90 33 1 ",
"  c #A4C263",
". c #A5C364",
"X c #A8C465",
"o c #ABC666",
"O c #ACC767",
"+ c #ADC867",
"@ c #AFC968",
"# c #B2CB6A",
"$ c #B3CC6A",
"% c #B6CD6B",
"& c #B7CE6C",
"* c #B9D06D",
"= c #BDD26E",
"- c #BFD370",
"; c #C0D470",
": c #C3D571",
"> c #C4D571",
", c #C5D671",
"< c #C8D672",
"1 c #CAD772",
"2 c #CBD772",
"3 c #CDD873",
"4 c #CED873",
"5 c #D0D973",
"6 c #D2DA74",
"7 c #D5DB74",
"8 c #D6DB74",
"9 c #D8DB75",
"0 c #DADC75",
"q c #DDDD76",
"w c #E0DE76",
"e c #E5DF77",
"r c #EAE178",
/* pixels */
";;;;;;;;;;;;;;;;;;;;;;;;;;;;;;;;;;;;;;;;;;;;;;;;;;;;;;;;;;;;;;;;;;;;;;;;;;;;;;;;;;;;;;;;;;",
";;;;;;;;;;;;;;;;;;;;;;;;;;;;;;;;;;;;;;;;;;;;;;;;;;;;;;;;;;;;;;;;;;;;;;;;;;;;;;;;;;;;;;;;;;",
";;;;;;;;;;;;;;;;;;;;;;;;;;;;;;;;;;;;;;;;;;;;;;;;;;;;;;;;;;;;;;;;;;;;;;;;;;;;;;;;;;;;;;;;;;",
";;;;;;;;;;;;;;;;;;;;;;;;;;;;;;;;;;;;;;;;;*********=;;;;;;;;;;;;;;;;;;;;;;;;;;;;;;;;;;;;;;;",
";;;;;;;;;;;;;;;;;;;;;;;;;;;;;;;;;;;;;;;;;X.       #;;;;;;;;;;;;;;;;;;;;;;;;;;;;;;;;;;;;;;;",
";;;;;=%%%%%%%=;;;;;;;;;;;;;;;;;;;;;;;*%&&X.       X%*;;;;;;;;;;;;;;1555,;;;;;;;;;;;;;;;;;;",
";;;;;%       =;;-;;;;;;;;;;;;;;;;;;;;%              %;;;;;;;;;;;;;;7err3;;;;;;;;;;;;;;;;;;",
";;;=#O       ##$&;;;;;;;;;;;;;;;;;;*#X              #;;;;;;;;;;;;17errew7,;;;;;;;;;;;;;;;;",
";;;*            X=;;;;;;;;;;;;;;;;;&                #;;;;;;;;;;;;5eerrrre;;;;;;,;;;;;;;;;;",
";;;*            .@%;;;;;;;;;;;;;;;;%                #;;;;;;;;;;;;,5wrre77,;;;;,wq73;;;;;;;",
";;;*              X;;;;;;;;;;;;;;;;%                #;;;;;;;;;;;;;;7rer1;;;;;;5err7;;;;;;;",
";;;*             .+;;;;;;;;;;;;;;;;=*@            O*=;;;;;;;;;;;;;;,533,;;;;,werreew3;;;;;",
";;;*              X;;;;;;;;;;;;;;;;;;$.           @;;;;;;;;;;;;;;;;;;;;;;;;;,eerrrer6;;;;;",
";;;*              +;;;;;;;;;;;;;;;;;;==============;;;;;;;;;;;;;;;;;;;;;;;;;;,7err9,,;;;;;",
";;;*              X;;;;;;;;;;;;;;;;;;;;;;;;;;;;;;;;;;;;;;;;;;;;;;;;;;;;;;;;;;;3ere9;;;;;;;",
";;;;;%          O;;;;;;;;;;;;;;;;;;;;;;;;;;;;;;;*     %;;;;;;;;;;;;;;;;;;;;;;;;;,;;;;;;;;;",
";;;;;&XXXXXXXXXXX;;;;;;;;;;;;;;;;-=======-;;;;-=&     %==;;;;;;;;;;;;;;;;;;;;;;;;;;;;;;;;;",
";;;;;;;;;;;;;;;;;;;;;;;;;;;;;;;;;*       *;;;;=         *;;;;;;;;;;;;;;>;;;;;;;;;;;;;;;;;;",
";;;;;;;;;;;;;;;;;*******=;;;;;;-*%       %*-;;=         *;;;;;;;;;;;;;;>333;;;;;;;;;;;;;;;",
";;;;;;;;;;;;;;;;=.      %;;;;;;=           =;;=         *;;;;;;;;;;;;;;were;;;;;;;;;;;;;;;",
";;;;;;;;;;;;;;;%%       #%=;;;;=           =;;=#O     X#=;;;;;;;;;;;;>5errr55;;;;;;;;;;;;;",
";;;;;;;;;;;;;;;           *-;;;=           =;;;;*     &;;;;;;;;;;;;;;wrerrree;;;;;;;;;;;;;",
";;;;;;;;;;;;;;;           *;;;;-#@       @#=;;;;=#####*;;;;;;;;;;;;;;57errr79;;;;;;;;;;;;;",
";;;;;;;;;;;;;;;           *;;;;;-*       *;;;;;;;;;;;;;;;;;;;;;;;;;;;;;wrrr,;;;;;;;;;;;;;;",
";;;;;;;;;;;;;;;%#       @%=;;;;;;=%%%%%%%=;;;;;;;;;;;;;;;;;;;;;;;;;;;;;3555;;;;;;;;;;;;;;;",
";;;;;;;;;;;;;;;;=       %;;;;;;;;;;;;;;;;;;;;;;;;;;;;;;;;;;;;;;;;;;;;;;;;;;;;;;;;;;;;;;;;;",
";;;;;;;;;;;;;;;;-*******=;;;;;;;;;;;;;;;;;;;;;;;;;;;;;;;;;;;;;;;;;;;;;;;;;;;;;;;;;;;;;;;;;",
";;;;;;;;;;;;;;;;;;;;;;;;;;;;;;;;;;;;;;;;;;;;;;;;;;;;;;;;;;;;;;;;;;;;;;;;;;;;;;;;;;;;;;;;;;",
";;;;;;;;;;;;;;;;;;;;;;;;;;;;;;;;;;;;;;;;;;;;;;;;;;;;;;;;;;;;;;;;;;;;;;;;;;;;;;;;;;;;;;;;;;",
";;;;;;;;;;;;;;;;;;;;;;;;;;;;;;;;;;;;;;;;;;;;;;;;;;;;;;;;;;;;;;;;;;;;;;;;;;;;;;;;;;;;;;;;;;",
";;;;;;;;;;;;;;;;;;;;;;;;;;;;;;;;;;;;;;;;;;;;;;;;;;;;;;;;;;;;;;;;;;;;;;;;;;;;;;;;;;;;;;;;;;",
";;;;;;;;;;;;;;;;;;;;;;;;;;;;;;;;;;;;;;;;;;;;;;;;;;;;;;;;;;;;;;;;;;;;;;;;;;;;;;;;;;;;;;;;;;",
";;;;;;;;;;;;;;;;;;;;;;;;;;;;;;;;;;;;;;;;;;;;;;;;;;;;;;;;;;;;;;;;;;;;;;;;;;;;;;;;;;;;;;;;;;",
";;;;;;;;;;;;;;;;;;;;;;;;;;;;;;;;;;;;;;;;;*********=;;;;;;;;;;;;;;;;;;;;;;;;;;;;;;;;;;;;;;;",
";;;;;;;;;;;;;;;;;;;;;;;;;;;;;;;;;;;;;;;;;X  X    .@;;;;;;;;;;;;;;;=,;;;;;;;;;;;;;;;;;;;;;;",
";;;;;=%%%%%%&=;;;;;;;;;;;;;;;;;;;;;;;*%%&X       .X%*;;;;;;;;;;;;;;,555>;;;;;;;;;;;;;;;;;;",
";;;;;%       *;;;;;;;;;;;;;;;;;;;;;;;$              $;;;;;;;;;;;;;;7rre3;;;;;;;;;;;;;;;;;;",
";;;=#+       #$#%-;;;;;;;;;;;;;;;;;*$X              #;;;;;;;;;;;,,7wrrrq7>;;;;;;;;;;;;;;;;",
";;;*            X;;;;;;;;;;;;;;;;;;%                #;;;;;;;;;;;;5rerrrre>;;;;;;;;;;;;;;;;",
";;;*            .@#;;;;;;;;;;;;;;;;%                #;;;;;;;;;;;;,7wrre97>;;;;,q7q3;;;;;;;",
";;;*              X;;;;;;;;;;;;;;;;*                #;;;;;;;;;;;;;;7eee3;=;;;;5rer9;;;;;;;",
";;;*              O;;;;;;;;;;;;;;;;=*@            O*=;;;;;;;;;;;,=;,351,;;,=,werrrew3;;;;;",
";;;*              X;;;;;;;;;;;;;;;;;;$            @;;;;;;;;;;;;;,;;=;;;;;=,;,eerrrrr5;;;;;",
";;;*              +;;;;;;;;;;;;;;;;;;==============;;;;;;;;;;;;;=;,,;;;;;,;;;15rre9>;;;;;;",
";;;*             .+;;;;;;;;;;;;;;;;;;;;;;;;;;;;;;;;;-;;;;;;;;;;;=;,;;;;;;;;,;;3err7;;;;;;;",
";;;;;%          X;;;;;;;;;;;;;;;;;;;;;;;;;;;;;;;*     %;;;;;;;;;;;;=,;;;;==;;;;;;1;;;;;;;;",
";;;;;&XXXXXXXXXX+;;;;;;;;;;;;;;;;;=======-;;;;;=&     %=;;;;;;;;,=;,=;;;;;;;;;;;;;;;;;;;;;",
";;;;;;;;;;;;;;;;;;;;;;;;;;;;;;;;;*       *;;;;=         *;;;;;;;;;=;=;;=;,=;;;;;;;;;;;;;;;",
";;;;;;;;;;;;;;;;-*******=;;;;;;;*%       %*;;;=         *;;;;;;;;;;;;;;1111;;;;;;;;;;;;;;;",
";;;;;;;;;;;;;;;;=       %;;;;;;=           =;;=         *;;;;;;;;;;;;;;qrre;;;;;;;;;;;;;;;",
";;;;;;;;;;;;;;;%$       @%=;;;;=           =;;-@O     X#*;;;;;;;;;;;;13rrrr73;;;;;;;;;;;;;",
";;;;;;;;;;;;;;;          .*;;;;=           =;;;;*    .&;;;;;;;;;;;;;;0rrrrrre;;;;;;;;;;;;;",
";;;;;;;;;;;;;;;           *;;;;=#@       @#=;;;;=#####*;;;;;;;;;;;;;;35rrrr95;;;;;;;;;;;;;",
";;;;;;;;;;;;;;;           *;;;;;-*       *;;;;;;;;;;;;;;;;;;;;;;;;;;;;;qrrr;;;;;;;;;;;;;;;",
";;;;;;;;;;;;;;;%$       #%=;;;;;;=%%%%%%&=;;;;;;;;;;;;;;;;;;;;;;;;;;;;;3535;;;;;;;;;;;;;;;",
";;;;;;;;;;;;;;;;=       %-;;;;;;;;;;;;;;;;;;;;;;;;;;;;;;;;;;;;;;;;;;;;;;;;;;;;;;;;;;;;;;;;",
";;;;;;;;;;;;;;;;;*******=;;;;;;;;;;;;;;;;;;;;;;;;;;;;;;;;;;;;;;;;;;;;;;;;;;;;;;;;;;;;;;;;;",
";;;;;;;;;;;;;;;;;;;;;;;;;;;;;;;;;;;;;;;;;;;;;;;;;;;;;;;;;;;;;;;;;;;;;;;;;;;;;;;;;;;;;;;;;;",
";;;;;;;;;;;;;;;;;;;;;;;;;;;;;;;;;;;;;;;;;;;;;;;;;;;;;;;;;;;;;;;;;;;;;;;;;;;;;;;;;;;;;;;;;;",
";;;;;;;;;;;;;;;;;;;;;;;;;;;;;;;;;;;;;;;;;;;;;;;;;;;;;;;;;;;;;;;;;;;;;;;;;;;;;;;;;;;;;;;;;;",
";;;;;;;;;;;;;;;;;;;;;;;;;;;;;;;;;;;;;;;;;;;;;;;;;;;;;;;;;;;;;;;;;;;;;;;;;;;;;;;;;;;;;;;;;;",
";;;;;;;;;;;;;;;;;;;;;;;;;;;;;;;;;;;;;;;;;;;;;;;;;;;;;;;;;;;;;;;;;;;;;;;;;;;;;;;;;;;;;;;;;;",
";;;;;;;;;;;;;;;;;;;;;;;;;;;;;;;;;;;;;;;;;;;;;;;;;;;;;;;;;;;;;;;;;;;;;;;;;;;;;;;;;;;;;;;;;;",
";;;;;;;;;;;;;;;;;;;;;;;;;;;;;;;;;;;;;;;;;*********=;;;;;;;;;;;;;;;;;;;;;;;;;;;;;;;;;;;;;;;",
";;;;;;;;;;;;;;;;;;;;;;;;;;;;;;;;;;;;;;;;;O        #-;;;;;;;;;;;;;;;;;;;;;;;;;;;;;;;;;;;;;;",
";;;;;=%%%%%%&=;;;;;;;;;;;;;;;;;;;;;;;=%%%X        X&*;;;;;;;;;;;;;;1555>;;;;;;;;;;;;;;;;;;",
";;;;;%       =-;;;;;;;;;;;;;;;;;;;;;;#              #;;;;;;;;;;;;;;7rrr1;;;;;;;;;;;;;;;;;;",
";;;=#O       ###$;;;;;;;;;;;;;;;;;;*#O              #;;;;;;;;;;;;17qrrr07;;;;;;;;;;;;;;;;;",
";;;*            X;;;;;;;;;;;;;;;;;;%                #;;;;;;;;;;;;6rrrrrrr>;;;;;;;;;;;;;;;;",
";;;*            .@%;;;;;;;;;;;;;;;;%                #;;;;;;;;;;;;>5qrrr76>;;;;>00q3;;;;;;;",
";;;*              X;;;;;;;;;;;;;;;;&                #;;;;;;;;;;;;;;7rrr1;;;;;;3rrr7;;;;;;;",
";;;*              O;;;;;;;;;;;;;;;;=*@            O*=;;;;;;;;;;;;;;>131>;;;;>wwrrrrq1;;;;;",
";;;*              X;;;;;;;;;;;;;;;;;;#            @;;;;;;;;;;;;;;;;;;;;;;;;;>rrrrrrr5;;;;;",
";;;*              O;;;;;;;;;;;;;;;;;;==============;;;;;;;;;;;;;;;;;;;;;;;;;;>5rrr0>;;;;;;",
";;;*              O;;;;;;;;;;;;;;;;;;;;;;;;;;;;;;;;;;;;;;;;;;;;;;;;;;;;;;;;;;;1rrr7;;;;;;;",
";;;;;&          X;;;;;;;;;;;;;;;;;;;;;;;;;;;;;;;*  .  %-;;;;;;;;;;;;;;;;;;;;;;;;;;;;;;;;;;",
";;;;;&XXXXXXXXXX+;;;;;;;;;;;;;;;;-=======;;;;;;=&     %==;;;;;;;;;;;;;;;;;;;;;;;;;;;;;;;;;",
";;;;;;;;;;;;;;;;;;;;;;;;;;;;;;;;-*       *;;;;=         *;;;;;;;;;;;;;;;;;;;;;;;;;;;;;;;;;",
";;;;;;;;;;;;;;;;=*******=;;;;;;-*$       %*-;;=         *;;;;;;;;;;;;;;1111;;;;;;;;;;;;;;;",
";;;;;;;;;;;;;;;;=       %;;;;;;=           =;;=         *;;;;;;;;;;;;;;wrrr;;;;;;;;;;;;;;;",
";;;;;;;;;;;;;;;%&       @%=;;;;=           =;;=@O     X@=;;;;;;;;;;;;13wrrr33;;;;;;;;;;;;;",
";;;;;;;;;;;;;;;           *;;;;=           =;;;;*     &;;;;;;;;;;;;;;qrrrrrrr;;;;;;;;;;;;;",
";;;;;;;;;;;;;;;           *;;;;=#@       ##=;;;;=###$#*;;;;;;;;;;;;;;37rrrr76;;;;;;;;;;;;;",
";;;;;;;;;;;;;;;           *;;;;;;*       *;;;;;;;;;;;;;;;;;;;;;;;;;;;;;wrrr;=;;;;;;;;;;;;;",
";;;;;;;;;;;;;;;%$       #&=;;;;;;=&%%%%%%=;;;;;;;;;;;;;;;;;;;;;;;;;;;;;1736;;;;;;;;;;;;;;;",
";;;;;;;;;;;;;;;;=       %;;;;;;;;;;;;;;;;;;;;;;;;;;;;;;;;;;;;;;;;;;;;;;;;;;;;;;;;;;;;;;;;;",
";;;;;;;;;;;;;;;;-*******=;;;;;;;;;;;;;;;;;;;;;;;;;;;;;;;;;;;;;;;;;;;;;;;;;;;;;;;;;;;;;;;;;",
";;;;;;;;;;;;;;;;;;;;;;;;;;;;;;;;;;;;;;;;;;;;;;;;;;;;;;;;;;;;;;;;;;;;;;;;;;;;;;;;;;;;;;;;;;",
";;;;;;;;;;;;;;;;;;;;;;;;;;;;;;;;;;;;;;;;;;;;;;;;;;;;;;;;;;;;;;;;;;;;;;;;;;;;;;;;;;;;;;;;;;",
";;;;;;;;;;;;;;;;;;;;;;;;;;;;;;;;;;;;;;;;;;;;;;;;;;;;;;;;;;;;;;;;;;;;;;;;;;;;;;;;;;;;;;;;;;"
};
