/* XPM */
static char *grass_4[] = {
/* columns rows colors chars-per-pixel */
"90 90 26 1 ",
"  c #C0D470",
". c #C2D570",
"X c #C3D571",
"o c #C4D571",
"O c #C7D671",
"+ c #C4D772",
"@ c #C8D672",
"# c #C7D973",
"$ c #CED873",
"% c #C9DA74",
"& c #CADA74",
"* c #CBDC74",
"= c #CCDC75",
"- c #D0D973",
"; c #D2DA74",
": c #D4DA74",
"> c #D1DF76",
", c #D8DB75",
"< c #DADC75",
"1 c #DEDD76",
"2 c #E0DE76",
"3 c #E2DF77",
"4 c #E4DF77",
"5 c #E5DF77",
"6 c #D2E077",
"7 c #EAE178",
/* pixels */
"                                                                                          ",
"                                                                                          ",
"                                                                                          ",
"                                                                                          ",
"                                                                                          ",
"     +#########                          ##########                                       ",
"     #666666666                          =66666666&                                       ",
"    &=666666666&%                      #&>66666666=&&&                                    ",
"   +6666666666666                      *66666666666666#               X  X                ",
"   #666666666666=                      =66666666666666==+            -34,                 ",
"   +666666666666>                      &6666666666666666#          X ,474@X               ",
"    #&666666666+#                      =6666666666666666+          -2455442               ",
"     &666666666                        &6666666666666666+          :5577455@              ",
"       + + +  +                          =666666666666%             $5755;@X              ",
"                                         >666666666666#             X3454XXX              ",
"                 6666666#                                            X XX                 ",
"             +  #6666666%           + +++ +                                               ",
"             >666666666666#        %6666666                                  X            ",
"             >666666666666+       +&6666666#+                           X  @--@X          ",
"             >666666666666+      #66666666666                            Xo4442X          ",
"    #####    &=666666666==+      +66666666666                            -,4775,@XX       ",
"   #66666%     666666666%        +66666666666                            3757754<         ",
"  %&66666=&    &%%%%%%&&          %=6666666&&                            -:4775:$         ",
"  666666666+                       #6666666                               X4774+          ",
" +666666666#                       +####%##                                ---@           ",
" +666666666+                                                                              ",
"  +%66666&+                                                                               ",
"   +66666%                                                                                ",
"     + +                                                                                  ",
"                                                                                          ",
"                                                                                          ",
"                                                                                          ",
"                                                                                          ",
"      #+++#++++                          ++#+++++++                                       ",
"     #666666666                          =66666666=                                       ",
"    #=666666666##                      +#>66666666=#%%                                    ",
"   #666666666666=                      =66666666666666#                X                  ",
"   +666666666666>                      &66666666666666=&             -:3:                 ",
"   +666666666666>                      =6666666666666666#         X  <774@ X              ",
"    #&666666666##                      &6666666666666666+         X$,47743<               ",
"     %666666666                        =6666666666666666+          :4477444               ",
"      #++#++#++                         #=666666666666&+           o-4545$-               ",
"                                         >666666666666%              <447$                ",
"                 >>==>>6#                 + + + + + +               X @@@X                ",
"                +6666666#                                                                 ",
"             >666666666666+        &6666666                             XX  Xo            ",
"             >666666666666#        &6666666++                           o  X@@XX          ",
"             =666666666666+      +66666666666                            o 4544X          ",
"    ++++#    ==666666666==+      +66666666666                            @@4775:X         ",
"   +66666#     666666666&        #66666666666                            4757757<         ",
"  #&66666&#    =***=****+         &=6666666==                           X:35574,-X        ",
"  666666666+                       #6666666+                            XXO7544           ",
" +666666666+                       +&&%%&&&                             X  ;::-           ",
"  666666666#                                                                 X            ",
"  &&66666&&                                                                               ",
"   #66666&                                                                                ",
"    +++#+                                                                                 ",
"                                                                                          ",
"                                                                                          ",
"                                                                                          ",
"                                                                                          ",
"       ++ +  +                            + + +  +                                        ",
"     #666666666                          =66666666=                                       ",
"    #&666666666#+                      +#=66666666=#+#                                    ",
"   #666666666666>                      =66666666666666#                 XX                ",
"   +666666666666=                      &66666666666666=#          +  @$--X                ",
"   +666666666666>                      =6666666666666666+            <775$                ",
"   +&=666666666%%                      =6666666666666666+          %:3774::X              ",
"     %666666666                        &6666666666666666#         +:7477577X              ",
"      #########                        +%=666666666666&#         XX+-4774::+              ",
"                                         =666666666666#              <774@                ",
"                 ==>===>#                ++#+++++#+++#               @@$@X                ",
"                +6666666#                                                                 ",
"             =>>66666666>>+        #=>>6>>6                                 XX            ",
"             >666666666666+        #6666666+                             X  o  o          ",
"             >666666666666+      +66666666666                             X4443           ",
"      ++     =6666666666>>+      +66666666666                            X@7774@X         ",
"   +66666%     666666666#        +66666666666                            4777744<X        ",
"  #%66666&#    =>=======+        +=>6666666==                            <347743;         ",
"  666666666+                       &6666666                                4774+          ",
" +666666666+                       #==&=***                               X,<,;           ",
"  666666666#                                                                X             ",
"  %&66666=&                                                                               ",
"   +66666%                                                                                ",
"    %####                                                                                 ",
"                                                                                          ",
"                                                                                          ",
"                                                                                          ",
"                                                                                          ",
"                                                                                          "
};
