/* XPM */
static char *result[] = {
/* columns rows colors chars-per-pixel */
"96 96 17 1 ",
"  c #A4C262",
". c #A5C262",
"X c #A4C362",
"o c #A5C362",
"O c #A4C263",
"+ c #A5C263",
"@ c #A4C363",
"# c #A5C363",
"$ c #C0D470",
"% c #C1D470",
"& c #C0D570",
"* c #C1D570",
"= c #C0D471",
"- c #C1D471",
"; c #C0D571",
": c #C1D571",
"> c #E8EEAA",
/* pixels */
"&&&&&&--=:::$$=*&&&$$=;&&&&----:;&$========--%%%;=-%%%-=;--======;$$%%*&$$%---&&&%$$**%&&$;;;&&&",
"&&&&&&---::;$$&&&&$$&;;;&&;%-%;::$$&-=====%--*%%===%%$===---======%$$:**$$&--%&&*&$$%**&&$=;;&&&",
"&&$*&*-=-;:-&$=&*&$$&;;:&;&-%%*::$$$=---=-=-=-%%;;=$$%;==%-%--;;$-$%$&**&$$-%-&&&%$$*&*&$;=:&***",
"&&*:--$$$-%-*&*%%&&$$;;;&%$:%:;;;$$$%$%=%%%*%&;&$==$--::;==$=--::;:::&&:&$&*&***$%:%&&$%%*&*;;:-",
"&&*--:$$$---&****%%$$;;:$$&&**=;=%$$%%%$$$%%$&&$$$$$==:::==----;;;-:;=;;$$$&**%%$***%$$:*%;&&:::",
"&&*==:$%$==-*&*&&*%=$:::&%$**%;==$$$-%$=$$%$%&&*&$%==--:--====-;;;;*-=&;$&$***%*****&%%**%&&&;:;",
"&&$***;=:$$*%%$=&;::;%%%&%****$$$$$%%%%*%*$&$;&&;$;$$$$$$-==&**-*%$$$**&$=;%&%*&&=;&:-:$%%&%$;&*",
"&&&:*%;;;*&$&$$=;=::--%%%****&%$$$$%%%%**&$$%$&&-==$&&%$$$==$&**%%%%***%;=-=$&**%=;=:--%$$$$$&&*",
"&$*%%::&;&$&&$%::;:;:%$%**&***&%%=$&$$$&**%$&*&$=$=;$$$$$===$&$%%-$*%***==;$$$%*:;=;:--%%$%$$*&&",
"$$$;&;%:*$%$**%$&$&&&&&$$%$=%&%%*&$& X@**%$$$-=-&&&$=$$$$;*&=%$***=&&;;*$%$o#X%*$+.#$*&*&&&&*$&&",
"$$$=;=***&$$$%%=$%&&&%$$$$$$$&*%%$$$ XX&*&$$&---*&&;==$$$&&;=$%&&&$$$::-$$&oo.%%$++#&&&&&&:*%$&*",
"$&$;;;*:%%%=%%%$$$*&&=%$$$$$$$%%%&$$oX@***%=$---&&&$;=&$$$$*&=$;$*$$$-:;&&%oXX%*%OO+$&&&&$:*:&**",
"&&$%$%&=$::::-*$$$%%%&;:$$$&&&&&$@X#-%::::&&&===&&&&;**&&%=$$%*-%$*&*&$$$&&*%*.. :;=$&&::-$*%$$$",
"&&$$%%%$$-:::::%$&&**:;=$$$&&&&&&O@#:-=::-$&;-=-&&&&&&&&*$$$$%%%%$%**$$$&&;***O  ;;:$&&=-:*%*&$$",
"&&&-$*&%&:-::*;%$$&&&;&=$&$*;$&$&XO@-:-:-;;;*=-=&*&&*$&&$$$$%%%%%$&&*$$=&&**%%X .==:;&&:--%%$&$%",
"&&***%$;=;$&;;;;&;$%-%%*---$&$%%*+O+$%*-:===-&$&$%*&%%$$&%$$&&;$&&&&&$$$*&*$*$-:;$$&$$*$&%%%%$&&",
"&&***%===&&&=;;;;;-%%%%%=--$$%%%-@OO%%%%--===$&&$%%%$$$$$$$=$&&&&&&&$&$=*&&&&&-:;%$$-%%$$$%%-&&*",
"&$$&:*-==&;;:==;;:%%$%%$-==$$&%*$+OO%$----==-$&&*%$$$&&$$$$&*&;*&$&&&&$$&$&*&&:--%%$$$%%$%%-$;$*",
"$$%$$&--%*%*O+ $%%%%*;-:&$%%**$%&*-%-=-&&&===*&&%%%&$$%$$$$$$&%&$$%$&%$$%$%:=;%%:***$&$***&:%$=$",
"$$$$$$%%*%*:+O@%%%%%*::-$$$**:&$%%%%--=*&&;;:&*&$%%*&*$$$$$$$$$$$$$$$$$$%%-=;:&*****$$=:*****%$&",
"%=$$$%%***&:OOO-*%%%%*-*$&$**%$$$%$%-:-;&$;;;**%$%-&&&$$$$$$$$$$$$$$%$%$%%%;&;****:&$$&%*&*&*$%$",
"$%*&$%$$$%%-&&$#oX***-=-$&*&;&*:*;;-&$&:::*%$$&$&=:$%%%$$$$$$$$$$$$$=;&&$==*%:$%%;;=$$&*&&--=-;=",
"%%%%$$$$$%%%&&&ooo&**=--&&&&&$**%==-&&&;::$%%&&$&;;%$$$$$$$$$$$$$$$$%&&*==;&*&%%*;;;$$%&&&:-=;=;",
"%%$&$$$$$-%*&*$ooo*%&-:=;&$*;&***$-;;&&::*%$%&&;=;;$$$$$$$$$$$$$$$$$%*;;;=$**&$%%=;:&$$&&$:%-===",
"$$$$$$$$$$$$$$$OOO$$$$$$$$$$$$OOO$$$$$$$$$$$$$$$$$$$$$$$$$$$$$$$$$$$$$$$$$$$$$$$$$$$$$$$$$$$$$$$",
"$$$$$$$$$$$$$$$OOO$$$$$$$$$$$$OOO$$$$$$$$$$$$$$$$$$$$$$$$$$$$$$$$$$$$$$$$$$$$$$$$$$$$$$$$$$$$$$$",
"$$$$$$$$$$$$$$$OOO$$$$$$$$$$$$OOO$$$$$$$$$$$$$$$$$$$$$$$$$$$$$$$$$$$$$$$$$$$$$$$$$$$$$$$$$$$$$$$",
"$$$$$$$$$$$$$$$$$$$$$$$$$$$OOO$$$$$$$$$$$$$$$$$$$$$$$$$$$$$$$$$$$$$$$$$$$$$$$$$$$$$$$$$$$$$$$$$$",
"$$$$$$$$$$$$$$$$$$$$$$$$$$$OOO$$$$$$$$$$$$$$$$$$$$$$$$$$$$$$$$$$$$$$$$$$$$$$$$$$$$$$$$$$$$$$$$$$",
"$$$$$$$$$$$$$$$$$$$$$$$$$$$OOO$$$$$$$$$$$$$$$$$$$$$$$$$$$$$$$$$$$$$$$$$$$$$$$$$$$$$$$$$$$$$$$$$$",
"$$$$$$$$$$$$$$$$$$$$$$$$$$$OOO$$$$$$$$$$$$$$$$$$$$$$$$$$$OOO$$$OOO$$$$$$$$$$$$$$$$$$$$$$$$$$$$$$",
"$$$$$$$$$$$$$$$$$$$$$$$$$$$OOO$$$$$$$$$$$$$$$$$$$$$$$$$$$OOO$$$OOO$$$$$$$$$$$$$$$$$$$$$$$$$$$$$$",
"$$$$$$$$$$$$$$$$$$$$$$$$$$$OOO$$$$$$$$$$$$$$$$$$$$$$$$$$$OOO$$$OOO$$$$$$$$$$$$$$$$$$$$$$$$$$$$$$",
"$$$$$$$$$$$$$$$$$$$$$$$$$$$$$$$$$$$$$$$$$$$$$$$$$$$$$$$$$$$$OOO$$$$$$$$$$$$$$$$$$$$$$$$$$$$$$$$$",
"$$$$$$$$$$$$$$$$$$$$$$$$$$$$$$$$$$$$$$$$$$$$$$$$$$$$$$$$$$$$OOO$$$$$$$$$$$$$$$$$$$$$$$$$$$$$$$$$",
"$$$$$$$$$$$$$$$$$$$$$$$$$$$$$$$$$$$$$$$$$$$$$$$$$$$$$$$$$$$$OOO$$$$$$$$$$$$$$$$$$$$$$$$$$$$$$$$$",
"$$$$$$$$$$$$$$$$$$$$$$$$$$$$$$$$$$$$$$$$$$$$$$$$$$$$$$$$$$$$$$$$$$$$$$$$$$$$$$$$$$$$$$$$$$$$$$$$",
"$$$$$$$$$$$$$$$$$$$$$$$$$$$$$$$$$$$$$$$$$$$$$$$$$$$$$$$$$$$$$$$$$$$$$$$$$$$$$$$$$$$$$$$$$$$$$$$$",
"$$$$$$$$$$$$$$$$$$$$$$$$$$$$$$$$$$$$$$$$$$$$$$$$$$$$$$$$$$$$$$$$$$$$$$$$$$$$$$$$$$$$$$$$$$$$$$$$",
"$$$$$$$$$$$$$$$$$$$$$$$$$$$$$$$$$$$$$$$$$$$$$$$$$$$$$$$$$$$$$$$$$$$$$$$$$$$$$$$$$$$$$$$$$$$$$$$$",
"$$$$$$$$$$$$$$$$$$$$$$$$$$$$$$$$$$$$$$$$$$$$$$$$$$$$$$$$$$$$$$$$$$$$$$$$$$$$$$$$$$$$$$$$$$$$$$$$",
"$$$$$$$$$$$$$$$$$$$$$$$$$$$$$$$$$$$$$$$$$$$$$$$$$$$$$$$$$$$$$$$$$$$$$$$$$$$$$$$$$$$$$$$$$$$$$$$$",
"$$$$$$$$$$$$$$$$$$$$$$$$$$$$$$$$$$$$$$$$$$$$$$$$$$$$$$$$$$$$$$$$$$$$$$$$$$$$$$$$$$$$$$$$$$$$$$$$",
"$$$$$$$$$$$$$$$$$$$$$$$$$$$$$$$$$$$$$$$$$$$$$$$$$$$$$$$$$$$$$$$$$$$$$$$$$$$$$$$$$$$$$$$$$$$$$$$$",
"$$$$$$$$$$$$$$$$$$$$$$$$$$$$$$$$$$$$$$$$$$$$$$$$$$$$$$$$$$$$$$$$$$$$$$$$$$$$$$$$$$$$$$$$$$$$$$$$",
"$$$$$$$$$$$$$$$$$$$$$$$$$$$$$$$$$$$$$$$$$$$$$$$$$$$$$$$$$$$$$$$$$$$$$$$$$$$$$$$$$$$$$$$$$$$$$$$$",
"$$$$$$$$$$$$$$$$$$$$$$$$$$$$$$$$$$$$$$$$$$$$$$$$$$$$$$$$$$$$$$$$$$$$$$$$$$$$$$$$$$$$$$$$$$$$$$$$",
"$$$$$$$$$$$$$$$$$$$$$$$$$$$$$$$$$$$$$$$$$$$$$$$$$$$$$$$$$$$$$$$$$$$$$$$$$$$$$$$$$$$$$$$$$$$$$$$$",
"$$$$$$$$$$$$$$$$$$$$$$$$$$$$$$$$$$$$$$$$$$$$$$$$$$$$$$$$$$$$$$$$$$$$$$$$$$$$$$$$$$$$$$$$$$$$$$$$",
"$$$$$$$$$$$$$$$$$$$$$$$$$$$$$$$$$$$$$$$$$$$$$$$$$$$$$$$$$$$$$$$$$$$$$$$$$$$$$$$$$$$$$$$$$$$$$$$$",
"$$$$$$$$$$$$$$$$$$$$$$$$$$$$$$$$$$$$$$$$$$$$$$$$$$$$$$$$$$$$$$$$$$$$$$$$$$$$$$$$$$$$$$$$$$$$$$$$",
"$$$$$$$$$$$$$$$$$$$$$$$$$$$$$$$$$$$$$$$$$$$$$$$$$$$$$$$$$$$$$$$$$$$$$$$$$$$$$$$$$$$$$$$$$$$$$$$$",
"$$$$$$$$$$$$$$$$$$$$$$$$$$$$$$$$$$$$$$$$$$$$$$$$$$$$$$$$$$$$$$$$$$$$$$$$$$$$$$$$$$$$$$$$$$$$$$$$",
"$$$$$$$$$$$$$$$$$$$$$$$$$$$$$$$$$$$$$$$$$$$$$$$$$$$$$$$$$$$$$$$$$$$$$$$$$$$$$$$$$$$$$$$$$$$$$$$$",
"$$$$$$$$$$$$$$$$$$$$$$$$$$$$$$$$$$$$$$$$$$$$$$$$$$$$$$$$$$$$$$$$$$$$$$$$$$$$$$$$$$$$$$$$$$$$$$$$",
"$$$$$$$$$$$$$$$$$$$$$$$$$$$$$$$$$$$$$$$$$$$$$$$$$$$$$$$$$$$$$$$$$$$$$$$$$$$$$$$$$$$$$$$$$$$$$$$$",
"$$$$$$$$$$$$$$$$$$$$$$$$$$$$$$$$$$$$$$$$$$$$$$$$$$$$$$$$$$$$$$$$$$$$$$$$$$$$$$$$$$$$$$$$$$$$$$$$",
"$$$$$$$$$$$$$$$$$$$$$$$$$$$$$$$$$$$$$$$$$$$$$$$$$$$$$$$$$$$$$$$$$$$$$$$$$$$$$$$$$>>>$$$>>>$$$$$$",
"$$$$$$$$$$$$$$$$$$$$$$$$$$$$$$$$$$$$$$$$$$$$$$$$$$$$$$$$$$$$$$$$$$$$$$$$$$$$$$$$$>>>$$$>>>$$$$$$",
"$$$$$$$$$$$$$$$$$$$$$$$$$$$$$$$$$$$$$$$$$$$$$$$$$$$$$$$$$$$$$$$$$$$$$$$$$$$$$$$$$>>>$$$>>>$$$$$$",
"$$$$$$$$$$$$$$$$$$$$$$$$$$$$$$$$$$$$$$$$$$$$$$$$$$$$$$$$$$$$$$$$$$$$$$$$$$$$$$$$$$$$>>>$$$$$$$$$",
"$$$$$$$$$$$$$$$$$$$$$$$$$$$$$$$$$$$$$$$$$$$$$$$$$$$$$$$$$$$$$$$$$$$$$$$$$$$$$$$$$$$$>>>$$$$$$$$$",
"$$$$$$$$$$$$$$$$$$$$$$$$$$$$$$$$$$$$$$$$$$$$$$$$$$$$$$$$$$$$$$$$$$$$$$$$$$$$$$$$$$$$>>>$$$$$$$$$",
"$$$$$$$$$$$$$$$$$$$$$>>>$$$$$$$$$$$$$$$$$$$$$$$$$$$$$$$$$$$$$$$$$$$$$$$$$$$$$$$$$$$$$$$$$$$$$$$$",
"$$$$$$$$$$$$$$$$$$$$$>>>$$$$$$$$$$$$$$$$$$$$$$$$$$$$$$$$$$$$$$$$$$$$$$$$$$$$$$$$$$$$$$$$$$$$$$$$",
"$$$$$$$$$$$$$$$$$$$$$>>>$$$$$$$$$$$$$$$$$$$$$$$$$$$$$$$$$$$$$$$$$$$$$$$$$$$$$$$$$$$$$$$$$$$$$$$$",
"$$$$$$$$$$$$$$$$$$>>>$$$$$$$$$$$$$$$$$$$$$$$$$$$$$$$$$$$$$$$$$$$$$$$$$$$$$$$$$$$$$$$$$$$$$$$$$$$",
"$$$$$$$$$$$$$$$$$$>>>$$$$$$$$$$$$$$$$$$$$$$$$$$$$$$$$$$$$$$$$$$$$$$$$$$$$$$$$$$$$$$$$$$$$$$$$$$$",
"$$$$$$$$$$$$$$$$$$>>>$$$$$$$$$$$$$$$$$$$$$$$$$$$$$$$$$$$$$$$$$$$$$$$$$$$$$$$$$$$$$$$$$$$$$$$$$$$",
"$$$$$$$$$>>>$$$$$$>>>$$$$$$$$$$$$$$$$$$$$$$$$$$$$$$$$$$$$$$$$$$$$$$$$$$$$$$$$$$$$$$$$$$$$$$$$$$$",
"$$$$$$$$$>>>$$$$$$>>>$$$$$$$$$$$$$$$$$$$$$$$$$$$$$$$$$$$$$$$$$$$$$$$$$$$$$$$$$$$$$$$$$$$$$$$$$$$",
"$$$$$$$$$>>>$$$$$$>>>$$$$$$$$$$$$$$$$$$$$$$$$$$$$$$$$$$$$$$$$$$$$$$$$$$$$$$$$$$$$$$$$$$$$$$$$$$$",
"$$$$$$$$$$$$>>>$$$>>>$$$$$$$$$$$$$$$$$$$$$$$$$$$$$$$$$$$$$$$$$$$$$$$$$$$$$$$$$$$$$$$$$$$$$$$$$$$",
"$$$$$$$$$$$$>>>$$$>>>$$$$$$$$$$$$$$$$$$$$$$$$$$$$$$$$$$$$$$$$$$$$$$$$$$$$$$$$$$$$$$$$$$$$$$$$$$$",
"$$$$$$$$$$$$>>>$$$>>>$$$$$$$$$$$$$$$$$$$$$$$$$$$$$$$$$$$$$$$$$$$$$$$$$$$$$$$$$$$$$$$$$$$$$$$$$$$",
"$$$$$$$$$$$$>>>$$$$$$$$$$$$$$$>>>$$$$$$$$$$$$$$$$$$$$$$$$$$$$$$$$$$$$$$$$$$$$$$$$$$$$$$$$$$$$$$$",
"$$$$$$$$$$$$>>>$$$$$$$$$$$$$$$>>>$$$$$$$$$$$$$$$$$$$$$$$$$$$$$$$$$$$$$$$$$$$$$$$$$$$$$$$$$$$$$$$",
"$$$$$$$$$$$$>>>$$$$$$$$$$$$$$$>>>$$$$$$$$$$$$$$$$$$$$$$$$$$$$$$$$$$$$$$$$$$$$$$$$$$$$$$$$$$$$$$$",
"$$$$$$$$$$$$>>>$$$$$$$$$$$$$$$$$$>>>$$$$$$$$$$$$$$$$$$$$$$$$>>>$$$>>>$$$$$$$$$$$$$$$$$$$$$$$$$$$",
"$$$$$$$$$$$$>>>$$$$$$$$$$$$$$$$$$>>>$$$$$$$$$$$$$$$$$$$$$$$$>>>$$$>>>$$$$$$$$$$$$$$$$$$$$$$$$$$$",
"$$$$$$$$$$$$>>>$$$$$$$$$$$$$$$$$$>>>$$$$$$$$$$$$$$$$$$$$$$$$>>>$$$>>>$$$$$$$$$$$$$$$$$$$$$$$$$$$",
"$$$$$$$$$$$$$$$$$$$$$$$$$$$$$$$$$>>>$$$$$$$$$$$$$$$$$$$$$$$$$$$>>>$$$$$$$$$$$$$$$$$$$$$$$$$$$$$$",
"$$$$$$$$$$$$$$$$$$$$$$$$$$$$$$$$$>>>$$$$$$$$$$$$$$$$$$$$$$$$$$$>>>$$$$$$$$$$$$$$$$$$$$$$$$$$$$$$",
"$$$$$$$$$$$$$$$$$$$$$$$$$$$$$$$$$>>>$$$$$$$$$$$$$$$$$$$$$$$$$$$>>>$$$$$$$$$$$$$$$$$$$$$$$$$$$$$$",
"$$$$$$$$$$$$$$$$$$$$$$$$$$$$$$$$$>>>$$$$$$$$$$$$$$$$$$$$$$$$$$$$$$$$$$$$$$$$$$$$$$$$$$$$$$$$$$$$",
"$$$$$$$$$$$$$$$$$$$$$$$$$$$$$$$$$>>>$$$$$$$$$$$$$$$$$$$$$$$$$$$$$$$$$$$$$$$$$$$$$$$$$$$$$$$$$$$$",
"$$$$$$$$$$$$$$$$$$$$$$$$$$$$$$$$$>>>$$$$$$$$$$$$$$$$$$$$$$$$$$$$$$$$$$$$$$$$$$$$$$$$$$$$$$$$$$$$",
"$$$$$$$$$$$$$$$$$$$$$$$$$$$$$$$$$$$$$$$$$$$$$$$$$$$$$$$$$$$$$$$$$$$$$$$$$$$$$$$$$$$$$$$$$$$$$$$$",
"$$$$$$$$$$$$$$$$$$$$$$$$$$$$$$$$$$$$$$$$$$$$$$$$$$$$$$$$$$$$$$$$$$$$$$$$$$$$$$$$$$$$$$$$$$$$$$$$",
"$$$$$$$$$$$$$$$$$$$$$$$$$$$$$$$$$$$$$$$$$$$$$$$$$$$$$$$$$$$$$$$$$$$$$$$$$$$$$$$$$$$$$$$$$$$$$$$$",
"$$$$$$$$$$$$$$$$$$$$$$$$$$$$$$$$$$$$$$$$$$$$$$$$$$$$$$$$$$$$$$$$$$$$$$$$$$$$$$$$$$$$$$$$$$$$$$$$",
"$$$$$$$$$$$$$$$$$$$$$$$$$$$$$$$$$$$$$$$$$$$$$$$$$$$$$$$$$$$$$$$$$$$$$$$$$$$$$$$$$$$$$$$$$$$$$$$$",
"$$$$$$$$$$$$$$$$$$$$$$$$$$$$$$$$$$$$$$$$$$$$$$$$$$$$$$$$$$$$$$$$$$$$$$$$$$$$$$$$$$$$$$$$$$$$$$$$",
"$$$$$$$$$$$$$$$$$$$$$$$$$$$$$$$$$$$$$$$$$$$$$$$$$$$$$$$$$$$$$$$$$$$$$$$$$$$$$$$$$$$$$$$$$$$$$$$$",
"$$$$$$$$$$$$$$$$$$$$$$$$$$$$$$$$$$$$$$$$$$$$$$$$$$$$$$$$$$$$$$$$$$$$$$$$$$$$$$$$$$$$$$$$$$$$$$$$",
"$$$$$$$$$$$$$$$$$$$$$$$$$$$$$$$$$$$$$$$$$$$$$$$$$$$$$$$$$$$$$$$$$$$$$$$$$$$$$$$$$$$$$$$$$$$$$$$$"
};
