/* XPM */
static char *head_1[] = {
/* columns rows colors chars-per-pixel */
"96 96 17 1 ",
"  c #1B1B1E",
". c #646365",
"X c #A5C262",
"o c #A4C263",
"O c #A5C263",
"+ c #A4C363",
"@ c #A5C363",
"# c #C0D470",
"$ c #C1D470",
"% c #C0D570",
"& c #C1D570",
"* c #C1D471",
"= c #C0D571",
"- c #C1D571",
"; c #878289",
": c #B9B6BA",
"> c #E8EEAA",
/* pixels */
"%%**&&&&&&*****&*O----------%%%****%***@------&&----------&***&&---$-$***&**------------------&&",
"%%@*&-&&-&--**&***----------*%***%******@&----&&----------&&**&&--*-$*****&&----------&&-*------",
"-@---&&-&---&**&**$%----**--%%%%%**%--**$&*&----&&------****%%%%-----$$*%%&&--@-----&&-&**O$----",
"-----&&-----&&&&$%$$----***-%%%%%*%*----$$$*----&-&------*-%%%%%----$****&&&--------&&&&***$----",
"------------*$$$%%%%&&&&***%*%&&&*&&----%*%*%%&&&&****--*%%%%**%--------**&&*@--**$-$&-$%*%%*%%*",
"------------$*%X&&%%&&&&***%*%&&%&&&----%%%*%%&&*$*X----O*%*%***-----@--***&----*$$$$--&**$$%***",
"------------**%%&&**&&$$&%%%**%*%*------%%*%%*&&&&**----****%**%--------&$&&----*&$$---&*%%%**%%",
"-------------*********&&&&%%%**%**-&----%****%&&****----***%%***-------&&&&&----*&$$-$-$%*%%**%%",
"**--------&&&&&&-------&**&&--&&***%O%%-----%**&--&&------------$&@---&&*O%%***%&**%--------***&",
"*---------&&&&%%----&-&-***&$$--%%**OOO-----**&&*--&------------$$----&-*%%OXX%%*XXX--------***&",
"**---------&%&**-----&&-&&&*&$--%%%%OOO*----*-&*-*&-&-&@----&&-&&*&&----**%O@O%%%@XOX-*%----%%%*",
"-------O-&&-%&**-----&--&&****--%%%%OOO*----*%&***---&&&----&*--**&&-&-&--%O@O%%%@OO*%**----%***",
"-&&&**%*%%%%%***--------&&*&----%X@O%%*%--**--%****&$$$&&&&&%*&*%**&--------%*XXX%***%**--&&-&**",
"&&*&******%*%%&*-------@&&*&----%XX@%%**--**--%&**&&$$$&%&&**-&&%&&&--------*%XXO%%*%%**--&-&&%%",
"$$$%%*%***-*-%&&--------****----%XOO%%%$-----&*&&&&&%***%*%*%&*&&&-&--------*%XXX%%%**%*----&%%%",
"$$%*%%**%%-%-%%%-------@**&&----*XO@%%%%--%%&-&&&&&&%***%%*%%&&&&&&*&-------*%%*%%%%*%*%----&&%%",
"%$******-&&-&&$$$****%**$$$$$---%OOO%$%$%%*%**%%&%*%------&&&&--&-&--&&&&&%%*&&%&&--------------",
"%%*$O%**-&&-$$&$***%%**%&&$$-*--%OXO****%****%*%&&*%-------&&&&&&&&&-&&&*&%%&&&%--&-----&-------",
"%%$$----&&--@XX$*&&%&&**$&$$$---%%***%%**%%%%*%%*%%*--------$-&&-----***%**%&*-&&--&----&-----**",
"%%$$-----&&-@@X$&&%*%&&&$$$$@---$$%$*****%%%**$%*%*%@-----&-$$&&&-----*****%-*&&-*&&&-@&-&----**",
"**&*--------@@@---**%**%--$-----$**O$$%%**%****%**-------***$$$$&&@-**--**-----&*-*-&&&&-&&*%*%X",
"*%&&----------@@@@***%**---&----*%--$*%**%$%**&&&*-----&-***$$$$$$--&**-**------*--*&&&&-&&**%**",
"*&*&-----------@@@**X***------------%*$%$$%%**%%&**-------$O$&$&&&*&*&--**------*&*-&&%&&*--%%*&",
"*%&*----------&@@@%%%***------------*$%$%$%%**%&*$*@---&--$$$&&&&&*&&*--X*------&*-***%*&&&*&**&",
"&$$X$@---&&&---@@@----&&-***--@@O-**%***@---&&&&&&**--@$--&&$$$@&&&&&$----@$**--%*$$$---$$$---*&",
"&&**$$---&----&@@@----&&-***@*@@O---%*$*$$--&&&&&&**---$--&&$$----&&$$&&---$***-**$$$@--$$@-&-**",
"--**$$&&&&**@-*XXO%%@-$&&&&&--@@@-----$@$$&&-***&&**&&$$--&&&&------@--&&&$$&&&&%%%*--&&&&**&--*",
"---*&&&*&***$$$&*%%%$$$&&&*X@@------&---&&&&-***$$--&&**--&&-&&--------&&&$&&&&&%%%%*-&&&&&*&&-*",
"--$@--**&&-&&&&&*%--&&&&$$&@@@-----@&--*****$&&&$---%%%***%%-****---&&---***@-----&&**&&&--*&&**",
"--&&--**$$---&&&*%--&&&&$$@@@@--&--$&&**--**$&&&$@--%%%%***X**&**X--&&----**$$--*-&&**&&&&-*&&&*",
"&&&&-&&-$$@-***&*$$--***@--@@@--&&$$&&**&&--$$***-&&**---@XX&&&XX@**--@-$$&&$$&&**--@$&$-&-@$$**",
"&&&&-&&-$$--***&**$@-***---@@@---&$&&&&*&&---@***-&&-----@XX&**XXX***-$$$&&&$&&&**---$$$---$$$--",
"&&&*&---**-&$$&&&***--$$---OXX$$-*$$$---@---&&&&&$$$&&&$$X@@--@@@@---*$$$------&&&&&&$$@*&&&&$&-",
"$&&*&--@*--&$$$&&**--@$$----*$$$**$&@-&-$$--&&&&&$-@&&&$$*&&@@@-&&--**$$@-&-@$--&&&&&$--**&&$$&&",
"$$**&&$$**&&@-&&&&----&$%*%%*X&&*&&&**&&$$&&-***&&--***-@--&@@@--&-@&$$$**&&$$&&-***&&--**&&$--&",
"$$*---$$&&----**$&&&&&&&**%%%%&&**&&*--&&&&&-***&&--***----&@@@----$&$$$*-&&&&&&****&&&-*--&@---",
"@---&&&$&$$$---*$$@-***&*%%****&*                              -&&&$&&--**----**&&---***---&**&&",
"--&&**&&&&$$&&**$$--*-*&%%**--***                              -&&&$&---**@$&-**&&&-****@$--*-&&",
"**&&**-&&-@-&&---&----&---$$&-&-*                              -****&&$@&&&$&&-*-*--$&&&&$&&**-&",
"*---*--&&------@-&&&&&&--@$$&&      ;;;::::::::::::::::::;;;      ***-$$&&&$&&****@$$&&&&&&&**--",
"**---&&&&&&--*$$-*$$@---&&&$$$      ;;;::::::::::::::::::;;;      -&&&&&-&&&&&&***&&**&&&$$@$$$-",
"&&-@-&----&-**$$**$$--&&&*&$@$      ;;;::::::::::::::::::;;;      &&*-&&*&&-&&&***&&**&&&$--&&@-",
"&$$$&*-*--$$*&&$*&&$**&&**----   ;;;::::::::::::::::::;;;;;;;;;   --***&**--$$**-@&&**&&&&--&&**",
"&&$$&***-@$$*&&&*&&&*---**-&--   ;;;::::::::::::::::::;;;;;;;;;   --***&**--@$**-$$$*-&&&&&-&&**",
"&***&$$$&&&$--$$**-&*&&&---&**   ;;;::::::::::::::::::;;;;;;;;;   $@**-&*&&&&&&*--**&&-&-*$$$@**",
"&**-&&$$**&&-@$$*--&*&$&--&&**      :::::::::::::::      ;;;;;;   $$***&*&&&&-&-&-**&&--**&&--*-",
"&&--&-@-**-&--&$**&&--$$$@$&*&      :::::::::::::::      ;;;;;;   &&**&&--$$--$$&&-*&$$-**&&-&&&",
"$&&&&---*--&&&&&&&---@$$$$$&&&      :::::::::::::::      ;;;;;;   &&&&&---@$--@$&&**&$@-**&&--&&",
"$$@-$$@---&&&$$$$@---&&&&$$$--         ;;;;;;;;;         ;;;;;;   $@--***&&&&&&&--$$**--$&&&&&--",
"$$--$$--&&**&&$$$$--&&&*&$@$-&         ;;;;;;;;;         ;;;;;;   $$--***&&&**&&--@$**-&$&&*&---",
"-&--&$&*&--*&-@-$$&&&-**&&--&&         ;;;;;;;;;         ;;;;;;   &&-&&*--$$**-&-&$$*&&&$$**&-$@",
"-&&&&&&*&-**&---&&&*--**&---&-         ;;;   ;;;         ;;;;;;   &&&&&---@$***&&&&&&&&-@$**--$$",
"-*$$@-**&---&--*--**$&&&&-$$$$         ;;;   ;;;         ;;;;;;   *&&&---&&&&&&&&-**$@-----&&&&$",
"**$$--*-&--@&-**-&**$&&*--&&@$         ;;;   ;;;         ;;;;;;   *&&---&&**&&&---**$$----&&&*&$",
"*&&$-&&-&&$$&&**&&--$$*****&--   :::::::::::::::::::::;;;         **&&$@&***$@--$&*&$$&&**&-**--",
"*&&&-&&---$$$&&&&---@$****&&--   :::::::::::::::::::::;;;         ***-$$&-**$$--$&&&&&&***--**-&",
"&---&***-*$$@---&&&$$$--**-&$$   :::::::::::::::::::::;;;         -&&&&&$&&&&&--$$---&&&***&&&&&",
"&--@&**-**$$--&&&*&$@$-&*--&$$      ;;;:::;;;:::;;;            ---&&*-&&$&&&&&&-$>>>-&->>>&&$$&-",
"&&$$&&--*&&$**&&**-----&**&&@-      ;;;:::;;;:::;;;            ---$&***&$@**-*--@>>>**->>>*-$@--",
"--$$$&&&*&&&*---**-&--&&&&----      ;;;:::;;;:::;;;            -@$$&***&--****@$->>>**->>>*-$$--",
"-***---&**-&*&&&---&**--&$$$&&&&-   ...   ...   ...      -**-$$***&&-@$&-&&&&&&$---@>>>*-&&-***-",
"**&&-@-&*--&*&$&--&&***-&&$$**&&-   ...   ...   ...      @$*-$$$**&&-$$&--&&&&$$&--$>>>&--&&&**-",
"$$&&$$&&**&&--$$$@$&&&&&&-@-**-&&   ...   ...   ...      -**$$$$**&&--&&**-**&**&&$$>>>&--$$&&&-",
"$$$&$$$&&&---@$$$$$&&>>>&---**-&&                        -**$$$$*-&&&-&&*******--&$$$&&&@$$$&&&&",
"@-***&&&-&&---$$$---&>>>--$$$---$                        **&&&---&&&$$$$---***---&&&&&&--*$$@---",
"--*-*&$&--&&**$$@-&-&>>>**$&@-&-$                        -**&&--&&&&$$-@&&**&&-@-&----&-**$$--&&",
"-&&---$$--$$*&&&&&>>>&--**&&*-&&$$&&$------&$$&&$------&----$$$--**&&&--&&--&$$$&*-*--$$*&&$**&&",
"-&&--@$$@$$$**&&-&>>>&&-**&&*-&&&&&*$@--*-&&$$&&$@--*-&&&&&-$$$@--**&------@&&$$&***-@$$*&&&*---",
"--$$-&&&&&&&-&&--->>>&--*-&&**&&---*$&&&**@---*&--&&*&&&$$@--&--&&---***&$$$&---&&&&&&&$**-&*&&&",
"-@$$-&--&>>>-&&-**>>>&@$*-&&**&&&&**$&&*&*$$--***-&-**&&$$---&&-&-----&*&&$$&--@$&----&&*--&*&$&",
"--&$&*-**>>>-*--*&>>>&$$**-&-@&$-&--$$**&&$$-&-***--@$$$$$&&-*----@-$$&&&&**&&$$$$@--**&**&&--$$",
"&&&&&****>>>**-@**>>>&$$**---$$$---@$$*-&&$$&&--&*---$$$&&&***-@*-$$$$&&***---$$$$--***&&&---@$$",
"&--*---**&&&>>>$$$>>>***&&-&&&--&&&$$$--&&**--$$&&$$&&$$$---$$$$*&&&---**&&&&&&$**-&$$&&&&&&&--*",
"&-**&&***&$&>>>$$$>>>***&&--&&**&*&$$$&&&&**--@$&&$$&&$$$@--&&$$**&&&&**&&$$**&&*--&$$$&$&--&-**",
"&&**&&----$$>>>$@->>>&--&$$-&*****--@--&&$----$$--$$*&-----&&&**@$$$-&----$$**-&**&&@-&&$$@-&&**",
"$&&&---@-@$$>>>$--&&&&&&$$@-&*>>>*-&----$$-&&&&&---@***-*-&&&**--$$$---@-@$$*--&&&----**$$--$&&&",
"$$---*$$--&&>>>$-&&&---&**-&&$>>>--&$$&&$@--**&&-&&&$$&&**@--------***$$--&&&&-&&$$$---*&&&*$$@-",
"$$&&**$$&&**>>>&-&-&--&&**-&&&>>>--&$&&&$$--**&&&&&&$$&-&*$$--&&----&*$$&-&*$$--&&$$&&**$&&*$$--",
"@--&*&&$&--*>>>&**-*$@&&**&&--$$->>>$$**-----*&--**&$---&&$$>>>&-&>>>&&$&--*$$@-&-@-&&--$$**-&--",
"---&*&&&&-**>>>&&***$$$&&&&---@$->>>@$**-&&&-&&---**$@--&&$$>>>-&&>>>&&$&-**$$--&------@$$*--&&&",
"&&&*----**&&>>>&&&$$&&$$@-***&&&&>>>&-$$$@--$@--&&**--@$*-&&>>>&-&>>>$&&&---&***&--*---***---&&&",
"&&&*&--@**-&$$$&&&$$&&$$--*-**&&&>>>*-&&$$--$$--&&**---$*&&-$$&>>>&&$$$&&--@&**-&-**&&**&&-@-&--",
"$$**&&$$**-&@-&&&-@-*&**-&&---$$->>>**&&----$$&&&&**-&$$**--$$&>>>-&$@&&&&$$&&--&&**&&--&$$$&*-*",
"$$**-&$$&&----&&&---***--&&&-@$$->>>**&&*&&&&&&&$$-&&&&&**---@&>>>----**--$$$&&&$&&&---@&&$$&***",
"@---&&&&&&$$****&&&&$$&---$$-&&&->>>&&****$@--**$---**&&&&&&***&-***---*-***---&$$---*$$&***&$$$",
"--&-**&&&&$$*-**-&&&$$&&-@$$-&-&->>>&&&***$$--**$@--**&&&&$$***&-*&*&&****&&-@-&$$&&**$$&**-&&$$",
"**&&**&&--@-&&---**&@--&--&&**-*->>>&$**&&&$-&&**--&**&&--$$&---$$&&&&--$$&&$$&&@--&*&&$&&--&-@-",
"**-&**-&&---&&&-****---&&&&&&***-@$$$$--&&&$-&--*&&&-&&----@&&&-$$&&---@$$$&$$$&---&*&&&$&&&&---",
"**---&&&&--***----$$**&&&&&&$$@-*&&&&$&&&&--&&****@----&&-****--$@***&&&$$@---&&&***--$$$$---***",
"&&-@---&&&**&*@$-@$$*--&-&&&$$--**&&$$&-&---&&&***$$--&&&&**&&-@----**&&$$--&&**&**--@$$$$&&**&&",
"&&$$&***&&--&&$$--&&**&&-**&&&--**&&$-----@-&$**&&&$**---&--&&$$-&&--@$$&$&*&--*&&----&$@--&$$&&",
"&&$$&***---@&&$$&&&&&*--****-&&&--&-$@--**$$$$--&&&&&***---@&&$$--&&-$$$&&&*&-**$&&&&&&&---&$$$&",
"&***&&$$&&$$&---&--*$$@-&&&--***@---*-&&*&&&---&***-&&&$&&$$-----@$$-&&&---*&&&*$$@-***&$$&&@---",
"&***&&$$&&$$&--@&&**$$---&&-**&*$$--*-&-**&&--&&&**-&&$$&&$$&--@-$$$---&&&**$&&*$$--*-*&$$$&--&&",
"&&&---@-*&**&&$$&&**&&**-*--$$&&$$&&**--@$&$@-$$&&&&--$$&&**&&$$--&&**--&&--$$**-&----&-@-&&**&&",
"&&&&&---***--&$$&&&*&&&***-@$$&&$&&&&*---$$$$$$&&&&----@****-&$$&-&&&***---@$$*--&&&&&&---***---"
};
