/* XPM */
static char *head_4[] = {
/* columns rows colors chars-per-pixel */
"96 96 15 1 ",
"  c #1B1B1E",
". c #646365",
"X c #A5C262",
"o c #A4C263",
"O c #A5C263",
"+ c #A4C363",
"@ c #A5C363",
"# c #C1D470",
"$ c #C1D570",
"% c #C0D471",
"& c #C1D471",
"* c #C1D571",
"= c #878289",
"- c #B9B6BA",
"; c #E8EEAA",
/* pixels */
"$$o$******O*****$##$&#&&$&$@$$$$$$$$%**********$#&&$***$&&$$$***************&$&$$$$$$*********$&",
"$$$$******&&****&$#&$#$$&$**$$$$$$%$$o******$$###&&&****$&&&@***************$$$&$&$$$*********&&",
"**$********&****&&&&$$&&****$$&$$$$%*********$*#$&$$****&$&&****************$$$&$$$O**********&&",
"****************$&&&$$$$****&&&&$$$%*********$$$$$&&****&&&&*****@**********$&$&&$$$**********&&",
"**&$**@*#*&&****####**********&$$%%$***%********$$$*****$$$$**************$*$$$&$&&&****$$$*#$&&",
"**$*$%&&&#$#******##*********&&&%%$$***%********$$$$****$&$$****@$**%*****$**$&$$&$&****$#@*&$&&",
"****$%*&##*&******$$*$*******&&&%%$$******@*****$$&$****$$&$&&**$$&&&$*%***$*##&$$&$*$**&#&$$&&&",
"**$*%$&$$&$*****#$$$*$*******&&&%$$$************$&O$*****$&&&&&&&&$&$&%*****$*&&@$&*****&$#$&&$$",
"****######********@*****#$$*****%%%$O$$$$*******$$$&&&***$******&$o$****&&$$&$$&*******$$@**$*$*",
"****$###&#**************#&$$****$%$%OOo$*****@**$$$$&&&**$******$$$$****&&@@@@$&*@@@**$$$$**$*$$",
"****$$&##$$*************&&#&****$$%%oOo$****$$$$$$$&&&***$$*****$&$$****&$&@@@*&*@@@********$$**",
"****@$&&$$$X************&&&*$$**$%$$Ooo$****&$$$$$$&$&**$$o*****$$$$****$$&@O@***@@@********$$**",
"****&$&$$$*$********&&#&&&&&****%oo@&&$&**$**$&&$&&$******$$****&$&$****$$****@@@************$$$",
"****&$$$$$$*********$$$&$$$$****$ooo$$&$**&$&&$$&&$&*****@$$****&$$$****$$****@@@***********$*$$",
"$$**$$&$#&*$******$&$$&&$$$$****$o@o$$$$***$$$&$*@&&*******$$**$$&&&$*********@@@***********$$*$",
"$$**$&&&$&*******@$$$$&&$$&&****&oOO$$$$***$$$$&***@******$$$*$*&&&*$$**********@***********$***",
"*$&&$$$$*******************$*$***XXX*$******%%*$****$$**$$*******$$*$$*%$$$&*****$$*****&$&&$&&*",
"$$&&$$****@****************$$$X$*XXX***$@***%**$****$$$**********$$$$*$$%%&$$$***$$*****&&$&$&&*",
"#&&&****$@$$@@@*****$********$$$*$*$********&&$$****$$$$$$$*****$***$*$$**@*$$&&*$$*****&$&$$&**",
"#&$@****$&&$@@@*************$$$*$$$**$*****@&$$*********$*X*****$$**$$$$****$$$@$&*$*$**$$$$$$**",
"&*$&*$**$$$&@@@$&$&&*$*$********@***********&$$$******$$&##**$$$****&&&*******$$$&&$****$$$$****",
"&$$$$*$$$$&&*$$@@@$$*$*$********************$&$*******$*&*$#*$$$****$$$*****&*$&$*$$****$$$$****",
"&&$$$&$$**&**$$@@@&&&&$*******@*************&&$&********$$#*#$$***o$&$$*****&&&&%$*****o$$$$$*$$",
"&$&&&&$*$$$$$*$@XX&$$&*$********************$$$$*******$####*$$$$$$&$$&$****&&&&$$$%***%$*$$$$$$",
"&&$$$$$&&$$$&&&@XXO&##O$$$****@@@*&&&###$$@&$$&&&$$*&&$$##$$$$$$&&&$$$$$$$**O#&&%%****$$$**$$$&&",
"&&&@&&$@&&$$&&$@XX$&&&$$$$***@@@@*&*####$&&&$$$$&$$$&@$$##$$$$&&&&&O$$$$$$**$#&&&%****$$$$*$&&&@",
"$$&$&&$$$$$*$@&@oo$$&&$$&&**&&Oo@*&&&&##&&&$$**$&&$$&&&$@&&&$$&&$&**$***$&**$$&&&$$*&&$&$$&&&&&$",
"*$$$&&$$$$**$$$&**$$&&&$&&&oOO&$**&&&&O#&&&$$$*$&&$$$$&&&&&&$$&&$$**$***&&$$$$&$&o$*&&&&$$&@&&$$",
"**$$$$**&&&$$$&&**&&O$$$&&&@@@$$&&$$&$$$$**$&&&$&$@&**&&&&&&@&&$$$$*&&$$&&##**$$&&&&#$$$&&&$$$&&",
"**&&&@*$&&&&$$&&**&&$$**$$&@@@$$$&@$&$**$$*$&&&$$$&&**&&$&&&&&$$$$$*&$$$&&$O**$$&&&$#O$$&&$$$$&@",
"*$&&&$$$&$$&$*$$*$$&$***$#@@@@&&$$&&&&*$$$&&&$$$$$$$$*$$@@@@*$$@@@O#&&***$$$**$$##$$**$$&&$*$$$$",
"$$&&&&$$&$$@**$$**$&$$**$$&@@@&&$$&&&$$$$$&@$$***$$$$$$$&@@@*$$@OO$#&&***$$$$$$$$O$$****$$$**$$&",
"&$$*&&$$$$$$&&&$$*$$$$&&$$&@@@$*$$$$$$&&&&&&&$$$@&&&$$$$$@@@$$*@@@&&&&$**$$&$$$&&&$$$***&&$$$$&&",
"&$$*&@$&*$$$&&&$$**$$&&&$$&@&$$**                              *&$&&$$$$*$&&**$&&&$$$$$$&@$$*$&&",
"&&$*$$&&**&&&$$$$$$$@&&&$$$$&&$**                              *$$*$@&$$$$&&$*$$&$@&&&$$$$&&*$$&",
"&&$$$$&&$$&@$$**&&$$&&$$*$&&&&$$*                              &$**$&&$$$$&&$$$$$$&&&&&&$&&&*$$&",
"&$$@$$$&$&&&$$$*&&&$$$*$*$$&$$      ---------------------===      $$&&&&@&$$$$&&&&&$&$@&$$$&$$&&",
"$$&&**$&$&&&$$$$&&$$$$*$**&&$$      ---------------------===      $$&&&$&&**&&&@&&&$$$&&**$&$&&&",
"$$&&$*$$&&&$&&$$$$@&$$&&$$&&&&      ---------------------===      &&$$$$&$$$&&&$&$$$$$$$$*$$@&&&",
"$$$$$$$$&@$$&@$&$$&&$&&@$$&&&@   ---------------------=========   $&@$$*$$$$&&$$$$***$$$$$$$&&$$",
"$*$$$&&$&&$$$$&&$$&&&$@&$$$&&&   ---------------------=========   &&$$**$$&&*$$$@&$$&&$$$***$**$",
"$*&&@&$$&@$$*$&&*$&&$$&&**$&&&   ---------------------=========   &&@$$$@$&&*$$$&&$$&@$$$$$$$$*$",
"$&&&**$$$$&&*$$&*$$&$$$$$*$$&$      ---------------      ======   &&&$$$&&&&*$&$$*$$$$&&&&$$$$&&",
"$$&&$*$$$&&&*$$&*$$&*$$$$$$$$$      ---------------      ======   &$&&$$$&&$$$&&$**$$&&&&&&&$$&@",
"**$$$&&&$$$&$$&&$$$$*$$$$$@&$$      ---------------      ======   *$&&$$$$$$&&$@$$&&$$&&&$$***$$",
"$*$$$$&&**$&$&&&*$$$*$&&$&&&*$         =========         ======   $$$&@$$$**&&$$&&&@$$$$$$$$$$$&",
"$$$$&@&&$*$$@&&&**&&$$&&&&&$**         =========         ======   *$$$&&&&*$&&$$&&&$$**$@&$$$&&&",
"&$$&&$$$$$$$&&$$$$&@$&&&&&&$$$         =========         ======   *$$$&&&$$$&$$*&&$$$$*$&&$$$&&&",
"&&&&&&&$$@*$$&&&&&&$@&$$$&&&$$         ===   ===         ======   *$$&&$$$$$$$$*&$$*&&$$$$$$&&&$",
"&&$$&&&$&&**$$&&&&$$&&**$&&&$$         ===   ===         ======   $$&&&&$$**$$$*&$$*&@$&*$$$&&&$",
"$$$@$&**&$$$&@&&&&$*$$$*&&&$&&         ===   ===         ======   *$&&$@&&*$&$$$&&$*$$&&**&&&$$$",
"$&&&$$$*$$$$&$$$$$$*$$$$&@$$&@   ---------------------=========   *$&&$$&$$$&&@$&&$$$$&&$$&@$$**",
"$$&&&&$$&@$&&$$$$$$*&$$*$$&&&&   ---------------------=========   $$&&&&&&$$$$&&&$@&$$$&$&&&$$$*",
"$$&&$$$$&$$&$$$$$$$$&$$*$$$$&&   ---------------------=========   $$&&&$&&$$**&&$$&&**$&$&&&$$$$",
"*$$&$&&$&$&&$$**&&$$&&$*$**$&$      ===---===---===               &&$$$$$@&$*$$&$$$$$*$$&&&$&&$$",
"**$$@&$$$$&&&$$*&@$&&&$$$$*$$$      ===---===---===               $&@$$*$$&&$$&&*$$$$$$$&@$$&@$&",
"&@$&**$$$$&&&$$@$$$&&&$$$$$$&&      ===---===---===               &&$$****$$$&&&**$&&&&&&&$$$$&&",
"&$$&$*$$$$&&&$&&**$&&&$$$$$&&&&$*   ...   ...   ...            &&&&&@$$$$*$$$&&&$;;;&&$;;;$$*$&&",
"&$&&$$$$*$$&$$&$$*$$&$@&**&&&&$$*   ...   ...   ...            &$&**&$$$$$$$$@$&$;;;&&$;;;@$*$$&",
"$$&&&$$&**$$$$$$$$$$$$&&$*@$$$$**   ...   ...   ...            &$$$*&&$$&$$&&&$$$;;;&@$;;;&$*$$&",
"$$**$$$&$$$$*$$$$$@&*$$$$&&&$$$*&                        &$$&$$$$$$$$$**&&&&$$*$&&$$;;;$&&&$$&@$",
"$$$*&&@&$$$&**&$$&&&*$$$$$&&$$$*&                        &$$&&&@$&$$&$$*&&$$$$**&&&$;;;$&&&&$&&$",
"&&$$&&$$**&&$&&&&&&$*$&$&@&&&$$$&                        &**$$&&&&$&&&$$$$$@$$&@&&*$;;;$$$**$$&$",
"&&&$&&&$$*@$$&&&&&&$$;;;&$$$&&@$&&&&$$$$$$$$$$$&&&@$$$&&&&*$$$$$@$$&&&$$$&&&$&&$$$**$$$$$$*$$$&&",
"&&$$*$$$@&&$$$&&&$$$$;;;$$&&&$$$&&&$@&$$$&&&&&&&&$$**$$$@&&$$$&&&&$$$*$$$$$&&$$&&&&&&&&$$@*$$&&&",
"$$$$**&$$$&$$$&&&&&@$;;;$$&&&&&@&&$$&&**$&&&$$&&$$$$*$&&$$&$$$&&$&$$**$$&&@&$$$$&&$$&&&$&&**$$&&",
"$&&$$&&&&$&&$*$$$&;;;&@$$*$$$$&&&&$*$$$*&&&$$$$$@&$$$$&&&$&&$*$$$&&$&&&&&&$$$$*$$$$@$&**&$$$&@&&",
"@&$$$&&&&&&&**$$$&;;;&&$**$$$$$$$$$*$$$$&@$$***$&&$$$&&&&&&&**$$$@&$$&&&&&&$$$**$&&&$$$*$$$$&$$$",
"$&&&$&&$$$$$$$&@$$;;;$&$$$$&$*$$$$$*&$$*$$&&&&$$$$&&@&$$**$$&&&&&&&&$&&&$$*$&&$$$$&&&&$$&@$&&$$$",
"$&&&@&$$*;;;$&&$$$;;;$&&$$$&**$$$$$$&$$*$$$$&&$$$&&&&&$$*$$$$&&&$&&&$@$$$$**&&&$$$&&$$$$&$$&$$$$",
"$@$&**$$*;;;$$$$$*;;;$&&$*@&&&&&&&$$&&$*$**$&$@&@&&&$*$$$$$&$$$$$$$$**$$$$&@&&*$*$$&$&&$&$&&$$**",
"&&$$$*$$*;;;$$&&**;;;$&&**$$$&&&&@$&&&$$$$*$$$&&&&$$$**$$$$&&@$$&@$$*$$$$&&$$$****$$@&$$$$&&&$$*",
"&$$$$$$$*$$$;;;&&&;;;*$$$$@&&$$$$$$&&&$$$**$$$&&$$$$$$$**$$$$$$*&$$$$$$&&$$$$$$$&@$&**$$$$&&&$$@",
"$$$$$&$$**&$;;;&&&;;;**$$$$$&$$$**$&&&$$$**$@$&&$$*$$$$$*$&&$$**&$$$$&@&&$$$$&$$&$$&$*$$$$&&&$&&",
"$$**&&$&$&&&;;;&&&;;;$$$&&&$$*$*$*$$&$@&$&$$&&&&&$**&&$$$$&&$$@$$$$*&&&$$$$*&&$&&$&&$$$$*$$&$$&$",
"&$$*@$$&$&&&;;;&$$&$$$$$&&&&$*;;;$$$$$&&&&$$$&&$&$$$&@$&$&&&&&&$$$**&&&$&$$*@$$&$$&&&$$&**$$$$$$",
"&&$$$$&&$@*$;;;&$&&$$$@&$$$$$&;;;@&$&&$$&&$$***$&&$$$$&&@&$$$$&$&&@&&&$$&&$$$$&&$$**$$$&$$$$*$$$",
"&&$&$$&&&&**;;;$@&$$$&&&*$$$$&;;;$&&&$$*&&@$$$$$&&$$*$&&&&**&&&&&&$$$$**&&$&$$&&$$$*&&@&$$$&**&$",
"&$$&*$$&&$$$;;;$**$$&&&$**&&$$&&$;;;&&**$$&&$$&&&$@&*$$&$$$*;;;&&$;;;$$*&$$&*$$&&&$$&&$$**&&$&&&",
"&$@&**$$$$$$;;;$$*$$&&&$$$&@$&&&$;;;&&$$$$$&$$$&$$&&*$$&$$$$;;;&&&;;;$$$&$@&**$$&&&$&&&$$*@$$&&&",
"&$$*&&$$$$$$;;;&$&&&$&&&&&$$*$$$$;;;$$&&&&$$&&$@$$**@$&&$$$&;;;&$&;;;*$$&&$$$$&@&$$@$$$&&$$&&&&&",
"&$$*&@$&*$$$&&&&$$&&$$&&$$$$**&$&;;;$$&$&&@$&&$$$$*$&$$&$$$&&&&;;;&&**$$&&&$$&&$&$&&&&@&$$$$&&$$",
"&&$*$$&&**&&&$$&&@&&*$$$$&&$$&&&&;;;$**$$$&&&&$$&&$$&&&&$*@&&&$;;;&&$$$$&&*$$$$$$$&$&&$$$$*$$$$@",
"&&$$$$&&$$&@$$$$&$$$**$$@&$$$&&&&;;;$*$$$$$&&$$*&&$$$$&&**$$$&$;;;&&$$$&$$**$$&&$$$$&&&$$$**$&&&",
"&$@&$$$&$&&&$**$&$$&&&$$$&&&$&&$@;;;$$**$$&&$$**&$$$**$$$$&&$**$$&&&$$$&$&&$$&&&**$$$@*$$$&@$$**",
"$$&&**$&$&&&$$**$$$$&&$&$&&&@&$$$;;;$$*$**&&@$$$&&&@*$$$$$&&$$*$$@$$&&@&@&$$$$&&$*&&&&**$&&$$$$*",
"$$$$$*$$&&&$$$&@$$*$&$$&$@$&**$$$;;;&&$$*$$&&$$$$$&&$$$&@$&&$$&&**$$&&$$**$$*$$$$&&&&$$$$$$$&&$$",
"*$$$$$$$&@$$$$&$$$**&$@&&&$$$*$$$&&&&&$$$$&&&&$$$$$$$$$&&$$&$$&@*$$$&&&$$*$$**$$$$&&$$$$$$&&&&&$",
"**$$@&$$$$$$**&$$&&&$$$$&$$&&&&&**$$&&$$$&@$$$**$*&$$&&&$$$***$$$$@&&$$$*$$&&&$$$$&@$$****$$$&&$",
"$$$&&&$$$&$$$*&&$&&&$$$&$$$$&&$$*$$$&&&&$&&$$$*$**&&$@$$$$$$$$$&$$$$&$$$**$$&&$&$&&$&$$*$*&&@&$$",
"$&&&$*$$&&$&$$&&$@$&**&&$$*$$$$@$$$&&$$&$$&$&&$$$$&&**$$&&$$$&&&&&&$$$$*$$$$&$$&$$$$&&$$$&&&**$$",
"$&&&$**$@$$&$$&&&&$$$*@$$$**$&&&$$$&&&$@$$&&&&$$$$&&*$$$&@$&$&&&&&&&$$**$$$&&$@&$$&&&&$$$$&&$*$$",
"$*$$$&&&$&&&&@$&&$$$&&&$$$&@$$**&$$&$$$&$*$$@&&$**$$$$&&&&&&&&$$$$**&&&&$$$&$$$$*$$$&&&$**$$$&&&",
"$**$$&&&$$&&&$$&$$$$&&&$$&&$$$$*&&$@$$$&**$$$$&$*$$$$$&&$$&&&@$&$$*$&&$&&&@&$$$&**&$@$$$$*$$$$&&",
"$$$$&&&$*$$$&$&&$$**$&**$$$$&&$$&&$$$*@&&&&&&$&&$$$$@$&&$$$$$$&&&&$$$&$$&&$$**&&$&&&$$&&$$$$&@&&",
"&&$$&@$$**$$$$&&&$$*$$$*$$&&&&&$&&$$**$$$&&&&&&&$$&&&$$&***$$$&&&&$$$&&@&&&$$*@$$&&&&&&&&$$&&$$$"
};
