/* XPM */
static char *idle_2[] = {
/* columns rows colors chars-per-pixel */
"90 90 41 1 ",
"  c #4E4D5C",
". c #5C6D77",
"X c #6E7A80",
"o c #9A7880",
"O c #73838C",
"+ c #7B888F",
"@ c #728794",
"# c #7C8990",
"$ c #988B92",
"% c #8A959A",
"& c #8A98A0",
"* c #8B99A1",
"= c #919CA2",
"- c #909FA7",
"; c #979DA5",
": c #98A2A7",
"> c #93A1AA",
", c #98A4AA",
"< c #9BAAB3",
"1 c #A6AFB4",
"2 c #A3B1B9",
"3 c #ABB7BF",
"4 c #E6A3A3",
"5 c #A7B8C2",
"6 c #D6BFC1",
"7 c #B1C4CB",
"8 c #BBC5C9",
"9 c #BAC4CA",
"0 c #B7CAD0",
"q c #BDCCD0",
"w c #C3D3D8",
"e c #C6DBDE",
"r c #CCDBDF",
"t c #D4D2D3",
"y c #E3C8C8",
"u c #D1E0E2",
"i c #D3E4E6",
"p c #D7E7E8",
"a c #D9E9E9",
"s c #DFEDED",
"d c None",
/* pixels */
"dddddddddddddddddddddddddddddddddddddddddddddddddddddddddddddddddddddddddddddddddddddddddd",
"dddddddddddddddddddddddddddddddddddddddddddddddddddddddddddddddddddddddddddddddddddddddddd",
"dddddddddddddddddddddddddddddddddddddddddddddddddddddddddddddddddddddddddddddddddddddddddd",
"dddddddddddddddddddddddddddddddddddddddddddddddddddddddddddddddddddddddddddddddddddddddddd",
"dddddddddddddddddddddddddddddddddddddddddddddddddddddddddddddddddddddddddddddddddddddddddd",
"dddddddddddddddddddddddddddddddddddddddddddddddddddddddddddddddddddddddddddddddddddddddddd",
"dddddddddddddddddddddddddddddddddddddddddddddddddddddddddddddddddddddddddddddddddddddddddd",
"dddddddddddddddddddddddddddddddddddddddddddddddddddddddddddddddddddddddddddddddddddddddddd",
"dddddddddddddddddddddddddddddddddddddddddddddddddddddddddddddddddddddddddddddddddddddddddd",
"dddddddddddddddddddddddddddddddddddddddddddddddddddddddddddddddddddddddddddddddddddddddddd",
"dddddddddddddddddddddddddddddddddddddddddddddddddddddddddddddddddddddddddddddddddddddddddd",
"dddddddddddddddddddddddddddddddddddddddddddddddddddddddddddddddddddddddddddddddddddddddddd",
"dddddddddddddddddddddddddddddddddddddddddddddddddddddddddddddddddddddddddddddddddddddddddd",
"dddddddddddddddddddddddddddddddddddddddddddddddddddddddddddddddddddddddddddddddddddddddddd",
"ddddddddddddddddddddddddddddddddeeeeddddddddddddddddddeeeedddddddddddddddddddddddddddddddd",
"ddddddddddddddddddddddddddddddddeeeeddddddddddddddddddeeeedddddddddddddddddddddddddddddddd",
"ddddddddddddddddddddddddddddddddeeeeddddddddddddddddddeeeedddddddddddddddddddddddddddddddd",
"ddddddddddddddddddddddddddddddddeeeeddddddddddddddddddeeeedddddddddddddddddddddddddddddddd",
"dddddddddddddddddddddddddddeeee64444eeeeddddddddddeeee44446eeeeddddddddddddddddddddddddddd",
"dddddddddddddddddddddddddddeeee64444eeeeddddddddddeeee44446eeeeddddddddddddddddddddddddddd",
"dddddddddddddddddddddddddddeeee64444eeeeddddddddddeeee44446eeeeddddddddddddddddddddddddddd",
"dddddddddddddddddddddddddddeeee64444eeeeddddddddddeeee44446eeeeddddddddddddddddddddddddddd",
"dddddddddddddddddddddddddddeeee64444iiiipddddddddpiiiiyyyyteeeeddddddddddddddddddddddddddd",
"dddddddddddddddddddddddddddeeee64444ssssssssssssssssssssssieeeeddddddddddddddddddddddddddd",
"dddddddddddddddddddddddddddeeee64444ssssssssssssssssssssssieeeeddddddddddddddddddddddddddd",
"dddddddddddddddddddddddddddeeee64444ssssssssssssssssssssssieeeeddddddddddddddddddddddddddd",
"dddddddddddddddddddddddddddeeee64444ssssssssssssssssssssssieeeeddddddddddddddddddddddddddd",
"dddddddddddddddddddddddeeeessssssssssssssssssssssssssssssssssssssssddddddddddddddddddddddd",
"dddddddddddddddddddddddeeeessssssssssssssssssssssssssssssssssssssssddddddddddddddddddddddd",
"dddddddddddddddddddddddeeeessssssssssssssssssssssssssssssssssssssssddddddddddddddddddddddd",
"dddddddddddddddddddddddeeeessssssssssssssssssssssssssssssssssssssssddddddddddddddddddddddd",
"dddddddddddddddddddddd70000wwwwussss;;;;8sssssssssssssssss8;;;;ssssrdddddddddddddddddddddd",
"dddddddddddddddddd5555555555555wssss    ;sssssssssssssssss;    ssssw5555dddddddddddddddddd",
"dddddddddddddddddd5555555555555wssss    ;sssssssssssssssss;    ssssw5555dddddddddddddddddd",
"dddddddddddddddddd5555555555555wssss    ;sssssssssssssssss;    ssssw5555dddddddddddddddddd",
"dddddddddddddddddd5555555555555wssss    ;sssssssssssssssss;    ssssw5555dddddddddddddddddd",
"dddddddddddddddddddddddeeeessssssssssssssssssssss;    sssssssssssssddddddddddddddddddddddd",
"dddddddddddddddddddddddeeeessssssssssssssssssssss;    sssssssssssssddddddddddddddddddddddd",
"dddddddddddddddddddddddeeeessssssssssssssssssssss;    sssssssssssssddddddddddddddddddddddd",
"dddddddddddddddddddddddeeeessssssssssssssssssssss;    sssssssssssssddddddddddddddddddddddd",
"dddddddddddddddddddddd70000wwwwusssssssssssss;;;;$oooo;;;;8ssssssssrdddddddddddddddddddddd",
"dddddddddddddddddd5555555555555wsssssssssssss    o4444    ;ssssssssw5555dddddddddddddddddd",
"dddddddddddddddddd5555555555555wsssssssssssss    o4444    ;ssssssssw5555dddddddddddddddddd",
"dddddddddddddddddd5555555555555wsssssssssssss    o4444    ;ssssssssw5555dddddddddddddddddd",
"dddddddddddddddddd5555555555555wsssssssssssss    o4444    ;ssssssssw5555dddddddddddddddddd",
"dddddddddddddddddddddddeeeessssssssssssssssssssssssssssssssssssssssddddddddddddddddddddddd",
"dddddddddddddddddddddddeeeessssssssssssssssssssssssssssssssssssssssddddddddddddddddddddddd",
"dddddddddddddddddddddddeeeessssssssssssssssssssssssssssssssssssssssddddddddddddddddddddddd",
"dddddddddddddddddddddddeeeessssssssssssssssssssssssssssssssssssssssddddddddddddddddddddddd",
"dddddddddddddddddddddddddddiiiiasssssssssssssssssssssssssssssssddddddddddddddddddddddddddd",
"dddddddddddddddddddddddddddeeeeisssssssssssssssssssssssssssssssddddddddddddddddddddddddddd",
"dddddddddddddddddddddddddddeeeeisssssssssssssssssssssssssssssssddddddddddddddddddddddddddd",
"dddddddddddddddddddddddddddeeeeisssssssssssssssssssssssssssssssddddddddddddddddddddddddddd",
"dddddddddddddddddddddddddddeeeeisssssssssssssssssssssssssssssssddddddddddddddddddddddddddd",
"ddddddddddddddddddssssdddddddddd&&&&1111111111111111111111dddddddddddddddddddddddddddddddd",
"ddddddddddddddddddssssdddddddddd&&&&1111111111111111111111dddddddddddddddddddddddddddddddd",
"ddddddddddddddddddssssdddddddddd&&&&1111111111111111111111dddddddddddddddddddddddddddddddd",
"ddddddddddddddddddssssdddddddddd&&&&1111111111111111111111dddddddddddddddddddddddddddddddd",
"ddddddddddddddddddssssdddddddddd>>>>=========1111:%%%%%%%%dddddddddddddddddddddddddddddddd",
"ddddddddddddddddddssssdddddddddd<<<<+++++++++1111%XXXXXXXXdddddddddddddddddddddddddddddddd",
"ddddddddddddddddddssssdddddddddd<<<<+++++++++1111%XXXXXXXXdddddddddddddddddddddddddddddddd",
"ddddddddddddddddddssssdddddddddd<<<<+++++++++1111%XXXXXXXXdddddddddddddddddddddddddddddddd",
"ddddddddddddddddddssssdddddddddd<<<<+++++++++1111%XXXXXXXXdddddddddddddddddddddddddddddddd",
"dddddddddddddddddddddddssss@@@@@@@@@<<<<39998XXXX%1111&&&&O....ddddddddddddddddddddddddddd",
"dddddddddddddddddddddddssss@@@@@@@@@<<<<3999w..oX%1111%=&&O....ddddddddddddddddddddddddddd",
"dddddddddddddddddddddddssss@@@@@@@@@<<<<3899t.+.X%1111*%&&O....ddddddddddddddddddddddddddd",
"dddddddddddddddddddddddssss@@@@@@@@@<<<<3999w.O.X%1112**&&O....ddddddddddddddddddddddddddd",
"dddddddddddddddddddddddssss@@@@@@@@@<<<<23353%%%%=,,,,*%&&O....ddddddddddddddddddddddddddd",
"dddddddddddddddddddddddssss@@@@@@@@@<<<<<<<<<1112,&&****&&O....ddddddddddddddddddddddddddd",
"dddddddddddddddddddddddssss@@@@@@@@@<<<<<<<<<1111>&&%*%*&&O....ddddddddddddddddddddddddddd",
"dddddddddddddddddddddddssss@@@@@@@@@<<<<<<<<<1111,&&&&**&&O....ddddddddddddddddddddddddddd",
"dddddddddddddddddddddddssss@@@@@@@@@<<<<<<<<<1111,&&&*****O....ddddddddddddddddddddddddddd",
"dddddddddddddddddddddddddddssssq<<<<<<<<<<<<<<<<<>%***%**&dddddddddddddddddddddddddddddddd",
"dddddddddddddddddddddddddddssssq<<<<<<<<<<<<<<<<<>******&&dddddddddddddddddddddddddddddddd",
"dddddddddddddddddddddddddddssssq<<<<<<<<<<<<<<<<<>%****%%*dddddddddddddddddddddddddddddddd",
"dddddddddddddddddddddddddddssssq<<<<<<<<<<<<<<<<<>**%**%**dddddddddddddddddddddddddddddddd",
"dddddddddddddddddddddddddddddddddddd*&*&-ddddddddddddd%+##dddddddddddddddddddddddddddddddd",
"dddddddddddddddddddddddddddddddddddd#+#+ddddddddddddddXXXXdddddddddddddddddddddddddddddddd",
"dddddddddddddddddddddddddddddddddddd++++ddddddddddddddOXXXdddddddddddddddddddddddddddddddd",
"dddddddddddddddddddddddddddddddddddd++++dddddddddddddd.XXXdddddddddddddddddddddddddddddddd",
"dddddddddddddddddddddddddddddddddddd++++ddddddddddddddXXXXdddddddddddddddddddddddddddddddd",
"dddddddddddddddddddddddddddddddddddddddddddddddddddddddddddddddddddddddddddddddddddddddddd",
"dddddddddddddddddddddddddddddddddddddddddddddddddddddddddddddddddddddddddddddddddddddddddd",
"dddddddddddddddddddddddddddddddddddddddddddddddddddddddddddddddddddddddddddddddddddddddddd",
"dddddddddddddddddddddddddddddddddddddddddddddddddddddddddddddddddddddddddddddddddddddddddd",
"dddddddddddddddddddddddddddddddddddddddddddddddddddddddddddddddddddddddddddddddddddddddddd",
"dddddddddddddddddddddddddddddddddddddddddddddddddddddddddddddddddddddddddddddddddddddddddd",
"dddddddddddddddddddddddddddddddddddddddddddddddddddddddddddddddddddddddddddddddddddddddddd",
"dddddddddddddddddddddddddddddddddddddddddddddddddddddddddddddddddddddddddddddddddddddddddd",
"dddddddddddddddddddddddddddddddddddddddddddddddddddddddddddddddddddddddddddddddddddddddddd"
};
