/* XPM */
static char *idle_5[] = {
/* columns rows colors chars-per-pixel */
"90 90 42 1 ",
"  c #4E4D5C",
". c #5C6D77",
"X c #6E7A80",
"o c #9A7880",
"O c #7B888F",
"+ c #728794",
"@ c #7C8990",
"# c #8A959A",
"$ c #8A969D",
"% c #8A98A0",
"& c #919CA2",
"* c #979DA5",
"= c #98A2A7",
"- c #98A4AA",
"; c #9BA6AD",
": c #9BAAB3",
"> c #A6AFB4",
", c #A3B1B9",
"< c #ABB7BF",
"1 c #A8BABF",
"2 c #BDB3B6",
"3 c #E6A3A3",
"4 c #A7B8C2",
"5 c #AEBEC3",
"6 c #D6BFC1",
"7 c #B5C3C7",
"8 c #B1C4CB",
"9 c #BBC5C9",
"0 c #BAC4CA",
"q c #BCC8CC",
"w c #B7CAD0",
"e c #C3CED1",
"r c #C3D3D8",
"t c #C6DBDE",
"y c #CCDBDF",
"u c #D4D2D3",
"i c #E3C8C8",
"p c #D1E0E2",
"a c #D3E4E6",
"s c #D7E7E8",
"d c #DFEDED",
"f c None",
/* pixels */
"ffffffffffffffffffffffffffffffffffffffffffffffffffffffffffffffffffffffffffffffffffffffffff",
"ffffffffffffffffffffffffffffffffffffffffffffffffffffffffffffffffffffffffffffffffffffffffff",
"ffffffffffffffffffffffffffffffffffffffffffffffffffffffffffffffffffffffffffffffffffffffffff",
"ffffffffffffffffffffffffffffffffffffffffffffffffffffffffffffffffffffffffffffffffffffffffff",
"ffffffffffffffffffffffffffffffffffffffffffffffffffffffffffffffffffffffffffffffffffffffffff",
"ffffffffffffffffffffffffffffffffffffffffffffffffffffffffffffffffffffffffffffffffffffffffff",
"ffffffffffffffffffffffffffffffffffffffffffffffffffffffffffffffffffffffffffffffffffffffffff",
"ffffffffffffffffffffffffffffffffffffffffffffffffffffffffffffffffffffffffffffffffffffffffff",
"ffffffffffffffffffffffffffffffffffffffffffffffffffffffffffffffffffffffffffffffffffffffffff",
"ffffffffffffffffffffffffffffffffffffffffffffffffffffffffffffffffffffffffffffffffffffffffff",
"ffffffffffffffffffffffffffffffffffffffffffffffffffffffffffffffffffffffffffffffffffffffffff",
"ffffffffffffffffffffffffffffffffffffffffffffffffffffffffffffffffffffffffffffffffffffffffff",
"ffffffffffffffffffffffffffffffffffffffffffffffffffffffffffffffffffffffffffffffffffffffffff",
"ffffffffffffffffffffffffffffffffffffffffffffffffffffffffffffffffffffffffffffffffffffffffff",
"ffffffffffffffffffffffffffffffffttttffffffffffffffffffttttffffffffffffffffffffffffffffffff",
"ffffffffffffffffffffffffffffffffttttffffffffffffffffffttttffffffffffffffffffffffffffffffff",
"ffffffffffffffffffffffffffffffffttttffffffffffffffffffttttffffffffffffffffffffffffffffffff",
"ffffffffffffffffffffffffffffffffttttffffffffffffffffffttttffffffffffffffffffffffffffffffff",
"ffffffffffffffffffffffffffftttt63333ttttfffffffffftttt33336ttttfffffffffffffffffffffffffff",
"ffffffffffffffffffffffffffftttt63333ttttfffffffffftttt33336ttttfffffffffffffffffffffffffff",
"ffffffffffffffffffffffffffftttt63333ttttfffffffffftttt33336ttttfffffffffffffffffffffffffff",
"ffffffffffffffffffffffffffftttt63333ttttfffffffffftttt33336ttttfffffffffffffffffffffffffff",
"ffffffffffffffffffffffffffftttt63333aaaasffffffffsaaaaiiiiuttttfffffffffffffffffffffffffff",
"ffffffffffffffffffffffffffftttt63333ddddddddddddddddddddddattttfffffffffffffffffffffffffff",
"ffffffffffffffffffffffffffftttt63333ddddddddddddddddddddddattttfffffffffffffffffffffffffff",
"ffffffffffffffffffffffffffftttt63333ddddddddddddddddddddddattttfffffffffffffffffffffffffff",
"ffffffffffffffffffffffffffftttt63333ddddddddddddddddddddddattttfffffffffffffffffffffffffff",
"ffffffffffffffffff444444444ddddddddddddddddddddddddddddddddddddddddr4444ffffffffffffffffff",
"ffffffffffffffffff444444444ddddddddddddddddddddddddddddddddddddddddr4444ffffffffffffffffff",
"ffffffffffffffffff444444444ddddddddddddddddddddddddddddddddddddddddr4444ffffffffffffffffff",
"ffffffffffffffffff444444444ddddddddddddddddddddddddddddddddddddddddr4444ffffffffffffffffff",
"ffffffffffffffffffffff8wwwwrrrrpdddd****9ddddddddddddddddd9****ddddyffffffffffffffffffffff",
"ffffffffffffffffffffffftttt4444rdddd    *ddddddddddddddddd*    ddddfffffffffffffffffffffff",
"ffffffffffffffffffffffftttt4444rdddd    *ddddddddddddddddd*    ddddfffffffffffffffffffffff",
"ffffffffffffffffffffffftttt4444rdddd    *ddddddddddddddddd*    ddddfffffffffffffffffffffff",
"ffffffffffffffffffffffftttt4444rdddd    *ddddddddddddddddd*    ddddfffffffffffffffffffffff",
"fffffffffffffffffffffffttttddddddddd    *ddddddddddddddddd*    ddddfffffffffffffffffffffff",
"fffffffffffffffffffffffttttddddddddd    *ddddddddddddddddd*    ddddfffffffffffffffffffffff",
"fffffffffffffffffffffffttttddddddddd    *ddddddddddddddddd*    ddddfffffffffffffffffffffff",
"fffffffffffffffffffffffttttddddddddd    *ddddddddddddddddd*    ddddfffffffffffffffffffffff",
"ffffffffffffffffffffff8wwwwddddddddd****9dddddddd9****dddd9****ddddyffffffffffffffffffffff",
"ffffffffffffffffff444444444dddddddddddddddddddddd*    dddddddddddddr4444ffffffffffffffffff",
"ffffffffffffffffff444444444dddddddddddddddddddddd*    dddddddddddddr4444ffffffffffffffffff",
"ffffffffffffffffff444444444dddddddddddddddddddddd*    dddddddddddddr4444ffffffffffffffffff",
"ffffffffffffffffff444444444dddddddddddddddddddddd*    dddddddddddddr4444ffffffffffffffffff",
"ffffffffffffffffffffffftttt4444rddddddddddddd    o3333    *ddddddddfffffffffffffffffffffff",
"ffffffffffffffffffffffftttt4444rddddddddddddd    o3333    *ddddddddfffffffffffffffffffffff",
"ffffffffffffffffffffffftttt4444rddddddddddddd    o3333    *ddddddddfffffffffffffffffffffff",
"ffffffffffffffffffffffftttt4444rddddddddddddd    o3333    *ddddddddfffffffffffffffffffffff",
"fffffffffffffffffffffffttttrrrrpddddddddddddd****2iiii****9ddddddddfffffffffffffffffffffff",
"fffffffffffffffffffffffttttddddddddddddddddddddddddddddddddddddddddfffffffffffffffffffffff",
"fffffffffffffffffffffffttttddddddddddddddddddddddddddddddddddddddddfffffffffffffffffffffff",
"fffffffffffffffffffffffttttddddddddddddddddddddddddddddddddddddddddfffffffffffffffffffffff",
"fffffffffffffffffffffffttttddddddddddddddddddddddddddddddddddddddddfffffffffffffffffffffff",
"ffffffffffffffffffddddfffffttttadddddddddddddddddddddddddddddddfffffffffffffffffffffffffff",
"ffffffffffffffffffddddfffffttttadddddddddddddddddddddddddddddddfffffffffffffffffffffffffff",
"ffffffffffffffffffddddfffffttttadddddddddddddddddddddddddddddddfffffffffffffffffffffffffff",
"ffffffffffffffffffddddfffffttttadddddddddddddddddddddddddddddddfffffffffffffffffffffffffff",
"ffffffffffffffffffddddfffff411457777eeeeeeeee7777qeeeeeeeeq7777fffffffffffffffffffffffffff",
"ffffffffffffffffffddddfffff%%$%%%%%%>>>>>>>>>%%%%->>>>>>>>-%%%%fffffffffffffffffffffffffff",
"ffffffffffffffffffddddfffff%%%%%%%%%>>>>>>>>>%%%%->>>>>>>>-%%%%fffffffffffffffffffffffffff",
"ffffffffffffffffffddddfffff%%%%%%%%%>>>>>>>>>%%%%->>>>>>>>-%%%%fffffffffffffffffffffffffff",
"ffffffffffffffffffddddfffff%%%%%%%%%>>>>>>>>>%%%%->>>>>>>>-%%%%fffffffffffffffffffffffffff",
"ffffffffffffffffff+++++++++:::::::::000000009>>>>>>>>>>>>>-%%%%.........ffffffffffffffffff",
"ffffffffffffffffff+++++++++:::::::::000000000>>>>>>>>>>>>>-%%%%.........ffffffffffffffffff",
"ffffffffffffffffff+++++++++:::::::::000000000>>>>>>>>>>>>>-%%%%.........ffffffffffffffffff",
"ffffffffffffffffff+++++++++:::::::::000000000>>>>>>>>>>>>>-%%%%.........ffffffffffffffffff",
"ffffffffffffffffff+++++++++:::::::::;;;;;;;;;>>>>=########$%%%%.........ffffffffffffffffff",
"ffffffffffffffffff+++++++++:::::::::OOOOOOOOO>>>>#XXXXXXXX@%%%%.........ffffffffffffffffff",
"ffffffffffffffffff+++++++++:::::::::OOOOOOOOO>>>>#XXXXXXXX@%%%%.........ffffffffffffffffff",
"ffffffffffffffffff+++++++++:::::::::OOOOOOOOO>>>>#XXXXXXXX@%%%%.........ffffffffffffffffff",
"ffffffffffffffffff+++++++++:::::::::OOOOOOOOO>>>>#XXXXXXXX@%%%%.........ffffffffffffffffff",
"fffffffffffffffffffffffdddd:::::::::::::40009XXXX#>>>>%%%%%%%%%fffffffffffffffffffffffffff",
"fffffffffffffffffffffffdddd:::::::::::::<0009XXXX#>>>>%%%%%%%%%fffffffffffffffffffffffffff",
"fffffffffffffffffffffffdddd:::::::::::::<0009XXXX#>>>>%%%%%%%%%fffffffffffffffffffffffffff",
"fffffffffffffffffffffffdddd:::::::::::::<0000XXXX#>>>>%%%%%%%%%fffffffffffffffffffffffffff",
"fffffffffffffffffffffffffff:::::::::::::,<<<1####&----%%%%%%%%%fffffffffffffffffffffffffff",
"fffffffffffffffffffffffffff::::::::::::::::::>>>>-%%%%%%%%%%%%%fffffffffffffffffffffffffff",
"fffffffffffffffffffffffffff::::::::::::::::::>>>>-%%%%%%%%%%%%%fffffffffffffffffffffffffff",
"fffffffffffffffffffffffffff::::::::::::::::::>>>>-%%%%%%%%%%%%%fffffffffffffffffffffffffff",
"fffffffffffffffffffffffffff::::::::::::::::::>>>>-%%%%%%%%%%%%%fffffffffffffffffffffffffff",
"ffffffffffffffffffffffffffffffffffffffffffffffffffffffffffffffffffffffffffffffffffffffffff",
"ffffffffffffffffffffffffffffffffffffffffffffffffffffffffffffffffffffffffffffffffffffffffff",
"ffffffffffffffffffffffffffffffffffffffffffffffffffffffffffffffffffffffffffffffffffffffffff",
"ffffffffffffffffffffffffffffffffffffffffffffffffffffffffffffffffffffffffffffffffffffffffff",
"ffffffffffffffffffffffffffffffffffffffffffffffffffffffffffffffffffffffffffffffffffffffffff",
"ffffffffffffffffffffffffffffffffffffffffffffffffffffffffffffffffffffffffffffffffffffffffff",
"ffffffffffffffffffffffffffffffffffffffffffffffffffffffffffffffffffffffffffffffffffffffffff",
"ffffffffffffffffffffffffffffffffffffffffffffffffffffffffffffffffffffffffffffffffffffffffff",
"ffffffffffffffffffffffffffffffffffffffffffffffffffffffffffffffffffffffffffffffffffffffffff"
};
