/* XPM */
static char *result[] = {
/* columns rows colors chars-per-pixel */
"80 85 20 1 ",
"  c #4E4D5C",
". c #5C6D77",
"X c #6E7A80",
"o c #7B888F",
"O c #728794",
"+ c #8A98A0",
"@ c #9BAAB3",
"# c #A6AFB4",
"$ c #E6A3A2",
"% c #E6A2A3",
"& c #E6A3A3",
"* c #E7A3A3",
"= c #A7B8C2",
"- c #BAC4CA",
"; c #C6DADE",
": c #C6DBDE",
"> c #C7DBDE",
", c #C6DBDF",
"< c #DFEDED",
"1 c None",
/* pixels */
"11111111111111111111111111111111111111111111111111111111111111111111111111111111",
"11111111111111111111111111111111111111111111111111111111111111111111111111111111",
"11111111111111111111111111111111111111111111111111111111111111111111111111111111",
"11111111111111111111111111111111111111111111111111111111111111111111111111111111",
"11111111111111111111111111111111111111111111111111111111111111111111111111111111",
"11111111111111111111111111111111111111111111111111111111111111111111111111111111",
"11111111111111111111111111111111111111111111111111111111111111111111111111111111",
"11111111111111111111111111111111111111111111111111111111111111111111111111111111",
"11111111111111111111111111111111111111111111111111111111111111111111111111111111",
"11111111111111111111111111111111111111111111111111111111111111111111111111111111",
"11111111111111111111111111111111111111111111111111111111111111111111111111111111",
"11111111111111111111111111111111111111111111111111111111111111111111111111111111",
"11111111111111111111111111111111111111111111111111111111111111111111111111111111",
"11111111111111111111111111111111111111111111111111111111111111111111111111111111",
"11111111111111111111111111111111111111111111111111111111111111111111111111111111",
"1111111111111111111111111,:>:>11111111111111111111>>::>1111111111111111111111111",
"1111111111111111111111111;:::>11111111111111111111:::::1111111111111111111111111",
"1111111111111111111111111::::>11111111111111111111::::;1111111111111111111111111",
"1111111111111111111111111,::::11111111111111111111:::::1111111111111111111111111",
"1111111111111111111111111::,:;11111111111111111111:::;:1111111111111111111111111",
"11111111111111111111,:,:,*&&*%,>:,,1111111111:::>;%$&*%,:>::11111111111111111111",
"11111111111111111111:::::&&&&&:::::1111111111:::::&&&&&:::::11111111111111111111",
"11111111111111111111:::::&&&&&:::::1111111111:::::&&&&&:::::11111111111111111111",
"11111111111111111111:::::&&&&&:::::1111111111:::::&&&&&:::::11111111111111111111",
"11111111111111111111:::::&&&&&:::::1111111111:::::&&&&&:::::11111111111111111111",
"11111111111111111111:::::&&&&&<<<<<<<<<<<<<<<<<<<<<<<<<:::::11111111111111111111",
"11111111111111111111:::::&&&&&<<<<<<<<<<<<<<<<<<<<<<<<<:::::11111111111111111111",
"11111111111111111111:::::&&&&&<<<<<<<<<<<<<<<<<<<<<<<<<:::::11111111111111111111",
"11111111111111111111:::::&&&&&<<<<<<<<<<<<<<<<<<<<<<<<<:::::11111111111111111111",
"11111111111111111111:::::&&&&&<<<<<<<<<<<<<<<<<<<<<<<<<:::::11111111111111111111",
"111111111111111:::::<<<<<<<<<<<<<<<<<<<<<<<<<<<<<<<<<<<<<<<<<<<<<111111111111111",
"111111111111111:::::<<<<<<<<<<<<<<<<<<<<<<<<<<<<<<<<<<<<<<<<<<<<<111111111111111",
"111111111111111:::::<<<<<<<<<<<<<<<<<<<<<<<<<<<<<<<<<<<<<<<<<<<<<111111111111111",
"111111111111111:::::<<<<<<<<<<<<<<<<<<<<<<<<<<<<<<<<<<<<<<<<<<<<<111111111111111",
"111111111111111:::::<<<<<<<<<<<<<<<<<<<<<<<<<<<<<<<<<<<<<<<<<<<<<111111111111111",
"1111111111===============<<<<<     <<<<<<<<<<<<<<<<<<<<     <<<<<=====1111111111",
"1111111111===============<<<<<     <<<<<<<<<<<<<<<<<<<<     <<<<<=====1111111111",
"1111111111===============<<<<<     <<<<<<<<<<<<<<<<<<<<     <<<<<=====1111111111",
"1111111111===============<<<<<     <<<<<<<<<<<<<<<<<<<<     <<<<<=====1111111111",
"1111111111===============<<<<<     <<<<<<<<<<<<<<<<<<<<     <<<<<=====1111111111",
"111111111111111:::::<<<<<<<<<<<<<<<<<<<<<<<<<     <<<<<<<<<<<<<<<111111111111111",
"111111111111111:::::<<<<<<<<<<<<<<<<<<<<<<<<<     <<<<<<<<<<<<<<<111111111111111",
"111111111111111:::::<<<<<<<<<<<<<<<<<<<<<<<<<     <<<<<<<<<<<<<<<111111111111111",
"111111111111111:::::<<<<<<<<<<<<<<<<<<<<<<<<<     <<<<<<<<<<<<<<<111111111111111",
"111111111111111:::::<<<<<<<<<<<<<<<<<<<<<<<<<     <<<<<<<<<<<<<<<111111111111111",
"1111111111===============<<<<<<<<<<<<<<<     &&&&&     <<<<<<<<<<=====1111111111",
"1111111111===============<<<<<<<<<<<<<<<     &&&&&     <<<<<<<<<<=====1111111111",
"1111111111===============<<<<<<<<<<<<<<<     &&&&&     <<<<<<<<<<=====1111111111",
"1111111111===============<<<<<<<<<<<<<<<     &&&&&     <<<<<<<<<<=====1111111111",
"1111111111===============<<<<<<<<<<<<<<<     &&&&&     <<<<<<<<<<=====1111111111",
"111111111111111:::::<<<<<<<<<<<<<<<<<<<<<<<<<<<<<<<<<<<<<<<<<<<<<111111111111111",
"111111111111111:::::<<<<<<<<<<<<<<<<<<<<<<<<<<<<<<<<<<<<<<<<<<<<<111111111111111",
"111111111111111:::::<<<<<<<<<<<<<<<<<<<<<<<<<<<<<<<<<<<<<<<<<<<<<111111111111111",
"111111111111111:::::<<<<<<<<<<<<<<<<<<<<<<<<<<<<<<<<<<<<<<<<<<<<<111111111111111",
"111111111111111:::::<<<<<<<<<<<<<<<<<<<<<<<<<<<<<<<<<<<<<<<<<<<<<111111111111111",
"11111111111111111111:::::<<<<<<<<<<<<<<<<<<<<<<<<<<<<<<<<<<<11111111111111111111",
"11111111111111111111:::::<<<<<<<<<<<<<<<<<<<<<<<<<<<<<<<<<<<11111111111111111111",
"11111111111111111111:::::<<<<<<<<<<<<<<<<<<<<<<<<<<<<<<<<<<<11111111111111111111",
"11111111111111111111:::::<<<<<<<<<<<<<<<<<<<<<<<<<<<<<<<<<<<11111111111111111111",
"11111111111111111111:::::<<<<<<<<<<<<<<<<<<<<<<<<<<<<<<<<<<<11111111111111111111",
"11111111111111111111++++++++++#########################+++++11111111111111111111",
"11111111111111111111++++++++++#########################+++++11111111111111111111",
"11111111111111111111++++++++++#########################+++++11111111111111111111",
"11111111111111111111++++++++++#########################+++++11111111111111111111",
"11111111111111111111++++++++++#########################+++++11111111111111111111",
"11111<<<<<11111OOOOOOOOOO@@@@@oooooooooo#####XXXXXXXXXX+++++.....111111111111111",
"11111<<<<<11111OOOOOOOOOO@@@@@oooooooooo#####XXXXXXXXXX+++++.....111111111111111",
"11111<<<<<11111OOOOOOOOOO@@@@@oooooooooo#####XXXXXXXXXX+++++.....111111111111111",
"11111<<<<<11111OOOOOOOOOO@@@@@oooooooooo#####XXXXXXXXXX+++++.....111111111111111",
"11111<<<<<11111OOOOOOOOOO@@@@@oooooooooo#####XXXXXXXXXX+++++.....111111111111111",
"11111<<<<<11111OOOOOOOOOO@@@@@@@@@@-----XXXXX#####++++++++++.....111111111111111",
"11111<<<<<11111OOOOOOOOOO@@@@@@@@@@-----XXXXX#####++++++++++.....111111111111111",
"11111<<<<<11111OOOOOOOOOO@@@@@@@@@@-----XXXXX#####++++++++++.....111111111111111",
"11111<<<<<11111OOOOOOOOOO@@@@@@@@@@-----XXXXX#####++++++++++.....111111111111111",
"11111<<<<<11111OOOOOOOOOO@@@@@@@@@@-----XXXXX#####++++++++++.....111111111111111",
"1111111111<<<<<11111@@@@@@@@@@@@@@@@@@@@#####+++++++++++++++11111111111111111111",
"1111111111<<<<<11111@@@@@@@@@@@@@@@@@@@@#####+++++++++++++++11111111111111111111",
"1111111111<<<<<11111@@@@@@@@@@@@@@@@@@@@#####+++++++++++++++11111111111111111111",
"1111111111<<<<<11111@@@@@@@@@@@@@@@@@@@@#####+++++++++++++++11111111111111111111",
"1111111111<<<<<11111@@@@@@@@@@@@@@@@@@@@#####+++++++++++++++11111111111111111111",
"111111111111111<<<<<<<<<<@@@@@@@@@@@@@@@+++++++++++++++1111111111111111111111111",
"111111111111111<<<<<<<<<<@@@@@@@@@@@@@@@+++++++++++++++1111111111111111111111111",
"111111111111111<<<<<<<<<<@@@@@@@@@@@@@@@+++++++++++++++1111111111111111111111111",
"111111111111111<<<<<<<<<<@@@@@@@@@@@@@@@+++++++++++++++1111111111111111111111111",
"111111111111111<<<<<<<<<<@@@@@@@@@@@@@@@+++++++++++++++1111111111111111111111111"
};
