/* XPM */
static char *idle_4[] = {
/* columns rows colors chars-per-pixel */
"90 90 46 1 ",
"  c #4E4D5C",
". c #5C6D77",
"X c #6E7A80",
"o c #9A7880",
"O c #7B888F",
"+ c #728794",
"@ c #7C8990",
"# c #988B92",
"$ c #839198",
"% c #8A959A",
"& c #8A98A0",
"* c #8B99A1",
"= c #979DA5",
"- c #93A0A7",
"; c #93A1AA",
": c #95A2AA",
"> c #98A4AA",
", c #9BA6AD",
"< c #9DA7AD",
"1 c #9FA9AF",
"2 c #9BAAB3",
"3 c #A1ADB4",
"4 c #A6AFB4",
"5 c #A8B6BD",
"6 c #ABB7BF",
"7 c #B0BABF",
"8 c #E6A3A3",
"9 c #A7B8C2",
"0 c #D6BFC1",
"q c #B5C3C7",
"w c #B1C4CB",
"e c #BBC5C9",
"r c #BAC4CA",
"t c #B7CAD0",
"y c #BDCCD0",
"u c #C3D3D8",
"i c #C6DBDE",
"p c #CCDBDF",
"a c #D4D2D3",
"s c #E3C8C8",
"d c #D1E0E2",
"f c #D3E4E6",
"g c #D7E7E8",
"h c #D9E9E9",
"j c #DFEDED",
"k c None",
/* pixels */
"kkkkkkkkkkkkkkkkkkkkkkkkkkkkkkkkkkkkkkkkkkkkkkkkkkkkkkkkkkkkkkkkkkkkkkkkkkkkkkkkkkkkkkkkkk",
"kkkkkkkkkkkkkkkkkkkkkkkkkkkkkkkkkkkkkkkkkkkkkkkkkkkkkkkkkkkkkkkkkkkkkkkkkkkkkkkkkkkkkkkkkk",
"kkkkkkkkkkkkkkkkkkkkkkkkkkkkkkkkkkkkkkkkkkkkkkkkkkkkkkkkkkkkkkkkkkkkkkkkkkkkkkkkkkkkkkkkkk",
"kkkkkkkkkkkkkkkkkkkkkkkkkkkkkkkkkkkkkkkkkkkkkkkkkkkkkkkkkkkkkkkkkkkkkkkkkkkkkkkkkkkkkkkkkk",
"kkkkkkkkkkkkkkkkkkkkkkkkkkkkkkkkkkkkkkkkkkkkkkkkkkkkkkkkkkkkkkkkkkkkkkkkkkkkkkkkkkkkkkkkkk",
"kkkkkkkkkkkkkkkkkkkkkkkkkkkkkkkkkkkkkkkkkkkkkkkkkkkkkkkkkkkkkkkkkkkkkkkkkkkkkkkkkkkkkkkkkk",
"kkkkkkkkkkkkkkkkkkkkkkkkkkkkkkkkkkkkkkkkkkkkkkkkkkkkkkkkkkkkkkkkkkkkkkkkkkkkkkkkkkkkkkkkkk",
"kkkkkkkkkkkkkkkkkkkkkkkkkkkkkkkkkkkkkkkkkkkkkkkkkkkkkkkkkkkkkkkkkkkkkkkkkkkkkkkkkkkkkkkkkk",
"kkkkkkkkkkkkkkkkkkkkkkkkkkkkkkkkkkkkkkkkkkkkkkkkkkkkkkkkkkkkkkkkkkkkkkkkkkkkkkkkkkkkkkkkkk",
"kkkkkkkkkkkkkkkkkkkkkkkkkkkkkkkkkkkkkkkkkkkkkkkkkkkkkkkkkkkkkkkkkkkkkkkkkkkkkkkkkkkkkkkkkk",
"kkkkkkkkkkkkkkkkkkkkkkkkkkkkkkkkkkkkkkkkkkkkkkkkkkkkkkkkkkkkkkkkkkkkkkkkkkkkkkkkkkkkkkkkkk",
"kkkkkkkkkkkkkkkkkkkkkkkkkkkkkkkkkkkkkkkkkkkkkkkkkkkkkkkkkkkkkkkkkkkkkkkkkkkkkkkkkkkkkkkkkk",
"kkkkkkkkkkkkkkkkkkkkkkkkkkkkkkkkkkkkkkkkkkkkkkkkkkkkkkkkkkkkkkkkkkkkkkkkkkkkkkkkkkkkkkkkkk",
"kkkkkkkkkkkkkkkkkkkkkkkkkkkkkkkkkkkkkkkkkkkkkkkkkkkkkkkkkkkkkkkkkkkkkkkkkkkkkkkkkkkkkkkkkk",
"kkkkkkkkkkkkkkkkkkkkkkkkkkkkkkkkiiiikkkkkkkkkkkkkkkkkkiiiikkkkkkkkkkkkkkkkkkkkkkkkkkkkkkkk",
"kkkkkkkkkkkkkkkkkkkkkkkkkkkkkkkkiiiikkkkkkkkkkkkkkkkkkiiiikkkkkkkkkkkkkkkkkkkkkkkkkkkkkkkk",
"kkkkkkkkkkkkkkkkkkkkkkkkkkkkkkkkiiiikkkkkkkkkkkkkkkkkkiiiikkkkkkkkkkkkkkkkkkkkkkkkkkkkkkkk",
"kkkkkkkkkkkkkkkkkkkkkkkkkkkkkkkkiiiikkkkkkkkkkkkkkkkkkiiiikkkkkkkkkkkkkkkkkkkkkkkkkkkkkkkk",
"kkkkkkkkkkkkkkkkkkkkkkkkkkkiiii08888iiiikkkkkkkkkkiiii88880iiiikkkkkkkkkkkkkkkkkkkkkkkkkkk",
"kkkkkkkkkkkkkkkkkkkkkkkkkkkiiii08888iiiikkkkkkkkkkiiii88880iiiikkkkkkkkkkkkkkkkkkkkkkkkkkk",
"kkkkkkkkkkkkkkkkkkkkkkkkkkkiiii08888iiiikkkkkkkkkkiiii88880iiiikkkkkkkkkkkkkkkkkkkkkkkkkkk",
"kkkkkkkkkkkkkkkkkkkkkkkkkkkiiii08888iiiikkkkkkkkkkiiii88880iiiikkkkkkkkkkkkkkkkkkkkkkkkkkk",
"kkkkkkkkkkkkkkkkkkkkkkkkkkkiiii08888ffffgkkkkkkkkgffffssssaiiiikkkkkkkkkkkkkkkkkkkkkkkkkkk",
"kkkkkkkkkkkkkkkkkkkkkkkkkkkiiii08888jjjjjjjjjjjjjjjjjjjjjjfiiiikkkkkkkkkkkkkkkkkkkkkkkkkkk",
"kkkkkkkkkkkkkkkkkkkkkkkkkkkiiii08888jjjjjjjjjjjjjjjjjjjjjjfiiiikkkkkkkkkkkkkkkkkkkkkkkkkkk",
"kkkkkkkkkkkkkkkkkkkkkkkkkkkiiii08888jjjjjjjjjjjjjjjjjjjjjjfiiiikkkkkkkkkkkkkkkkkkkkkkkkkkk",
"kkkkkkkkkkkkkkkkkkkkkkkkkkkiiii08888jjjjjjjjjjjjjjjjjjjjjjfiiiikkkkkkkkkkkkkkkkkkkkkkkkkkk",
"kkkkkkkkkkkkkkkkkkkkkkkiiiijjjjjjjjjjjjjjjjjjjjjjjjjjjjjjjjjjjjjjjjkkkkkkkkkkkkkkkkkkkkkkk",
"kkkkkkkkkkkkkkkkkkkkkkkiiiijjjjjjjjjjjjjjjjjjjjjjjjjjjjjjjjjjjjjjjjkkkkkkkkkkkkkkkkkkkkkkk",
"kkkkkkkkkkkkkkkkkkkkkkkiiiijjjjjjjjjjjjjjjjjjjjjjjjjjjjjjjjjjjjjjjjkkkkkkkkkkkkkkkkkkkkkkk",
"kkkkkkkkkkkkkkkkkkkkkkkiiiijjjjjjjjjjjjjjjjjjjjjjjjjjjjjjjjjjjjjjjjkkkkkkkkkkkkkkkkkkkkkkk",
"kkkkkkkkkkkkkkkkkkkkkkwttttuuuudjjjj====ejjjjjjjjjjjjjjjjje====jjjjpkkkkkkkkkkkkkkkkkkkkkk",
"kkkkkkkkkkkkkkkkkk9999999999999ujjjj    =jjjjjjjjjjjjjjjjj=    jjjju9999kkkkkkkkkkkkkkkkkk",
"kkkkkkkkkkkkkkkkkk9999999999999ujjjj    =jjjjjjjjjjjjjjjjj=    jjjju9999kkkkkkkkkkkkkkkkkk",
"kkkkkkkkkkkkkkkkkk9999999999999ujjjj    =jjjjjjjjjjjjjjjjj=    jjjju9999kkkkkkkkkkkkkkkkkk",
"kkkkkkkkkkkkkkkkkk9999999999999ujjjj    =jjjjjjjjjjjjjjjjj=    jjjju9999kkkkkkkkkkkkkkkkkk",
"kkkkkkkkkkkkkkkkkkkkkkkiiiijjjjjjjjjjjjjjjjjjjjjj=    jjjjjjjjjjjjjkkkkkkkkkkkkkkkkkkkkkkk",
"kkkkkkkkkkkkkkkkkkkkkkkiiiijjjjjjjjjjjjjjjjjjjjjj=    jjjjjjjjjjjjjkkkkkkkkkkkkkkkkkkkkkkk",
"kkkkkkkkkkkkkkkkkkkkkkkiiiijjjjjjjjjjjjjjjjjjjjjj=    jjjjjjjjjjjjjkkkkkkkkkkkkkkkkkkkkkkk",
"kkkkkkkkkkkkkkkkkkkkkkkiiiijjjjjjjjjjjjjjjjjjjjjj=    jjjjjjjjjjjjjkkkkkkkkkkkkkkkkkkkkkkk",
"kkkkkkkkkkkkkkkkkkkkkkwttttuuuudjjjjjjjjjjjjj====#oooo====ejjjjjjjjpkkkkkkkkkkkkkkkkkkkkkk",
"kkkkkkkkkkkkkkkkkk9999999999999ujjjjjjjjjjjjj    o8888    =jjjjjjjju9999kkkkkkkkkkkkkkkkkk",
"kkkkkkkkkkkkkkkkkk9999999999999ujjjjjjjjjjjjj    o8888    =jjjjjjjju9999kkkkkkkkkkkkkkkkkk",
"kkkkkkkkkkkkkkkkkk9999999999999ujjjjjjjjjjjjj    o8888    =jjjjjjjju9999kkkkkkkkkkkkkkkkkk",
"kkkkkkkkkkkkkkkkkk9999999999999ujjjjjjjjjjjjj    o8888    =jjjjjjjju9999kkkkkkkkkkkkkkkkkk",
"kkkkkkkkkkkkkkkkkkkkkkkiiiijjjjjjjjjjjjjjjjjjjjjjjjjjjjjjjjjjjjjjjjkkkkkkkkkkkkkkkkkkkkkkk",
"kkkkkkkkkkkkkkkkkkkkkkkiiiijjjjjjjjjjjjjjjjjjjjjjjjjjjjjjjjjjjjjjjjkkkkkkkkkkkkkkkkkkkkkkk",
"kkkkkkkkkkkkkkkkkkkkkkkiiiijjjjjjjjjjjjjjjjjjjjjjjjjjjjjjjjjjjjjjjjkkkkkkkkkkkkkkkkkkkkkkk",
"kkkkkkkkkkkkkkkkkkkkkkkiiiijjjjjjjjjjjjjjjjjjjjjjjjjjjjjjjjjjjjjjjjkkkkkkkkkkkkkkkkkkkkkkk",
"kkkkkkkkkkkkkkkkkkkkkkkkkkkffffhjjjjjjjjjjjjjjjjjjjjjjjjjjjjjjjkkkkkkkkkkkkkkkkkkkkkkkkkkk",
"kkkkkkkkkkkkkkkkkkkkkkkkkkkiiiifjjjjjjjjjjjjjjjjjjjjjjjjjjjjjjjkkkkkkkkkkkkkkkkkkkkkkkkkkk",
"kkkkkkkkkkkkkkkkkkkkkkkkkkkiiiifjjjjjjjjjjjjjjjjjjjjjjjjjjjjjjjkkkkkkkkkkkkkkkkkkkkkkkkkkk",
"kkkkkkkkkkkkkkkkkkkkkkkkkkkiiiifjjjjjjjjjjjjjjjjjjjjjjjjjjjjjjjkkkkkkkkkkkkkkkkkkkkkkkkkkk",
"kkkkkkkkkkkkkkkkkkkkkkkkkkkiiiifjjjjjjjjjjjjjjjjjjjjjjjjjjjjjjjkkkkkkkkkkkkkkkkkkkkkkkkkkk",
"kkkkkkkkkkkkkkkkkkkkkkkkkkkjjjjq&&**444444444***&>44444444kkkkkkkkkkkkkkkkkkkkkkkkkkkkkkkk",
"kkkkkkkkkkkkkkkkkkkkkkkkkkkjjjjq&&&&444444444*%*&>44444444kkkkkkkkkkkkkkkkkkkkkkkkkkkkkkkk",
"kkkkkkkkkkkkkkkkkkkkkkkkkkkjjjjq&&&&344444444***&>44444444kkkkkkkkkkkkkkkkkkkkkkkkkkkkkkkk",
"kkkkkkkkkkkkkkkkkkkkkkkkkkkjjjjq&&&&444444444**%&>44444444kkkkkkkkkkkkkkkkkkkkkkkkkkkkkkkk",
"kkkkkkkkkkkkkkkkkkkkkkkkkkkyyyy5=;;;779977797>>>>144444444<kkkkkkkkkkkkkkkkkkkkkkkkkkkkkkk",
"kkkkkkkkkkkkkkkkkk+++++++++2222222220u9ureerr4444444444444>&&&&.........kkkkkkkkkkkkkkkkkk",
"kkkkkkkkkkkkkkkkkk+++++++++2222222229eerrrrre4444444444444>&&&&.........kkkkkkkkkkkkkkkkkk",
"kkkkkkkkkkkkkkkkkk+++++++++222222222eerrrrrrr4444444444444>&&&&.........kkkkkkkkkkkkkkkkkk",
"kkkkkkkkkkkkkkkkkk+++++++++222222222rrrrrrrrr4444444444444>&&&&.........kkkkkkkkkkkkkkkkkk",
"kkkkkkkkkkkkkkkkkk+++++++++222222222O@@@OOOOO4444%XXXXXXXX@&&&&.........kkkkkkkkkkkkkkkkkk",
"kkkkkkkkkkkkkkkkkk+++++++++222222222OOOOOOOOO4444%XXXXXXXX@&&&&.........kkkkkkkkkkkkkkkkkk",
"kkkkkkkkkkkkkkkkkk+++++++++222222222OOOOOOOOO4444%XXXXXXXX@&&&&.........kkkkkkkkkkkkkkkkkk",
"kkkkkkkkkkkkkkkkkk+++++++++222222222O@O@OOOOO4444%XXXXXXXX@&&&&.........kkkkkkkkkkkkkkkkkk",
"kkkkkkkkkkkkkkkkkkkkkkkkkkk222222222&*&*-,,,<%%%%%%%%%@@@@$&&&&kkkkkkkkkkkkkkkkkkkkkkkkkkk",
"kkkkkkkkkkkkkkkkkkkkkkkkkkk22222222222225errrXXXX%4444*%&&&&&&&kkkkkkkkkkkkkkkkkkkkkkkkkkk",
"kkkkkkkkkkkkkkkkkkkkkkkkkkk22222222222229rrrrXXXX%4444&&&&&&&&&kkkkkkkkkkkkkkkkkkkkkkkkkkk",
"kkkkkkkkkkkkkkkkkkkkkkkkkkk22222222222226rrrrXXXX%4444&&&&&&&&&kkkkkkkkkkkkkkkkkkkkkkkkkkk",
"kkkkkkkkkkkkkkkkkkkkkkkkkkk22222222222226rrrrXXXX%4444&&&&&&&&&kkkkkkkkkkkkkkkkkkkkkkkkkkk",
"kkkkkkkkkkkkkkkkkkkkkkkkkkkjjjjy22222222222224444>&&&&&&&&kkkkkkkkkkkkkkkkkkkkkkkkkkkkkkkk",
"kkkkkkkkkkkkkkkkkkkkkkkkkkkjjjjy22222222222224444>&&&&&&&&kkkkkkkkkkkkkkkkkkkkkkkkkkkkkkkk",
"kkkkkkkkkkkkkkkkkkkkkkkkkkkjjjjy22222222222224444>&&&&&&&&kkkkkkkkkkkkkkkkkkkkkkkkkkkkkkkk",
"kkkkkkkkkkkkkkkkkkkkkkkkkkkjjjjy22222222222224444>&&&&&&&&kkkkkkkkkkkkkkkkkkkkkkkkkkkkkkkk",
"kkkkkkkkkkkkkkkkkkkkkkkkkkkjjjjy22222222222223333:&&&&&&&&kkkkkkkkkkkkkkkkkkkkkkkkkkkkkkkk",
"kkkkkkkkkkkkkkkkkkkkkkkkkkkjjjjy22222222222222222:&*&&&&&&kkkkkkkkkkkkkkkkkkkkkkkkkkkkkkkk",
"kkkkkkkkkkkkkkkkkkkkkkkkkkkjjjjy22222222222222222;**&&&&&&kkkkkkkkkkkkkkkkkkkkkkkkkkkkkkkk",
"kkkkkkkkkkkkkkkkkkkkkkkkkkkjjjjy22222222222222222;**&&&&&&kkkkkkkkkkkkkkkkkkkkkkkkkkkkkkkk",
"kkkkkkkkkkkkkkkkkkkkkkkkkkkjjjjy22222222222222222;&&&&&&&&kkkkkkkkkkkkkkkkkkkkkkkkkkkkkkkk",
"kkkkkkkkkkkkkkkkkkkkkkkkkkkkkkkkkkkkOOOOkkkkkkkkkkkkkkXXXXkkkkkkkkkkkkkkkkkkkkkkkkkkkkkkkk",
"kkkkkkkkkkkkkkkkkkkkkkkkkkkkkkkkkkkkOOOOkkkkkkkkkkkkkkXXXXkkkkkkkkkkkkkkkkkkkkkkkkkkkkkkkk",
"kkkkkkkkkkkkkkkkkkkkkkkkkkkkkkkkkkkkOOOOkkkkkkkkkkkkkkXXXXkkkkkkkkkkkkkkkkkkkkkkkkkkkkkkkk",
"kkkkkkkkkkkkkkkkkkkkkkkkkkkkkkkkkkkkOOOOkkkkkkkkkkkkkkXXXXkkkkkkkkkkkkkkkkkkkkkkkkkkkkkkkk",
"kkkkkkkkkkkkkkkkkkkkkkkkkkkkkkkkkkkkkkkkkkkkkkkkkkkkkkkkkkkkkkkkkkkkkkkkkkkkkkkkkkkkkkkkkk",
"kkkkkkkkkkkkkkkkkkkkkkkkkkkkkkkkkkkkkkkkkkkkkkkkkkkkkkkkkkkkkkkkkkkkkkkkkkkkkkkkkkkkkkkkkk",
"kkkkkkkkkkkkkkkkkkkkkkkkkkkkkkkkkkkkkkkkkkkkkkkkkkkkkkkkkkkkkkkkkkkkkkkkkkkkkkkkkkkkkkkkkk",
"kkkkkkkkkkkkkkkkkkkkkkkkkkkkkkkkkkkkkkkkkkkkkkkkkkkkkkkkkkkkkkkkkkkkkkkkkkkkkkkkkkkkkkkkkk",
"kkkkkkkkkkkkkkkkkkkkkkkkkkkkkkkkkkkkkkkkkkkkkkkkkkkkkkkkkkkkkkkkkkkkkkkkkkkkkkkkkkkkkkkkkk"
};
