/* XPM */
static char *idle_6[] = {
/* columns rows colors chars-per-pixel */
"90 90 43 1 ",
"  c #4E4D5C",
". c #5C6D77",
"X c #6E7A80",
"o c #9A7880",
"O c #7B888F",
"+ c #728794",
"@ c #7C8990",
"# c #7E909A",
"$ c #988B92",
"% c #8A959A",
"& c #8A969D",
"* c #8799A4",
"= c #8A98A0",
"- c #8898A2",
"; c #919CA2",
": c #979DA5",
"> c #98A2A7",
", c #91A1AB",
"< c #93A1AA",
"1 c #98A4AA",
"2 c #9BAAB3",
"3 c #A6AFB4",
"4 c #A3B1B9",
"5 c #ABB7BF",
"6 c #E6A3A3",
"7 c #A7B8C2",
"8 c #D6BFC1",
"9 c #B1C4CB",
"0 c #BBC5C9",
"q c #BAC4CA",
"w c #B7CAD0",
"e c #BDCCD0",
"r c #C3D3D8",
"t c #C6DBDE",
"y c #CCDBDF",
"u c #D4D2D3",
"i c #E3C8C8",
"p c #D1E0E2",
"a c #D3E4E6",
"s c #D7E7E8",
"d c #D9E9E9",
"f c #DFEDED",
"g c None",
/* pixels */
"gggggggggggggggggggggggggggggggggggggggggggggggggggggggggggggggggggggggggggggggggggggggggg",
"gggggggggggggggggggggggggggggggggggggggggggggggggggggggggggggggggggggggggggggggggggggggggg",
"gggggggggggggggggggggggggggggggggggggggggggggggggggggggggggggggggggggggggggggggggggggggggg",
"gggggggggggggggggggggggggggggggggggggggggggggggggggggggggggggggggggggggggggggggggggggggggg",
"gggggggggggggggggggggggggggggggggggggggggggggggggggggggggggggggggggggggggggggggggggggggggg",
"gggggggggggggggggggggggggggggggggggggggggggggggggggggggggggggggggggggggggggggggggggggggggg",
"gggggggggggggggggggggggggggggggggggggggggggggggggggggggggggggggggggggggggggggggggggggggggg",
"gggggggggggggggggggggggggggggggggggggggggggggggggggggggggggggggggggggggggggggggggggggggggg",
"gggggggggggggggggggggggggggggggggggggggggggggggggggggggggggggggggggggggggggggggggggggggggg",
"gggggggggggggggggggggggggggggggggggggggggggggggggggggggggggggggggggggggggggggggggggggggggg",
"gggggggggggggggggggggggggggggggggggggggggggggggggggggggggggggggggggggggggggggggggggggggggg",
"gggggggggggggggggggggggggggggggggggggggggggggggggggggggggggggggggggggggggggggggggggggggggg",
"gggggggggggggggggggggggggggggggggggggggggggggggggggggggggggggggggggggggggggggggggggggggggg",
"gggggggggggggggggggggggggggggggggggggggggggggggggggggggggggggggggggggggggggggggggggggggggg",
"ggggggggggggggggggggggggggggggggttttggggggggggggggggggttttgggggggggggggggggggggggggggggggg",
"ggggggggggggggggggggggggggggggggttttggggggggggggggggggttttgggggggggggggggggggggggggggggggg",
"ggggggggggggggggggggggggggggggggttttggggggggggggggggggttttgggggggggggggggggggggggggggggggg",
"ggggggggggggggggggggggggggggggggttttggggggggggggggggggttttgggggggggggggggggggggggggggggggg",
"gggggggggggggggggggggggggggtttt86666ttttggggggggggtttt66668ttttggggggggggggggggggggggggggg",
"gggggggggggggggggggggggggggtttt86666ttttggggggggggtttt66668ttttggggggggggggggggggggggggggg",
"gggggggggggggggggggggggggggtttt86666ttttggggggggggtttt66668ttttggggggggggggggggggggggggggg",
"gggggggggggggggggggggggggggtttt86666ttttggggggggggtttt66668ttttggggggggggggggggggggggggggg",
"gggggggggggggggggggggggggggtttt86666aaaasggggggggsaaaaiiiiuttttggggggggggggggggggggggggggg",
"gggggggggggggggggggggggggggtttt86666ffffffffffffffffffffffattttggggggggggggggggggggggggggg",
"gggggggggggggggggggggggggggtttt86666ffffffffffffffffffffffattttggggggggggggggggggggggggggg",
"gggggggggggggggggggggggggggtttt86666ffffffffffffffffffffffattttggggggggggggggggggggggggggg",
"gggggggggggggggggggggggggggtttt86666ffffffffffffffffffffffattttggggggggggggggggggggggggggg",
"gggggggggggggggggggggggttttffffffffffffffffffffffffffffffffffffffffggggggggggggggggggggggg",
"gggggggggggggggggggggggttttffffffffffffffffffffffffffffffffffffffffggggggggggggggggggggggg",
"gggggggggggggggggggggggttttffffffffffffffffffffffffffffffffffffffffggggggggggggggggggggggg",
"gggggggggggggggggggggggttttffffffffffffffffffffffffffffffffffffffffggggggggggggggggggggggg",
"gggggggggggggggggggggg9wwwwrrrrpffff::::0fffffffffffffffff0::::ffffygggggggggggggggggggggg",
"gggggggggggggggggg7777777777777rffff    :fffffffffffffffff:    ffffr7777gggggggggggggggggg",
"gggggggggggggggggg7777777777777rffff    :fffffffffffffffff:    ffffr7777gggggggggggggggggg",
"gggggggggggggggggg7777777777777rffff    :fffffffffffffffff:    ffffr7777gggggggggggggggggg",
"gggggggggggggggggg7777777777777rffff    :fffffffffffffffff:    ffffr7777gggggggggggggggggg",
"gggggggggggggggggggggggttttffffffffffffffffffffff:    fffffffffffffggggggggggggggggggggggg",
"gggggggggggggggggggggggttttffffffffffffffffffffff:    fffffffffffffggggggggggggggggggggggg",
"gggggggggggggggggggggggttttffffffffffffffffffffff:    fffffffffffffggggggggggggggggggggggg",
"gggggggggggggggggggggggttttffffffffffffffffffffff:    fffffffffffffggggggggggggggggggggggg",
"gggggggggggggggggggggg9wwwwrrrrpfffffffffffff::::$oooo::::0ffffffffygggggggggggggggggggggg",
"gggggggggggggggggg7777777777777rfffffffffffff    o6666    :ffffffffr7777gggggggggggggggggg",
"gggggggggggggggggg7777777777777rfffffffffffff    o6666    :ffffffffr7777gggggggggggggggggg",
"gggggggggggggggggg7777777777777rfffffffffffff    o6666    :ffffffffr7777gggggggggggggggggg",
"gggggggggggggggggg7777777777777rfffffffffffff    o6666    :fffffffft7777gggggggggggggggggg",
"gggggggggggggggggggggggttttffffffffffffffffffffffffffffffffffffffffggggggggggggggggggggggg",
"gggggggggggggggggggggggttttffffffffffffffffffffffffffffffffffffffffggggggggggggggggggggggg",
"gggggggggggggggggggggggttttffffffffffffffffffffffffffffffffffffffffggggggggggggggggggggggg",
"gggggggggggggggggggggggttttffffffffffffffffffffffffffffffffffffffffggggggggggggggggggggggg",
"gggggggggggggggggggggggggggaaaadfffffffffffffffffffffffffffffffggggggggggggggggggggggggggg",
"gggggggggggggggggggggggggggttttafffffffffffffffffffffffffffffffggggggggggggggggggggggggggg",
"gggggggggggggggggggggggggggttttafffffffffffffffffffffffffffffffggggggggggggggggggggggggggg",
"gggggggggggggggggggggggggggttttafffffffffffffffffffffffffffffffggggggggggggggggggggggggggg",
"gggggggggggggggggggggggggggttttafffffffffffffffffffffffffffffffggggggggggggggggggggggggggg",
"ggggggggggggggggggggggggggg=========33333333333333333333331====ggggggggggggggggggggggggggg",
"ggggggggggggggggggggggggggg=========33333333333333333333331====ggggggggggggggggggggggggggg",
"ggggggggggggggggggggggggggg=========33333333333333333333331====ggggggggggggggggggggggggggg",
"ggggggggggggggggggggggggggg=========33333333333333333333331====ggggggggggggggggggggggggggg",
"ggggggggggggggggggggggggggg####=<<<<;;;;;;;;;3333>%%%%%%%%&====ggggggggggggggggggggggggggg",
"ggggggggggggggffffggggg++++++++*2222OOOOOOOOO3333%XXXXXXXX@====....ggggggggggggggggggggggg",
"ggggggggggggggffffggggg++++++++*2222OOOOOOOOO3333%XXXXXXXX@====....ggggggggggggggggggggggg",
"ggggggggggggggffffggggg++++++++*2222OOOOOOOOO3333%XXXXXXXX@====....ggggggggggggggggggggggg",
"ggggggggggggggffffggggg++++++++*2222OOOOOOOOO3333%XXXXXXXX@====....ggggggggggggggggggggggg",
"ggggggggggggggffffggggg++++++++*222222225qqq0XXXX%3333=========....ggggggggggggggggggggggg",
"ggggggggggggggffffggggg++++++++*222222227qqqr..O.;3333;&=======....ggggggggggggggggggggggg",
"ggggggggggggggffffggggg++++++++*222222225qqqrXo.X%3333&;=======....ggggggggggggggggggggggg",
"ggggggggggggggffffggggg++++++++*222222225qqq0.O.X%3333&-=======....ggggggggggggggggggggggg",
"ggggggggggggggggggggggggggg****,2222222245555%%%%:>>11=========ggggggggggggggggggggggggggg",
"ggggggggggggggggggffffggggg22222222222222222233331============-ggggggggggggggggggggggggggg",
"ggggggggggggggggggffffggggg22222222222222222233331=============ggggggggggggggggggggggggggg",
"ggggggggggggggggggffffggggg22222222222222222233331============&ggggggggggggggggggggggggggg",
"ggggggggggggggggggffffggggg22222222222222222233331============-ggggggggggggggggggggggggggg",
"gggggggggggggggggggggggffffffffe2222222222222=============gggggggggggggggggggggggggggggggg",
"gggggggggggggggggggggggffffffffe2222222222222========-====gggggggggggggggggggggggggggggggg",
"gggggggggggggggggggggggffffffffe2222222222222=======-&-&&;gggggggggggggggggggggggggggggggg",
"gggggggggggggggggggggggffffffffe2222222222222=======-&;---gggggggggggggggggggggggggggggggg",
"gggggggggggggggggggggggggggggggggggggggggggggggggggggggggggggggggggggggggggggggggggggggggg",
"gggggggggggggggggggggggggggggggggggggggggggggggggggggggggggggggggggggggggggggggggggggggggg",
"gggggggggggggggggggggggggggggggggggggggggggggggggggggggggggggggggggggggggggggggggggggggggg",
"gggggggggggggggggggggggggggggggggggggggggggggggggggggggggggggggggggggggggggggggggggggggggg",
"gggggggggggggggggggggggggggggggggggggggggggggggggggggggggggggggggggggggggggggggggggggggggg",
"gggggggggggggggggggggggggggggggggggggggggggggggggggggggggggggggggggggggggggggggggggggggggg",
"gggggggggggggggggggggggggggggggggggggggggggggggggggggggggggggggggggggggggggggggggggggggggg",
"gggggggggggggggggggggggggggggggggggggggggggggggggggggggggggggggggggggggggggggggggggggggggg",
"gggggggggggggggggggggggggggggggggggggggggggggggggggggggggggggggggggggggggggggggggggggggggg",
"gggggggggggggggggggggggggggggggggggggggggggggggggggggggggggggggggggggggggggggggggggggggggg",
"gggggggggggggggggggggggggggggggggggggggggggggggggggggggggggggggggggggggggggggggggggggggggg",
"gggggggggggggggggggggggggggggggggggggggggggggggggggggggggggggggggggggggggggggggggggggggggg",
"gggggggggggggggggggggggggggggggggggggggggggggggggggggggggggggggggggggggggggggggggggggggggg",
"gggggggggggggggggggggggggggggggggggggggggggggggggggggggggggggggggggggggggggggggggggggggggg"
};
