/* XPM */
static char *idle_3[] = {
/* columns rows colors chars-per-pixel */
"90 90 44 1 ",
"  c #4E4D5C",
". c #5C6D77",
"X c #6E7A80",
"o c #9A7880",
"O c #7B888F",
"+ c #728794",
"@ c #7C8990",
"# c #988B92",
"$ c #839198",
"% c #8A959A",
"& c #8799A4",
"* c #8A98A0",
"= c #8B99A1",
"- c #979DA5",
"; c #93A0A7",
": c #93A1AA",
"> c #95A2AA",
", c #98A4AA",
"< c #9BA6AD",
"1 c #9FA9AF",
"2 c #9BAAB3",
"3 c #A1ADB4",
"4 c #A6AFB4",
"5 c #ABB7BF",
"6 c #B0BABF",
"7 c #E6A3A3",
"8 c #A7B8C2",
"9 c #D6BFC1",
"0 c #B1C4CB",
"q c #BBC5C9",
"w c #BAC4CA",
"e c #B7CAD0",
"r c #BDCCD0",
"t c #C3D3D8",
"y c #C6DBDE",
"u c #CCDBDF",
"i c #D4D2D3",
"p c #E3C8C8",
"a c #D1E0E2",
"s c #D3E4E6",
"d c #D7E7E8",
"f c #D9E9E9",
"g c #DFEDED",
"h c None",
/* pixels */
"hhhhhhhhhhhhhhhhhhhhhhhhhhhhhhhhhhhhhhhhhhhhhhhhhhhhhhhhhhhhhhhhhhhhhhhhhhhhhhhhhhhhhhhhhh",
"hhhhhhhhhhhhhhhhhhhhhhhhhhhhhhhhhhhhhhhhhhhhhhhhhhhhhhhhhhhhhhhhhhhhhhhhhhhhhhhhhhhhhhhhhh",
"hhhhhhhhhhhhhhhhhhhhhhhhhhhhhhhhhhhhhhhhhhhhhhhhhhhhhhhhhhhhhhhhhhhhhhhhhhhhhhhhhhhhhhhhhh",
"hhhhhhhhhhhhhhhhhhhhhhhhhhhhhhhhhhhhhhhhhhhhhhhhhhhhhhhhhhhhhhhhhhhhhhhhhhhhhhhhhhhhhhhhhh",
"hhhhhhhhhhhhhhhhhhhhhhhhhhhhhhhhhhhhhhhhhhhhhhhhhhhhhhhhhhhhhhhhhhhhhhhhhhhhhhhhhhhhhhhhhh",
"hhhhhhhhhhhhhhhhhhhhhhhhhhhhhhhhhhhhhhhhhhhhhhhhhhhhhhhhhhhhhhhhhhhhhhhhhhhhhhhhhhhhhhhhhh",
"hhhhhhhhhhhhhhhhhhhhhhhhhhhhhhhhhhhhhhhhhhhhhhhhhhhhhhhhhhhhhhhhhhhhhhhhhhhhhhhhhhhhhhhhhh",
"hhhhhhhhhhhhhhhhhhhhhhhhhhhhhhhhhhhhhhhhhhhhhhhhhhhhhhhhhhhhhhhhhhhhhhhhhhhhhhhhhhhhhhhhhh",
"hhhhhhhhhhhhhhhhhhhhhhhhhhhhhhhhhhhhhhhhhhhhhhhhhhhhhhhhhhhhhhhhhhhhhhhhhhhhhhhhhhhhhhhhhh",
"hhhhhhhhhhhhhhhhhhhhhhhhhhhhhhhhhhhhhhhhhhhhhhhhhhhhhhhhhhhhhhhhhhhhhhhhhhhhhhhhhhhhhhhhhh",
"hhhhhhhhhhhhhhhhhhhhhhhhhhhhhhhhhhhhhhhhhhhhhhhhhhhhhhhhhhhhhhhhhhhhhhhhhhhhhhhhhhhhhhhhhh",
"hhhhhhhhhhhhhhhhhhhhhhhhhhhhhhhhhhhhhhhhhhhhhhhhhhhhhhhhhhhhhhhhhhhhhhhhhhhhhhhhhhhhhhhhhh",
"hhhhhhhhhhhhhhhhhhhhhhhhhhhhhhhhhhhhhhhhhhhhhhhhhhhhhhhhhhhhhhhhhhhhhhhhhhhhhhhhhhhhhhhhhh",
"hhhhhhhhhhhhhhhhhhhhhhhhhhhhhhhhhhhhhhhhhhhhhhhhhhhhhhhhhhhhhhhhhhhhhhhhhhhhhhhhhhhhhhhhhh",
"hhhhhhhhhhhhhhhhhhhhhhhhhhhhhhhhyyyyhhhhhhhhhhhhhhhhhhyyyyhhhhhhhhhhhhhhhhhhhhhhhhhhhhhhhh",
"hhhhhhhhhhhhhhhhhhhhhhhhhhhhhhhhyyyyhhhhhhhhhhhhhhhhhhyyyyhhhhhhhhhhhhhhhhhhhhhhhhhhhhhhhh",
"hhhhhhhhhhhhhhhhhhhhhhhhhhhhhhhhyyyyhhhhhhhhhhhhhhhhhhyyyyhhhhhhhhhhhhhhhhhhhhhhhhhhhhhhhh",
"hhhhhhhhhhhhhhhhhhhhhhhhhhhhhhhhyyyyhhhhhhhhhhhhhhhhhhyyyyhhhhhhhhhhhhhhhhhhhhhhhhhhhhhhhh",
"hhhhhhhhhhhhhhhhhhhhhhhhhhhyyyy97777yyyyhhhhhhhhhhyyyy77779yyyyhhhhhhhhhhhhhhhhhhhhhhhhhhh",
"hhhhhhhhhhhhhhhhhhhhhhhhhhhyyyy97777yyyyhhhhhhhhhhyyyy77779yyyyhhhhhhhhhhhhhhhhhhhhhhhhhhh",
"hhhhhhhhhhhhhhhhhhhhhhhhhhhyyyy97777yyyyhhhhhhhhhhyyyy77779yyyyhhhhhhhhhhhhhhhhhhhhhhhhhhh",
"hhhhhhhhhhhhhhhhhhhhhhhhhhhyyyy97777yyyyhhhhhhhhhhyyyy77779yyyyhhhhhhhhhhhhhhhhhhhhhhhhhhh",
"hhhhhhhhhhhhhhhhhhhhhhhhhhhyyyy97777ssssdhhhhhhhhdssssppppiyyyyhhhhhhhhhhhhhhhhhhhhhhhhhhh",
"hhhhhhhhhhhhhhhhhhhhhhhhhhhyyyy97777ggggggggggggggggggggggsyyyyhhhhhhhhhhhhhhhhhhhhhhhhhhh",
"hhhhhhhhhhhhhhhhhhhhhhhhhhhyyyy97777ggggggggggggggggggggggsyyyyhhhhhhhhhhhhhhhhhhhhhhhhhhh",
"hhhhhhhhhhhhhhhhhhhhhhhhhhhyyyy97777ggggggggggggggggggggggsyyyyhhhhhhhhhhhhhhhhhhhhhhhhhhh",
"hhhhhhhhhhhhhhhhhhhhhhhhhhhyyyy97777ggggggggggggggggggggggsyyyyhhhhhhhhhhhhhhhhhhhhhhhhhhh",
"hhhhhhhhhhhhhhhhhhhhhhhyyyygggggggggggggggggggggggggggggggggggggggghhhhhhhhhhhhhhhhhhhhhhh",
"hhhhhhhhhhhhhhhhhhhhhhhyyyygggggggggggggggggggggggggggggggggggggggghhhhhhhhhhhhhhhhhhhhhhh",
"hhhhhhhhhhhhhhhhhhhhhhhyyyygggggggggggggggggggggggggggggggggggggggghhhhhhhhhhhhhhhhhhhhhhh",
"hhhhhhhhhhhhhhhhhhhhhhhyyyygggggggggggggggggggggggggggggggggggggggghhhhhhhhhhhhhhhhhhhhhhh",
"hhhhhhhhhhhhhhhhhhhhhh0eeeettttagggg----qgggggggggggggggggq----gggguhhhhhhhhhhhhhhhhhhhhhh",
"hhhhhhhhhhhhhhhhhh8888888888888tgggg    -ggggggggggggggggg-    ggggt8888hhhhhhhhhhhhhhhhhh",
"hhhhhhhhhhhhhhhhhh8888888888888tgggg    -ggggggggggggggggg-    ggggt8888hhhhhhhhhhhhhhhhhh",
"hhhhhhhhhhhhhhhhhh8888888888888tgggg    -ggggggggggggggggg-    ggggt8888hhhhhhhhhhhhhhhhhh",
"hhhhhhhhhhhhhhhhhh8888888888888tgggg    -ggggggggggggggggg-    ggggt8888hhhhhhhhhhhhhhhhhh",
"hhhhhhhhhhhhhhhhhhhhhhhyyyygggggggggggggggggggggg-    ggggggggggggghhhhhhhhhhhhhhhhhhhhhhh",
"hhhhhhhhhhhhhhhhhhhhhhhyyyygggggggggggggggggggggg-    ggggggggggggghhhhhhhhhhhhhhhhhhhhhhh",
"hhhhhhhhhhhhhhhhhhhhhhhyyyygggggggggggggggggggggg-    ggggggggggggghhhhhhhhhhhhhhhhhhhhhhh",
"hhhhhhhhhhhhhhhhhhhhhhhyyyygggggggggggggggggggggg-    ggggggggggggghhhhhhhhhhhhhhhhhhhhhhh",
"hhhhhhhhhhhhhhhhhhhhhh0eeeettttaggggggggggggg----#oooo----qgggggggguhhhhhhhhhhhhhhhhhhhhhh",
"hhhhhhhhhhhhhhhhhh8888888888888tggggggggggggg    o7777    -ggggggggt8888hhhhhhhhhhhhhhhhhh",
"hhhhhhhhhhhhhhhhhh8888888888888tggggggggggggg    o7777    -ggggggggt8888hhhhhhhhhhhhhhhhhh",
"hhhhhhhhhhhhhhhhhh8888888888888tggggggggggggg    o7777    -ggggggggt8888hhhhhhhhhhhhhhhhhh",
"hhhhhhhhhhhhhhhhhh8888888888888tggggggggggggg    o7777    -ggggggggt8888hhhhhhhhhhhhhhhhhh",
"hhhhhhhhhhhhhhhhhhhhhhhyyyygggggggggggggggggggggggggggggggggggggggghhhhhhhhhhhhhhhhhhhhhhh",
"hhhhhhhhhhhhhhhhhhhhhhhyyyygggggggggggggggggggggggggggggggggggggggghhhhhhhhhhhhhhhhhhhhhhh",
"hhhhhhhhhhhhhhhhhhhhhhhyyyygggggggggggggggggggggggggggggggggggggggghhhhhhhhhhhhhhhhhhhhhhh",
"hhhhhhhhhhhhhhhhhhhhhhhyyyygggggggggggggggggggggggggggggggggggggggghhhhhhhhhhhhhhhhhhhhhhh",
"hhhhhhhhhhhhhhhhhhhhhhhhhhhssssfggggggggggggggggggggggggggggggghhhhhhhhhhhhhhhhhhhhhhhhhhh",
"hhhhhhhhhhhhhhhhhhhhhhhhhhhyyyysggggggggggggggggggggggggggggggghhhhhhhhhhhhhhhhhhhhhhhhhhh",
"hhhhhhhhhhhhhhhhhhhhhhhhhhhyyyysggggggggggggggggggggggggggggggghhhhhhhhhhhhhhhhhhhhhhhhhhh",
"hhhhhhhhhhhhhhhhhhhhhhhhhhhyyyysggggggggggggggggggggggggggggggghhhhhhhhhhhhhhhhhhhhhhhhhhh",
"hhhhhhhhhhhhhhhhhhhhhhhhhhhyyyysggggggggggggggggggggggggggggggghhhhhhhhhhhhhhhhhhhhhhhhhhh",
"hhhhhhhhhhhhhhhhhhhhhhhgggg*******==444444444===*,44444444,****hhhhhhhhhhhhhhhhhhhhhhhhhhh",
"hhhhhhhhhhhhhhhhhhhhhhhgggg*********444444444=%=*,44444444,****hhhhhhhhhhhhhhhhhhhhhhhhhhh",
"hhhhhhhhhhhhhhhhhhhhhhhgggg*********344444444===*,44444444,****hhhhhhhhhhhhhhhhhhhhhhhhhhh",
"hhhhhhhhhhhhhhhhhhhhhhhgggg*********444444444==%*,44444444,****hhhhhhhhhhhhhhhhhhhhhhhhhhh",
"hhhhhhhhhhhhhhhhhhhhhhhgggg:::-:-:::668866686,,,,144444444,****hhhhhhhhhhhhhhhhhhhhhhhhhhh",
"hhhhhhhhhhhhhhhhhhhhhhhgggg2222222229t8twqqww4444444444444,****hhhhhhhhhhhhhhhhhhhhhhhhhhh",
"hhhhhhhhhhhhhhhhhhhhhhhgggg2222222228qqwwwwwq4444444444444,****hhhhhhhhhhhhhhhhhhhhhhhhhhh",
"hhhhhhhhhhhhhhhhhhhhhhhgggg222222222qqwwwwwww4444444444444,****hhhhhhhhhhhhhhhhhhhhhhhhhhh",
"hhhhhhhhhhhhhhhhhhhhhhhgggg222222222wwwwwwwww4444444444444,****hhhhhhhhhhhhhhhhhhhhhhhhhhh",
"hhhhhhhhhhhhhhhhhhhhhhh++++++++&2222O@@@OOOOO4444%XXXXXXXX@****....hhhhhhhhhhhhhhhhhhhhhhh",
"hhhhhhhhhhhhhhhhhhhhhhh++++++++&2222@OOOOOOOO4444%XXXXXXXX@****....hhhhhhhhhhhhhhhhhhhhhhh",
"hhhhhhhhhhhhhhhhhhhhhhh++++++++&2222OOO@OOOOO4444%XXXXXXXX@****....hhhhhhhhhhhhhhhhhhhhhhh",
"hhhhhhhhhhhhhhhhhhhhhhh++++++++&2222O@@@OOOOO4444%XXXXXXXX@****....hhhhhhhhhhhhhhhhhhhhhhh",
"hhhhhhhhhhhhhhhhhhhhhhh++++++++&2222****-<<<<%%%%%%%%%@@@@$****....hhhhhhhhhhhhhhhhhhhhhhh",
"hhhhhhhhhhhhhhhhhhhhhhh++++++++&222222228qwwwXXXX%4444=%*******....hhhhhhhhhhhhhhhhhhhhhhh",
"hhhhhhhhhhhhhhhhhhhhhhh++++++++&222222228qwwwXXXX%4444*********....hhhhhhhhhhhhhhhhhhhhhhh",
"hhhhhhhhhhhhhhhhhhhhhhh++++++++&222222225wwwwXXXX%4444*********....hhhhhhhhhhhhhhhhhhhhhhh",
"hhhhhhhhhhhhhhhhhhhhhhh++++++++&222222225wwwwXXXX%4444*********....hhhhhhhhhhhhhhhhhhhhhhh",
"hhhhhhhhhhhhhhhhhhhhhhhhhhhggggr22222222222224444>==******hhhhhhhhhhhhhhhhhhhhhhhhhhhhhhhh",
"hhhhhhhhhhhhhhhhhhhhhhhhhhhggggr22222222222224444<==******hhhhhhhhhhhhhhhhhhhhhhhhhhhhhhhh",
"hhhhhhhhhhhhhhhhhhhhhhhhhhhggggr22222222222224444>%=******hhhhhhhhhhhhhhhhhhhhhhhhhhhhhhhh",
"hhhhhhhhhhhhhhhhhhhhhhhhhhhggggr22222222222224444>********hhhhhhhhhhhhhhhhhhhhhhhhhhhhhhhh",
"hhhhhhhhhhhhhhhhhhhhhhhhhhhggggr22222222222223333>********hhhhhhhhhhhhhhhhhhhhhhhhhhhhhhhh",
"hhhhhhhhhhhhhhhhhhhhhhhhhhhggggr22222222222222222:********hhhhhhhhhhhhhhhhhhhhhhhhhhhhhhhh",
"hhhhhhhhhhhhhhhhhhhhhhhhhhhggggr22222222222222222:********hhhhhhhhhhhhhhhhhhhhhhhhhhhhhhhh",
"hhhhhhhhhhhhhhhhhhhhhhhhhhhggggr22222222222222222:********hhhhhhhhhhhhhhhhhhhhhhhhhhhhhhhh",
"hhhhhhhhhhhhhhhhhhhhhhhhhhhggggr22222222222222222:********hhhhhhhhhhhhhhhhhhhhhhhhhhhhhhhh",
"hhhhhhhhhhhhhhhhhhhhhhhhhhhhhhhhhhhhO@OOhhhhhhhhhhhhhhXXXXhhhhhhhhhhhhhhhhhhhhhhhhhhhhhhhh",
"hhhhhhhhhhhhhhhhhhhhhhhhhhhhhhhhhhhhOOOOhhhhhhhhhhhhhhXXXXhhhhhhhhhhhhhhhhhhhhhhhhhhhhhhhh",
"hhhhhhhhhhhhhhhhhhhhhhhhhhhhhhhhhhhhOOOOhhhhhhhhhhhhhhXXXXhhhhhhhhhhhhhhhhhhhhhhhhhhhhhhhh",
"hhhhhhhhhhhhhhhhhhhhhhhhhhhhhhhhhhhhO@O@hhhhhhhhhhhhhhXXXXhhhhhhhhhhhhhhhhhhhhhhhhhhhhhhhh",
"hhhhhhhhhhhhhhhhhhhhhhhhhhhhhhhhhhhhhhhhhhhhhhhhhhhhhhhhhhhhhhhhhhhhhhhhhhhhhhhhhhhhhhhhhh",
"hhhhhhhhhhhhhhhhhhhhhhhhhhhhhhhhhhhhhhhhhhhhhhhhhhhhhhhhhhhhhhhhhhhhhhhhhhhhhhhhhhhhhhhhhh",
"hhhhhhhhhhhhhhhhhhhhhhhhhhhhhhhhhhhhhhhhhhhhhhhhhhhhhhhhhhhhhhhhhhhhhhhhhhhhhhhhhhhhhhhhhh",
"hhhhhhhhhhhhhhhhhhhhhhhhhhhhhhhhhhhhhhhhhhhhhhhhhhhhhhhhhhhhhhhhhhhhhhhhhhhhhhhhhhhhhhhhhh",
"hhhhhhhhhhhhhhhhhhhhhhhhhhhhhhhhhhhhhhhhhhhhhhhhhhhhhhhhhhhhhhhhhhhhhhhhhhhhhhhhhhhhhhhhhh"
};
