/* XPM */
static char *idle_1[] = {
/* columns rows colors chars-per-pixel */
"90 90 47 1 ",
"  c #4E4D5C",
". c #5C6D77",
"X c #6E7A80",
"o c #9A7880",
"O c #7B888F",
"+ c #728794",
"@ c #7C8990",
"# c #988B92",
"$ c #839198",
"% c #8A959A",
"& c #8799A4",
"* c #8A98A0",
"= c #8B99A1",
"- c #909FA7",
"; c #979DA5",
": c #93A0A7",
"> c #93A1AA",
", c #95A4AD",
"< c #98A4AA",
"1 c #9BA6AD",
"2 c #9DA7AD",
"3 c #9FA9AF",
"4 c #96A9B2",
"5 c #9BAAB3",
"6 c #A6AFB4",
"7 c #ABB7BF",
"8 c #B0BABF",
"9 c #E6A3A3",
"0 c #A7B8C2",
"q c #A9BAC1",
"w c #D6BFC1",
"e c #B1C4CB",
"r c #BBC5C9",
"t c #BAC4CA",
"y c #B7CAD0",
"u c #BDCCD0",
"i c #C3D3D8",
"p c #C6DBDE",
"a c #CCDBDF",
"s c #D4D2D3",
"d c #E3C8C8",
"f c #D1E0E2",
"g c #D3E4E6",
"h c #D7E7E8",
"j c #D9E9E9",
"k c #DFEDED",
"l c None",
/* pixels */
"llllllllllllllllllllllllllllllllllllllllllllllllllllllllllllllllllllllllllllllllllllllllll",
"llllllllllllllllllllllllllllllllllllllllllllllllllllllllllllllllllllllllllllllllllllllllll",
"llllllllllllllllllllllllllllllllllllllllllllllllllllllllllllllllllllllllllllllllllllllllll",
"llllllllllllllllllllllllllllllllllllllllllllllllllllllllllllllllllllllllllllllllllllllllll",
"llllllllllllllllllllllllllllllllllllllllllllllllllllllllllllllllllllllllllllllllllllllllll",
"llllllllllllllllllllllllllllllllllllllllllllllllllllllllllllllllllllllllllllllllllllllllll",
"llllllllllllllllllllllllllllllllllllllllllllllllllllllllllllllllllllllllllllllllllllllllll",
"llllllllllllllllllllllllllllllllllllllllllllllllllllllllllllllllllllllllllllllllllllllllll",
"llllllllllllllllllllllllllllllllllllllllllllllllllllllllllllllllllllllllllllllllllllllllll",
"llllllllllllllllllllllllllllllllllllllllllllllllllllllllllllllllllllllllllllllllllllllllll",
"llllllllllllllllllllllllllllllllllllllllllllllllllllllllllllllllllllllllllllllllllllllllll",
"llllllllllllllllllllllllllllllllllllllllllllllllllllllllllllllllllllllllllllllllllllllllll",
"llllllllllllllllllllllllllllllllllllllllllllllllllllllllllllllllllllllllllllllllllllllllll",
"llllllllllllllllllllllllllllllllllllllllllllllllllllllllllllllllllllllllllllllllllllllllll",
"llllllllllllllllllllllllllllllllppppllllllllllllllllllppppllllllllllllllllllllllllllllllll",
"llllllllllllllllllllllllllllllllppppllllllllllllllllllppppllllllllllllllllllllllllllllllll",
"llllllllllllllllllllllllllllllllppppllllllllllllllllllppppllllllllllllllllllllllllllllllll",
"llllllllllllllllllllllllllllllllppppllllllllllllllllllppppllllllllllllllllllllllllllllllll",
"lllllllllllllllllllllllllllppppw9999ppppllllllllllpppp9999wpppplllllllllllllllllllllllllll",
"lllllllllllllllllllllllllllppppw9999ppppllllllllllpppp9999wpppplllllllllllllllllllllllllll",
"lllllllllllllllllllllllllllppppw9999ppppllllllllllpppp9999wpppplllllllllllllllllllllllllll",
"lllllllllllllllllllllllllllppppw9999ppppllllllllllpppp9999wpppplllllllllllllllllllllllllll",
"lllllllllllllllllllllllllllppppw9999gggghllllllllhggggddddspppplllllllllllllllllllllllllll",
"lllllllllllllllllllllllllllppppw9999kkkkkkkkkkkkkkkkkkkkkkgpppplllllllllllllllllllllllllll",
"lllllllllllllllllllllllllllppppw9999kkkkkkkkkkkkkkkkkkkkkkgpppplllllllllllllllllllllllllll",
"lllllllllllllllllllllllllllppppw9999kkkkkkkkkkkkkkkkkkkkkkgpppplllllllllllllllllllllllllll",
"lllllllllllllllllllllllllllppppw9999kkkkkkkkkkkkkkkkkkkkkkgpppplllllllllllllllllllllllllll",
"lllllllllllllllllllllllppppkkkkkkkkkkkkkkkkkkkkkkkkkkkkkkkkkkkkkkkklllllllllllllllllllllll",
"lllllllllllllllllllllllppppkkkkkkkkkkkkkkkkkkkkkkkkkkkkkkkkkkkkkkkklllllllllllllllllllllll",
"lllllllllllllllllllllllppppkkkkkkkkkkkkkkkkkkkkkkkkkkkkkkkkkkkkkkkklllllllllllllllllllllll",
"lllllllllllllllllllllllppppkkkkkkkkkkkkkkkkkkkkkkkkkkkkkkkkkkkkkkkklllllllllllllllllllllll",
"lllllllllllllllllllllleyyyyiiiifkkkk;;;;rkkkkkkkkkkkkkkkkkr;;;;kkkkallllllllllllllllllllll",
"llllllllllllllllll0000000000000ikkkk    ;kkkkkkkkkkkkkkkkk;    kkkki0000llllllllllllllllll",
"llllllllllllllllll0000000000000ikkkk    ;kkkkkkkkkkkkkkkkk;    kkkki0000llllllllllllllllll",
"llllllllllllllllll0000000000000ikkkk    ;kkkkkkkkkkkkkkkkk;    kkkki0000llllllllllllllllll",
"llllllllllllllllll0000000000000ikkkk    ;kkkkkkkkkkkkkkkkk;    kkkki0000llllllllllllllllll",
"lllllllllllllllllllllllppppkkkkkkkkkkkkkkkkkkkkkk;    kkkkkkkkkkkkklllllllllllllllllllllll",
"lllllllllllllllllllllllppppkkkkkkkkkkkkkkkkkkkkkk;    kkkkkkkkkkkkklllllllllllllllllllllll",
"lllllllllllllllllllllllppppkkkkkkkkkkkkkkkkkkkkkk;    kkkkkkkkkkkkklllllllllllllllllllllll",
"lllllllllllllllllllllllppppkkkkkkkkkkkkkkkkkkkkkk;    kkkkkkkkkkkkklllllllllllllllllllllll",
"lllllllllllllllllllllleyyyyiiiigkkkkkkkkkkkkk;;;;#oooo;;;;rkkkkkkkkallllllllllllllllllllll",
"llllllllllllllllll0000000000000ikkkkkkkkkkkkk    o9999    ;kkkkkkkki0000llllllllllllllllll",
"llllllllllllllllll0000000000000ikkkkkkkkkkkkk    o9999    ;kkkkkkkki0000llllllllllllllllll",
"llllllllllllllllll0000000000000ikkkkkkkkkkkkk    o9999    ;kkkkkkkki0000llllllllllllllllll",
"llllllllllllllllll0000000000000ikkkkkkkkkkkkk    o9999    ;kkkkkkkki0000llllllllllllllllll",
"lllllllllllllllllllllllppppkkkkkkkkkkkkkkkkkkkkkkkkkkkkkkkkkkkkkkkklllllllllllllllllllllll",
"lllllllllllllllllllllllppppkkkkkkkkkkkkkkkkkkkkkkkkkkkkkkkkkkkkkkkklllllllllllllllllllllll",
"lllllllllllllllllllllllppppkkkkkkkkkkkkkkkkkkkkkkkkkkkkkkkkkkkkkkkklllllllllllllllllllllll",
"lllllllllllllllllllllllppppkkkkkkkkkkkkkkkkkkkkkkkkkkkkkkkkkkkkkkkklllllllllllllllllllllll",
"lllllllllllllllllllllllllllggggjkkkkkkkkkkkkkkkkkkkkkkkkkkkkkkklllllllllllllllllllllllllll",
"lllllllllllllllllllllllllllppppgkkkkkkkkkkkkkkkkkkkkkkkkkkkkkkklllllllllllllllllllllllllll",
"lllllllllllllllllllllllllllppppgkkkkkkkkkkkkkkkkkkkkkkkkkkkkkkklllllllllllllllllllllllllll",
"lllllllllllllllllllllllllllppppgkkkkkkkkkkkkkkkkkkkkkkkkkkkkkkklllllllllllllllllllllllllll",
"lllllllllllllllllllllllllllppppgkkkkkkkkkkkkkkkkkkkkkkkkkkkkkkklllllllllllllllllllllllllll",
"llllllllllllllllllllllllllllllll****666666666*==*<66666666llllllllllllllllllllllllllllllll",
"llllllllllllllllllllllllllllllll****666666666**=*<66666666llllllllllllllllllllllllllllllll",
"llllllllllllllllllllllllllllllll**==666666666;==*<66666666llllllllllllllllllllllllllllllll",
"llllllllllllllllllllllllllllllll**==666666666%%=*<66666666llllllllllllllllllllllllllllllll",
"lllllllllllllllllllllllllllllll4;--,qqqqqq8qq;;2<3666666662lllllllllllllllllllllllllllllll",
"llllllllllllllkkkklllllllll555555555ttewrrrti3666666666666<****lllllllllllllllllllllllllll",
"llllllllllllllkkkklllllllll555555555ttttttttr6666666666666<****lllllllllllllllllllllllllll",
"llllllllllllllkkkklllllllll555555555ttttttttt6666666666666<****lllllllllllllllllllllllllll",
"llllllllllllllkkkklllllllll555555544iqttttttt6666666666666<****lllllllllllllllllllllllllll",
"llllllllllllllllllkkkk0++++++++&5544oOO$OOOOO6666%XXXXXXXX@****....lllllllllllllllllllllll",
"llllllllllllllllllkkkkq++++++++&5555OOOOOOOOO6666%XXXXXXXX@****....lllllllllllllllllllllll",
"llllllllllllllllllkkkkq++++++++&5555OOOOOOOOO6666%XXXXXXXX@****....lllllllllllllllllllllll",
"llllllllllllllllllkkkkq++++++++&5555O@O@OOOOO6666%XXXXXXXX@****....lllllllllllllllllllllll",
"llllllllllllllllllllll4++++++++&5555*=*=:1111%%%%%%%%%@@@@$****....lllllllllllllllllllllll",
"lllllllllllllllllllllll++++++++&555555557rtttXXXX%6666=%*******....lllllllllllllllllllllll",
"lllllllllllllllllllllll++++++++&55555555qttttXXXX$6666==*******....lllllllllllllllllllllll",
"lllllllllllllllllllllll++++++++&555555557ttttXXXX%6666==*******....lllllllllllllllllllllll",
"lllllllllllllllllllllll++++++++&555555557ttttXXXX%6666==*******....lllllllllllllllllllllll",
"lllllllllllllllllllllllllllkkkku55555555555556666<==******llllllllllllllllllllllllllllllll",
"lllllllllllllllllllllllllllkkkku55555555555556666<=%******llllllllllllllllllllllllllllllll",
"lllllllllllllllllllllllllllkkkku55555555555556666<==******llllllllllllllllllllllllllllllll",
"lllllllllllllllllllllllllllkkkku55555555555556666>==******llllllllllllllllllllllllllllllll",
"llllllllllllllllllllllllllllllllllll=*=*-lllllllllllll@@@@llllllllllllllllllllllllllllllll",
"llllllllllllllllllllllllllllllllllll@O@OllllllllllllllXXXXllllllllllllllllllllllllllllllll",
"llllllllllllllllllllllllllllllllllllOOOOllllllllllllllXXXXllllllllllllllllllllllllllllllll",
"llllllllllllllllllllllllllllllllllllOOOOllllllllllllllXXXXllllllllllllllllllllllllllllllll",
"llllllllllllllllllllllllllllllllllll@O@OllllllllllllllXXXXllllllllllllllllllllllllllllllll",
"llllllllllllllllllllllllllllllllllllllllllllllllllllllllllllllllllllllllllllllllllllllllll",
"llllllllllllllllllllllllllllllllllllllllllllllllllllllllllllllllllllllllllllllllllllllllll",
"llllllllllllllllllllllllllllllllllllllllllllllllllllllllllllllllllllllllllllllllllllllllll",
"llllllllllllllllllllllllllllllllllllllllllllllllllllllllllllllllllllllllllllllllllllllllll",
"llllllllllllllllllllllllllllllllllllllllllllllllllllllllllllllllllllllllllllllllllllllllll",
"llllllllllllllllllllllllllllllllllllllllllllllllllllllllllllllllllllllllllllllllllllllllll",
"llllllllllllllllllllllllllllllllllllllllllllllllllllllllllllllllllllllllllllllllllllllllll",
"llllllllllllllllllllllllllllllllllllllllllllllllllllllllllllllllllllllllllllllllllllllllll",
"llllllllllllllllllllllllllllllllllllllllllllllllllllllllllllllllllllllllllllllllllllllllll"
};
