/* XPM */
static char *_c5127da0f02453294dd2d00e4e648ccmdBpJWDOk12KZdDs[] = {
/* columns rows colors chars-per-pixel */
"96 96 67 1 ",
"  c #4E4D5B",
". c #5F6D76",
"X c #707A7F",
"o c #94797F",
"O c #909F78",
"+ c #AAC16E",
"@ c #ABC16F",
"# c #AAC26E",
"$ c #ABC26E",
"% c #AAC26F",
"& c #C4D37C",
"* c #C5D37C",
"= c #C4D37D",
"- c #C5D37D",
"; c #C4D47D",
": c #C5D47D",
"> c #7E888E",
", c #7E898F",
"< c #768793",
"1 c #818F99",
"2 c #8C9499",
"3 c #8D989F",
"4 c #9CAF89",
"5 c #A8B48D",
"6 c #AAB88F",
"7 c #A3AC93",
"8 c #B0BD96",
"9 c #8A98A2",
"0 c #8E99A0",
"q c #939BA0",
"w c #989DA4",
"e c #95A1A8",
"r c #9AA3A9",
"t c #9DA6AB",
"y c #9EAAB2",
"u c #A8AFB3",
"i c #ADB7BD",
"p c #ABB9BE",
"a c #DBA5A4",
"s c #DBA6A4",
"d c #B9C8A0",
"f c #BCD0A7",
"g c #BCD0A8",
"h c #C9D8AE",
"j c #C9D9AE",
"k c #C9D9AF",
"l c #CAD9AE",
"z c #CAD9AF",
"x c #D2DFB4",
"c c #D5E2B6",
"v c #E9EDB1",
"b c #AAB8C1",
"n c #D3BFC0",
"m c #B7C2C6",
"M c #BCC4C9",
"N c #BAC9CF",
"B c #C0CBCF",
"V c #D3C0C0",
"C c #DEC9C8",
"Z c #C5CED0",
"A c #C6D2D7",
"S c #CAD9DD",
"D c #CADADD",
"F c #CBDADD",
"G c #E8EFD1",
"H c #D6E3E5",
"J c #E2EDED",
/* pixels */
";;;;;;--&:::&&&:;;;**&;;;;;*;;;:::&;;&&&**;;;*****;;******:****&*;*&&&:;&&----;;;***;;*;;*;;;;;;",
";;;;;;---::;&&;;;;**;;;;;;;&;*;:;*&;;*&&****;;*;***;******;;***;**&&&;::&&;--*;;:;***;;;;**;;;;;",
";;&;;:-&-;:-;&&;;;&&;;;;;;;***;;:***;;&&*;*;*;;;;&****d&**:*;;;;***-&;::;&-&--;;;***;;;;*;*:;;;;",
";;;;--&&&---:;:-*;;*&;;;;**;*;;;:***&&&;;;;;;***&&***-&;::*****;:;;:;;;:;&;:;:::**;*;;***;;;;;;*",
";;;&&;&&-d--;::::***;;;***;;::;;****&;;*&&&;*;**&&&&&&;;;&&&;;;*;;*:;*;;&&&;::--&:::***;;*;;;:::",
";;;&&:&--&&-:;:;;:***;;*;&*;;*;*****;;****&&*;;;;&&&&&&;-&&***;*;;;;&;;;&;&:::-:::::;**;;&;;;;:;",
";;&;::;&-*&:--&&:;::;*&&;*;;::***&****;;*;*;*;**;*;*&&&&&-;*;:;;;***&;:*&&;-;-:;;&;;:-;*&&;**;;:",
";;;;:-;;**;&;&&&;*:;*:&&*;;;::**&&*****;;;&&&***;;**;;&&&&;;*;;;***-::::;&-&&;::-&;&:&*******;;:",
";&;**::;*******:;;;;;**&**;*::;**;*;&&&;;;&&:::*&&&;&&&&&&&d-***;;*;;;::&&****;;:&&;*::**;*;*;;;",
"***;;;*:*****:***&;;;;;&**;;*;**&;&;#$@;;;--*:*;;;;&&&&*&;:;-***;;**;*;:&&&$$$;;&$@@;*;:;;;;;*;:",
"&&**;*;:****;**:*&;;;**&;;**;;;**&&&$$@;;;--*:**;;;;&&;*&;;;****&&***;;;&&*$$$*&;@@@;;;;;;****;;",
"&;*;;;;;*******;*;;;;;*&**;;;;***;&&$$@:;;******;;;&;&;;&&&:*****;&**;;;&&*$$$**;@@@;;;;;;::;;;;",
";;&&;***;:::*::;&&&**;;**&&;;;;;&#@@;;;:;;;;;&**;;;;;;;;*&******;*;*;;&&&;;;*:$#$&-***::*:*;**&&",
";;&&***;;:::*:**&;*;;*;;&&&;**;;&#@#;;&;:&&;;-**;;;;;*;;***;****;*;;;&&&;;;;;;$$$;--**:*::;*;;&*",
";;;**;**;**:::;***;;;;*;;;&*****;##@&;&;-;;;:&d*;;;;**;;;;;;****;*;;;*&;;;;;**$$$&&d****::***;**",
";;;;**;;;;;;;;;;;;;*;***&**;****;#@@&&;&:&&&-;-***;;&&&;*&**;***;;;;;***;;;*;**:&&&&****;****&;;",
";;;;;****;;;;;&&;;********&&&&**:$$#&&::::&&&&;;**&&&&&&&&&&&;;;;;;;*;&&;;;;;;::;&**&&&;****--&&",
";**;;;****;;;;&&;;********&&*d**:#$#&&&&::&:&&;;;*&&*;;*&&*;;;;;;&;;;;&&;*;;::::*&**&&&*****-&&&",
"*&&&*;&;:::;$$$&&&d*****;**;****:&::&&::&&::&;;;;;&;**&&&&&&&;*;&&&&;&&&&&*;;;****;;&;;*::****&&",
"*&&&&&&*:::;$$$&&&*********;****::::::::;;;;;;;&***;;;&&&&&&&***&&&&**&&&&**;;;;**;;&*;*::****&d",
";*&*&&;;;;;;###*:****:::&;&;;&&;&jjjjj::;::&&&&&*;*;;;&&&&jjjjj&&&&&&*&*&;*;;;;;*;;;**;*:::;;&&&",
"*;;*&&**&&*;&&*#$$::***:&;;;;;;;:DDDDD::;;;&&&&&&*;***&&&&DDDDD&&&&&&;;;&*:;*:***;;;**;*::::&&;&",
";;;;&&&&&&**&&&#$$:::***;;;;;*&;&FFFDD:::::&&&&&&;;**&&&&&DDDDD&&&&&&;;;&;;;;;**:;::***;;;::&;;&",
";;&&&&&&&&*;;;*#$$:*:*:*;;*;;;&&&FFFDD::::&&&&&&&;;**&&&&&DDDDD&&&&**;;;;;*;::**:;;:;;;;;;:*&&;&",
"****&&&&&&&&&&&#$$**&&&&&&&&&&##$DFFFF&&&&&&&&&&&&&&;;;;&&DDDSS&&&&&&&&&&&&&&&&&;;&&&&&&&&&&&&&&",
"****&&&&&&&&&&&#$$::&&&&&&&&hhffghnnnnzzjjj&&&&&&&&&&kkkjjnjnnnhjjjj&&&&&&&&&&&&**&&&&&&&&&&&&&&",
"&&**&&&&&&&&&&&#$$::&&&&&&&&DDDDSaaaaaDSDDF&&&&&&&&&&DFFDDssaaaSDDDD&&&&&&&&&&&&**&&&&&&&&&&&&&&",
"&&&*&&&&&&&&&&&&&&::&&&&&&&#DDDDSaaaaaDSDFF&&&&&&&&&&DFFDDssaaaSDDDD&&&&&&&&&&&&**&&&&&&&&&&&&&&",
"&&&&&&&&&&&&&&&&&&&&&&&&&&*#DDDDFsssasDDFFF&***d&&&&;FFFFFssaaaSDDDD&&&&&&&&&&&&&&&&&&&&&&&&&&&&",
"&&&&&&&&&&&&&&&&&&&&&&&&&&*#DDDDFsssasDDFFF&***d&&&&;FFFFFsaaaaSDDDD&&&&&&&&&&&&&&&&&&&&&&&&&&&&",
"&&&&&&&&&&&&&&&&&&&&&&&&&&&#SDDDFsssssHHHHHlvvcccccccHHHHHCCCCCSDDDD&&&&&&&&&&&&&&&&&&&&&&&&&&&&",
"&&&&&&&&&&&&&&&&&&&&&&&&&&&#DDDDFssssaJJJJJJJJJJJJHHJJJJJJJJJJJSDDDD&&&&&&&&&&&&&&&&&&&&&&&&&&&&",
"&&&&&&&&&&&&&&&&&&&&&&&&&&&#DDDDFsssssHJJJJJJJJJJJJJJJJJJJJJJJJDDDDD&&&&&&&&&&&&&&&&&&&&&&&&&&&&",
"&&&&&&&&&&&&&&&&&&&&&&&&&&&&DDDDDsssssJJJJJJJJJJJJJJJJJJJJJJJJJDDDDD&&&&&&&&&&&&&&&&&&&&&&&&&&&&",
"&&&&&&&&&&&&&&&&&&&&&&&&&&&&DDDDDsssssJJJJJJJJJJJJJJJJJJJJJJJJJDDDDD&&&&&&&&&&&&&&&&&&&&&&&&&&&&",
"&&&&&&&&&&&&&&&&&&&&&&&hjjjjHHHHHCCCCCJJJJJJJJJJJJJJJJJJJJJJJJJHHHHHccccc&&&&&&&&&&&&&&&&&&&&&&&",
"&&&&&&&&&&&&&&&&&&&&&&&DDDDDJJJJJJJJJJJJJJJJJJJJJJJJJJJJJJJJJJJJJJJJJJJJJ&&&&&&&&&&&&&&&&&&&&&&&",
"&&&&&&&&&&&&&&&&&&&&&&&DDDDDJJJJJJJJJJJJJJJJJJJJJJJJJJJJJJJJJJJJJJJJJJJJJ&&&&&&&&&&&&&&&&&&&&&&&",
"&&&&&&&&&&&&&&&&&&&&&&&DDDDDJJJJJJJJJJJJJJJJJJJJJJJJJJJJJJJJJJJJJJJJJJJJJ&&&&&&&&&&&&&&&&&&&&&&&",
"&&&&&&&&&&&&&&&&&&&&&&&DDDDDJJJJJJJJJJJJJJJJJJJJJJJJJJJJJJJJJJJJJJJJJJJJJ&&&&&&&&&&&&&&&&&&&&&&&",
"&&&&&&&&&&&&&&&&&&dddddNNNNNAAAADJJJJJwwwwwJJJJJJJJJJJJJJJJJJJJwwwwwJJJJJddddd&&&&&&&&&&&&&&&&&&",
"&&&&&&&&&&&&&&&&&&bbbbbbbbbbbbbbbJJJJJ     JJJJJJJJJJJJJJJJJJJJ     JJJJJbbbbb&&&&&&&&&&&&&&&&&&",
"&&&&&&&&&&&&&&&&&&bbbbbbbbbbbbbbbJJJJJ     JJJJJJJJJJJJJJJJJJJJ     JJJJJbbbbb&&&&&&&&&&&&&&&&&&",
"&&&&&&&&&&&&&&&&&&bbbbbbbbbbbbbbbJJJJJ     JJJJJJJJJJJJJJJJJJJJ     JJJJJbbbbb&&&&&&&&&&&&&&&&&&",
"&&&&&&&&&&&&&&&&&&bbbbbbbbbbbbbbbJJJJJ     JJJJJJJJJJJJJJJJJJJJ     JJJJJbbbbb&&&&&&&&&&&&&&&&&&",
"&&&&&&&&&&&&&&&&&&dddddNNNNNAAAASJJJJJwwwwwJJJJJJJJJJwwwwwJJJJJwwwwwJJJJJddddd&&&&&&&&&&&&&&&&&&",
"&&&&&&&&&&&&&&&&&&&&&&&DDDDDJJJJJJJJJJJJJJJJJJJJJJJJJ     JJJJJJJJJJJJJJJ&&&&&&&&&&&&&&&&&&&&&&&",
"&&&&&&&&&&&&&&&&&&&&&&&DDDDDJJJJJJJJJJJJJJJJJJJJJJJJJ     JJJJJJJJJJJJJJJ&&&&&&&&&&&&&&&&&&&&&&&",
"&&&&&&&&&&&&&&&&&&&&&&&DDDDDJJJJJJJJJJJJJJJJJJJJJJJJJ     JJJJJJJJJJJJJJJ&&&&&&&&&&&&&&&&&&&&&&&",
"&&&&&&&&&&&&&&&&&&&&&&&DDDDDJJJJJJJJJJJJJJJJJJJJJJJJJ     JJJJJJJJJJJJJJJ&&&&&&&&&&&&&&&&&&&&&&&",
"&&&&&&&&&&&&&&&&&&dddddNNNNNAAAAAJJJJJJJJJJJJJJJwwwwwooooowwwwwJJJJJJJJJJddddd&&&&&&&&&&&&&&&&&&",
"&&&&&&&&&&&&&&&&&&bbbbbbbbbbbbbbbJJJJJJJJJJJJJJJ     sssss     JJJJJJJJJJbbbbb&&&&&&&&&&&&&&&&&&",
"&&&&&&&&&&&&&&&&&&bbbbbbbbbbbbbbbJJJJJJJJJJJJJJJ     sssss     JJJJJJJJJJbbbbb&&&&&&&&&&&&&&&&&&",
"&&&&&&&&&&&&&&&&&&bbbbbbbbbbbbbbbJJJJJJJJJJJJJJJ     sssss     JJJJJJJJJJbbbbb&&&&&&&&&&&&&&&&&&",
"&&&&&&&&&&&&&&&&&&bbbbbbbbbbbbbbbJJJJJJJJJJJJJJJ     sssss     JJJJJJJJJJbbbbb&&&&&&&&&&&&&&&&&&",
"&&&&&&&&&&&&&&&&&&dddddNNNNNAAAAAJJJJJJJJJJJJJJJwwwwwCCCCCwwwwwJJJJJJJJJJddddd&&&&&&&&&&&&&&&&&&",
"&&&&&&&&&&&&&&&&&&&&&&&DDDDDJJJJJJJJJJJJJJJJJJJJJJJJJJJJJJJJJJJJJJJJJJJJJ&&&&&&&&&&&&&&&&&&&&&&&",
"&&&&&&&&&&&&&&&&&&&&&&&DDDDDJJJJJJJJJJJJJJJJJJJJJJJJJJJJJJJJJJJJJJJJJJJJJ&&&&&&&&vvv&&&vvv&&&&&&",
"&&&&&&&&&&&&&&&&&&&&&&&DDDDDJJJJJJJJJJJJJJJJJJJJJJJJJJJJJJJJJJJJJJJJJJJJJ&&&&&&&&vvv&&&vvv&&&&&&",
"&&&&&&&&&&&&&&&&&&&&&&&DDDDDJJJJJJJJJJJJJJJJJJJJJJJJJJJJJJJJJJJJJJJJJJJJJ&&&&&&&&vvv&&&vvv&&&&&&",
"&&&&&&&&&&&&&&&&&&&&&&&jjjjjHHHHHJJJJJJJJJJJJJJJJJJJJJJJJJJJJJJJJJJJccccc&&&&&&&&&&&vvv&&&&&&&&&",
"&&&&&&&&&&&&&&&&&&&&&&&&&&&&DDDDDJJJJJJJJJJJJJJJJJJJJJJJJJJJJJJJJJJJ&&&&&&&&&&&&&&&&vvv&&&&&&&&&",
"&&&&&&&&&&&&&&&&&&&&&&&&&&&&DDDDDJJJJJJJJJJJJJJJJJJJJJJJJJJJJJJJJJJJ&&&&&&&&&&&&&&&&vvv&&&&&&&&&",
"&&&&&&&&&&&&&&&&&&&&&vvv&&&&DDDDDJJJJJJJJJJJJJJJJJJJJJJJJJJJJJJJJJJJ&&&&&&&&&&&&&&&&&&&&&&&&&&&&",
"&&&&&&&&&&&&&&&&&&&&&vvv&&&&DDDDDJJJJJJJJJJJJJJJJJJJJJJJJJJJJJJJJJJJ&&&&&&&&&&&&&&&&&&&&&&&&&&&&",
"&&&&&&&&&&&&&&&&&&&&&vvv&&&&pppppmmmmmZZZZZZZZZZZZZZZZZZZZZZZZZmmmmm&&&&&&&&&&&&&&&&&&&&&&&&&&&&",
"&&&&&&&&&&&&&&&&&&vvv&&&&&&&3303333333uuuuuuuuuuuuuuuuuuuuuuuuu33333&&&&&&&&&&&&&&&&&&&&&&&&&&&&",
"&&&&&&&&&&&&&&&&&&vvv&&&&&&&3333333333uuuuuuuuuuuuuuuuuuuuuuuuu33333&&&&&&&&&&&&&&&&&&&&&&&&&&&&",
"&&&&&&&&&&&&&&&&&&vvv&&&&&&&3333q00033uuuuuuuuuuuuuuuuuuuuuuuuu33333&&&&&&&&&&&&&&&&&&&&&&&&&&&&",
"&&&&&&&&&vvv&&&&&&vvv&&&&&&&3333999030uuuuuuuuuuuuuuuuuuuuuuuuu33333&&&&&&&&&&&&&&&&&&&&&&&&&&&&",
"&&&&&&&&&vvv&cccccvvv&&444441111,eeeweqqqqqqqqqquuuuu222222222233333OOOOO&&&&&&&&&&&&&&&&&&&&&&&",
"&&&&&&&&&vvv&JJJJJvvv&&<<<<<<<<<<yyyyy>>>>>>>>>>uuuuuXXXXXXXXXX33330.....&&&&&&&&&&&&&&&&&&&&&&&",
"&&&&&&&&&&&&vJJJJJvvv&&<<<<<<<<<<yyyyy>>>>>>>>>>uuuuuXXXXXXXXXX33333.....&&&&&&&&&&&&&&&&&&&&&&&",
"&&&&&&&&&&&&vJJJJJvvv&&<<<<<<<<<<yyyyy>>>>>>>>>>uuuuuXXXXXXXXXX33333.....&&&&&&&&&&&&&&&&&&&&&&&",
"&&&&&&&&&&&&vJJJJJvvv&&<<<<<<<<<<yyyyy>>>>>>>>>>uuuuuXXXXXXXXXX33333.....&&&&&&&&&&&&&&&&&&&&&&&",
"&&&&&&&&&&&&vJJJJJ&&&&&<<<<<<<<<<yyyyy00000ttttr2222222222,,,,,33333.....&&&&&&&&&&&&&&&&&&&&&&&",
"&&&&&&&&&&&&vJJJJJ&&&&&<<<<<<<<<<yyyyyyyyyyMMMMMXXXXXuuuuu3333333333.....&&&&&&&&&&&&&&&&&&&&&&&",
"&&&&&&&&&&&&vJJJJJ&&&&&<<<<<<<<<<yyyyyyyyyyMMMMMXXXXXuuuuu3333333333.....&&&&&&&&&&&&&&&&&&&&&&&",
"&&&&&&&&&&&&vJJJJJ&&&&&<<<<<<<<<<yyyyyyyyyyMMMMMXXXXXuuuuu3333333333.....&&&&&&&&&&&&&&&&&&&&&&&",
"&&&&&&&&&&&&vJJJJJ&&&&&<<<<<<<<<<yyyyyyyyyyMMMMmXXXXXuuuuu3333333333.....&&&&&&&&&&&&&&&&&&&&&&&",
"&&&&&&&&&&&&vGGcccccccc4444499993yyyyyyyyyypiiii22222rrrrr33333333337OOOO&&&&&&&&&&&&&&&&&&&&&&&",
"&&&&&&&&&&&&&&&&&&JJJJJ&&&&&yyyyyyyyyyyyyyyyyyyyuuuuu333333333333333&&&&&&&&&&&&&&&&&&&&&&&&&&&&",
"&&&&&&&&&&&&&&&&&&JJJJJ&&&&&yyyyyyyyyyyyyyyyyyyyuuuuu333333333333333&&&&&&&&&&&&&&&&&&&&&&&&&&&&",
"&&&&&&&&&&&&&&&&&&JJJJJ&&&&&yyyyyyyyyyyyyyyyyyyyuuuuu333333333333333&&&&&&&&&&&&&&&&&&&&&&&&&&&&",
"&&&&&&&&&&&&&&&&&&JJJJJ&&&&*yuuyuyyyyyyyyyyyyyyyuuuuu333333333333000&&&&&&&&&&&&&&&&&&&&&&&&&&&&",
"&&&&&&&&&&&&&&&&&&ccccccccccNNNNNyyyyyyyyyyyyyyyrrrrr333333333355566&&&&&&&&&&&&&&&&&&&&&&&&&&&&",
"&&&&&&&&&&&&&&&&&&&&&&&JJJJJJJJJJyyyyyyyyyyyyyyy333333333333333&&&;&&&&&&&&&&&&&&&&&&&&&&&&&&&&&",
"&&&&&&&&&&&&&&&&&&&&&&&JJJJJJJJJJyyyyyyyyyyyyyyy333333333333333&&&&&&&&&&&&&&&&&&&&&&&&&&&&&&&&&",
"&&&&&&&&&&&&&&&&&&&&&&&JJJJJJJJJJyyyyyyyyyyyyyyy333333333333333&&&&&&&&&&&&&&&&&&&&&&&&&&&&&&&&&",
"&&&&&&&&&&&&&&&&&&&&&&&JJJJJJJJJJyyyyyyyyyyyyyyy333333333333333&&&&&&&&&&&&&&&&&&&&&&&&&&&&&&&&&",
"&&&&&&&&&&&&&&&&&&&&&&&xcxxxxxxxc888888888888888555555555555555&&&&&&&&&&&&&&&&&&&&&&&&&&&&&&&&&",
"&&&&&&&&&&&&&&&&&&&&&&&&&&&&&&&&&&&&&&&&&&&&&&&&&&&&&&&&&&&&&&&&&&&&&&&&&&&&&&&&&&&&&&&&&&&&&&&&",
"&&&&&&&&&&&&&&&&&&&&&&&&&&&&&&&&&&&&&&&&&&&&&&&&&&&&&&&&&&&&&&&&&&&&&&&&&&&&&&&&&&&&&&&&&&&&&&&&",
"&&&&&&&&&&&&&&&&&&&&&&&&&&&&&&&&&&&&&&&&&&&&&&&&&&&&&&&&&&&&&&&&&&&&&&&&&&&&&&&&&&&&&&&&&&&&&&&&",
"&&&&&&&&&&&&&&&&&&&&&&&&&&&&&&&&&&&&&&&&&&&&&&&&&&&&&&&&&&&&&&&&&&&&&&&&&&&&&&&&&&&&&&&&&&&&&&&&",
"&&&&&&&&&&&&&&&&&&&&&&&&&&&&&&&&&&&&&&&&&&&&&&&&&&&&&&&&&&&&&&&&&&&&&&&&&&&&&&&&&&&&&&&&&&&&&&&&"
};
