/* XPM */
static char *idle_1_exit[] = {
/* columns rows colors chars-per-pixel */
"96 96 91 1 ",
"  c #332B29",
". c #3B322E",
"X c #3D3330",
"o c #423733",
"O c #443A35",
"+ c #4A3F39",
"@ c #4E423C",
"# c #52453F",
"$ c #554741",
"% c #564941",
"& c #5C4D45",
"* c #5E4E48",
"= c #5B5143",
"- c #5E5149",
"; c #4E4D5C",
": c #615B47",
"> c #62544B",
", c #6B5C51",
"< c #66604A",
"1 c #6D694B",
"2 c #70694D",
"3 c #75734F",
"4 c #7A784F",
"5 c #746356",
"6 c #756C58",
"7 c #7B6A5D",
"8 c #7C7D53",
"9 c #5C6D77",
"0 c #857465",
"q c #8E7C6B",
"w c #9A787F",
"e c #828256",
"r c #858B55",
"t c #878B59",
"y c #8C8F5A",
"u c #8F925C",
"i c #90975B",
"p c #969D5E",
"a c #888164",
"s c #938E6F",
"d c #958272",
"f c #9A8776",
"g c #9EA662",
"h c #9FA962",
"j c #96A67A",
"k c #A5B366",
"l c #AFBE69",
"z c #A4C363",
"x c #AFC068",
"c c #B5C46C",
"v c #BCCE6F",
"b c #C0D470",
"n c #6E7B80",
"m c #7B888F",
"M c #728794",
"N c #7C8990",
"B c #8A959A",
"V c #AF9B84",
"C c #B29E8B",
"Z c #B4A38C",
"A c #8798A3",
"S c #8A98A0",
"D c #969DA4",
"F c #92A1A9",
"G c #99A5AB",
"H c #9BAAB3",
"J c #A6AFB4",
"K c #AAB7BE",
"L c #C1AE95",
"P c #C7B49B",
"I c #C9B59B",
"U c #E6A3A3",
"Y c #B7D1A3",
"T c #B8D1A3",
"R c #C6DAA9",
"E c #D1E2B0",
"W c #E1E6A5",
"Q c #E8EEAA",
"! c #A7B8C2",
"~ c #A8BAC1",
"^ c #D6BFC0",
"/ c #B4C2C6",
"( c #BAC4CA",
") c #B6C9D0",
"_ c #C2CED0",
"` c #C3D2D7",
"' c #C6DADE",
"] c #E2C7C7",
"[ c #E3C7C9",
"{ c #D2E3E5",
"} c #DFEDED",
/* pixels */
"bbbbbbbbbbbRbbbbbbbbbbbbbbbbbbbbbbbbbbbbbbbbbbbbbbbbbbbbbbbbbbbbbbbbbbbbbbbbbbbbbbbbbbbbbbbbbbbb",
"bbbbbbbbbbbbbbbbbbbbbbbbbbbbbbbbbbbbbbbbbbbbbbbbbbbbbbbbbbbbbbbbbbbbbbbbbbbbbbbbbbbbbbbbbbbbbbbb",
"bbbbbbbbbbbbbbbbbbbbbbbbbbbbbbbbbbbbbbbbbbbbbbbbbbbbbbbbbbbbbbbbbbbbbbbbbbbbbbbbbbbbbbbbbbbbbbbb",
"bbbbbbbbbbbbbbbbbbbbbbbbbbbbbbbbbbbbbWbbbbbbbbbbbbbbbbbbbbbbbbbbbbbbbbbbbbbbbbbbbbbbbbbbbbbbbbbb",
"bbbbbbbbbbbbbbbbbbbbbbbbbbbbbbbbbbbbbbbbbbbbbbbbbbbbbbbbbbbbbbbbbbbbbbbbbbbbbbbbbbbbbbbbbbbbbbbb",
"bbbbbbbbbbbbbbbbbbbbbbbbbbbbbbbbbbbbbbbbbbbbbbbbbbbbWbbbbbbbbbbbbbbbbbbbbbbbbbbbbbbbbbbbbbbbbbbb",
"bbbbbbbbbbbbbbbbbbbbbbbbbbbbbbbbbbbbbbbbbbbbbbbbbbbbbbbbbbbbbbbbbbbbbbbbbbbbbbbbbbbbbbbbbbbbbbbb",
"bbbbbbbbbbbbbbbbbbbbbbbbbbbbbbbbbbbbbbbbbbbbbbbbbbbbbbbbbbbbbbbbbbbbbbbbbbbWbbbbbbbbbbbbbbbbbbbb",
"bbbbbbbbbbbbbbbbWbbbbbbbbbbbbbbbbbbbbbbbbbbbbbbbbbbbbbbbbbbbbbbbbbbbbbbbbbbbbbbbbbbbbbbbbbbbbbbb",
"bbbbbbbbbbbbbbbbbbbbbbbbbbbbbbbbbbbbzzzbbbbbbbbbbbbbbbbbbbbbbbbbbbbbbbbbbbbzzzbbbbzbbbbbbbbbbbbb",
"bbbbbbbbbbbbbbbbbbbbbbbbbbbbbbbbbRQEYTxbbbbbbbbbbbbbbbbbbbERRREbbbbbbbbbbbbzzzbbbzzzbbbbbbbbbbbb",
"bbbbbbbbbbbbbbbbbbbbbbbbbbbbbbbbb'''''zbbbbbbbbbbbbbbbbbbb{''''bbbbbbbbbbbbzzzbbbzzzbbbbbbbbbbbb",
"bbbbbbbbbbbbbbbbbbbbbbbbbbbbbbbbb'''''bbbbbbbbbbbbbbbbbbbv'''''bbbbbbbbbbbbbbbvzzbbbbbbbbbbbbbbb",
"bbbbbbbbbbbbbbbbbbbbbbbbbbbbbbbbb'''''bbbbbbbbbbbbbbbbbbbv'''''bbbbbbbbbbbbbbbzzzbbbbbbbbbbbbbbb",
"bbbbbbbbbbbbbbbbbbbbbbbbbbbbbbbbb'''''bbbvi1212222tbbbbbbb'''''bbbbbbbbbbbbbbbzzzbbbbbbbbbbbbbbb",
"bbbbbbbbbbbbbbbbbbbbbbbbbbbbRRRRRE^^^^RRERR#####$%2bbRRRRR^^^]ERRREEbbbbbbbbbbbbbbbbbbbbbbbbbbbb",
"bbbbbbbbbbbbbbbbbbbbbbbbbbbb{''''UUUUU'''''$$$$+$$<bb'''''UUUUU'''''vvbbbbbbbbbbbbbbbbbbbbbbbbbb",
"bbbbbbbbbbbbbbbbbbbbbbbbbbbb'''''UUUUU'''''$$+$$ZPV&&'''''UUUUU'''''bbbbbbbbbbbbbbbbbbbbbbbbbbbb",
"bbbbbbbbbbbbvzzbbbbbbbbbbbbb'''''UUUUU'''''++$+&IPC$#'''''UUUUU'''''bbbbbbbbbbbbbbbbbbbbbbbbbbbb",
"bbbbbbbbbbbbzzzbbbbbbbbbbbbb'''''UUUUU'`'''>>>**PPZ>>''`''UUUUU'''''bbbbbbbbbbbbbbbbbbbbbbbbbbbb",
"bbbbbbbbbbbbzzzbbbbbbbbbbbbb'''''UUUUU{{{{{ILIIIPPPPP{{{{{]]]]]'''''bbbbbbbbbbbbbbbbbbbbbbbbbbbb",
"bbbbbbbbbbbbbbbzzvbbbbbbbbbb'''''UUUUU}}}}}}}}}}}}}}}}}}}}}}}}}'''''bbbvbbbbbbbbbbbbbbbbbbbbbbbb",
"bbbbbbbbbbbbbbbzzzbbbbbbblgg'''''UUUUU}}}}}}}}}}}}}}}}}}}}}}}}}'''''kkzvbRbbbbbbbbbbbbbbbbbbbbbb",
"bbbbbbbbbbbbbbbzzzbbbbbbbt$#'''''UUUUU}}}}}}}}}}}}}}}}}}}}}}}}}'''''$$ibbbbbbbbbbbbbbbbbbbbbbbbb",
"bbbbbbbbbbbbbbbzzzbbvvvvvu$$'''''UUUUU}}}}}}}}}}}}}}}}}}}}}}}}}`''')%%yvvvvvbbbbbbbbbbbbbbbbbbbb",
"bbbbbbbbbbbbbbbbzzbbttiui1$${{{{{[[[[[}}}}}}}}}}}}}}}}}}}}}}}}}{{{{{$$1tiuitvbvbbbbbbbbbbbbbbbbb",
"bbbbbbbbbbbbbbbbzzbv$$$'''')}}}}}}}}}}}}}}}}}}}}}}}}}}}}}}}}}}}}}}}}}}}}}%$$vvbbbbbbbbbbbbbbbbbb",
"bbbbbbbbbbbbbbbbvbbc@$$'''''}}}}}}}}}}}}}}}}}}}}}}}}}}}}}}}}}}}}}}}}}}}}}$$$vbbvbbbbbbbbbbbbbbbb",
"bbbbbbbbbbbbbbbbb861$$,'''''}}}}}}}}}}}}}}}}}}}}}}}}}}}}}}}}}}}}}}}}}}}}}-XX<33vbbbbbbbbbbbbbbbb",
"bbbbbbbbbbbbbbbbb#$$$$6'''''}}}}}}}}}}}}}}}}}}}}}}}}}}}}}}}}}}}}}}}}}}}}}-  $$=vbbbbbbbbbbbbbbbb",
"bbbbbbbbbbbbbbbbb##$$$5)))))))''_}}}}}DDDDD}}}}}}}}}}}}}}}}}}}}DDDFD}}}}}-  $$<bbbbbbbbbbbbbbbbb",
"bbbbbbbbbbbbbbbbb:Y!!!!!!!!!/!!!!}}}}};;;;;}}}}}}}}}}}}}}}}}}}};;;;;}}}}}!!/!Y#bbbbbbbbbbbbbbbbb",
"bbbvbbbbbbbbbbbbb*!!!!!!!!!!!!!!!}}}}};;;;;}}}}}}}}}}}}}}}}}}}};;;;;}}}}}K!!!!=vvbbbbvbbbbbbbbbb",
"bbbbbbbbbbbbbbbbb*!!!!!!!!!!!!!!!}}}}};;;;;}}}}}}}}}}}}}}}}}}}};;;;;}}}}}K!!!!&vbbbbbbbbbbbbbbbb",
"bbbbbbbbbbbbbbbbb*!!!!!!!!!!!!!!!}}}}};;;;;}}}}}}}}}}}}}}}}}}}};;;;;}}}}}!!!~!=bbbbbbbbbbbbbbbbb",
"bbbbbbbbbbbvbbbbb&$$570~))))`````}}}}}DDDDG}}}}}}}}}}DDDDD}}}}}DFGFF}}}}}.  ##-bbbbbbbbbbbbbbvbb",
"bbbbbbbbbbbbbbbbb&+&550'''''}}}}}}}}}}}}}}}}}}}}}}}}};;;;;}}}}}}}}}}}}}}}X..@$-vbbbbbbbbbbbbbbbb",
"bbbbbbbvbbvbvbbbb&##555'''''}}}}}}}}}}}}}}}}}}}}}}}}};;;;;}}}}}}}}}}}}}}}$$@@$-vbbbbbbbbbbbbbbbb",
"bbbbbbbbbbbbbbbbb&#&550'''''}}}}}}}}}}}}}}}}}}}}}}}}};;;;;}}}}}}}}}}}}}}}$$$$$%vbbbbbbbbbbvbbbbb",
"bvbbbbbbbbbbbbbbb&#&000'''''}}}}}}}}}}}}}}}}}}}}}}}}};;;;;}}}}}}}}}}}}}}}@@$$@=vbbbbbbbvbbbbbbbb",
"bbbbbvbbbbbbbbbbb&+*fff))))))`)'`}}}}}}}}}}}}}}}DDDDGwwwwwGDDDD}}}}}}}}}}#$$##&bbbbbbbbbbbbbbbbb",
"bbbbbbbbbbbbbvbbb&!!!!!!!!!!!!!!!}}}}}}}}}}}}}}};;;;;UUUUU;;;;;}}}}}}}}}}!!!~!&bvbbbbbbbbbbbbbbb",
"bbbbbbbbbbbbbbbbb&K!!!~!!!!!!!!!!}}}}}}}}}}}}}}};;;;;UUUUU;;;;;}}}}}}}}}}!~!!!&bbbbbbbbbbbbvbbbb",
"bbbbbbbbbbbbbbbbb&!!!!!!!!!!!!!!!}}}}}}}}}}}}}}};;;;;UUUUU;;;;;}}}}}}}}}}!!!!~&bbbbbbbbbbbbbbbbb",
"bbbbbbbbbvbbbbbbv&!!!!!!!!!!!!!!!}}}}}}}}}}}}}}};;;;;UUUUU;;;;;}}}}}}}}}}!!!~~&bbbbbbbbbbbbbbbbb",
"bbbbbbbbbbbbbbbvb&#&fff())))'')'`}}}}}}}}}}}}}}}DDDDD[[[[[DDGDD}}}}}}}}}}#$###&bbbbbbbbbbbbbbbvb",
"bbbbbbbbbbbbbbbbb&$&fff'''''}}}}}}}}}}}}}}}}}}}}}}}}}}}}}}}}}}}}}}}}}}}}}#####&bbbbbvbbbbbbbbbbb",
"bbbbbbbvbbbbbbbbb&$*fff'''''}}}}}}}}}}}}}}}}}}}}}}}}}}}}}}}}}}}}}}}}}}}}}#####&bbbbbbbbbbbbbbbbb",
"vbbbbbbbbbbbbbbbb&#&ffq'''''}}}}}}}}}}}}}}}}}}}}}}}}}}}}}}}}}}}}}}}}}}}}}#####&bbbbbbbbbbbbbbbbb",
"bbbbbbbbbbbbbbbbb&$&ffq'''''}}}}}}}}}}}}}}}}}}}}}}}}}}}}}}}}}}}}}}}}}}}}}#####&bbbbbbbbbbbbbbbbb",
"bbbbbbbbbbbbbbbbb&#&ffq550ff{{{{{}}}}}}}}}}}}}}}}}}}}}}}}}}}}}}}}}}}@#########&bbbbbbbbbbbbbbbbb",
"bbbbbbbbbbbbbbbbv&#&ffq550ff'''''}}}}}}}}}}}}}}}}}}}}}}}}}}}}}}}}}}}##########&bbbbbbbbbbbbbbbbb",
"bbbbbbbbbbbbbbbbb&#&ffq550ff'''''}}}}}}}}}}}}}}}}}}}}}}}}}}}}}}}}}}}######@###&bbbbbbbbbbbbbbbbb",
"bbbbbbbbbbbbbbbbb&#&ffq00aff'''''}}}}}}}}}}}}}}}}}}}}}}}}}}}}}}}}}}}#####@@O@#&bbbbbbbbbbbbbbbbb",
"bbbbbbbbbbbbbbbbb&$&ffffffff'''''}}}}}}}}}}}}}}}}}}}}}}}}}}}}}}}}}}}#####.  @#=bbbbbbbbbbbbbbbbb",
"bbbbbbbbbbbbbbvbb&#&fffffffffffff//((~E_________^!!~^``)_______;#  o#####.  @#&bbbbbbbbbbbbbbbbb",
"bbbbbbbbbbbbbbbbb&#&fffffq00qffffBSSSSJJJJJJJJJJSSSSAJJJJJJJJJJ@@  .####@o  @#=bbbbbbbbbbbbbbbbb",
"bbbbbbbbbvbbbbbbb&#&fffff055qffffSSSSSJJJJJJJJJJSSSSAJJJJJJJJJJ#@  .####@.  @@=bbWQQbbbWQQbbbbbb",
"bbbbbbvbbbbbbbbbb&#&fdfff055qfdffSSSSSJJJJJJJJJJSSSSSJJJJJJJJJJ#@  o####$o  @#=bbQQQbbbQQQbbbbbb",
"bbbbbbbbbbbbbbbbb&#%070ff055700dfSSSSSJJJJJJJJJJSSSSSJJJJJJJJJJ##++###O..   @#=bbQQQbbbQQbbbbbbb",
"bbbbbbbbbbbbbWREE&#%557ff055555dfFFFDF~~~~~~~!~~DDGGDJJJJJJJJJJ@######o     @#=bbbbbQQQbbbbbbbbb",
"bbbbbbbbbbbbb{}}}}#%550ff055HHHHHHHHHH^_((_^(^_(JJJJJJJJJJJJJJJASSSS##o     @#=bbbbbQQQbbbbbbbbb",
"bbbbbbbbbbbbb}}}}}#$557ffffdHHHHHHHHHH/)((((((((JJJJJJJJJJJJJJJASSBD##o  o+@###bbbbbQQQbbbbbbbbb",
"bbbbbbbbbbbbb}}}}}##550fffffHHHHHHHHHJ(~((((((((JJJJJJJJJJJJJJJSSBBB##o  +$$##=bbbbbbbbbbbbbbbbb",
"bbbbbbbbbbbbb}}}}}##557fffffHHHHHHHHHJ~_^~)(((((JJJJJJJJJJJJJJJSSBSS##O  @####&bbbbbbbbbbbbbbbbb",
"bbbbbbbbbbbbbWEREE##550dffffBAAAAHHHHHGGHHGHGGHGJJJJJBBBBBBBBBBBSSSS  O#######&bbbbbbbbbbvbbbbbb",
"bbbbbbbbbbbbbbbbb:}}}}}MMMMMMMMMMHHHHHMNNNNNmNNNJJJJJmnnnnnnn9mDSSSS99999#####&bbbbbbbbbbbbbbbbv",
"bbbbbbbbbbbbbbbbb#}}}}}MMMMMmMMMMHHHHHNNNNNNmNNNJJJJJnnnnnnnnn9DSSSB99999#####&bbbbbbbbbbbbbbbbb",
"bbbbbbbbbbbbbbbbb#}}}}}MMMMMMMMMMHHHHHNNmmNNNNNNJJJJJnnnnnnnnnnSSASS99999#####&bbbbbbbbbbbbbbbbb",
"bbbbbvbbbQQQbbbbb:}}}}}MMMMMMMMMMHHHHJMMBnnBNNnBJJJJJ9nn9MnnnnnSSSSS99999#####&bbbbbbbbbbbbbbbbb",
"bbbbbbbbbWQQbbbbb###057MMMMMMMMMMHHHHHMFASSJGJGGDBBBBBBBBBNNNNNSSSAB99999#####&bvbbbbbbvbbbbbbbb",
"bbbbbbbbbQQQbbbbb:##255mMMMMMMMMMHHHHHHHHHH~(~((nnnnnJJJHYSSSSSSSSAB99999#####&bbbbbbbbbbbbvbbbb",
"bbbbbbbbbbbbQQQbv&#$555MMMMMMMMMMHHHHHHHHHH^((^_nnnnnJJJJJBSSSSSSSSS99999#####&bbbbbbbbbbbbbbbbb",
"bbbvbbbbbbbbQQQbv&$$&--MMMMMMMMMMHHHHHHHHHH_(~)~nnnnnJJJJJSSSSSSSSSS99999rhhhhhbbbbbbbbbbbbbbbbb",
"bbbbbbbbbbbbQQQbb=@$@$&MMMMMMMMMMHHHHHHHHHH~((~_nnnnnJJJJJSSSSSSFSSS99999hbbbbbbbbbbbbbbbvbbvbbb",
"bbbbbbbbbbbbQQQbb=$$@$=65555~~~~!HHHHHHHHHJ~~!KKBBBBBGFGGGSSSSS  ########hbbbbbbbbbbbbbbbbbbbbbb",
"bbbbbbbbbbbbWQQbbcccvcp%$$%%}}}}}HHHHHHHHHHHHHHHJJJJJSSSSSSSSSS#@##2cccccvbbbbbvbbbbbbvbbbbvbbbb",
"bbbbbbbbbbbbQQQbbbbbbbh@$$$$}}}}}HHHHHHHHHHHHHHHJJJJJSSSSSSSSSS####3bbbbbbbbbbbbbbbbbbbbbbbbbbbb",
"bbbbbbbzbbbbQQQbbbbbbbk-===-}}}}}HHHHHHHHHHHHHHHJJJJJSSSSSSSSSS#==-aQbbvbbvbbbbbbbbbbbbbbbbbbbbb",
"bbbbbbbbbbbbQQQbbbbvbvvvvvvv}}}}}HHHHHHHHHHHHHHHJJJJJSSSSSSSSSSbbbQQQbbbbbbbbbbbbbbbbbbbbbbbbbbb",
"bbbbbbbvbbbbQQQbbbbbbbbvbbbb4#####5555BBAAA55$############mmmmmbbbQQQbbbbbbbbbbbbbbbbbbbbbbbbbbb",
"bbbbbbbbbbbbbbbbbbbbbbbbbbbbr11123,,,,mBmmm55&##########:1nnnnnQQQbbbbbbbbbbbbbbbbbbbbbbbbbbbbbb",
"bbbbbbbbbbbbbbbbbbbbbbbbbbbbbbvbbW####Bnmmm55&##########ibnnnnnQQQbbbbbbbbbbbvbbbbbbbbbbbbbbbbbb",
"bbbbbbbbbbbbbbbbbbbbbbbbbbbbbbbbbW####mmmmm55&##########ibnnnnnQQQbbbbbbbbbbbbbbbbbbbbbbbbbvbbbb",
"bbbbbbbbbbbbbbbbbvbbbbbbbbbbbbbbbWuseemmmmm>>$####=erreezb9nnnnbbbbbbbbbbbbbbbbbbbbbbbbbbbbbbbbb",
"bbbbbbbbbbbbbbbbbbbbbbbbbbbbbbbbbQQQbbbi##########,bbbbbbbjjjpjvbbbbbbbbbbbbbbbbbbbbbbbbbbbbbbbb",
"bbbbbbbbbbbbbbbbbbbbbbvbbbbbbbvbbQQWbbbi#######$##<bbbbbbbbbbbbbbbbbbbbbbzbbbbbbbbbbbbbbbbbbvbbb",
"bbbvbbbbbbbbbbvbbbbbbbbbvbbbbbbbbbbbbbvzpppppppppphbbbbbbbbbbbbbbbbbbbbbbbbbbbbvbbbbvbbbbbbbbbbb",
"bbbbbbbbbbbbbbbbbbbbbbvbbbbbbbbvbbbbbbbbvbbbbbbbbbbbbbbbbbbbbbbbbbbbbbbbbbbbbbbbbbbbbbbbbbbbbzbb",
"bbbbbbbbbbbbbbbbbbbbbbbbbbbbbbbbbbbbbbbbbbbbbbbbbbbbbbbbbbbbbbbbbbbbbbbbbbbbbbbbbbbbbbbbbbbbbbbb",
"bbbbzbbbbbbbbbbbbbbbbbbbbbbbbbbbbbbbbbbbbbbbbbbvbbbbbbbbbbbbbbbbbbbbbbbbbbbbbbbbbbbbbbbbbbbbbbbb",
"bbbbbbbbbbbbbbbbbbbbbbbbbbbbbbbbbbbbbbbbbbbbbbbbbbbbbbbbbbbbbbbbbbbbbbbbbbbbbbvbbbbbbbbbbbbbbbbb",
"bbbbbbbbbbbvbbbbbbbbbbbbbbbbbbbbbbbbbbbbbbbbbbbbbbbbbbbvbbbbbbbbbbbbbbbbvbbbbbbbbbbbbbbbbbbbbbbb",
"bbbbbbbbbbbbbbbbbbbbbbbbbbbbbbbbbbvbbbbbbbbbbbbbbbbbbbbbbbbbbbbbbbbbbbbbbbbbbbbbbbbvbbbbbbbbbbbb",
"bbbbbbbbbbbbbbbbbbbbbbbbbbbbbbbbbbbbbbbbbbbbbbbbvbbbbbbbbbbbbbbbbvbbbbbbbbbbbbbbbbbbbbbbbbbbbbbb",
"bbbbbbbbbbbbbbbbbbbvbbbbbbvbbbbbbbbbbbbbbbbbbbbbbbbbbbbbbbbbbbbbbbbbbbbbbbbbbbbbbbbbbbbbbbbbbbbb"
};
