/* XPM */
static char *jump_7[] = {
/* columns rows colors chars-per-pixel */
"60 74 139 2 ",
"   c #4E4D5C",
".  c #575765",
"X  c #6A5D69",
"o  c #5C6D77",
"O  c #60616E",
"+  c #74626D",
"@  c #696B77",
"#  c #7D6772",
"$  c #647675",
"%  c #6D7F74",
"&  c #738574",
"*  c #79847D",
"=  c #7E8B7C",
"-  c #93A279",
";  c #9BAA79",
":  c #9FB571",
">  c #A9BC74",
",  c #A7BD7A",
"<  c #A4C362",
"1  c #ADC27B",
"2  c #BED275",
"3  c #C0D470",
"4  c #C2D57B",
"5  c #6E7A80",
"6  c #717D83",
"7  c #7E8784",
"8  c #75848C",
"9  c #7C878D",
"0  c #7B888F",
"q  c #728794",
"w  c #758B90",
"e  c #7E8B92",
"r  c #7C8E99",
"t  c #829085",
"y  c #879889",
"u  c #869196",
"i  c #8F9D94",
"p  c #859299",
"a  c #8D949B",
"s  c #8F9B9D",
"d  c #8FA199",
"f  c #94A596",
"g  c #95A59A",
"h  c #9AA69C",
"j  c #A0B38B",
"k  c #AABC95",
"l  c #8396A1",
"z  c #8A98A0",
"x  c #949DA4",
"c  c #98A2A7",
"v  c #9CADA0",
"b  c #95A4AD",
"n  c #9BA5AC",
"m  c #9BAAB3",
"M  c #A1B2A7",
"N  c #ADBEAD",
"B  c #A6AFB4",
"V  c #A4B1B1",
"C  c #A8B1B6",
"Z  c #ABBDB2",
"A  c #A5B3BB",
"S  c #ACB4BA",
"D  c #ACB9BE",
"F  c #BABBBE",
"G  c #DFB1B1",
"H  c #E6A3A3",
"J  c #E2ACAC",
"K  c #E4B2B1",
"L  c #AFC28C",
"P  c #AEC98A",
"I  c #B6CB80",
"U  c #B5C78F",
"Y  c #B5C88D",
"T  c #ACC09C",
"R  c #B2C49C",
"E  c #B5CA9A",
"W  c #AFC1A3",
"Q  c #B1C1A6",
"!  c #B8CAA3",
"~  c #B4C7AA",
"^  c #BCC8AF",
"/  c #AEC0B7",
"(  c #AFC2BE",
")  c #B3C5B9",
"_  c #C3D681",
"`  c #C2D982",
"'  c #C7D88B",
"]  c #C2D694",
"[  c #C8DA91",
"{  c #C2D69A",
"}  c #C2D89A",
"|  c #CBDD9D",
" . c #C3D6A0",
".. c #C6D9A3",
"X. c #CBDFA1",
"o. c #C6D9AC",
"O. c #CDCCBC",
"+. c #C5DBB1",
"@. c #D3E1B5",
"#. c #D4E4BE",
"$. c #E8EEAA",
"%. c #A7B8C2",
"&. c #ACBCC4",
"*. c #B2BCC0",
"=. c #B7C1C5",
"-. c #B3C6CA",
";. c #BAC4CA",
":. c #BFC9CD",
">. c #B7C9D0",
",. c #BACDD3",
"<. c #CFCBC3",
"1. c #D0C9CA",
"2. c #C4DAC3",
"3. c #C2D9CA",
"4. c #C3CFD1",
"5. c #C3D2D5",
"6. c #C8D4D6",
"7. c #C6DBD1",
"8. c #C1D5D9",
"9. c #C6DBDE",
"0. c #CCD9DB",
"q. c #D1DFDE",
"w. c #DFDCDC",
"e. c #E1D1D1",
"r. c #E1DBDA",
"t. c #D7E5CC",
"y. c #D8E6CE",
"u. c #D6E8CC",
"i. c #D8E9CC",
"p. c #D7E7D7",
"a. c #D6E9D7",
"s. c #D9EAD7",
"d. c #DBECDF",
"f. c #CBDDE0",
"g. c #D2E3E4",
"h. c #D8E6E7",
"j. c #DDEEE7",
"k. c #DFEDED",
"l. c #E1EFE4",
/* pixels */
"3 3 3 3 3 3 3 3 3 3 3 3 3 3 3 3 7.9.9.9.3.3 3 3 3 3 3 3 3 3 3 3 3 3 3 3 3 3 3 t.9.f.9.9.2 3 3 3 3 3 3 3 3 3 3 3 3 3 3 3 ",
"3 3 3 3 3 3 3 3 3 3 3 3 3 3 3 3 7.9.9.9.3.3 3 3 3 3 3 3 3 3 3 3 3 3 3 3 3 3 4 +.9.9.9.,.3 3 3 3 3 3 3 3 3 3 3 3 3 3 3 3 ",
"3 3 3 3 3 3 3 4 3 3 3 3 < < < 3 7.9.9.9.3.3 3 3 3 3 3 3 4 3 3 3 3 3 3 3 3 3 3 2.9.9.9.7.3 3 3 3 3 3 3 3 3 3 3 3 3 3 3 3 ",
"3 3 3 3 3 3 3 3 3 3 3 3 < < < 3 7.9.9.9.3.3 3 3 3 3 3 3 3 3 3 3 3 3 3 3 3 3 3 2.f.9.9.9.3 3 3 3 3 3 3 3 3 3 3 3 3 3 3 3 ",
"3 3 3 3 3 3 3 3 3 3 3 4 Y P P E <.1.1.1.O.E { E [ _ 3 3 3 3 3 3 3 3 4 ] [ E [ O.<.1.1.1.[ E } E ` 3 3 3 3 3 3 3 3 3 3 3 ",
"3 3 3 4 3 3 3 3 3 < < E a.f.9.q.J H H H J f.f.f.f.{ 3 3 3 3 3 3 3 3 ] 9.f.f.9.G H H H H 9.9.f.9.@.3 3 3 3 3 3 3 3 3 3 3 ",
"3 3 3 3 3 3 3 3 3 < < E 9.9.9.9.J H H H J f.f.8.f.} 3 3 3 3 3 3 3 3 ] 9.9.9.9.G H H H H 9.9.9.9.X.2 2 3 3 3 3 3 3 3 4 3 ",
"3 3 3 3 3 3 3 3 3 < < E 9.9.9.9.J H H H G 9.8.f.f.E 3 3 3 3 3 3 3 3 ] 9.9.9.9.K H H H J 9.9.9.9.+.2 3 3 3 3 3 3 3 3 3 3 ",
"3 3 3 3 3 3 3 3 3 < < E 9.9.9.9.J H H H J 8.f.f.9.{ 3 2 3 3 3 3 3 3 ] 9.f.f.8.G H H H H 8.f.9.9.X.3 3 3 3 3 3 3 3 3 3 3 ",
"3 3 3 3 3 3 3 3 3 < < E 9.9.9.9.J H H H K h.h.k.h.p.y.t.i.t.t.w.u.y.a.h.h.k.h.g.r.r.r.w.9.9.9.9.X.3 3 3 3 3 3 2 3 3 3 3 ",
"3 4 3 3 3 3 3 3 3 < < E 9.9.9.9.J H H H K k.l.k.k.k.k.k.k.k.k.k.k.k.k.k.k.k.k.k.k.k.k.k.9.9.9.9.o.2 3 3 3 3 2 2 3 3 3 3 ",
"3 3 3 3 3 3 3 3 3 3 3 X.9.9.9.9.J H H H K l.k.k.k.k.k.k.k.l.k.k.k.k.k.k.k.k.k.k.k.k.k.k.9.9.9.9.X.2 3 3 3 3 2 2 3 3 3 3 ",
"3 3 3 3 2 3 3 3 3 3 3 ! 9.9.9.9.J H H H K k.k.k.k.k.k.k.k.k.k.k.k.k.k.k.k.k.k.k.k.k.k.k.f.8.f.9.o.3 2 3 2 2 2 2 3 3 3 3 ",
"3 3 3 3 2 2 2 3 3 4 4 X.9.9.f.9.J J H H K k.k.k.k.k.k.k.k.k.k.k.k.k.k.k.k.k.k.k.k.k.k.h.9.f.9.f.+.2 4 4 2 2 2 2 3 4 3 3 ",
"2 2 ~ -.%.%.-.9.f.9.9.g.k.k.j.k.k.k.k.k.k.k.k.k.k.k.k.k.k.k.k.k.k.k.k.k.k.l.k.k.k.k.k.k.k.k.k.k.k.k.j.k.k.-.%.%.) ~ 3 3 ",
"2 2 / %.%.%.%.9.9.9.9.g.k.k.k.k.k.k.k.k.k.k.k.k.k.k.k.k.k.k.k.k.k.k.k.k.k.k.k.k.k.k.k.k.k.k.k.h.k.j.k.k.j.-.%.A -.) 3 3 ",
"2 2 N A %.%.%.9.9.9.9.g.k.k.k.k.k.k.k.k.k.k.k.k.k.k.k.k.k.k.k.k.k.k.k.k.k.k.k.k.k.k.k.k.k.k.k.k.k.k.k.k.k.&.%.%.%.Z 3 3 ",
"3 3 N -.%.%.%.9.9.f.9.f.k.k.k.l.k.k.k.k.k.k.k.k.k.k.k.k.k.k.k.k.k.k.k.k.k.k.k.k.k.k.k.k.k.k.k.k.k.k.k.k.k.-.%.%.%.Z 3 3 ",
"3 3 2 P E E R >.>.>.>.,.,.8.8.8.k.k.k.k.f.x x x x 4.k.k.k.k.k.k.k.k.k.k.k.k.k.k.k.k.k.l.x x x x -.k.k.k.k.! E E E U 3 3 ",
"3 3 2 2 2 2 2 %.%.%.%.%.%.%.%.%.h.k.k.k.4.        C k.k.k.k.k.k.k.k.k.k.k.k.k.k.k.k.k.g.        a k.k.k.j.4 3 3 3 3 3 3 ",
"3 3 2 2 2 2 2 / %.%.%.%.%.%.%.%.h.k.k.k.4.        C l.k.k.k.k.k.k.k.k.k.k.k.k.k.k.k.k.h.        a j.k.k.k.` 2 3 3 3 3 3 ",
"3 3 2 2 2 2 2 Z %.%.%.%.%.%.%.%.h.k.k.k.4.        C k.k.k.k.k.k.k.k.k.k.k.k.k.k.k.k.k.g.        a k.k.k.k.` 3 2 3 3 3 3 ",
"3 3 2 2 2 2 2 %.-.%.%.%.%.%.-.%.h.k.k.k.4.        S k.k.k.k.k.k.k.k.k.k.k.k.k.l.k.k.k.g.        a k.k.k.k.` 2 2 3 3 3 3 ",
"3 3 W Z / / ( ,.,.9.,.f.g.g.h.h.k.k.k.k.4.        S k.k.k.k.k.k.k.k.*.X O O O 4.k.k.k.g.        a l.k.k.k.=.Z Z Z N 3 3 ",
"3 3 T Z %.%.%.9.9.9.9.g.k.k.k.k.k.k.k.k.4.        C k.k.k.k.k.k.k.k.*.        *.k.k.k.g.        a k.k.k.k.%.%.%.D Z 3 3 ",
"3 3 Q %.%.%.%.9.9.9.9.g.k.k.k.k.k.k.k.k.4.        C k.k.k.k.k.k.k.k.*.        :.k.k.k.h.        a k.k.k.k.-.%.%.%.N 3 3 ",
"2 2 Z %.A %.-.f.9.f.9.g.k.k.k.k.k.k.k.k.4.        C k.k.k.k.k.k.k.k.*.        *.k.k.l.g.        a k.k.k.k.-.%.%.%.N 2 2 ",
"2 2 T / Z Z / ,.9.,.,.9.g.g.g.g.k.k.k.k.0.@ @ @ @ *.k.k.k.k.6.4.6.6.B X X X X *.4.4.4.4.@ @ @ @ c k.k.k.k.( Q / Z N 2 2 ",
"3 3 3 3 3 2 2 %.%.%.%.%.%.%.%.%.h.k.k.k.k.k.k.k.k.k.k.k.k.k.        # H H H H +       . k.k.k.k.k.k.k.k.k.` 3 3 3 3 3 3 ",
"3 3 3 3 3 3 2 A %.%.%.%.%.%.%.%.h.k.k.k.k.k.k.k.k.k.k.k.k.k.        # H H H H +       . k.k.k.k.k.k.k.k.k.4 3 3 3 3 3 3 ",
"3 3 3 3 3 3 2 Z %.%.%.%.%.%.%.%.h.k.k.k.k.k.k.k.k.k.k.k.k.k.        # H H H H +       . k.k.k.k.k.k.k.k.j.` 3 3 3 3 3 3 ",
"2 3 3 3 3 3 2 Z %.%.%.%.%.%.%.%.h.k.k.k.k.k.k.k.k.k.k.k.k.k.        # H H H H +       . k.k.k.k.k.k.k.k.l.3 3 3 3 3 3 2 ",
"3 2 3 3 2 2 2 ,.,.,.,.,.9.0.0.9.k.k.k.k.k.k.k.k.k.k.k.k.k.k.C S C C F e.e.e.e.*.S C C S k.k.k.k.k.k.k.k.k._ 2 3 3 3 3 3 ",
"3 3 3 3 2 2 2 f.9.9.9.g.k.k.k.k.k.k.k.k.k.k.k.k.k.k.k.k.k.k.k.k.k.k.k.k.k.k.k.k.k.k.k.k.k.k.k.k.k.k.k.k.k._ 3 3 3 3 3 3 ",
"3 3 3 3 3 2 3 f.9.9.9.g.k.k.k.k.k.k.k.k.k.k.k.k.k.k.k.k.k.k.k.k.k.k.k.k.k.k.k.k.k.k.k.k.k.k.k.k.k.k.k.k.l._ 3 3 3 3 3 3 ",
"3 3 3 3 3 3 3 9.9.9.9.g.k.k.k.k.k.k.k.k.k.k.k.k.k.k.k.k.k.k.k.k.k.k.k.k.k.k.k.k.k.k.k.k.k.k.k.k.k.k.k.k.k.4 3 3 2 3 3 3 ",
"3 3 3 2 3 3 3 9.9.9.9.g.k.k.k.k.k.k.k.k.k.k.k.k.k.k.k.k.k.k.k.k.k.k.k.k.k.k.k.k.k.k.k.k.k.k.k.k.k.k.l.k.k.' 3 3 3 3 3 3 ",
"3 3 3 3 3 3 3 2 2 2 2 } 9.9.9.9.k.k.k.k.k.k.k.k.k.k.k.k.k.k.k.k.k.k.k.k.k.k.k.k.k.k.k.k.k.k.k.k.#.3 3 3 3 3 3 3 3 3 3 3 ",
"3 3 3 3 3 3 3 3 3 3 2 } 9.9.9.9.k.k.k.k.k.k.k.k.k.k.k.k.k.k.k.k.k.k.k.k.k.k.k.k.k.k.k.k.k.k.k.k.@.3 3 3 3 3 3 3 3 3 3 3 ",
"3 3 3 3 3 3 3 3 3 3 3 } 9.9.9.9.k.k.k.k.k.k.k.k.k.k.k.k.k.k.k.k.k.k.k.k.k.k.k.k.k.k.k.k.k.k.k.k.@.3 3 3 3 3 3 3 3 2 2 3 ",
"3 3 2 3 3 3 3 3 3 3 3 ..f.9.9.9.l.k.k.k.k.k.k.k.l.k.k.k.k.k.k.k.k.k.k.k.k.k.k.k.k.k.k.k.k.k.k.k.X.3 3 3 3 3 3 2 3 3 3 3 ",
"3 3 1 ! }  ., , , j , k -.-.-.-.5.6.5.5.5.0.0.0.0.f.f.0.0.0.0.0.w.0.0.0.0.0.0.0.0.0.0.0.4.4.5.5.W : : : : : : : : > 2 3 ",
"3 3 - q q q q q q q q r z z z z z z z z x B B B B B B B C B B B B B B C B B B B B B C B z z z z 8 o o o o o o o o % 2 3 ",
"3 3 = w q q q q q q q r z z z z z z z z z B B B B B B B B B B B B B B B B B B C B B B B z z z z 8 o o o o o o o o & 2 2 ",
"$.$.d q q q q q q q q r z z z z z z z z x B B B B B B B B B B B B B B B B B B B B B B B a z z z w o o o o o o o O % 3 3 ",
"$.$.d q q q q q q q q r z z z z z z z z x B B B B B B B B B B B B B B B B B B B B B B B z z z z 8 o o o o o o o o & 3 3 ",
"$.$.d q q q q q q q q l b b b b b b b b x p p p u p u p p p B B B B x u 6 9 9 9 9 9 9 9 z z z z 8 o o o o o o o o & 3 3 ",
"$.$.d q q q q q q q q l m m m m m m m m b 0 p 6 0 0 0 0 0 0 B B C B x 6 6 5 5 5 5 5 5 5 z z z z 8 o o o o o o o o & 3 3 ",
"$.$.d q w q q q q q q l m m m m m m m m b 8 0 0 0 0 0 0 0 0 B B B B x 5 5 5 5 5 5 5 5 5 z z z z w o o o o o o o o & 3 3 ",
"$.$.d q w 8 q q q q w p m m m m m m m m b e 0 0 0 0 0 0 0 e B B B B x % 5 5 5 5 5 5 5 5 z z z z 8 o o o o o o o O % 3 3 ",
"$.$.g w w w w w w w w p m m m m m m m m c w e e e e e e e e B B B B x 6 6 6 5 5 5 5 5 5 z z z z w $ $ $ $ $ $ $ $ & 3 3 ",
"$.$.$.3 3 3 3 3 2 2 2 P m m m m m m m m m m m m m %.;.;.;.;.@ 5 5 5 e B B C B x z z z z z l z z j 2 2 2 3 3 2 3 2 2 3 3 ",
"$.$.$.3 3 3 2 3 3 3 2 L m m m m m m m m m m m m m &.;.;.;.;.5 5 5 5 0 B B B C x z z z z z z z a j 2 3 3 3 3 3 3 3 3 3 3 ",
"3 3 3 3 3 2 3 3 3 3 2 L m m m m m m m m m m m m n &.;.;.*.;.5 5 5 5 0 B B B B x z z z z z z z z j 3 3 3 3 3 3 3 3 3 3 3 ",
"2 3 3 3 3 3 3 3 3 3 2 P m m m m m m m m m m m m m *.;.;.:.*.6 5 5 5 0 B B B C c z z z z z z z s j 3 3 3 3 3 3 3 3 3 3 3 ",
"3 3 3 3 3 3 3 3 3 3 2 I ^ ^ ^ k m m m m m m m m m A %.*.&.%.a u u u a n b b b z z z z z j j j : 1 3 3 3 2 3 3 3 3 3 3 3 ",
"3 3 3 3 3 3 3 2 3 3 3 2 3 3 3 $.V m m m m m m m m m m m m m B B B B n z z z z z a z z c $.2 3 3 $.$.$.3 3 3 3 3 3 3 3 3 ",
"3 3 3 3 3 3 3 3 2 3 3 3 3 3 3 $.V m m m m m m m m m m m m m B B B B B z z z z z z z z x $.2 3 3 $.$.$.3 3 3 3 3 3 3 3 3 ",
"3 3 2 3 3 3 3 3 3 3 3 3 3 3 3 $.V m m m m m m m m m m m m m B B B B n z z l z z z z z x $.2 3 3 $.$.$.3 3 3 3 3 3 3 3 3 ",
"3 2 3 3 3 3 3 2 3 3 3 3 3 3 3 $.V m m m m m m m m m m m m m B B B B n z z a z z z z z s 2 $.$.$.3 3 3 3 3 3 3 3 3 3 3 3 ",
"3 3 3 3 3 3 3 j.d.d.d.l.i.d.d.l.a e e e e e e e u x m m m m m m m m b z z z z 8 6 6 6 6 * 7 7 7 - 3 3 3 3 3 3 3 3 3 3 3 ",
"3 3 3 3 3 3 4 k.k.k.k.k.l.j.k.k.p 0 e e e 0 0 0 8 x m m m m m m m m b z z z z 6 6 $ 6 5 5 5 5 % - 3 3 3 3 3 3 3 3 3 3 3 ",
"3 3 3 3 3 3 3 k.k.k.k.k.k.k.k.k.a w 0 0 0 0 0 0 q x m m m m m m m m b z z z z 8 5 5 5 5 5 5 $ % - 3 3 3 3 3 3 3 3 3 3 3 ",
"3 3 3 3 3 3 4 k.k.k.k.k.k.k.k.k.p 0 0 0 0 0 0 e e z m m m m m m m m b z z z a 8 5 5 5 5 5 5 % $ - 3 3 3 3 3 3 3 3 3 3 3 ",
"3 3 _ ' ` ' ' s.s.s.s.s.s.s.s.d.h i y y - t y y y f M M M M M M j M v f f f f - % - 6 % - % * * ; 3 3 3 3 3 3 3 3 3 2 3 ",
"3 3 t.l.k.k.l.2 3 3 3 3 3 3 3 3 3 3 3 3 3 3 2 2 3 3 3 3 3 3 3 3 3 3 3 3 3 3 3 3 3 3 3 4 3 3 3 3 3 3 3 3 3 3 3 3 3 3 3 3 ",
"3 3 #.j.k.k.j.2 3 3 3 3 3 2 3 3 3 3 3 3 3 3 3 3 3 3 3 3 3 2 3 3 3 3 3 3 3 3 3 3 3 3 3 3 3 3 3 3 3 3 3 3 3 3 3 3 3 3 3 3 ",
"3 3 u.l.k.j.l.2 3 2 3 3 3 3 3 3 3 3 3 3 3 3 3 3 3 3 3 3 3 3 3 3 3 3 3 3 3 3 3 3 3 3 3 3 3 3 3 3 3 3 3 3 3 3 3 3 3 3 3 2 ",
"3 3 u.l.k.k.l.2 3 3 3 3 3 3 3 3 3 3 3 3 3 3 3 3 3 3 2 3 3 3 3 3 3 3 3 3 3 3 3 < 3 3 3 3 3 3 3 3 3 3 3 3 3 3 3 3 3 3 3 3 ",
"3 3 [ | | | X.#.#.#.#.| 3 2 3 3 3 3 3 3 3 3 3 3 3 3 3 3 3 3 3 3 3 3 3 3 3 3 3 3 3 3 3 3 3 3 3 3 3 3 3 3 3 3 3 3 3 3 3 3 ",
"3 3 3 3 3 3 3 k.k.k.j.@.3 3 3 3 3 3 3 3 3 3 3 3 3 3 3 3 3 3 3 2 3 3 3 3 3 3 3 3 3 3 3 3 3 3 3 3 3 3 3 3 3 3 3 3 3 3 3 3 ",
"2 3 3 2 3 2 4 k.k.k.l.@.3 3 3 3 3 3 3 3 3 3 3 3 3 3 3 3 3 3 3 3 3 3 3 3 3 3 3 3 3 3 3 3 3 3 3 3 3 3 3 3 3 3 3 3 3 3 3 3 ",
"3 3 3 3 3 3 3 k.l.k.k.#.3 3 2 3 3 3 3 3 3 3 3 3 3 3 3 3 3 3 3 3 3 3 3 3 3 3 3 3 3 3 3 3 3 3 3 3 3 3 3 3 3 3 3 3 3 3 3 3 ",
"3 3 3 3 3 3 3 k.k.k.k.@.3 3 3 3 3 3 3 3 3 3 3 3 3 3 3 3 3 3 3 3 3 3 3 3 3 3 3 3 3 3 3 3 3 3 3 3 3 3 3 3 3 3 3 3 3 3 3 3 "
};
