/* XPM */
static char *jump_11[] = {
/* columns rows colors chars-per-pixel */
"60 74 118 2 ",
"   c #4E4D5C",
".  c #575765",
"X  c #5C6D77",
"o  c #74626D",
"O  c #7D6772",
"+  c #687C76",
"@  c #99AC71",
"#  c #A3B67A",
"$  c #A4C262",
"%  c #A9C46A",
"&  c #B2C76F",
"*  c #B4C871",
"=  c #BCCF70",
"-  c #BFD474",
";  c #C0D470",
":  c #C3D57C",
">  c #6E7A80",
",  c #7B7F89",
"<  c #758086",
"1  c #75858E",
"2  c #788389",
"3  c #7B888F",
"4  c #728794",
"5  c #778B97",
"6  c #7F8A90",
"7  c #7A9192",
"8  c #81858F",
"9  c #848A92",
"0  c #859095",
"q  c #86949C",
"w  c #8D969C",
"e  c #8E9E9C",
"r  c #9B9198",
"t  c #AABD83",
"y  c #A0B38B",
"u  c #ABBE89",
"i  c #8A98A0",
"p  c #939DA4",
"a  c #919FA8",
"s  c #94A0A7",
"d  c #96A5AE",
"f  c #9DA7AD",
"g  c #9FA8AD",
"h  c #9BAAB3",
"j  c #ADBEAE",
"k  c #B2BFA5",
"l  c #A6AFB4",
"z  c #A8B1B6",
"x  c #AABEB1",
"c  c #A4B2BA",
"v  c #AAB7BE",
"b  c #B1BBBF",
"n  c #DFB1B1",
"m  c #E6A3A3",
"M  c #E2ABAC",
"N  c #E4B0B0",
"B  c #E3BABA",
"V  c #AFC28C",
"C  c #BACC83",
"Z  c #B8CB8B",
"A  c #BCCE94",
"S  c #B2C89B",
"D  c #B1C3A2",
"F  c #B6C8AB",
"G  c #B9D0A6",
"H  c #B7C5BD",
"J  c #C2D981",
"K  c #C9DC91",
"L  c #C2D69A",
"P  c #C3D899",
"I  c #CBDC9D",
"U  c #C4D6A0",
"Y  c #C2D9A0",
"T  c #C9DCA1",
"R  c #C0D4AD",
"E  c #C5D8AC",
"W  c #C3D9B4",
"Q  c #C4D8BC",
"!  c #D4DDB2",
"~  c #DBE3AD",
"^  c #CFE1B5",
"/  c #D2E2B1",
"(  c #E7EEAE",
")  c #E8EEAA",
"_  c #E7F0BD",
"`  c #A7B8C2",
"'  c #AEBDC5",
"]  c #B3BEC3",
"[  c #B5C6CB",
"{  c #BAC4CA",
"}  c #B8C8CF",
"|  c #BED9C0",
" . c #BBCDD2",
".. c #BCD0D5",
"X. c #DECFCF",
"o. c #C5D7C4",
"O. c #C4D9C3",
"+. c #C6D5CF",
"@. c #C3D8CA",
"#. c #C3CFD1",
"$. c #C8D4D6",
"%. c #C5DAD2",
"&. c #C8D9D5",
"*. c #C2D6DA",
"=. c #C9D7DA",
"-. c #C6DBDE",
";. c #CBDADC",
":. c #E2C8C8",
">. c #D3E3C3",
",. c #D7E5CC",
"<. c #D2E3DA",
"1. c #DBECDF",
"2. c #CCDFE1",
"3. c #D3E3E4",
"4. c #DAE6E6",
"5. c #DBEBE5",
"6. c #D9E7E8",
"7. c #DFEDED",
/* pixels */
"; ; ; ; ; ; ; ; ; ; ; ; ; ; ; ; ; ; ; ; ; ; ; ; ; ; ; ; ; ; ; ; ; ; ; ; ; ; ; ; ; ; ; ; ; ; ; ; ; ; ; ; ; ; ; ; ; ; ; ; ",
"; ; ; ; ; ; ; ; ; ; ; ; ; ; ; ; ; ; ; ; ; ; : ; ; ; ; ; ; ; ; ; ; ; ; ; ; ; ; ; ; ; ; : ; ; ; ; ; ; ; ; ; ; ; ; ; ; ; ; ",
"; ; ; ; : ; ; ; ; ; ; ; $ $ % ; ; ; ; ; ; ; ; ; ; ; ; ; ; ; ; ; ; ; : ; ; ; ; ; ; ; ; ; ; ; ; ; ; ; ; ; ; ; ; ; ; ; ; ; ",
"; ; ; ; ; ; ; ; ; ; ; ; $ $ $ ; ; ; ; ; ; ; ; ; ; ; ; ; ; ; ; ; ; ; ; ; ; ; ; ; ; ; ; ; ; ; ; ; ; ; ; ; ; ; ; ; ; ; ; ; ",
"; ; ; ; ; ; ; ; ; ; ; ; $ $ $ ; ; ; ; ; ; ; ; ; ; ; ; ; ; ; ; ; ; ; ; ; ; ; ; ; ; ; ; ; ; ; ; ; ; ; ; ; ; ; : ; ; ; ; ; ",
"; ; ; ; ; ; ; ; ; $ $ $ ; ; ; ; ; ; ; ; ; ; ; ; ; ; ; ; ; ; ; ; ; ; ; ; ; ; ; ; ; ; ; ; ; ; ; ; ; ; ; ; ; ; ; ; ; ; ; ; ",
"; ; ; ; ; ; ; ; ; $ $ $ ; ; ; ; ; ; ; ; ; ; ; ; ; ; ; ; ; ; ; ; ; ; ; ; ; ; ; ; ; ; ; ; ; ; ; ; ; ; ; ; ; ; ; ; ; ; ; ; ",
"; ; ; ; ; ; ; ; ; $ $ $ ; ; ; ; ; ; ; ; ; ; ; ; ; ; ; ; ; ; ; ; ; ; ; ; ; ; ; ; ; ; ; ; ; ; ; ; ; ; ; ; ; ; ; ; ; ; ; ; ",
"; ; ; ; ; ; ; ; ; $ $ $ ; ; ; ; ; ; ; ; ; ; ; ; ; ; ; ; ; ; ; ; ; ; ; : ; ; ; $ $ $ ; ; ; $ $ $ ; ; ; ; ; ; ; ; ; ; ; ; ",
"; ; ; ; : ; ; ; ; $ $ $ ; ; ; ; W O.O.O.W ; ; ; ; ; ; ; ; ; ; ; ; ; ; ; ; ; ; G | | O.Q ; $ $ $ ; ; ; ; ; ; ; ; ; ; ; ; ",
"; ; ; ; ; ; ; ; ; $ $ $ ; ; ; ; %.;.-.-.o.; ; ; ; ; ; ; ; ; ; ; ; ; ; ; ; ; ; | -.-.-.-.; $ $ $ ; ; ; ; ; ; ; ; ; ; ; ; ",
"; ; ; ; ; ; ; ; ; ; ; ; ; ; ; ; %.-.-.-.@.; ; ; ; ; ; ; ; ; ; ; ; ; ; ; ; ; ; O.-.-.-.&.$ ; ; - ; ; ; ; ; ; ; ; ; ; ; ; ",
"; ; ; ; ; ; ; ; ; ; ; ; ; ; ; ; +.-.-.-.@.; ; ; ; ; ; ; ; ; ; ; ; ; ; ; ; ; - O.-.-.-.%.$ ; - - ; ; ; ; ; : ; ; ; ; ; ; ",
"; ; ; ; ; ; ; ; ; ; ; ; : ; ; : +.$.=.=.@.; : ; : ; ; ; ; ; ; ; ; ; - ; : : - O.=.=.=.&.% - - = ; ; ; ; ; ; ; ; ; ; ; ; ",
"; ; ; ; ; ; ; ; ; ; ; Y -.2.<.2.M m m m N -.-.-.-.I ; ; ; ; ; ; ; ; K <.2.-.-.n m m m M 2.-.2.2.~ ; ; ; ; ; ; ; ; ; ; ; ",
"; ; ; ; ; ; ; ; ; ; ; L -.-.-.-.M m m m N -.-.-.-.K ; ; ; ; ; ; ; ; K 1.2.%.-.n m m m m -.-.*.2./ ; ; ; ; ; ; ; : ; ; ; ",
"; ; ; ; ; ; ; ; ; ; ; U -.-.-.-.M m m m M -.-.-.-.A - ; ; ; ; ; ; ; P ..-.-.2.n m m m m -.-.-.-.T ; ; ; ; ; ; ; ; ; ; ; ",
"; ; ; ; ; ; ; ; - ; ; P -.-.2.-.M m m m M =.-.-.2.L ; ; ; ; ; ; ; ; A 2.-.-.2.n m m m m -.-.-.-.E ; ; ; ; ; ; ; ; ; ; ; ",
"; ; ; ; ; ; ; ; ; ; - T -.-.-.-.M m m m N 3.3.3.6.>.~ ~ / / / / / / >.3.2.3.3.:.:.:.X.X.-.-.-.-.E ; ; ; ; - - ; ; ; ; ; ",
"; ; ; ; ; ; ; ; ; ; - L -.-.-.-.M m m m N 7.7.7.7.7.7.7.7.7.7.7.7.7.7.7.7.7.7.7.7.7.7.6.-.-.-.-.E ; ; ; ; ; ; ; ; ; ; ; ",
"; ; ; ; ; ; ; ; ; ; ; P -.-.-.-.m m m m N 7.7.7.7.7.7.7.7.7.7.7.7.7.7.7.7.7.7.7.7.7.7.7.-.-.-.-.E ; ; ; ; - ; ; ; = ; ; ",
"; ; ; ; ; ; ; ; ; ; ; P -.-.-.-.M m m m N 7.7.7.7.7.7.7.7.7.7.7.7.7.7.7.7.7.7.7.7.7.7.7.-.-.-.-.E ; - - ; ; ; ; ; ; ; ; ",
"; ; ; ; ; ; ; ; ; ; - G -.-...-.M m m m N 7.7.7.7.7.7.7.7.7.7.7.7.7.7.7.7.7.7.7.7.7.7.6.-.-.-.-.E ; - - ; ; ; ; ; ; ; ; ",
"; ; ; ; ; ; ; %.%.%.%.2.7.7.7.7.4.4.4.4.4.7.7.7.7.7.7.7.7.7.7.7.7.7.7.7.7.7.7.7.7.7.7.7.7.7.5.7.1.1.1.1.1.; ; ; ; ; ; ; ",
"; ; ; ; ; ; ; -.-.-.-.2.7.7.7.7.7.7.7.7.7.7.7.7.7.7.7.7.7.7.7.7.7.7.7.7.7.7.7.7.7.7.7.7.7.7.7.7.7.7.7.7.7.: ; ; ; ; ; ; ",
"; ; ; ; - ; : -.-.-.-.3.7.7.7.7.7.7.7.7.7.7.7.7.7.7.7.7.7.7.7.7.7.7.7.7.7.7.7.7.7.7.7.7.7.7.7.7.7.7.7.7.7.: - ; ; ; ; ; ",
"; ; ; ; ; ; ; -.-.-.-.3.7.7.7.7.7.7.7.7.7.7.7.7.7.7.7.7.7.7.7.7.7.7.7.7.7.7.7.7.7.7.7.7.7.7.7.7.7.7.7.7.7.J ; ; ; ; ; ; ",
"; ; ; ; ; ; - -.-.-.-.2.3.3.3.3.7.7.7.7.4.#.#.#.#.4.7.7.7.7.7.7.7.7.7.7.7.7.7.7.7.7.7.7.#.#.#.#.<.7.7.7.7.J - ; ; ; ; ; ",
"; ; ; ; ; ; - -.-.-.2...` ` ` ` 4.7.7.7.$.        z 7.7.7.7.7.7.7.7.7.7.7.7.7.7.7.7.7.4.        e 7.7.7.7.J ; ; ; ; ; ; ",
"; ; = ; ; ; - -.-.-.....` ` ` ` 4.7.7.7.#.        z 7.7.7.7.7.7.7.7.7.7.7.7.7.7.7.7.7.3.        w 7.7.7.7.: ; ; ; ; ; ; ",
"; ; ; ; ; ; ; -.-.-.-.} ` ` ` ` 4.7.7.7.#.        z 7.7.7.7.7.7.7.7.7.7.7.7.7.7.7.7.7.3.        w 7.7.7.5.: ; ; ; ; ; ; ",
"; ; ; ; ; ; ; &.-.-.-.} ` ` ` ` 4.7.7.7.#.        z 7.7.7.7.7.7.7.7.7.7.7.7.7.7.7.7.7.3.        w 7.7.7.1.- ; ; ; ; ; ; ",
"- - S D D D D [ [ [ [  .-.;.=.-.7.7.7.7.3.z z b z ;.7.7.7.7.7.7.7.7.} 9 9 9 9 $.7.7.7.7.z z z z #.7.7.7.7.F D D D S - ; ",
"= - x ` ` ` ` ` ` ` ` ..7.7.7.7.7.7.7.7.7.7.7.7.7.7.7.7.7.7.7.7.7.7.H         { 7.7.7.7.7.7.7.7.7.7.7.7.7.' ` ` ` x ; ; ",
"; ; x ` ` ` ` ` ` ` ` #.7.7.7.7.7.7.7.7.7.7.7.7.7.7.7.7.7.7.7.7.7.7.{         { 7.7.7.7.7.7.7.7.7.7.7.7.7.' ` ` ` x ; ; ",
"; ; D ` ` ` ` ` ` ` ` #.7.7.7.7.7.7.7.7.7.7.7.7.7.7.7.7.7.7.7.7.7.7.{         { 7.7.7.7.7.7.7.7.7.7.7.7.7.] ` ` ` x ; ; ",
"; = D ` v ` ` ` ` ` `  .7.7.7.7.7.7.7.7.7.7.7.7.7.7.7.7.7.7.7.7.7.5.b         { 7.7.7.7.7.7.7.7.7.7.7.7.7.{ ` ` c j ; ; ",
"; ; ; - - - - -.2.2.-.} ` ` ` ` 4.7.7.7.7.7.7.7.7.7.7.7.7.7.        O m m m m o       . 7.7.7.7.7.7.7.7.7.J ; ; ; ; ; - ",
"; ; ; ; - - - -.-.-.-.} ` ` ` ` 4.7.7.7.7.7.7.7.7.7.7.7.7.7.        O m m m m o     . . 7.7.7.7.7.7.7.7.7.J ; ; - ; ; ; ",
"; - ; ; - - - -.-.-.-.} ` ` ` ` 4.7.7.7.7.7.7.7.7.7.7.7.7.7.        O m m m m o       . 7.7.7.7.7.7.7.7.7.J ; ; ; ; ; ; ",
"; ; ; ; ; ; ; 2.=.-.-. .` ` ` ` 4.7.7.7.7.7.7.7.7.7.7.7.7.7.        O m m m m o       . 7.7.7.7.7.7.7.7.7.: - - ; ; ; ; ",
"; = C ! / ! Z  ....... .} } } } 6.7.7.7.7.7.7.7.7.7.7.7.7.7., 3 2 2 r B B B B r , , , 8 7.7.7.7.7.7.7.7.7.A Z Z Z C = - ",
"; ; k ` ` ` ` ` ` ` ` ..7.7.7.7.7.7.7.7.7.7.7.7.7.7.7.7.7.7.7.7.7.7.7.7.7.7.7.7.7.7.7.7.7.7.7.7.7.7.7.7.7.' ` ` c x - - ",
"; ; j c ` ` ` ` ` ` ` ..7.7.7.7.7.7.7.7.7.7.7.7.7.7.7.7.7.7.7.7.7.7.7.7.7.7.7.7.7.7.7.7.7.7.7.7.7.7.7.7.6.[ ` ` ` F - - ",
") ) H ` ` ` ` ` ` ` ` #.7.7.7.7.7.7.7.7.7.7.7.7.7.7.7.7.7.7.7.7.7.7.7.7.7.7.7.7.7.7.7.7.7.7.7.7.7.7.7.7.7.' ` ` v j ; ; ",
") ) H ` ` ` ` ` ` v ` ..7.7.7.7.7.7.7.7.7.7.7.7.7.7.7.7.7.7.7.7.7.7.7.7.7.7.7.7.7.7.7.7.7.7.7.7.7.7.7.7.7.[ ` ` ` j ; ; ",
") ) ~ C Z - C Z C C C R 2.2.2.2.7.7.7.7.7.7.7.7.7.7.7.7.7.7.7.7.7.7.7.7.7.7.7.7.7.7.7.7.7.7.7.7.>.K K K K C C C C * ; ; ",
") ) ) = - - ; - ; ; ; G 2.2.=.2.7.7.7.7.7.7.7.7.7.7.7.7.7.7.7.7.7.7.7.7.7.7.7.7.7.7.7.7.7.7.7.7./ ; ; - ; ; - ; ; - = ; ",
") ) ) ; ; ; ; ; ; ; ; U -.-.-.-.7.7.7.7.7.7.7.7.7.7.7.7.7.7.7.7.7.7.7.7.7.7.7.7.7.7.7.7.7.7.7.7./ ; ; ; ; ; ; ; ; ; ; ; ",
") ) ) ; ; ; = ; ; ; ; L -.-.-.-.7.7.7.7.7.7.7.7.7.7.7.7.7.7.7.7.7.7.7.7.7.7.7.7.7.7.7.7.7.7.7.7./ ; ; ; ; ; ; ; ; ; ; ; ",
"( ) ) ; ; ; ; ; ; ; ; P *.*.*.*.3.4.4.4.6.7.4.7.6.6.4.7.6.7.7.6.6.7.6.6.6.5.5.7.7.6.6.5.6.6.6.6.^ ; ; ; = ; ; ; ; ; ; ; ",
"7.7._ ; ; ; ; ; ; ; ; # i i i i i i i i i l l l l l l l l l l l l z z l l c l l l l l l i i i i y ; ; ; ; ; ; ; = ; ; ; ",
"7.7._ ; ; ; = ; ; = - t i w i i i i i i p l l z l z l l l l l l l l l l l z l l l l l l i i i i y ; ; ; ; - ; ; ; ; ; ; ",
"7.7.K ; ; ; ; ; ; - - t i i i i i i i i p l l l l l l l l l z l l l l l l l l l l l l l i i i i y ; ; - ; ; ; ; ; ; ; = ",
"7.7.K ; ; ; - ; ; ; - t i i i i i i i i i z l l l l l l l l l l l l z l l l l z z z l h i i i i y ; ; ; ; = ; ; ; ; ; ; ",
"7.7.K ; ; ; ; ; = ; - u a a a a a a a a p p p p p p p p p p l l l l f w w w w w w w w w i i i i y - ; ; ; ; ; ; ; ; ; ; ",
"7.7.K ; ; ; ; ; ; ; ; V f h h h h h h h d 3 3 3 3 3 3 3 3 3 l z l l p > > > > > > > > > i i i i u ) ) ; ; ; ; ; ; ; = ; ",
"7.5.K = ; ; ; ; ; ; ; V f h h h h h h h d 3 3 3 3 3 3 3 3 3 l l l l p > > > > > > > > > i i i i k ) ) ; = ; ; ; ; ; ; ; ",
"7.7.K ; ; ; = ; ; ; ; V h h h h h h h h s 3 3 3 3 3 3 3 3 3 l l l l s > > > > > > > > > i i i i k ) ) ; ; ; ; ; ; ; ; ; ",
"7.7.K ; ; ; - - ; ; ; V h h h h h h h h d 3 3 3 3 3 3 3 3 3 l l l l p + > > > > > > > > i i i i y ; ; ; ; ; ; ; ; ; ; ; ",
": : ,.1.5.1.<.7 7 7 7 7 5 5 5 5 d h h h h d d d d c ] b ' ] > , , 2 9 h g g g w q q q q i i i i 8 + + + + = ; ; ; ; ; ; ",
"; ; ,.7.7.7.5.4 4 4 4 4 4 4 4 4 d h h h h h h h h ' { { { { > > > + 9 l z l z p i i i i i i i i 2 X X X X & ; ; ; ; ; ; ",
"; ; ,.7.7.7.6.4 4 4 4 4 4 4 4 4 d h h h h h h h h v { { { { > > > > 6 l l l l p i i i i i i i i 2 X X X X & ; ; ; ; ; ; ",
"; ; ,.7.7.5.6.4 4 4 4 4 4 4 4 4 d h h h h h h h h ' { { { { > > > > 6 l l l l p i i i i i i q e 1 X X X X $ ; ; = ; ; ; ",
"; ; ,.7.7.7.5.4 4 4 4 4 4 4 4 4 d h h h h h h h h v [ ' ] ] 2 2 2 2 0 h g l h i i i i i i i i i 4 X X X X & - - ; ; ; ; ",
"; ; ,.7.7.7.5.4 4 4 4 4 4 4 4 4 d h h h h h h h h h h h h h l l l l f i i q i i i i i i i i i i 1 X X X X & ; ; ; ; ; ; ",
"; ; ,.7.7.7.6.4 4 4 4 4 4 4 4 4 d h h h h h h h h h h h h h l l l l f i i i i i i i i i i i i i 1 X X X X & ; ; ; ; ; ; ",
"; ; ,.7.7.5.5.4 4 4 4 4 4 4 4 4 d h h h h h h h h h h h h h l l z z f i i i w i i i i i i i i i 1 X X X X & ; - ; ; = ; ",
"; ; ,.7.7.7.6.4 4 4 4 4 4 4 4 4 d h h h h h h h h h h h h h l l z l d i i i i i i i i i i i i i < X X X X & ; ; ; ; ; ; ",
"; ; K K I I T [ [ [ } [ { [ } } c h h h h h h h h h h h h h s s d i p w i i i i i i i e # V t * # @ @ @ @ = = ; ; ; ; ; ",
"; ; ; ; ; - - 7.7.7.7.7.7.7.7.7.c h h h h h h h h h h h h h w i i i i i i i i i i i i e ; ; ; ; ; ; ; ; ; ; ; ; ; ; ; ; ",
"- ; - ; ; - : 7.7.7.7.7.7.7.7.7.l h h h h h h h h h h h h h i i i i i i i i i i i i i e ; ; ; ; ; = ; ; ; ; ; ; ; = ; ; ",
"; ; ; = ; ; ; 7.7.7.7.7.7.7.7.7.c h h h h h h h h h h h h h i i i i e i i i i i i i e e ; ; - - ; ; ; ; ; ; ; ; ; ; ; ; ",
"; ; ; ; ; ; ; 7.7.7.7.7.7.7.7.7.c h h h h h h h h h h h h h i i i i i i i i i i i q w e ; ; = - ; ; ; ; ; ; = ; ; ; ; ; "
};
