/* XPM */
static char *jump_10[] = {
/* columns rows colors chars-per-pixel */
"60 74 106 2 ",
"   c #4E4D5C",
".  c #575765",
"X  c #5C6D77",
"o  c #60616E",
"O  c #74626D",
"+  c #7D6772",
"@  c #6D7F74",
"#  c #7D8F74",
"$  c #94A772",
"%  c #9DB072",
"&  c #9EB47E",
"*  c #A5C263",
"=  c #BED079",
"-  c #C0D470",
";  c #C2D678",
":  c #6E7A80",
">  c #737F86",
",  c #7B7F89",
"<  c #758086",
"1  c #75858D",
"2  c #788389",
"3  c #7B888F",
"4  c #7F948D",
"5  c #728794",
"6  c #7F8A90",
"7  c #81858F",
"8  c #859A8A",
"9  c #8E9F8C",
"0  c #828D95",
"q  c #958D95",
"w  c #86939A",
"e  c #8D939B",
"r  c #8B9E9C",
"t  c #9B9198",
"y  c #9EB283",
"u  c #A0B38B",
"i  c #8396A1",
"p  c #8A98A0",
"a  c #929DA3",
"s  c #919FA8",
"d  c #94A0A7",
"f  c #96A3AB",
"g  c #9CA6AC",
"h  c #9BAAB3",
"j  c #ADBEAE",
"k  c #A6AFB4",
"l  c #A8B1B6",
"z  c #AABEB1",
"x  c #A5B2BA",
"c  c #AEB8BD",
"v  c #B1BBBF",
"b  c #DEB2B2",
"n  c #DBBAB7",
"m  c #E6A3A3",
"M  c #E2ABAB",
"N  c #E5B0B0",
"B  c #E3BABA",
"V  c #AFC28C",
"C  c #B5C78F",
"Z  c #B3C98C",
"A  c #BDD080",
"S  c #B3C696",
"D  c #B6CA9C",
"F  c #B9CB9D",
"G  c #B1C3A2",
"H  c #B6C8AB",
"J  c #BED8BF",
"K  c #C2D981",
"L  c #C1D58C",
"P  c #C2D694",
"I  c #CADD92",
"U  c #C4D79C",
"Y  c #C3D99A",
"T  c #C4D6A1",
"R  c #C4D9A1",
"E  c #C6D9AC",
"W  c #C2D3BC",
"Q  c #CFE1B5",
"!  c #D2E2B3",
"~  c #E8EEAA",
"^  c #A7B8C2",
"/  c #AEBDC6",
"(  c #AFC0C6",
")  c #B2C3CB",
"_  c #BAC4CA",
"`  c #B8C8CF",
"'  c #BCCDD3",
"]  c #BDD0D5",
"[  c #C0CBCE",
"{  c #C5DCC3",
"}  c #C8DBC2",
"|  c #C3D8CA",
" . c #C3CFD1",
".. c #C8D4D6",
"X. c #C6DDD1",
"o. c #C2D6DA",
"O. c #CAD6D8",
"+. c #C6DBDE",
"@. c #E2CACA",
"#. c #D3E4C3",
"$. c #D1E4CD",
"%. c #CCDFE1",
"&. c #D3E3E4",
"*. c #D8E6E7",
"=. c #D9E7E8",
"-. c #DFEDED",
/* pixels */
"- - - - - - - - - - - - - - - - - - - - - - - - - - - - - - - - - - - - - - - - - - - - - - - - - - - - - - - - - - ; - ",
"- - - - - - - - - - - - - - - - - - - - - - - - - - - - - - - - - - - - - - - - - - - - - - - - - - - - - - - - - - - - ",
"- - - - - - - - - - - - * * * - - - - - - - - - ; - - - - - - - - ; - - - - - - - - = - - - - - - - - - - - - - - - - - ",
"- - - - - - - - - - - - * * * - - - - - - - - - - - ; - - - - - - - - - - - - - - - - - - - - - - - - - - - - - - - - - ",
"- - - - - - - - - - - - * * * - P P P P L - - - - - - - - - - - - - - - - - - I A Y Y F - - - - - - - - - - - - - - - - ",
"- - - - - ; - - - * * * - - - - | +.+.+.| - - - - - - - - - - - - - - - - - ; ! +.+.%.X.- - - - - - - - - - ; - - - - - ",
"- - - - - - - - - * * * - - - - X.+.+.+.| = - - - - - - - - - - - - - - - - - } +.+.+.X.- - = - - - - - - - - - - - - ; ",
"- - - - - - - - - * * * - - - - X.+.+.+.{ - - - - - - - - - - - - - - - - - - } +.+.+.$.- - - = - - - - - - - - - - - - ",
"- - - - - - - - - * * * - - - - X.+.O.+.| - - - ; - - - - - - - - - - ; = - - J +.+.+.X.= * * * - - - - - - - - - - - - ",
"- - - - - - - - - * * A { } { { n b b b n { } { { L - - - - - - - - L Q { { W n b b b n { ' J J ~ - - - - - - - - - - - ",
"- - - - - - - - - * * F +.+.%.+.M m m m M +.+.+.+.Y - - - - - - - - P %.+.+.+.b m m m m o.+.+.+.R - - - - - - - - - - - ",
"- - - - - - - - - - - R +.+.%.+.m m m m b +.+.+.+.Y - - - - - - - - P +.+.+.+.b m m m m %.+.+.+.R - - - - - - - - - - - ",
"- - - - - - - - - - = U +.+.+.+.M m m m M +.+.+.+.Y - - - - - - - - P +.+.+.+.b m m m m %.o.o.+.! - - - - - - - - - - - ",
"; - - - - - - - - - - R +.+.+.+.M m m m M +.+.+.+.U ; ; ; ; ; ; ; ; Y +.+.%.+.b M m m M o.%.%.+.R - - = - - - - - - - - ",
"- - - - - - - - - - - U +.+.+.+.M m m m N -.-.-.-.-.-.-.-.-.-.-.-.-.-.-.-.-.-.-.-.-.-.-.%.o.+.+.E - - - - - - - - - - - ",
"- - - - - - - - - - = T +.+.+.+.M m m m N -.-.-.-.-.-.-.-.-.-.-.-.-.-.-.-.-.-.-.-.-.-.-.o.%.+.+.R - - - - - - - - - - - ",
"- - - - - - - - - - - U +.%.%.%.M m m m M -.-.-.-.-.-.-.-.-.-.-.-.-.-.-.-.-.-.-.-.-.-.-.+.+.+.+.Q - - - - - - - - - - - ",
"- - - - - - - - = - - U +.+.o.%.M m m m M -.-.-.-.-.-.-.-.-.-.-.-.-.-.-.-.-.-.-.-.-.-.-.+.+.+.+.E = - - = = - - - - - = ",
"- - A G D F F F D D D { &.&.&.&.@.@.@.@.@.-.-.-.-.-.-.-.-.-.-.-.-.-.-.-.-.-.-.-.-.-.-.-.&.&.&.&.#.! ! ! Q D D D C S = = ",
"- - H / ^ ^ ^ ^ ^ ^ ^ ] -.-.-.-.=.-.-.-.-.-.-.-.-.-.-.-.-.-.-.-.-.-.-.-.-.-.-.-.-.-.-.-.-.-.-.-.-.-.-.-.-.( ^ ^ H z = = ",
"- - j ^ ^ ^ ^ ^ ^ ^ ^ ] -.-.-.-.-.-.-.-.-.-.-.-.-.-.-.-.-.-.-.-.-.-.-.-.-.-.-.-.-.-.-.-.-.-.-.-.-.-.-.-.-.( ^ ^ ^ G - - ",
"- - j ^ ^ ^ ^ ^ ^ ^ ^ ] -.-.-.-.-.-.-.-.-.-.-.-.-.-.-.-.-.-.-.-.-.-.-.-.-.-.-.-.-.-.-.-.-.-.-.-.-.-.-.-.-.( ^ ^ ^ S - - ",
"- - z ^ ^ ^ ^ ^ ^ ^ ^ ] -.-.-.-.-.-.-.-.-.-.-.-.-.-.-.-.-.-.-.-.-.-.-.-.-.-.-.-.-.-.-.-.-.-.-.-.-.-.-.-.-.( ( ^ ^ G - - ",
"- - = = = = A o.] %.] ' ( ( ( ( =.-.-.-. .o o X O / -.-.-.-.-.-.-.-.-.-.-.-.-.-.-.-.-.*.o o o o d -.-.-.-.K = = = A - - ",
"- - - - - = - +.+.+.+.' ^ ^ ^ ^ =.-.-.-. .        l -.-.-.-.-.-.-.-.-.-.-.-.-.-.-.-.-.&.        r -.-.-.-.K - - = = - - ",
"= - - - - - - X.+.+.+.` ^ ^ ^ ^ =.-.-.-. .        l -.-.-.-.-.-.-.-.-.-.-.-.-.-.-.-.-.*.        r -.-.-.-.; - - = = - - ",
"- - - - - - - +.+.+.+.` ^ ^ ^ ^ =.-.-.-. .        l -.-.-.-.-.-.-.-.-.-.-.-.-.-.-.-.-.&.        r -.-.-.-.K - - = - - - ",
"- - = - - = ; +.+.+.+.] ) ) ) ) =.-.-.-. .        l -.-.-.-.-.-.-.-.-.-.-.-.-.-.-.-.-.&.        e -.-.-.-.K - - - - - - ",
"- - - - - - = +.+.+.+.%.-.-.-.-.-.-.-.-. .        l -.-.-.-.-.-.-.-.-.-.-.-.-.-.-.-.-.*.        e -.-.-.-.; - - - - - - ",
"- - - - - - ; +.+.+.+.&.-.-.-.-.-.-.-.-. .        l -.-.-.-.-.-.-.-.-.-.-.-.-.-.-.-.-.&.        e -.-.-.-.; - - - - - - ",
"- - - - - - - X.+.+.+.%.-.-.-.-.-.-.-.-. .        l -.-.-.-.-.-.-.-.-.-.-.-.-.-.-.-.-.&.        e -.-.-.-.; - - - - - - ",
"- = - - - - = { +.+.+.&.-.-.-.-.-.-.-.-. .        l -.-.-.-.-.-.-.-.-.-.-.-.-.-.-.-.-.&.        e -.-.-.=.- - - - - - - ",
"= = G G G G G ) ) ) ) %.-.-.-.-.-.-.-.-.&.l l c c O.-.-.-.-.-.-.-.-. .q 7 0 7 ..-.-.-.-.l l l l [ -.-.-.-.H G G G D - - ",
"= = G ^ ^ ^ ^ ^ ^ ^ ^ ] -.-.-.-.-.-.-.-.-.-.-.-.-.-.-.-.-.-.-.-.-.-.v         _ -.-.-.-.-.-.-.-.-.-.-.-.-.( ^ ^ ^ z - - ",
"= - z ^ ^ ^ ^ ^ ^ ^ ^ ] -.-.-.-.-.-.-.-.-.-.-.-.-.-.-.-.-.-.-.-.-.-._         _ -.-.-.-.-.-.-.-.-.-.-.-.-./ ^ ^ ^ z - - ",
"- - z ^ ^ ^ ^ ^ ^ ^ ^ ] -.-.-.-.-.-.-.-.-.-.-.-.-.-.-.-.-.-.-.-.-.-./         _ -.-.-.-.-.-.-.-.-.-.-.-.-./ ^ ^ ^ z - - ",
"- - G z G ^ ^ H ^ ^ ^ ] -.-.-.-.-.-.-.-.-.-.-.-.-.-.-.-.-.-.-.-.-.-.v         _ -.-.-.-.-.-.-.-.-.-.-.-.-._ ^ ^ x j - - ",
"- - = = - - = +.%.+.%.` ^ ^ ^ ^ =.-.-.-.-.-.-.-.-.-.-.-.-.-.        + m m m m O       . -.-.-.-.-.-.-.-.-.; - - = - - - ",
"- - = - = = = +.+.+.+.` ^ ^ ^ ^ =.-.-.-.-.-.-.-.-.-.-.-.-.-.        + m m m m O       . -.-.-.-.-.-.-.-.-.K - - - - - - ",
"- - - - = = = +.+.+.+.` ^ ^ ^ ^ =.-.-.-.-.-.-.-.-.-.-.-.-.-.        + m m m m O       o -.-.-.-.-.-.-.-.-.K - - - - - = ",
"- - - - - - - | +.+.+.` ^ ^ ^ ^ =.-.-.-.-.-.-.-.-.-.-.-.-.-.        + m m m m O       . -.-.-.-.-.-.-.-.-.K - - - - - = ",
"- - - ~ ~ ~ = X.+.+.+.] ` ` ` ` =.-.-.-.-.-.-.-.-.-.-.-.-.-., 7 2 , t B B B B t , , , 7 -.-.-.-.-.-.-.-.-.; - - - - - - ",
"- - - ~ ~ ~ = X.+.+.%.%.-.-.-.-.-.-.-.-.-.-.-.-.-.-.-.-.-.-.-.-.-.-.-.-.-.-.-.-.-.-.-.-.-.-.-.-.-.-.-.-.-.K - - - - - - ",
"- - - ~ ~ ~ = +.+.o.%.&.-.-.-.-.-.-.-.-.-.-.-.-.-.-.-.-.-.-.-.-.-.-.-.-.-.-.-.-.-.-.-.-.-.-.-.-.-.-.-.-.-.K - - = - - - ",
"~ ~ ~ - = - - X.o.%.o.%.-.-.-.-.-.-.-.-.-.-.-.-.-.-.-.-.-.-.-.-.-.-.-.-.-.-.-.-.-.-.-.-.-.-.-.-.-.-.-.-.-.; - - - - - - ",
"~ ~ ~ - - = = %.%.%.%.%.-.-.-.-.-.-.-.-.-.-.-.-.-.-.-.-.-.-.-.-.-.-.-.-.-.-.-.-.-.-.-.-.-.-.-.-.-.-.-.-.-.; - - - - - - ",
"~ ~ ~ - - - - -.=.=.=.&.%.%.%.%.-.-.-.-.-.-.-.-.-.-.-.-.-.-.-.-.-.-.-.-.-.-.-.-.-.-.-.-.-.-.-.-.#.I I I ; - - - - - - - ",
"~ ~ ~ = - - = -.-.-.-.&.+.%.O.%.-.-.-.-.-.-.-.-.-.-.-.-.-.-.-.-.-.-.-.-.-.-.-.-.-.-.-.-.-.-.-.-.! - - ; - - - - - - - - ",
"~ ~ ~ - - - - -.-.-.-.&.X.+.+.+.-.-.-.-.-.-.-.-.-.-.-.-.-.-.-.-.-.-.-.-.-.-.-.-.-.-.-.-.-.-.-.-.! - - - - - - - - - - - ",
"~ ~ ~ - = - - -.-.-.-.&.%.+.+.+.=.-.-.-.-.-.-.-.-.-.-.-.-.-.-.-.-.-.-.-.-.-.-.-.-.-.-.-.-.-.-.-.! - - - - - - - - - - - ",
"~ ~ ~ - - - ; -.-.-.-.&.] +.X.] =.=.=.=.=.=.=.=.=.=.=.-.=.=.=.=.=.=.=.-.=.=.=.-.-.=.=.=.=.=.=.=.! - - - - - - - - - - - ",
"~ ~ ~ - - = ; -.-.-.-.' p p p p p p p p a l l l l k k l k l p p e r a k k l k l k l k k p p p p u - - - - - - - - - - - ",
"~ ~ ~ - - - ; -.-.-.-._ p p p p p p p p a k k k l k k k k k p p p p s k k k k k k k k k p p p p u - - - - - - - - - - - ",
"- - = = - - - -.-.-.-.` p p p p p p p p a k k k k k k k k k p p p p s k k k k k k l k k p p p p u - - = - - - = - - - - ",
"- - - = - = = -.-.-.-.` p i p p p p p p p k k k l k k k k k p a p p s k k k k k k l k k p p p p u - - - - - = = - - - - ",
"- - * & * & & ( ( ( ( x f s s f s s a s s c c / c c c c c c a s f d g k k k k k k k k g w p p p 9 $ $ $ $ $ % $ $ * - - ",
"- - 8 5 5 5 5 5 5 5 5 i h h h h h h h h h ` _ _ _ _ _ _ / [ k k k k k k k k k k k k k k w r p p # X X X X X X X . # - - ",
"= = 8 5 5 5 5 5 5 5 5 i h h h h h h h h x ` _ [ _ _ _ _ [ / k k k k k k k l k k k k k k p p p p < X X X X X X X X X - - ",
"- - 8 5 5 5 5 5 5 5 5 i h h h h h h h h h _ _ / _ _ _ _ _ _ k l k l k k k k k k k k k k p p p p 1 X X X X X X X X X - - ",
"- - 8 5 5 5 5 5 5 5 5 4 h h h h h h h h x / _ [ _ _ _ _ _ _ k k k k k k k k k k k k k h p p p p 1 X X X X X X X X # - - ",
"- - 8 5 5 5 5 5 5 5 5 i h h h h h h h h f 0 w 0 0 0 0 0 0 0 l k l l a , < > > > 1 < < 1 p p p p 1 X X X X X X X X X - - ",
"- - 8 5 5 5 5 5 5 5 5 i h h h h h h h h f 3 3 3 7 7 3 3 3 3 k k l l a : @ > : : : : : : p p p p 1 X X X X X X X X # - - ",
"- = 8 5 5 5 5 5 5 5 5 i h h h h h h h h f 3 3 3 3 3 3 3 3 3 k k k k a : : : : : : : : : p p p p 1 X X X X X X X X # - - ",
"- - 8 5 5 5 5 5 5 5 5 i h h h h h h h h f 3 3 3 3 3 3 3 3 2 k k l k a : : : : @ : : : < p p i 4 1 X X X X X X X X X - - ",
"- - $ 4 4 $ 4 4 # 4 4 r h h h h h h h h f 4 4 4 6 i w w w w g g g g p 2 2 2 , > > > > > p p p p 3 @ # @ @ # @ @ @ # - - ",
"- - - - = = = = - - - Z h h h h h h h h h h h h h / _ _ _ _ : @ : : 7 l k k k s p p p p p p p p u = - - * - = = - - - - ",
"- - = - - - = = - - = V h h h h h h h h h h h h h / _ _ / [ : : : : 7 k k l k a p p p p p p p p u - = - - = - - - - - - ",
"- - - - - - - - = = = y h h h h h h h h h h h h h / _ _ [ / : : : : 7 k k k k s p p p p p p p p u - - - - - - - - - - - ",
"- - - - - - - - - - - = h h h h h h h h h h h h h / [ / _ / , : @ : 7 k l l k s p p p p p p p p % - - - - - - - - - - - ",
"- - - - - - - - - - - = h h h h h h h h h h h h h x l x ^ l a a a a a a a s a p p p p p p p p p & - - - - - - - - - - - ",
"- - - - - - - - - - = V h h h h h h h h h h h h h h h h h h k k k k k p p p p p p p p p p p p p y - - - - - - - - - - - ",
"- - - - - - - - = = = V h h h h h h h h h h h h h h h h h g k k l l s p p p p p p p p p p p p p u - - - - - - - - - - - ",
"- - - - - - - - - - - = h h h h h h h h h h h h h h h h h h k k k k g p p p p p p p p p p p p i u - - - - - - - - = - - ",
"- - * - - - - - - - = = f f h h h h h h h h h k h h h h h h k k k k g p p p p p p p p p p p p e u - - - - = - - - - - - "
};
