/* XPM */
static char *jump_2[] = {
/* columns rows colors chars-per-pixel */
"60 74 123 2 ",
"   c #4E4D5C",
".  c #575765",
"X  c #6A5D69",
"o  c #5C6D77",
"O  c #60616E",
"+  c #74626D",
"@  c #7D6772",
"#  c #6D7F74",
"$  c #748575",
"%  c #74827E",
"&  c #829573",
"*  c #899B74",
"=  c #82907B",
"-  c #92A574",
";  c #9EB27F",
":  c #A5B97A",
">  c #A4C362",
",  c #B3C674",
"<  c #BCCF73",
"1  c #BACE7D",
"2  c #BDD079",
"3  c #C0D470",
"4  c #C2D57C",
"5  c #6E7A80",
"6  c #75858E",
"7  c #79868D",
"8  c #7B888F",
"9  c #728794",
"0  c #7F8A90",
"q  c #889787",
"w  c #849289",
"e  c #859A8A",
"r  c #869196",
"t  c #87949C",
"y  c #8C959D",
"u  c #8F9E9B",
"i  c #94A984",
"p  c #8FA199",
"a  c #92A696",
"s  c #98A693",
"d  c #ACBE81",
"f  c #ACBA8B",
"g  c #A0B190",
"h  c #A5B59D",
"j  c #8396A1",
"k  c #8A98A0",
"l  c #949DA5",
"z  c #96A4AC",
"x  c #9CA6AC",
"c  c #9FA9AE",
"v  c #9BAAB3",
"b  c #A0AAAF",
"n  c #A4B5A2",
"m  c #A6B2AE",
"M  c #B2BFA5",
"N  c #A6AFB4",
"B  c #A7B1B4",
"V  c #A8B1B6",
"C  c #AABEB1",
"Z  c #A2B2BA",
"A  c #ACB4BA",
"S  c #B2BBBF",
"D  c #BABBBE",
"F  c #DFB1B1",
"G  c #E6A3A3",
"H  c #E2ABAC",
"J  c #E4B1B1",
"K  c #AFC286",
"L  c #AEC98A",
"P  c #B7CB87",
"I  c #B2C48A",
"U  c #B4C98D",
"Y  c #B9CC88",
"T  c #BDD080",
"R  c #BFD18C",
"E  c #B2C49D",
"W  c #B4CB9A",
"Q  c #BBD099",
"!  c #B8CAA3",
"~  c #C2D981",
"^  c #C2D58F",
"/  c #C3D699",
"(  c #C2D898",
")  c #CBDC9D",
"_  c #C3D6A0",
"`  c #C7D9A3",
"'  c #C4D9AC",
"]  c #CECBBE",
"[  c #C5D8B1",
"{  c #C3D9BA",
"}  c #CDE0A7",
"|  c #DCE3AB",
" . c #D3E1B5",
".. c #E8EEAA",
"X. c #A7B8C2",
"o. c #AEBDC5",
"O. c #B5BEC4",
"+. c #B6C0C6",
"@. c #BAC4CA",
"#. c #BFCACD",
"$. c #B7C9D0",
"%. c #BACDD3",
"&. c #CECBC6",
"*. c #D1C9CA",
"=. c #C4DAC3",
"-. c #C3D9CA",
";. c #C2CFD2",
":. c #C4D2D5",
">. c #C6DBD1",
",. c #C1D5D9",
"<. c #C6DBDE",
"1. c #CCD9DB",
"2. c #D0DEDF",
"3. c #DFDCDC",
"4. c #E1D1D1",
"5. c #D5E4C4",
"6. c #D6E5CD",
"7. c #D7E8CC",
"8. c #D7E7D7",
"9. c #CBDDE0",
"0. c #D3E3E4",
"q. c #D8E6E7",
"w. c #DFEDED",
/* pixels */
"3 3 3 3 3 3 3 3 3 4 3 3 3 3 3 3 >.<.<.<.-.< 3 3 3 3 3 3 3 3 3 3 3 3 3 4 3 3 3 =.9.<.<.<.< 3 3 3 3 3 3 3 3 3 3 3 3 3 3 3 ",
"3 3 3 3 3 3 3 3 3 3 3 3 3 3 3 3 :.9.<.<.-.3 3 3 3 3 3 3 3 3 3 3 3 3 3 3 3 3 < 5.9.<.9.%.3 3 3 3 3 3 3 3 3 3 3 3 3 3 3 3 ",
"3 3 3 3 3 3 3 3 3 3 3 3 > > < 3 >.9.<.,.-.3 3 3 3 3 3 3 3 3 3 3 3 3 3 3 3 3 < { <.<.9.>.3 3 3 3 3 3 3 3 3 3 3 3 3 3 3 3 ",
"3 3 3 3 3 3 3 3 3 3 3 3 > > > 3 >.9.,.1.-.3 3 3 3 3 3 3 3 3 3 3 3 3 3 3 3 3 3 =.9.%.9.,.3 3 3 3 3 3 3 3 3 3 3 3 3 3 3 3 ",
"3 3 3 3 3 3 3 3 3 3 < 4 L L U R ] *.*.*.] Q R Q ( 4 3 3 3 3 3 3 3 3 4 ^ ) ^ R ] *.*.*.&.( R Q Q ~ 3 3 3 3 3 3 3 3 3 3 3 ",
"3 3 3 3 3 3 3 3 3 > > W >.<.<.9.H G G G H 9.9.9.<.( 3 3 3 3 3 3 3 3 ^ <.9.<.<.F G G G G 9.<.<.<.} 3 3 3 3 3 3 3 3 3 3 3 ",
"3 3 3 3 3 3 3 3 3 > > W <.<.<.<.H G G G F <.,.9.<.( 3 3 3 3 3 3 3 3 ( <.<.<.<.F G G G G <.9.<.<.[ 3 3 3 3 3 3 3 3 3 3 3 ",
"3 3 3 3 3 3 3 3 3 > > W <.<.<.<.H G G G F <.9.<.<.) 3 3 3 3 3 3 3 3 Q <.<.<.<.F G G G H <.<.<.<.' < 3 3 3 3 3 3 3 3 3 3 ",
"3 3 3 3 3 3 3 3 3 > > W <.<.<.<.G G G G H <.9.9.1./ 3 3 3 3 3 3 3 3 ^ 9.9.9.<.F G G G G <.<.<.<.} 3 3 3 3 3 3 3 3 3 3 3 ",
"3 3 3 3 3 3 3 3 3 > > W <.<.<.<.H G G G J q.q.q.q.8.7.6.7.7.7.7.7.7.8.q.q.q.q.8.3.3.3.3.<.<.<.<.} 3 3 3 3 3 3 3 3 3 3 3 ",
"3 3 3 3 3 3 3 3 3 > > W <.<.<.<.H G G G J w.w.w.w.w.w.w.w.w.w.w.w.w.w.w.w.w.w.w.w.w.w.w.<.<.,.<.' 3 3 3 3 3 3 3 3 3 3 3 ",
"3 3 3 3 3 3 3 3 3 3 3 } <.<.<.<.H G G G J w.w.w.w.w.w.w.w.w.w.w.w.w.w.w.w.w.w.w.w.w.w.q.<.<.9.<.} 3 3 3 3 3 3 3 3 3 3 3 ",
"3 3 3 3 3 3 3 3 3 3 < ( <.<.<.<.H G G G J w.w.w.w.w.w.w.w.w.w.w.w.w.w.w.w.w.w.w.w.w.w.w.9.9.9.<.' 3 < 3 3 3 3 3 3 3 3 3 ",
"3 3 3 3 3 3 3 4 3 4 3 } <.<.<.<.F G G G J w.w.w.w.w.w.w.w.w.w.w.w.w.w.w.w.w.w.w.w.w.w.w.9.%.<.9.{ < 4 3 4 3 3 3 3 3 3 3 ",
"3 3 3 3 3 3 4 <.<.<.<.0.w.w.w.w.w.w.w.w.w.w.w.w.w.w.w.w.w.w.w.w.w.w.w.w.w.w.w.w.w.w.w.w.w.w.w.w.w.w.w.w.w.~ 3 3 3 3 3 3 ",
"3 3 3 3 3 3 3 <.<.<.<.0.w.w.w.w.w.w.w.w.w.w.w.w.w.w.w.w.w.w.w.w.w.w.w.w.w.w.w.w.w.w.w.w.w.w.w.w.w.w.w.w.w.4 3 3 3 3 3 3 ",
"3 3 3 3 3 3 4 <.<.<.<.0.w.w.w.w.w.w.w.w.w.w.w.w.w.w.w.w.w.w.w.w.w.w.w.w.w.w.w.w.w.w.w.w.w.w.w.w.w.w.w.w.w.~ 3 3 3 3 3 3 ",
"3 3 < < 3 3 3 <.<.<.<.9.w.w.w.w.w.w.w.w.w.w.w.w.w.w.w.w.w.w.w.w.w.w.w.w.w.w.w.w.w.w.w.w.w.w.w.w.w.w.w.w.w.T < 3 3 3 3 3 ",
"3 3 L W W W W $.$.$.$.%.%.%.<.%.q.w.w.w.9.l l l l ;.w.w.w.w.w.w.w.w.w.w.w.w.w.w.w.w.w.w.l l z u +.w.w.w.w.! W W Q W < 3 ",
"3 3 ! X.X.X.X.X.X.X.X.X.X.X.+.X.q.w.w.w.%.        V w.w.w.w.w.w.w.w.w.w.w.w.w.w.w.w.w.8.        p w.w.w.w.o.X.X.X.E < < ",
"< < E X.X.X.X.X.X.X.X.X.X.X.X.X.q.w.w.w.:.        V w.w.w.w.w.w.w.w.w.w.w.w.w.w.w.w.w.q.        t w.w.w.w.o.X.X.X.C 3 3 ",
"3 2 Z X.X.X.X.X.X.X.X.X.X.X.X.X.q.w.w.w.:.        V w.w.w.w.w.w.w.w.w.w.w.w.w.w.w.w.w.0.        t w.w.w.w.+.X.X.X.! 3 3 ",
"3 3 E X.X.+.X.X.X.X.X.+.X.X.X.X.q.w.w.w.;.        V w.w.w.w.w.w.w.w.w.w.w.w.w.w.w.w.w.0.        y w.w.w.w.+.X.X.X.C 3 3 ",
"3 3 2 2 1 2 R %.<.<.%.<.q.q.q.q.w.w.w.w.q.1.1.1.2.q.w.w.w.w.w.w.w.w.#.O O O . &.w.w.w.w.1.1.1.1.8.w.w.w.w.R 1 1 2 1 3 3 ",
"3 3 3 3 3 3 3 <.<.<.<.0.w.w.w.w.w.w.w.w.w.w.w.w.w.w.w.w.w.w.w.w.w.w.S         @.w.w.w.w.w.w.w.w.w.w.w.w.w.~ 3 3 < < 3 3 ",
"3 3 3 3 3 3 3 9.<.<.<.0.w.w.w.w.w.w.w.w.w.w.w.w.w.w.w.w.w.w.w.w.w.w.S         @.w.w.w.w.w.w.w.w.w.w.w.w.w.~ 3 < 3 < 3 3 ",
"3 3 3 3 < < P <.<.<.<.0.w.w.w.w.w.w.w.w.w.w.w.w.w.w.w.w.w.w.w.w.w.w.O.        @.w.w.w.w.w.w.w.w.w.w.w.w.w.~ 2 < 3 < 3 3 ",
"3 < 2 2 1 1 L ,.%.<.%.<.0.0.0.0.w.w.w.w.w.w.w.w.w.w.w.w.w.w.;.>.:.;.N X X X X V ;.:.:.-.w.w.w.w.w.w.w.w.w.^ Y L 2 2 3 3 ",
"3 3 X.X.X.X.X.X.+.X.X.X.X.X.X.X.q.w.w.w.w.w.w.w.w.w.w.w.w.w.        @ G G G G +       . w.w.w.w.w.w.w.w.w.X.X.X.X.E 3 3 ",
"3 3 ! X.X.X.X.X.X.X.X.X.X.X.X.X.q.w.w.w.w.w.w.w.w.w.w.w.w.w.        @ G G G G +       . w.w.w.w.w.w.w.w.w.X.X.X.X.! 3 3 ",
"3 3 ! X.X.X.X.X.X.X.X.X.X.X.X.X.q.w.w.w.w.w.w.w.w.w.w.w.w.w..       @ G G G G +       . w.w.w.w.w.w.w.w.w.$.X.X.X.X.3 3 ",
"3 3 E X.X.X.X.X.X.X.X.X.X.X.X.X.q.w.w.w.w.w.w.w.w.w.w.w.w.w.        @ G G G G +       O w.w.w.w.w.w.w.w.w.o.X.X.X.E 3 3 ",
"3 3 Y Y U Y Y %.%.%.%.%.<.1.1.<.w.w.w.w.w.w.w.w.w.w.w.w.w.w.N X.B B D 4.4.4.4.D A V V A w.w.w.w.w.w.w.w.w./ U U U Y 3 3 ",
"3 < < 3 < 3 2 <.<.<.<.0.w.w.w.w.w.w.w.w.w.w.w.w.w.w.w.w.w.w.w.w.w.w.w.w.w.w.w.w.w.w.w.w.w.w.w.w.w.w.w.w.w.~ 3 3 3 3 3 3 ",
"3 3 3 3 3 3 4 <.<.<.<.0.w.w.w.w.w.w.w.w.w.w.w.w.w.w.w.w.w.w.w.w.w.w.w.w.w.w.w.w.w.w.w.w.w.w.w.w.w.w.w.w.w.~ 3 3 3 3 3 3 ",
"3 3 3 3 3 3 2 <.<.<.<.0.w.w.w.w.w.w.w.w.w.w.w.w.w.w.w.w.w.w.w.w.w.w.w.w.w.w.w.w.w.w.w.w.w.w.w.w.w.w.w.w.w.~ 3 3 3 3 3 3 ",
"3 3 3 3 3 3 3 <.<.<.<.0.w.w.w.w.w.w.w.w.w.w.w.w.w.w.w.w.w.w.w.w.w.w.w.w.w.w.w.w.w.w.w.w.w.w.w.w.w.w.w.w.w.~ 3 3 3 3 3 3 ",
"3 3 3 3 3 3 3 3 < 3 < / <.<.<.<.w.w.w.w.w.w.w.w.w.w.w.w.w.w.w.w.w.w.w.w.w.w.w.w.w.w.w.w.w.w.w.w. .3 3 3 3 3 3 3 3 3 3 3 ",
"3 3 3 3 3 3 3 3 3 3 3 ` <.<.<.<.w.w.w.w.w.w.w.w.w.w.w.w.w.w.w.w.w.w.w.w.w.w.w.w.w.w.w.w.w.w.w.w. .3 3 3 3 3 3 3 3 3 3 3 ",
"3 3 3 3 3 3 3 3 3 3 < _ <.<.<.<.w.w.w.w.w.w.w.w.w.w.w.w.w.w.w.w.w.w.w.w.w.w.w.w.w.w.w.w.w.w.w.w. .3 3 3 3 3 3 3 3 3 3 3 ",
"< 3 3 3 3 3 3 3 3 3 3 / <.<.<.<.w.w.w.w.w.w.w.w.w.w.w.w.w.w.w.w.w.w.w.w.w.w.w.w.w.w.w.w.w.w.w.w.} 3 3 3 3 3 3 3 3 3 3 3 ",
"3 3 3 ......3 3 3 3 3 ^ { { { { *.:.:.;.:.2.1.1.1.1.1.3.1.1.:.:.:.:.:.2.1.2.1.1.1.1.1.1.5.5.5.5.) 3 3 3 3 3 3 3 3 3 3 3 ",
"3 3 3 ......3 3 3 3 3 3 3 3 3 3 k k k k l N N N N N N N N N y k k k l V N N N N B N B m 3 3 3 3 3 3 3 3 3 3 3 < 3 3 3 3 ",
"3 3 3 ......3 3 3 3 3 3 3 3 3 3 u k k k l N N N N N N N N N k k k y l B N N N N N N B m 3 3 3 3 3 3 3 3 3 3 3 3 3 3 3 3 ",
"......3 3 3 3 3 3 3 3 3 3 3 3 3 u k k k l N N N N N N V N N k k k k z N N N N N N N N m 3 3 3 3 3 3 3 3 3 3 3 3 3 3 3 3 ",
"......< 3 3 3 3 3 3 3 < 3 3 3 3 u k k k k N N N N X.N N N N k k y k k N N N N B N N N m 3 3 3 3 3 3 3 3 3 3 3 3 3 3 3 3 ",
"....h e e e e e e e e a n n n n x z z z v O.O.O.O.O.O.O.O.O.c c N c N N N N B N N N N V s s s s q $ $ $ $ $ $ $ $ & 3 3 ",
"....a 9 9 9 9 6 9 9 9 j v v v v v v v v Z @.@.@.@.@.@.@.@.O.N N N N N N N N N N B N N N y y k k 7 o o o o o o o o # 3 3 ",
"....a 9 9 9 9 9 9 9 9 v X.v v v v v v v Z O.O.;.O.O.%.@.@.@.V V N N N N N N N N N N N N k k k k 6 o o o o o o o o # 3 3 ",
"....a 9 9 9 9 9 9 9 9 0 v v v v v v v v X.O.O.%.O.,.@.@.@.@.N N N N N N N N N N N N N N k k k k 6 o o o o o o o o # 3 3 ",
"....a 9 9 9 9 9 9 9 9 0 v v v v v v v v X.O.O.O.@.$.O.O.O.O.N N N N N b N b b b N x N x k k k k 6 o o o o o o o o # 3 3 ",
"....p 9 9 9 9 9 9 9 9 0 v v v v v v v v l 5 0 0 0 5 0 0 8 8 N N N N l 5 5 5 5 5 5 5 5 5 k k k k 6 o o o o o o o o # 3 3 ",
"....a 9 9 9 9 9 9 9 9 0 v v v v v v v v z 8 8 8 0 5 t 0 5 t N V V N l 5 5 5 5 5 # 5 5 5 k t k k 6 o o o o o o o o # 3 3 ",
"< < 0 9 9 9 9 9 9 9 9 9 v v v v v v v v z 8 8 8 5 t 5 t j 5 N N N N l 5 5 5 5 5 5 5 5 5 k k k k 6 o o o o o o o o # 3 3 ",
"< 3 e 9 9 9 9 9 9 9 9 9 v v v v v v v v z 5 5 r t 5 t 5 0 8 N V N V l 5 5 5 5 5 5 5 5 5 k k k k 6 o o o o o o o o # 3 3 ",
"3 3 ; ; ; - i Z X.$.Z Z v v v v v v v v v l y t k l z z z z y y y y y r r r t 8 8 8 8 8 k k k k q * * * * * * * * - 3 3 ",
"3 3 3 3 3 3 3 w.w.w.w.%.Z v v v v v v v v v v v b o.@.@.;.O.5 5 # 5 5 V V N N l k k k k k k k k M ....3 3 3 3 3 3 3 3 3 ",
"3 3 3 3 3 3 4 w.w.w.w.%.v v v v v v v v v v v v v o.@.@.O.O.5 5 5 5 r N N N N l k k k k k k k k M ....3 3 3 3 3 3 3 3 3 ",
"3 3 3 3 3 3 4 w.w.w.w.,.v v v v v v v v v v v v v o.@.@.$.@.5 5 5 5 r N N N N l k k k k k k k k M ....< 3 3 3 3 3 3 3 3 ",
"3 3 3 3 3 3 3 w.w.w.w.,.v v v v v v v v v v v v v X.@.@.@.@.5 5 5 5 r b N N N l k k k k k k k k : 3 3 3 3 3 3 3 3 3 3 3 ",
"3 3 3 3 3 3 3 ~ ~ ~ ~ } 0.0.0.q.Z z v v v v v v v b N v N v x b b b x k k l k k y k k k , | | | < 3 3 3 3 3 3 3 3 3 3 3 ",
"< 3 3 3 3 3 3 3 3 3 2 } w.w.w.w.X.v v v v v v v v v v v v v V N N N x k k k k k k k k p 3 ......< 3 3 3 3 3 3 3 < 3 3 3 ",
"3 3 3 3 3 3 3 3 3 3 3 } w.w.w.w.Z z v v v v v v v v v v v v N N N N x k k k k k k k y u 3 3 3 3 3 3 3 3 3 3 3 3 3 3 3 3 ",
"3 3 3 3 3 3 3 3 3 3 2 } w.w.w.w.X.v v v v v v v v v v v v v N N N N x k k k k k k k y u 3 3 3 3 3 3 3 3 3 3 3 3 3 3 3 3 ",
"3 3 3 3 3 3 3 3 3 3 3 } w.w.w.w.E v v v v v v v v v v v v v N v Z N x k k k k k k k k u 3 3 3 3 3 3 3 3 3 3 3 3 3 3 3 3 ",
"3 3 3 3 3 3 3 3 3 3 3 } w.w.w.w.X.v v v v v v v v v v v v v v v v v z t k k k k k k k u 3 3 3 3 3 3 3 3 3 3 3 3 3 3 3 3 ",
"3 3 3 3 3 3 3 3 3 3 3 } w.w.w.w.Z v v v v v v v v v v v v v v v v v z k k k k k k k k u 3 3 3 3 3 3 3 3 3 3 3 3 3 3 3 3 ",
"3 3 3 3 3 < 3 3 3 3 3 } w.w.w.w.Z v v v v v v v v v v v v v v v v v z k k k k k k k k u 3 3 3 3 < 3 3 3 3 3 3 3 3 3 3 3 ",
"3 3 3 3 3 3 3 3 3 3 3 } w.w.w.w.Z v v v v v v v v v v c v c v v v v z y k k k k k k t p 3 3 3 3 3 3 3 3 3 3 3 3 3 3 3 3 ",
"3 3 3 3 3 3 3 3 3 3 3 4 ) ) ) ~ L L I U f t t t t g I I I I I L I I K d d d d w 6 6 7 7 3 3 3 3 3 3 3 3 3 3 3 3 3 3 3 3 ",
"3 3 3 3 3 3 3 3 3 3 3 3 3 3 3 3 2 < 3 3 , 8 8 8 8 : 3 3 3 3 < 3 3 3 3 3 3 3 3 = # 5 5 7 3 3 3 3 3 3 3 3 3 < 3 3 3 3 3 3 ",
"3 3 3 3 3 3 3 3 3 3 3 3 3 3 3 3 < < 3 3 , 8 8 8 8 : 3 3 3 3 3 3 3 3 3 3 < 3 3 = 5 5 5 5 3 3 3 3 3 3 3 3 3 3 3 3 3 3 3 3 ",
"3 3 3 3 3 3 3 3 3 3 3 3 3 3 3 3 3 3 3 3 , 8 8 8 8 : 3 3 3 3 < 3 3 3 3 3 3 3 3 = 5 5 # % 3 3 3 3 3 3 3 3 3 3 3 3 3 3 < 3 ",
"3 3 < 3 3 3 3 3 3 3 3 3 3 3 3 3 3 3 3 3 , 8 8 8 8 : 3 < 3 3 3 3 3 3 3 3 3 3 3 = 5 5 5 $ 3 3 3 3 3 3 3 3 3 3 3 3 3 3 3 3 "
};
