/* XPM */
static char *jump_3[] = {
/* columns rows colors chars-per-pixel */
"60 74 127 2 ",
"   c #4E4D5C",
".  c #575765",
"X  c #5C6D77",
"o  c #74626D",
"O  c #7D6772",
"+  c #6D7F74",
"@  c #94A772",
"#  c #9EB47E",
"$  c #A4C363",
"%  c #B2C76F",
"&  c #B7C970",
"*  c #BBCF72",
"=  c #B5CA7A",
"-  c #BACE7E",
";  c #BFD472",
":  c #BCD17C",
">  c #C0D470",
",  c #C3D57C",
"<  c #6E7A80",
"1  c #7B7F89",
"2  c #758086",
"3  c #75858E",
"4  c #788389",
"5  c #7B888F",
"6  c #7F948D",
"7  c #728794",
"8  c #7F8A90",
"9  c #798D99",
"0  c #81858F",
"q  c #848A92",
"w  c #958D95",
"e  c #859095",
"r  c #86949C",
"t  c #8D969C",
"y  c #8B9C9C",
"u  c #9B9198",
"i  c #90A38A",
"p  c #92A29C",
"a  c #98A59A",
"s  c #ABBD82",
"d  c #A0B38B",
"f  c #ABB593",
"g  c #8A98A0",
"h  c #939DA4",
"j  c #919FA8",
"k  c #96A5AE",
"l  c #9DA7AD",
"z  c #9FA8AD",
"x  c #9BAAB3",
"c  c #ADBEAD",
"v  c #A6AFB4",
"b  c #A8B1B6",
"n  c #AABEB1",
"m  c #A4B2BA",
"M  c #AAB7BE",
"N  c #B1BBBF",
"B  c #DFB0B1",
"V  c #E6A3A3",
"C  c #E2ABAC",
"Z  c #E4B0B0",
"A  c #E3BABA",
"S  c #AFC28C",
"D  c #BBCE85",
"F  c #B5C98D",
"G  c #BFD18C",
"H  c #B7CA93",
"J  c #B1C39F",
"K  c #BBD099",
"L  c #ADC1A8",
"P  c #BFC9A6",
"I  c #BAD0A6",
"U  c #B5C6B0",
"Y  c #B7C5BD",
"T  c #BAC9BA",
"R  c #C1D487",
"E  c #C2D982",
"W  c #C2D593",
"Q  c #C0DB91",
"!  c #CDDE93",
"~  c #C0D69D",
"^  c #C2D899",
"/  c #CCDC9C",
"(  c #C6D9A0",
")  c #CBDFA1",
"_  c #C6D8AC",
"`  c #C5DAB4",
"'  c #CDE0A7",
"]  c #CFE1B5",
"[  c #D5E5B4",
"{  c #D7E8B4",
"}  c #D3E3BE",
"|  c #E8EEAA",
" . c #A7B8C2",
".. c #AEBDC5",
"X. c #B3BEC3",
"o. c #B1C3CA",
"O. c #BAC4CA",
"+. c #B8C8CF",
"@. c #BACDD3",
"#. c #C0CBCE",
"$. c #DECFCF",
"%. c #C5D7C2",
"&. c #C4DBC3",
"*. c #C8DCC3",
"=. c #C3D9CA",
"-. c #CCDCCA",
";. c #C3CFD1",
":. c #C4D3D6",
">. c #C8D4D6",
",. c #C5DCD3",
"<. c #CDDDD7",
"1. c #C1D5D9",
"2. c #C9D6DA",
"3. c #C6DBDE",
"4. c #CBDADD",
"5. c #E2C8C8",
"6. c #D2E2C3",
"7. c #D7E5CC",
"8. c #D9EAD7",
"9. c #D3E1DB",
"0. c #DBECDF",
"q. c #CCDFE1",
"w. c #D2E3E4",
"e. c #DBE5E6",
"r. c #DDEDE7",
"t. c #D9E7E8",
"y. c #DFEDED",
/* pixels */
"> > > > > > > > > > > > > > > > > > > > > > > > > > > > > > > > > > > > > > > > > > > > > > > > > > > > > > > > > > > > ",
"> > > > > > > > > > > > > > > > > > > > > > > > > > > > > > > > > > > > > > > > > > > > > > > > > > > > > > > > > > > > ",
"> > > > > > > > > , > > $ $ % > > > > > > > > > > > > > > > > > > > > > > > > > > > > > > > > > > > > > > > > > > > > > ",
"> > > > > > > > > > > > $ $ $ > > > > > > > > > > > > > > > > > > , > > > > > > > > > > > > > > > > > > > > > , > > > > ",
"> > > > > > > > > > > > $ $ $ > > > > > > > > > > > > > > > > > > > > > > > > > > > > > > > > > > > > > > > > > > > > > ",
"> > > > > > > > > $ $ $ > > > > > > > > > > > > > > > > > > > > > > > > > > > > > > > > > > > > > > > > > > > > > > > > ",
"> > > > > > > > > $ $ $ > > > > > > ; > > > > > > > > > > > > > > > > > > > > > > > > > > > > > > > > > > > > > > > > > ",
"> > > > > > > > > $ $ $ > > > > > > > > > > > > > > > > > > > > > > > > > > > > > > > > > > > > > > > > > > > > > > > > ",
"> > > > > > > > > $ $ $ > > > > > > > > > > > ; ; > > > ; > > > > > > > > > > $ $ $ > > > $ $ $ > > > > > > > > > > > > ",
"> > > > > > > > > $ $ $ > > > > > > > > > > > > > > > > > > > > > > > > > > > $ $ $ > > > $ $ $ > > > > > > > > > > > > ",
"> > > > > > > > > $ $ $ > > > > > ` *.%.*.` ; > > > ; > > > ; > > > > > > > > $ I &.6.*.%.$ $ $ > > > > > > > > > > > > ",
"> > > > > > > > > > > > > > > > > ,.3.3.3.=.> ; > > > > > > > > > > > > > > > > &.3.3.q.,.> > > > > > > > > > > > > > > ",
"> > > > > > > > > > > ; > > > > > ,.q.3.3.=.> > > > > > ; > > > > > > > > > > > &.3.3.3.,.; ; ; > > > > > > > > > > > > ",
"> > > > > > > > > > > ; > > > > > =.3.3.3.=.> ; > > > > > > > > > > > > > > > ; &.3.3.3.,.; ; ; > > > > > > > > > > > > ",
"> > > > > > > > > > ; ; > > , > , :.2.2.2.%., ; > > > > > > ; > > > > > > ; , ; &.3.4.2.<.> > ; > > > > > > > > > > > > ",
"> > > > > > > > > > ; ; ' 3.q.0.2.C V V V B 1.q.q.,.W > > > > > > > > ! 0.8.3.3.B V V V C 3.q.q.9.' > > > > > > > > > > ",
"> ; > > > > > > > > > > Q 4.3.3.3.C V V V C 4.3.q.@.~ > > > > > > > ; W q.1.1.q.B V V V C q.3.3.<._ > > > > > > > > ; > ",
"> > > > > > > > > > > > ^ 3.3.3.3.C V V V C 3.3.q.1.~ > > > > > > > > W 1.q.q.q.B V V V V 1.q.3.3._ > > > > > ; > > > > ",
"> > > > > > > > ; > > > ( 3.3.3.3.C V V V Z 3.3.q.q.^ , > > > > > ; ; W q.1.q.1.B V V V V q.3.3.3._ > > ; > > > > > > > ",
"> > ; > > > > > > > > > ( 3.3.3.3.C V V V C w.w.w.t.6.| { { { [ [ [ [ -.w.q.w.t.$.5.5.5.$.@.3.3.3._ > > > > > > > ; > > ",
"> > > > > > > > > > > > I 3.3.3.3.C V V V Z y.y.y.y.y.y.y.y.y.y.y.y.y.y.y.y.y.y.y.y.y.y.r.3.3.3.3._ ; > > > ; > > > > > ",
"> > > > > > > > > > > ; ^ 3.3.3.3.C V V V Z y.y.y.y.y.y.y.y.y.y.y.y.y.y.y.y.y.y.y.y.y.y.y.3.3.3.3._ > > > > > > > > > > ",
"> > > > > > > > ; > ; ; ( 3.3.3.3.C V V V Z y.y.y.y.y.y.y.y.y.y.y.y.y.y.y.y.y.y.y.y.y.y.y.3.3.3.3._ ; > > > > > > > > > ",
"> > > > > > > > > ; ; ; ( 3.3.3.4.C V V V Z y.y.y.y.y.y.y.y.y.y.y.y.y.y.y.y.y.y.y.y.y.y.y.3.3.3.3._ > > > ; > > > > > > ",
"> > > > ; > > ; =.,.,.,.9.y.t.y.t.e.e.e.e.e.y.y.y.y.y.y.y.y.y.y.y.y.y.y.y.y.y.y.y.y.y.y.y.y.y.t.y.r.0.0.0.0., > > > > > ",
"> > > > > > > > 3.3.3.3.q.y.y.y.y.y.y.y.y.y.y.y.y.y.y.y.y.y.y.y.y.y.y.y.y.y.y.y.y.y.y.y.y.y.y.y.y.y.y.y.y.y., ; > > > > ",
"> > > > ; ; ; ; 3.3.3.4.w.y.y.y.y.y.y.y.y.y.y.y.y.y.y.y.y.y.y.y.y.y.y.y.y.y.y.y.y.y.y.y.y.y.y.y.y.y.y.y.y.y.E > > > > > ",
"> > > > ; ; ; ; 3.3.3.3.w.y.y.y.y.y.y.y.y.y.y.y.y.y.y.y.y.y.y.y.y.y.y.y.y.y.y.y.y.y.y.y.y.y.y.y.y.y.y.y.y.y.: ; > > > > ",
"> > ; ; = - - D 1.@.@.1.q.w.w.w.e.e.y.y.y.t.#.;.>.;.9.y.y.y.y.y.y.y.y.y.y.y.y.y.y.y.y.y.t.;.;.;.:.<.y.y.y.y.G - - - : ; ",
"> > * c  .M  . . ... . .M .. . . .e.y.y.y.:.        b y.y.y.y.y.y.y.y.y.y.y.y.y.y.y.y.y.w.        t y.y.y.y.o. . .M n ; ",
"> > > c  . . . . . . . . . . . . .e.y.y.y.:.        b y.y.y.y.y.y.y.y.y.y.y.y.y.y.y.y.y.e.        t y.y.y.y.o. . . .L ; ",
"> > > S  . . . . . . . . . . . . .e.y.y.y.#.        b y.y.y.y.y.y.y.y.y.y.y.y.y.y.y.y.y.w.        t y.y.y.y. . . . .f > ",
"> ; ; L  . . . . . . . . . . . . .e.y.y.y.#.        N y.y.y.y.y.y.y.y.y.y.y.y.y.y.y.y.y.0.        t y.y.y.y... . . .c ; ",
"> ; ; D F F F H @.@.@.@.1.3.3.3.4.y.y.y.y.e.b M b b 2.y.y.y.y.y.y.y.y.#.q q q q >.y.y.y.e.v b b b ;.y.y.y.y.K H F F D > ",
"> > > > > > ; > 3.3.3.3.w.y.y.y.y.y.y.y.y.y.y.y.y.y.y.y.y.y.y.y.y.y.y.X.        O.y.y.y.y.y.y.y.y.y.y.y.y.y.E > ; > > > ",
"> > > > > ; ; , 3.1.3.3.w.y.y.y.y.y.y.y.y.y.y.y.y.y.y.y.y.y.y.y.y.y.y.O.        O.y.y.y.y.y.y.y.y.y.y.y.y.y.E > ; > > > ",
"> > > > > > > > 3.3.3.3.w.y.y.y.y.y.y.y.y.y.y.y.y.y.y.y.y.y.y.y.y.y.y.N         O.y.y.y.y.y.y.y.y.y.y.y.y.y.E ; > > ; ; ",
"; > > > > ; ; > 3.3.3.3.q.y.y.y.y.y.y.y.y.y.y.y.y.y.y.y.y.y.y.y.y.y.y.N         #.y.y.y.y.y.y.y.y.y.y.y.y.y.E > ; > ; ; ",
"> > > c  . . . . . . . . . . . . .t.y.y.y.y.y.y.y.y.y.y.y.y.y.        O V V V V o       . y.y.y.y.y.y.y.y.y.X. .M M n ; ",
"> > ; c  . . . . . . . . . . . . .e.y.y.y.y.y.y.y.y.y.y.y.y.y.        O V V V V o       . y.y.y.y.y.y.y.y.y.X. .M M c ; ",
"> > > c M  . . .m  . . . . . . . .t.y.y.y.y.y.y.y.y.y.y.y.y.y.        O V V V V o       . y.y.y.y.y.y.y.y.y.o.M  . .L ; ",
"> ; ; Y M  . . .o.m  . . . . . . .e.y.y.y.y.y.y.y.y.y.y.y.y.y.        O V V V V o       . y.y.y.y.y.y.y.y.r..... . .L ; ",
"> > > _ T T L L o.o.o.o.o.@.+.@.+.r.y.y.y.y.y.y.y.y.y.y.y.y.y.0 1 1 0 u A A A A w 1 0 1 q y.y.y.y.y.y.y.y.y.U L L L J ; ",
"> > > | | | ; ; 3.3.3.3.q.y.r.y.y.y.y.y.y.y.y.y.y.y.y.y.y.y.y.y.y.y.y.y.y.y.y.y.y.y.y.y.y.y.y.y.y.y.y.y.y.y.E > ; ; ; ; ",
"| | | > ; > > > 3.3.3.3.w.y.y.y.y.y.y.y.y.y.y.y.y.y.y.y.y.y.y.y.y.y.y.y.y.y.y.y.y.y.y.y.y.y.y.y.y.y.y.y.y.y., > > > ; ; ",
"| | | > ; > > ; 3.3.3.3.w.y.y.y.y.y.y.y.y.y.y.y.y.y.y.y.y.y.y.y.y.y.y.y.y.y.y.y.y.y.y.y.y.y.y.y.y.y.y.y.y.y.E > ; > > ; ",
"| | | > > > > , 3.3.q.q.w.y.y.y.y.y.y.y.y.y.y.y.y.y.y.y.y.y.y.y.y.y.y.y.y.y.y.y.y.y.y.y.y.y.y.y.y.y.y.y.y.y.> > > > ; ; ",
"| | | > ; > ; ; Q Q K G ` q.q.q.w.y.y.y.y.y.y.y.y.y.y.y.y.y.y.y.y.y.y.y.y.y.y.y.y.y.y.y.y.y.y.y.y.7.! ! ! ! > > > > ; ; ",
"| | | > > > > > > > > > W 3.3.3.q.w.y.y.y.y.y.y.y.y.y.y.y.y.y.y.y.y.y.y.y.y.y.y.y.y.y.y.y.y.y.y.y.] ; ; > > > > > * > > ",
"| | | > > > > > > > > > W 3.3.3.q.y.y.y.y.y.y.y.y.y.y.y.y.y.y.y.y.y.y.y.y.y.y.y.y.y.y.y.y.y.y.y.y.[ > ; ; > > > > > > > ",
"| | | > > > * > > > > > ^ 3.3.3.q.t.y.y.y.y.y.y.y.y.y.y.y.y.y.y.y.y.y.y.y.y.y.y.y.y.y.y.y.y.y.y.y.[ > > > > > ; > > > > ",
"| | | ; > > > > > > > > ~ 1.1.1.@.t.t.t.t.t.t.t.y.t.t.y.t.y.t.t.t.y.t.t.y.t.t.y.t.y.t.t.r.t.t.t.e.] ; > > > > > > > > > ",
"| | | > > > > > > > > ; s g g g g g g g g h v v m v v v v v v v v v v v v v v v b v v v v g g g y d > > > ; > > > > > > ",
"> > > > > ; > > > > > > P g g g g g g g g h v v v v v v v b b v v v b v v b v v v v v v v g r g y d > > > > > > > > > > ",
"> > > > > > > > > ; > > P g g g g g g g g g v v v v v v v v v v v v v v v v v v v v v b v g g g g d ; ; > > > > > > > > ",
"> > ; > > > > ; > > > ; P g g g g g g g g h v v v v v v v v v v v v v v v v v v v v v v v g g g g d ; ; > > ; > > > > > ",
"> ' ' , > > > ; # # # # i 9 e 9 9 j j j j j h h h h h h h h h v v v b z t g t g t t t t t g g g t a f @ @ @ & > > > > > ",
"> y.y.! > > > * 7 3 7 7 7 7 7 7 7 k x x x k 5 5 5 5 5 5 5 5 5 v v b b h + < < < < < < < < g g g t 2 X X X X % > > > > > ",
"> y.y.! > ; > * 7 7 7 7 7 7 7 7 7 x x x x j 5 5 5 5 5 5 5 5 5 v v v v h < < < < < < < < < g g g t 3 X X X X % > > > > > ",
"> y.t.! > > > * 7 7 7 7 7 7 7 7 7 k x x x k 5 5 5 5 5 5 5 5 5 v v v v h < < < < < < < < < g g g t 3 X X X X % > > > > > ",
"> y.y.! > ; > * 7 7 7 7 7 7 7 7 7 k x x x j 5 5 5 0 5 5 5 5 5 v v v v h < < < < < < < < < g g g g 3 X X X X & > > > > > ",
"> y.y.! > > > * 7 7 7 7 7 7 7 7 7 k x x x x k k k k m X.X.X.X.< < 1 1 q z z z z g g r r r g g g y 7 X X X X & > > > > > ",
"> y.y.! > > > * 7 7 7 7 7 7 7 7 7 k x x x x x x x x X.X.O.+.O.< < < < q v v v v g g g g g g g g y 3 X X X X $ > > > > > ",
"> y.y.! > > ; ; 7 7 7 7 7 7 7 7 7 k x x x x x x x x X.O.O.O.O.< < < + q v v v v h g g g g g g g g 3 X X X X $ > > > > > ",
"> y.y.! > > > > 7 7 7 7 7 7 7 7 7 k x x x x x x x x N O.O.O.O.+ < < < 8 v v v v g g g g g g g g g 3 X X X X % > > > > > ",
"> 8.8.! E R R R 6 6 6 6 6 9 9 9 9 k x x x x x x x x M o.X.X.X.4 4 4 4 e l v v x h g g g g g g g g 5 + + + + & > > > > > ",
"> > > 7.y.y.y.y.> > > > S x x x x x x x x x x x x x x x x x x b v v v z g g g g g g g g g g g g g d > > > > > > > > > > ",
"> > > 7.y.y.y.y.> > > ; S x x x x x x x x x x x x x x x x x k b v v v z g g g g g g g g g t g g g d > > > > > > > > > > ",
"> > > 7.y.y.y.r.> > > > S x x x x x x x x x x x x x x x x x x b v v v z g g g g g g g g g g g g t d > > > > > > > > > * ",
"> > > 7.y.y.y.r.> ; > > S x x x x x x x x x x x x x x x x x k b v v v z g g g t g g g g r g g g t d > > > > > > > > > > ",
"> > > ! / / / ) } } } } -.>.>.>.1.m x x x x x x x x x x x x x j j h j h g g g g g g g g y s s s = = ; > > > > > > ; > > ",
"; > > > > > > , y.y.y.y.y.y.y.y.y.m x x x x x x x x x x x x x g g g g g g g g g g g g g y > > > * ; > > > > > ; > > > > ",
"> > > > > > > > y.y.y.y.y.y.y.y.y.m x x x x x x x x x x x x x g g g g g g g g g g g g g y > > > * ; > > > > > ; > > > > ",
"> > ; > > > > > y.y.y.y.y.y.y.y.y. .x x x x x x x x x x x x x g g g g g g g g g g g g g p > > > ; ; ; > > > > > > > ; > "
};
