/* XPM */
static char *loose_banner[] = {
/* columns rows colors chars-per-pixel */
"192 64 30 1 ",
"  c #00163E",
". c #01163E",
"X c #00173E",
"o c #01173E",
"O c #00163F",
"+ c #01163F",
"@ c #00173F",
"# c #01173F",
"$ c #525050",
"% c #535050",
"& c #525150",
"* c #535150",
"= c #535151",
"- c #BE0000",
"; c #BF0100",
": c #A5C362",
"> c #A5C263",
", c #A5C363",
"< c #C1D470",
"1 c #C1D570",
"2 c #C1D471",
"3 c #C0D571",
"4 c #C1D571",
"5 c #C3BEB4",
"6 c #C2BFB4",
"7 c #C3BFB4",
"8 c #C2BEB5",
"9 c #C2BFB5",
"0 c #C3BFB5",
"q c #E8EEAA",
/* pixels */
"<<4444444444444444444414114144444444444444441141114412<14444444444444444441<<<<><<<>44111<<<<<<<<<444111444444<<<444444444<<<1<<444444414414144<<<>444444111124<4444444444<<<<<:44444444<<<<4444",
"<<444444444444444444141111114444>144444444444411<<<<121244444444,444,1444411<<44<<<<44141<<<11<<><4411<<444414<<>444><4444<<<1<144444414411444<<<<4<444414112244444<444444<<<<44444444<<<<<<4444",
",<<4444444444444444444441441<<444414444444444444<<<<221244444<,44444111141114444<<11444444<<11444444<<<<44<<11<<4444<<<<411144>444,4444411114444<<4<44441111111<<<4<4444<<<<44444444411<<<<<4444",
"<<<4444444444444444411141114<<4<4441444414444444<<<<<1124444444444441111441144441114444444><14444444><<<><<<11<<1444<<<<441144444444444411114444<444444411411244<<<4444444<<44444443411<<<<<4444",
"44<<4444<<<,<222444444441444444444144444<<444444444414<>4444114444444411444441114444<14444<<<<44<<<<44441<<<4><<11444411><<<444444444444114444444<4<44444444411><<4:444444444444<333<<<2<<444444",
"4<<,444422,4<22241,444441444<>44441144444<444444444442444<44111444:44411444444114444<1444411<<44><<<444411<<4<<<11><44114<<<44444444444411444444<<4<444444444111<<44444444444444<<33<,<24,,44444",
"####oooo####  OOo###o#############oo4444<444444,,44,>444<<<<1<44444444444444<<<<44<<<<444441<>4444<<1144414444<<<<<<444144<<1111444444441444444444<<44444,>4#######oo###ooo########### #########",
"###ooooo######OOo##o############o##o4444<<<>444>:44::444<,<<<<444444444414><<<<<44><<<444411<<4444111444444444<<<<<<44444411111144444444<>4444444<<444444,>4##oo###o######oo##########  ########",
"##==556660006686666555087700050570#o1144444444444::44444444444444444<<<<11444444444<<<44<<<,44444444<<<<<>44444144<<<<4444<<<<<111<<<<4414114444<4,4444::411##=%650086666600060555065688005055+ ",
"##==550566660006660550607700000570##1144444444444::44444444444444444<<<<11><4444444<<<44<<<114444444<4<<<<44444144><<14444<1<<<111<<<<4,141444444<44444:,411##=%056580666666556655508880888850##",
"##==505588068066005555667770050500##1:4444444444<<4444<<444444444444>4<<<<<<11444444<>4444111144<14444444444444444<<<<44441144<<4144<<<<141144444444444,,111##==885088556000506055885668850555##",
"##==050088088860805555087770050500##114411444444<1444,<<4444444,<14444<<<<<<11144444<<4444111144<11144444444444444<<<<44441144><4444<<<<114444444444444,,111#.==585580500006006058860868550055 #",
"##**000588660508055060806600505500##,4441<,4<4:44<<<<<<<44<<<<<<<<<<444<44><1<<<<<34<<<<4444<<<4<<,111<344<<<<1144441444<1114444444444<>1>><<<33444444441144##==085888550066050555606006550855 o",
"##**005555050666885500806066005500##44441144<<444414<<<<44<<<4<<<<<<444444441<<<<>44<<<<4444,<44<<<1<<<<44<1<<<>44441>44<<114444444444<<1>><<,33444,4444>144##==858800058660005565608866500555o ",
"##=*005555005556866500086800##  #############o#o###  ############...####.#o#o...  ####oooooo###o##o.o#####ooooo##### #.ooo############o.####oo#o########o#########  88660800555550808055660555 o",
"##=*005055555566860680866000###################o#### ###########.##.######.#oo.o## ##oo##ooo###o##o.o#####oo#oo##### ..ooo##############o######o########oo#######   86600866650058886055055555 o",
"oo&&666666666666008866666666XX&&6666666666666666666666666666666655777777666666666666666666666666666666666666666657776666666666666666666666666666666666666666666660o 55666666666666666666666666  ",
"oo&&666666666666068866666666XX$$6666666666666666666666666666666605777777666666666666666666666666666666666666666675776666666666666666666666666666666666666666666600oo55666666666666666666666666 o",
"oo&&666666666666668866666666o $$6666666666666666666666666666666600776676666666666666666666666666666666666666666666776666666666666666666666666666666666666666666666oo66666666666666666666666666oo",
"  &&666666666666666666666666o.$$6666666666666666666666666666666600776666666666666666666666666666666666666666666667776666666666666666666666666666666666666666666666oo66666666666666666666666666oo",
"  &&666666666666666666666666oo&&6666666666666666666666666666666666666666666666666666666666666666666666666666666666666666666666666666666666666666666666666666666655  66666666666666666666666655  ",
"  $$666666666666666666666667oo$$6666666666666666666666666666666666666666666666666666666666666666666666666666666666666666666666666666666666666666666666666666666655  66666666666666666666666655  ",
"o $$666666666666666666666667o $$6666666666666666666666666666666666666666666666666666666666666666666666666666666666666666666666666666666666666666666666666666666656oo66666666666666666666666656  ",
"o $$666666666666666666666666o $$6666666666666666666666666666666666666666666666666666666666666666666666666666666666666666666666666666666666666666666666666666666666oo66666666666666666666666666 o",
"oo$$567666666666666666666666oo&&6666666666666666666666666666666666666666666600666666666666660006666666666666666666666666666666666666666666666750667666660056666666oo66666666666666666666666666oo",
"oo$$566666666666666666666666oo$$6666666666666666666666666666666666666666666606666666606666660606666666666666666666666666666066666666666066666760660066660066666666oo66666666666666666666666665oo",
"  &$666666666666666666666666o $$6666666666666666660666666066666666666666066666666666600066666666660666666666666666666666666666666070660666666600660666660000606655o 66666666666666666666666655  ",
"  &$666666666666666666666666o $$666;;6666--6666;---6606--666666--66666660------0606-;--0666;;----666666666666;;6666--666666------6706------66--;-----06-;--;-66655  66666666666666666666666655  ",
"oo&&666666666666666666666666oo&&666;;7706--6066;;--6606;-606650--66666007------6666;;--6660;;----660666666666--6666--606776---;;-6006------60--;-----06----;-67056  55666666666666666666666666  ",
"oo&&666666666666666666666667oo$$666--7706--06--6606--66--066700;-666666--60066706--0066--66--6676--0666666660--0666--006700--6666--6006--6606;-66066606--0666--066 o55666666666666666666666666 o",
"oo&&666666666666666666666667o $$666--6606--60--6000--66--606770--006666--60660006--6060--00--0070--6666666660--6600--666770--0000--6000--6660--60060700--6000--666oo56666666666666666666666666oo",
"oo&&666666666666666666666666o $$700--------06--6606--06--60--66--67666666---;6006--------67--6076--6666666606--6606--666666--0006--6776--6666------6606--7706--066oo66666666666666666666666666oo",
"  &&666666666666666666666666oo*$056------;-00--0766--60--60--60--66666666----6666--------06;-6770--6077766666--6600--606660--0076--6000--0000-;-;;-6607-;0077--650oo66666666677766666666666655  ",
"  $$666666666666666666666666oo**056--0600;-05--0006--06----66----666666600606--00--0606--00--6706--0076666666--6006--006666--6776--0006--6706-;05050606--0566--050oo66666666677766666666666655  ",
"o $$666666666666666666666666oo$$666--6660--50--0606--07---;67----666660000600--60--6000--60--6600--0666666666--6060--666666--6666--6660--6760--60000700--6060--056##66666666667766666666666656o ",
"o $$666666666666666666666666oo$*666--6660-;0000----7607--000006--066666------6666--7776--06------6606666666666------6666666------6666------66--------06------66066oo66666666667766666666666666oo",
"oo$$556666666666777677006666oo$*666--6666--6567----0666-;066666--077666----;-6060--6666-;07------666-6-6-666666----60666666----;-6666------60--------07------66666oo66666666000766666666666605  ",
"oo$$665566666666777770006666##$$6666066600666606666066065066666660666666600666660700666660066660666660606666666606666666660660066666666606660666606660066660666666oo66666666060066666666666600  ",
"  &$&&&&&&&&&&&&&&****==&&&&oo*$6666666666666666666666666776666666666666670766666677666666076666066666666666666607766666666667006666666607766666006666666666066655oo&&&&&&&&==**&&&&&&&&&&&&*$oo",
"  &$&&&&&&&&&&&&******==&&&&oo*$6666666666666666666666667766666666666666677766666677666666776666666666666666666607766666666667776666666607666666676666666666666655 o&&&&&&&&==**&&&&&&&&&&&&** o",
" ooooo##oo#ooo#####oo ##o#####$$6666666666666666666666666666666666666666666666666666666666666666666666666666666666666666666666666666666666666666666666666666666656      oooo  ##oo###ooo#####ooo",
" oooo#o#oo##ooo#####    o### #*$6666666666666666666666666666666666666666666666666666666666666666666666666666666666666666666666666666666666666666666666666666666666 o    oooo  # oo###ooo# ####oo",
"<,<<4<441<<qq<<434331<<1<<<<  $$6666666666666666666666666666666666666666666666666666666666666666666666666666666666666666666666666666666666666666666666666666666666oo<<1,41441<<<:<<4<<<<,<<1<<<<",
"<<<<<<<<:1<qq<<4333311<,44,<oo$$6666666666666666666666666666666666666666666666666666666666666666666666666666666666666666666666666666666666666666666666666666666666oo4<<<444411<,<<44,<<<<<<1<<<<",
"<444<,<<4qq4<<<:<<<<44444<<<  **6666666666666666666666666666567666666666666666666666666677760066666666666666666666666666666666666666666666660556666666666666666655oo444444444444<<<<<4441111,<<<",
"4444<<<<1qq4<<44,<<<44444<<< o**6666666666666666666666666666557766666666666666666666666677777006666666666666666666666666666666666666666666660056666666666666666650 o44<444444444,<<<444444114<<<",
"<44qq<111qq44444<<1144444,<<oo**&&&&&&&&&&&&$***&&&&&&&&&&&&$$$$&&&&&&&&&&&&&&&&&&&&&&&&&&&&&&=****$$&&&&&&&&&&&&&&&&&&&&&&&&&=&&&&&&&&&&&&&$$**&&&&&&&&&&&&&&&&&&oo<<<<<,<<4<4444<<<<44444444<<",
"<44qq1111qq44444111111444<<<oo**&&&&&&&&&&&$$***&&&&&&&&&&&&$$$%&&&&&&&&&&&&&&&&&&&&&&&&&&&&&&==***$$&&&&&&&&&&&&&&&&&&&&&&&&&&&&&&&&&&&&&&&$$$*&&&&&&&&&&&&&&&&$$oo<<<<<<<<<<4444<<<444444444<<",
"<<444qq44qq411<<<<444<<<<<,<##oooooo#ooooo    ####ooo   ####oo..ooooooo   ####o#oooooo#####o###o#### ooo####ooooooooooo   #####oooo   #####oooo oo######ooooo### ooo<<<<:44411111111114444444444",
"<<444qq44qq411<,4<444<<<<<<<##o#oo#ooooooo    ####o#o   ####oooooooooo    # ##oo##oooo########oo#### ooo###ooooooooooooo  ####oooo    ####oo##ooooo##### oooo### ooo<<<<444411114411<<4<44444444",
"<<<,4qq4444411<<4qq444<<1111<444:444<<<<11441,<<<<<<3<<<44441<<<4<1:41441<<<<<<<4444<<<,<<<<44<<44<<<<<<<<<:<<4444:4<<44<<:<<<<<11441<,<<qq<<<<<<<444qq,<,<<<<4444:<<<444444<<<<4444<<<<<<<<44<<",
"<<<<4qq4444411<<4qq44,<<1111<<444444,<<<114411<<<<<<3<,<444><<<<4<<<444411<,<<<<4444<<<<<<<<44:<<4<:<<<44<<<<<4444444444<<<<<<<<114411<<<qq<<<<<<<444qq<<<<<<<4<4<<<44444444<,<<4444<,<<<<<<4<<<",
"44444qq4<<:444<<111qq4444444<<<4<<<<4qq44qq4<<<<44<<3444<<<<444444<<<<44<<44<<<<<<:444<<<<4444<<<<<<44444<<<444444<<<<44<<<<<<,44444<444<qq<44<<<<44<<<qq444,<<<44<<<<44<qq4<qq<,4444444<<4444,<",
"44444qq4<<44444<111qq4444444<<<4<<<<4qq44qq4<<<<4><<3344<<<<444>44<<<<44<<44<<<,<<44444<<<4444<<<<<<44444<<<444444<1<<44<<<<<<444444<444<qq<44<<<,44<<<qq<44<<<<44<<<<44<qq4<qq4<<44444<4,4411<<",
"44<,<<4<<<<444<<<<1qq4444444<<44<<44444qq444<:4<44<<<4441<1444<<44<<<444<<4444<<<<<444<<<,<4444<44<<4444<<<<44<<4111,<<4<<44444444<<<<44<<<<44444444<<<qq<44<<114<<<,444<<4qq444<<<<44<<4444111<",
"44<<<<<<<<<444<,<<1qq444444,<<44<<44444qq444444444<<<444111444<<44<<,444<<444444<<<444<,<<4444<<4,<<4444,<<<4:<<4411<<<<<<4444444,<<<<44<<<,44444444<<<qq44411114<<<4444<<4qq444<<<<44<<4444111<",
"444144111<<<11<<,<<qq<,<<444<444<444<<<<44444444444444411<<<1<<<<<44<<,<<<444411444444<<<<<<44<<441111<<<<<444<<11114444,4444<<<441111<44444<444<<,4444qq<<44411<444<<<<<<444411444444,<,<<<4444",
"4411441111<<11<<<<<qq<<<<<44<<44,444,<<<444444444414444111<<11<<<<44<<<<4,444411444444<<<<<<444<444411<<<,<<44<<1114444:44444<<<441111<<444,<444<<<<444qq<<,4444<444<,<<<<444411444411<<4<<<444<",
"<<114444<<,<114444<4<<11<444<<<<4444<<11<<44<<<,<<11444444<<1144<<44<4<<4444,<1144<<4111:4<<44<<4444<<,<<<11444<<<4444<<444444<<4444<<,<44<<<<44<<<<4444<<<44444<<44<<11,444<<1144,<111<44<<44<<",
",<<144444<<<144444441111<444<,<<4444<111<<<4<<<<<<<1444>4><<4444<<4444114444<<<<4:<<1111444444<,44444<<<<111444<<<4444<<44444:<<4444<<<<44<<<<44<<<<4444<<<44444<<444<114444<<11444<111<44<<44<<",
"<<444<4444<<<<4444,44411<<44441144444411<<4444<<<<4444<<441<<<44<4441111,<<<<<<4<<<<<<<<444411<<444444444441<<<<,<<<<<<<<<<<4444<<,444<<4411<<<444444<<<44441111<<,44411<<<<,<<<<<<<<<,<4444<<<<",
"<<44<<4444<<<<4444<<4444<<444411<4:<4414<<4444<1<<4411<<4411<<44<,4444114<<<<<4444<<<,<<444411<<444:44444411<<<<<<4<44<<<,<<4444<<44444<4411<,<<44444<<<44441111<<444411<<<<<<4<<<<<<<<<444411<,",
"<444<<<:444<:444<<<<4444<<,44411<<<<4444<4444111>4441<<<4441<<>44444444444<<44444444<<111144114444<<<<444444:4<<44444444<<111144<<<444<<<<11<<11114444<<<4<<<<4444444444,4<<44444444<4<<11441114",
"<444<<<<444<4444<<<<4444<<444411<<<<4444:4444111444411<<4441<<444444444444<<444444444<111444144444<<<<<<44444444444444444<111144<<<444<,<<11<<1111444:<<<<<,<<4444444444444444444444441111111114"
};
