/* XPM */
static char *_b11ead9d48e41d09249b8200ce35ec9YO3lmfUSg37bErfe[] = {
/* columns rows colors chars-per-pixel */
"16 230 14 1 ",
"  c None",
". c #4E4D5C",
"X c #5C6D77",
"o c #6E7A80",
"O c #7B888F",
"+ c #728794",
"@ c #8A98A0",
"# c #9BAAB3",
"$ c #A6AFB4",
"% c #E6A3A3",
"& c #A7B8C2",
"* c #BAC4CA",
"= c #C6DBDE",
"- c #DFEDED",
/* pixels */
"                ",
"                ",
"     ==    ==   ",
"    ==%   ==%   ",
"    ==%------   ",
"    ==--------  ",
"    &&&---.---  ",
"    ==-------.  ",
"    =&&&----.%  ",
"    ==--------  ",
"       **$$     ",
"       #OO$     ",
"  --   ++*o     ",
"    ---++#$     ",
"        ###     ",
"       o   O    ",
"                ",
"                ",
"                ",
"                ",
"                ",
"                ",
"                ",
"                ",
"                ",
"                ",
"      ==  ==    ",
"     ==% ==%    ",
"     ==%----    ",
"     ==------   ",
"     &&&-.---   ",
"     ==-----.   ",
"     =&&&--.%   ",
"     ==------   ",
"      ==----    ",
"       **$$     ",
"     XX#OO$++   ",
"     XX #*o++   ",
"    ----##$     ",
"  --   o###O    ",
"      o     O   ",
"                ",
"                ",
"                ",
"                ",
"                ",
"                ",
"                ",
"                ",
"                ",
"                ",
"                ",
"                ",
"                ",
"                ",
"                ",
"                ",
"                ",
"                ",
"                ",
"                ",
"                ",
"                ",
"                ",
"                ",
"                ",
"                ",
"      ==  ==    ",
"     ==% ==%    ",
"     ==%----    ",
"     ==------   ",
"     &&&-.---   ",
"     ==-----.   ",
"     =&&&--.%   ",
"     ==------   ",
"      ==----    ",
"       @$$@ ++  ",
"    XX **$$ ++  ",
"    XX #OO$     ",
"        #*o     ",
"  ------##$     ",
"      oo###OO   ",
"                ",
"                ",
"                ",
"                ",
"                ",
"                ",
"                ",
"                ",
"                ",
"                ",
"                ",
"                ",
"      ==  ==    ",
"     ==% ==%    ",
"     ==%----    ",
"     ==------   ",
"     ==--.---   ",
"     &&&-.---   ",
"     ==-----.   ",
"     =&&&--.%   ",
"     ==------   ",
"      ==----    ",
"     X #*$$ +   ",
"  -  XX#OO$++   ",
"   --XX##*+++   ",
"     ---##++    ",
"        ###     ",
"        oO      ",
"                ",
"                ",
"                ",
"                ",
"                ",
"                ",
"                ",
"                ",
"                ",
"                ",
"                ",
"                ",
"     ==    ==   ",
"    ==%   ==%   ",
"    ==%------   ",
"    ==--------  ",
"    &&&---.---  ",
"    ==-------.  ",
"    =&&&----.%  ",
"    ==--------  ",
"       **$$     ",
"       #OO$XX   ",
"       ++*oXX   ",
"    ---++#$     ",
"  --    ###     ",
"       O   o    ",
"                ",
"                ",
"                ",
"                ",
"                ",
"                ",
"                ",
"                ",
"                ",
"                ",
"      ==  ==    ",
"     ==% ==%    ",
"     ==%----    ",
"     ==------   ",
"     &&&-.---   ",
"     ==-----.   ",
"     =&&&--.%   ",
"     ==------   ",
"      ==----    ",
"       **$$     ",
"     ++#OO$ XX  ",
"     ++ #*o XX  ",
"     ---##$     ",
"  ---  O###o    ",
"      O     o   ",
"                ",
"                ",
"                ",
"                ",
"                ",
"                ",
"                ",
"                ",
"                ",
"                ",
"                ",
"                ",
"                ",
"                ",
"                ",
"                ",
"                ",
"                ",
"                ",
"                ",
"                ",
"                ",
"                ",
"                ",
"                ",
"                ",
"      ==  ==    ",
"     ==% ==%    ",
"     ==%----    ",
"     ==------   ",
"     &&&-.---   ",
"     ==-----.   ",
"     =&&&--.%   ",
"     ==------   ",
"      ==----    ",
"       @$$@     ",
"    ++ **$$  XX ",
"    ++ #OO$  XX ",
"        #*o     ",
"  ------##$     ",
"      OO###oo   ",
"                ",
"                ",
"                ",
"                ",
"                ",
"                ",
"                ",
"                ",
"                ",
"                ",
"                ",
"                ",
"      ==  ==    ",
"     ==% ==%    ",
"     ==%----    ",
"     ==------   ",
"     ==--.---   ",
"     &&&-.---   ",
"     ==-----.   ",
"     =&&&--.%   ",
"     ==------   ",
"      ==----    ",
"     + #*$$ XX  ",
"  -  ++#OO$XXX  ",
"   --+++#*oXX   ",
"     -++##$X    ",
"        ###     ",
"        Oo      "
};
