/* XPM */
static char *ebd949d0409a48dad22764f6808e2a3f8CkoGk3mCx0wtuee[] = {
/* columns rows colors chars-per-pixel */
"16 146 14 1 ",
"  c None",
". c #4E4D5C",
"X c #5C6D77",
"o c #6E7A80",
"O c #7B888F",
"+ c #728794",
"@ c #8A98A0",
"# c #9BAAB3",
"$ c #A6AFB4",
"% c #E6A3A3",
"& c #A7B8C2",
"* c #BAC4CA",
"= c #C6DBDE",
"- c #DFEDED",
/* pixels */
"                ",
"     =    =     ",
"    =%=  =%=    ",
"    =%-----=    ",
"   =---------   ",
"  &&&-.----.-&  ",
"   =-----.---   ",
"  &&&---.%.--&  ",
"   =---------   ",
"    =-------    ",
"     @$$@$$     ",
" -  ##**$$$@    ",
"  -++#OO$oo@X   ",
"   ++##*o$@@X   ",
"    -###$@@     ",
"      O   o     ",
"                ",
"                ",
"                ",
"                ",
"                ",
"                ",
"                ",
"                ",
"                ",
"                ",
"                ",
"     =    =     ",
"    =%=  =%=    ",
"    =%-----=    ",
"   =---------   ",
"  &&&-.----.-&  ",
"   =-----.---   ",
"  &&&---.%.--&  ",
"   =---------   ",
"    =-------    ",
"  -  @$$$$$     ",
"  -  #OO$oo     ",
"   -++#*o$@X    ",
"   -++##$@@X    ",
"    -####@@     ",
"      O   o     ",
"                ",
"                ",
"                ",
"                ",
"                ",
"                ",
"                ",
"                ",
"                ",
"                ",
"     =    =     ",
"    =%=  =%=    ",
"    =%-----=    ",
"   =---------   ",
"  &&&-.----.-&  ",
"   =-----.---   ",
"  &&&---.%.--&  ",
"   =---------   ",
"    =-------    ",
"   -@@$$@$$@    ",
"   -##**$$$@    ",
"   ++#OO$oo@X   ",
"   ++##*o$@@X   ",
"    -###$@@     ",
"    -####@@     ",
"      O   o     ",
"                ",
"                ",
"                ",
"                ",
"                ",
"                ",
"                ",
"                ",
"                ",
"                ",
"     =    =     ",
"    =%=  =%=    ",
"    =%-----=    ",
"   =---------   ",
"  &&&-.----.-&  ",
"   =-----.---   ",
"  &&&---.%.--&  ",
"   =---------   ",
"    =-------    ",
"    -@$$@$$     ",
"  ++##**$$$@XX  ",
"  ++##OO$oo@XX  ",
"    ###*o$@@    ",
"    -###$@@     ",
"    -####@@     ",
"      O   o     ",
"                ",
"                ",
"                ",
"                ",
"                ",
"                ",
"                ",
"                ",
"                ",
"                ",
"                ",
"     =    =     ",
"    =%=  =%=    ",
"    =%-----=    ",
"  &&---------&  ",
"   =&-.----.-   ",
"   =--.----.-   ",
"  &&-----.---&  ",
"   =&---.%.--   ",
"   =---------   ",
"  - =-------    ",
"  - @@$$@$$@    ",
"  ++##**$$$@XX  ",
"  ++##OO$oo@XX  ",
"   -###*o$@@    ",
"    ####$@@@    ",
"                ",
"                ",
"                ",
"                ",
"                ",
"                ",
"                ",
"                ",
"                ",
"                ",
"                ",
"                ",
"     =    =     ",
"    =%=  =%=    ",
"    =%-----=    ",
"   =---------   ",
"  &&&-.----.-&  ",
"   =-----.---   ",
"  &&&---.%.--&  ",
"   =---------   ",
"    =-------    ",
"    @@$$$$$@    ",
" - ++#OO$oo@X   ",
" - ++##*o$@@X   ",
"  - ####$@@@    ",
"   --###@@@     "
};
