/* XPM */
static char *pause_tile[] = {
/* columns rows colors chars-per-pixel */
"96 96 16 1 ",
"  c #321B32",
". c #331A33",
"X c #321B33",
"o c #331B33",
"O c #5A7A66",
"+ c #5B7A66",
"@ c #5A7B66",
"# c #5B7B66",
"$ c #5B7A67",
"% c #5A7B67",
"& c #5B7B67",
"* c #DB82DA",
"= c #DA83DA",
"- c #DB82DB",
"; c #DA83DB",
": c #DB83DB",
/* pixels */
"OO&:O&&O&OOO&&&&OO&&OO&O&&&&&O&O&OO&&&&&&$&&OO&O&&&O:&o&&&X@&&&O###$$O$&:&$&&#O$&&OO&O##&&oOOO&&",
"OO&OO&&&&&-&&OOO&&&Oo&OO;O&O&O$&&&&&OO&O$$&O&OO&&&OOOO@&@&O@OOOO*&#$$$$OOO$&&&OOO&&OO&#OO&O&%OO&",
"O&&&&O&O&O&&&O&&oOO$O&OOO&&&O$OO$O$&:O&OO@&O&OO&&&&OO;O&@$XOO&X&&OO&OO$OOO$$O$&:&O&:O&$$O&O&&O&&",
"&&OO&&OoOOO&&OO-$$$$:&XO&&&O#OOOO&&&&OOo&$&O&OO&O&O&&OO&$$&O&&OOO&&&O;$$&&O%O&OOo%OO&O$$OOoOO:Oo",
"&&OO&O&OO&&:XOO&$O$$O$&O&&O&-O:OO&O&OOO#$O&O&&&&;O&&&&O&&OOOOO&OOO&OOOO%&O&&&&&O&&&O&OO&&OO&%OO%",
"#OOOO$&OOOO&OXOO$$O&&:#OOO&OOOO&&&O&O&OO&&&O-&&OOO&&O&&O&O&;&O&OO&OO$OOOO&&OOOOOoO&&O&O&OOO&:$%O",
"#$$&&&O$O&O&&OO%##O&&o&OO&O&OO&&:O:O$O#O&&&@O&&&O&O&OOOO&&O&O&&O&O&&$&&OO&&O&OOOO&&$&OoOO&&OOO&O",
"##O&O&$OOO&O&O&%#OX&OOO$&&O&OOO&&O&$$.O$@@&@@@&OO&&O&&OOO&&O&&&&OOO&&&O&OOOOO&&OO&O&OOOO&&OO&&O&",
"O&O:&O&%$&O:O&&OXOOO&&O#OO@&&&OOO&O:O&&&O:OO&%O&&$&&&&O&O&-OOO&OO&&&@OOOOO-OOO%O&O&O$$&:OO:&O&&O",
"&&&&:O&&O&OoO%OoOO&&&O#&:O#O&O&&:OO&-OO:OO&OOOo&&O&OoOO&$&X$O&o&&&&&%OOO%OX&OOOOO&&O$$&%OO&&&O&&",
"O&OOOO%%&OOOo&&OO&O&&OOOOO&&oOOOO&o&#O&OOOO:OOOOO&&O%OOOO$OOOXO&&O&O%%%OOO%&OO&OO&&OOOOO@=O&O&Oo",
"&oOo:O%&%oOO:O&&&&&O&OOOO#OOoO&O&OOO&&&O#OOOOOO&%&&&&O&O$O&&OO-O&&&&O%:OO%%%%%OOOO&&X&&O@&&&O:Oo",
"&@OO:O&&O&%O&O&OOOOO&&&&$O:OO&&O&&OOOOO&&&&O&&&%O&OOO&O&O:$$OO&O&O&O&O:O%&O&&O&&O&O&O&O:@O%%%%OO",
"O&OOOOO$&&&:O&OO@@OOO&&&O:&OOOO&&OO=OO&O&&&O&&O&O&&&OO&&O&O$O&OO&&O&:%O&%&O&&O&O&OOOO&&OOOO&OO%%",
"@&OO&%OO&%OO&$o#@@&O&&&&O&O&&&&O@###OO&:&%OO&OO&OOOOoOOO&%$$$O.#OOO:&&oOOOOOOOO&O:&@OO%&&OOO%O:%",
"&&O&&O&O&OO:O###@ &&OO&O&OO&&&OO@###O$oO-O&OO&O&:o&OOO:&:%$O$OO#&O&&O&OO:&&O&@@&O:&@O&O&OO&&%OOO",
"@OO&&@@@&O&&&O-O&O$OOO$O:&O&&&O&OO&O@@&&&&&&$$$OOOO&OO&&&&O&%%&&&&&:OO&&@@@OO&OOO&o$%OOOOO&$O$$$",
"O%O&&&@@&O&&OO&OO&O$$$##OO&&&&&O&O&O@@&&&OOo$$$$O%&&&OOOO&&O%%&O&&&&&O&&@@OOOOO&&&&OO&&&$OO$$OO$",
"%OO&&O@OO$&O&&OO#O##&&#O&OO&OO&&O&&&@O&&&&OOO$OO&&&o&&&&OO&&:O&&O&Oo&&O&&&OO&&&&O&%O&OO&$&$$##$$",
"O:O&OOOOO&OO&:O&O##OO&oO&O&&OO&O@&OOOO&&O&&O%&++O&&O&&O%O&&&O&O&&O&&OOO&&OOO&&O&&&O%O&&%&&$O$$$O",
"OO&O&&&OOO.$+O#-&OO&&OO$&OOO$OO$OO&OOOOOOo&&O##OO&&%%OOo&OO&OOO&$$$$OOO+&O&O&&O&OOOO&O&o&&:OO$O$",
"OO&&&&&&#OO$OO+OOO&&&$$OO$$O$OOOOO&O&&Oo&:&OO++OOO&$OOOO&O&O&O&&O$$O$$$+OO&&O&OOO&&&$$O&OOOO$OO$",
"OOOOOX&&OO$$+#OO&&&O&$&OO$$OOO$$OO:OO%OO@@O&#+++&OOO&OOO&&O&OO&O$O$OO$$XOOOOO&OO-&O&$$####&&O$##",
":&&OO&OOX$$$OO++OOOO&O$o$$O$#X+$&OOOOOXO@&&oOOO#OOO&&O%&&&&&OO&OOO$O$O#O&&OO&&-OO&&&;O$$$#O#OO.O",
"&&##++++++++++++OO##-#++++++++++&&#+++++#++++++++++++*++@@+++++++++++++++#++++++OO#+++++++++++++",
"&&X#++++++++++++OO##++++++++++++&*##++++##++++++++++++++@@OO+++++++++++++.+#++++OO##++++++++++++",
"+++++++++++ ++++++##++++-.++++++#+ #+++++ ++++++++++++++@##O++++-#+++++++++.++++O####*+++++++++#",
"++++++++++++#*+++++++#-+#+++++++####++++++++++++*+++++++####++++++++++++++++++++OO##+++++++++++.",
"++ ###+++++++++++*++++++#++++++++++#+++++++++++++++++++++++++++++++++++++++++++++++++++++++#+++#",
"+++++++++++++++++#++++++++++++#-+++*+++++++++++++++++++++++++++++++++++++++++++++++++++++++-+++.",
"++++++++++++++++-++++++++#++++++++++++++*+++++++++++++++++++++++++++++++#-++.#++++++++++++++++++",
"++++++*#++++++++#++++++++.++++++++++++++++++++++++++++++++++++++++++#.++++++++++++++++++++++++#.",
"++++#-++++++++++++++++.+++#.+#+++++++++++++++++++++++.#++++++++++++++++++++++++++++++#+.++++++++",
"++++++++++++++++++++++#++++++-++++++++++++++++++++++++++++++++++++-##.+++++++#+++++++-+#++++++++",
"++++++++++++++++++++++++++++++++++++++++++++++++#.+++++++#++.+-#++++++++++-.+-++++++++++++++++++",
"+++++++++++++++++++++++++++++++#++*#+++++++++++++++++++++.++#++++++#++++++##+#-+++++++++++++++++",
"++++##+++++++++++++++++++++++++-++*+++*#+++++++++++++++++++++++++++-+++++++++++++++++++++++#++++",
"++++.-++++++++++++++++++++++++++++#++++++++++++++++++++++#.+++++++++++++++#.++++-++++++++++-++++",
"++++++++++++++#-++.#++++++++++++++++++++++.++++++++#+++++++++++++++#+++++++++++##+++++++++++++++",
"++++++++++++++++++++++++++++++++#*++++++++#++++++++-+++++++++++++++#.-+++++++++-++++++++#-+#-+++",
"+++-#+++++++++++++++.+++++++++++++++++++++++++++++++++++++++++++++++++++++++++++++++#+++..#++++#",
"++++++++++++++++++++#++++#++.+++++#.+#++-#++++++++++++++++++++++++++++++++++++++++++.+++#++++++.",
"+++++++++++++++++++++#+++.++#++++++++.++++.#++++++++++++++++++++++.+++++++++++++++++++++++++++.+",
"+++++++++++++++++++++-++++++++++++++++++++++++++++++++++++++-#.+++#+++++#-++++++++++++++++++++#+",
"#-+++-#.++++++++++#-++++++++-+++-.++++-#++++++++.+-#+++++#+##+.#+++++++++#++++++++++++++++++++++",
"+++++++#++++++++++++++#-++++##-+##++#-+++++++++##++++++++-+.+++++++++++++-+++++++++#++++#-++++++",
"++++++++++#-+++++++++++++++++++++++++++++++++++.++++++++++++++++++++++++#-+++++++++.+++++++#++++",
"+++++++++#.+++++++++++++++++++++++++++++++++-#+++++++++++++++#-++++++++++++++++++++++++++++-++.#",
"+++++++++++++++++++++++++++++++++++++++++++++++++++++++.#++++-#+++++++++++++++++++++++++++++++++",
"++++++++-+++++++++++++++++++++++++++++++++++++++++++++++-+++++++++++++++++++++++-+++-+++++++++++",
"++++++++##+++++++++++++++++++++++++++++++.++++++++++++++#+++++++++++++++++++++++#+++#+++++++++++",
"+++++++++.++-++++++++++++++++++++++++++++#+++++++++++++++++++++++++++++++++++++++++++++++++++++#",
"++.#++++++++#++++++++#+++++++++++++++++++++++++++.+++++++#++++++-#++++++++++++++++++#++++++++++-",
"+++++++++#-++++++++++.+++++++++#+++++#+++++++++++#+++++++-++++++++++++++++++++#-++++.++++++++#++",
"++++++++++++++++++++++#++++++++-++++#-+++++++++++++++++++++++#+++++#+++++#+++++++++++++++++++.++",
"+++++++++++++++++++#.+-+++++.#++++++.++++++++++++++++++++++++.+++++.+++++.++++.#++++++++++++++++",
"+++++++++++++++++++#++++++++++++++++++++++++++++++++++++++-#+-#++++.#+++++++++++++.#+++-.#++++++",
"++++-++++++++++++++.+++++++++++++++++++++++++++++++++#.+.++#++#.++++-++++++++++++++++++#++++++++",
"++++#++++++++++++++++++++++++++++++#++++++++++++++++++++#+--++++++++#+++++++++++++++++++++++++++",
".++++++++++++++++++++++++++++++++++-++++++++++++++#-++++++#+++++++++++++++++++++-#++++++#.++++-#",
"#+-#++++#.+++++++-#+++++++++++++++#.++++++++++++++++++++++++-+-#++++++++++++++++++++++++++++++++",
"+++++++++++++++++++++#-++++++++++++#++++++++++++++++++++++++#+++++++++++++++++++++++++++++-#++++",
"++-#++++++-#+++++++#++++++++++++-.-#++++++++++++++++++++++-#++++#+-+++++++++++++++++++-#++++++++",
"+++++++++++++++++++-++++++++++++##.++++++#.+++++++++++++++++++++-+#+++++++++++++++++++++++++++++",
"+++++++++++++++++++++++++++++++++++++-+++++++++++++++++++++++++++++-#++.+++#++++++++++++++++++++",
"++++++++#.++++#-+++++++++++++++++++++#++++++++-#++++++.+++++++++-++++++#+++-++++++.+++++++++++++",
"++-+++++++++++++#.++++#-++++++.#++++++++++++++++++++.+#++++++#++#+++++++++++++++++#+#+++++++++++",
"++#++++++++++++++#-+++++++++-+++++++++++++#.++++++++#++++++++.++++++++++++++++++++++-+++++++++++",
"++++++-#+++++++++++++++++++##++++++++++++++++-+++##.+++++++++++++++++++++++++#+++.++++++++++++++",
"+++++++++++++++++++++++++++.+++++++++++++++++#+++.#-+++++++++++++++++++++++++.+++#++++++++++++++",
"++++++++#++++++++++++++#++++++++++++++++++.+++++++++++.#+++++++++++++++++++#-#+++-#+++-+++.#++++",
"++++++++#--+++++-#+++++-++++++++++++++++++#++++++++++++++++++++++++++++++++.++++++++++#+++++++++",
"++++#+++++++++++#.++++#.++#+++++++++++.#++++++++.+++++++++++++++++++++++.+++++++++++++++++++++++",
"++++-+++++++++-#++++++#-++-+++++++++++++++++++++#+++++++++++++++++++#-++#++++++++++++++#++++++++",
"++++++++++++++++++++++++++++++++++++++++++++++++++++++#..+++.#+++#+++++++++++++++++++++-++++++++",
"++++++++++++++++++++++++++++++++++++++++#-++++++++++++++#++++++++.++++++++++#.++++++++++++++++++",
"+++++++++++++++++++.+.#+++++++++++++++++++++++++++++++-#+++++.+++++++++++++++++++++++++++++++##+",
"+++++++++++++++++++#+++++++++++++++++++++++++++++++++++++++++#++++++++++-+++++++++++++++++++-.++",
"+#+++++++#+++++#++++#+++++++++++++++++++.+++++++++++.+++++++++++++++-+++#++++++++++++++++-#+++++",
"+-+++++++-+++++-++++.+++++#-+#.+++++++##.+#-++++++++#+++++++++++++++#+++++++++++++#.+++++#.+++++",
"+++++++++++++++#++++++++++++++++++++++++++..++++#-#.+++++++++++++++++++++++++++++++++++.#+++++++",
"+++++++++++++++-++++++++++++++++++++++++-###++++#-++++++++++++++++++-#.+++++++++++++++++++++++++",
"++++++++++++++++++++++-+++++++++++++++++++++++++++++++++++++++++++++#++++++++.++++++++#.+++#++-#",
"+++++++++++++++++#-+++#+++++++++++++++++++#.++++++++++++..+++++++++++++++++++#+++++++++++++-++++",
"+#+++++++#++++++++++++++++++++++++++++++++++++#+++++++++#+++++++.+++++++++++++++++++++++++++++++",
"+-..+++++-++++++++++++++++++++++++++++++++++++.#++++#.++#+++++.##+#.++++++++++++++#-++++++++++++",
"++##++++++++++++-+++++++++++++++++++++#++++++++.++++++++++++++-+++++++++++++#++++++++++#++++++++",
"++++#-+++#.+++++#+++++++++++++++#.++++-+++++++++++++++++++++++#+++++++++++++.++#+++++++.++++++++",
"+++++++.+++++++++#++++-++++-#+++++++-#+++++#+++++++.##++++++++++++++++++++++.#+-+++++#++++++++++",
"++++.#+#+++++++++.++++#++++++++++++++++#+++-+++#+++++.+++++++++++++++++++++++++++++++-++++++++++",
"+#+++++-++++++++++++++#+++++++++++#-+++.++-#+++.+.#+++++++++-+++++++#.++++#.+-#+++++++++++.+++++",
"+.+++++#++++-#++++++++#.++++++++++++++++#-++++++++++++++++++#+++++++++++++++++++-+++++++++#+++++",
"+++++++++++++++++++++++-++++++++++++++++++++++++++++++++.#++++++++++++++++++++-+#+++++++++++++++",
"++++++.++++++#-++++++++++#.++++++++++++++++++++++++++++++++++++#++++++++++++++#+++++++++++++++++",
"++++++#++++++++++++++++++++++++++++++++++++++++++++++++++++++++--#++++++++++++++++++++#.+.++++++",
"+++++++++++++++++++++++++++++++++++++++++++++++++++++++++++++++++++++++++++++++++++++++++#++++#."
};
