/* XPM */
static char *pause_msg[] = {
/* columns rows colors chars-per-pixel */
"192 96 20 1 ",
"  c #321A32",
". c #321B32",
"X c #331B32",
"o c #321A33",
"O c #331A33",
"+ c #321B33",
"@ c #5A7A66",
"# c #5B7A66",
"$ c #5B7B66",
"% c #5A7A67",
"& c #5B7A67",
"* c #5A7B67",
"= c #5B7B67",
"- c #DA82DA",
"; c #DB82DA",
": c #DA83DA",
"> c #DB83DA",
", c #DA82DB",
"< c #DB82DB",
"1 c #DA83DB",
/* pixels */
"#<$$$#$$#***#$**##**%%@*#*&&&#####**#*###**#$#$*##1$+**$+###$###*#####<#*######*$$$$*$##+#*#**#**$#1#**#**#**####$**##***********##*####**#******###-#.#** #**#*#**#*#**<#*#**#*#*###**##% #*##$",
"##&&##**<##**$****.**%<**#@%&&##**####*#*$#$$***##$#$#**##$$**1#**$*****#*#**#*##$#$*$*#*#*####$#*****##*#1##**#*##*+***<*###*##**#*##**##*##*##**#*****#*##**##<##**###*##*#*####*#*#*#*****##*",
"***&#****##**#.$#*****#*#*%%*#####1*##**#*$*$*###**1*#*#+#**+$$$$$$#*#****#**-###<##$#**#***#$#*****###**#**#***+###**#######**###**<*##*##**###*#**#<*##*+##* #**####*####*##*1##%,*##****&*##*",
"#*&&#+####**#<*##*-*+##***%%#######*$+****##*$###$*$*#****#*#####$*1###*#*#*#*.*#**#****+##<#+####*#**#+***$###1#***<*+#####*#*#*##**##.**####*##**#*#####*##*****#*#<##*#****## @%%#**#&# &#<#+",
"*###**&&#1+***##*#@###*#**<#1#*$$*##*****#####<####***###$#$*****$*#####%%*******##########*##*#*#*$***#$$#<+#***#*#######*#<*<####*#*#**#***###<#*$###**#*#*##***##**####*****##****#**####****",
"*###**##*##+#*****@-*******#*#**#****####*<*$$*****###*##<*$*###$**##*#*@****#.#****####**<**##**$$###*#**$*#+##**###<**#*****#####*#****###<#**#**#*#*####<**##****####**##*##*+****###**##<#*#",
"###***#*#*##***#*@#.##*#*&*#**1$:$###*$*$*******#******##*##*##****#*#*#@@#*##****## *&#*##*####$*###*#$##*$****$****+#**##*#*##<#1**#*##*#*#******#*#*#*##*****#*#*##***#*###*#*#****+#&#####**",
"***#******###**#.****##*&&******###+*#$#***##$*###*###*###***##****#*#**@@**###**####*&&##*#***#$**##**$***##**$*# ##*#$*###*#*#****#.**$****#***#**###*#*##*#***##*##*****#******#**#*#&&####*#",
"#1**#*##*<$##*.####*#*##&&#$#$**#<#****<*#*##*#*#*####*#-*#***#**#*#***#<@*####*#**##<&&<*****$$**#<#*###**<$$$* #&**###***##***#*#<#***#<*##**###*#$***#*<$########**#*##1*##****#$*$*<#*-**#*#",
"#*1###*##+***+##**##*#-#######<*$#<*#<***#*#+*###*+*##**+#*#+#*#*####*## &**#*###*#**#&%###**$$$##*#<#**#$*.#$$+*&&*#***1*#***&*<***-**-#***##+####*+#*#*#+*##.#**###**#*#+*#*####$##**##*#*#**#",
"$####*$#$#+##****##*#*#*##+$**##+#*#*###*<#*####*######***#.######*#***#&###***###*****-#****+##*$#****#*###+$#*&&**#*###***X&&&## ##$*#*##<$**#*#*#$*##*$*#@ #@#*#*#**#*###$*#$#####**##-#*#**.",
"#+<$*#*+*#<##**##**#**##$#+#****###*##*###***##**##$###**#*#<##*****-###&###**#***+***%%*#*-*+#$#+#+1#**#.##<##*&&**#*##*###+&&&***#$**##**#**#*#***$#*#*#$*@$<@#*#**#<*#*#*##$###**+#***##*#-*.",
"#*1#**###**##*#*###*##*#-**#**@&***##***##*********#***-*#*****#**#*<*#*##**#*##**###<###*###$$$####<$#*##****#*&&##****$$1*$##$*#***###****$*$**#*#*#*#*<***#$*##**#*<##*#$*#*$#***###<***#****",
"#*###*###<##***#*#*##*#<###***&&#1***###*#######**##****#*#*%**#**-*****###*##***##*###*##*#$#$$*#*##*#**#*1#*##&&##*****<#$##$$###<****#**###**##$#***#$$****$**##*1####**#$*##*#*####*****##*#",
"$***##**##**.*##*###*****#####&&#**#*1$*###$##**##+#*******# &##$-$$.#**####***<***##*****##>&####*#$#$$*#*#**+#*#*###**#**$#*$$###*###<*#****#*###$.*$**$**#*.@***<##+#*#**##**#<###*##**##*#-*",
"*##*****#<##*#*.#**###*#**#####&*#*#+*<*#**$##<+**##<#-*##***@#*$*$$##-******##<###*#*#***#*$$##****$****##-**##*+####**#*###***#***## $<#**###*-+#$*#<#<*###***#*$#**#*1#*#*#*##-**#*###*****#*",
"#&&&***#*#*#1**##**#**<*#*%@@%*%***###***###**#********#******$#*-*##*#####**##*+#***##***#*#*&#**##*###&&****:$**&&*#*#<#$*##*##*#$**#**##*#**#*****##*#*#***#*#**<###***######## ***####*#*##*",
"#&&******#**##***#***##*****@*&@*#####*#* ##***#**##****##$*#$$##@####*#**#*##**$#**#####*****&&###*##**$&&*#*#$**&&#*#*$#$*$*#**#*$$#$#**$+##***#****#*#*#**##*****##***#**###*####*#*##**##***",
"#***&*#*####**$####***#*#**#*##*##**##**###*#***& ***#**#*<##*$##.#*#*##*****####*#*#*#*****&&&&********&$****##*#&##*#**##**######$$*#***##*###*&#+*#**##*#<#$*##*.***###**#*#**###********##*#",
"&**#&&****#<**$$*#**.****#*#*#****##**#*#**##**$#&#*#####*$####$#####*##****#*#*###**#*####*#*&&*-*#**##&&###1$#*####*+***#####****#*#*###$$##**&&*#*#**#****#$$*******###*****##***&******$####",
"##*###**+**#&>##***##**#*##&***&*#**#$$X#*#*#*##$***#+$##*#*#$$##**#*#*#*#######*###*.#*<###*#*#*#*#***##$+#$##<**$&$$*####****###*#####*+##**##&&&&$*#+*#*#$$$$#####***##*#$&##**#*&&& #$<*$$#&",
"####****#***&$$$##**##****#&*#&&***##+#>**#*&*###*#*#*#***#*##$$****#*##****####***###****$##*####**#$#*$$$###$$&*&&#$*#**##**###***### $<*###**&&##$$#*######$&***#**%**###$###**#*&&&&$$*$$$$$",
"##*+*##*###*$$###*#*#*##**#****&<#$#$$$#&#$*##*&**#**##*##*###$#**$$#.#***####<##*##*#*#**#*##**#****+*$###$####&&&$$$$#*#######$#1$#$*##***#*#*#####**#$#*$##$#####@@@ *#$#&$&#>&**####$#$###&$",
"####**+*###*$$#$*###*.**&&& &**#*#$#+###& ***&&&#*##***$#**$###$##$###***###<##*#*-**##*#***+###-***#$**+**$###&&&&&$$*+***** **#$**$# #*** ****####**####*#$$#$#*###@@$$$###$>&&&#*1$$$##$#$#X$",
"##################;####&&&#########################<*&&&##########################################################&&1###########**###################<##########$***#####&######&&&&############",
"+########&########&####&&&####&;#######&############*&&&###############+##########################.################&*############<##############################$$**##### ######&&&&#&##########",
"#########X#&##########; &&&##### &#####X######&#######&&######>##########+#########<######################& #&####&&**##1+######**+###### ######################-@@$####### ######&##;#########&",
"###########>#######&;###&&&###################;#######&&######&##############################+###############;####&&&*1#########################<###############@@@$#######&###################X",
"+#############&>#############&############################################*#######################.##############;&#############################################@&##############################",
"#############################;##&;########################################**#############-###+#################################1###<######################################################&;##&X",
"##############;&#######&##############;&###############################-##+*####################################;#######################<############################&###;&# ##################&",
"####<################## ###########################################.#########################+########<#########&########+########################################### ######&################## ",
"###<################X&###X&########################X&##############&###############&&X###############<################ #### &&#######################X&##############&#####&#########&&X########",
"##########################&>####################################>##X#######&#######>##################################&######;###################################&>##X#####&#########>##########",
"###############################################X#######&##X&>&##&#######>X#>#####################################################################X&#########X#>###########>X#>&#################",
"################################>##############&#######X################&&#&>####################################################&>#####################&X##&#&##############&>#################",
"##***&#######################>##>&##>&###########################>&######&###############&#####################################;##>###>############################>############################",
"##+<&&#######################&###&######################X################X####>&#########>##########.<#########&###############&##&###&###################X&#######&######&X####>&########&>####",
"####&&&#####&;##X&#############&########X&##############&########&#####################&#######################;## #######################X#########################&&#########&#########&##&###",
"####&&&########################>################&>###############&X>########&>#########>#&>#######################&#############&>########&#######&>################X>#########>#########>##>###",
"&;################X##############&################################################&###XX###########<################X##############&####################################################XX&#####",
"##################&####&#&X######X#&#&>###########################################X###&&####&X######################&#######X&#####X####>###########################################X&####&###&X",
"###################&###X###########X####X#################&#####X###########################X############################ &##########X&#&#X&################&#####X###########################X#",
"###################>###########&########&#################>&X###&#####&>####################&#######################&>######################################>&X###&#####&>####################&#",
"###;# &##########>&##&####>&&#>X####>&########X&>&#####&#&##X&###################################<###-#+##****#####>###&####>###>X&##&>#########X&>&##########X&########&#######################",
"###&#################>######>#&###&>###################>#X############&>##############&>##################**&&#####&###>####&#>###&##>&#################&>&X############&>#########&####&>######",
"#########;################################&#&X##############&##########>#########X#########################-&&################&#############&#&X#########################>#########X#######&##&#",
"#######& &################################>#################>##########&#########&######&>#&X#############+#&&##############################>#################>&###########################>##X#",
"#####################################################X&####>&#########################################################################################&X####&>##################&###############",
"######;###############################################>#######################>###>&####################>###############################################>#######################>###>###########",
"######&################################X##############&#######################&#########################&###############################&X##############&###########################&###########",
"######&X#&>############################&################################################################&X#&>##################################################################################&",
"X#######&##########&##########################&X##############>##############&###############>####X&#############################################X&######&######>&#############################>",
"&#######>##########X###############&##################&>######&##############>####X&#######&#&############>#########&X###################################>####################&>####X###########",
"##################&##########>####&>#######################&#####&#####&###################X##############&####################>#####>#############################&################&########X&#",
"##################X&>####&X##&####X########################X#####X#####X###&X#######################################X&>&###&X##&###&X&######################&X#####X####&X###&X########&########",
"#################&##################################&###>##>####&X##############X&###>X&###########################&####################################&#>##>####&X##############X####>X#######",
"##>##############X##################################X#X&&##&&X###&>##################&##############>&#############X##################################X#X#&##&&X####>#############&#####&#######",
"##&##############################&###############&######>>#############################&##########################################&&###############&##&###>>########&###########&#############&#",
"#######&#######&#################>###############>######&####################&>########X###&>######################################>###############>#####&&#####################>#######&X####>#",
">&#####X#######>#################X######################&#>&>&####################################>######X&######>&################X########################>#>#################################",
"####################>##########&#&######################################################>&########&###################>&########&&##########################&#&###########################>#####",
">#######>########&##&#########>X>&######################>#######>###################>&############>&######>#####################>X>#######################>#######>&##################>&##&#####",
"&#######&########>############&#X&######X&##############&#####>&&#########################################&#######&>############&&X######&X###############&####&>###############################",
"#######&#####&####################&>#############################>&##X&#########&####################################################>#############################>###X&#######################",
"#######X#####>#&############################>#######X########&>#########&>######X#######################&X####&>#####################&########>&######X#########>&#&######&>######X&############",
">&#############X#####>####&#X&##############&#####X&&#############################################>#############&X####&>######X&####################X#&######&##################################",
"################>####&####>#############&X################&X#####################&>###############&##############&>#########>#############&X########&########X######################>&##########",
"####>&##########&########&#################>###&#X&&#######################&###X######################>&###################&&################>###&&X#########################&###X&#############",
"#########################X#################&###X#>#########################X###&###########################################X#################&###X&>#########################X###&##############",
"######&&################################X###########X&####################>&###>####>&##X###############&##############&##################X###########X&####################>####>####>&##X#####",
"#######>>####&>&####&>##################&###############################&X#####&########&###############&>>#####>&#####>##################&###############################&X&#############&#####",
"##&############X#####X&&&###########X#########X&###################&##X#############################&###########&X####&X##&###########X&########X####################&##X&######################",
"##>#########>########>##>###########&##############################>##&#############################>#########>&######&>##>#####################&####################>#################&########",
"############&#######################################&XX&##X####&###########&#########>&###############################################################&XX###X&###############&#########>########",
"######################################&>##################&&###X###########X############################################################&>##############&#######&X###########X##################",
"################&X&X################################>######X#######################################################X#X&###############################>&#####X##############################&&##",
"####################################################&#################>&###############&##>X#######################&#########################################&##########>###################>X##",
"##################&###################X&##########X&##############>&###################>##&&#####&#######&#####&####&###################X###########X###############>&##&##########&####&>######",
"######&>####&>####X#####&>#&X########&X#&>######################################&X#####&X########>#######>#####>####X#####&>#&X#######&&X#&>########&##############################X#####&X#####",
"#############&##########################XX#####>#X&###############&##################X&########################&##########################XX####&>&X###################################X########",
"#############>########################>&&&####&>#######&##########>#X&#########################################>########################>&&&####&>##################>&X################&########",
"################&###>####################&####&########&##################&X########&X######>#########################>###############################################&######X&########X###&##>#",
"################>###&####################X############XX################################&>##&####################&>###&###################&X############XX#############################&###>##&#",
"###################################################&##########X&#&###############&###############&#######&####################################&#########&#######X##&###############&############",
"XX####&>####################################X&#####X########X####X###############>###############>XX#####>####################################X&####&X##&#####X&&##X###############>############",
"&##&##########>&###############&############&X##############>########################&############&&############>#####################&########X##############>#################################",
"&##>####X######################X####>&######################&&###########&X##########X##############&>###&X#####&###############&X####>#######################&############&X##&######&X########",
"####&X##&###########>&##&>########>##############X&&######################X&#>&########################X#########&####>####>&#######>&#####&#######X&&######################X&#>################",
"#&X###########&X##################&#####&>#########X##############################&>################X&#&#########X####&################&###>###&#####X###############&#######&######&>##########",
"#####>###############&###########>###X##>###&X#X##########>&#######X####&X#>############X########&#####>##############&###########&>###X##>&###X#X&#########>########X#####X#>############X&####",
"#####&####>&#########X###########&###&&>&######&###################&#######&#&>#########&########X#####&####>&########&X################&>##################&##############&####>###############",
"####&###############&>################################X#####################>&#########################################>################################X&####################>&&###############",
"####X#######>&##########X&############################&######&#########################&##############X######&>##########&X####################################&#######################&########",
"#############################################################>>######################X&X#####&########&########################################################>>######################X#X&####&",
"##############################################################&##############################X##################################################################&##############################X"
};
