/* XPM */
static char *run_4[] = {
/* columns rows colors chars-per-pixel */
"90 90 43 1 ",
"  c #4E4D5C",
". c #5C6D77",
"X c #6E7A80",
"o c #758188",
"O c #7B888F",
"+ c #728794",
"@ c #7C8C95",
"# c #7F919C",
"$ c #80939E",
"% c #88989E",
"& c #8799A4",
"* c #8B99A1",
"= c #8C9BA4",
"- c #979DA5",
"; c #93A0A7",
": c #9BA6AD",
"> c #9BAAB3",
", c #9EADB2",
"< c #A6AFB4",
"1 c #ABB7BF",
"2 c #B0BABF",
"3 c #E6A3A3",
"4 c #A7B8C2",
"5 c #D6BFC1",
"6 c #B1C3C9",
"7 c #BBC5C9",
"8 c #BAC4CA",
"9 c #B7CAD0",
"0 c #B8CBD0",
"q c #BDCED4",
"w c #C3CED1",
"e c #C8D3D6",
"r c #C3D3D8",
"t c #C6DBDE",
"y c #CCD8DA",
"u c #CDD9DC",
"i c #DBD6D7",
"p c #E3C8C8",
"a c #D1E0E2",
"s c #D3E4E6",
"d c #D7E7E8",
"f c #DFEDED",
"g c None",
/* pixels */
"gggggggggggggggggggggggggggggggggggggggggggggggggggggggggggggggggggggggggggggggggggggggggg",
"gggggggggggggggggggggggggggggggggggggggggggggggggggggggggggggggggggggggggggggggggggggggggg",
"gggggggggggggggggggggggggggggggggggggggggggggggggggggggggggggggggggggggggggggggggggggggggg",
"gggggggggggggggggggggggggggggggggggggggggggggggggggggggggggggggggggggggggggggggggggggggggg",
"gggggggggggggggggggggggggggggggggggggggggggggggggggggggggggggggggggggggggggggggggggggggggg",
"gggggggggggggggggggggggggggggggggggggggggggggggggggggggggggggggggggggggggggggggggggggggggg",
"gggggggggggggggggggggggggggggggggggggggggggggggggggggggggggggggggggggggggggggggggggggggggg",
"gggggggggggggggggggggggggggggggggggggggggggggggggggggggggggggggggggggggggggggggggggggggggg",
"gggggggggggggggggggggggggggggggggggggggggggggggggggggggggggggggggggggggggggggggggggggggggg",
"gggggggggggggggggggggggggggggggggggggggggggggggggggggggggggggggggggggggggggggggggggggggggg",
"gggggggggggggggggggggggggggggggggggggggggggggggggggggggggggggggggggggggggggggggggggggggggg",
"gggggggggggggggggggggggggggggggggggggggggggggggggggggggggggggggggggggggggggggggggggggggggg",
"gggggggggggggggggggggggggggggggggggggggggggggggggggggggggggggggggggggggggggggggggggggggggg",
"gggggggggggggggggggggggggggggggggggggggggggggggggggggggggggggggggggggggggggggggggggggggggg",
"ggggggggggggggggggggggggggggggggggggtttttttttgggggggggtttttttttggggggggggggggggggggggggggg",
"ggggggggggggggggggggggggggggggggggggtttttttttgggggggggtttttttttggggggggggggggggggggggggggg",
"ggggggggggggggggggggggggggggggggggggtttttttttgggggggggtttttttttggggggggggggggggggggggggggg",
"ggggggggggggggggggggggggggggggggggggtttttttttgggggggggtttttttttggggggggggggggggggggggggggg",
"ggggggggggggggggggggggggggggggggtttttttt53333gggggtttttttt53333ggggggggggggggggggggggggggg",
"ggggggggggggggggggggggggggggggggtttttttt53333gggggtttttttt53333ggggggggggggggggggggggggggg",
"ggggggggggggggggggggggggggggggggtttttttt53333gggggtttttttt53333ggggggggggggggggggggggggggg",
"ggggggggggggggggggggggggggggggggtttttttt53333gggggtttttttt53333ggggggggggggggggggggggggggg",
"ggggggggggggggggggggggggggggggggtttttttt53333ggggdssssssssippppggggggggggggggggggggggggggg",
"ggggggggggggggggggggggggggggggggtttttttt53333ffffffffffffffffffggggggggggggggggggggggggggg",
"ggggggggggggggggggggggggggggggggtttttttt53333ffffffffffffffffffggggggggggggggggggggggggggg",
"ggggggggggggggggggggggggggggggggtttttttt53333ffffffffffffffffffggggggggggggggggggggggggggg",
"ggggggggggggggggggggggggggggggggtttttttt53333ffffffffffffffffffggggggggggggggggggggggggggg",
"ggggggggggggggggggggggggggggggggttttttttsffffffffffffffffffffffffffggggggggggggggggggggggg",
"ggggggggggggggggggggggggggggggggttttttttsffffffffffffffffffffffffffggggggggggggggggggggggg",
"ggggggggggggggggggggggggggggggggttttttttsffffffffffffffffffffffffffggggggggggggggggggggggg",
"ggggggggggggggggggggggggggggggggttttttttsffffffffffffffffffffffffffggggggggggggggggggggggg",
"ggggggggggggggggggggggggggggggggttttttttsffffffff7----fffffffffffffggggggggggggggggggggggg",
"ggggggggggggggggggggggggggggggggttttttttsffffffff-    fffffffffffffggggggggggggggggggggggg",
"ggggggggggggggggggggggggggggggggttttttttsffffffff-    fffffffffffffggggggggggggggggggggggg",
"ggggggggggggggggggggggggggggggggttttttttsffffffff-    fffffffffffffggggggggggggggggggggggg",
"ggggggggggggggggggggggggggggggggttttttttsffffffff-    fffffffffffffggggggggggggggggggggggg",
"gggggggggggggggggggggggggggggggg4444444444444ffff-    fffffffffffffggggggggggggggggggggggg",
"gggggggggggggggggggggggggggggggg4444444444444ffff-    fffffffffffffggggggggggggggggggggggg",
"gggggggggggggggggggggggggggggggg4444444444444ffff-    fffffffffffffggggggggggggggggggggggg",
"gggggggggggggggggggggggggggggggg4444444444444ffff-    fffffffffffffggggggggggggggggggggggg",
"gggggggggggggggggggggggggggggggg99999999qrrrrffff7----fffffffff----ggggggggggggggggggggggg",
"ggggggggggggggggggggggggggggggggttttttttsffffffffffffffffffffff    ggggggggggggggggggggggg",
"ggggggggggggggggggggggggggggggggttttttttsffffffffffffffffffffff    ggggggggggggggggggggggg",
"ggggggggggggggggggggggggggggggggttttttttsffffffffffffffffffffff    ggggggggggggggggggggggg",
"ggggggggggggggggggggggggggggggggttttttttsffffffffffffffffffffff    ggggggggggggggggggggggg",
"ggggggggggggggggggggggggggggggggtttt4444444444444rffffffff-    3333ggggggggggggggggggggggg",
"ggggggggggggggggggggggggggggggggtttt4444444444444rffffffff-    3333ggggggggggggggggggggggg",
"ggggggggggggggggggggggggggggggggtttt4444444444444rffffffff-    3333ggggggggggggggggggggggg",
"ggggggggggggggggggggggggggggggggtttt4444444444444rffffffff-    3333ggggggggggggggggggggggg",
"ggggggggggggggggggggggggggggggggtttt9999qrrrrreeraffffffff7----ppppggggggggggggggggggggggg",
"ggggggggggggggggggggggggggggggggttttttttsffffffffffffffffffffffffffggggggggggggggggggggggg",
"ggggggggggggggggggggggggggggggggttttttttsffffffffffffffffffffffffffggggggggggggggggggggggg",
"ggggggggggggggggggggggggggggggggttttttttsffffffffffffffffffffffffffggggggggggggggggggggggg",
"ggggggggggggggggggggggggggggggggttttttttsffffffffffffffffffffffffffggggggggggggggggggggggg",
"ggggggggggggggggggggggggggggggggggggtttttttttffffffffffffffffffggggggggggggggggggggggggggg",
"ggggggggggggggggggggggggggggggggggggtttttttttffffffffffffffffffggggggggggggggggggggggggggg",
"ggggggggggggggggggggggggggggggggggggtttttttttffffffffffffffffffggggggggggggggggggggggggggg",
"ggggggggggggggggggggggggggggggggggggtttttttttffffffffffffffffffggggggggggggggggggggggggggg",
"gggggggggggggggggggggggggggggggggggggggg06666uuuuewwwwwwwwyggggggggggggggggggggggggggggggg",
"gggggggggggggggggggggggggggggggg....ggggg>>>>78872<<<<<<<<ggggg++++ggggggggggggggggggggggg",
"gggggggggggggggggggggggggggggggg....ggggg>>>>88882<<<<<<<<ggggg++++ggggggggggggggggggggggg",
"gggggggggggggggggggggggggggggggg....ggggg>>>>88884<<<<<<<<ggggg++++ggggggggggggggggggggggg",
"gggggggggggggggggggggggggggggggg....ggggg>>>>87872<<<<<<<<ggggg++++ggggggggggggggggggggggg",
"ggggggggggggggggggffffgggggggggg........@>>>>OOOOOOOOO<<<<=++++++++ggggggggggggggggggggggg",
"ggggggggggggggggggffffgggggggggg........@>>>>OOOOOOOOO<<<<=++++++++ggggggggggggggggggggggg",
"ggggggggggggggggggffffgggggggggg........@>>>>OOOOOOOOO<<<<=++++++++ggggggggggggggggggggggg",
"ggggggggggggggggggffffgggggggggg........@>>>>OOOOOOOOO<<<<=++++++++ggggggggggggggggggggggg",
"ggggggggggggggggggggggggggggggg*........@>>>>****;::::====#++++++++ggggggggggggggggggggggg",
"gggggggggggggggggggggggffffffff,........@>>>>>>>>18878+++++++++++++ggggggggggggggggggggggg",
"gggggggggggggggggggggggffffffff,........@>>>>>>>>18888+++++++++++++ggggggggggggggggggggggg",
"gggggggggggggggggggggggffffffff,........@>>>>>>>>18888+++++++++++++ggggggggggggggggggggggg",
"gggggggggggggggggggggggffffffff,........@>>>>>>>>18888+++++++++++++ggggggggggggggggggggggg",
"ggggggggggggggggggggggggggggggggfffffffffffff>>>>>>>>>+++++++++ggggggggggggggggggggggggggg",
"ggggggggggggggggggggggggggggggggfffffffffffff>>>>>>>>>+++++++++ggggggggggggggggggggggggggg",
"ggggggggggggggggggggggggggggggggfffffffffffff>>>>>>>>>+++++++++ggggggggggggggggggggggggggg",
"ggggggggggggggggggggggggggggggggfffffffffffff>>>>>>>>>+++++++++ggggggggggggggggggggggggggg",
"ggggggggggggggggggggggggggggggggggggggggggggg>>>>>>>>>&&&&$ggggggggggggggggggggggggggggggg",
"ggggggggggggggggggggggggggggggggggggggggggggg>>>>>>>>>>>>>gggggggggggggggggggggggggggggggg",
"ggggggggggggggggggggggggggggggggggggggggggggg>>>>>>>>>>>>>gggggggggggggggggggggggggggggggg",
"ggggggggggggggggggggggggggggggggggggggggggggg>>>>>>>>>>>>>gggggggggggggggggggggggggggggggg",
"ggggggggggggggggggggggggggggggggggggggggggggg>>>>>>>>>>>>>gggggggggggggggggggggggggggggggg",
"gggggggggggggggggggggggggggggggggggggggggggggXXXXoOOOOgggggggggggggggggggggggggggggggggggg",
"gggggggggggggggggggggggggggggggggggggggggggggXXXXoOOOOgggggggggggggggggggggggggggggggggggg",
"gggggggggggggggggggggggggggggggggggggggggggggXXXXoOOOOgggggggggggggggggggggggggggggggggggg",
"gggggggggggggggggggggggggggggggggggggggggggggXXXXoOO@Ogggggggggggggggggggggggggggggggggggg",
"gggggggggggggggggggggggggggggggggggggggggggggggggggggggggggggggggggggggggggggggggggggggggg",
"gggggggggggggggggggggggggggggggggggggggggggggggggggggggggggggggggggggggggggggggggggggggggg",
"gggggggggggggggggggggggggggggggggggggggggggggggggggggggggggggggggggggggggggggggggggggggggg",
"gggggggggggggggggggggggggggggggggggggggggggggggggggggggggggggggggggggggggggggggggggggggggg",
"gggggggggggggggggggggggggggggggggggggggggggggggggggggggggggggggggggggggggggggggggggggggggg"
};
