/* XPM */
static char *run_l_6[] = {
/* columns rows colors chars-per-pixel */
"96 96 40 1 ",
"  c #4E4D5C",
". c #5C6D77",
"X c #A4C262",
"o c #A5C262",
"O c #A5C362",
"+ c #A5C263",
"@ c #A5C363",
"# c #C0D470",
"$ c #C1D470",
"% c #C0D570",
"& c #C1D570",
"* c #C1D471",
"= c #C1D571",
"- c #6E7A80",
"; c #7B888F",
": c #728794",
"> c #9BAAB3",
", c #A6AFB4",
"< c #E6A2A2",
"1 c #E6A3A2",
"2 c #E6A2A3",
"3 c #E7A2A3",
"4 c #E6A3A3",
"5 c #E7A3A3",
"6 c #E8EEAA",
"7 c #A7B8C2",
"8 c #BAC4CA",
"9 c #C6DADE",
"0 c #C7DADE",
"q c #C6DBDE",
"w c #C7DBDE",
"e c #C7DADF",
"r c #C6DBDF",
"t c #C7DBDF",
"y c #DFECEC",
"u c #DEEDEC",
"i c #DFEDEC",
"p c #DFECED",
"a c #DEEDED",
"s c #DFEDED",
/* pixels */
"*@**O========&=&======&&&&&*&&&&&&******&&&&********================&=***&&O***================*",
"****&&=======&&&======&=&&**&&&&&&****&&&=&&***=**=OO&============&&&&*&&*==*&O=================",
"==*=&&&*====&&&&========&&**&&==&&**==**====**&=====*&**====&&======&&&*====****================",
"====*&&*====&&&&========*&**&===&&**===O====&***====****====&&*&====&&&&====*&**================",
"======&*****&&&&*&&=*****&====================&*======*&====*O======****======**&***=&=&O=======",
"====&=******&&&&***O**&*&&====================O&======&&=&==*&======&&**======**&&&*=&&&**======",
"=====&&&O=**==&&*&*****&&&*===================&&====&&&&===========O*&**=====**&***&&*&&**&&&===",
"====&&&&==****&**&****&***&O====&=============&&====&&&&&&=========&*&**====&&*=&*&***&**&&&&&==",
"====**=&==============**========&&&*==&&=&=&&&&*&&*&======*==&*&==&&&&**====&****O==**&=========",
"====***&====OOO===O@@=**=======O=&&&====&&**=&**&&&*=====O@@&*=O==&&=&=&====&&&**&==*&O=========",
"====**&&====OOO=**OO@==*=======****&====&&&*====&&**==O@=OOO========&&&&====O=**====&***========",
"==O***&&====OOO=O*OO@=&====@tittwwwwtu==**&*====ttttturtwwOO========&&&&======**====*&**========",
"===========O=&&OOO*&***&=&&&wwwtwwrrrr==&O======twtttttwww==O@@=====*&&&=====&**==&***=====&&&&O",
"===========&===OOO***&&&==&&wwtwwwwwrw==========twwwttwwww&=@@@==O==*&&&======&&====&&&&====&&&*",
"&&========*&**=OOO&******&&&wwwwwwwtrw@=========twwwwtwwww==@OO=**&**&&&&&========&&*&**====&&*&",
"&=========*&*&&=*&*****&**&&wwwwwwwwrw@=========twtwwwwwww==OOO=***&&&===&&=======&&&&=*====&&**",
"&&*&**&*&*****====&&&&&&====5555<9w9tteettt*====1555<rrrrrqwqqqO&&&&O===========****&&&=&*&***&&",
"&&&*&**&****O&====&&&&*&====5555<ww9tterttt*====155550r0rrwwwqs@&*&*======&=====****&&&=**&&**&*",
"&&*&******&&=======&***&===O5555<wrrrrrrttr*====<55<5099r9wwrru&**&&====&&&&====*OO@&&==*=&***&*",
"&&&&*&&&*&*&=======&**&&===&5555<wrr0rrrttu===@=3<5<<r9999ww9rr&&&&=====&&&&====*OOO&&==*=&**&&=",
"====****&&&&==*O==&&**&&****5555<wwwrrrrtww*@===33111999qqww9ww&==&&====&*****==&OOO====****&&=&",
"====****==&&=***==O&******&*ssssuuiippiiiiiissss335<<rrrqqww999&&&&&====***&**@@O&*O====****&&&&",
"======**======&&==*&&*&*****ssssuuiipasssiiisssi3531<rrrqqww99r&========*&*&*OO@O=========*O&&==",
"=====O&*======**==&*&&*&****psssuiiapapasiiiisas55555rrrqq99rru@======O***&&**O@O===========&===",
"=&&&&&&&&**&***&====O======&ssssuuppppppssssssss44414qqqqqqqqqqX@@******&*****@@@=***&&&&&&*****",
"==&&&=&&**&&*&&&====**====&&ssssuuppppppssssssss44414qqqqqqqqqrX@@******&*****@@@=****&&&&&&&***",
"&&&&==****&&&&&&&&==***isiiissssupppssppssssssssaaaaawqqqqqqwwrX@@***=**O***&&@@@==*=*@*=&**&&&*",
"&&&&******@&&&&=&&==***isiiissssuuppssspssssssssiiuaarqrqqqqqwuX*@@@@=****&&&&*@==**=***==**&&@*",
"&&&&&&&@*****&==&&====*issssssssssssssssssssssssiiiiawwrtttrqqq@&*O@@*&&*===&&&&****=&&&&&&*==**",
"O&==&&&&==*&&&**&&==&=*issssssssssssssssssssssssiiiiarrrwtttqqu=&*OO@@&&====&*&&=**@=&&&&&@*&=**",
"====&**&=&&&&@**&&O=&&&issssssssssssssssssssssssssiiawrrwrttts9@**@O@*&&*&&&**&&==&&&*&&*&&&&&**",
"====**&&&&&&&&**&&**&&&issssssssssssss     sssss777777777777,7,&**@OO*&**&&&&&&&&=&&&******&&&@&",
"&=**&**&**&&&&&========sssssssssssssss     sssss777777777777777@$$OO@@&&&***&**&&&=&&&&&**=&&&&&",
"&==*&**&*@&&&&&========sssssssssssssss     sssss777777777777770@***$*$&&****&&**&&==&&*&**==&&&&",
"&&**&&&&**&&&&*======*=sssssssssssssss     sssss777777777777777&**&&***&*@*&&&==&***&&****&&&**&",
"&&*@&&&&=*******===@**=sssssssssssssss     sssss777777777777777&&&&&**&&*&&&&&&=@***&&&*@&&&&&**",
"&****==&=&&&&&@*=&&&===     ssssssssssssssssssssssssstwwwwwtwttO===&*&&&**&*****&&**&***&**&*@&&",
"&*&&**=&=&&&&&**&&&&===     ssssssssssssssssssssssssitwwwwwttti&====*&&&=*&&&***&&&*@***&&***&&&",
"**&&**&&&*&&&&*&**&&==@     ssiissssssssssssssssssssittwwqwtttt&==$$**=&=&&&&&&*&@&*&&==&&==***&",
"*@&&*@&&&******&=O&&===     siiissssssssssssssssssssitttqqwtt0iO=O$$$$====&&&&@***&&&&&=&&&=****",
"*****&&&&&&&@*&&==***&&     iiiissssssssssssssssaaaaaqqqqqrrrrr@&&&**$======**&&**==**=&&&&&&&&*",
"=*&&*&&&**&&**&&==&&*&*<5555     ssssssssss77777777777777,rqrrs@&&**$$======*&&&**&=**==&&*&&&&&",
"=&&&**@***&&*==&=&&&**&55555     ssssssssss777777777777777qqqwuO&&==$$O===$O*$&&&&&&**&&&&**=&**",
"=&&&=***&&&&**=&==&&**@55555     ssssssssss777777777777777qqqwi*====$$==&&$$$$==*&&&@&&&&&&*==**",
"****=&&&*==&**&&=*&&*==15555     ssssssssss777777777777778qqqqq@$O==&===&&&*====****==*&&@&&&&**",
"=**@==&&**=&*&&&=*O&===15155     ssssssssss77777777778777,qqqqs@$$==&===&&**====&***&=****&&*&@&",
"==&$&&&&**&&*&&&==&&&&=sssssssssssssssssssssssssaaaaarrr8qqqwwu&$$**&&==$$*$$O$$&&&*&&&***=&*&&&",
"&=&&&****@$&&&====**&==sssssssssssssssssssssssssaaaaarrrqqwwwwu@$**&&&==O$$$$$$*&&@*&&&&**==**&&",
"&&&&&&&**&*==&&&***==&*ppppissssssssssssssssppppaaaairrqqqwwqqq@***$$$&&&&&*&&&**&&&==$$====$**&",
"&&**&&&*&&**==&&***=&&&pppiisssssssssssssssssppiaaaaiqqqqqwwqqs@*&$$O$==&&**&&***&&&=O$$&===$**&",
"&&*&=&**&$@*&&&&&@&&&&&piiiissssssssssssssssssiiaiaairqqqqquwuu&&&&=====$$*$&&==**=&==$$&&==$$&&",
"$&&&===*&&**&***&&&*&&******ssssssssssssssssssiirrrrqqqqqq@=@O&&&&&=====O$$$====$$====**&&=O$$&&",
"@*&&&&**&&*&&$@*&&&*&&&&**==ssssssssssssssssyyyirrqqqqqqww&&========&&&===&&&*==$$O=&&&*&***===&",
"**&&***@&**&&&**&&**@&&*=O==ssssssssssssssssyyiiqqqqqqqqww&&=@======&&&===&&**==$$==&&&*&*$$====",
"*==&*&&$&&&&==**&&=*****====ssssssssssssssssyyiuqqqqqqqquw======$O$$&*=====&*$$O=====&====$$==$$",
"**==&&&&$&&&&==*&==****&====ssssssssssssssssyyyuqqqqqqqqww======$$$***=====&$$$$&========O$$=O$$",
"&&**=***@*&&&&&&&&&@**&&&&&&*O&&*,,,,,,,,,,888888888w===O&&&&&&&&&&&&*======*&&&&&$$O=========$$",
"&&*&=*666*==666&&*&&**&&*&&&*&&&*,,,,,,,,,,8888888888===&&&&&&$$==&&**=====O*&&&&&$$=====O==&=**",
"&&&&==666**=666***&&*==&**==*=&&*,,,,,,,,,,8888888888&==&&&&**$$====*$$O==$$**=&&**$&&==$$$*&&&*",
"@$&&&&666**=666**&&&*=&&&*====&&*,,,,,,,,,,8888888888&O*&&*&*@$$====$$$$&=$$$$==&**$&&&=$$$*&&&*",
"****&&$*=666*&&&=&&&**@&&&&&===&*,,,,,,,,,,8888888888******&***=$$$O====&&&&====&&==&***&&&*$$$*",
"**==&&@*&666&&$&==..........===&O,,,,,;;;;;;;;;;>>>>>:::::::;::=$*$$====&&**=O==&&&=&*$$&&&*$$$*",
"&&==&&&&&666**@***..........=====,,,,,;;;;;;;;;;>>>>>::::::::::***&&==$O$$**$$$*&&====$$=&==O=**",
"&&&&***&&&===*****..........=====,,,,,;;;;;;;;;;>>>>>::::::::::**&&&&&$$666$$$$***===O$$======&&",
"&****===$@******&&..........&***=,,,,,;;;;;;.>.;,>>>>>.>:::::::O=====&&&666&&&$$$===***$$$&&&&&*",
"*****=&&&&**==*&&&..........&&&&=,,,,,.>;;;;,.;;>>>>>.-.:::::::*====&&&&666&&&$$$O==*&*$O$==&&**",
"&&&@**&&&&**=&&&$&..........*@&&*.--.-t8888,>>>>$$$$$:;::::::::*======$$=&=666**&&==&&&=====$$*$",
"&&&$*&&&&&*&=&&&@&..........*$&&*---;.08888,>>>>$$$$$::::::::::*======O$===666**&===&&&=====O$$$",
"**&&&&&&&&&&&&****..........**===.>-.;88888>>>>>O***$;:::::::::*==$$=======666&&&&O=====$$$$====",
"*&&&&&@$==&&&&*&**..........**===-..;.88888>>>>>=***o;:::::::::*==O$==&&=O=666&&&&$$666=O$$*====",
"&&&&=***==**&&&&*=..........&&&&=---.-88888>>>>>==$=$::::::::::===$$**&&&&&666=&**$$666===**&&==",
"&&===*******@$&&*===&&&&&&***&&&=,,,,,>>>>>>>>>>ppyyyyyyiiiiiip===$**&&&&&&666==**$$666===*&&&&&",
"&@**$@***======&$$$$$$$$&&==&&&&*,,,,,>>>>>>>>>>pppsyyyyyyyiiii==&&&=======666==&666&=====***$$$",
"&$**&&***=&&**=&$$$$$o$$&&==&&*&*,,,,,>>>>>>>>>>ppssyyyyyyiiipi&=&&&======&666==*666&=====*&$$O$",
"&=**&&****&&**$&$$$$$$$$$***&&***,,,,,>>>>>>>>>>ssssyyyyiiiippp&$*&*====&&&666==*666&&===&&&====",
"&===&&*&*&&&**@&$$$$$$$$@***&&&&*,,,,,>>>>>>>>>>ssssyyyyiiiippp666**O===&&&&====*666&&===&&&====",
"&&$@**&&&&====&&$$o$$$$$$$$$.;..->>>>>>>>>>>>>>>>;;;;O$$&$&&&&&pppppppssppppps==*666$$$O=====&&&",
"&&&&**&&&&**&&&&$$$$$$$$$$$$;..>->>>>>>>>>>>>>>>;;;;>&$&$$&&&&&ppppippssppppss=O$666$*$$=====&&&",
"&*&&*==&&@**&&&*&$$$$$$$$$$6....-,>>>>>>>>>>>>>>;;;;.=&&O&&&666ppiiisssspiiiss==$666**&&==$O$$&*",
"**&&*==&&$**&&**&$$$$$$$$$$6>;.;.>>>>>>>>>>>>>>>;;;;>O&&=&&&666pppiisssspiiiss==$666*&&&&&$$$***",
"===&**=&&&**&&==&&&&&&&&&&&6-.--.,,>>>,>>>>>,,,>;;;;;$$$*+==666sspppppppppppppO$$666$$$===&&**$$",
"&==&***&&o$*&&&=&&$$&&&. >--&&666=$$$$&&&&&&==$$$$$$$;;;,,==666&&&&&===O&&&&===$$$=O$$$O==&&**$$",
"&&&&**&&&&**&&==$$$$&&&-...-&&666===$@&&==&&==o&$$$$$;;;.-&&666o&&=&==$$&&=&==$$====**&&===&==$$",
"&&&o$*&&==***=&&$$$$&&&->.;.&&666===$$&&===@===&$$$$$;;;.,&&666*======$$======$$====**&&==&&===O",
"&***===&=&&&*$o&O&&&&&&.;.;.&&&&@=========&&&&&&$$$$$;;;>>o$666*=&&$***$=&$$&&**=&$$$$&&==O$===&",
"&=**&&====&&**&&&&&&&&&.-;..&&&&$$========&&&&&&$$$$$-;;.-$$666*=&$$&&*$=&$$&&**&&$$=O&====$==&&",
"&&**&&****&&**=&&&&&&&$$&&&&&&&&$$$$&&======&&&&==$$$$$$$$$$666*==O=&&====O=&&==&&**======$$**&&",
"&o$*&o$****=***&&&&&&&$$&&&&&&&&$$$$&&===@==&&&&*==@$$$$$$$$****====&&&=====&===&&**======$$**&&",
"&&=********$o&&&&&&&$$$$&&$$$$$$====&&@=@$$$====**$$$$$$*$o&&&&===$$$$O=&&&&**====O$&&&&=&$$$===",
"==&&**$*****&&&&&&&&$$$$&&&&$$$$====&&$$=$$$====**$$$$=@**&&==&&&=**$$==&=&&**=====$&&&=&&$$$O==",
"=&&&=&o&=*&&&==&&&&&o&&$&&&&$$$$==@$$$$$==$$&&==***$====**=&=&&&&&&*========$$$===$$**==&&**&&==",
"==&&=&&&&&&&&===*&&&&&&&&&&&$$$$===$$$$$==$$&&==**$$====***&==&&&&&*&=======$$$O==$$**==&&**&===",
"=&&&=&&&===&=&&&*$$$&&&&$$&&$$o&$$$$==@$====$$$=======&&=&&&**=&====&&&&$$$======&&&O===&&==&&**",
"=&&o==&&&&==*&&&*$$$&&&&$$$&$$&&$$$$===$====$$$@======&&==&&***&&===&&**$$$O====&&&&$$==&===&&**",
"==*$**&&&&****=&=&o&&&&&$$&&&&&&&&====$$$$&&$$&&==@=$$$$==&&**&&&&==$$****&&=&O=$$**$$**&&==O$$$",
"&=*****=&o$***===&&&&&&o$$&&&&&&&&====$$$&&&$$&&==$$$$$$&&&o$*&&&&=O$$$$**&&&&$$$$**$$**&&===$$$"
};
