/* XPM */
static char *run_l_8[] = {
/* columns rows colors chars-per-pixel */
"96 96 41 1 ",
"  c #4E4D5C",
". c #5C6D77",
"X c #A4C262",
"o c #A5C262",
"O c #A5C362",
"+ c #A5C263",
"@ c #A4C363",
"# c #A5C363",
"$ c #C1D470",
"% c #C1D570",
"& c #C0D471",
"* c #C1D471",
"= c #C1D571",
"- c #6E7A80",
"; c #7B888F",
": c #728794",
"> c #9BAAB3",
", c #A6AFB4",
"< c #E6A3A2",
"1 c #E7A3A2",
"2 c #E7A2A3",
"3 c #E6A3A3",
"4 c #E7A3A3",
"5 c #E8EEAA",
"6 c #A7B8C2",
"7 c #BAC4CA",
"8 c #C6DADE",
"9 c #C7DADE",
"0 c #C6DBDE",
"q c #C7DBDE",
"w c #C6DADF",
"e c #C7DADF",
"r c #C6DBDF",
"t c #C7DBDF",
"y c #DFECEC",
"u c #DEEDEC",
"i c #DFEDEC",
"p c #DEECED",
"a c #DFECED",
"s c #DEEDED",
"d c #DFEDED",
/* pixels */
"%%%%========%%%*=========*%*%%==%=%*%*%%==****=============%=%%========$$$%$$===$$==============",
"%#%%=%======**=%========%*%*====%**%%%+%==*==*===============%$%======$==$$$==$==*#=============",
"====*+*%====*%=%========***%====%*%*==%=====*=========$*====%%=======%=%===$*=$=$=$$====$#%=====",
"====%%%*====*%*%========*%%*====%**%========*+======+%**====*%%=======%%$$==*=$=***=====$=$$====",
"====%=%*====**%*%%==%*=%%%==================**%%==%$%=*%====%*%%====%%%%=#=====$==$$====%==%====",
"=====%%*====%**%%+==*%=%*%======%===========%*%%==%%$=%%====*%%%====%%%%======$=$==$======%%====",
"====%=%%=====%%%%%%***==**+%=====%==========#=**====%***======%%===#%%=======$$==#$==$==========",
"====%%%*=====%+*%%*%%*%=**%%====*%============%*====%%*%=====+*%====$$========$=====$=$$========",
"==========%%%%%%======%%====%%O$***%==%%=%%%****%%==%%%$=====%$=========$$$=%%==================",
"============+#+%%%+##=%=====%%%$%%**%=%=%%%=%=**===%%%%$=+#O=============$$$%%==================",
"======*+%%%%++#%%%#+#==%===+%%$$%#%*%%===%======%%#%%=$O=++O$$$====#====#=%=%%======$#$=======%%",
"======%*%==%#++%%##+#=====%%tsttat8wtt==%=%=====ttwtstt8tt+O*$$$===%======%%%%=======$=*=====#%%",
"=====%**====%%%+#+%**%%=====t99ttt8t88==%=======ttttt88t9i==+OO=%%$===============$$$$**==$$$$=%",
"====%%%*====%*%+##%*%%%%====t9tttt888t=%%=======tttt988t9t==+O+=%=$===============$$*$*$===*$=$=",
"%*==%%========%+++%%**%%%%==9988ttq888#%*%*+====qtqq999898==+++=%=%==%===============$***==$====",
"%*%==%%=======+%%**%%%%===%%999pt8q0t8%%%*%*====qqqq888888=OO++==%===%==============$=$$====$===",
"%%%**%%*==========%**%%*====44441qt9qttt8ta%====1114<8t8ttqrr00X===$============%===$===$$$=%===",
"**%%*%**=%========****$*====44441t9tqttt888%====11441888t8tt80i$$==$=$==========%===$$==$=$$%===",
"%%*%=%%%%%**====%%%*=O$$==#=444448qqqqtt88uO====1444<rrr00r800t#$===$===========%OO+$====$$$====",
"%%*%=%%+%+*%======%==$$$====44444ttqqqtt88d====#1444188rt0r89ud#$$==O===========OO++$$====%%=%==",
"=%%=====%**%%=%%============33334888ttttttt##===113338tr0t8q9qqO==========$==$=#$+++====%$=%====",
"%=%=====*%%%%=%=============adddiiiiiiiiaiddsadd111128880t8q9qi$========$$$$==#++=======$$$$====",
"%%======%*%=%%==============aiddaiiydddddddddddd12222ttt00qq88t$=======+$$$$=$++#=========O=====",
"%%======%**==%==%==========#siddiyiyiiddddddddds122128t800ttt8iO=======*=$=$$=++#===============",
"%=**$$$%%%%=%%%=%%%*===$$$$$ddddaaiiiddddddddddd33<<<0000000000o##====$$$$$$==++#=$$$$$$======$O",
"%%=+**$#%%==%%==%%**====$$$$ddddpaiiiddddddddddd33<<<0000000000o++====$$O$$$==#+#===$$+$====%%$$",
"====**%%%%==#%$*%%$$===ayiiiddddpaaiddddddddddddppuui0000000000o++$$===$======OO#=========$$%$$$",
"====**%%%%==$$$*%%#$===aaiiiddddaaaaddddddddddddppyii000000080i#$++++==$==================O$$$$$",
"==*$$$==**%%%=**%%****%aaaddddddddddddddddddddddpiiiuqq000qq8qqX==O+O=$$====$$$O========$$$$==$$",
"==**%#==**%%==**==*%$*%aaaddddddddddddddddddddddaidduq00000qtqd#==OOO=O$====$$$$========$%$$==O$",
"%%%*%%%=*$$%==%%===%$#%aaiiddddddddddddddddddddddddduq0000qq88uO==##+=$$$$==$$%===$O$$==%%====$$",
"%%**%%==*$$#==%%==%%$$%aiiiidddddddddd     dddddddddu00000qtt8i$==#++=$$$%==$%%===$$$$$$======$$",
"%#$*====**%%%%%#==+*===ddddddddddddddd     dddddddddsttttq00000X%%OOO$=========%%$======$O====$$",
"%$$*%==%***%%%%$=%%*===ddddddddddddddd     dddddddddsttt000000d#==$$$$=========%$$======$$====$%",
"%%**%%%%**=%%=$$==%%===ddddddddddddddd     dddddddddstrr0000qtuO====$+==$$$$====$$$O$$==$$$$===%",
"%%***%%%$$====**==%%%==ddddddddddddddd     dddddddddsttr0000qtu%====$$==$$$$====$$$$$%%%$$$%===%",
"%===$$$%$%%%%***==%%===ddddddddddddddd     ddddd666666666666,66@$O======$$====$O$$%=$$$$===%$$$$",
"==%=**#%#%%%%%**==%%===ddddddddddddddd     ddddd666666666666767#$$======O$==%%$$$%%=$$O$===%$$$%",
"**%%**%%==%==%==**%*==%ddddddddddddddd     ddddd666666666666667#$$$$========%$$$$$==========$$%%",
"***%***%%======%****=#%ddddddddddddddd     ddddd666666666666677=$$$%%%======$$$$$$==========O$==",
"**===%%%=%%***%%$$==%%*adddddddddddddd     ddddd66677,,76676666@======$O$$$$====$O==$O==========",
"$$=%==*%==%%**%%%#==%%%     ddddddddddddddddddddsssssrrr7rrrrrd#====%%$$O$$$====$$==$$==========",
"$%%%$***==%%*$$%%%%=***     ddddddddddddddddddddsssss7rrrrrrttt#==$$%$$$==$$========$$$$$$====$$",
"#%%%$***=%%%*$#%%%%=***     ddddddddddddddddddddsssssrrrrrrrttd===O$$$$$==$%%%======$$$%$%%%==O$",
"$***$%%%$$$%==%%*%%%$%%     ddddddddddddddddddddssssurrrqqqqttt#$$$$==$$====$$$O==$O==%%$$====$$",
"$***#%%%**#%=%%%*%%%$#%     ddddddddddddddddddddssssu0rr0qqrtts=$%$$==O$====$$$$%%$$====$$====$$",
"$#%*==%=**%%==%%**===%%24442     dddddddddd6666666766666,6qrrrt#%%====$$$$==$$%=%$$$====$O===%%$",
"%%%%%===***%%=#***===%%24442     dddddddddd666666666666666rrrts=======$$$%%%$%%=$$$$====$$===%$$",
"%%%=%%%===$$$%%%======%22211     dddddddddd66666666666666600000@===%%$==============$$$%==$$====",
"%%==%%==%=**#%%%======%22211     dddddddddd6666666666666660000u%===%$$==============$$$%=O$$%===",
"%%==%%$*%***==%=O=$$=%$22214     dddddddddd6666666666666660000r@====$$$O$$====$$====$$=%==$$%%==",
"*%%=#$$*%%**%===$$$$%%$yiiiiddddddddddddddddddddssssu000r00000u%====$$$$$%%%==O$%==O$$====$$$$==",
"**%%%=**====%***=%%$O==diiddddddddddddddddddddddsssssr000000000@$$$O====$$====$$%$$$========$$O=",
"**%%==**%==%%%**==$$=%%diiddddddddddddddddddddddsssssr0r000000u%$$$$====$$====$$%$$$======%=$$==",
"*$$%=%%*%%%%%#**=======dddddddddddddddddddddddddsssssrrr0000000@$$%===$O$O===%%$==$$==$$$$%%$$$%",
"*$#%==%%*%%%%$$$=======dddddddddddddddddddddddddsssssrrr000000u%$%%===$$$$===%$$=O$$=O$$$$$$$$$%",
"%===$$****%%%%%%#%%%==%=====dddddddddddddddddddd0000qqrq00============$$$$$$======$$$$$$$$$$O==%",
"%===$*555*%#555=%%%%==%%====dddddddddddddddddddd0000qqqq00============$$$$$$======%%$$$$$$$$====",
"%%%%#%555**$555=%%====%%====ddddddddddddddisdddd0000q0rq00@=%===$O$$=%%$O=$$=======%==O=$$======",
"**%%%%555*$$555=%=====%%====ddddddddddddiiiidddd000000rr00#=%===$$$$=%$$==%%%==O========%%%=====",
"***$%%**%555=%%%========#===dddddddddddduuiiuuuu0000rrrrqq%%#O%%%%%$$$$$====$$$$============$%==",
"**$$%%**%555==*%==..........====#,,,,,,,,,,77777>>>>>==%%%::,;:%==$$O$$$====$$$$===O==%=====$%%=",
"%%#%===%%555$***==..........=====,,,,,,,,,,77777>>>>,=O%%%:::::%======$$%%==$$====$$$$%%==$$$$==",
"%%%%===%%%#$$***==..........===#=,,,,,,,,,,77777>>>>,==%%%:::::%======$%555=%%%===$$$$$$=O$$$$==",
"==***$#%*****$===%..........%===$,,,,,,,,,,77777,>>>>$$$$$;::::=====#===555%%%======$$O===$$$$$$",
"==**$$%%%%**$$===%..........%%==$,,,,,,,,,,77777>>>>>$$$$o:::::%========555=%%======$$====%%$$$$",
"=%%*==%%%%==#%%%*%...............,,,,,;;;;;;;;;;>>>>>:;;:::::::%=%#======ydydy=O$$==$$%====%==O=",
"=%%*==%%====%%%%*%...............,,,,,;;;;;;;;;;>>>>>::::::::::$%%=======ddydd$$$===$$$=========",
"==%%=%%%%%%%%===**...............,,,,,;;;;;;;;;;>>>>>::::::::::$==%%====%dddyy==$$==============",
"==%%=%**%#%%%===**...............,,,,,;;;;;;;;;;>>>>>::::::::::$==%%====%dddyy==$$==555====O==%=",
"==%%$$**$$**%%%%*$...............,,,,,;;;;;;;->.>>>>>::::::::::$==#%%%=%%ddyyy==$+==555===$$$$%%",
"%%%#$***$*****%%$$#%%%%..........-----77777,,>>>:::::::::::::::yddddddddd%%555==$$==555===$$$$$$",
"%********$#%$$#%==%%**%..........-----77777>>>>>:::::::::::::::uddddddddd==555==$555$%====$$O===",
"%***%%**$$%%$*%%=%%%***..........-----77777>>>>>:::::::::::::::uddddddddd==555==$555$%%=%=$$====",
"%%*$%%====%%***%==%%**%..........--.--97777>>>>>:::::::::::::::uddddddddy$%555$$$555$$==%$$$====",
"%#$$======%%***%%=#$$$%..........--.--77777>>>>>:::::::::::::::uddddddddy$%%==O$$555$$==%$$$%===",
"%%****%%==$$#%%%%***===%**%%.....,,,,,>>>>>>>>>>::::::::::yyyyu555======%%====$$O555========%$$$",
"%%%%**%%%%$*%%==%%**=%==***%.....,,,,,>>>>>>>>>>::::::::::yyyyu555%%====$$====$$=555=O==%===%$$$",
"===%*$#%%***%%==%#**%%%#**%5.....,,,,,>>>>>>>>>>::::::::::yyyuu$====O===$O====%$=555$$$$%%====$$",
"===%$$%%%***%%==%$$$%%%$$$=5.....,,,,,>>>>>>>>>>::::::::::yyyyu$========$$====%$=555$$$$$$===O$$",
"$$**==%%*%%=%%$$%%%=%%%===$5.....,,,,,>>>>>>>>>>:::;:::;::aaaaa*====$%==$$$$=====555======$$$O==",
"$***==%%*%%=%#$*%%==%%==%=**$$555>>>>>>>>>>>>>>>====%%%=*%%*555%===O$%%=$$$$==============$$$$==",
"#%**==%%**==%%**%%==%%$*%***%%555>>>>>>>>>>>>>>>====%%==*#%*555%==$$$$==O=$$====%===$O$$=%%$====",
"%%%%%%%#**==%%***%%=#$$*%%**%#555>>>>>>>>>>>>>>>===+**=%%%%%555%==$$$$====%%%==O%===$$$$=%$$====",
"%%==***$*$#%%%%***%%%=**%%$$%%==$,>>>>,,>>>>>>>>***%%%%%%===555%=%%%========$$$$%$====$$=====%%$",
"%%==**$$$$%%==%***%%==**%#$*%%==$,>>>>,,>>,,>>>,**%%#$%%%%==555===$$=O======$$$$$$====$%=====%$$",
"*%==**%===%%==%%*$$%=%%*%%***%==$$o$$$--..;.-;;;=+%%$$**%%==555=$$$$$$$$$%==$$==$$$O===%====$$$$",
"*%%%%%%===%%==%%*$#%==%%%%***%%%$$$$$$--.;->>.;;=**%*****%%=====$$$$$$$$$%%=%%%=$$$$===%%%==O$$$",
"**%%=======%%%%%%%$$%=====***$#%%%$$$$--...>;;;-===%****%%%***%%O==%%$$$$$$$$$======$$$%%$======",
"**%%==%%===%**%#%#$*%=====**$$%%%%$$$$-.;...;;;>====****==%***%%====%$$$%%$$$$======$$$%$$======",
"*$#%**%%%%%%***$%%**%%%%=%%*==%%%%%%$%>..;.>;;>.====%%$#==%%*$#%======$$=%==O=======$$=%$$$O$$==",
"$$%%****%%%#**$$%%****%%=%%*==%%%%%%o%O$%%$$$$#$====%%%%==%%$$%%=====O$$========%==O$$==$$$$$%%%",
"***%*$#%***$%%%%====$$#%==%%=%%%%%%%$$$$%%%%***$%%%#%===$$#%==%%==$$============%$$$====$$%=$$$$",
"***%$$%%**$$%%%#==%%$*%%==%%=%**o$%%$$$$%%%%***$%%%$==%=$*%%==%%=O$$=====O==%===%$$$====$%%=$$O$",
"*$%%==%%**%===$$**%%***%==%%$$**$$$$$$$$$$%%%*==%=$$**%%***%==%%==$$$%==$$$$%%====$$==$$$$======",
"$$====%%%%%===$********%%%%#$***$$$$$$$$$$$$%%====*****%***%%%%#==$$$%%=$$$$$$===O$$=O$$$$======"
};
