/* XPM */
static char *result[] = {
/* columns rows colors chars-per-pixel */
"96 96 51 1 ",
"  c #4E4D5C",
". c #5C6D77",
"X c #A4C262",
"o c #A5C262",
"O c #A4C362",
"+ c #A5C362",
"@ c #A4C263",
"# c #A5C263",
"$ c #A4C363",
"% c #A5C363",
"& c #C0D470",
"* c #C1D470",
"= c #C0D570",
"- c #C1D570",
"; c #C0D471",
": c #C1D471",
"> c #C0D571",
", c #C1D571",
"< c #6E7A80",
"1 c #7B888F",
"2 c #728794",
"3 c #8A98A0",
"4 c #9BAAB3",
"5 c #A6AFB4",
"6 c #E6A2A2",
"7 c #E7A2A2",
"8 c #E6A3A2",
"9 c #E7A3A2",
"0 c #E6A2A3",
"q c #E7A2A3",
"w c #E6A3A3",
"e c #E7A3A3",
"r c #E8EEAA",
"t c #A7B8C2",
"y c #BAC4CA",
"u c #C6DADE",
"i c #C7DADE",
"p c #C6DBDE",
"a c #C7DBDE",
"s c #C6DADF",
"d c #C7DADF",
"f c #C6DBDF",
"g c #C7DBDF",
"h c #DEECEC",
"j c #DFECEC",
"k c #DEEDEC",
"l c #DFEDEC",
"z c #DEECED",
"x c #DFECED",
"c c #DEEDED",
"v c #DFEDED",
/* pixels */
":>&=-=&;&:*==:,-&*&-*;;&&=*;*&:;;&=>>;;;;:;-*:--=&>*,-:&-=>,=:,&>&>=&&-*=;=&:,**-*;=-&,-=;;=;&&=",
",&;-;-:;:::*&*-&=--=*:,-&;,:&->--*>:,,,&=,=-,&-->>,=:*-;>,>*;&;>:;-&-;-*-=>->:=-*>&-*&;:-;=>,=-&",
"=&&,:->-,,:*:->**>=:*=*:*>*=-***;-*-=,&>>,>-*;>&-:==-->&;&*&>,>>&:&*&>==---:&=>-&-=-=-=*::-:*-&,",
">>&:,;:;-:*>**&&*&&>=:>:&->*>&-:=*&-;*;&==--:&,*:**&:;&*>>,>:=;:=>=>-*=&;-*==>:***&-&**&&-&>>&,;",
"-==::-;&=>=;**&*=&==>;,****>>=;=:-==*-,=&->=*&=->,&*:>==>:*,;**=;:&::;;,>=:=;-&--=&-==,:,&>*=>:&",
"&;&*>&-,-,;--=*==;=;,-:,;;--,=>>;&=;-:>:*==>**::==;,;==>:=,:&;=*:>>&&,:,>&>*>::;>==:*-&&=:,&:>,*",
",-*=;,,,,:&--:*>,*,&>-*=-=&**==*;,>&*=*--=::>,&&*-,*,*-;>,&-:-&>-;===**,*;:*:,--;=,->>;=:;-,,-=,",
";**:,&&-:==-=;;=:>,;,::**:,;==,>*-&:;*=--&*=-=-;,:=>&&>;-&>>;&==>**==,,>,>,=*,-;,*>:,;*&*=&*:&-*",
"*,=&*;,::-=*-;-->>;>,&::&&,>,=&:&*,&*==,,>&=&-,->*;:;;==,&>,=>>=**>;*&;*:;:&::-*,>*=::;,-*&;>-=&",
"&**:&--;,&*:&,*,=&=&=&;*=-;*:=&*==;>OoX&*>*&:;>>=&;&,---,&==,-->&*;&=;;&,-*+@X-&&%$%,;*=;*:=&;&,",
"-&;:-*&&*--;&-,;-;&>&&-,*=;=&-=*-:->@Oo**,=-=*;&>&;:,>***=>:*=-&,&:->=:,=&:X%o=;*%%O,;-:*-=**:--",
";,-->,*--*,>&:*:;&-*-;*&=-=>::=,:,:&#@gpfupgasif==&;:-&&*:diuapiudsi*&*-,,*O$+-**@$@;>=;=;>=,;**",
"&&-*,:>->-;;;,;,*>*,;*>;=---->&;;@$@=*afpfdapuif>***>*:>>=sappugppad,&->&>-*&=@o@>=->--,;-=-;:&&",
";==**>,-&&>;>;:>--&*:>>,-==&&-*-=##%>,faaiifpfpp*--=**;:-&uiasaupidi=;**-;=;*=$X@-=>&-;,&:;-&&->",
"=&>;*=-->-=;;;&&-:,---==,-&&,&>-:O#O;,gisffipaag,=;::*&=::gpiiaaupiu>->;;*--:-%+O&>,;->,:,:=&&==",
"*,&&>*:;,,=&;:>;;>,*>-&-:;*==*>,>Xo@&&fiigaigfsu=>:>*==-&=usdppiaids-==,=*,=**;;:=:==&,-:=-&&->-",
"*-*&,*;,*-==;&,>::;*&&&-=;,*>;>&,pgigpuaigu08e06-&:-*pfsafsuiigw6q06=,&>&**>;***-=:>:=,--*,::==-",
"*-==&:&:,;*&>,;*,=;=*>-=**>*&=-,&iguaugpids79898**=:&fffsafgssgq0wew-&*&->->**:;;*-=-==:*&,:*,=,",
"&:=*=,=&==:=%Oo-=,&;&=>,===*&,-&-iiaaafigapw6q86:&***aggsgdffgd880eq&-:*:&*,:,->,,&-:;,*,***;->*",
"=*-;;;=-,-*=o#%;*:&:-=,*&&&--&::-guaguiuiauee66e*&-&>aigppgdspf78w98*>::-&-,,;>&-:,-&=>=;-:-,*&;",
"*=&*&=&=,*=,%%@=&&*,->**==-->;>--pgidsgifgs9q776>=>=*fppssffpuf9ww80--:--*,;=>,=-=>*:>&:&;,-==*:",
"&,-*&-==;-&,&&;o+o,=*:;=&&,=;-&*-sifgaiguau90e0qjcxhcvxxzcvvxkcvvzxx=&:=-&:,*:&=-:*;*>,-,->;;*-=",
"=&*,>=&--&;*&:&#OO&==*>>*>&-&=,-*dsffgafaid886e7vlhxzhzxxzvxxclxzxxc**&>,>>**=:;*--:=*:,;=>&>=;,",
":->=*--&&,=>;-,+X+*=;;;;=*==>:-&*ddfsfgpfipe0896zljlvlllvclxxhxhxzkj**,-*,=&:=>=&**->&&>>*-&:>-:",
"&&&&&&&&&&&&&&&@@@&&&&&&&&&&&&@@@fggggapppf00006lkkkhxxxxxccccvxzzzz&&&&&&&&&&&&&&&&&&&&&&&&&&&&",
"&&&&&&&&&&&&&&&@@@&&&&&&&&&&&&@@@dggggfpppp0qw60klklkxxxvxccccczczxx&&&&&&&&&&&&&&&&&&&&&&&&&&&&",
"&&&&&&&&&&&&&&&@@@&&&&&&&&&&&&@@@fppuufpppalvvlxvvxvlcvvvvvvlcvxvxvvxvcxl&&&&&&&&&&&&&&&&&&&&&&&",
"&&&&&&&&&&&&&&&&&&&&&&&&&&&@@@&&&ppppppppppvvvvvvvvvvvvvvvvvvvvvvvvvvvvvv&&&&&&&&&&&&&&&&&&&&&&&",
"&&&&&&&&&&&&&&&&&&&&&&&&&&&@@@&&&ppppppppppvvvvvvvvvvvvvvvvvvvvvvvvvvvvvv&&&&&&&&&&&&&&&&&&&&&&&",
"&&&&&&&&&&&&&&&&&&&&&&&&&&&@@@&&&ppppppppppvvvvvvvvvvvvvvvvvvvvvvvvvvvvvv&&&&&&&&&&&&&&&&&&&&&&&",
"&&&&&&&&&&&&&&&&&&&&&&&&&&&@@@&&&ppppppppppvvvvvvvvvvvvvvvvvvvvvvvvvvvvvv&&&&&&&&&&&&&&&&&&&&&&&",
"&&&&&&&&&&&&&&&&&&&&&&&&&&&@@@&&&tttttttttttttttvvvvv     vvvvvvvvvvvvvvv&&&&&&&&&&&&&&&&&&&&&&&",
"&&&&&&&&&&&&&&&&&&&&&&&&&&&@@@&&&tttttttttttttttvvvvv     vvvvvvvvvvvvvvv&&&&&&&&&&&&&&&&&&&&&&&",
"&&&&&&&&&&&&&&&&&&&&&&&&&&&&&&&&&tttttttttttttttvvvvv     vvvvvvvvvvvvvvv&&&&&&&&&&&&&&&&&&&&&&&",
"&&&&&&&&&&&&&&&&&&&&&&&&&&&&&&&&&tttttttttttttttvvvvv     vvvvvvvvvvvvvvv&&&&&&&&&&&&&&&&&&&&&&&",
"&&&&&&&&&&&&&&&&&&&&&&&&&&&&&&&&&tttttttttttttttvvvvv     vvvvvvvvvvvvvvv&&&&&&&&&&&&&&&&&&&&&&&",
"&&&&&&&&&&&&&&&&&&&&&&&&&&&&&&&&&ppppppppppvvvvvvvvvvvvvvvvvvvvvvvvv     &&&&&&&&&&&&&&&&&&&&&&&",
"&&&&&&&&&&&&&&&&&&&&&&&&&&&&&&&&&ppppppppppvvvvvvvvvvvvvvvvvvvvvvvvv     &&&&&&&&&&&&&&&&&&&&&&&",
"&&&&&&&&&&&&&&&&&&&&&&&&&&&&&&&&&ppppppppppvvvvvvvvvvvvvvvvvvvvvvvvv     &&&&&&&&&&&&&&&&&&&&&&&",
"&&&&&&&&&&&&&&&&&&&&&&&&&&&&&&&&&ppppppppppvvvvvvvvvvvvvvvvvvvvvvvvv     &&&&&&&&&&&&&&&&&&&&&&&",
"&&&&&&&&&&&&&&&&&&&&&&&&&&&&&&&&&ppppppppppvvvvvvvvvvvvvvvvvvvvvvvvv     &&&&&&&&&&&&&&&&&&&&&&&",
"&&&&&&&&&&&&&&&&&&&&&&&&&&&&&&&&&ppppptttttttttttttttvvvvvvvvvv     wwwww&&&&&&&&&&&&&&&&&&&&&&&",
"&&&&&&&&&&&&&&&&&&&&&&&&&&&&&&&&&ppppptttttttttttttttvvvvvvvvvv     wwwww&&&&&&&&&&&&&&&&&&&&&&&",
"&&&&&&&&&&&&&&&&&&&&&&&&&&&&&&&&&ppppptttttttttttttttvvvvvvvvvv     wwwww&&&&&&&&&&&&&&&&&&&&&&&",
"&&&&&&&&&&&&&&&&&&&&&&&&&&&&&&&&&ppppptttttttttttttttvvvvvvvvvv     wwwww&&&&&&&&&&&&&&&&&&&&&&&",
"&&&&&&&&&&&&&&&&&&&&&&&&&&&&&&&&&ppppptttttttttttttttvvvvvvvvvv     wwwww&&&&&&&&&&&&&&&&&&&&&&&",
"&&&&&&&&&&&&&&&&&&&&&&&&&&&&&&&&&ppppppppppvvvvvvvvvvvvvvvvvvvvvvvvvvvvvv&&&&&&&&&&&&&&&&&&&&&&&",
"&&&&&&&&&&&&&&&&&&&&&&&&&&&&&&&&&ppppppppppvvvvvvvvvvvvvvvvvvvvvvvvvvvvvv&&&&&&&&&&&&&&&&&&&&&&&",
"&&&&&&&&&&&&&&&&&&&&&&&&&&&&&&&&&ppppppppppvvvvvvvvvvvvvvvvvvvvvvvvvvvvvv&&&&&&&&&&&&&&&&&&&&&&&",
"&&&&&&&&&&&&&&&&&&&&&&&&&&&&&&&&&ppppppppppvvvvvvvvvvvvvvvvvvvvvvvvvvvvvv&&&&&&&&&&&&&&&&&&&&&&&",
"&&&&&&&&&&&&&&&&&&&&&&&&&&&&&&&&&ppppppppppvvvvvvvvvvvvvvvvvvvvvvvvvvvvvv&&&&&&&&&&&&&&&&&&&&&&&",
"&&&&&&&&&&&&&&&&&&&&&&&&&&&&&&&&&&&&&&ppppppppppvvvvvvvvvvvvvvvvvvvv&&&&&&&&&&&&&&&&&&&&&&&&&&&&",
"&&&&&&&&&&&&&&&&&&&&&&&&&&&&&&&&&&&&&&ppppppppppvvvvvvvvvvvvvvvvvvvv&&&&&&&&&&&&&&&&&&&&&&&&&&&&",
"&&&&&&&&&&&&&&&&&&&&&&&&&&&&&&&&&&&&&&ppppppppppvvvvvvvvvvvvvvvvvvvv&&&&&&&&&&&&&&&&&&&&&&&&&&&&",
"&&&&&&&&&&&&&&&&&&&&&&&&&&&&&&&&&&&&&&ppppppppppvvvvvvvvvvvvvvvvvvvv&&&&&&&&&&&&&&&&&&&&&&&&&&&&",
"&&&&&&&&&&&&&&&&&&&&&&&&&&&&&&&&&&&&&&ppppppppppvvvvvvvvvvvvvvvvvvvv&&&&&&&&&&&&&&&&&&&&&&&&&&&&",
"&&&&&&&&&&&&&&&&&&&&&&&&&&&&&&&&&&&&&&&&&&&33333555555555533333&&&&&2222222222&&&&&&&&&&&&&&&&&&",
"&&&&&&&&&&&&&&&&&&&&&&&&&&&&&&&&&&&&&&&&&&&33333555555555533333&&&&&2222222222&&&rrr&&&rrr&&&&&&",
"&&&&&&&&&&&&&&&&&&&&&&&&&&&&&&&&&&&&&&&&&&&33333555555555533333&&&&&2222222222&&&rrr&&&rrr&&&&&&",
"&&&&&&&&&&&&&&&&&&&&&&&&&&&&&&&&&&&&&&&&&&&33333555555555533333&&&&&2222222222&&&rrr&&&rrr&&&&&&",
"&&&&&&&&&&&&&&&&&&&&&&&&&&&&&&&&&&&&&&&&&&&33333555555555533333&&&&&2222222222&&&&&&rrr&&&&&&&&&",
"&&&&&&&&&&&&&&&&&&&&&&&&&&&&..........&&&&&yyyyyyyyyy5555555555&&&&&2222222222&&&&&&rrr&&&&&&&&&",
"&&&&&&&&&&&&&&&&&&&&&&&&&&&&..........&&&&&yyyyyyyyyy5555555555&&&&&2222222222&&&&&&rrr&&&&&&&&&",
"&&&&&&&&&&&&&&&&&&&&&rrr&&&&..........&&&&&yyyyyyyyyy5555555555&&&&&2222222222&&&&&&&&&&&&&&&&&&",
"&&&&&&&&&&&&&&&&&&&&&rrr&&&&..........&&&&&yyyyyyyyyy5555555555&&&&&2222222222&&&&&&&&&&&&&&&&&&",
"&&&&&&&&&&&&&&&&&&&&&rrr&&&&..........&&&&&yyyyyyyyyy5555555555&&&&&2222222222&&&&&&&&&&&&&&&&&&",
"&&&&&&&&&&&&&&&&&&rrr&&&&&&&..........&&&&&44444111111111155555&&&&&&&&&&&&&&&&&&&&&&&&&&&&&&&&&",
"&&&&&&&&&&&&&&&&&&rrr&&&&&&&..........&&&&&44444111111111155555&&&&&&&&&&&&&&&&&&&&&&&&&&&&&&&&&",
"&&&&&&&&&&&&&&&&&&rrr&&&&&&&..........&&&&&44444111111111155555&&&&&&&&&&&&&&&&&&&&&&&&&&&&&&&&&",
"&&&&&&&&&rrr&&&&&&rrr&&&&&&&..........&&&&&44444111111111155555&&&&&&&&&&&&&&&&&&&&&&&&&&&&&&&&&",
"&&&&&&&&&rrr&&&&&&rrr&&&&&&&..........&&&&&44444111111111155555&&&&&&&&&&&&&&&&&&&&&&&&&&&&&&&&&",
"&&&&&&&&&rrr&&&&&&rrr&&&&&&&&&&&&&&&&&&&&&&&&&&&44444yyyyy<<<<<&&&&&&&&&&&&&&&&&&&&&&&&&&&&&&&&&",
"&&&&&&&&&&&&rrr&&&rrr&&&&&&&&&&&&&&&&&&&&&&&&&&&44444yyyyy<<<<<&&&&&&&&&&&&&&&&&&&&&&&&&&&&&&&&&",
"&&&&&&&&&&&&rrr&&&rrr&&&&&&&&&&&&&&&&&&&&&&&&&&&44444yyyyy<<<<<&&&&&&&&&&&&&&&&&&&&&&&&&&&&&&&&&",
"&&&&&&&&&&&&rrr&&&rrr&&&&&&&&&&&&&&&&&&&&&&&&&&&44444yyyyy<<<<<&&&&&&&&&&&&&&&&&&&&&&&&&&&&&&&&&",
"&&&&&&&&&&&&rrr&&&&&&&&&&&&&&&rrr&&&&&&&&&&&&&&&44444yyyyy<<<<<&&&&&&&&&&&&&&&&&&&&&&&&&&&&&&&&&",
"&&&&&&&&&&&&rrr&&&vvvvvvvvvvvvvvvvvvvvvvvvvvvvvv444444444455555&&&&&&&&&&&&&&&&&&&&&&&&&&&&&&&&&",
"&&&&&&&&&&&&rrr&&&vvvvvvvvvvvvvvvvvvvvvvvvvvvvvv444444444455555&&&&&&&&&&&&&&&&&&&&&&&&&&&&&&&&&",
"&&&&&&&&&&&&rrr&&&vvvvvvvvvvvvvvvvvvvvvvvvvvvvvv444444444455555&&&rrr&&&&&&&&&&&&&&&&&&&&&&&&&&&",
"&&&&&&&&&&&&rrr&&&vvvvvvvvvvvvvvvvvvvvvvvvvvvvvv444444444455555&&&rrr&&&&&&&&&&&&&&&&&&&&&&&&&&&",
"&&&&&&&&&&&&rrr&&&vvvvvvvvvvvvvvvvvvvvvvvvvvvvvv444444444455555&&&rrr&&&&&&&&&&&&&&&&&&&&&&&&&&&",
"&&&&&&&&&&&&&&&&&&&&&&&&&&&&&&&&&rrr&&<<<<<<<<<<4444444444444441111111111&&&&&&&&&&&&&&&&&&&&&&&",
"&&&&&&&&&&&&&&&&&&&&&&&&&&&&&&&&&rrr&&<<<<<<<<<<4444444444444441111111111&&&&&&&&&&&&&&&&&&&&&&&",
"&&&&&&&&&&&&&&&&&&&&&&&&&&&&&&&&&rrr&&<<<<<<<<<<4444444444444441111111111&&&&&&&&&&&&&&&&&&&&&&&",
"&&&&&&&&&&&&&&&&&&&&&&&&&&&&&&&&&rrr&&<<<<<<<<<<4444444444444441111111111&&&&&&&&&&&&&&&&&&&&&&&",
"&&&&&&&&&&&&&&&&&&&&&&&&&&&&&&&&&rrr&&<<<<<<<<<<4444444444444441111111111&&&&&&&&&&&&&&&&&&&&&&&",
"&&&&&&&&&&&&&&&&&&&&&&&&&&&&&&&&&rrr&&&&&&&&&&&&&&&&&&&&&&&&&&&&&&&&&&&&&&&&&&&&&&&&&&&&&&&&&&&&",
"&&&&&&&&&&&&&&&&&&&&&&&&&&&&&&&&&&&&&&&&&&&&&&&&&&&&&&&&&&&&&&&&&&&&&&&&&&&&&&&&&&&&&&&&&&&&&&&&",
"&&&&&&&&&&&&&&&&&&&&&&&&&&&&&&&&&&&&&&&&&&&&&&&&&&&&&&&&&&&&&&&&&&&&&&&&&&&&&&&&&&&&&&&&&&&&&&&&",
"&&&&&&&&&&&&&&&&&&&&&&&&&&&&&&&&&&&&&&&&&&&&&&&&&&&&&&&&&&&&&&&&&&&&&&&&&&&&&&&&&&&&&&&&&&&&&&&&",
"&&&&&&&&&&&&&&&&&&&&&&&&&&&&&&&&&&&&&&&&&&&&&&&&&&&&&&&&&&&&&&&&&&&&&&&&&&&&&&&&&&&&&&&&&&&&&&&&",
"&&&&&&&&&&&&&&&&&&&&&&&&&&&&&&&&&&&&&&&&&&&&&&&&&&&&&&&&&&&&&&&&&&&&&&&&&&&&&&&&&&&&&&&&&&&&&&&&",
"&&&&&&&&&&&&&&&&&&&&&&&&&&&&&&&&&&&&&&&&&&&&&&&&&&&&&&&&&&&&&&&&&&&&&&&&&&&&&&&&&&&&&&&&&&&&&&&&",
"&&&&&&&&&&&&&&&&&&&&&&&&&&&&&&&&&&&&&&&&&&&&&&&&&&&&&&&&&&&&&&&&&&&&&&&&&&&&&&&&&&&&&&&&&&&&&&&&",
"&&&&&&&&&&&&&&&&&&&&&&&&&&&&&&&&&&&&&&&&&&&&&&&&&&&&&&&&&&&&&&&&&&&&&&&&&&&&&&&&&&&&&&&&&&&&&&&&",
"&&&&&&&&&&&&&&&&&&&&&&&&&&&&&&&&&&&&&&&&&&&&&&&&&&&&&&&&&&&&&&&&&&&&&&&&&&&&&&&&&&&&&&&&&&&&&&&&"
};
