/* XPM */
static char *run_6[] = {
/* columns rows colors chars-per-pixel */
"90 90 38 1 ",
"  c #4E4D5C",
". c #5C6D77",
"X c #6E7A80",
"o c #9A7880",
"O c #7B888F",
"+ c #728794",
"@ c #85929A",
"# c #8A959A",
"$ c #8799A4",
"% c #919CA2",
"& c #979DA5",
"* c #96A1A7",
"= c #9BA6AD",
"- c #98A7B0",
"; c #9BAAB3",
": c #A6AFB4",
"> c #A3B1B9",
", c #ABB7BF",
"< c #B0BABF",
"1 c #E6A3A3",
"2 c #A7B8C2",
"3 c #A9BAC1",
"4 c #D6BFC1",
"5 c #BBC5C9",
"6 c #BAC4CA",
"7 c #BBCBCF",
"8 c #B7CAD0",
"9 c #BDCED4",
"0 c #C3D3D8",
"q c #C6DBDE",
"w c #DBD6D7",
"e c #E3C8C8",
"r c #CCE0E2",
"t c #D1E0E2",
"y c #D3E4E6",
"u c #D7E7E8",
"i c #DFEDED",
"p c None",
/* pixels */
"pppppppppppppppppppppppppppppppppppppppppppppppppppppppppppppppppppppppppppppppppppppppppp",
"pppppppppppppppppppppppppppppppppppppppppppppppppppppppppppppppppppppppppppppppppppppppppp",
"pppppppppppppppppppppppppppppppppppppppppppppppppppppppppppppppppppppppppppppppppppppppppp",
"pppppppppppppppppppppppppppppppppppppppppppppppppppppppppppppppppppppppppppppppppppppppppp",
"pppppppppppppppppppppppppppppppppppppppppppppppppppppppppppppppppppppppppppppppppppppppppp",
"pppppppppppppppppppppppppppppppppppppppppppppppppppppppppppppppppppppppppppppppppppppppppp",
"pppppppppppppppppppppppppppppppppppppppppppppppppppppppppppppppppppppppppppppppppppppppppp",
"pppppppppppppppppppppppppppppppppppppppppppppppppppppppppppppppppppppppppppppppppppppppppp",
"pppppppppppppppppppppppppppppppppppppppppppppppppppppppppppppppppppppppppppppppppppppppppp",
"pppppppppppppppppppppppppppppppppppppppppppppppppppppppppppppppppppppppppppppppppppppppppp",
"pppppppppppppppppppppppppppppppppppppppppppppppppppppppppppppppppppppppppppppppppppppppppp",
"pppppppppppppppppppppppppppppppppppppppppppppppppppppppppppppppppppppppppppppppppppppppppp",
"pppppppppppppppppppppppppppppppppppppppppppppppppppppppppppppppppppppppppppppppppppppppppp",
"pppppppppppppppppppppppppppppppppppppppppppppppppppppppppppppppppppppppppppppppppppppppppp",
"ppppppppppppppppppppppppppppppppppppqqqqqqqqqpppppppppqqqqqqqqqppppppppppppppppppppppppppp",
"ppppppppppppppppppppppppppppppppppppqqqqqqqqqpppppppppqqqqqqqqqppppppppppppppppppppppppppp",
"ppppppppppppppppppppppppppppppppppppqqqqqqqqqpppppppppqqqqqqqqqppppppppppppppppppppppppppp",
"ppppppppppppppppppppppppppppppppppppqqqqqqqqqpppppppppqqqqqqqqqppppppppppppppppppppppppppp",
"ppppppppppppppppppppppppppppppppqqqqqqqq41111pppppqqqqqqqq41111ppppppppppppppppppppppppppp",
"ppppppppppppppppppppppppppppppppqqqqqqqq41111pppppqqqqqqqq41111ppppppppppppppppppppppppppp",
"ppppppppppppppppppppppppppppppppqqqqqqqq41111pppppqqqqqqqq41111ppppppppppppppppppppppppppp",
"ppppppppppppppppppppppppppppppppqqqqqqqq41111pppppqqqqqqqq41111ppppppppppppppppppppppppppp",
"ppppppppppppppppppppppppppppppppqqqqqqqq41111ppppuyyyyyyyyweeeeppppppppppppppppppppppppppp",
"ppppppppppppppppppppppppppppppppqqqqqqqq41111iiiiiiiiiiiiiiiiiippppppppppppppppppppppppppp",
"ppppppppppppppppppppppppppppppppqqqqqqqq41111iiiiiiiiiiiiiiiiiippppppppppppppppppppppppppp",
"ppppppppppppppppppppppppppppppppqqqqqqqq41111iiiiiiiiiiiiiiiiiippppppppppppppppppppppppppp",
"ppppppppppppppppppppppppppppppppqqqqqqqq41111iiiiiiiiiiiiiiiiiippppppppppppppppppppppppppp",
"ppppppppppppppppppppppppppppppppqqqqqqqqyiiiiiiiiiiiiiiiiiiiiiiiiiippppppppppppppppppppppp",
"ppppppppppppppppppppppppppppppppqqqqqqqqyiiiiiiiiiiiiiiiiiiiiiiiiiippppppppppppppppppppppp",
"ppppppppppppppppppppppppppppppppqqqqqqqqyiiiiiiiiiiiiiiiiiiiiiiiiiippppppppppppppppppppppp",
"ppppppppppppppppppppppppppppppppqqqqqqqqyiiiiiiiiiiiiiiiiiiiiiiiiiippppppppppppppppppppppp",
"pppppppppppppppppppppppppppppppp8888888890000iiii5&&&&iiiiiiiiiiiiippppppppppppppppppppppp",
"pppppppppppppppppppppppppppppppp2222222222222iiii&    iiiiiiiiiiiiippppppppppppppppppppppp",
"pppppppppppppppppppppppppppppppp2222222222222iiii&    iiiiiiiiiiiiippppppppppppppppppppppp",
"pppppppppppppppppppppppppppppppp2222222222222iiii&    iiiiiiiiiiiiippppppppppppppppppppppp",
"pppppppppppppppppppppppppppppppp2222222222222iiii&    iiiiiiiiiiiiippppppppppppppppppppppp",
"ppppppppppppppppppppppppppppppppqqqqqqqqyiiiiiiiiiiiiiiiiiiiiii    ppppppppppppppppppppppp",
"ppppppppppppppppppppppppppppppppqqqqqqqqyiiiiiiiiiiiiiiiiiiiiii    ppppppppppppppppppppppp",
"ppppppppppppppppppppppppppppppppqqqqqqqqyiiiiiiiiiiiiiiiiiiiiii    ppppppppppppppppppppppp",
"ppppppppppppppppppppppppppppppppqqqqqqqqyiiiiiiiiiiiiiiiiiiiiii    ppppppppppppppppppppppp",
"ppppppppppppppppppppppppppppppppqqqq8888900000000tiiiiiiii5&&&&ooooppppppppppppppppppppppp",
"ppppppppppppppppppppppppppppppppqqqq22222222222220iiiiiiii&    1111ppppppppppppppppppppppp",
"ppppppppppppppppppppppppppppppppqqqq22222222222220iiiiiiii&    1111ppppppppppppppppppppppp",
"ppppppppppppppppppppppppppppppppqqqq22222222222220iiiiiiii&    1111ppppppppppppppppppppppp",
"ppppppppppppppppppppppppppppppppqqqq22222222222220iiiiiiii&    1111ppppppppppppppppppppppp",
"ppppppppppppppppppppppppppppppppqqqqqqqqyiiiiiiiiiiiiiiiiiiiiiiiiiippppppppppppppppppppppp",
"ppppppppppppppppppppppppppppppppqqqqqqqqyiiiiiiiiiiiiiiiiiiiiiiiiiippppppppppppppppppppppp",
"ppppppppppppppppppppppppppppppppqqqqqqqqyiiiiiiiiiiiiiiiiiiiiiiiiiippppppppppppppppppppppp",
"ppppppppppppppppppppppppppppppppqqqqqqqqyiiiiiiiiiiiiiiiiiiiiiiiiiippppppppppppppppppppppp",
"ppppppppppppppppppppppppppppppppppppqqqqryyyyiiiiiiiiiiiiiiiiiippppppppppppppppppppppppppp",
"ppppppppppppppppppppppppppppppppppppqqqqqqqqqiiiiiiiiiiiiiiiiiippppppppppppppppppppppppppp",
"ppppppppppppppppppppppppppppppppppppqqqqqqqqqiiiiiiiiiiiiiiiiiippppppppppppppppppppppppppp",
"ppppppppppppppppppppppppppppppppppppqqqqqqqqqiiiiiiiiiiiiiiiiiippppppppppppppppppppppppppp",
"ppppppppppppppppppppppppppppppppppppqqqqqqqqqiiiiiiiiiiiiiiiiiippppppppppppppppppppppppppp",
"ppppppppppppppppppppppppppppppppppppppppp66666665<::::::::pppppppppppppppppppppppppppppppp",
"ppppppppppppppppppppppppppppppppppppppppp666666663::::::::pppppppppppppppppppppppppppppppp",
"ppppppppppppppppppppppppppppppppppppppppp56666660<::::::::pppppppppppppppppppppppppppppppp",
"ppppppppppppppppppppppppppppppppppppppppp566666633::::::::pppppppppppppppppppppppppppppppp",
"pppppppppppppppppppppppppppppppppppppppp;,,,,====&%%%%::::pppppppppppppppppppppppppppppppp",
"pppppppppppppppppppppppppppppppp++++++++$;;;;OOO@@OOOO::::ppppp.........pppppppppppppppppp",
"pppppppppppppppppppppppppppppppp++++++++$;;;;OOOX@@XOO::::ppppp.........pppppppppppppppppp",
"pppppppppppppppppppppppppppppppp++++++++$;;;;OOO@XX@OO::::ppppp.........pppppppppppppppppp",
"pppppppppppppppppppppppppppppppp++++++++$;;;;O+Oo@@OOO::::ppppp.........pppppppppppppppppp",
"pppppppppppppppppppppppppppppppp++++++++ppppp;---:0365XXXXppppp.........pppppppppppppppppp",
"pppppppppppppppppppppppppppppppp++++++++ppppp;;;;,6666XXXXppppp.........pppppppppppppppppp",
"pppppppppppppppppppppppppppppppp++++++++ppppp;;;;,6566XXXXppppp.........pppppppppppppppppp",
"pppppppppppppppppppppppppppppppp++++++++ppppp;;;;,5566XXXXppppp.........pppppppppppppppppp",
"pppppppppppppppppppppppppppppppp333333338pppp;;;;>,,33####pppppppppppppppppppppppppppppppp",
"ppppppppppppppppppppppppppppppppiiiiiiiiiiiii;;;;;;;;;::::pppppppppppppppppppppppppppppppp",
"ppppppppppppppppppppppppppppppppiiiiiiiiiiiii;;;;;;;;;::::pppppppppppppppppppppppppppppppp",
"ppppppppppppppppppppppppppppppppiiiiiiiiiiiii;;;;;;;;;::::pppppppppppppppppppppppppppppppp",
"ppppppppppppppppppppppppppppppppiiiiiiiiiiiii;;;;;;;;;::::pppppppppppppppppppppppppppppppp",
"ppppppppppppppppppiiiiiiiiiiiiippppppppppOOOO;;;;;;;;;;;;;@XXXXppppppppppppppppppppppppppp",
"ppppppppppppppppppiiiiiiiiiiiiippppppppppOOOO;;;;;;;;;;;;;@XXXXppppppppppppppppppppppppppp",
"ppppppppppppppppppiiiiiiiiiiiiippppppppppOOOO;;;;;;;;;;;;;@XXXXppppppppppppppppppppppppppp",
"ppppppppppppppppppiiiiiiiiiiiiippppppppppOOOO;;;;;;;;;;;;;@XXXXppppppppppppppppppppppppppp",
"pppppppppppppppppppppppppppppppppppppppppppppppppppppppppppppppppppppppppppppppppppppppppp",
"ppppppppppppppppppppppppppppppppppppOOOOpppppppppppppppppppppppXXXXppppppppppppppppppppppp",
"ppppppppppppppppppppppppppppppppppppOOOOpppppppppppppppppppppppXXXXppppppppppppppppppppppp",
"ppppppppppppppppppppppppppppppppppppOOOOpppppppppppppppppppppppXXXXppppppppppppppppppppppp",
"ppppppppppppppppppppppppppppppppppppOOOOpppppppppppppppppppppppXXXXppppppppppppppppppppppp",
"pppppppppppppppppppppppppppppppppppppppppppppppppppppppppppppppppppppppppppppppppppppppppp",
"pppppppppppppppppppppppppppppppppppppppppppppppppppppppppppppppppppppppppppppppppppppppppp",
"pppppppppppppppppppppppppppppppppppppppppppppppppppppppppppppppppppppppppppppppppppppppppp",
"pppppppppppppppppppppppppppppppppppppppppppppppppppppppppppppppppppppppppppppppppppppppppp",
"pppppppppppppppppppppppppppppppppppppppppppppppppppppppppppppppppppppppppppppppppppppppppp",
"pppppppppppppppppppppppppppppppppppppppppppppppppppppppppppppppppppppppppppppppppppppppppp",
"pppppppppppppppppppppppppppppppppppppppppppppppppppppppppppppppppppppppppppppppppppppppppp",
"pppppppppppppppppppppppppppppppppppppppppppppppppppppppppppppppppppppppppppppppppppppppppp",
"pppppppppppppppppppppppppppppppppppppppppppppppppppppppppppppppppppppppppppppppppppppppppp"
};
