/* XPM */
static char *run_2[] = {
/* columns rows colors chars-per-pixel */
"90 90 42 1 ",
"  c #4E4D5C",
". c #5C6D77",
"X c #6E7A80",
"o c #9A7880",
"O c #70818A",
"+ c #7B888F",
"@ c #728794",
"# c #7C8C95",
"$ c #829098",
"% c #8A959A",
"& c #8B99A1",
"* c #8C9BA4",
"= c #919CA2",
"- c #909EA7",
"; c #979DA5",
": c #96A1A7",
"> c #95A2A9",
", c #9BA6AD",
"< c #9BAAB3",
"1 c #9EADB2",
"2 c #A6AFB4",
"3 c #A3B1B9",
"4 c #ABB7BF",
"5 c #B0BABF",
"6 c #E6A3A3",
"7 c #A7B8C2",
"8 c #D6BFC1",
"9 c #B3C2C6",
"0 c #BBC5C9",
"q c #BAC4CA",
"w c #B7CAD0",
"e c #BDCED4",
"r c #C3D3D8",
"t c #C6DBDE",
"y c #DBD6D7",
"u c #E3C8C8",
"i c #CCE0E2",
"p c #D1E0E2",
"a c #D3E4E6",
"s c #D7E7E8",
"d c #DFEDED",
"f c None",
/* pixels */
"ffffffffffffffffffffffffffffffffffffffffffffffffffffffffffffffffffffffffffffffffffffffffff",
"ffffffffffffffffffffffffffffffffffffffffffffffffffffffffffffffffffffffffffffffffffffffffff",
"ffffffffffffffffffffffffffffffffffffffffffffffffffffffffffffffffffffffffffffffffffffffffff",
"ffffffffffffffffffffffffffffffffffffffffffffffffffffffffffffffffffffffffffffffffffffffffff",
"ffffffffffffffffffffffffffffffffffffffffffffffffffffffffffffffffffffffffffffffffffffffffff",
"ffffffffffffffffffffffffffffffffffffffffffffffffffffffffffffffffffffffffffffffffffffffffff",
"ffffffffffffffffffffffffffffffffffffffffffffffffffffffffffffffffffffffffffffffffffffffffff",
"ffffffffffffffffffffffffffffffffffffffffffffffffffffffffffffffffffffffffffffffffffffffffff",
"ffffffffffffffffffffffffffffffffffffffffffffffffffffffffffffffffffffffffffffffffffffffffff",
"ffffffffffffffffffffffffffffffffffffffffffffffffffffffffffffffffffffffffffffffffffffffffff",
"ffffffffffffffffffffffffffffffffffffffffffffffffffffffffffffffffffffffffffffffffffffffffff",
"ffffffffffffffffffffffffffffffffffffffffffffffffffffffffffffffffffffffffffffffffffffffffff",
"ffffffffffffffffffffffffffffffffffffffffffffffffffffffffffffffffffffffffffffffffffffffffff",
"ffffffffffffffffffffffffffffffffffffffffffffffffffffffffffffffffffffffffffffffffffffffffff",
"fffffffffffffffffffffffffffffffffffftttttttttffffffffftttttttttfffffffffffffffffffffffffff",
"fffffffffffffffffffffffffffffffffffftttttttttffffffffftttttttttfffffffffffffffffffffffffff",
"fffffffffffffffffffffffffffffffffffftttttttttffffffffftttttttttfffffffffffffffffffffffffff",
"fffffffffffffffffffffffffffffffffffftttttttttffffffffftttttttttfffffffffffffffffffffffffff",
"fffffffffffffffffffffffffffffffftttttttt86666ffffftttttttt86666fffffffffffffffffffffffffff",
"fffffffffffffffffffffffffffffffftttttttt86666ffffftttttttt86666fffffffffffffffffffffffffff",
"fffffffffffffffffffffffffffffffftttttttt86666ffffftttttttt86666fffffffffffffffffffffffffff",
"fffffffffffffffffffffffffffffffftttttttt86666ffffftttttttt86666fffffffffffffffffffffffffff",
"fffffffffffffffffffffffffffffffftttttttt86666ffffsaaaaaaaayuuuufffffffffffffffffffffffffff",
"fffffffffffffffffffffffffffffffftttttttt86666ddddddddddddddddddfffffffffffffffffffffffffff",
"fffffffffffffffffffffffffffffffftttttttt86666ddddddddddddddddddfffffffffffffffffffffffffff",
"fffffffffffffffffffffffffffffffftttttttt86666ddddddddddddddddddfffffffffffffffffffffffffff",
"fffffffffffffffffffffffffffffffftttttttt86666ddddddddddddddddddfffffffffffffffffffffffffff",
"ffffffffffffffffffffffffffffffffttttttttaddddddddddddddddddddddddddfffffffffffffffffffffff",
"ffffffffffffffffffffffffffffffffttttttttaddddddddddddddddddddddddddfffffffffffffffffffffff",
"ffffffffffffffffffffffffffffffffttttttttaddddddddddddddddddddddddddfffffffffffffffffffffff",
"ffffffffffffffffffffffffffffffffttttttttaddddddddddddddddddddddddddfffffffffffffffffffffff",
"ffffffffffffffffffffffffffffffffwwwwwwwwerrrrdddd0;;;;dddddddddddddfffffffffffffffffffffff",
"ffffffffffffffffffffffffffffffff7777777777777dddd;    dddddddddddddfffffffffffffffffffffff",
"ffffffffffffffffffffffffffffffff7777777777777dddd;    dddddddddddddfffffffffffffffffffffff",
"ffffffffffffffffffffffffffffffff7777777777777dddd;    dddddddddddddfffffffffffffffffffffff",
"ffffffffffffffffffffffffffffffff7777777777777dddd;    dddddddddddddfffffffffffffffffffffff",
"ffffffffffffffffffffffffffffffffttttttttadddddddddddddddddddddd    fffffffffffffffffffffff",
"ffffffffffffffffffffffffffffffffttttttttadddddddddddddddddddddd    fffffffffffffffffffffff",
"ffffffffffffffffffffffffffffffffttttttttadddddddddddddddddddddd    fffffffffffffffffffffff",
"ffffffffffffffffffffffffffffffffttttttttadddddddddddddddddddddd    fffffffffffffffffffffff",
"ffffffffffffffffffffffffffffffffttttwwwwerrrrrrrrpdddddddd0;;;;oooofffffffffffffffffffffff",
"fffffffffffffffffffffffffffffffftttt7777777777777rdddddddd;    6666fffffffffffffffffffffff",
"fffffffffffffffffffffffffffffffftttt7777777777777rdddddddd;    6666fffffffffffffffffffffff",
"fffffffffffffffffffffffffffffffftttt7777777777777rdddddddd;    6666fffffffffffffffffffffff",
"fffffffffffffffffffffffffffffffftttt7777777777777rdddddddd;    6666fffffffffffffffffffffff",
"ffffffffffffffffffffffffffffffffttttttttaddddddddddddddddddddddddddfffffffffffffffffffffff",
"ffffffffffffffffffffffffffffffffttttttttaddddddddddddddddddddddddddfffffffffffffffffffffff",
"ffffffffffffffffffffffffffffffffttttttttaddddddddddddddddddddddddddfffffffffffffffffffffff",
"ffffffffffffffffffffffffffffffffttttttttaddddddddddddddddddddddddddfffffffffffffffffffffff",
"ffffffffffffffffffffffffffffffffffffttttiaaaaddddddddddddddddddfffffffffffffffffffffffffff",
"fffffffffffffffffffffffffffffffffffftttttttttddddddddddddddddddfffffffffffffffffffffffffff",
"fffffffffffffffffffffffffffffffffffftttttttttddddddddddddddddddfffffffffffffffffffffffffff",
"fffffffffffffffffffffffffffffffffffftttttttttddddddddddddddddddfffffffffffffffffffffffffff",
"fffffffffffffffffffffffffffffffffffftttttttttddddddddddddddddddfffffffffffffffffffffffffff",
"fffffffffffffffffffffffffffffffffffffffffqqqqqqq0522222222ffffffffffffffffffffffffffffffff",
"fffffffffffffffffffffffffffffffffffffffffqqqqqqqq722222222ffffffffffffffffffffffffffffffff",
"fffffffffffffffffffffffffffffffffffffffff0qqqqqq0522222222ffffffffffffffffffffffffffffffff",
"fffffffffffffffffffffffffffffffffffffffff0qqqqqqq522222222ffffffffffffffffffffffffffffffff",
"ffffffffffffffffffffffffffffffffffffffff-4447,,,,;====2222>fffffffffffffffffffffffffffffff",
"ffffffffffffffffffffffffffffffff........#<<<<+++++++++2222=@@@@@@@@fffffffffffffffffffffff",
"ffffffffffffffffffffffffffffffff........#<<<<+++++++++2222*@@@@@@@@fffffffffffffffffffffff",
"ffffffffffffffffffffffffffffffff........#<<<<+++++++++2222*@@@@@@@@fffffffffffffffffffffff",
"ffffffffffffffffffffffffffffffff........#<<<<+++++++#+2222*@@@@@@@@fffffffffffffffffffffff",
"ffffffffffffffffffffffffffffffff........fffff<<<<4q0qqXXXXO@@@@@@@@fffffffffffffffffffffff",
"ffffffffffffffffffffffffffffffff........fffff<<<<4qqqqXXXXO@@@@@@@@fffffffffffffffffffffff",
"ffffffffffffffffffffffffffffffff........fffff<<<<4qqqqXXXXO@@@@@@@@fffffffffffffffffffffff",
"ffffffffffffffffffffffffffffffff........fffff<<<<40qqqXXXXO@@@@@@@@fffffffffffffffffffffff",
"fffffffffffffffffffffffffffffff9111111119ffff<<<<34444%%%%$fffffffffffffffffffffffffffffff",
"fffffffffffffffffffffffffffdddddddddddddddddd<<<<<<<<<2222ffffffffffffffffffffffffffffffff",
"fffffffffffffffffffffffffffdddddddddddddddddd<<<<<<<<<2222ffffffffffffffffffffffffffffffff",
"fffffffffffffffffffffffffffdddddddddddddddddd<<<<<<<<<2222ffffffffffffffffffffffffffffffff",
"fffffffffffffffffffffffffffdddddddddddddddddd<<<<<<<<<2222ffffffffffffffffffffffffffffffff",
"ffffffffffffffffffdddddddddffffffffffffffXXXX<<<<<<<<<<<<<&#+++fffffffffffffffffffffffffff",
"ffffffffffffffffffdddddddddffffffffffffffXXXX<<<<<<<<<<<<<%++++fffffffffffffffffffffffffff",
"ffffffffffffffffffdddddddddffffffffffffffXXXX<<<<<<<<<<<<<&#+++fffffffffffffffffffffffffff",
"ffffffffffffffffffdddddddddffffffffffffffXXXX<<<<<<<<<<<<<%++++fffffffffffffffffffffffffff",
"ffffffffffffffffffffffffffffffffffffffffffffffffffffffffffffffffffffffffffffffffffffffffff",
"ffffffffffffffffffffffffffffffffffffXXXXfffffffffffffffffffffff++++fffffffffffffffffffffff",
"ffffffffffffffffffffffffffffffffffffXXXXfffffffffffffffffffffff++++fffffffffffffffffffffff",
"ffffffffffffffffffffffffffffffffffffXXXXfffffffffffffffffffffff#+++fffffffffffffffffffffff",
"ffffffffffffffffffffffffffffffffffffXXXXfffffffffffffffffffffff++++fffffffffffffffffffffff",
"ffffffffffffffffffffffffffffffffffffffffffffffffffffffffffffffffffffffffffffffffffffffffff",
"ffffffffffffffffffffffffffffffffffffffffffffffffffffffffffffffffffffffffffffffffffffffffff",
"ffffffffffffffffffffffffffffffffffffffffffffffffffffffffffffffffffffffffffffffffffffffffff",
"ffffffffffffffffffffffffffffffffffffffffffffffffffffffffffffffffffffffffffffffffffffffffff",
"ffffffffffffffffffffffffffffffffffffffffffffffffffffffffffffffffffffffffffffffffffffffffff",
"ffffffffffffffffffffffffffffffffffffffffffffffffffffffffffffffffffffffffffffffffffffffffff",
"ffffffffffffffffffffffffffffffffffffffffffffffffffffffffffffffffffffffffffffffffffffffffff",
"ffffffffffffffffffffffffffffffffffffffffffffffffffffffffffffffffffffffffffffffffffffffffff",
"ffffffffffffffffffffffffffffffffffffffffffffffffffffffffffffffffffffffffffffffffffffffffff"
};
