/* XPM */
static char *run_7[] = {
/* columns rows colors chars-per-pixel */
"90 90 40 1 ",
"  c #4E4D5C",
". c #5C6D77",
"X c #6E7A80",
"o c #9A7880",
"O c #7B888F",
"+ c #728794",
"@ c #85929A",
"# c #8A959A",
"$ c #8A98A0",
"% c #8B99A1",
"& c #909CA2",
"* c #979DA5",
"= c #93A0A7",
"- c #98A4AA",
"; c #9BA6AD",
": c #9BAAB3",
"> c #A1ADB4",
", c #A2AEB5",
"< c #A6AFB4",
"1 c #ABB4BA",
"2 c #ABB7BF",
"3 c #ADBBBE",
"4 c #B0BABF",
"5 c #E6A3A3",
"6 c #A7B8C2",
"7 c #D6BFC1",
"8 c #BBC5C9",
"9 c #BAC4CA",
"0 c #B7CAD0",
"q c #BDCED4",
"w c #C3D3D8",
"e c #C6DBDE",
"r c #DBD6D7",
"t c #E3C8C8",
"y c #CCE0E2",
"u c #D1E0E2",
"i c #D3E4E6",
"p c #D7E7E8",
"a c #DFEDED",
"s c None",
/* pixels */
"ssssssssssssssssssssssssssssssssssssssssssssssssssssssssssssssssssssssssssssssssssssssssss",
"ssssssssssssssssssssssssssssssssssssssssssssssssssssssssssssssssssssssssssssssssssssssssss",
"ssssssssssssssssssssssssssssssssssssssssssssssssssssssssssssssssssssssssssssssssssssssssss",
"ssssssssssssssssssssssssssssssssssssssssssssssssssssssssssssssssssssssssssssssssssssssssss",
"ssssssssssssssssssssssssssssssssssssssssssssssssssssssssssssssssssssssssssssssssssssssssss",
"ssssssssssssssssssssssssssssssssssssssssssssssssssssssssssssssssssssssssssssssssssssssssss",
"ssssssssssssssssssssssssssssssssssssssssssssssssssssssssssssssssssssssssssssssssssssssssss",
"ssssssssssssssssssssssssssssssssssssssssssssssssssssssssssssssssssssssssssssssssssssssssss",
"ssssssssssssssssssssssssssssssssssssssssssssssssssssssssssssssssssssssssssssssssssssssssss",
"ssssssssssssssssssssssssssssssssssssssssssssssssssssssssssssssssssssssssssssssssssssssssss",
"ssssssssssssssssssssssssssssssssssssssssssssssssssssssssssssssssssssssssssssssssssssssssss",
"ssssssssssssssssssssssssssssssssssssssssssssssssssssssssssssssssssssssssssssssssssssssssss",
"ssssssssssssssssssssssssssssssssssssssssssssssssssssssssssssssssssssssssssssssssssssssssss",
"ssssssssssssssssssssssssssssssssssssssssssssssssssssssssssssssssssssssssssssssssssssssssss",
"sssssssssssssssssssssssssssssssssssseeeeeeeeessssssssseeeeeeeeesssssssssssssssssssssssssss",
"sssssssssssssssssssssssssssssssssssseeeeeeeeessssssssseeeeeeeeesssssssssssssssssssssssssss",
"sssssssssssssssssssssssssssssssssssseeeeeeeeessssssssseeeeeeeeesssssssssssssssssssssssssss",
"sssssssssssssssssssssssssssssssssssseeeeeeeeessssssssseeeeeeeeesssssssssssssssssssssssssss",
"sssssssssssssssssssssssssssssssseeeeeeee75555ssssseeeeeeee75555sssssssssssssssssssssssssss",
"sssssssssssssssssssssssssssssssseeeeeeee75555ssssseeeeeeee75555sssssssssssssssssssssssssss",
"sssssssssssssssssssssssssssssssseeeeeeee75555ssssseeeeeeee75555sssssssssssssssssssssssssss",
"sssssssssssssssssssssssssssssssseeeeeeee75555ssssseeeeeeee75555sssssssssssssssssssssssssss",
"sssssssssssssssssssssssssssssssseeeeeeee75555sssspiiiiiiiirttttsssssssssssssssssssssssssss",
"sssssssssssssssssssssssssssssssseeeeeeee75555aaaaaaaaaaaaaaaaaasssssssssssssssssssssssssss",
"sssssssssssssssssssssssssssssssseeeeeeee75555aaaaaaaaaaaaaaaaaasssssssssssssssssssssssssss",
"sssssssssssssssssssssssssssssssseeeeeeee75555aaaaaaaaaaaaaaaaaasssssssssssssssssssssssssss",
"sssssssssssssssssssssssssssssssseeeeeeee75555aaaaaaaaaaaaaaaaaasssssssssssssssssssssssssss",
"sssssssssssssssssssssssssssssssseeeeeeeeiaaaaaaaaaaaaaaaaaaaaaaaaaasssssssssssssssssssssss",
"sssssssssssssssssssssssssssssssseeeeeeeeiaaaaaaaaaaaaaaaaaaaaaaaaaasssssssssssssssssssssss",
"sssssssssssssssssssssssssssssssseeeeeeeeiaaaaaaaaaaaaaaaaaaaaaaaaaasssssssssssssssssssssss",
"sssssssssssssssssssssssssssssssseeeeeeeeiaaaaaaaaaaaaaaaaaaaaaaaaaasssssssssssssssssssssss",
"ssssssssssssssssssssssssssssssss00000000qwwwwaaaa8****aaaaaaaaaaaaasssssssssssssssssssssss",
"ssssssssssssssssssssssssssssssss6666666666666aaaa*    aaaaaaaaaaaaasssssssssssssssssssssss",
"ssssssssssssssssssssssssssssssss6666666666666aaaa*    aaaaaaaaaaaaasssssssssssssssssssssss",
"ssssssssssssssssssssssssssssssss6666666666666aaaa*    aaaaaaaaaaaaasssssssssssssssssssssss",
"ssssssssssssssssssssssssssssssss6666666666666aaaa*    aaaaaaaaaaaaasssssssssssssssssssssss",
"sssssssssssssssssssssssssssssssseeeeeeeeiaaaaaaaaaaaaaaaaaaaaaa    sssssssssssssssssssssss",
"sssssssssssssssssssssssssssssssseeeeeeeeiaaaaaaaaaaaaaaaaaaaaaa    sssssssssssssssssssssss",
"sssssssssssssssssssssssssssssssseeeeeeeeiaaaaaaaaaaaaaaaaaaaaaa    sssssssssssssssssssssss",
"sssssssssssssssssssssssssssssssseeeeeeeeiaaaaaaaaaaaaaaaaaaaaaa    sssssssssssssssssssssss",
"sssssssssssssssssssssssssssssssseeee0000qwwwwwwwwuaaaaaaaa8****oooosssssssssssssssssssssss",
"sssssssssssssssssssssssssssssssseeee6666666666666waaaaaaaa*    5555sssssssssssssssssssssss",
"sssssssssssssssssssssssssssssssseeee6666666666666waaaaaaaa*    5555sssssssssssssssssssssss",
"sssssssssssssssssssssssssssssssseeee6666666666666waaaaaaaa*    5555sssssssssssssssssssssss",
"sssssssssssssssssssssssssssssssseeee6666666666666waaaaaaaa*    5555sssssssssssssssssssssss",
"sssssssssssssssssssssssssssssssseeeeeeeeiaaaaaaaaaaaaaaaaaaaaaaaaaasssssssssssssssssssssss",
"sssssssssssssssssssssssssssssssseeeeeeeeiaaaaaaaaaaaaaaaaaaaaaaaaaasssssssssssssssssssssss",
"sssssssssssssssssssssssssssssssseeeeeeeeiaaaaaaaaaaaaaaaaaaaaaaaaaasssssssssssssssssssssss",
"sssssssssssssssssssssssssssssssseeeeeeeeuaaaaaaaaaaaaaaaaaaaaaaaaaasssssssssssssssssssssss",
"sssssssssssssssssssssssssssssssssssseeeeuppuuaaaaaaaaaaaaaaaaaasssssssssssssssssssssssssss",
"sssssssssssssssssssssssssssssssssssseeeeeeeeeaaaaaaaaaaaaaaaaaasssssssssssssssssssssssssss",
"sssssssssssssssssssssssssssssssssssseeeeeeeeeaaaaaaaaaaaaaaaaaasssssssssssssssssssssssssss",
"sssssssssssssssssssssssssssssssssssseeeeeeeeeaaaaaaaaaaaaaaaaaasssssssssssssssssssssssssss",
"sssssssssssssssssssssssssssssssssssseeeeeeeeeaaaaaaaaaaaaaaaaaasssssssssssssssssssssssssss",
"sssssssssssssssssssssssssssssssssssssssss$##*<<<<<<<<<$$$$ssssssssssssssssssssssssssssssss",
"sssssssssssssssssssssssssssssssssssssssss$$%#<<<<<<<<<$$$$ssssssssssssssssssssssssssssssss",
"sssssssssssssssssssssssssssssssssssssssss$$$$<<<<<<<<<$$$$ssssssssssssssssssssssssssssssss",
"sssssssssssssssssssssssssssssssssssssssss$$$$<<1<<<<<<$$$$ssssssssssssssssssssssssssssssss",
"sssssssssssssssssssssssssssssssssssssssss,,<,66441<<<<----ssssssssssssssssssssssssssssssss",
"sssssssssssssssssssssssssss+++++++++sssss99999w684<<<<<<<<ssssssssss........ssssssssssssss",
"sssssssssssssssssssssssssss+++++++++sssss899999994<<<<<<<<ssssssssss........ssssssssssssss",
"sssssssssssssssssssssssssss+++++++++sssss999999996<<<<<<<<ssssssssss........ssssssssssssss",
"sssssssssssssssssssssssssss+++++++++sssss899998984<<<<<<<<ssssssssss........ssssssssssssss",
"sssssssssssssssssssssssssss+++++++++sssss::::OOOOOOOOO<<<<ssssssssss........ssssssssssssss",
"sssssssssssssssssssssssssss+++++++++sssss::::OOOOOOOOO<<<<ssssssssss........ssssssssssssss",
"sssssssssssssssssssssssssss+++++++++sssss::::OOOOOOOOO<<<<ssssssssss........ssssssssssssss",
"sssssssssssssssssssssssssss+++++++++sssss::::OOOOOOOOO<<1<ssssssssss........ssssssssssssss",
"sssssssssssssssssssssssssssssssssssssssssssss%%%%-;;;;####ssssssssssssssssssssssssssssssss",
"sssssssssssssssssssssssssssssssssssssssssssss::::29988XXXXssssssssssssssssssssssssssssssss",
"sssssssssssssssssssssssssssssssssssssssssssss::::69988XXXXssssssssssssssssssssssssssssssss",
"sssssssssssssssssssssssssssssssssssssssssssss::::29999XXXXssssssssssssssssssssssssssssssss",
"sssssssssssssssssssssssssssssssssssssssssssss::::29998XXXXssssssssssssssssssssssssssssssss",
"ssssssssssssssssssaaaaaaaaaaaaaaaaaaaaaaaaaaa:::::::::<<<<ssssssssssssssssssssssssssssssss",
"ssssssssssssssssssaaaaaaaaaaaaaaaaaaaaaaaaaaa:::::::::<<<<ssssssssssssssssssssssssssssssss",
"ssssssssssssssssssaaaaaaaaaaaaaaaaaaaaaaaaaaa:::::::::<<<<ssssssssssssssssssssssssssssssss",
"ssssssssssssssssssaaaaaaaaaaaaaaaaaaaaaaaaaaa:::::::::<<<<ssssssssssssssssssssssssssssssss",
"ssssssssssssssssssssssssssssssssssss333343336:::::::::>>,>=sssssssssssssssssssssssssssssss",
"ssssssssssssssssssssssssssssssssssssOOOOOOOOO:::::::::::::#.XXXXXXXsssssssssssssssssssssss",
"ssssssssssssssssssssssssssssssssssssOOOOOOOOO:::::::::::::@OXXXXXXXsssssssssssssssssssssss",
"ssssssssssssssssssssssssssssssssssssOOOOOOOOO:::::::::::::@.XXXXXXXsssssssssssssssssssssss",
"ssssssssssssssssssssssssssssssssssssOOOOOOOOO:::::::::::::@XXXXXXXXsssssssssssssssssssssss",
"ssssssssssssssssssssssssssssssssssssssssssssssssssssssssssssssssssssssssssssssssssssssssss",
"ssssssssssssssssssssssssssssssssssssssssssssssssssssssssssssssssssssssssssssssssssssssssss",
"ssssssssssssssssssssssssssssssssssssssssssssssssssssssssssssssssssssssssssssssssssssssssss",
"ssssssssssssssssssssssssssssssssssssssssssssssssssssssssssssssssssssssssssssssssssssssssss",
"ssssssssssssssssssssssssssssssssssssssssssssssssssssssssssssssssssssssssssssssssssssssssss",
"ssssssssssssssssssssssssssssssssssssssssssssssssssssssssssssssssssssssssssssssssssssssssss",
"ssssssssssssssssssssssssssssssssssssssssssssssssssssssssssssssssssssssssssssssssssssssssss",
"ssssssssssssssssssssssssssssssssssssssssssssssssssssssssssssssssssssssssssssssssssssssssss",
"ssssssssssssssssssssssssssssssssssssssssssssssssssssssssssssssssssssssssssssssssssssssssss"
};
