/* XPM */
static char *run_l_3[] = {
/* columns rows colors chars-per-pixel */
"96 96 41 1 ",
"  c #4E4D5C",
". c #5C6D77",
"X c #A4C262",
"o c #A5C362",
"O c #A5C263",
"+ c #A4C363",
"@ c #A5C363",
"# c #C0D470",
"$ c #C1D470",
"% c #C0D570",
"& c #C1D570",
"* c #C1D471",
"= c #C1D571",
"- c #6E7A80",
"; c #7B888F",
": c #728794",
"> c #8A98A0",
", c #9BAAB3",
"< c #A6AFB4",
"1 c #E7A3A2",
"2 c #E6A2A3",
"3 c #E7A2A3",
"4 c #E6A3A3",
"5 c #E7A3A3",
"6 c #E8EEAA",
"7 c #A7B8C2",
"8 c #BAC4CA",
"9 c #C6DADE",
"0 c #C7DADE",
"q c #C6DBDE",
"w c #C7DBDE",
"e c #C6DADF",
"r c #C7DADF",
"t c #C6DBDF",
"y c #C7DBDF",
"u c #DEECEC",
"i c #DFECEC",
"p c #DFEDEC",
"a c #DFECED",
"s c #DEEDED",
"d c #DFEDED",
/* pixels */
"%%$O%$$%%=$%%$$%$%%=%%%%$=$$============%$%=$$%%%=$$=$*****O====**%%*$%$$**%=======&&&&&=*===$**",
"%%%%%%$%$$$$%$$$$$==%=$=$%%$============$%=$%*$%==$=%%*%%***====%*%%***$%**$========&&$====$=$%*",
"==%%$=$$$%%%%%%%==&&==&%%%$%==*%====%%%*%$==%%*=%*$$%****%*%====%%%%%%*$*%%$========$$=&=====$$%",
"====%$=$$$$$%$$$===&%%&$$%$%=O*%====*==*%%$=%%**%*$$%%%%%*%*====*%%*%*%%***%=========$$&====$$$$",
"======$=**%%%$%%&&&=====$$***%**====*%**========%%$$%*%$$$&&====%*%**$$$$***%%O=$$$$$%%%=====O%%",
"======$&%%%%*%%*==&&====$$*%%***====*==*==%=====**%%*%%$%$&=====**%*%%****%**%*%%*%==$=%=====$*%",
"========%***%*%*&&======*%%%%%*%=======O========$$****%%%=%=====%%%%%$%%%%%*%*%*%$$%%$$=======%*",
"=======&%%****%*=&======***%%%%*================*%%%%%%%=%======**%%***$%*******%$$%=%%$======$*",
"$%%*$$$%****O====$$$$$======%O$$=====&=&=&==**$===&&&&&$&$%%%%=&$$%***%%==%*****%=$%======$$$%*$",
"*%*$%$$=%%**O@@=%%OOO$=@===%%$$$====&&&&=&&=%*O==@$$$&&$%oOO%%$$$$%*%*%%=O$%%%%%%*$$==%===%$*%%$",
"%%$$$%==*%**@@@=%%OOO$$$==O%%%$$========$$=$**%*==$$&@$$=OOO%%$$%%%$%*%%==$$*%*%**%%====$%$%**$%",
"$%$%%%%%*%**@@@=%%OOO$$$==$$raewyyyryy==$==$*%%%wuyyyu0y00OO%%%$$%$$*%%%==*%%%%**$*$====%%$$%%**",
"$%**%%%%=======@OO%%$=%$====erwwyywwww==%%$$%$%*wwwwyryyyy==OOOO$$$%========*%*%**=======$**%=$$",
"*%$$%%%%=======@OO%%$%$=====wwewwywwww==$=$$%%%%wwewyrryyy==OOO=&&%%========%%%%**======%$$==%%*",
"==$O%%=%=======@OO=$%=$$===%tweewwwww9@=%%%$$*%*ttewyyyyyy==@@@=&=$&=&======%*$%%%*======%%%$$%%",
"====%===========$$$%$=======tttewwwww9==%%%%***%teteyyyyyy==@@@==%%&&&======%*$$***O====$*=$$$*%",
"==========%$$$%%$$%**%%$%$*%33555ettttyer0y&====443329w99www9w9@$***%**%%$$$$$%$**%%%%%%$$$%$$=$",
"========$%%=%%$$$*%%*%*%$*%%33535eweetyty00=====44132wwwwww99wu==%%%%*$$%%*$$$%$%**%%%**$$$$%%=$",
"========$%$$=%==%%**=*%*%*%$35535wyyeeytyyy==&==41442www9w9w00w@%%$%%%%%==O=&&$$%OOO%*%%%%%%$%$$",
"========%%%$==$=$***=%$%$$$$35535eyeeytyyry=&&==14412wwwww9w00u=*$%%%$$$====&=%=%OOO%%%*%%$$$=$&",
"$%%%&&$$$$=$====%%%%$*%==$=%33334ewwrrryy0w%@===43221wwwr0we000%%=$$&=$&======%%%OOO*%%*%$%$&&&=",
"%%%$$===&=%$====%$****%=%$$%ddddupppaadddppppsdd33222www0eee00r%=%%$$%$=======@@O%%%*%%*%%%$&&&&",
"$*%$$%&$&$=&====**%*%*$$$%==aadduussaadaupppdppd32222www0yewrrr%%=%%$$========O@O%*%%*$%%$%*&&==",
"*%$$$=$%&$$&====%*%*%%=%==$=aaddpuspupdauuuppppd32222wwwyywwwrr%%%%%$$========OOO*%**%*$$%%%&&==",
"%$$$$$$O========%$$$=$$$$$O=ddddauddddddaaaddddd44111tqqyywwwwwXOO=$O===&&&==OOOO%======&=$$$$==",
"$$O$$$$$========$$=O&&$$$$==ddddddddddddpdadusdd44111qqtyywwwwe+OO$$=====&&==$OOO$======&&$$$$==",
"====$$&&&&==$O$$====&&=dddddddddaududddddddduuddssssstttwtttwwe+OO======$$====OOO===$$$$&&==$===",
"=====&&=&&==$$$$=======ddddddddduuuaddddddddddddssssstttwwttwwu+==O@O===$$====$$O===$$$$====O===",
"==$$$$==&=====$$==$$$$=dddddddddddddddddddddddddspppstttwwyywww+==@@O$&&$$$O&&&=$$$$$=======&===",
"==$$O$==$$=====&==$$=O=dddddddddddddddddddddddddppppstttwwyywwd@==@@O$=&$$====&&$$$$O===O$==&===",
"===$====$$$O==&&===$===dddddddddddddddddddddddddppppstttwwyy00uO%%OOO$&&========$O&=&===$$$$&&==",
"===$====$$$$==&&==$$===ddddddddddddddd     dddpp777777777<77778%%oOOO$============&&&===$$$$=&==",
"$$&&===O====$$$$==%%===ddddddddddddddd     ddddd777777777777777o$$OOO=&==$$$$$$$$O&&&=$$===&&&==",
"$$=&===$====$$$$$=%%===ddddddddddddddd     ddddd777777777777778$$$O%==&&&$$$$$$$====&&$$===&=&O$",
"$$&&==$$&&==$O&=$$%%===ddddddddddddddd     ddddd777777777777777$$$=&===&==$O&=&======O$$===O$$$$",
"$$====$$=&====&&$$%%===ddddddddddddddd     ddddd777777777777778@$$$&===&====&&&======$$$===$$$$$",
"$===&=$$$$$$===&O======     dddddddddddddddddddddddddettqwwwyyy@===&$$=&==$$$$===O$$====$$$$===O",
"O===&&$$$$$$===========     dddddddddddddddddddddddddettqwwwyyd&==&&$$$&==$$$$===$$$====$$$$===$",
"&=========$O===O====@=%     dddddddddddddddddddddddddtttqqwwyyy@====$$&&=&&=$=====$$&&==&=&===$$",
"&==============$=======     dddddddddddddddddddddddddettqqyyyyd&===O$$&=&&&&O=====$$=&&&&&&===$$",
"&&============$$&&=====     ddddddddddddddddddddsssssqqqqqttttt+=$$$$$======$$$========&&=$$&=$$",
"=&O$========&=$$$==O===35555     dddddddddd77777777777778<tttts=&&$$$$======$$$&==&&===&&&$$&&$$",
"$$$$&&====$$&=$$$$$$&&=35555     dddddddddd7777777777777778tttt+&&==O===&&==$$&&$$&&===O=O$$&&==",
"$$$$=&&&O$$$&&$$$$$$&==55555     dddddddddd777777777777777tttts=&=======&&==O$&&$$=&===$=$$$====",
"&&&=$$$$&=$$=O$$====&$$35555     dddddddddd7777777777777<8qqttt+====&&==&$$$====$$====$$==&=$$==",
"=&&=$$$$&&$$=$$$====$$$53355     dddddddddd77777777777777<qqtts%=O==&&===$$$====$$==&&$$==&&$$==",
"$$====$O&&====&&====%o$dddddddddddddddddddddddddsssssqttttwqwwqo$$$$&&====$$==$$$===&=$$===&$$$=",
"$$============&==&==%$$dddddddddddddddddddddddddssssstttttwwwws%$$$$$====O$$==O$O===&&$$===&$$O=",
"$$$O$$$===&=$$$$======$ddaaaddddddddddddddddiiiissssswwqqqwwwqq+$$$O==&&&$$$$$$$=====&&&$$$$====",
"$$==$$O===&&$$$$======$iaaddddddddddddddddddpiiisssssqqqqqwuwwd@$$$$==&&=$$$=&$$===O$&&=$$$$====",
"====$$&&===&==$OO=$$&&=appddddddddddddddddpdppiissppswqqqqqdwsuo$$&&======$$&&====$$$$==O==$=&==",
"====$$=&===&====$$$$&&$$%$$$ddddddddddddddppppiiwwwwqqqqqq+@o&&&=&&&======O$&&====$$$$====&&&&=O",
"==$$$O&&===O=======$O$$%%%%%ddddddddddddddddiiiiwwqqqqqqtt==&&======$=&&==$$$$===&&&========$$$$",
"&&$$=======$==&&==$$=$$%%%%Oddddddddddddddddiiiiwwqqqqqqtu==&&======$&&&===&$$==&&$==O======$$$$",
"&=$$======$$$$&&======%%%$$$ddddddddddddddddiiiiqqqqqqqqqq==&&=&==$$$$====&&$O==$$$$$$$$=&=&=$&&",
"&&$$======$$$$=&======%%%$$$ddddddddddddddddiiipqqqqqqqqqq@&&&&&==O$$$====&&$$==$$$$$$$$$&&&&&&=",
"=====&&&==$$$$$$$$::::::::::$$&&$>>>>><<<<<<<<<<>>>>>===&&===&&&&&&$$$==$$=&====O=&&&$$$=$$$$$==",
"===O$&666&$$666O$=::::::::::$$=&$>>>>><<<<<<<<<<>>>>>===&&&&&&&=&&=$$$==$$$&===O==&=&=$$&&$$$$==",
"==$$$$666&&$666===::::::::::$$=&$>>>>><<<<<<<<<<>>>>>=O=o&&&%%&&====$O==$$&&==$$======$$&&==O===",
"==$$$$666&&=666===::::::::::$$==%>>>>><<<<<<<<<<>>>>>=$$&&&&%%%&====$$==$$&===$$=====O$$&=======",
"=&&&===&$666======;:::::::::====%>>>>><<<<<<<<<<>>>>>$$$====O=======$$$=O====$$$==$$========&&==",
"&&$=====$666======::::::::::=====<<<<<<<<<<8888807808=$$==..........$$$&====&&$$=O$$=====O==&===",
"$$$$==O$$666&&====::::::::::==$$$<<<<<<<<<<8888888888=====..........$$&&====&&====$$=&=&$$$$&&==",
"$$$$===$$$$$=&&&O$::::::::::O$$$$<<<<<<<<<<8888888888===%=..........O$&&666=&=====$$$&&&$$$$$===",
"O=&&&$$$===&&&====;:::::::::=$%%$<<<<<<<<<<8888888888$$$$$..........O===666===&=$$$$==&&=$======",
"==&=&=$$==&&$==O==:::;::::::$$%%$<<<<<<<<<<8888888888$$$$$..........====666===&&$$$$==&&$$======",
"======$$====$$$$$$====$$======%$$<<<<<;;;;;;;;;;,,,,,$$$=&..........&&====$666=&==$O====$$$=$$&&",
"=====O$$===O$$$$$$&==O$$=====O$$$<<<<<;;;;;;;;;;,,,,,$$$==..........&=====O666==========$$$O$=&&",
"==$$====$$$$====$$=====&==$$====$<<<<<->;;>->-;;,,,,,$$$==..........&$$$$$$666&===$$$$O=$$&&$$$$",
"=O$$====$$$$===O$$%%=====O$$====$<<<<<>-;;->.>>.,,,,,$$$==..........&=$$$$$666&===$$666$$=&&$$=O",
"==$$=&=&=$&&==$$$$o%======$$=&==$<<<<<->;;;->->>,,,,,$$$%=..........==$$$$&666===&&=666$$$======",
"==$$$&&&&&&===$$$$%%======$$$====----.88888<<,><=@$$$$$$%============O$$=&&666====&&666$$$======",
"===&===&&$$$=$$$$$$=======$$$$O==-----88888,,,,,============o%%%====$$o%%==666===666==O$$$=&&&=$",
"==&&==&&&=$$&&$$$$$&======$$$$===.----88888,,,,,====%%====&=$$%%==&&$$%%%==666===666===$=O==&&$$",
"$$&&======$$&&==$$&&==$O=&&$=====>;.--r8888,,,,,===&o%$$$$==$$$$$$&&$$$$===666$$=666==$$====O$$$",
"$$$====O=O$$&===O$&&==$$==&======..;--88888,,,,,&===$$$$$$$&$$$666$=$$$$=%====O$&666==$$=====$$$",
"$$===&$$===$$$======$$$$==O$=&&&=<<<<<,,,,,,,,,,iippppiididdddddaidddddddddddd&$&666&&=$O$$$====",
"$$==&&$$==&&$$======$=$$===$==$==<<<<<,,,,,,,,,,iiiippppiiddddddaidddddddddddd&=&666&&$$=$$$====",
"O===&$$$===&$$O=&&==&&====$666$$O7<<<<,,,,,,,,,,iiiippppidddddddaddddddddddddd==&666=&====$$&&==",
"====&=$$==&&$$==&&==&=====$666$$=<<<<<,,,,,,,,,,iiiippppiiddddddaddddddddddddd==&666======$=&&&=",
"&&==$$$$===O&&&&&$$$===&$$$666$$$<<<<<,,,,,,,,,,iiiiiiiiddddddddddddipiiddddii$$&666&=$$$$===&&&",
"&===$$$*===$=&&==$$$=O=>;;;;;;;;;,,,,,,,,,,,,,,,>----;.;--==666=%%%O$$&$====$$$$=$$$&&$$$$===&=&",
"&&==$O&===$$*$====$$$$$;;;;;;;;;;,,,,,,,,,,,,,,,..----;.--==666===$$$$&===%%$$&==O$$&&==$===$$$$",
"=&====&&==$$$$====O$$$$;;;;;;;;;;,,,,,,,,,,,,,,,------.;--==666===$$$$&&==O$$$&&=$$$====O===$$$$",
"*$$$===&=&&&======$$$$$;>.>.;;;;;,,,,,<<,,,,,,,,----;.;.--=&666========&==&&===&==&=$$==$$$$$===",
"$$$$==&&&&=&O$=====&$$=>;>;>;;;;;<,,,,<<,,<<,,<<----.>..--&&666O=======&===&===&==&&$$==$$$$O===",
"==$O===O$$*$$$$$==&&$O==$$&&&&$O==$$$O$&$$$=$O==&&&&==$$$$&&666$$$&&===O$$=====O===&$$$=$O&=&===",
"=======$$$$$$$$*==&&$$==$$&&&&&&==$$$$==$$O=$$==&&&&O$$$$*=&$$$$$======$$$$$===$===&$$O===&&&===",
"==$$$$$O$$$===&=&&&&=O$$$$&$$$$$=$$$$$==&&$$&&&&&&$$$$$$======$$$$===&&&======$$$$$$======&=$$$$",
"==$*$$==$$O===&&=&&==$$$$$$$$$$$&&$$$$==&$$$&&&&$$$$$$$$O$====$*$$==&&$=====&&$$$$$$======&&$$$$",
"=&&=====$$&&===&*$====$$$$$$$$$$$&==o===&&$$&$&&$$$$$$$$$$$$=&&=O===$$$$==$$&=$$$O&========&==$O",
"&&&&====$*=&==&&$$====$*o$$$$$$$========&&&o$$&&$$$$$$$$$$$*&&&&====$$$$O$$$&&$$==&&&&O$===&====",
"=====&&&===&$$&&$$$O&&&=$&&&$&&&====$===&==$$$&&$&&&$$$$&&&=$$$$$$$$O===&=$$=O$$====$$$$===O====",
"====&&=&==&&$*=&$$==&=&&$&&&o&&&=o==$===&=$$$$&&$&&&$$$$&=&&$$$*$$$$====&&$$=$$$====$$$$===$==&&",
"=&==$$*$===O$$&&======&&$O&&&&&&$$$$$&====$$$$$$$$&&&&o&====$O&=O==$====&&====$$&&==&=====$$$$&&",
"&&O$$$$$===$$$&========&&&&&&===$$$$$====o$$$o$$$$&&&&&&======&&==&&&=========$$=&&&&&&===$$$$=&"
};
