/* XPM */
static char *result[] = {
/* columns rows colors chars-per-pixel */
"96 96 50 1 ",
"  c #4E4D5C",
". c #5C6D77",
"X c #A4C262",
"o c #A5C262",
"O c #A4C362",
"+ c #A5C362",
"@ c #A4C263",
"# c #A5C263",
"$ c #A4C363",
"% c #A5C363",
"& c #C0D470",
"* c #C1D470",
"= c #C0D570",
"- c #C1D570",
"; c #C0D471",
": c #C1D471",
"> c #C0D571",
", c #C1D571",
"< c #6E7A80",
"1 c #7B888F",
"2 c #728794",
"3 c #9BAAB3",
"4 c #A6AFB4",
"5 c #E6A2A2",
"6 c #E7A2A2",
"7 c #E6A3A2",
"8 c #E7A3A2",
"9 c #E6A2A3",
"0 c #E7A2A3",
"q c #E6A3A3",
"w c #E7A3A3",
"e c #E8EEAA",
"r c #A7B8C2",
"t c #BAC4CA",
"y c #C6DADE",
"u c #C7DADE",
"i c #C6DBDE",
"p c #C7DBDE",
"a c #C6DADF",
"s c #C7DADF",
"d c #C6DBDF",
"f c #C7DBDF",
"g c #DEECEC",
"h c #DFECEC",
"j c #DEEDEC",
"k c #DFEDEC",
"l c #DEECED",
"z c #DFECED",
"x c #DEEDED",
"c c #DFEDED",
/* pixels */
"->-&>;*=::>,=,;-*&=-->,=-=*:;-,&,*>*;,;*:;;->*&->:,-**,>>;,,&;;>>&=&,;,=*=*,:,&:-=,;,&,--*-=,=,:",
";,>;==>*;&>==*>;>&=&*>>--;:*>&:--&;=&>>;-:=:,::&>:&=&*-,=:,::=&=,>>&=*=&*&>::,=--==-=-:;=->:;&&;",
"&--;&->**>,*;>,*-;&*>>>>,:&>=>&&&=*:*>;;>*:,&>-*;,;*:&;;,=:**:;>-,=*&-**-=::&*;&&&*&:=-&:=&>&=;*",
"&=,>>>-:>*-;=*&:,*=&=&>;>&=*>-&:=&&=-=:>*-&**-,===,;,:>=>=:>;:;*-;=,>-*:=*:-&,&**=>&***;*&=*,:>;",
"--=>:=;,&:&:&*=*=>;&&>:,*&&&:&*:>&=*-*>;=&-=&->&;>;&-,:;,:>&:-*&*;&>:;,::,&=>-:-&--:*-->;&;>;:;-",
"=-&-:;;&-*;;,-&*,=-=>>::=&;-,*;,>*-;:*&>&*>&;==-;=&;>>:;::>;,:*&>,=-:>:,;*:&*--*,,-&&;&*-&:*>=>>",
"=,:>>-=*=&-&**-;>,-=-&*---:>-**&&->=,=&-=*&-,>-*>:>&:*,&*,,&&&*,&=&-&==,*>,-&:&:-&;&:;>;*----,*:",
"&&&:,=:>:-;>,-=,-=:>;*;&=*:-=-;,&*==;-&*-=-&&-=,>>=>***&&*;;::==>-=*-,-->,,&*=&,-;>,>;,;=&-*-=;&",
"*-=-&>;,==--;&:-:=*-,&,==*>=;:**-:&=*&&===*=&:=*=;;::>>*;::>,;&-&>**=>*:&:>;,;&-;;>>,::>*&&=>--*",
"*-=>==&>:>:&&,->*&&=&&*&-&>:*;--**:-XX@>&&>-&;,:-;,&,-*=;>;;::&&**;*->-=&;=o%O**-%+O&&-=&=&=-=-=",
"-**:;-*-&-&:&=*;*,>=*;*-&=>=>*&;,*&=O@@==,&*=:>&>-=,,,,&*-,>**&>&=>,>=;;:=>X%X&**%%$=*,&-*-=;:==",
"&*==>;&=:&-:&:=,;;:>>**=&&&;&--;:=:=OOufppudupau-->&;*=:>;fyiaauiasi->-*,>;O@+**:$@%=:>=-;;*>**-",
"*&=-&&:&*&,,::>>&=->:*;--*:-:**-;XX+;>dupppypiiy&*&*:**:&&siipdyiuiu>-*:==>>&=OO#*:>*:&,=*>;>;==",
">==&=>,&=>,,:>;&:**&=;;*----**-=*$@@:,uppfsaiyys:=-,;&*,==iyisippuyf-&>:&=>==&@oO*:;-&,:>:&&--*&",
">-=>&,&=;,;;,&=-&&&**>=;=&==-*=*-X@%;*piuiffiays>>;-**&**-supiuiyuys;=*;*,**,&#@%&,,,*&;;;:&&===",
"&>*&>=->>=&=>:>:>>;;;:*-&:-:=*>*>X@o=,ippdpiidyy-**&=&,*&;yfaddiuyfu=&;*&;*=&*,=>:*-*&*->=,-=&*=",
"&*=:*&>;:-,-&,>-;;**&>-:&;;-&***,duusayipuu87w78-&:,-ifudsiypfp95507-=-&-==:=;&=*&=*,&===-&;;*&-",
"*=*,--;&;&;-,:>:;&:=>=&*;::&;-*:=sdddussuss66q09;*,;;aaiiyfdayyqww0q&==*&>&:-&;;:;*>*-&**&&>&:=-",
"-&=-&*,,:---#%$*--,=&-;&==--*>&:=ypfuufaipp78875::*&&ppayaifddf76wq9-*-=:*=,&>:->,&-;:&*,,=,&-=&",
"-=&;>=-&--==@%#;>:=;:>>:-**;-,;*,dyiauuyupp06q59*&**;siappdddfa7wqwq-:;;&=>:;->&&*=-*=>*--:--*&*",
",;=&*>*,&*=;@#@:-*:=*=;=->&&=::**psyaysuifd66757=*;-:siisfaaafa7ww79&-*=,*>>*;,,&=,*>;&*,-=,&=;;",
"-*--&-=;,-*:,-=@O+-*,&>;&-,,;==-&daddiysupy6q09qhjzjlxzxkccchjxxczlj>:>>=>&****,;>=:>&>&&-,,*>,=",
"-&*->*;*-=>*&*:$o+&==>,,-;*=*-;&*dsuaapfyud6688qxjkjzglzcgzczzllxjjg&>;*&,;-*&-&,;;,&*:>-=-,&&,,",
"-->&*&&;=:*==:&%O+=&&&;;:=;>:&=,=faudiddyyyqqq70jjjkxhgccclxhgxxxzjc->=;=>->>=;=-=-:=;&,=&-&=;:;",
"&&&&&&&&&&&&&&&@@@&&&&&&&&&&&&@@@dffffpiiid99995kjjjgzzzzzxxxxczllll&&&&&&&&&&&&&&&&&&&&&&&&&&&&",
"&&&&&&&&&&&&&&&@@@&&&&&&&&&&&&@@@sffffdiiii90q59jkjkjzzzczxxxxxlxlzz&&&&&&&&&&&&&&&&&&&&&&&&&&&&",
"&&&&&&&&&&&&&&&@@@&&&&&&&&&&&&@@@diiyydiiipkcckzcczckxcccccckxczczcczcxzk&&&&&&&&&&&&&&&&&&&&&&&",
"&&&&&&&&&&&&&&&&&&&&&&&&&&&@@@&&&iiiiiiiiiicccccccccccccccccccccccccccccc&&&&&&&&&&&&&&&&&&&&&&&",
"&&&&&&&&&&&&&&&&&&&&&&&&&&&@@@&&&iiiiiiiiiicccccccccccccccccccccccccccccc&&&&&&&&&&&&&&&&&&&&&&&",
"&&&&&&&&&&&&&&&&&&&&&&&&&&&@@@&&&iiiiiiiiiicccccccccccccccccccccccccccccc&&&&&&&&&&&&&&&&&&&&&&&",
"&&&&&&&&&&&&&&&&&&&&&&&&&&&@@@&&&iiiiiiiiiicccccccccccccccccccccccccccccc&&&&&&&&&&&&&&&&&&&&&&&",
"&&&&&&&&&&&&&&&&&&&&&&&&&&&@@@&&&rrrrrrrrrrrrrrrccccc     ccccccccccccccc&&&&&&&&&&&&&&&&&&&&&&&",
"&&&&&&&&&&&&&&&&&&&&&&&&&&&@@@&&&rrrrrrrrrrrrrrrccccc     ccccccccccccccc&&&&&&&&&&&&&&&&&&&&&&&",
"&&&&&&&&&&&&&&&&&&&&&&&&&&&&&&&&&rrrrrrrrrrrrrrrccccc     ccccccccccccccc&&&&&&&&&&&&&&&&&&&&&&&",
"&&&&&&&&&&&&&&&&&&&&&&&&&&&&&&&&&rrrrrrrrrrrrrrrccccc     ccccccccccccccc&&&&&&&&&&&&&&&&&&&&&&&",
"&&&&&&&&&&&&&&&&&&&&&&&&&&&&&&&&&rrrrrrrrrrrrrrrccccc     ccccccccccccccc&&&&&&&&&&&&&&&&&&&&&&&",
"&&&&&&&&&&&&&&&&&&&&&&&&&&&&&&&&&iiiiiiiiiiccccccccccccccccccccccccc     &&&&&&&&&&&&&&&&&&&&&&&",
"&&&&&&&&&&&&&&&&&&&&&&&&&&&&&&&&&iiiiiiiiiiccccccccccccccccccccccccc     &&&&&&&&&&&&&&&&&&&&&&&",
"&&&&&&&&&&&&&&&&&&&&&&&&&&&&&&&&&iiiiiiiiiiccccccccccccccccccccccccc     &&&&&&&&&&&&&&&&&&&&&&&",
"&&&&&&&&&&&&&&&&&&&&&&&&&&&&&&&&&iiiiiiiiiiccccccccccccccccccccccccc     &&&&&&&&&&&&&&&&&&&&&&&",
"&&&&&&&&&&&&&&&&&&&&&&&&&&&&&&&&&iiiiiiiiiiccccccccccccccccccccccccc     &&&&&&&&&&&&&&&&&&&&&&&",
"&&&&&&&&&&&&&&&&&&&&&&&&&&&&&&&&&iiiiirrrrrrrrrrrrrrrcccccccccc     qqqqq&&&&&&&&&&&&&&&&&&&&&&&",
"&&&&&&&&&&&&&&&&&&&&&&&&&&&&&&&&&iiiiirrrrrrrrrrrrrrrcccccccccc     qqqqq&&&&&&&&&&&&&&&&&&&&&&&",
"&&&&&&&&&&&&&&&&&&&&&&&&&&&&&&&&&iiiiirrrrrrrrrrrrrrrcccccccccc     qqqqq&&&&&&&&&&&&&&&&&&&&&&&",
"&&&&&&&&&&&&&&&&&&&&&&&&&&&&&&&&&iiiiirrrrrrrrrrrrrrrcccccccccc     qqqqq&&&&&&&&&&&&&&&&&&&&&&&",
"&&&&&&&&&&&&&&&&&&&&&&&&&&&&&&&&&iiiiirrrrrrrrrrrrrrrcccccccccc     qqqqq&&&&&&&&&&&&&&&&&&&&&&&",
"&&&&&&&&&&&&&&&&&&&&&&&&&&&&&&&&&iiiiiiiiiicccccccccccccccccccccccccccccc&&&&&&&&&&&&&&&&&&&&&&&",
"&&&&&&&&&&&&&&&&&&&&&&&&&&&&&&&&&iiiiiiiiiicccccccccccccccccccccccccccccc&&&&&&&&&&&&&&&&&&&&&&&",
"&&&&&&&&&&&&&&&&&&&&&&&&&&&&&&&&&iiiiiiiiiicccccccccccccccccccccccccccccc&&&&&&&&&&&&&&&&&&&&&&&",
"&&&&&&&&&&&&&&&&&&&&&&&&&&&&&&&&&iiiiiiiiiicccccccccccccccccccccccccccccc&&&&&&&&&&&&&&&&&&&&&&&",
"&&&&&&&&&&&&&&&&&&&&&&&&&&&&&&&&&iiiiiiiiiicccccccccccccccccccccccccccccc&&&&&&&&&&&&&&&&&&&&&&&",
"&&&&&&&&&&&&&&&&&&&&&&&&&&&&&&&&&&&&&&iiiiiiiiiicccccccccccccccccccc&&&&&&&&&&&&&&&&&&&&&&&&&&&&",
"&&&&&&&&&&&&&&&&&&&&&&&&&&&&&&&&&&&&&&iiiiiiiiiicccccccccccccccccccc&&&&&&&&&&&&&&&&&&&&&&&&&&&&",
"&&&&&&&&&&&&&&&&&&&&&&&&&&&&&&&&&&&&&&iiiiiiiiiicccccccccccccccccccc&&&&&&&&&&&&&&&&&&&&&&&&&&&&",
"&&&&&&&&&&&&&&&&&&&&&&&&&&&&&&&&&&&&&&iiiiiiiiiicccccccccccccccccccc&&&&&&&&&&&&&&&&&&&&&&&&&&&&",
"&&&&&&&&&&&&&&&&&&&&&&&&&&&&&&&&&&&&&&iiiiiiiiiicccccccccccccccccccc&&&&&&&&&&&&&&&&&&&&&&&&&&&&",
"&&&&&&&&&&&&&&&&&&&&&&&&&&&&&&&&&&&&&&&&&&&tttttttttt4444444444&&&&&&&&&&&&&&&&&&&&&&&&&&&&&&&&&",
"&&&&&&&&&&&&&&&&&&&&&&&&&&&&&&&&&&&&&&&&&&&tttttttttt4444444444&&&&&&&&&&&&&&&&&&eee&&&eee&&&&&&",
"&&&&&&&&&&&&&&&&&&&&&&&&&&&&&&&&&&&&&&&&&&&tttttttttt4444444444&&&&&&&&&&&&&&&&&&eee&&&eee&&&&&&",
"&&&&&&&&&&&&&&&&&&&&&&&&&&&&&&&&&&&&&&&&&&&tttttttttt4444444444&&&&&&&&&&&&&&&&&&eee&&&eee&&&&&&",
"&&&&&&&&&&&&&&&&&&&&&&&&&&&&&&&&&&&&&&&&&&&tttttttttt4444444444&&&&&&&&&&&&&&&&&&&&&eee&&&&&&&&&",
"&&&&&&&&&&&&&&&&&&&&&&&&&&&&&&&&&..........333331111111111444442222222222&&&&&&&&&&&eee&&&&&&&&&",
"&&&&&&&&&&&&&&&&&&&&&&&&&&&&&&&&&..........333331111111111444442222222222&&&&&&&&&&&eee&&&&&&&&&",
"&&&&&&&&&&&&&&&&&&&&&eee&&&&&&&&&..........333331111111111444442222222222&&&&&&&&&&&&&&&&&&&&&&&",
"&&&&&&&&&&&&&&&&&&&&&eee&&&&&&&&&..........333331111111111444442222222222&&&&&&&&&&&&&&&&&&&&&&&",
"&&&&&&&&&&&&&&&&&&&&&eee&&&&&&&&&..........333331111111111444442222222222&&&&&&&&&&&&&&&&&&&&&&&",
"&&&&&&&&&&&&&&&&&&eee&&&&&&&&&&&&..........&&&&&33333ttttt<<<<<2222222222&&&&&&&&&&&&&&&&&&&&&&&",
"&&&&&&&&&&&&&&&&&&eee&&&&&&&&&&&&..........&&&&&33333ttttt<<<<<2222222222&&&&&&&&&&&&&&&&&&&&&&&",
"&&&&&&&&&&&&&&&&&&eee&&&&&&&&&&&&..........&&&&&33333ttttt<<<<<2222222222&&&&&&&&&&&&&&&&&&&&&&&",
"&&&&&&&&&eee&&&&&&eee&&&&&&&&&&&&..........&&&&&33333ttttt<<<<<2222222222&&&&&&&&&&&&&&&&&&&&&&&",
"&&&&&&&&&eee&&&&&&eee&&&&&&&&&&&&..........&&&&&33333ttttt<<<<<2222222222&&&&&&&&&&&&&&&&&&&&&&&",
"&&&&&&&&&eee&&&&&&eee&&&&&&&cccccccccccccccccccc333333333344444&&&&&&&&&&&&&&&&&&&&&&&&&&&&&&&&&",
"&&&&&&&&&&&&eee&&&eee&&&&&&&cccccccccccccccccccc333333333344444&&&&&&&&&&&&&&&&&&&&&&&&&&&&&&&&&",
"&&&&&&&&&&&&eee&&&eee&&&&&&&cccccccccccccccccccc333333333344444&&&&&&&&&&&&&&&&&&&&&&&&&&&&&&&&&",
"&&&&&&&&&&&&eee&&&eee&&&&&&&cccccccccccccccccccc333333333344444&&&&&&&&&&&&&&&&&&&&&&&&&&&&&&&&&",
"&&&&&&&&&&&&eee&&&&&&&&&&&&&cccccccccccccccccccc333333333344444&&&&&&&&&&&&&&&&&&&&&&&&&&&&&&&&&",
"&&&&&&&&&&&&eee&&&cccccccccc&&eee&&&&&&&&&&<<<<<33333333333333311111&&&&&&&&&&&&&&&&&&&&&&&&&&&&",
"&&&&&&&&&&&&eee&&&cccccccccc&&eee&&&&&&&&&&<<<<<33333333333333311111&&&&&&&&&&&&&&&&&&&&&&&&&&&&",
"&&&&&&&&&&&&eee&&&cccccccccc&&&&&eee&&&&&&&<<<<<33333333333333311111e&&&&&&&&&&&&&&&&&&&&&&&&&&&",
"&&&&&&&&&&&&eee&&&cccccccccc&&&&&eee&&&&&&&<<<<<33333333333333311111e&&&&&&&&&&&&&&&&&&&&&&&&&&&",
"&&&&&&&&&&&&eee&&&cccccccccc&&&&&eee&&&&&&&<<<<<33333333333333311111e&&&&&&&&&&&&&&&&&&&&&&&&&&&",
"&&&&&&&&&&&&&&&&&&&&&&&&&&&&&&&&&eee&&<<<<<&&&&&&&&&&&&&&&&&&&&eee&&11111&&&&&&&&&&&&&&&&&&&&&&&",
"&&&&&&&&&&&&&&&&&&&&&&&&&&&&&&&&&eee&&<<<<<&&&&&&&&&&&&&&&&&&&&eee&&11111&&&&&&&&&&&&&&&&&&&&&&&",
"&&&&&&&&&&&&&&&&&&&&&&&&&&&&&&&&&eee&&<<<<<&&&&&&&&&&&&&&&&&&&&eee&&11111&&&&&&&&&&&&&&&&&&&&&&&",
"&&&&&&&&&&&&&&&&&&&&&&&&&&&&&&&&&eee&&<<<<<&&&&&&&&&&&&&&&&&&&&&&&&&11111&&&&&&&&&&&&&&&&&&&&&&&",
"&&&&&&&&&&&&&&&&&&&&&&&&&&&&&&&&&eee&&<<<<<&&&&&&&&&&&&&&&&&&&&&&&&&11111&&&&&&&&&&&&&&&&&&&&&&&",
"&&&&&&&&&&&&&&&&&&&&&&&&&&&&&&&&&eee&&&&&&&&&&&&&&&&&&&&&&&&&&&&&&&&&&&&&&&&&&&&&&&&&&&&&&&&&&&&",
"&&&&&&&&&&&&&&&&&&&&&&&&&&&&&&&&&&&&&&&&&&&&&&&&&&&&&&&&&&&&&&&&&&&&&&&&&&&&&&&&&&&&&&&&&&&&&&&&",
"&&&&&&&&&&&&&&&&&&&&&&&&&&&&&&&&&&&&&&&&&&&&&&&&&&&&&&&&&&&&&&&&&&&&&&&&&&&&&&&&&&&&&&&&&&&&&&&&",
"&&&&&&&&&&&&&&&&&&&&&&&&&&&&&&&&&&&&&&&&&&&&&&&&&&&&&&&&&&&&&&&&&&&&&&&&&&&&&&&&&&&&&&&&&&&&&&&&",
"&&&&&&&&&&&&&&&&&&&&&&&&&&&&&&&&&&&&&&&&&&&&&&&&&&&&&&&&&&&&&&&&&&&&&&&&&&&&&&&&&&&&&&&&&&&&&&&&",
"&&&&&&&&&&&&&&&&&&&&&&&&&&&&&&&&&&&&&&&&&&&&&&&&&&&&&&&&&&&&&&&&&&&&&&&&&&&&&&&&&&&&&&&&&&&&&&&&",
"&&&&&&&&&&&&&&&&&&&&&&&&&&&&&&&&&&&&&&&&&&&&&&&&&&&&&&&&&&&&&&&&&&&&&&&&&&&&&&&&&&&&&&&&&&&&&&&&",
"&&&&&&&&&&&&&&&&&&&&&&&&&&&&&&&&&&&&&&&&&&&&&&&&&&&&&&&&&&&&&&&&&&&&&&&&&&&&&&&&&&&&&&&&&&&&&&&&",
"&&&&&&&&&&&&&&&&&&&&&&&&&&&&&&&&&&&&&&&&&&&&&&&&&&&&&&&&&&&&&&&&&&&&&&&&&&&&&&&&&&&&&&&&&&&&&&&&",
"&&&&&&&&&&&&&&&&&&&&&&&&&&&&&&&&&&&&&&&&&&&&&&&&&&&&&&&&&&&&&&&&&&&&&&&&&&&&&&&&&&&&&&&&&&&&&&&&"
};
