/* XPM */
static char *run_1[] = {
/* columns rows colors chars-per-pixel */
"90 90 38 1 ",
"  c #4E4D5C",
". c #6E7A80",
"X c #9A7880",
"o c #7B888F",
"O c #728794",
"+ c #778892",
"@ c #988B92",
"# c #8A959A",
"$ c #89979F",
"% c #8799A4",
"& c #979DA5",
"* c #91A1AB",
"= c #96A6AF",
"- c #9BA6AD",
"; c #9BAAB3",
": c #A1ADB4",
"> c #A6AFB4",
", c #B0BABF",
"< c #E6A3A3",
"1 c #E4BCBC",
"2 c #A7B8C2",
"3 c #A9BAC1",
"4 c #BBC5C9",
"5 c #BAC4CA",
"6 c #B7CAD0",
"7 c #BED2D7",
"8 c #C3CED1",
"9 c #C8D3D6",
"0 c #C3D3D8",
"q c #C6DBDE",
"w c #CCD8DA",
"e c #CDD9DC",
"r c #E3C8C8",
"t c #D3DFE1",
"y c #D1E0E2",
"u c #D3E4E6",
"i c #DFEDED",
"p c None",
/* pixels */
"pppppppppppppppppppppppppppppppppppppppppppppppppppppppppppppppppppppppppppppppppppppppppp",
"pppppppppppppppppppppppppppppppppppppppppppppppppppppppppppppppppppppppppppppppppppppppppp",
"pppppppppppppppppppppppppppppppppppppppppppppppppppppppppppppppppppppppppppppppppppppppppp",
"pppppppppppppppppppppppppppppppppppppppppppppppppppppppppppppppppppppppppppppppppppppppppp",
"pppppppppppppppppppppppppppppppppppppppppppppppppppppppppppppppppppppppppppppppppppppppppp",
"pppppppppppppppppppppppppppppppppppppppppppppppppppppppppppppppppppppppppppppppppppppppppp",
"pppppppppppppppppppppppppppppppppppppppppppppppppppppppppppppppppppppppppppppppppppppppppp",
"pppppppppppppppppppppppppppppppppppppppppppppppppppppppppppppppppppppppppppppppppppppppppp",
"pppppppppppppppppppppppppppppppppppppppppppppppppppppppppppppppppppppppppppppppppppppppppp",
"pppppppppppppppppppppppppppppppppppppppppppppppppppppppppppppppppppppppppppppppppppppppppp",
"pppppppppppppppppppppppppppppppppppppppppppppppppppppppppppppppppppppppppppppppppppppppppp",
"pppppppppppppppppppppppppppppppppppppppppppppppppppppppppppppppppppppppppppppppppppppppppp",
"pppppppppppppppppppppppppppppppppppppppppppppppppppppppppppppppppppppppppppppppppppppppppp",
"pppppppppppppppppppppppppppppppppppppppppppppppppppppppppppppppppppppppppppppppppppppppppp",
"ppppppppppppppppppppppppppppppppqqqqqqqqpppppppppppppppppppqqqqqqqqppppppppppppppppppppppp",
"ppppppppppppppppppppppppppppppppqqqqqqqqpppppppppppppppppppqqqqqqqqppppppppppppppppppppppp",
"ppppppppppppppppppppppppppppppppqqqqqqqqpppppppppppppppppppqqqqqqqqppppppppppppppppppppppp",
"ppppppppppppppppppppppppppppppppqqqqqqqqpppppppppppppppppppqqqqqqqqppppppppppppppppppppppp",
"pppppppppppppppppppppppppppqqqqqqqqq<<<<ppppppppppppppqqqqqqqqq<<<<ppppppppppppppppppppppp",
"pppppppppppppppppppppppppppqqqqqqqqq<<<<ppppppppppppppqqqqqqqqq<<<<ppppppppppppppppppppppp",
"pppppppppppppppppppppppppppqqqqqqqqq<<<<ppppppppppppppqqqqqqqqq<<<<ppppppppppppppppppppppp",
"pppppppppppppppppppppppppppqqqqqqqqq<<<<ppppppppppppppqqqqqqqqq<<<<ppppppppppppppppppppppp",
"pppppppppppppppppppppppppppqqqqqqqqq<<<<1pppppppppppppuuuuuuuuurrrrppppppppppppppppppppppp",
"pppppppppppppppppppppppppppqqqqqqqqq<<<<riiiiiiiiiiiiiiiiiiiiiiiiiippppppppppppppppppppppp",
"pppppppppppppppppppppppppppqqqqqqqqq<<<<riiiiiiiiiiiiiiiiiiiiiiiiiippppppppppppppppppppppp",
"pppppppppppppppppppppppppppqqqqqqqqq<<<<riiiiiiiiiiiiiiiiiiiiiiiiiippppppppppppppppppppppp",
"pppppppppppppppppppppppppppqqqqqqqqq<<<<riiiiiiiiiiiiiiiiiiiiiiiiiippppppppppppppppppppppp",
"pppppppppppppppppppppppppppqqqqqqqqqiiiiiiiiiiiiiiiiiiiiiiiiiiiiiiiiiiiipppppppppppppppppp",
"pppppppppppppppppppppppppppqqqqqqqqqiiiiiiiiiiiiiiiiiiiiiiiiiiiiiiiiiiiipppppppppppppppppp",
"pppppppppppppppppppppppppppqqqqqqqqqiiiiiiiiiiiiiiiiiiiiiiiiiiiiiiiiiiiipppppppppppppppppp",
"pppppppppppppppppppppppppppqqqqqqqqqiiiiiiiiiiiiiiiiiiiiiiiiiiiiiiiiiiiipppppppppppppppppp",
"ppppppppppppppppppppppppppp6666666660000yiiiiiiiiiiiii&&&&4iiiiiiiiiiiiipppppppppppppppppp",
"ppppppppppppppppppppppppppp22222222222220iiiiiiiiiiiii    &iiiiiiiiiiiiipppppppppppppppppp",
"ppppppppppppppppppppppppppp22222222222220iiiiiiiiiiiii    &iiiiiiiiiiiiipppppppppppppppppp",
"ppppppppppppppppppppppppppp22222222222220iiiiiiiiiiiii    &iiiiiiiiiiiiipppppppppppppppppp",
"ppppppppppppppppppppppppppp22222222222220iiiiiiiiiiiii    &iiiiiiiiiiiiipppppppppppppppppp",
"pppppppppppppppppppppppppppqqqqqqqqqiiiiiiiiiiiiiiiiiiiiiiiiiiiiiii&    pppppppppppppppppp",
"pppppppppppppppppppppppppppqqqqqqqqqiiiiiiiiiiiiiiiiiiiiiiiiiiiiiii&    pppppppppppppppppp",
"pppppppppppppppppppppppppppqqqqqqqqqiiiiiiiiiiiiiiiiiiiiiiiiiiiiiii&    pppppppppppppppppp",
"pppppppppppppppppppppppppppqqqqqqqqqiiiiiiiiiiiiiiiiiiiiiiiiiiiiiii&    pppppppppppppppppp",
"pppppppppppppppppppppppppppqqqq06666000000000iiiiiiiiiiiiiiiiii&&&&@XXXXpppppppppppppppppp",
"pppppppppppppppppppppppppppqqqq62222222222222iiiiiiiiiiiiiiiiii    X<<<<pppppppppppppppppp",
"pppppppppppppppppppppppppppqqqq62222222222222iiiiiiiiiiiiiiiiii    X<<<<pppppppppppppppppp",
"pppppppppppppppppppppppppppqqqq62222222222222iiiiiiiiiiiiiiiiii    X<<<<pppppppppppppppppp",
"pppppppppppppppppppppppppppqqqq62222222222222iiiiiiiiiiiiiiiiii    X<<<<pppppppppppppppppp",
"pppppppppppppppppppppppppppqqqqqqqqqiiiiiiiiiiiiiiiiiiiiiiiiiiiiiiiiiiiipppppppppppppppppp",
"pppppppppppppppppppppppppppqqqqqqqqqiiiiiiiiiiiiiiiiiiiiiiiiiiiiiiiiiiiipppppppppppppppppp",
"pppppppppppppppppppppppppppqqqqqqqqqiiiiiiiiiiiiiiiiiiiiiiiiiiiiiiiiiiiipppppppppppppppppp",
"pppppppppppppppppppppppppppqqqqqqqqqiiiiiiiiiiiiiiiiiiiiiiiiiiiiiiiiiiiipppppppppppppppppp",
"ppppppppppppppppppppppppppppppppppppppppteeeeeeee988888888eppppppppppppppppppppppppppppppp",
"ppppppppppppppppppppppppppppppppppppppppp55555554,>>>>>>>>pppppppppppppppppppppppppppppppp",
"ppppppppppppppppppppppppppppppppppppppppp55555555,>>>>>>>>pppppppppppppppppppppppppppppppp",
"ppppppppppppppppppppppppppppppppppppppppp555555553>>>>>>>>pppppppppppppppppppppppppppppppp",
"ppppppppppppppppppppppppppppppppppppppppp55544554,>>>>>>>>pppppppppppppppppppppppppppppppp",
"ppppppppppppppppppppppppppppppppppppppppp;;;;ooooooooo>>>>pppppppppppppppppppppppppppppppp",
"ppppppppppppppppppppppppppppppppppppppppp;;;;ooooooooo>>>>pppppppppppppppppppppppppppppppp",
"ppppppppppppppppppppppppppppppppppppppppp;;;;ooooooooo>>>>pppppppppppppppppppppppppppppppp",
"ppppppppppppppppppppppppppppppppppppppppp;;;;ooooooooo>>>>pppppppppppppppppppppppppppppppp",
"ppppppppppppppppppppppppppppppppppppppppp%%%%++++%----####pppppppppppppppppppppppppppppppp",
"ppppppppppppppppppiiiiiiiiippppppppppppppOOOOOOOO=5555....pppppppppppppppppppppppppppppppp",
"ppppppppppppppppppiiiiiiiiippppppppppppppOOOOOOOO=4455....pppppppppppppppppppppppppppppppp",
"ppppppppppppppppppiiiiiiiiippppppppppppppOOOOOOOO=5454....pppppppppppppppppppppppppppppppp",
"ppppppppppppppppppiiiiiiiiippppppppppppppOOOOOOOO=5544....pppppppppppppppppppppppppppppppp",
"pppppppppppppppppppppppppppiiiiiiiiiiiii2OOOOOOOO%;;;;>>>>pppppppppppppppppppppppppppppppp",
"pppppppppppppppppppppppppppiiiiiiiiiiiii3OOOOOOOO%;;;;>>>>pppppppppppppppppppppppppppppppp",
"pppppppppppppppppppppppppppiiiiiiiiiiiii3OOOOOOOO%;;;;>>>>pppppppppppppppppppppppppppppppp",
"pppppppppppppppppppppppppppiiiiiiiiiiiii3OOOOOOOO%;;;;>>>>pppppppppppppppppppppppppppppppp",
"ppppppppppppppppppppppppppppppppppppppppppppp%%%%*;;;;::::pppppppppppppppppppppppppppppppp",
"ppppppppppppppppppppppppppppppppppppppppppppp;;;;;;;;;;;;;pppppppppppppppppppppppppppppppp",
"ppppppppppppppppppppppppppppppppppppppppppppp;;;;;;;;;;;;;pppppppppppppppppppppppppppppppp",
"ppppppppppppppppppppppppppppppppppppppppppppp;;;;;;;;;;;;;pppppppppppppppppppppppppppppppp",
"ppppppppppppppppppppppppppppppppppppppppppppp;;;;;;;;;;;;;pppppppppppppppppppppppppppppppp",
"ppppppppppppppppppppppppppppppppppppppppp....ppppppppppppppooooppppppppppppppppppppppppppp",
"ppppppppppppppppppppppppppppppppppppppppp....ppppppppppppppooooppppppppppppppppppppppppppp",
"ppppppppppppppppppppppppppppppppppppppppp....ppppppppppppppooooppppppppppppppppppppppppppp",
"ppppppppppppppppppppppppppppppppppppppppp....ppppppppppppppooooppppppppppppppppppppppppppp",
"pppppppppppppppppppppppppppppppppppppppppppppppppppppppppppppppppppppppppppppppppppppppppp",
"pppppppppppppppppppppppppppppppppppppppppppppppppppppppppppppppppppppppppppppppppppppppppp",
"pppppppppppppppppppppppppppppppppppppppppppppppppppppppppppppppppppppppppppppppppppppppppp",
"pppppppppppppppppppppppppppppppppppppppppppppppppppppppppppppppppppppppppppppppppppppppppp",
"pppppppppppppppppppppppppppppppppppppppppppppppppppppppppppppppppppppppppppppppppppppppppp",
"pppppppppppppppppppppppppppppppppppppppppppppppppppppppppppppppppppppppppppppppppppppppppp",
"pppppppppppppppppppppppppppppppppppppppppppppppppppppppppppppppppppppppppppppppppppppppppp",
"pppppppppppppppppppppppppppppppppppppppppppppppppppppppppppppppppppppppppppppppppppppppppp",
"pppppppppppppppppppppppppppppppppppppppppppppppppppppppppppppppppppppppppppppppppppppppppp",
"pppppppppppppppppppppppppppppppppppppppppppppppppppppppppppppppppppppppppppppppppppppppppp",
"pppppppppppppppppppppppppppppppppppppppppppppppppppppppppppppppppppppppppppppppppppppppppp",
"pppppppppppppppppppppppppppppppppppppppppppppppppppppppppppppppppppppppppppppppppppppppppp",
"pppppppppppppppppppppppppppppppppppppppppppppppppppppppppppppppppppppppppppppppppppppppppp",
"pppppppppppppppppppppppppppppppppppppppppppppppppppppppppppppppppppppppppppppppppppppppppp"
};
