/* XPM */
static char *run_5[] = {
/* columns rows colors chars-per-pixel */
"90 90 42 1 ",
"  c #4E4D5C",
". c #5C6D77",
"X c #65747C",
"o c #6E7A80",
"O c #9A7880",
"+ c #738189",
"@ c #7B888F",
"# c #728794",
"$ c #778892",
"% c #818E96",
"& c #988B92",
"* c #8A959A",
"= c #89979F",
"- c #8799A4",
"; c #979DA5",
": c #91A1AB",
"> c #96A6AF",
", c #9BA6AD",
"< c #9BAAB3",
"1 c #A1ADB4",
"2 c #A6AFB4",
"3 c #B0BABF",
"4 c #E6A3A3",
"5 c #E4BCBC",
"6 c #A7B8C2",
"7 c #A9BAC1",
"8 c #BBC5C9",
"9 c #BAC4CA",
"0 c #B7CAD0",
"q c #BED2D7",
"w c #C3CED1",
"e c #C8D3D6",
"r c #C3D3D8",
"t c #C6DBDE",
"y c #CCD8DA",
"u c #CDD9DC",
"i c #E3C8C8",
"p c #D3DFE1",
"a c #D1E0E2",
"s c #D3E4E6",
"d c #DFEDED",
"f c None",
/* pixels */
"ffffffffffffffffffffffffffffffffffffffffffffffffffffffffffffffffffffffffffffffffffffffffff",
"ffffffffffffffffffffffffffffffffffffffffffffffffffffffffffffffffffffffffffffffffffffffffff",
"ffffffffffffffffffffffffffffffffffffffffffffffffffffffffffffffffffffffffffffffffffffffffff",
"ffffffffffffffffffffffffffffffffffffffffffffffffffffffffffffffffffffffffffffffffffffffffff",
"ffffffffffffffffffffffffffffffffffffffffffffffffffffffffffffffffffffffffffffffffffffffffff",
"ffffffffffffffffffffffffffffffffffffffffffffffffffffffffffffffffffffffffffffffffffffffffff",
"ffffffffffffffffffffffffffffffffffffffffffffffffffffffffffffffffffffffffffffffffffffffffff",
"ffffffffffffffffffffffffffffffffffffffffffffffffffffffffffffffffffffffffffffffffffffffffff",
"ffffffffffffffffffffffffffffffffffffffffffffffffffffffffffffffffffffffffffffffffffffffffff",
"ffffffffffffffffffffffffffffffffffffffffffffffffffffffffffffffffffffffffffffffffffffffffff",
"ffffffffffffffffffffffffffffffffffffffffffffffffffffffffffffffffffffffffffffffffffffffffff",
"ffffffffffffffffffffffffffffffffffffffffffffffffffffffffffffffffffffffffffffffffffffffffff",
"ffffffffffffffffffffffffffffffffffffffffffffffffffffffffffffffffffffffffffffffffffffffffff",
"ffffffffffffffffffffffffffffffffffffffffffffffffffffffffffffffffffffffffffffffffffffffffff",
"ffffffffffffffffffffffffffffffffttttttttfffffffffffffffffffttttttttfffffffffffffffffffffff",
"ffffffffffffffffffffffffffffffffttttttttfffffffffffffffffffttttttttfffffffffffffffffffffff",
"ffffffffffffffffffffffffffffffffttttttttfffffffffffffffffffttttttttfffffffffffffffffffffff",
"ffffffffffffffffffffffffffffffffttttttttfffffffffffffffffffttttttttfffffffffffffffffffffff",
"fffffffffffffffffffffffffffttttttttt4444ffffffffffffffttttttttt4444fffffffffffffffffffffff",
"fffffffffffffffffffffffffffttttttttt4444ffffffffffffffttttttttt4444fffffffffffffffffffffff",
"fffffffffffffffffffffffffffttttttttt4444ffffffffffffffttttttttt4444fffffffffffffffffffffff",
"fffffffffffffffffffffffffffttttttttt4444ffffffffffffffttttttttt4444fffffffffffffffffffffff",
"fffffffffffffffffffffffffffttttttttt44445fffffffffffffsssssssssiiiifffffffffffffffffffffff",
"fffffffffffffffffffffffffffttttttttt4444iddddddddddddddddddddddddddfffffffffffffffffffffff",
"fffffffffffffffffffffffffffttttttttt4444iddddddddddddddddddddddddddfffffffffffffffffffffff",
"fffffffffffffffffffffffffffttttttttt4444iddddddddddddddddddddddddddfffffffffffffffffffffff",
"fffffffffffffffffffffffffffttttttttt4444iddddddddddddddddddddddddddfffffffffffffffffffffff",
"ffffffffffffffffffffffffffftttttttttddddddddddddddddddddddddddddddddddddffffffffffffffffff",
"ffffffffffffffffffffffffffftttttttttddddddddddddddddddddddddddddddddddddffffffffffffffffff",
"ffffffffffffffffffffffffffftttttttttddddddddddddddddddddddddddddddddddddffffffffffffffffff",
"ffffffffffffffffffffffffffftttttttttddddddddddddddddddddddddddddddddddddffffffffffffffffff",
"fffffffffffffffffffffffffff000000000rrrraddddddddddddd;;;;8dddddddddddddffffffffffffffffff",
"fffffffffffffffffffffffffff6666666666666rddddddddddddd    ;dddddddddddddffffffffffffffffff",
"fffffffffffffffffffffffffff6666666666666rddddddddddddd    ;dddddddddddddffffffffffffffffff",
"fffffffffffffffffffffffffff6666666666666rddddddddddddd    ;dddddddddddddffffffffffffffffff",
"fffffffffffffffffffffffffff6666666666666rddddddddddddd    ;dddddddddddddffffffffffffffffff",
"ffffffffffffffffffffffffffftttttttttddddddddddddddddddddddddddddddd;    ffffffffffffffffff",
"ffffffffffffffffffffffffffftttttttttddddddddddddddddddddddddddddddd;    ffffffffffffffffff",
"ffffffffffffffffffffffffffftttttttttddddddddddddddddddddddddddddddd;    ffffffffffffffffff",
"ffffffffffffffffffffffffffftttttttttddddddddddddddddddddddddddddddd;    ffffffffffffffffff",
"fffffffffffffffffffffffffffttttr0000rrrrrrrrrdddddddddddddddddd;;;;&OOOOffffffffffffffffff",
"ffffffffffffffffffffffffffftttt06666666666666dddddddddddddddddd    O4444ffffffffffffffffff",
"ffffffffffffffffffffffffffftttt06666666666666dddddddddddddddddd    O4444ffffffffffffffffff",
"ffffffffffffffffffffffffffftttt06666666666666dddddddddddddddddd    O4444ffffffffffffffffff",
"ffffffffffffffffffffffffffftttt06666666666666dddddddddddddddddd    O4444ffffffffffffffffff",
"ffffffffffffffffffffffffffftttttttttddddddddddddddddddddddddddddddddddddffffffffffffffffff",
"ffffffffffffffffffffffffffftttttttttddddddddddddddddddddddddddddddddddddffffffffffffffffff",
"ffffffffffffffffffffffffffftttttttttddddddddddddddddddddddddddddddddddddffffffffffffffffff",
"ffffffffffffffffffffffffffftttttttttddddddddddddddddddddddddddddddddddddffffffffffffffffff",
"ffffffffffffffffffffffffffffffffffffffffpuuuuuuuuewwwwwwwwufffffffffffffffffffffffffffffff",
"fffffffffffffffffffffffffffffffffffffffff99999998322222222ffffffffffffffffffffffffffffffff",
"fffffffffffffffffffffffffffffffffffffffff99999999322222222ffffffffffffffffffffffffffffffff",
"fffffffffffffffffffffffffffffffffffffffff99999999722222222ffffffffffffffffffffffffffffffff",
"fffffffffffffffffffffffffffffffffffffffff99988998322222222ffffffffffffffffffffffffffffffff",
"fffffffffffffffffffffffffffffffffffffffff<<<<@@@@@@@@@2222%........fffffffffffffffffffffff",
"fffffffffffffffffffffffffffffffffffffffff<<<<@@@@@@@@@2222%........fffffffffffffffffffffff",
"fffffffffffffffffffffffffffffffffffffffff<<<<@@@@@@@@@2222%........fffffffffffffffffffffff",
"fffffffffffffffffffffffffffffffffffffffff<<<<@@@@@@@@@2222%........fffffffffffffffffffffff",
"fffffffffffffffffffffffffffffffffffffffff----$$$$-,,,,****+........fffffffffffffffffffffff",
"fffffffffffffffffffffffffffffffffffffffff########>9999ooooX........fffffffffffffffffffffff",
"fffffffffffffffffffffffffffffffffffffffff########>8899ooooX........fffffffffffffffffffffff",
"fffffffffffffffffffffffffffffffffffffffff########>9898ooooX........fffffffffffffffffffffff",
"fffffffffffffffffffffffffffffffffffffffff########>9988ooooX........fffffffffffffffffffffff",
"fffffffffffffffffffffffffffddddddddddddd6########-<<<<2222ffffffffffffffffffffffffffffffff",
"fffffffffffffffffffffffffffddddddddddddd7########-<<<<2222ffffffffffffffffffffffffffffffff",
"fffffffffffffffffffffffffffddddddddddddd7########-<<<<2222ffffffffffffffffffffffffffffffff",
"fffffffffffffffffffffffffffddddddddddddd7########-<<<<2222ffffffffffffffffffffffffffffffff",
"fffffffffffffffffffffffffffffffffffffffffffff----:<<<<1111ffffffffffffffffffffffffffffffff",
"ffffffffffffffffffdddddddddffffffffffffffffff<<<<<<<<<<<<<ffffffffffffffffffffffffffffffff",
"ffffffffffffffffffdddddddddffffffffffffffffff<<<<<<<<<<<<<ffffffffffffffffffffffffffffffff",
"ffffffffffffffffffdddddddddffffffffffffffffff<<<<<<<<<<<<<ffffffffffffffffffffffffffffffff",
"ffffffffffffffffffdddddddddffffffffffffffffff<<<<<<<<<<<<<ffffffffffffffffffffffffffffffff",
"fffffffffffffffffffffffffffffffffffffffff@@@@ffffffffffffffoooofffffffffffffffffffffffffff",
"fffffffffffffffffffffffffffffffffffffffff@@@@ffffffffffffffoooofffffffffffffffffffffffffff",
"fffffffffffffffffffffffffffffffffffffffff@@@@ffffffffffffffoooofffffffffffffffffffffffffff",
"fffffffffffffffffffffffffffffffffffffffff@@@@ffffffffffffffoooofffffffffffffffffffffffffff",
"ffffffffffffffffffffffffffffffffffffffffffffffffffffffffffffffffffffffffffffffffffffffffff",
"ffffffffffffffffffffffffffffffffffffffffffffffffffffffffffffffffffffffffffffffffffffffffff",
"ffffffffffffffffffffffffffffffffffffffffffffffffffffffffffffffffffffffffffffffffffffffffff",
"ffffffffffffffffffffffffffffffffffffffffffffffffffffffffffffffffffffffffffffffffffffffffff",
"ffffffffffffffffffffffffffffffffffffffffffffffffffffffffffffffffffffffffffffffffffffffffff",
"ffffffffffffffffffffffffffffffffffffffffffffffffffffffffffffffffffffffffffffffffffffffffff",
"ffffffffffffffffffffffffffffffffffffffffffffffffffffffffffffffffffffffffffffffffffffffffff",
"ffffffffffffffffffffffffffffffffffffffffffffffffffffffffffffffffffffffffffffffffffffffffff",
"ffffffffffffffffffffffffffffffffffffffffffffffffffffffffffffffffffffffffffffffffffffffffff",
"ffffffffffffffffffffffffffffffffffffffffffffffffffffffffffffffffffffffffffffffffffffffffff",
"ffffffffffffffffffffffffffffffffffffffffffffffffffffffffffffffffffffffffffffffffffffffffff",
"ffffffffffffffffffffffffffffffffffffffffffffffffffffffffffffffffffffffffffffffffffffffffff",
"ffffffffffffffffffffffffffffffffffffffffffffffffffffffffffffffffffffffffffffffffffffffffff",
"ffffffffffffffffffffffffffffffffffffffffffffffffffffffffffffffffffffffffffffffffffffffffff"
};
