/* XPM */
static char *sign_eight[] = {
/* columns rows colors chars-per-pixel */
"13 20 32 1 ",
"  c black",
". c #3F3F3F",
"X c #5F5E5F",
"o c #5F5F5F",
"O c #6F6F6F",
"+ c #7F7E7A",
"@ c #7F7F7E",
"# c #7E7E7F",
"$ c #7E7F7F",
"% c gray50",
"& c #82827A",
"* c gray56",
"= c #9E9F9F",
"- c #9F9F9F",
"; c #AFAFAF",
": c #B3B2AE",
"> c #B7B7B7",
", c #BFBEBA",
"< c #BEBFBF",
"1 c gray75",
"2 c gray78",
"3 c #CECDC8",
"4 c #CECFCF",
"5 c gray81",
"6 c #DEDDD9",
"7 c #DFDFDF",
"8 c #E7E7E7",
"9 c #FFFDF4",
"0 c #FEFDF5",
"q c #FFFDF5",
"w c #FFFEFA",
"e c #FEFEFF",
/* pixels */
"qqqqqqqqqqqqq",
"qqqqqqqqqqqqq",
"qqqqqqqqqqqqq",
"q9we@    #qqq",
"qq3=#XXXX@4qq",
"qq+ #qqqq@@qq",
"qq& #qqqq#@qq",
"qq,##<q<@#<qq",
"qqqq%%q% @qqq",
"qqqq2%O%*2qqq",
"qqqq>%*%O>qqq",
"qqqq%%q% %qqq",
"qq:o%5q5-%;qq",
"qq+ %qqqq%%qq",
"qq+ %qqqq%%qq",
"qq61%....%7qq",
"qqqq%    %qqq",
"qqqq855558qqq",
"qqqqqqqqqqqqq",
"qqqqqqqqqqqqq"
};
