/* XPM */
static char *sign_five[] = {
/* columns rows colors chars-per-pixel */
"13 20 25 1 ",
"  c black",
". c #2F2E2E",
"X c #3F3F3F",
"o c #5E5E5F",
"O c #5F5F5F",
"+ c #7F7E7A",
"@ c #7F7E7E",
"# c gray50",
"$ c #807E7E",
"% c #83837A",
"& c #84827A",
"* c gray56",
"= c #AFAFAF",
"- c #B5B4B0",
"; c #B7B7B7",
": c #BFBEBF",
"> c gray75",
", c #C6C5C1",
"< c gray81",
"1 c #DEDDD9",
"2 c #DFDFDF",
"3 c #E7E7E7",
"4 c #FFFCF4",
"5 c #FFFDF5",
"6 c #FFFEFA",
/* pixels */
"5555555555555",
"5555555555555",
"5555555555555",
"55+       @55",
"55$ .OOOOO=55",
"55% @55555555",
"55@ @55555555",
"55& X@##@:555",
"55+      @555",
"55,******#;55",
"556555555##55",
"556555555##55",
"55-O=5555##55",
"55$ #5555##55",
"55+ #5555##55",
"551:#XXXX#255",
"5555#    #555",
"55553<<<<3555",
"5565555555555",
"5555555555555"
};
