/* XPM */
static char *sign_eight[] = {
/* columns rows colors chars-per-pixel */
"9 16 26 1 ",
"  c #010100",
". c #000001",
"X c #3F3F3F",
"o c #5E5F5E",
"O c #5E5E5F",
"+ c #6F6F6F",
"@ c #7F7E7A",
"# c #7E7F7F",
"$ c gray50",
"% c #82827A",
"& c gray56",
"* c #9F9F9F",
"= c #AFAFAF",
"- c #B3B2AE",
"; c #B7B7B7",
": c #BFBEBA",
"> c #BEBFBF",
", c gray78",
"< c #CFCDC9",
"1 c gray81",
"2 c #DEDDD9",
"3 c #DFDFDF",
"4 c #E7E7E7",
"5 c #FFFCF4",
"6 c #FFFEFA",
"7 c #FEFEFE",
/* pixels */
"555555555",
"67#....$5",
"<*#ooOo$1",
"@.#5555$$",
"%.$5565#$",
":#$>5>$$>",
"55#$5$.$5",
"55,$+#&,5",
"55;$&$+;6",
"65$$5$.$5",
"-o$151*$=",
"@.$5565$$",
"@.%5555$$",
"2>$XXXX$3",
"56$....$5",
"554111145"
};
