/* XPM */
static char *sign_two[] = {
/* columns rows colors chars-per-pixel */
"13 20 33 1 ",
"  c black",
". c gray12",
"X c #3F3F3F",
"o c gray31",
"O c #5E5E5F",
"+ c #5E5F5F",
"@ c #6F6F6F",
"# c #7F7E7A",
"$ c #7F7E7E",
"% c #7F7E7F",
"& c #7E7F7F",
"* c gray50",
"= c gray56",
"- c #9E9E9F",
"; c #AEADA9",
": c #AEAFAE",
"> c #AEAEAF",
", c #B7B7B7",
"< c #BFBEBA",
"1 c gray75",
"2 c gray78",
"3 c #CECCC9",
"4 c #CFCECF",
"5 c gray81",
"6 c #D7D7D7",
"7 c #E6E5E1",
"8 c #E7E7E7",
"9 c #FFFCF4",
"0 c #FEFDF4",
"q c #FEFCF5",
"w c #FFFDF5",
"e c #FFFFFA",
"r c white",
/* pixels */
"wwwwwwwwwwwww",
"wwwwwwwwwwqww",
"wwew6>:>>6www",
"qwew*    *www",
"wq3-$++++*4ww",
"ww# $wwwq**ww",
"ww# $wwww*$ww",
"ww<$1wwwq*$ww",
"wwwwwwwww**ww",
"wwwwwww,@*2ww",
"wweww,@$=2www",
"wweww$ $qwwww",
"wwww:=-2wwwww",
"wwww**wwwwwww",
"ww;o$6wwwwwwr",
"ww# .XXXXX-ww",
"ww#       *ww",
"ww744454558ww",
"wwwwwwwwwwwww",
"wwwwwwwwwwwww"
};
