/* XPM */
static char *sign_nine[] = {
/* columns rows colors chars-per-pixel */
"13 20 28 1 ",
"  c black",
". c #373737",
"X c #3F3F3F",
"o c gray31",
"O c #5E5E5F",
"+ c #5F5F5F",
"@ c #6F6F6F",
"# c #7F7E7A",
"$ c #7F7E7D",
"% c #7E7E7F",
"& c #7E7F7F",
"* c #827E7A",
"= c gray56",
"- c #9F9F9F",
"; c #A7A7A7",
": c gray75",
"> c #C6C5C1",
", c #CECCC9",
"< c gray81",
"1 c #D7D7D7",
"2 c #DFDFDF",
"3 c #E7E7E7",
"4 c #FEFDF4",
"5 c #FEFCF5",
"6 c #FFFCF5",
"7 c #FFFDF5",
"8 c #FFFEFA",
"9 c white",
/* pixels */
"7777444465777",
"7777764455677",
"7777767757677",
"7667=    %476",
"74,-%OOOO%<74",
"77* %7774%%47",
"77* %7774%%47",
"77# %7777&%77",
"77# %7777&#74",
"77# &7777&#76",
"77>==@@@@.&75",
"7787#     =75",
"7787<----o%76",
"778777777%#76",
"7787777;o%176",
"7789-XX%:2766",
"7789%  %77777",
"77893<<377777",
"7787777777777",
"7787777777777"
};
