/* XPM */
static char *sign_five[] = {
/* columns rows colors chars-per-pixel */
"9 16 25 1 ",
"  c #000101",
". c #2F2E2E",
"X c #3F3F3E",
"o c #5F5E5E",
"O c #5E5E5F",
"+ c #5F5F5F",
"@ c #7F7E7B",
"# c #7F7E7F",
"$ c gray50",
"% c #807F7E",
"& c #84827A",
"* c gray56",
"= c #AEAEAE",
"- c #AFAFAF",
"; c #B5B4B0",
": c #B7B7B7",
"> c #BFBEBF",
", c #C6C5C1",
"< c gray81",
"1 c #DEDDD9",
"2 c #DFDFDF",
"3 c #E7E7E7",
"4 c #FFFCF4",
"5 c #FFFDF5",
"6 c #FFFEFA",
/* pixels */
"555554545",
"@       $",
"% .ooooo=",
"& $555544",
"% $555455",
"& X$$$$>5",
"@      $5",
",******$:",
"6555555#$",
"6555555#$",
";+-5554#$",
"$ $5554$$",
"@ $5555$$",
"1>$XXXX$2",
"55$    $5",
"553<<<<35"
};
