/* XPM */
static char *sign_nine[] = {
/* columns rows colors chars-per-pixel */
"9 16 27 1 ",
"  c #010000",
". c #373737",
"X c #3F3F3F",
"o c gray31",
"O c #5F5E5F",
"+ c #5E5F5F",
"@ c #5F5F5F",
"# c #6F6F6F",
"$ c #7F7E7A",
"% c #7E7E7F",
"& c gray50",
"* c #827E7A",
"= c gray56",
"- c #9F9F9F",
"; c #A7A7A7",
": c gray75",
"> c #C6C5C1",
", c #CECCC8",
"< c #CFCECF",
"1 c gray81",
"2 c #D7D7D7",
"3 c #DFDFDF",
"4 c #E7E7E7",
"5 c #FEFCF4",
"6 c #FEFDF5",
"7 c #FFFEFA",
"8 c white",
/* pixels */
"665666666",
"66&    %6",
",-&+OO+&<",
"& &6655&%",
"* &6666*%",
"$ &6667&&",
"$ &6666&&",
"$ &6666*&",
">=&####.&",
"76&     &",
"76<----o&",
"7666667%&",
"76666;o*2",
"78-XX&:36",
"78*  &666",
"7841<4666"
};
