/* XPM */
static char *sign_zero[] = {
/* columns rows colors chars-per-pixel */
"13 20 28 1 ",
"  c black",
". c #373737",
"X c #3F3F3F",
"o c gray28",
"O c gray31",
"+ c #5E5F5F",
"@ c #6F6F6F",
"# c #7F7E7A",
"$ c #7F7E7E",
"% c #7E7F7F",
"& c gray50",
"* c gray56",
"= c #9F9F9E",
"- c #AEAFAE",
"; c #AFAFAF",
": c #B7B7B7",
"> c gray75",
", c gray78",
"< c #CECCC9",
"1 c #CECECF",
"2 c gray81",
"3 c #D7D7D7",
"4 c #DEDDD9",
"5 c #DFDFDF",
"6 c #E7E7E7",
"7 c #FFFCF5",
"8 c #FEFDF5",
"9 c #FFFDF5",
/* pixels */
"9999999999999",
"9999999999999",
"77973;;;-9997",
"9797%    %779",
"99<=$++++$197",
"99# $9999%%99",
"99# $9999%$99",
"99# $99>%X$99",
"99# %99&  &99",
"99# &:@%*o%99",
"99# .&*,9&&99",
"99#  &999%&99",
"99# O2999&%99",
"99# %9999&&99",
"99# &9999%%99",
"994>%XXXX 599",
"9999%    *877",
"9999622216777",
"9999999999998",
"9999999999998"
};
