/* XPM */
static char *sign_four[] = {
/* columns rows colors chars-per-pixel */
"9 16 23 1 ",
"  c #000001",
". c #2F2F2F",
"X c #363737",
"o c gray34",
"O c #5F5F5F",
"+ c #6E6F6F",
"@ c #6F6F6F",
"# c #7F7E7A",
"$ c #7F7F7E",
"% c #7F7E7F",
"& c #7E7F7F",
"* c #AFAFAF",
"= c #BCBBB7",
"- c #C7C6C7",
"; c gray78",
": c gray81",
"> c #D6D5D1",
", c #D7D7D7",
"< c #E7E7E7",
"1 c #FEFCF4",
"2 c #FFFDF4",
"3 c #FEFCF5",
"4 c #FEFEFB",
/* pixels */
"333333333",
"433$   $3",
"433$   %3",
"33;$+X $3",
"33##1# $3",
"33@@3$ %3",
"33$*1$ $3",
"=@$;1$ $3",
"# $33$ $3",
"# $33$ $3",
"# .OO. .*",
"#       $",
">****o o,",
"43333$ $3",
"43333$ $3",
"43333<:<3"
};
