/* XPM */
static char *sign_three[] = {
/* columns rows colors chars-per-pixel */
"13 20 30 1 ",
"  c #010100",
". c #2F2F2E",
"X c #373737",
"o c #3F3F3F",
"O c gray31",
"+ c #5E5F5E",
"@ c #5F5F5F",
"# c #6F6F6F",
"$ c #7F7F7E",
"% c #7F7E7F",
"& c gray50",
"* c #82817A",
"= c gray56",
"- c #A7A7A7",
"; c #ADACA8",
": c #AFAEAF",
"> c #B5B4B0",
", c #B7B7B7",
"< c gray75",
"1 c gray78",
"2 c gray81",
"3 c #D6D5D1",
"4 c #D7D7D6",
"5 c #DEDDD9",
"6 c #DFDFDF",
"7 c #E7E7E7",
"8 c #FFFCF4",
"9 c #FFFCF5",
"0 c #FEFDF5",
"q c #FFFEFA",
/* pixels */
"0009900090000",
"0090000090990",
"003:::::::400",
"00*       %00",
"09>+++@@+.%00",
"00q00001=%,00",
"00q0000* %000",
"00q00<%%%<000",
"00q00& &00000",
"0000,X X#,000",
"00001====&,00",
"00q000000&&00",
"00q000000&&00",
"00q000000&&00",
"00;O-0000&&00",
"005<&oooo&600",
"0000&    &000",
"0000722227000",
"0000000000000",
"0000000000000"
};
