/* XPM */
static char *sign_four[] = {
/* columns rows colors chars-per-pixel */
"13 20 23 1 ",
"  c black",
". c #2F2F2F",
"X c #363737",
"o c gray34",
"O c #5F5F5F",
"+ c #6E6F6F",
"@ c #6F6F6F",
"# c #7F7E7A",
"$ c #7F7E7E",
"% c #7E7F7F",
"& c gray50",
"* c #AFAFAF",
"= c #BCBBB7",
"- c gray78",
"; c gray81",
": c #D6D5D1",
"> c #D7D7D7",
", c #E7E7E7",
"< c #FFFCF4",
"1 c #FEFDF4",
"2 c #FEFDF5",
"3 c #FFFDF5",
"4 c #FFFEFA",
/* pixels */
"3333333333333",
"3333333333333",
"3333333333333",
"33433%   %333",
"33433%   %333",
"3333-%@X %333",
"3333%%<% %333",
"3333%%3% %333",
"3333&%3& %<<<",
"33=@&-3& $<<<",
"33# &33% @,<<",
"33# %33% *3<4",
"33# .OO. .*33",
"33#       %33",
"33:****o o>33",
"3343333% %333",
"3343333% %333",
"3343333,;,333",
"3343333333333",
"3333333333333"
};
