/* XPM */
static char *sign_six[] = {
/* columns rows colors chars-per-pixel */
"13 20 26 1 ",
"  c black",
". c #3F3F3F",
"X c gray28",
"o c #5F5F5E",
"O c #5F5E5F",
"+ c #7F7E7A",
"@ c #7F7E7E",
"# c #7E7F7F",
"$ c gray50",
"% c #837E7D",
"& c #8E8F8F",
"* c #AFAEAF",
"= c #B6B6B7",
"- c #B7B7B7",
"; c gray75",
": c #C6C5C1",
"> c #CECECF",
", c gray81",
"< c #D6D6D7",
"1 c #DEDDD9",
"2 c #DFDFDF",
"3 c #E7E7E7",
"4 c #FEFDF4",
"5 c #FFFDF4",
"6 c #FFFCF5",
"7 c #FFFDF5",
/* pixels */
"7777767677777",
"7777447777777",
"77774<*=*<777",
"77777#   #777",
"7677>#ooo*777",
"77:&#=7777777",
"77% %77777777",
"77+ .####;777",
"77%      #777",
"74+ X&&&&#=77",
"77% #7477%#77",
"77# #7667##77",
"77+ #6667+#77",
"77+ #6664+&77",
"77+ #4444##77",
"771;#....#277",
"7777#    $777",
"77773>,,>3777",
"7777777777777",
"7777777777777"
};
