/* XPM */
static char *sign_two[] = {
/* columns rows colors chars-per-pixel */
"9 16 33 1 ",
"  c #010100",
". c #000001",
"X c gray12",
"o c #3F3F3F",
"O c gray31",
"+ c #5F5E5F",
"@ c #5F5F5F",
"# c #6F6F6F",
"$ c #7E7E7A",
"% c #7F7E7A",
"& c #7F7F7E",
"* c #7E7E7F",
"= c gray50",
"- c gray56",
"; c #9E9E9F",
": c #9F9F9F",
"> c #AEADA9",
", c #AEAFAE",
"< c #AEAFAF",
"1 c #AFAFAF",
"2 c #B7B7B7",
"3 c #BFBEBA",
"4 c gray75",
"5 c gray78",
"6 c #CECCC8",
"7 c #CECFCE",
"8 c gray81",
"9 c #D6D7D7",
"0 c #D7D7D7",
"q c #E6E5E1",
"w c #E7E7E7",
"e c #FEFCF5",
"r c #FFFEFA",
/* pixels */
"re9<<<<9e",
"re*....*e",
"6;*++++*7",
"$.*eeee$&",
"$.&eeee$&",
"3*4eeee$&",
"eeeeeee-&",
"eeeee2#&5",
"ree2#=-5e",
"ree=.=eee",
"ee1=:8eee",
"ee==eeeee",
">O=0eeeee",
"$.Xooooo:",
"%.......=",
"q8888888w"
};
