/* XPM */
static char *sign_seven[] = {
/* columns rows colors chars-per-pixel */
"13 20 21 1 ",
"  c black",
". c #2F2F2F",
"X c #5E5F5E",
"o c #5F5E5F",
"O c #6F6F6F",
"+ c gray50",
"@ c #82837A",
"# c #8F8E8F",
"$ c gray56",
"% c #9F9F9F",
"& c #AFAFAF",
"* c #B3B3AE",
"= c #B7B7B6",
"- c #B7B7B7",
"; c #C7C6C7",
": c gray81",
"> c #E7E7E7",
", c #FFFDF4",
"< c #FFFCF5",
"1 c #FFFDF5",
"2 c #FFFEFA",
/* pixels */
"1111111111111",
"11111111,1111",
"1111111111111",
"11@       +1<",
"11*oooooo.+11",
"1121111;#+=11",
"1121111+ +111",
"1121111+ +111",
"1111111+ +111",
"11111=O+#;111",
"11111+ +11111",
"11111+ +11111",
"1111&+%:11111",
"1111++1111111",
"1111++1111111",
"1111++1111111",
"1111++1111111",
"1111>>1111111",
"1111111111111",
"1111111111111"
};
