/* XPM */
static char *sign_zero[] = {
/* columns rows colors chars-per-pixel */
"9 16 29 1 ",
"  c #000100",
". c #373737",
"X c #3F3F3F",
"o c gray28",
"O c gray31",
"+ c #5F5F5E",
"@ c #5F5F5F",
"# c #6F6F6F",
"$ c #7E7E7A",
"% c #7F7E7A",
"& c #7F7E7E",
"* c #7E7F7E",
"= c gray50",
"- c gray56",
"; c #9F9F9E",
": c #AEAFAE",
"> c #AFAFAF",
", c #B7B7B7",
"< c gray75",
"1 c gray78",
"2 c #CECDC9",
"3 c #CECECF",
"4 c gray81",
"5 c #D7D7D7",
"6 c #DEDDD9",
"7 c #DFDFDF",
"8 c #E7E7E7",
"9 c #FEFDF4",
"0 c #FFFCF5",
/* pixels */
"005:>>>00",
"00*    &0",
"2;&+@@@&3",
"$ *0000=&",
"$ -9990&*",
"$ *00,&X=",
"$ &00&  =",
"% =,#&-o=",
"$ .=-10==",
"$  =000==",
"% O4000==",
"% =0000==",
"% &0000==",
"61&XXXX 7",
"00&    =0",
"008344480"
};
