/* XPM */
static char *tree_2[] = {
/* columns rows colors chars-per-pixel */
"90 90 69 1 ",
"  c #A2745E",
". c #A2755E",
"X c #A3755E",
"o c #A3765E",
"O c #A3775F",
"+ c #A4775F",
"@ c #A4795F",
"# c #A57B60",
"$ c #A67D60",
"% c #A77E60",
"& c #A77F60",
"* c #A88161",
"= c #A88261",
"- c #A88361",
"; c #AA8562",
": c #AA8662",
"> c #AA8762",
", c #AB8863",
"< c #AB8963",
"1 c #AC8B63",
"2 c #AD8C64",
"3 c #AD8D64",
"4 c #AE8E64",
"5 c #AE9064",
"6 c #AF9065",
"7 c #AF9265",
"8 c #B09365",
"9 c #B09465",
"0 c #B19666",
"q c #B19766",
"w c #B39A67",
"e c #B39B67",
"r c #B49C67",
"t c #B59E68",
"y c #B6A168",
"u c #B6A269",
"i c #B7A369",
"p c #B7A469",
"a c #B8A569",
"s c #B8A76A",
"d c #B9A86A",
"f c #B9A96A",
"g c #BAA96A",
"h c #BAAA6B",
"j c #BAAB6B",
"k c #BBAC6B",
"l c #BBAD6B",
"z c #BCAE6C",
"x c #BCAF6C",
"c c #BDB06C",
"v c #BDB16C",
"b c #BEB36D",
"n c #BFB66D",
"m c #C1BB6E",
"M c #C2BC6F",
"N c #C3BD6F",
"B c #C3BF6F",
"V c #C4C170",
"C c #C6C471",
"Z c #C7C871",
"A c #C9CB72",
"S c #CACF73",
"D c #CCD274",
"F c #CDD474",
"G c #CFD875",
"H c #CFD975",
"J c #D0DD76",
"K c #D2E077",
"L c None",
/* pixels */
"                                                                                          ",
"                                                                                          ",
"                                $*$*$$$*$**$$$*$$**$*$$$*$                                ",
"                               #KKKKKKKKKKKKKKKKKKKKKKKKKK$                               ",
"                               #KKKKKKKKKKKKKKKKKKKKKKKKKK#                               ",
"                          ;,1,13AAAASAAAAAAAAAAAASAAAAAAAA31,                             ",
"                          DKJKKH                          HKJ                             ",
"                          DKKKKH                          HKJ                             ",
"                    188899mVVVVm                          NVN998883                       ",
"                    NKKKKK*                                 @JKKKKC                       ",
"                    NJKKKK*                                 +KKKKKA                       ",
"                 3ttzmnnnn$                                  nnnnnctt5                    ",
"                 cKK9                                             3KKN                    ",
"                 nKKw                                             3JKN                    ",
"              3dddkk;                                             *kzddd8                 ",
"              dKJi                                                   wKKc                 ",
"              dKKi                                                   wKKc                 ",
"           3ncdii,                                                   *iidnc5              ",
"           tJKk                                                         iKKd              ",
"           tKKk                                                         iKKd              ",
"           tKKk                                                         iKKd              ",
"           rKKk                                                         iKKd              ",
"           tKKk                                                         iKKd              ",
"        3ACc33*                                                         $13dAC9           ",
"        8KKn                                                               kKKt           ",
"        8KKn                                                               kKKt           ",
"        8KKn                                                               kKKt           ",
"        8KKn                                                               kKKt           ",
"        8KKn                                                               kKKt           ",
"        8KKn                                                               kKKt           ",
"        8KKn                                                               kKKt           ",
"        8KKn                                                             ##kHHe           ",
"        8KJn                                                            iKKd              ",
"        8KKn                                                            iJKd              ",
"        8KKm                                                            iKKd              ",
"        8KJm                                                            iKKd              ",
"        8KKn                                                            iJKd              ",
"        1CCc55*                                                         9CCd55*           ",
"           tKKk                                                            kKKt           ",
"           tKKk                                                            kKKt           ",
"           tKKk                                                            kKKt           ",
"           tKKk                                                            kKKt           ",
"           tKKk                                                            kKKt           ",
"        *aadcc8                                                            kKKt           ",
"        8KKn                                                               kKKt           ",
"        8KKn                                                               kKKt           ",
"        8KJn                                                               kKKt           ",
"        8KKm                                                               kKKt           ",
"        8KKn                                                               zKKt           ",
"        8KKn                                                               kKKt           ",
"        8KKn                                                               kKKt           ",
"        8KKn                                                               kKKt           ",
"        9KJn                                                            9CCd55*           ",
"        9KKn                                                            iKKd              ",
"        8KJm                                                            iKKd              ",
"        @;;iSSi                                                         iJKd              ",
"           tKKd                                                         iKKd              ",
"           tKKk                                                         iKKd              ",
"           tKKk                                                         iJKd              ",
"           tKKk                                                         iJKd              ",
"           rJJk@@                                                      @iJJd              ",
"              dKJi                                                   wKKc                 ",
"              dKKi                                                   9KKc                 ",
"              iDDa*;***@                                     *;***;**tDFk                 ",
"                 nKKKKK3                                    @JKKKKKKKN                    ",
"                 cKKKKK3                                    @KKJKKKKKN                    ",
"                 aCAZZZw1333133333333313133133131313133133333ACAACACZz                    ",
"                       ZKKJKKKKKKKJKKKKKKKKKKKKKKKKKKKKKKKJKJ                             ",
"                       ZKKKKKKKKKKKKKKKKKKKKKKKKKKKKKKKKKKKKJ                             ",
"                       kNNNNNNNNKKHNNNNNNNNNNNNNNNNNFKKVNNNNm                             ",
"                                LLL                 LLL                                   ",
"                                LLL                 LLL                                   ",
"                                LLL                 LLL                                   ",
"                                LLL                 LLL                                   ",
"                                LLL                 LLL                                   ",
"                                LLL                 LLL                                   ",
"                                LLL                 LLL                                   ",
"                                LLL                 LLL                                   ",
"                                LLL                 LLL                                   ",
"                                LLL                 LLL                                   ",
"                                LLL                 LLL                                   ",
"                             LLL                       LLL                                ",
"                             LLL                       LLL                                ",
"                             LLL                       LLL                                ",
"                                                                                          ",
"                                                                                          ",
"                                                                                          ",
"                                                                                          ",
"                                                                                          ",
"                                                                                          "
};
