/* XPM */
static char *tree_1[] = {
/* columns rows colors chars-per-pixel */
"90 90 70 1 ",
"  c #A2745E",
". c #A2755E",
"X c #A3755E",
"o c #A3765E",
"O c #A3765F",
"+ c #A4775F",
"@ c #A4785F",
"# c #A57B60",
"$ c #A67C60",
"% c #A67D60",
"& c #A67E60",
"* c #A77E60",
"= c #A78061",
"- c #A88161",
"; c #A88261",
": c #A88361",
"> c #AA8562",
", c #AA8662",
"< c #AA8762",
"1 c #AB8863",
"2 c #AB8963",
"3 c #AD8C64",
"4 c #AD8D64",
"5 c #AE9064",
"6 c #AF9065",
"7 c #AF9165",
"8 c #AF9265",
"9 c #B09365",
"0 c #B09465",
"q c #B19766",
"w c #B39A67",
"e c #B49C67",
"r c #B49D68",
"t c #B59E68",
"y c #B6A168",
"u c #B6A269",
"i c #B7A469",
"p c #B8A569",
"a c #B8A76A",
"s c #B9A86A",
"d c #B9A96A",
"f c #BAAA6A",
"g c #BAAA6B",
"h c #BAAB6B",
"j c #BBAC6B",
"k c #BBAD6B",
"l c #BCAE6C",
"z c #BCAF6C",
"x c #BDB16C",
"c c #BEB36D",
"v c #BEB46D",
"b c #BFB46D",
"n c #BFB56D",
"m c #BFB66D",
"M c #C1BB6E",
"N c #C3BD6F",
"B c #C3BF6F",
"V c #C4C170",
"C c #C6C471",
"Z c #C7C871",
"A c #C8C972",
"S c #C9CB72",
"D c #CACF73",
"F c #CCD274",
"G c #CDD474",
"H c #CFD875",
"J c #CFD975",
"K c #D0DD76",
"L c #D2E077",
"P c None",
/* pixels */
"                                                                                          ",
"                                                                                          ",
"                                   **************************                             ",
"                                  <LLLLLLLLLLLLLLLLLLLLLLLLLK                             ",
"                                  <LLLLLLLLLLLLLLLLLLLLLLLLLK                             ",
"                             121119SSSSSSSSSSSSSSSSSSSSSSSSSS11<                          ",
"                             KLLLLF                         @LKF                          ",
"                             KLLLLS                         @LLF                          ",
"                       38q8q9VVVVVn                         @VVMq99q91                    ",
"                       ZLLKLL@                                 :LLKLLN                    ",
"                       CLLLLL+                                 :KLLLLN                    ",
"                    8etcMnnnM                                  *nMnnnztt3                 ",
"                    NLL3                                             qLLc                 ",
"                    NLL3                                             qLLc                 ",
"                 8ahhhh*                                             <hhhhh3              ",
"                 cLLq                                                   uLKh              ",
"                 cLLq                                                   uLLh              ",
"              8cchuu:                                                   1uuhcc3           ",
"              hLKu                                                         hLLt           ",
"              aLLu                                                         hLLt           ",
"              hLKu                                                         jLLt           ",
"              hLLu                                                         jLLt           ",
"              hKLu                                                         jLLt           ",
"           qCCh33*                                                         =33cCC3        ",
"           tLLj                                                               MLLq        ",
"           tLLj                                                               nLL9        ",
"           tLLj                                                               nKL9        ",
"           tLLj                                                               MLL9        ",
"           tLLj                                                               MLL9        ",
"           tLLj                                                               nKL9        ",
"           tLLj                                                               nLL9        ",
"           tLLj                                                             @*nHH8        ",
"           tLLh                                                            hLLt           ",
"           tLLj                                                            hLLt           ",
"           tLLh                                                            jLLt           ",
"           tLLh                                                            jLLt           ",
"           tLLj                                                            jLLt           ",
"           9CCh88=                                                         tCCu83*        ",
"              hLLu                                                            nLLq        ",
"              aLLu                                                            MKL8        ",
"              hKLu                                                            MLL9        ",
"              hLKu                                                            nLL9        ",
"              hKLu                                                            nKL9        ",
"           <aihjc3                                                            MLL9        ",
"           tLLj                                                               nLL9        ",
"           tLLj                                                               nLL9        ",
"           tLLj                                                               MLL9        ",
"           tLLh                                                               nLL9        ",
"           tLLj                                                               nLK9        ",
"           tLLj                                                               nLL9        ",
"           tLLj                                                               MLLq        ",
"           tLLj                                                               nKK9        ",
"           tLLj                                                            tCCi88*        ",
"           tLLj                                                            jLLt           ",
"           tLLj                                                            hLLt           ",
"           @<<hSSw                                                         hLLt           ",
"              hLLu                                                         jLLt           ",
"              hLLu                                                         jLLt           ",
"              aKLu                                                         jLLt           ",
"              hLLu                                                         jLLt           ",
"              aKKu@@                                                     @@jKKw           ",
"                 cLLq                                                   uLKh              ",
"                 cLLq                                                   uLLh              ",
"                 hFFw:::::                                      :=::::::uFFu              ",
"                    NLLLLL:                                    :KLLLLLLLc                 ",
"                    NLLLLL:                                    :LLLLLLLLc                 ",
"                    jZSCZZq333333333333333333333333333333333333qZZZZZZZZa                 ",
"                          FKLLLLLLLLLLLLLLLLLLLLLLLLLLLLLLLLLLLF                          ",
"                          FLLLLLLLLLLLLLLLLLLLLLLLLLLLLLLLLLLLLF                          ",
"                          nNNNNNNNVLLGNNNNNNNNNNNNNNNNNHLLNNNNNn                          ",
"                                   PPP                 PPP                                ",
"                                   PPP                 PPP                                ",
"                                   PPP                 PPP                                ",
"                                   PPP                 PPP                                ",
"                                   PPP                 PPP                                ",
"                                   PPP                 PPP                                ",
"                                   PPP                 PPP                                ",
"                                   PPP                 PPP                                ",
"                                   PPP                 PPP                                ",
"                                   PPP                 PPP                                ",
"                                   PPP                 PPP                                ",
"                                PPP                       PPP                             ",
"                                PPP                       PPP                             ",
"                                PPP                       PPP                             ",
"                                                                                          ",
"                                                                                          ",
"                                                                                          ",
"                                                                                          ",
"                                                                                          ",
"                                                                                          "
};
