/* XPM */
static char *victory_banner[] = {
/* columns rows colors chars-per-pixel */
"192 64 21 1 ",
"  c #00163E",
". c #01173E",
"X c #01173F",
"o c #A5C263",
"O c #A4C363",
"+ c #A5C363",
"@ c #C0D470",
"# c #C1D470",
"$ c #C0D570",
"% c #C1D570",
"& c #C0D471",
"* c #C1D471",
"= c #C1D571",
"- c #FFC67A",
"; c #FFC67B",
": c #FFC77B",
"> c #E8EEAA",
", c #FEFCF4",
"< c #FFFCF4",
"1 c #FFFCF5",
"2 c #FEFDF5",
/* pixels */
"@@@+=====#@=========#+==================%==#==@@@==@=%%%=@@=@=##o=========####o=#####o=%%%##%%%###====%%###o==%%%#########===%%%===============@@=@@@==@=#@@@@===@@===#==#@@==@==@@==@@=@===@@@@",
"@@@@====#==@@=======##==================%###@@==@==@==%%@@@===##=====o====####==####====%%##%%####====%%####==%=%###%%##o#==%%%#===+============@=@===@@==@=@=@=@===%=#=##====@@@@@====@=@@@@=@=",
"@@@@======##=@======%#%%====%%=======%%==@@@@@@==@=@@@@@@@#%@@==%===####=%%#====%%======o###====#===##%###%%======##%%======###%========%======@@@=@@=@=#=#==@=@##==%=====#@=@==**##@=@@@===@@@@",
"@@@@=====#=%==+=====%%%%=======%====%%======@===@===@@@@*#=%@@==%===####=%%%====%%%======###====#o==####%%%=======o#%=======#*##=========%%=@@@@@@==@@@=###====@===@%====#=#o===*###=@=@@@@=@@@@",
"%%%%=======%======%%==%%@@**####========@==@@@@=@=@@@@@@==%%====%%====%#=====%%%====%%====%%%#==#####=======#%%===####==%%%%#o@=====@=@===%%%%@@=====@=@%==#===+#=+=====================@@*@@@@@",
"%%%%===========+==%=%%%%@@**=%##========@@==@=@@=@@=@@====%====o#%=o==%%=====%#%====%%%===%%##==###%#o======#%%===%%##==#%%%##=======@@@=%%===%%%===@==@%=%#===#%**#===================+=@**@@@@",
"XXXXXXXXXXXXXXXXXXXXX....X  ....XXXX====@@=@=@=o+==++@==%%====%#####===%====####==####======###=##%%======####=====%#o==##=%======%%===@%%%===%=@=@@@@=@%o+=XX  ..  XXXX.XXXXX..XXXXXXXX....X...",
"XXXXXXXXXXXXXXXXXXXXXX..X.XX....XXXX=====@@==@=o+@@++==@======%%####===%%%=o####o#####======###o=o%%======o###====%%##==##========+====@=%%%=%%%====@@=@=++=XX  ..  XXXX.XXXXXXXXXXXXXXX.X.XX.X.",
"XX::<<2<2<<<<112<2<<2<<22<<22<2<<<XX+=====%=====@++@@@@@==@@=%%%====####%%=======%%%##==========================%===######===%%%=##=%%@@#=##====%@=@=%%++%+=  ::2<<22<2<22222222<21<22<<<22<<<.X",
"XX::2<<2<2<21111<2<<2<1<<<22<<22<<XX=+==o========++==@@==@=@%=%%%===#####%=o======%%##==+===========@*====%%====%===######====%%##==%%@@===%====@@@===%o+%==..::222<222<<<<<<222<11<<222222<<<..",
"..::<<2,2<22222222<22222<222<222<<..==============@@=@===@=@%===%%==#+######%%======###=========%%==#o**##%%#o##%%==+=###===#%=%=%==###@=#=%=====@@@===++===..::<121<2<2<<<<<2222<21222222<2<< X",
"..::<<22<<222222<22<2221<22<222<<<.X==============+==@@@=@==%===#%====#######%%%===%##o=========%%==###*#######=##====##o===##%%=%%=##@@#===%===@@@====++===..::122121<2<<<22<221222<222<2<<<<X ",
"..::2222<<2<22<2<2<221<222<<<2<2<<.X========+=========%@==@=====####%%%%==+####*###%%%%%=======+=%#####*##======#@@@==%#==#*##*%%=%===###o+@*+===%========%%XX::221<22222<2222<<222122222222<<XX",
"..;;,,,,22<<<<222<22222222<<<2<2<2XX========**========%%@=%+====##@@%=%%===*######o%%%%%====+*===#####*#o%======#@@@==%%==+*##%%==%%==+#@o+@**==%%=+========XX::<22<<2<<2222222<222212<2<22<<<XX",
"..;;,,,,222222222222222122<<..XX....XXXXXX...X..XXXXXXXXXXX.XXXX....XXXXXX. ........XXXXXXXXX.XX..... . .XXXXXX.X...XXXXXX .....XXXXXX....XXXX......XXXXXXXXX.X.XXXX2<<<2222222222222<222222<<  ",
"..;;,,,,2<2222222222222222<< XXX....XXXXXXX.XXX.XXXXXXXXXX..XXXXX...XXXXXX    ........XXXXXXXXX....... ...XX..XX....XXXXXX. ....XXXXXX...XXXXX......XXXXXXXXX.X.XXXX<2<2<2222222222222222<2<<< X",
"..::222222222222222222222222XX;;222222222222222222222222222222222<2222222222222222222222222222222222222222222222<22222222222222222222222222222222222222222222222<<  <<<<2222222222222222222222  ",
" .::222222222222222222222222XX;;22222222222222222222222222222222<<2222222222222222222222222222222222222222222222<<2222222222222222222222222222222222222222222222<<.X<<222222222222222222222222XX",
"  ::222222222222222222222222  ;;22222222222222222222222222222222222222222222222222222222222222222222222222222222222222222222222222222222222222222222222222222222<2XX22222222222222222222222222XX",
"  ::222222222222222222222222  ;;2222222222222222222222222222222222222222222222222222222222222222222222222222222222222222222222222222222222222222222222222222222222XX22222222222222222222222222XX",
"  :;22222222222222222222,,,,  ;;22222222222222222222222222222222222222222222222222222222222222222222222222222222222222222222222222222222222222222222222222222222<< X222222222222222222222222<<  ",
"  ;;22222222222222222222,,,,  ;;22222222222222222222222222222222222222222222222222222222222222222222222222222222222222222222222222222222222222222222222222222222<< X222222222222222222222222<<  ",
"  ;-22222222222222222222,2,,  ;;22222222222222222222222222222222222222222222222222222222222222222222222222222222222222222222222222222222222222222222222222222222<<XX222222222222222222222222<<  ",
"  --2222222222222222222222,,  ;;2222222222222222222222222222222222222222222222222222222222222222222222222222222222222222222222222222222222222222222222222222222222XX22222222222222222222222222XX",
"  --,,,,22222222222222222222..;;2222222222222222222222222222222222222222222222222222222222222222222222222222222222222222222222222222222222222222222222222222222222XX22222222222222222222222222XX",
"  --,,,,22222222222222222222..;;2222222222222222222222222222222222222222222222222222222222222222222222222222222222222222222222222222222222222222222222222222222222XX222222222222222222222222<<XX",
"  --22,,22222222222222222222..::22222222222222222222222222222222222222222222222222222222222222222222222222222222222222222222222222222222222222222222222222222222<<XX222222222222222222222222<<  ",
"  --2,,,22222222222222222222..:;22222222222222222222222222222222222222222222222222222222222222222222222222222222222222222222222222222222222222222222222222222222<<  222222222222222222222222<<  ",
"..::22222222222222222222,,,,. ;;22222222222222222222222222222222222222222222222222222222222222222222222222222222222222222222222222222222222222222222222222222222<<  <<222222222222222222222222  ",
" .::22222222222222222222,,,,  ;;2222222222222222222222222222222222222222222222222222222222222222222222222222222222222222222222222222222222222222222222222222222222XX<<222222222222222222222222XX",
"  ::22222222222222222222,2,,  ;-2222222222222222222222222222222222222222222222222222222222222222222222222222222222222222222222222222222222222222222222222222222222XX<2222222222222222222222222XX",
"  ::2222222222222222222222,,  --2222222222222222222222222222222222222222222222222222222222222222222222222222222222222222222222222222222222222222222222222222222222XX<2222222222222222222222222XX",
"  :;222222222222222222222222  --,,,,2222222222222222222222222222222222222222222222222222222222222222222222222222222222222222222222222222222222222222222222222222<< .222222222222222222222222,,  ",
"  ;;2,2222222222222222222222  --,,,,2222222222222222222222222222222222222222222222222222222222222222222222222222222222222222222222222222222222222222222222222222<< .222,2222222,2222222,2222,,  ",
"  ;-,,,,2222222222,,22222222  ;;2,,,2222222222222222222222222222222222222222222222222222222222222222222222222222222222222222222222222222222222222222222222222222<2..22,,222222,,222222,,2222,<  ",
"  --,,,,22222222<<<,22222222  -;2,,,222222222222222222222222222222222222222222222222222222222222222222222222222222222222222222222222222222222222222222222222222222..22,,222222,,222222,,22222<  ",
"  --,,,,,,,,2222,,,,222222,,..;;2222222222222222222222222222222222222222222222222222222222222222222222222222222222222222222222222222222222222222222222222222222222XX,,,,2222,,,,2222,,,,22222,. ",
"  --,,,,,,,,2222,,,,22222222..;:2222222222222222222222222222222222222222222222222222222222222222222222222222222222222222222222222222222222222222222222222222222222XX,,,,2222,,,,2222,,,,222222..",
"  --::--::::::::::::::;;;:::  ::22222222222222222222222222222222222222222222222222222222222222222222222222222222222222222222222222222222222222222222222222222222<<. --::::::;-;:::::;-::::::::.X",
"  --::--::::::::::::::;;;;::  ::22222222222222222222222222222222222222222222222222222222222222222222222222222222222222222222222222222222222222222222222222222222<<  -;::::::;;;:::::;;;::::::;.X",
"  ....X.  XXXX........XXXX..  --2222222,22222222222222222222222,2222222222222222222222222222222222222222222222222222222,2222222222222222222222222222222222222222<2      ......  ..XXX....     XX",
"   ...X.  X.XX......  ..XX..  --2222222,22222222222222222222222,2222222222222222222222222222222222222222222222222222222,22222222222222222222222<222222222222222222 X    ....     .XX......    XX",
"*###====##@>>=@@=%==###o@@##  --222222,,2222222222,,2222222222,,2222222222,,22222222222222,,2222222222,,222222,,222222,,2222222222,,2222222222,<222222,,222222,,22XX==*+====#####@@@##@=#####@@=",
"o#####==o#@>>==@====####@@o#  -;222222,,22222222,,,,2222222222,,222222222,,,22222222222222<,2222222222,,222222,,222222,,222222222,,,2222222222,,222222,,222222,,22XX========####o*@@#===####o*@=",
"*@@=#o==%>>=###o========@%%#  ;;2222,,,,,,,,2222,,,,,,,,2222,,,,,,,,2222,,,,,,,,,,,,2222,,,,<<<<222,,,,,22,,,,,,2222,,,,,,,,2222,,,,,,,,2222,,,,22,,,,,,22,,,,,,,,  ====o=======#####===%%%#####",
"*@==##==%>>=##==o#==%=====## .;;2222,,,,,,,,2222,,,,,,,,2222,,,,,,,,2222,,,,,,,,,,,,2222,,,,<<<22222,,,,22,,,,,,2222,,,,,,,,2222,,,,,,,,2222,,,,22,,,,,,22,,,,,,<,  ====##==%===####o=====%%####",
"===>>###%>>=====####%%===o##..:;::::--::::::::::--::::::::::;;::::::::::--:::::::::;:::::;::::::;:::::::::::::::::::--::::::::::;-::::::::::;;::::::::::::::::::::. *#######%%==#o##========o=%#",
"===>>###%>>=====####%%===###..:;::::;;::::::::::;;::::::::::;;::::::::::;;::::::::::::::::::::::;;::::::::::::::::::;;::::::::::;;::::::::::;:::::::::::::::::::::..*#######%%====##==========%%",
"==o==>>==>>=%%o=====%%%####=......XX.......       XXXXXX.XXXXX.     ...   .XXXXX.     XXX.......  ......  .......   ...   .XXXXX..    XXX.....  ....XXXX  ...XXX.   #####+=%%###%%%###=========%",
"%%##=>>==>>=%%##====%%#####oXX.. .XX.......       XXXXXX..XX....    ..    ..XX.X..    XXX.......   .....   .......  ..    ..XX.X..    XXXX....   ...XXXX  ...XXX    ####====%%##==%%##====%%===%",
"%###=>>=====%###=>>=o#####%%====#*@@#=@@%%==#####*@@##%%o=##==%#@@#o%%==###o##*@#####*@=##======**##=#==*###@@==@@#o%%==###o##*@%#==###=#>>#######=%=>>+#+##%%====*+%#=======+##====##o=##%%====",
"%###=>>=====####=>>==####%%%====o*@@#===%%==####o*@@##%%####==##@@@#%%%=#####=@@###%#o@@####====*o####==*o###===@@@*%%%=#####=@@%%%=##+=#>>#######===>>#==####======%%%======###====##==###%===o",
"==o#=>>=###=====##%>>=======##%%###=#>>==>>=##%%#####===%%%#o###==%###==#%==####==%%######====o=@===o===@=========####==%%==####====#%%=#>>===###===###>>===##+===####==%>>%=>>=##o=====##====##",
"===#=>>=###o====#%%>>=======#%%%###=o>>==>>=###%####o===%%##=###==%%##==#%==##o#==%%###%=o==%=##@@==##==@@===o====####==#===####====#%%=*>>===%%#+==###>>===##====####==#>>%=>>=##======##==%%##",
"==####%%##%%==o=##%>>=====o###==##=====>>===##%%#o##==========##===%#===##==========##%%====%###====####====####===%#===##====o===####==*##+===%====###>>#==###%=%###===##%>>===##%%====o===%###",
"==###%%%#%%%==####%>>======###==##=====>>==o##====#%%=========#%====o===##===========o%%====####====####%===####====o===##======+#####==**##========###>>===###%==##+===##=>>===###%%%=o====%%##",
"==%%==%%%########==>>##=========#o==##o==================%%%==%%%%%===####===%%%######======####%%======##o===%#%%%===####===%%%%%%###======#%%=##+====>>###+=%%%%==+#####====%%======######====",
"==%%==%%#####%###o=>>##o========##==##====================%%==%%#%%==o####===%#%#%##=o======###%##======##====%%#%%==o####===%#%==%###=====+#%%=####===>>###====%%===#####====%%====%%######====",
"##%#======##%%======##%%%%==o=##====##%%%%====##%%====######====##====##o===####%%======%%==##%%###=##%%##%%===%##====##o===####====##+===####==####%===##%%====##====###===####==##%###o=%#====",
"####=======o%%======###%%%==####====###%#%%%=o##%%%=o#######====##====##====####%%======%%===o%%###o#%%%###%===%##====##====####====##====####==####%===##%%====##====###+==####=o##%%##==%%%%=o",
"##==%%o===####====##o=%%%#====##=%##o=%%##====####====####==%%o=##o=%%%#####o=======%%==%###====##%%####===%##%%##o=%%%#####o===##+======%%%====%===%###====##%%####==%%#####===%###==##====####",
"=o==%%##==#%##==%%##====##====#%%%##====##====####====##=o==%%####====%%####========%%==####====#%%%##=o===%###%##====%%####====##=======%##=+==%===%###====##%%##=+==%%#####+==%%##=o##====####",
"====%###==%%#===%###====###===%%%###====##o==%%####==%%%====%###========o=%#%===o=##%#====##==o###==========##%%========o=%#%===###%====########%%====##==+###==========##%%====%%====##%%==%#%=",
"====####==%%#o==%%##====###o==%%%###====##===%%%##o===%%====####==========%%%===######=====o===###=========o##============%%%===###%%%=+##########===+##===###===========+%%==========###%%%%%%="
};
